<svg xmlns="http://www.w3.org/2000/svg" width="92.209" height="90.636" viewBox="0 0 92.209 90.636">
  <g id="icon4" transform="translate(-753.75 -3380.603)">
    <path id="Trazado_183262" data-name="Trazado 183262" d="M1475,415.544c0,24.752,17.683,29.092,45.8,29.092s45.408-3.554,45.408-28.306S1548.919,355,1520.8,355,1475,390.792,1475,415.544Z" transform="translate(-720.75 3026.103)" fill="#ff0092" stroke="rgba(0,0,0,0)" stroke-width="1"/>
    <g id="_2" data-name="2" transform="translate(683.54 3384.228)">
      <path id="Trazado_183294" data-name="Trazado 183294" d="M141.545,72.842h-2.654l-2.359-7.258a4.482,4.482,0,0,1,.589-4.027l3.85-5.416a8.7,8.7,0,0,0,1.534-6.156L139.92,32.568a8.679,8.679,0,0,0-2.059-4.51c-3.821-4.314-8.873-7.188-15.45-8.783a1.248,1.248,0,0,0-.2-.006l-1.332-2.324a4.576,4.576,0,0,0-6.249-1.695l-5.121,2.935a8.558,8.558,0,1,0-13.081,7.5l-5.121,2.935a4.585,4.585,0,0,0-1.695,6.251L92.5,39.905a8.56,8.56,0,1,0,7.6,13.254l2.886,5.033a4.549,4.549,0,0,0,2.774,2.143,4.6,4.6,0,0,0,1.2.161,4.551,4.551,0,0,0,2.279-.613l8.449-4.921a12.7,12.7,0,0,0,.373,8.431,1.388,1.388,0,0,0,.065.136c1.937,3.558,2.658,5.791,1.843,9.313H118.1a1.3,1.3,0,0,0-1.3,1.3V81.6a1.3,1.3,0,1,0,2.6,0V75.437h1.434a1.352,1.352,0,0,0,.155.022,1.09,1.09,0,0,0,.134-.022h19.127V81.6a1.3,1.3,0,0,0,2.6,0V74.14A1.3,1.3,0,0,0,141.545,72.842ZM119.755,50.756l-11.808,6.881a1.983,1.983,0,0,1-2.707-.735l-4.151-7.239a1.3,1.3,0,0,0-2.381.316,5.964,5.964,0,1,1-4.163-7.262,1.3,1.3,0,0,0,1.475-1.9l-4.149-7.239a1.985,1.985,0,0,1,.733-2.707l7.4-4.243a1.3,1.3,0,0,0-.356-2.391A5.9,5.9,0,0,1,95.79,21.4a5.964,5.964,0,1,1,10.348-5.932,5.9,5.9,0,0,1,.505,4.76,1.3,1.3,0,0,0,1.882,1.518l7.4-4.243a1.987,1.987,0,0,1,2.707.735l7.85,13.694a7.658,7.658,0,0,0-3.565,6.659l.118,8.606a1.316,1.316,0,0,1-.552,1.094,12.667,12.667,0,0,0-2.475,2.381A1.171,1.171,0,0,0,119.755,50.756Zm.693,11.6A10.1,10.1,0,0,1,123.991,50.4a3.913,3.913,0,0,0,1.64-3.249l-.118-8.606a5.2,5.2,0,0,1,5.107-5.286.261.261,0,0,1,.257.1.353.353,0,0,1,.11.251l.053,3.434h-1.564a.037.037,0,0,1-.039-.037,1.3,1.3,0,1,0-2.6,0,2.637,2.637,0,0,0,2.634,2.634h1.605l.145,9.345a1.3,1.3,0,0,0,2.6-.041l-.236-15.377a2.963,2.963,0,0,0-2.958-2.909l-.053,0a7.665,7.665,0,0,0-1.691.228l-4.866-8.488a25.384,25.384,0,0,1,11.9,7.372,6.106,6.106,0,0,1,1.436,3.169l2.579,17.391a6.071,6.071,0,0,1-1.078,4.3L135,60.054a7.075,7.075,0,0,0-.935,6.349l2.092,6.439H122.643C123.423,68.895,122.513,66.161,120.447,62.356Z" fill="#fff"/>
      <path id="Trazado_183295" data-name="Trazado 183295" d="M113.452,33.186a1.3,1.3,0,0,0-.143-1.363l-3.662-4.717,1.809-5.691a1.3,1.3,0,0,0-1.676-1.613l-5.618,2.025-4.852-3.477a1.3,1.3,0,0,0-2.055,1.1l.191,5.968-4.809,3.54a1.3,1.3,0,0,0,.409,2.292l5.734,1.664,1.882,5.667a1.3,1.3,0,0,0,1.053.876,1.324,1.324,0,0,0,.179.012,1.3,1.3,0,0,0,1.073-.568l3.355-4.942,5.97-.037A1.3,1.3,0,0,0,113.452,33.186Zm-7.83-1.823a1.3,1.3,0,0,0-1.065.568l-2.259,3.33-1.267-3.819a1.3,1.3,0,0,0-.872-.837l-3.864-1.12L99.535,27.1a1.3,1.3,0,0,0,.526-1.086l-.128-4.021,3.271,2.344a1.292,1.292,0,0,0,1.2.165l3.787-1.365-1.22,3.833a1.3,1.3,0,0,0,.212,1.19l2.469,3.178Z" transform="translate(8.014 8.534)" fill="#fff"/>
    </g>
  </g>
</svg>
