<svg xmlns="http://www.w3.org/2000/svg" width="92.209" height="90.636" viewBox="0 0 92.209 90.636">
  <g id="icon2" transform="translate(-258.148 -3380.603)">
    <path id="Trazado_114226" data-name="Trazado 114226" d="M1475,415.544c0,24.752,17.683,29.092,45.8,29.092s45.408-3.554,45.408-28.306S1548.919,355,1520.8,355,1475,390.792,1475,415.544Z" transform="translate(-1216.352 3026.103)" fill="#ff0092" stroke="rgba(0,0,0,0)" stroke-width="1"/>
    <g id="_1" data-name="1" transform="translate(261.199 3375.096)">
      <path id="Trazado_183254" data-name="Trazado 183254" d="M59.911,66.749A1.311,1.311,0,0,0,58.6,68.06a1.589,1.589,0,0,1-1.421,1.712H31.539a1.589,1.589,0,0,1-1.421-1.712,1.311,1.311,0,0,0-2.623,0,4.206,4.206,0,0,0,3.9,4.319v1.775a1.3,1.3,0,0,0,0,2.6v1.773a1.3,1.3,0,0,0,0,2.6v.34a4.047,4.047,0,0,0,4.043,4.043h3.672v1.075a3.3,3.3,0,0,0,3.3,3.295h3.9a3.3,3.3,0,0,0,3.3-3.295V85.506h3.673a4.047,4.047,0,0,0,4.042-4.043V81.1a1.309,1.309,0,0,0,0-2.556V76.731a1.309,1.309,0,0,0,0-2.556v-1.8a4.206,4.206,0,0,0,3.9-4.319A1.311,1.311,0,0,0,59.911,66.749ZM46.981,86.581a.674.674,0,0,1-.673.673h-3.9a.674.674,0,0,1-.673-.673V85.506h5.244Zm6.3-3.7H35.442a1.421,1.421,0,0,1-1.421-1.42v-.328h2.034a1.311,1.311,0,1,0,0-2.622H34.021V76.765h2.034a1.312,1.312,0,0,0,0-2.623H34.021V72.394H54.7v1.748H52.226a1.312,1.312,0,0,0,0,2.623H54.7v1.748H52.226a1.311,1.311,0,1,0,0,2.622H54.7v.328A1.421,1.421,0,0,1,53.277,82.883Z" fill="#fff"/>
      <path id="Trazado_183255" data-name="Trazado 183255" d="M46.544,74.142H41.737a1.312,1.312,0,0,0,0,2.623h4.807a1.312,1.312,0,1,0,0-2.623Z" fill="#fff"/>
      <path id="Trazado_183256" data-name="Trazado 183256" d="M46.544,78.513H41.737a1.311,1.311,0,1,0,0,2.622h4.807a1.311,1.311,0,1,0,0-2.622Z" fill="#fff"/>
      <path id="Trazado_183257" data-name="Trazado 183257" d="M47.11,11.779a1.313,1.313,0,0,0-1.44,1.3V66.272a1.311,1.311,0,0,0,1.311,1.311h5.385a5.023,5.023,0,0,0,5.017-5.018v-3.8a2.422,2.422,0,0,1,1.088-1.987A25.131,25.131,0,0,0,69.5,35.98C69.5,23.234,60.083,13.056,47.11,11.779ZM57,54.613a5.039,5.039,0,0,0-2.236,4.155v3.8a2.4,2.4,0,0,1-2.4,2.4H48.293V14.574A21.518,21.518,0,0,1,66.878,35.98,22.516,22.516,0,0,1,57,54.613Z" fill="#fff"/>
      <path id="Trazado_183258" data-name="Trazado 183258" d="M60.583,39.1a1.308,1.308,0,0,0-1.654.835,14.01,14.01,0,0,1-2.4,4.415,1.311,1.311,0,1,0,2.043,1.643,16.6,16.6,0,0,0,2.846-5.238A1.31,1.31,0,0,0,60.583,39.1Z" fill="#fff"/>
      <path id="Trazado_183259" data-name="Trazado 183259" d="M54.646,21.879a1.312,1.312,0,1,0-1.378,2.232A13.24,13.24,0,0,1,59.583,34.4a1.311,1.311,0,0,0,1.305,1.206c.035,0,.071,0,.107,0a1.312,1.312,0,0,0,1.2-1.412A15.837,15.837,0,0,0,54.646,21.879Z" fill="#fff"/>
      <path id="Trazado_183260" data-name="Trazado 183260" d="M30.078,56.819c.062-.006.122-.02.183-.028a2.4,2.4,0,0,1,1.074,1.974v3.8a5.023,5.023,0,0,0,5.017,5.018h5.385a1.311,1.311,0,0,0,1.311-1.311V16.811a4.331,4.331,0,0,0-1.734-3.483,4.384,4.384,0,0,0-3.871-.719c-.685.2-1.366.423-2.025.673a8.358,8.358,0,0,0-3.151-.619,8.454,8.454,0,0,0-8.44,8.262,8.452,8.452,0,0,0-5.382,12.494,8.433,8.433,0,0,0,2.423,13.426A8.446,8.446,0,0,0,29.147,56.87,8.57,8.57,0,0,0,30.078,56.819ZM23.37,49.05a5.822,5.822,0,0,1,.026-1.434,8.309,8.309,0,0,0,1.137.087,8.524,8.524,0,0,0,3.193-.625,1.312,1.312,0,0,0-.984-2.432,5.828,5.828,0,0,1-6.618-9.189c.145.129.289.26.444.38a8.386,8.386,0,0,0,5.156,1.77,8,8,0,0,0,2.553-.407,8.411,8.411,0,0,0,3.872,4.5A1.311,1.311,0,1,0,33.4,39.4a5.836,5.836,0,0,1-2.326-7.907,1.311,1.311,0,1,0-2.3-1.255,8.391,8.391,0,0,0-1.013,4.375,5.869,5.869,0,0,1-1.287.326,5.825,5.825,0,0,1-6.516-5.045,5.831,5.831,0,0,1,4.225-6.344,8.45,8.45,0,0,0,2.5,3.912,1.311,1.311,0,0,0,1.731-1.97A5.829,5.829,0,0,1,34.888,15.9a1.308,1.308,0,0,0,1.426-.161c.6-.228,1.223-.435,1.848-.614a1.784,1.784,0,0,1,1.571.291,1.728,1.728,0,0,1,.693,1.39V21.79a8.485,8.485,0,0,0-1.969-1.266A8.39,8.39,0,0,0,32,20.271a1.311,1.311,0,0,0,.908,2.46,5.828,5.828,0,0,1,7.485,3.45c.009.025.027.043.038.067V64.96H36.352a2.4,2.4,0,0,1-2.4-2.4v-3.8a4.963,4.963,0,0,0-.9-2.842,8.386,8.386,0,0,0,4.5-6.546,1.311,1.311,0,1,0-2.6-.295A5.829,5.829,0,0,1,23.37,49.05Z" fill="#fff"/>
    </g>
  </g>
</svg>
