<svg xmlns="http://www.w3.org/2000/svg" xmlns:xlink="http://www.w3.org/1999/xlink" width="440" height="475.866" viewBox="0 0 440 475.866">
  <defs>
    <clipPath id="clip-path">
      <circle id="Elipse_4905" data-name="Elipse 4905" cx="220" cy="220" r="220" transform="translate(-0.11 -0.11)" fill="#f6f5ff"/>
    </clipPath>
    <clipPath id="clip-path-2">
      <rect id="Rectángulo_35930" data-name="Rectángulo 35930" width="618" height="513" transform="translate(0.255 0.47)" fill="#fff" stroke="#707070" stroke-width="1"/>
    </clipPath>
    <linearGradient id="linear-gradient" x1="1.362" y1="0.267" x2="-0.283" y2="0.802" gradientUnits="objectBoundingBox">
      <stop offset="0" stop-color="#3931a3"/>
      <stop offset="0.274" stop-color="#3931a5"/>
      <stop offset="0.469" stop-color="#3c34af"/>
      <stop offset="0.639" stop-color="#4139be"/>
      <stop offset="0.795" stop-color="#4740d4"/>
      <stop offset="0.94" stop-color="#4f48f0"/>
      <stop offset="1" stop-color="#544dff"/>
    </linearGradient>
    <linearGradient id="linear-gradient-2" x1="0.402" y1="2.353" x2="-0.472" y2="3.038" gradientUnits="objectBoundingBox">
      <stop offset="0" stop-color="#ffe7db"/>
      <stop offset="0.326" stop-color="#ffe4d8"/>
      <stop offset="0.557" stop-color="#ffdad1"/>
      <stop offset="0.759" stop-color="#ffcbc5"/>
      <stop offset="0.943" stop-color="#ffb5b3"/>
      <stop offset="1" stop-color="#ffadad"/>
    </linearGradient>
    <linearGradient id="linear-gradient-3" x1="-1.552" y1="1.748" x2="-3.791" y2="1.343" xlink:href="#linear-gradient-2"/>
    <linearGradient id="linear-gradient-4" x1="-0.716" y1="16.419" x2="-2.337" y2="18.337" xlink:href="#linear-gradient-2"/>
    <linearGradient id="linear-gradient-5" x1="0.452" y1="15.289" x2="-1.442" y2="17.997" xlink:href="#linear-gradient-2"/>
    <linearGradient id="linear-gradient-6" x1="-5.022" y1="65.471" x2="-7.429" y2="70.282" xlink:href="#linear-gradient-2"/>
    <linearGradient id="linear-gradient-7" x1="-160.742" y1="170.299" x2="-163.52" y2="174.13" xlink:href="#linear-gradient-2"/>
    <linearGradient id="linear-gradient-8" x1="-2.044" y1="16.966" x2="-5.837" y2="15.236" xlink:href="#linear-gradient-2"/>
    <linearGradient id="linear-gradient-9" x1="-11.25" y1="47.578" x2="-13.813" y2="47.171" xlink:href="#linear-gradient-2"/>
    <linearGradient id="linear-gradient-10" x1="0.974" y1="0.588" x2="0.124" y2="-0.124" xlink:href="#linear-gradient-2"/>
    <linearGradient id="linear-gradient-11" x1="0.5" y1="0.272" x2="0.5" y2="1.24" gradientUnits="objectBoundingBox">
      <stop offset="0" stop-color="#fff"/>
      <stop offset="0.287" stop-color="#fffcfc"/>
      <stop offset="0.49" stop-color="#fff2f2"/>
      <stop offset="0.667" stop-color="#ffe3e3"/>
      <stop offset="0.83" stop-color="#ffcdcd"/>
      <stop offset="0.982" stop-color="#ffb0b0"/>
      <stop offset="1" stop-color="#ffadad"/>
    </linearGradient>
    <linearGradient id="linear-gradient-12" x1="-0.566" y1="-11.885" x2="0.434" y2="-11.885" xlink:href="#linear-gradient-2"/>
    <linearGradient id="linear-gradient-13" x1="-1.097" y1="-3.637" x2="-1.097" y2="-2.874" xlink:href="#linear-gradient-2"/>
    <linearGradient id="linear-gradient-14" x1="-1.049" y1="-4.317" x2="-1.049" y2="-3.553" xlink:href="#linear-gradient-2"/>
    <linearGradient id="linear-gradient-15" x1="-1.009" y1="-5.358" x2="-1.009" y2="-4.595" xlink:href="#linear-gradient-2"/>
  </defs>
  <g id="img1" transform="translate(-910 -801.066)">
    <g id="Grupo_141216" data-name="Grupo 141216" transform="translate(-20.89 -7.934)">
      <circle id="Elipse_4907" data-name="Elipse 4907" cx="220" cy="220" r="220" transform="translate(930.89 809)" fill="#f6f5ff"/>
      <g id="Enmascarar_grupo_117" data-name="Enmascarar grupo 117" transform="translate(931 811.11)" clip-path="url(#clip-path)">
        <g id="Grupo_141184" data-name="Grupo 141184" transform="translate(50.635 -49.58)">
          <g id="Enmascarar_grupo_115" data-name="Enmascarar grupo 115" transform="translate(0 0)" clip-path="url(#clip-path-2)">
            <g id="Grupo_140697" data-name="Grupo 140697" transform="translate(73.782 -284.813)">
              <path id="Trazado_183080" data-name="Trazado 183080" d="M608.1,226.052c16.313-7.109,27.572-22.058,32.3-37.026s1.182-21.271-4.727-20.484-5.415,17.825-16.15,28.723c-16.478,16.729-30.725,10.274-33.483,20.123S592.742,232.75,608.1,226.052Z" transform="translate(-535.135 318.095)" fill="#5476ff" opacity="0.29" style="mix-blend-mode: multiply;isolation: isolate"/>
              <path id="Trazado_183081" data-name="Trazado 183081" d="M565.43,221.679s19.8-18.1,47.6-11.716,48.018,31.259,89.211,25.41,61.15-7.187,84.557,9.74,20.011,55.693,57.16,50.491,71.376-28.2,116.894-21.032,117.209,43.159,126.663,75.976-30.725,69.056-63.814,52.511-53.9-61.665-99.1-70.968c-57.278-11.789-102.106,18.96-126.384,4.079-55.825-34.22-38.51-79.857-68.235-68.564-45.237,17.185-81.707,8.993-105.233-19.74s-38.992-25.079-59.122-14.514Z" transform="translate(-562.591 372.801)" fill="#5476ff" opacity="0.29" style="mix-blend-mode: multiply;isolation: isolate"/>
              <path id="Trazado_183082" data-name="Trazado 183082" d="M564.229,549.1s6.892-26.029,34.679-28.773c45.972-4.543,59.8-14.431,83.2-56.539s63.849-48.744,85.085-77.994,13.59-65,87.226-84.777c57.742-15.514,83.1-62.816,62.842-105.266-16.684-34.96-107.8-44.393-129.69-96.339C748.839,7.5,830.234-40.452,897.026-37.245S1083.15,10.168,1131.114,79.47s52.311,347.771,95.009,434.851,37.463,174.088,5.42,198.143-90.1,64.213-155.991,17.192-102.588-74.236-139.375-80.4c-46.678-7.825-102.246,4.136-125.854-3.786s-14.649-35.825-43.133-55.558c-19.262-13.342-47.9-2.839-74.889-1.829-49,1.829-59.968-48.07-120.078-27.6Z" transform="translate(-564.229 37.396)" fill="url(#linear-gradient)"/>
              <path id="Trazado_183083" data-name="Trazado 183083" d="M648.722,234.393c12.664-4.935,23.242,13.377,26,24.013s7.09,21.295,20.089,31.328,9.454,23.247,1.576,25.5-21.666-3.039-42.937-20.678S627.45,242.682,648.722,234.393Z" transform="translate(-467.822 406.842)" fill="#3931a3"/>
              <path id="Trazado_183084" data-name="Trazado 183084" d="M740.376,272.128c9.61-9.612,26.66,2.9,33.462,11.524s15.058,16.644,30.995,20.6,18.007,17.48,11.7,22.713-21.056,5.935-47.626-1.657S724.236,288.273,740.376,272.128Z" transform="translate(-332.374 454.69)" fill="#3931a3"/>
              <path id="Trazado_183085" data-name="Trazado 183085" d="M699.312,275.18a12.6,12.6,0,1,1-12.6-12.6A12.606,12.606,0,0,1,699.312,275.18Z" transform="translate(-414.42 446.396)" fill="#544dff"/>
              <path id="Trazado_183086" data-name="Trazado 183086" d="M699.455,262.507a5.176,5.176,0,1,1-5.176-5.176A5.176,5.176,0,0,1,699.455,262.507Z" transform="translate(-393.968 439.244)" fill="#5476ff"/>
              <path id="Trazado_183087" data-name="Trazado 183087" d="M608.1,222.791c16.313-7.112,27.572-22.058,32.3-37.028s1.182-21.271-4.727-20.482S630.261,183.1,619.527,194c-16.478,16.731-30.725,10.276-33.483,20.122S592.742,229.487,608.1,222.791Z" transform="translate(-535.135 313.648)" fill="#544dff"/>
              <circle id="Elipse_4806" data-name="Elipse 4806" cx="6.943" cy="6.943" r="6.943" transform="translate(110.488 461.596)" fill="#3931a3"/>
              <circle id="Elipse_4807" data-name="Elipse 4807" cx="2.363" cy="2.363" r="2.363" transform="translate(172.628 432.962)" fill="#3931a3"/>
              <g id="Grupo_140684" data-name="Grupo 140684" transform="translate(52.907 531.583)">
                <circle id="Elipse_4808" data-name="Elipse 4808" cx="44.481" cy="44.481" r="44.481" transform="translate(26.052 79.061) rotate(-62.711)" fill="url(#linear-gradient-2)"/>
                <circle id="Elipse_4809" data-name="Elipse 4809" cx="41.901" cy="41.901" r="41.901" transform="translate(31.769 76.457) rotate(-63.231)" fill="#ffe7db"/>
                <path id="Trazado_183088" data-name="Trazado 183088" d="M656.789,224.386c-.823,9.844-8.081,17.272-16.216,16.594s-14.06-9.208-13.24-19.052,8.081-17.272,16.216-16.594S657.609,214.542,656.789,224.386Z" transform="translate(-531.2 -163.294)" fill="url(#linear-gradient-3)"/>
                <path id="Trazado_183089" data-name="Trazado 183089" d="M638.791,201.185c3.1,2.4,4.372,5.947,2.838,7.932s-5.289,1.65-8.39-.747-4.373-5.947-2.841-7.932S635.69,198.789,638.791,201.185Z" transform="translate(-527.802 -171.674)" fill="url(#linear-gradient-4)"/>
                <path id="Trazado_183090" data-name="Trazado 183090" d="M628.912,201.734c.626,2.413-1.619,5.086-5.02,5.972s-6.663-.357-7.291-2.77,1.619-5.088,5.018-5.972S628.283,199.321,628.912,201.734Z" transform="translate(-545.873 -172.308)" fill="url(#linear-gradient-5)"/>
                <path id="Trazado_183091" data-name="Trazado 183091" d="M628.526,202.05c1.154.534,1.879,1.425,1.617,1.99s-1.409.593-2.564.061-1.879-1.425-1.617-1.99S627.37,201.519,628.526,202.05Z" transform="translate(-533.038 -168.233)" fill="url(#linear-gradient-6)"/>
                <path id="Trazado_183092" data-name="Trazado 183092" d="M632.915,223.492c.934-.863,2.035-1.191,2.458-.733s.007,1.529-.929,2.392-2.035,1.189-2.458.73S631.979,224.352,632.915,223.492Z" transform="translate(-524.977 -139.758)" fill="url(#linear-gradient-7)"/>
                <path id="Trazado_183093" data-name="Trazado 183093" d="M616.651,210.964c-.825,3.1-3.03,5.2-4.923,4.7s-2.758-3.425-1.933-6.523,3.03-5.2,4.925-4.7S617.478,207.866,616.651,210.964Z" transform="translate(-555.435 -164.554)" fill="url(#linear-gradient-8)"/>
                <path id="Trazado_183094" data-name="Trazado 183094" d="M708.8,205.09a43.588,43.588,0,0,1,2.789,4.429c18.045-3.883,30.269-4.833,31.2-1.855,1.56,4.956-28.754,18.91-67.708,31.167s-71.795,18.177-73.355,13.221c-.936-2.976,9.626-9.2,26.643-16.346a44.21,44.21,0,0,1-.251-5.23c-26.171,10.773-43.043,21.073-41.4,26.3,2.38,7.563,42.606,1.64,89.847-13.224S760.179,210.5,757.8,202.942C756.154,197.714,736.424,198.933,708.8,205.09Z" transform="translate(-586.614 -170.979)" fill="#ffadad"/>
                <path id="Trazado_183095" data-name="Trazado 183095" d="M612.154,214.226c.154,1.04-.326,1.971-1.071,2.08s-1.47-.643-1.624-1.683.326-1.971,1.071-2.08S612,213.186,612.154,214.226Z" transform="translate(-555.505 -153.42)" fill="url(#linear-gradient-9)"/>
              </g>
              <path id="Trazado_183096" data-name="Trazado 183096" d="M686.51,236.55a4.861,4.861,0,0,1-4.72-2.891l-3.3-7.478.463,8.161a4.863,4.863,0,0,1-2.89,4.722l-7.478,3.3,8.163-.463a4.863,4.863,0,0,1,4.72,2.888l3.3,7.48-.463-8.163a4.862,4.862,0,0,1,2.891-4.72l7.478-3.3Z" transform="translate(-421.946 396.774)" fill="#fff"/>
              <path id="Trazado_183097" data-name="Trazado 183097" d="M749.623,245.2a6.015,6.015,0,0,1-4.06-5.519l-.289-10.12-3.288,9.574a6.013,6.013,0,0,1-5.519,4.06l-10.12.288,9.574,3.288a6.021,6.021,0,0,1,4.063,5.521l.286,10.118,3.288-9.574a6.019,6.019,0,0,1,5.521-4.06l10.118-.288Z" transform="translate(-343.186 401.384)" fill="#fff"/>
              <path id="Trazado_183098" data-name="Trazado 183098" d="M634.571,183.694a3,3,0,0,1-2.839-1.9l-1.853-4.689.088,5.041a3,3,0,0,1-1.9,2.839l-4.689,1.853,5.041-.085a2.994,2.994,0,0,1,2.839,1.893l1.853,4.691-.085-5.044a2.994,2.994,0,0,1,1.893-2.839l4.692-1.853Z" transform="translate(-483.576 329.865)" fill="#fff"/>
              <path id="Trazado_183099" data-name="Trazado 183099" d="M709.219,233.909a2.6,2.6,0,0,1-2.671-1.274l-2.17-3.8.7,4.316a2.592,2.592,0,0,1-1.274,2.671L700.009,238l4.316-.7A2.6,2.6,0,0,1,707,238.574l2.17,3.793-.7-4.316a2.6,2.6,0,0,1,1.274-2.671l3.793-2.172Z" transform="translate(-379.098 400.397)" fill="#fff"/>
              <path id="Trazado_183100" data-name="Trazado 183100" d="M686.463,143.868a2.6,2.6,0,0,1-1.633-2.467l.095-4.37-1.624,4.058a2.6,2.6,0,0,1-2.47,1.633l-4.37-.095,4.06,1.624a2.6,2.6,0,0,1,1.631,2.47l-.092,4.37,1.624-4.058a2.594,2.594,0,0,1,2.467-1.633l4.373.092Z" transform="translate(-411.205 275.22)" fill="#fff"/>
              <path id="Trazado_183101" data-name="Trazado 183101" d="M717.444,202.326a2.6,2.6,0,0,1-2.489-1.6l-1.676-4.037.149,4.37a2.6,2.6,0,0,1-1.6,2.489l-4.037,1.676,4.368-.149a2.6,2.6,0,0,1,2.489,1.6l1.676,4.037-.149-4.368a2.594,2.594,0,0,1,1.6-2.489l4.037-1.676Z" transform="translate(-368.487 356.559)" fill="#fff"/>
              <g id="Grupo_140687" data-name="Grupo 140687" transform="translate(152.619 448.773)">
                <g id="Grupo_140685" data-name="Grupo 140685" transform="translate(76.994 54.753)">
                  <path id="Trazado_183102" data-name="Trazado 183102" d="M687.267,210.965l6.847-7.48L661.38,187.952l8.208,24.892a15.1,15.1,0,0,0,9.31,9.511l34.993,12.382L688.3,218.616A5.031,5.031,0,0,1,687.267,210.965Z" transform="translate(-661.38 -158.877)" fill="#5476ff"/>
                  <path id="Trazado_183103" data-name="Trazado 183103" d="M699.626,195.08l-5.568,8.475L670.95,175.65l26.147,1.832a15.1,15.1,0,0,1,11.508,6.684l20.609,30.871L707.293,194.2A5.028,5.028,0,0,0,699.626,195.08Z" transform="translate(-648.332 -175.65)" fill="#5476ff"/>
                </g>
                <path id="Trazado_183104" data-name="Trazado 183104" d="M696,175.564c-23.845-19.376-53.943-22.562-64.345-23.077a2.707,2.707,0,0,0-2.725,3.5c3.058,9.957,13.55,38.347,38.2,56.69,19.5,14.509,54.322,33.526,69.573,41.639a10.065,10.065,0,0,0,12.682-2.718l4.58-5.885a10.07,10.07,0,0,0-.487-12.964C741.854,219.968,714.856,190.891,696,175.564Z" transform="translate(-628.803 -152.484)" fill="url(#linear-gradient-10)"/>
                <path id="Trazado_183105" data-name="Trazado 183105" d="M672.283,186.906a181.723,181.723,0,0,0,12.862-18.846c-21.427-12.713-44.622-15.133-53.495-15.573a2.707,2.707,0,0,0-2.725,3.5c2.609,8.492,10.659,30.378,28.253,48.018A181.068,181.068,0,0,0,672.283,186.906Z" transform="translate(-628.803 -152.484)" fill="#ffadad"/>
                <path id="Trazado_183106" data-name="Trazado 183106" d="M675.918,185.123l-10.423-3.843,6.289,9.156a38.712,38.712,0,0,0,11.4,10.777L722.466,225.6l-33.3-32.074A38.682,38.682,0,0,0,675.918,185.123Z" transform="translate(-578.775 -113.221)" fill="#5476ff"/>
                <g id="Grupo_140686" data-name="Grupo 140686" transform="translate(115.885 86.418)">
                  <path id="Trazado_183107" data-name="Trazado 183107" d="M723.833,228.506l-46-28.919,6.005-2.192Z" transform="translate(-677.835 -177.666)" fill="#fff"/>
                  <path id="Trazado_183108" data-name="Trazado 183108" d="M724.769,226.518l-39.346-37.471-.648,6.36Z" transform="translate(-668.371 -189.048)" fill="#fff"/>
                </g>
                <path id="Trazado_183109" data-name="Trazado 183109" d="M732.611,233.919,691.15,204.695l2.935-3.773Z" transform="translate(-543.796 -86.44)" fill="#fff"/>
              </g>
              <g id="Grupo_140690" data-name="Grupo 140690" transform="translate(187.991 325.29)">
                <rect id="Rectángulo_35918" data-name="Rectángulo 35918" width="110.717" height="75.183" transform="translate(6.747)" fill="url(#linear-gradient-11)"/>
                <g id="Grupo_140688" data-name="Grupo 140688" transform="translate(0 75.183)">
                  <path id="Trazado_183110" data-name="Trazado 183110" d="M806.452,152.483H695.735l-6.747,12.931H813.2Z" transform="translate(-688.988 -152.483)" fill="#fff"/>
                  <path id="Trazado_183111" data-name="Trazado 183111" d="M799.155,154.273H694.078l-1.807,3.794h108.69Z" transform="translate(-684.511 -150.044)" fill="#9fa9d1"/>
                </g>
                <rect id="Rectángulo_35919" data-name="Rectángulo 35919" width="98.145" height="62.251" transform="translate(13.033 6.466)" fill="#3931a3"/>
                <rect id="Rectángulo_35920" data-name="Rectángulo 35920" width="124.21" height="5.088" transform="translate(0 88.114)" fill="#9fa9d1"/>
                <g id="Grupo_140689" data-name="Grupo 140689" transform="translate(39.686 17.168)">
                  <text id="_011100" data-name="011100" transform="translate(15.568 5)" fill="#fff" font-size="6" font-family="SegoeUI, Segoe UI" letter-spacing="0.2em"><tspan x="-12.703" y="0">011100</tspan></text>
                  <text id="_101100" data-name="101100" transform="translate(15.204 15.716)" fill="#fff" font-size="7" font-family="SegoeUI, Segoe UI" letter-spacing="0.2em"><tspan x="-14.82" y="0">101100</tspan></text>
                  <text id="_001100" data-name="001100" transform="translate(16.789 26.433)" fill="#fff" font-size="7" font-family="SegoeUI, Segoe UI" letter-spacing="0.153em"><tspan x="-13.998" y="0">001100</tspan></text>
                  <text id="_011110" data-name="011110" transform="translate(15 37.149)" fill="#fff" font-size="7" font-family="SegoeUI, Segoe UI" letter-spacing="0.243em"><tspan x="-15.573" y="0">011110</tspan></text>
                </g>
              </g>
              <g id="Grupo_140696" data-name="Grupo 140696" transform="translate(181.809 636)">
                <rect id="Rectángulo_35921" data-name="Rectángulo 35921" width="15.165" height="8.469" transform="translate(82.913 20.373) rotate(8.763)" fill="url(#linear-gradient-12)"/>
                <g id="Grupo_140694" data-name="Grupo 140694" transform="translate(0 0)">
                  <g id="Grupo_140691" data-name="Grupo 140691" transform="translate(0 0)">
                    <rect id="Rectángulo_35922" data-name="Rectángulo 35922" width="24.282" height="24.619" transform="translate(3.751 0) rotate(8.763)" fill="#fff"/>
                    <rect id="Rectángulo_35923" data-name="Rectángulo 35923" width="6.007" height="24.619" transform="matrix(0.988, 0.152, -0.152, 0.988, 3.751, 0)" fill="url(#linear-gradient-13)"/>
                  </g>
                  <g id="Grupo_140692" data-name="Grupo 140692" transform="translate(24.224 5.159)">
                    <rect id="Rectángulo_35924" data-name="Rectángulo 35924" width="20.722" height="21.665" transform="matrix(0.988, 0.152, -0.152, 0.988, 3.301, 0)" fill="#fff"/>
                    <rect id="Rectángulo_35925" data-name="Rectángulo 35925" width="6.007" height="21.665" transform="matrix(0.988, 0.152, -0.152, 0.988, 3.301, 0)" fill="url(#linear-gradient-14)"/>
                  </g>
                  <g id="Grupo_140693" data-name="Grupo 140693" transform="translate(44.975 10.076)">
                    <rect id="Rectángulo_35926" data-name="Rectángulo 35926" width="39.44" height="18.103" transform="translate(2.758 0) rotate(8.762)" fill="#fff"/>
                    <rect id="Rectángulo_35927" data-name="Rectángulo 35927" width="6.007" height="18.103" transform="matrix(0.988, 0.152, -0.152, 0.988, 2.758, 0)" fill="url(#linear-gradient-15)"/>
                  </g>
                </g>
                <path id="Trazado_183112" data-name="Trazado 183112" d="M728.662,209.261h0a2.66,2.66,0,0,1-2.224-3.032l2.773-17.984,5.256.811-2.772,17.984A2.658,2.658,0,0,1,728.662,209.261Z" transform="translate(-673.152 -159.136)" fill="#ffadad"/>
                <rect id="Rectángulo_35928" data-name="Rectángulo 35928" width="21.665" height="8.187" transform="matrix(0.988, 0.152, -0.152, 0.988, 48.695, 23.554)" fill="#5476ff"/>
                <rect id="Rectángulo_35929" data-name="Rectángulo 35929" width="14.624" height="5.17" transform="translate(49.273 42.588) rotate(8.762)" fill="#5476ff"/>
                <g id="Grupo_140695" data-name="Grupo 140695" transform="translate(29.783 41.39)">
                  <path id="Trazado_183113" data-name="Trazado 183113" d="M717.682,254.645h0a1.737,1.737,0,0,1-1.123-2.184l18.511-57.813a1.735,1.735,0,0,1,2.181-1.125h0a1.74,1.74,0,0,1,1.125,2.184L719.863,253.52A1.737,1.737,0,0,1,717.682,254.645Z" transform="translate(-716.476 -193.441)" fill="#5476ff"/>
                  <path id="Trazado_183114" data-name="Trazado 183114" d="M731.713,258.452h0a1.734,1.734,0,0,0,1.73-1.742L733.2,196a1.733,1.733,0,0,0-1.742-1.728h0a1.735,1.735,0,0,0-1.728,1.742l.241,60.705A1.736,1.736,0,0,0,731.713,258.452Z" transform="translate(-698.404 -192.301)" fill="#5476ff"/>
                </g>
              </g>
              <path id="Trazado_183115" data-name="Trazado 183115" d="M675.045,161.243a18.014,18.014,0,0,1-3.228-20.706A18.074,18.074,0,1,0,695.7,164.8,18.013,18.013,0,0,1,675.045,161.243Z" transform="translate(-431.58 280)" fill="#fff"/>
            </g>
          </g>
          <g id="Grupo_140683" data-name="Grupo 140683" transform="translate(0.264 151.755)">
            <g id="Grupo_140657" data-name="Grupo 140657" transform="translate(3.252 3.261)">
              <path id="Trazado_183056" data-name="Trazado 183056" d="M-1219.081,1691.013a41.136,41.136,0,0,0,35.455-12.186,41.2,41.2,0,0,0,6.959-47.459c9.129-6.182,15.126-13.915,15.126-25.766,0-8.747-3.268-14.005-8.652-20.076a34.171,34.171,0,0,0,2.157-12,34.23,34.23,0,0,0-9.688-23.9c4.992-12.481,2.411-28.865-7.912-42.156-9.244-11.884-22.412-14.289-34.63-14.269a31.021,31.021,0,0,0-17.505-26.845,31.023,31.023,0,0,0-41.431,14.438l.075.269a30.743,30.743,0,0,0-2.37,11.82,30.658,30.658,0,0,0,3.184,13.623,15.862,15.862,0,0,0-6.7,12.937,15.9,15.9,0,0,0,12.84,15.585,26.009,26.009,0,0,0-15.759,23.905,25.891,25.891,0,0,0,7.722,18.483,25.9,25.9,0,0,0-7.12,17.839,25.986,25.986,0,0,0,11.508,21.593c-5.648,7.013-9.191,17.109-9.191,28.332,0,11.772,8,28.711,8,28.711a31.214,31.214,0,0,0-5.353,17.516,31.328,31.328,0,0,0,31.33,31.33,31.337,31.337,0,0,0,31.341-31.33Z" transform="translate(1287.928 -1463.261)" fill="#ccc"/>
            </g>
            <g id="Grupo_140670" data-name="Grupo 140670" transform="translate(0 0)">
              <g id="Grupo_140659" data-name="Grupo 140659">
                <path id="Trazado_183058" data-name="Trazado 183058" d="M-1253.411,1723.61a34.625,34.625,0,0,1-34.578-34.583,34.387,34.387,0,0,1,4.918-17.78c-2.052-4.669-7.562-18.166-7.562-28.447,0-10.218,2.866-20.114,7.933-27.681a29.227,29.227,0,0,1-10.249-22.244,29.132,29.132,0,0,1,6.03-17.764,29.049,29.049,0,0,1-6.637-18.558,29.236,29.236,0,0,1,11.7-23.408,19.17,19.17,0,0,1-8.779-16.082,19.145,19.145,0,0,1,5.966-13.861,33.689,33.689,0,0,1-2.454-12.7,33.767,33.767,0,0,1,2.295-12.264,3.2,3.2,0,0,1,.317-1.237,34.047,34.047,0,0,1,19.579-17.459,34.1,34.1,0,0,1,26.2,1.507,34.2,34.2,0,0,1,19.092,26.559c10.514.328,24.317,2.783,34.185,15.486,10.313,13.264,13.7,29.7,9.087,43.409a37.445,37.445,0,0,1,9.2,24.645,37.592,37.592,0,0,1-1.724,11.281c5.109,6.056,8.219,11.878,8.219,20.79,0,10.942-4.548,19.531-14.269,26.829a44.441,44.441,0,0,1-8.726,48.65,44.544,44.544,0,0,1-35.307,13.465A34.625,34.625,0,0,1-1253.411,1723.61Zm-24.867-244.536a3.107,3.107,0,0,1-.222.861,27.268,27.268,0,0,0-2.115,10.567,27.246,27.246,0,0,0,2.834,12.18,3.247,3.247,0,0,1-1.026,4.088,12.667,12.667,0,0,0-5.32,10.292,12.632,12.632,0,0,0,10.2,12.391,3.246,3.246,0,0,1,2.613,2.845,3.235,3.235,0,0,1-1.946,3.332,22.752,22.752,0,0,0-13.792,20.923,22.59,22.59,0,0,0,6.759,16.172,3.255,3.255,0,0,1,.073,4.543,22.643,22.643,0,0,0-6.23,15.607,22.732,22.732,0,0,0,10.08,18.9,3.269,3.269,0,0,1,1.4,2.211,3.237,3.237,0,0,1-.677,2.522c-5.384,6.685-8.472,16.274-8.472,26.3,0,10.921,7.6,27.162,7.68,27.326a3.276,3.276,0,0,1-.244,3.205,27.921,27.921,0,0,0-4.8,15.7,28.115,28.115,0,0,0,28.083,28.083,28.115,28.115,0,0,0,28.083-28.083,3.257,3.257,0,0,1,1.809-2.908,3.242,3.242,0,0,1,2.517-.7,38.081,38.081,0,0,0,32.662-11.228,37.929,37.929,0,0,0,6.41-43.71,3.253,3.253,0,0,1,1.058-4.184c9.477-6.415,13.708-13.534,13.708-23.074,0-7.637-2.761-12.19-7.838-17.918a3.269,3.269,0,0,1-.614-3.29,31.08,31.08,0,0,0,1.946-10.863,30.981,30.981,0,0,0-8.758-21.646,3.237,3.237,0,0,1-.687-3.469c4.706-11.767,1.776-27.052-7.468-38.951-6.992-9-16.84-13.016-31.923-13.016h-.137a3.25,3.25,0,0,1-3.247-3.131,27.728,27.728,0,0,0-15.675-24.038,27.583,27.583,0,0,0-21.219-1.216A27.559,27.559,0,0,0-1278.278,1479.075Z" transform="translate(1293.556 -1457.619)" fill="#214be5"/>
              </g>
              <g id="Grupo_140660" data-name="Grupo 140660" transform="translate(54.329 202.347)">
                <path id="Trazado_183059" data-name="Trazado 183059" d="M-1187.578,1857.11a3.26,3.26,0,0,1-1.756-.518,3.245,3.245,0,0,1-.974-4.491,27.991,27.991,0,0,0,4.454-15.8,28.175,28.175,0,0,0-12.27-22.593,3.262,3.262,0,0,1-.857-4.517,3.252,3.252,0,0,1,4.517-.851,34.672,34.672,0,0,1,15.105,27.823,34.474,34.474,0,0,1-5.479,19.457A3.25,3.25,0,0,1-1187.578,1857.11Z" transform="translate(1199.542 -1807.772)" fill="#214be5"/>
              </g>
              <g id="Grupo_140661" data-name="Grupo 140661" transform="translate(88.314 109.241)">
                <path id="Trazado_183060" data-name="Trazado 183060" d="M-1137.484,1684.909a3.248,3.248,0,0,1-3.248-3.247,3.25,3.25,0,0,1,3.248-3.247,28.54,28.54,0,0,0,28.505-28.512,3.254,3.254,0,0,1,3.258-3.247,3.252,3.252,0,0,1,3.247,3.247A35.048,35.048,0,0,1-1137.484,1684.909Z" transform="translate(1140.732 -1646.655)" fill="#214be5"/>
              </g>
              <g id="Grupo_140662" data-name="Grupo 140662" transform="translate(41.075 30.018)">
                <path id="Trazado_183061" data-name="Trazado 183061" d="M-1219.228,1528.079a3.225,3.225,0,0,1-2.349-1.011,3.25,3.25,0,0,1,.105-4.6,46.649,46.649,0,0,1,32.3-12.91h0a3.244,3.244,0,0,1,3.247,3.247,3.246,3.246,0,0,1-3.247,3.253h0a40.159,40.159,0,0,0-27.819,11.117A3.244,3.244,0,0,1-1219.228,1528.079Z" transform="translate(1222.477 -1509.563)" fill="#214be5"/>
              </g>
              <g id="Grupo_140663" data-name="Grupo 140663" transform="translate(25.062 34.699)">
                <path id="Trazado_183062" data-name="Trazado 183062" d="M-1218.5,1566c-7.826,0-16.606-4.162-23.185-11.8-10.313-11.967-11.4-28.008-2.412-35.751a3.246,3.246,0,0,1,4.581.344,3.25,3.25,0,0,1-.339,4.58c-6.272,5.4-4.886,17.325,3.089,26.585s19.568,12.386,25.84,6.982a3.245,3.245,0,0,1,4.581.343,3.249,3.249,0,0,1-.339,4.58A17.791,17.791,0,0,1-1218.5,1566Z" transform="translate(1250.187 -1517.664)" fill="#214be5"/>
              </g>
              <g id="Grupo_140664" data-name="Grupo 140664" transform="translate(73.108 75.227)">
                <path id="Trazado_183063" data-name="Trazado 183063" d="M-1152.03,1629.817a3.244,3.244,0,0,1-1.163-.217,21.651,21.651,0,0,1-12.407-27.951,21.638,21.638,0,0,1,27.945-12.407,3.246,3.246,0,0,1,1.872,4.2,3.254,3.254,0,0,1-4.2,1.867,15.15,15.15,0,0,0-19.558,8.678,15.145,15.145,0,0,0,8.685,19.547,3.25,3.25,0,0,1,1.862,4.2A3.249,3.249,0,0,1-1152.03,1629.817Z" transform="translate(1167.045 -1587.795)" fill="#214be5"/>
              </g>
              <g id="Grupo_140665" data-name="Grupo 140665" transform="translate(26.102 184.587)">
                <path id="Trazado_183064" data-name="Trazado 183064" d="M-1233.37,1819.064a3.22,3.22,0,0,1-1.165-.222,21.649,21.649,0,0,1-12.407-27.951A21.642,21.642,0,0,1-1219,1778.484a3.253,3.253,0,0,1,1.873,4.205,3.251,3.251,0,0,1-4.2,1.861,15.152,15.152,0,0,0-19.558,8.673,15.158,15.158,0,0,0,8.674,19.558,3.245,3.245,0,0,1,1.871,4.2A3.258,3.258,0,0,1-1233.37,1819.064Z" transform="translate(1248.387 -1777.039)" fill="#214be5"/>
              </g>
              <g id="Grupo_140666" data-name="Grupo 140666" transform="translate(40.452 146.955)">
                <path id="Trazado_183065" data-name="Trazado 183065" d="M-1206.357,1732.363a17.223,17.223,0,0,1-17.2-17.2,3.251,3.251,0,0,1,3.258-3.247,3.248,3.248,0,0,1,3.247,3.247,10.711,10.711,0,0,0,10.693,10.7,10.712,10.712,0,0,0,10.7-10.7,3.248,3.248,0,0,1,3.247-3.247,3.241,3.241,0,0,1,3.247,3.247A17.215,17.215,0,0,1-1206.357,1732.363Z" transform="translate(1223.556 -1711.918)" fill="#214be5"/>
              </g>
              <g id="Grupo_140667" data-name="Grupo 140667" transform="translate(80.559 158.544)">
                <path id="Trazado_183066" data-name="Trazado 183066" d="M-1137.945,1766.335c-.075,0-.159,0-.233-.01a17.079,17.079,0,0,1-11.772-5.9,17.1,17.1,0,0,1-4.157-12.492,17.192,17.192,0,0,1,18.393-15.918,3.238,3.238,0,0,1,3.005,3.469,3.256,3.256,0,0,1-3.471,3.009,10.707,10.707,0,0,0-11.444,9.906,10.691,10.691,0,0,0,2.581,7.775,10.66,10.66,0,0,0,7.33,3.67,3.245,3.245,0,0,1,3,3.469A3.243,3.243,0,0,1-1137.945,1766.335Z" transform="translate(1154.152 -1731.972)" fill="#214be5"/>
              </g>
              <g id="Grupo_140668" data-name="Grupo 140668" transform="translate(31.544 76.582)">
                <path id="Trazado_183067" data-name="Trazado 183067" d="M-1222.774,1624.509c-.074,0-.159-.005-.233-.011a17.218,17.218,0,0,1-15.918-18.389,17.2,17.2,0,0,1,18.382-15.924,3.255,3.255,0,0,1,3.016,3.475,3.245,3.245,0,0,1-3.48,3.009,10.7,10.7,0,0,0-11.435,9.906,10.71,10.71,0,0,0,9.9,11.439,3.245,3.245,0,0,1,3,3.474A3.242,3.242,0,0,1-1222.774,1624.509Z" transform="translate(1238.97 -1590.141)" fill="#214be5"/>
              </g>
              <g id="Grupo_140669" data-name="Grupo 140669" transform="translate(21.169 123.204)">
                <path id="Trazado_183068" data-name="Trazado 183068" d="M-1253.676,1688.983a3.241,3.241,0,0,1-2.243-.9,3.249,3.249,0,0,1-.105-4.6c.233-.243,23.66-24.121,55.889-5.7a3.245,3.245,0,0,1,1.216,4.432,3.251,3.251,0,0,1-4.43,1.211c-27.883-15.924-47.779,4.342-47.979,4.549A3.232,3.232,0,0,1-1253.676,1688.983Z" transform="translate(1256.924 -1670.818)" fill="#214be5"/>
              </g>
            </g>
          </g>
        </g>
      </g>
    </g>
    <path id="Trazado_184862" data-name="Trazado 184862" d="M292.227,0,0,18.036V81L292.227,62.964Z" transform="translate(979.739 1178.066)" fill="#00bab5"/>
    <path id="Trazado_184901" data-name="Trazado 184901" d="M36.625,19.211V25H32.512V7.938h6.809a7.93,7.93,0,0,1,3.463.721,5.431,5.431,0,0,1,2.332,2.051,5.6,5.6,0,0,1,.826,3.018,4.937,4.937,0,0,1-1.787,3.99,7.415,7.415,0,0,1-4.9,1.494Zm0-3.176h2.7a2.542,2.542,0,0,0,1.822-.6,2.221,2.221,0,0,0,.627-1.687,2.745,2.745,0,0,0-.645-1.91,2.282,2.282,0,0,0-1.758-.727H36.625Zm17.461,9.2a6.518,6.518,0,0,1-4.723-1.74,6.009,6.009,0,0,1-1.8-4.529v-.328A7.787,7.787,0,0,1,48.28,15.2a5.274,5.274,0,0,1,2.1-2.3,6.35,6.35,0,0,1,3.281-.814,5.489,5.489,0,0,1,4.219,1.658,6.516,6.516,0,0,1,1.547,4.623V19.9H51.579a2.846,2.846,0,0,0,.926,1.676,2.755,2.755,0,0,0,1.852.609,3.549,3.549,0,0,0,2.93-1.312l1.8,2.133A5.045,5.045,0,0,1,57,24.631,7.069,7.069,0,0,1,54.086,25.234Zm-.445-10.1q-1.734,0-2.062,2.3h3.984v-.3a1.956,1.956,0,0,0-.48-1.471A1.912,1.912,0,0,0,53.641,15.133Zm11-2.812.129,1.488A4.3,4.3,0,0,1,68.4,12.086a3.618,3.618,0,0,1,2.959,1.184,5.635,5.635,0,0,1,1.014,3.563V25H68.407V17a2.14,2.14,0,0,0-.387-1.412,1.789,1.789,0,0,0-1.406-.451,1.883,1.883,0,0,0-1.723.914V25H60.942V12.32Zm16.547,9.117a.912.912,0,0,0-.527-.809,8.021,8.021,0,0,0-2-.633,9.138,9.138,0,0,1-2.437-.861,4.083,4.083,0,0,1-1.465-1.295,3.092,3.092,0,0,1-.5-1.746A3.5,3.5,0,0,1,75.7,13.217a5.938,5.938,0,0,1,3.773-1.131A6.579,6.579,0,0,1,83.5,13.223a3.555,3.555,0,0,1,1.523,2.988H81.063q0-1.523-1.605-1.523a1.591,1.591,0,0,0-1.043.346,1.07,1.07,0,0,0-.422.861.982.982,0,0,0,.516.855,4.872,4.872,0,0,0,1.646.539,14.228,14.228,0,0,1,1.986.5Q85,18.777,85,21.32a3.321,3.321,0,0,1-1.541,2.824,6.758,6.758,0,0,1-3.99,1.09,6.9,6.9,0,0,1-2.906-.586,4.86,4.86,0,0,1-1.992-1.594,3.609,3.609,0,0,1-.715-2.121h3.691a1.526,1.526,0,0,0,.586,1.283,2.41,2.41,0,0,0,1.441.4,1.9,1.9,0,0,0,1.213-.328A1.05,1.05,0,0,0,81.192,21.438ZM93.989,25a4.459,4.459,0,0,1-.375-1.137,3.672,3.672,0,0,1-3.047,1.371A4.5,4.5,0,0,1,87.52,24.15a3.45,3.45,0,0,1-1.254-2.725,3.546,3.546,0,0,1,1.523-3.117,7.761,7.761,0,0,1,4.43-1.055h1.219v-.671q0-1.755-1.512-1.755a1.236,1.236,0,0,0-1.406,1.39H86.571a3.54,3.54,0,0,1,1.564-2.985,6.575,6.575,0,0,1,3.99-1.147,5.764,5.764,0,0,1,3.832,1.184A4.115,4.115,0,0,1,97.4,16.516v5.613a5.748,5.748,0,0,0,.539,2.672V25Zm-2.473-2.578a2.2,2.2,0,0,0,1.225-.316,1.983,1.983,0,0,0,.7-.715V19.363H92.29q-2.062,0-2.062,1.852a1.131,1.131,0,0,0,.363.873A1.315,1.315,0,0,0,91.516,22.422Zm11.8-10.1.129,1.488a4.36,4.36,0,0,1,3.621-1.723A3.21,3.21,0,0,1,110.313,14a4.22,4.22,0,0,1,3.727-1.91q3.855,0,3.961,4.664V25H114.04V17a2.417,2.417,0,0,0-.328-1.418,1.4,1.4,0,0,0-1.2-.445,1.871,1.871,0,0,0-1.746,1.043l.012.164V25h-3.961V17.02a2.541,2.541,0,0,0-.316-1.441,1.393,1.393,0,0,0-1.207-.445,1.894,1.894,0,0,0-1.734,1.043V25H99.614V12.32ZM124.422,25h-3.961V12.32h3.961Zm-4.2-15.949a1.763,1.763,0,0,1,.609-1.383,2.591,2.591,0,0,1,3.164,0,1.763,1.763,0,0,1,.609,1.383A1.763,1.763,0,0,1,124,10.434a2.591,2.591,0,0,1-3.164,0A1.763,1.763,0,0,1,120.227,9.051Zm12.762,16.184a6.518,6.518,0,0,1-4.723-1.74,6.009,6.009,0,0,1-1.8-4.529v-.328a7.787,7.787,0,0,1,.721-3.434,5.274,5.274,0,0,1,2.1-2.3,6.35,6.35,0,0,1,3.281-.814,5.489,5.489,0,0,1,4.219,1.658,6.516,6.516,0,0,1,1.547,4.623V19.9h-7.852a2.846,2.846,0,0,0,.926,1.676,2.755,2.755,0,0,0,1.852.609,3.549,3.549,0,0,0,2.93-1.312l1.8,2.133a5.045,5.045,0,0,1-2.092,1.623A7.069,7.069,0,0,1,132.989,25.234Zm-.445-10.1q-1.734,0-2.062,2.3h3.984v-.3a1.956,1.956,0,0,0-.48-1.471A1.912,1.912,0,0,0,132.543,15.133Zm11-2.812.129,1.488a4.3,4.3,0,0,1,3.621-1.723,3.618,3.618,0,0,1,2.959,1.184,5.635,5.635,0,0,1,1.014,3.563V25h-3.961V17a2.14,2.14,0,0,0-.387-1.412,1.789,1.789,0,0,0-1.406-.451,1.883,1.883,0,0,0-1.723.914V25h-3.949V12.32Zm14.508-3.152V12.32h2.086v2.742h-2.086v5.8a1.481,1.481,0,0,0,.258,1,1.383,1.383,0,0,0,1.02.281,5.793,5.793,0,0,0,.984-.07v2.824a7.288,7.288,0,0,1-2.227.34,4.137,4.137,0,0,1-3.012-.961,3.939,3.939,0,0,1-.973-2.918V15.063h-1.617V12.32h1.617V9.168Zm2.789,9.375a7.484,7.484,0,0,1,.738-3.381,5.28,5.28,0,0,1,2.121-2.279,6.388,6.388,0,0,1,3.246-.8,5.83,5.83,0,0,1,4.488,1.764,6.768,6.768,0,0,1,1.641,4.8v.141a6.566,6.566,0,0,1-1.646,4.705,5.846,5.846,0,0,1-4.459,1.74,5.912,5.912,0,0,1-4.348-1.623,6.348,6.348,0,0,1-1.77-4.4Zm3.949.246a4.718,4.718,0,0,0,.551,2.578,1.835,1.835,0,0,0,1.629.82q2.109,0,2.156-3.246v-.4q0-3.41-2.18-3.41-1.98,0-2.145,2.941Zm15.5-.223a7.746,7.746,0,0,1,1.3-4.746,4.282,4.282,0,0,1,3.633-1.734,3.641,3.641,0,0,1,2.859,1.336V7h3.961V25H188.5l-.2-1.359a3.739,3.739,0,0,1-3.094,1.594,4.274,4.274,0,0,1-3.586-1.734A7.991,7.991,0,0,1,180.3,18.566Zm3.949.246q0,3.375,1.969,3.375a1.944,1.944,0,0,0,1.875-1.1V16.258a1.892,1.892,0,0,0-1.852-1.125q-1.828,0-1.98,2.953ZM198.461,25H194.5V12.32h3.961Zm-4.2-15.949a1.763,1.763,0,0,1,.609-1.383,2.591,2.591,0,0,1,3.164,0,1.763,1.763,0,0,1,.609,1.383,1.763,1.763,0,0,1-.609,1.383,2.591,2.591,0,0,1-3.164,0A1.763,1.763,0,0,1,194.266,9.051ZM205.95,20.3l2-7.98h4.16L207.977,25h-4.031l-4.137-12.68h4.172Zm13.477,4.934a6.518,6.518,0,0,1-4.723-1.74,6.009,6.009,0,0,1-1.8-4.529v-.328a7.787,7.787,0,0,1,.721-3.434,5.274,5.274,0,0,1,2.1-2.3A6.35,6.35,0,0,1,219,12.086a5.489,5.489,0,0,1,4.219,1.658,6.516,6.516,0,0,1,1.547,4.623V19.9h-7.852a2.846,2.846,0,0,0,.926,1.676,2.755,2.755,0,0,0,1.852.609,3.549,3.549,0,0,0,2.93-1.312l1.8,2.133a5.045,5.045,0,0,1-2.092,1.623A7.069,7.069,0,0,1,219.426,25.234Zm-.445-10.1q-1.734,0-2.062,2.3H220.9v-.3a1.956,1.956,0,0,0-.48-1.471A1.912,1.912,0,0,0,218.981,15.133Zm15.047.762-1.3-.094a2.336,2.336,0,0,0-2.391,1.172V25h-3.949V12.32h3.7l.129,1.629A3.058,3.058,0,0,1,233,12.086a3.851,3.851,0,0,1,1.1.141Zm.961,2.672a8.561,8.561,0,0,1,.633-3.4,5.094,5.094,0,0,1,1.816-2.279,4.788,4.788,0,0,1,2.754-.8,3.807,3.807,0,0,1,3.094,1.336l.141-1.1h3.586v12.2a5.346,5.346,0,0,1-.779,2.912,5,5,0,0,1-2.256,1.9,8.292,8.292,0,0,1-3.422.662,7.153,7.153,0,0,1-2.7-.527,4.876,4.876,0,0,1-2-1.371l1.652-2.32a3.621,3.621,0,0,0,2.906,1.3q2.625,0,2.625-2.7v-.4a3.708,3.708,0,0,1-2.871,1.254,4.583,4.583,0,0,1-3.75-1.775,7.356,7.356,0,0,1-1.43-4.752Zm3.961.246a4.511,4.511,0,0,0,.586,2.467,1.849,1.849,0,0,0,1.641.908,2.1,2.1,0,0,0,1.863-.855V16a2.045,2.045,0,0,0-1.84-.867,1.861,1.861,0,0,0-1.652.943A5.144,5.144,0,0,0,238.95,18.813Zm16.441,6.422a6.518,6.518,0,0,1-4.723-1.74,6.009,6.009,0,0,1-1.8-4.529v-.328a7.787,7.787,0,0,1,.721-3.434,5.274,5.274,0,0,1,2.1-2.3,6.35,6.35,0,0,1,3.281-.814,5.489,5.489,0,0,1,4.219,1.658,6.516,6.516,0,0,1,1.547,4.623V19.9h-7.852a2.846,2.846,0,0,0,.926,1.676,2.755,2.755,0,0,0,1.852.609,3.549,3.549,0,0,0,2.93-1.312l1.8,2.133a5.045,5.045,0,0,1-2.092,1.623A7.069,7.069,0,0,1,255.391,25.234Zm-.445-10.1q-1.734,0-2.062,2.3h3.984v-.3a1.956,1.956,0,0,0-.48-1.471A1.912,1.912,0,0,0,254.946,15.133Zm11-2.812.129,1.488a4.3,4.3,0,0,1,3.621-1.723,3.618,3.618,0,0,1,2.959,1.184,5.635,5.635,0,0,1,1.014,3.563V25h-3.961V17a2.14,2.14,0,0,0-.387-1.412,1.789,1.789,0,0,0-1.406-.451,1.883,1.883,0,0,0-1.723.914V25h-3.949V12.32Zm14.508-3.152V12.32h2.086v2.742h-2.086v5.8a1.481,1.481,0,0,0,.258,1,1.383,1.383,0,0,0,1.02.281,5.793,5.793,0,0,0,.984-.07v2.824a7.288,7.288,0,0,1-2.227.34,4.137,4.137,0,0,1-3.012-.961,3.939,3.939,0,0,1-.973-2.918V15.063h-1.617V12.32h1.617V9.168Zm9.773,16.066a6.518,6.518,0,0,1-4.723-1.74,6.009,6.009,0,0,1-1.8-4.529v-.328a7.787,7.787,0,0,1,.721-3.434,5.274,5.274,0,0,1,2.1-2.3,6.35,6.35,0,0,1,3.281-.814,5.489,5.489,0,0,1,4.219,1.658,6.516,6.516,0,0,1,1.547,4.623V19.9h-7.852a2.846,2.846,0,0,0,.926,1.676,2.755,2.755,0,0,0,1.852.609,3.549,3.549,0,0,0,2.93-1.312l1.8,2.133a5.045,5.045,0,0,1-2.092,1.623A7.069,7.069,0,0,1,290.231,25.234Zm-.445-10.1q-1.734,0-2.062,2.3h3.984v-.3a1.956,1.956,0,0,0-.48-1.471A1.912,1.912,0,0,0,289.786,15.133Z" transform="translate(961.705 1213.15) rotate(-3)" fill="#fff"/>
    <path id="Trazado_184863" data-name="Trazado 184863" d="M827.007-881.6a24.287,24.287,0,0,0-24.286,24.285,24.287,24.287,0,0,0,24.286,24.286,24.286,24.286,0,0,0,24.286-24.286A24.286,24.286,0,0,0,827.007-881.6Zm0,42.1a17.809,17.809,0,0,1-17.809-17.81,17.809,17.809,0,0,1,17.809-17.809,17.81,17.81,0,0,1,17.81,17.809A17.81,17.81,0,0,1,827.007-839.508Z" transform="translate(130.387 1728.021)" fill="#ffd400"/>
    <rect id="Rectángulo_36113" data-name="Rectángulo 36113" width="79.068" height="9.237" transform="matrix(0.998, -0.07, 0.07, 0.998, 1188.814, 1241.217)" fill="#ff0092"/>
    <path id="Trazado_184864" data-name="Trazado 184864" d="M1278.927-585.471h12.447V-627.4h-12.447Zm-.822.827v-43.587H1292.2v43.587Zm2.538,12.451,5.048-8.744,5.047,8.744Zm0,11.076,5.048-8.744,5.047,8.744Zm0,11.078,5.048-8.745,5.047,8.745Zm0,11.076,5.048-8.744,5.047,8.744Zm0,11.076,5.048-8.744,5.047,8.744Zm0,11.076,5.048-8.744,5.047,8.744Zm0,11.078,5.048-8.745,5.047,8.745Zm0,11.076,5.048-8.744,5.047,8.744Zm0,11.076,5.048-8.744,5.047,8.744Z" transform="translate(482.597 11.816) rotate(87)" fill="#00bab5"/>
  </g>
</svg>
