<svg xmlns="http://www.w3.org/2000/svg" width="505" height="308.532" viewBox="0 0 505 308.532">
  <g id="img2" transform="translate(-31.3 -64.516)">
    <g id="Grupo_140700" data-name="Grupo 140700" transform="translate(389.842 75.754)">
      <path id="Trazado_183116" data-name="Trazado 183116" d="M423.115,109.513h-8.5a33.813,33.813,0,0,0-2.3-5.544l6.015-6.015a3.828,3.828,0,0,0,0-5.408l-9.276-9.27a3.811,3.811,0,0,0-5.4,0l-6.014,6.015a33.844,33.844,0,0,0-5.551-2.305v-8.5a3.821,3.821,0,0,0-3.824-3.824H375.155a3.822,3.822,0,0,0-3.825,3.824v8.5a33.873,33.873,0,0,0-5.549,2.305h0l-6.015-6.015a3.811,3.811,0,0,0-5.4,0l-9.275,9.27a3.826,3.826,0,0,0,0,5.408l6.014,6.015a33.808,33.808,0,0,0-2.3,5.544h-8.5a3.824,3.824,0,0,0-3.824,3.824v13.111a3.821,3.821,0,0,0,3.824,3.824h8.5a34.3,34.3,0,0,0,2.3,5.549l-6.014,6.015a3.826,3.826,0,0,0,0,5.408l9.275,9.27a3.821,3.821,0,0,0,5.4,0l6.015-6.015a34.448,34.448,0,0,0,5.549,2.3v8.5a3.822,3.822,0,0,0,3.825,3.824h13.109a3.821,3.821,0,0,0,3.824-3.824v-8.5a34.418,34.418,0,0,0,5.551-2.3l6.014,6.015a3.821,3.821,0,0,0,5.4,0l9.276-9.27a3.828,3.828,0,0,0,0-5.408l-6.015-6.015a34.4,34.4,0,0,0,2.3-5.549h8.5a3.821,3.821,0,0,0,3.824-3.824V113.337A3.824,3.824,0,0,0,423.115,109.513ZM381.71,136.988a17.1,17.1,0,1,1,17.1-17.1A17.1,17.1,0,0,1,381.71,136.988Z" transform="translate(-336.48 -74.662)" fill="#2b2c84"/>
      <g id="Grupo_140699" data-name="Grupo 140699" transform="translate(15.325 15.325)">
        <g id="Grupo_140698" data-name="Grupo 140698">
          <path id="Trazado_183117" data-name="Trazado 183117" d="M380.219,148.307A29.905,29.905,0,1,1,410.124,118.4,29.938,29.938,0,0,1,380.219,148.307Zm0-56.874A26.969,26.969,0,1,0,407.188,118.4,27,27,0,0,0,380.219,91.433Z" transform="translate(-350.315 -88.497)" fill="#fff"/>
        </g>
      </g>
    </g>
    <g id="Grupo_140703" data-name="Grupo 140703" transform="translate(304.656 90.657)">
      <path id="Trazado_183118" data-name="Trazado 183118" d="M327.314,112.527h-5.955a23.67,23.67,0,0,0-1.611-3.884l4.213-4.213a2.682,2.682,0,0,0,0-3.788l-6.5-6.493a2.67,2.67,0,0,0-3.784,0l-4.212,4.213a23.792,23.792,0,0,0-3.888-1.614V90.794a2.676,2.676,0,0,0-2.678-2.678h-9.184a2.676,2.676,0,0,0-2.677,2.678v5.954a23.751,23.751,0,0,0-3.888,1.614h0l-4.214-4.213a2.67,2.67,0,0,0-3.784,0l-6.5,6.493a2.68,2.68,0,0,0,0,3.788l4.212,4.213a23.675,23.675,0,0,0-1.611,3.884H269.3a2.679,2.679,0,0,0-2.677,2.679v9.183a2.676,2.676,0,0,0,2.677,2.678h5.955a23.973,23.973,0,0,0,1.611,3.888l-4.212,4.213a2.68,2.68,0,0,0,0,3.788l6.5,6.493a2.676,2.676,0,0,0,3.784,0l4.214-4.213a24.032,24.032,0,0,0,3.888,1.611V148.8a2.676,2.676,0,0,0,2.677,2.678H302.9a2.676,2.676,0,0,0,2.678-2.678v-5.954a24.074,24.074,0,0,0,3.888-1.611l4.212,4.213a2.676,2.676,0,0,0,3.784,0l6.5-6.493a2.682,2.682,0,0,0,0-3.788l-4.213-4.213a24.072,24.072,0,0,0,1.611-3.888h5.955a2.677,2.677,0,0,0,2.678-2.678v-9.183A2.68,2.68,0,0,0,327.314,112.527Zm-29,19.246A11.975,11.975,0,1,1,310.284,119.8,11.976,11.976,0,0,1,298.309,131.773Z" transform="translate(-266.627 -88.116)" fill="#ffd234"/>
      <g id="Grupo_140702" data-name="Grupo 140702" transform="translate(10.733 10.735)">
        <g id="Grupo_140701" data-name="Grupo 140701">
          <path id="Trazado_183119" data-name="Trazado 183119" d="M297.265,139.7a20.947,20.947,0,1,1,20.948-20.947A20.971,20.971,0,0,1,297.265,139.7Zm0-39.838a18.89,18.89,0,1,0,18.89,18.89A18.912,18.912,0,0,0,297.265,99.864Z" transform="translate(-276.317 -97.807)" fill="#fff"/>
        </g>
      </g>
    </g>
    <g id="Grupo_140709" data-name="Grupo 140709" transform="translate(71.209 117.551)">
      <path id="Trazado_183122" data-name="Trazado 183122" d="M137.092,140.458h-6.844a27.3,27.3,0,0,0-1.852-4.465l4.844-4.843a3.082,3.082,0,0,0,0-4.354l-7.47-7.465a3.069,3.069,0,0,0-4.35,0l-4.843,4.843a27.37,27.37,0,0,0-4.469-1.856v-6.844a3.076,3.076,0,0,0-3.078-3.078H98.471a3.076,3.076,0,0,0-3.079,3.078v6.844a27.318,27.318,0,0,0-4.468,1.856h0l-4.843-4.843a3.069,3.069,0,0,0-4.35,0L74.261,126.8a3.082,3.082,0,0,0,0,4.354l4.843,4.843a27.3,27.3,0,0,0-1.851,4.465H70.407a3.08,3.08,0,0,0-3.078,3.079v10.556a3.077,3.077,0,0,0,3.078,3.079h6.845a27.741,27.741,0,0,0,1.851,4.469l-4.843,4.843a3.082,3.082,0,0,0,0,4.354L81.73,178.3a3.077,3.077,0,0,0,4.35,0l4.844-4.843a27.693,27.693,0,0,0,4.468,1.852v6.844a3.077,3.077,0,0,0,3.079,3.079h10.557a3.077,3.077,0,0,0,3.078-3.079v-6.844a27.747,27.747,0,0,0,4.469-1.852l4.843,4.843a3.077,3.077,0,0,0,4.35,0l7.47-7.465a3.082,3.082,0,0,0,0-4.354l-4.844-4.843a27.647,27.647,0,0,0,1.852-4.469h6.844a3.077,3.077,0,0,0,3.079-3.079V143.537A3.08,3.08,0,0,0,137.092,140.458ZM103.75,162.583a13.767,13.767,0,1,1,13.767-13.767A13.767,13.767,0,0,1,103.75,162.583Z" transform="translate(-67.329 -112.395)" fill="#008489"/>
      <g id="Grupo_140708" data-name="Grupo 140708" transform="translate(12.34 12.34)">
        <g id="Grupo_140707" data-name="Grupo 140707">
          <path id="Trazado_183123" data-name="Trazado 183123" d="M102.55,171.7a24.081,24.081,0,1,1,24.081-24.081A24.108,24.108,0,0,1,102.55,171.7Zm0-45.8a21.716,21.716,0,1,0,21.717,21.716A21.741,21.741,0,0,0,102.55,125.9Z" transform="translate(-78.469 -123.535)" fill="#fff"/>
        </g>
      </g>
    </g>
    <g id="Grupo_140713" data-name="Grupo 140713" transform="translate(154.999 64.516)">
      <g id="Grupo_140710" data-name="Grupo 140710" transform="translate(21.707 43.597)">
        <path id="Trazado_183124" data-name="Trazado 183124" d="M172.24,155.991a15.107,15.107,0,0,1-15.09-15.09v-6.943h4.96V140.9a10.129,10.129,0,1,0,20.258,0V118.964a15.106,15.106,0,0,1,15.09-15.089H203a15.106,15.106,0,0,1,15.09,15.089v55.9h-4.96v-55.9A10.141,10.141,0,0,0,203,108.835h-5.543a10.141,10.141,0,0,0-10.13,10.129V140.9A15.106,15.106,0,0,1,172.24,155.991Z" transform="translate(-157.15 -103.875)" fill="#fff"/>
      </g>
      <g id="Grupo_140712" data-name="Grupo 140712">
        <path id="Trazado_183125" data-name="Trazado 183125" d="M185.926,88.7a24.188,24.188,0,1,0-44.364,13.338,44.875,44.875,0,0,1,7.47,24.79h25.414a44.042,44.042,0,0,1,7.366-24.636A24.058,24.058,0,0,0,185.926,88.7Z" transform="translate(-137.553 -64.516)" fill="#ff9a00"/>
        <path id="Trazado_183126" data-name="Trazado 183126" d="M163.1,86.584v6.23h-5.233v-6.23h-8.6v8.472h6.353V127.57h2.243V95.056H163.1V127.57h2.242V95.056h6.354V86.584Zm-7.476,6.23h-4.111V88.826h4.111Zm13.828,0h-4.111V88.826h4.111Z" transform="translate(-136.292 -62.14)" fill="#fff"/>
        <g id="Grupo_140711" data-name="Grupo 140711" transform="translate(11.479 62.316)">
          <rect id="Rectángulo_35932" data-name="Rectángulo 35932" width="11.96" height="5.73" transform="translate(6.728 12.084)" fill="#004d47"/>
          <path id="Rectángulo_35933" data-name="Rectángulo 35933" d="M0,0H25.415a0,0,0,0,1,0,0V9.934A4.766,4.766,0,0,1,20.648,14.7H4.767A4.767,4.767,0,0,1,0,9.934V0A0,0,0,0,1,0,0Z" fill="#008489"/>
        </g>
      </g>
    </g>
    <g id="Grupo_140714" data-name="Grupo 140714" transform="translate(312.55 185.489)">
      <path id="Trazado_183127" data-name="Trazado 183127" d="M392.08,199.092l-34.051,6.244,7.469,8.778-22.647,19.27-26.34-29.408-44.837,37.845,7.464,8.844,36.25-30.6,26.37,29.44L373,222.928l7.469,8.778Z" transform="translate(-271.674 -167.87)" fill="#f15381"/>
      <path id="Trazado_183128" data-name="Trazado 183128" d="M373.614,170.905l-27.124,4.974,5.949,6.992L334.4,198.221,313.419,174.8,277.7,204.942l5.946,7.045,28.875-24.372,21,23.451,24.884-21.174,5.949,6.992Z" transform="translate(-271.025 -170.905)" fill="#0052ff"/>
    </g>
    <g id="Grupo_140715" data-name="Grupo 140715" transform="translate(401.704 237.747)">
      <path id="Trazado_183129" data-name="Trazado 183129" d="M429.833,216.779a2.481,2.481,0,0,0-2.481,2.481v2.48a2.481,2.481,0,0,0,4.961,0v-2.48A2.48,2.48,0,0,0,429.833,216.779Z" transform="translate(-338.557 -216.779)" fill="#fff"/>
      <path id="Trazado_183130" data-name="Trazado 183130" d="M429.833,271.8a2.48,2.48,0,0,0-2.481,2.479V279.6a2.481,2.481,0,0,0,4.961,0v-5.317A2.479,2.479,0,0,0,429.833,271.8Z" transform="translate(-338.557 -210.854)" fill="#fff"/>
      <path id="Trazado_183131" data-name="Trazado 183131" d="M429.833,233.415a2.48,2.48,0,0,0-2.481,2.48v5.315a2.481,2.481,0,0,0,4.961,0V235.9A2.479,2.479,0,0,0,429.833,233.415Z" transform="translate(-338.557 -214.988)" fill="#fff"/>
      <path id="Trazado_183132" data-name="Trazado 183132" d="M429.833,252.609a2.481,2.481,0,0,0-2.481,2.481v5.316a2.481,2.481,0,0,0,4.961,0V255.09A2.48,2.48,0,0,0,429.833,252.609Z" transform="translate(-338.557 -212.921)" fill="#fff"/>
      <path id="Trazado_183133" data-name="Trazado 183133" d="M430.074,291a3.922,3.922,0,0,0-2.481,7.441h4.961v-4.961A2.48,2.48,0,0,0,430.074,291Z" transform="translate(-338.798 -208.787)" fill="#fff"/>
      <path id="Trazado_183134" data-name="Trazado 183134" d="M368.271,293.238h-4.412a2.481,2.481,0,1,0,0,4.961h4.412a2.481,2.481,0,0,0,0-4.961Z" transform="translate(-345.661 -208.546)" fill="#fff"/>
      <path id="Trazado_183135" data-name="Trazado 183135" d="M384.2,293.238h-4.413a2.481,2.481,0,0,0,0,4.961H384.2a2.481,2.481,0,0,0,0-4.961Z" transform="translate(-343.945 -208.546)" fill="#fff"/>
      <path id="Trazado_183136" data-name="Trazado 183136" d="M400.139,293.238h-4.413a2.481,2.481,0,0,0,0,4.961h4.413a2.481,2.481,0,0,0,0-4.961Z" transform="translate(-342.229 -208.546)" fill="#fff"/>
      <path id="Trazado_183137" data-name="Trazado 183137" d="M416.072,293.238H411.66a2.481,2.481,0,0,0,0,4.961h4.412a2.481,2.481,0,1,0,0-4.961Z" transform="translate(-340.514 -208.546)" fill="#fff"/>
      <path id="Trazado_183138" data-name="Trazado 183138" d="M352.149,293.238h-2.48a2.481,2.481,0,0,0,0,4.961h2.48a2.481,2.481,0,0,0,0-4.961Z" transform="translate(-347.189 -208.546)" fill="#fff"/>
    </g>
    <g id="Grupo_140722" data-name="Grupo 140722" transform="translate(31.3 253.744)">
      <rect id="Rectángulo_35934" data-name="Rectángulo 35934" width="113.669" height="81.068" transform="matrix(0.957, -0.289, 0.289, 0.957, 0, 32.831)" fill="#0052ff"/>
      <g id="Grupo_140717" data-name="Grupo 140717" transform="translate(10.955 8.348)">
        <rect id="Rectángulo_35935" data-name="Rectángulo 35935" width="99.273" height="61.119" transform="translate(0 35.874) rotate(-16.788)" fill="#fff"/>
        <g id="Grupo_140716" data-name="Grupo 140716" transform="translate(68.488)">
          <path id="Trazado_183139" data-name="Trazado 183139" d="M108.121,245.327a2.606,2.606,0,1,1-3.248-1.742A2.606,2.606,0,0,1,108.121,245.327Z" transform="translate(-103.019 -237.487)" fill="#fff"/>
          <path id="Trazado_183140" data-name="Trazado 183140" d="M117.077,242.625a2.606,2.606,0,1,1-3.248-1.742A2.606,2.606,0,0,1,117.077,242.625Z" transform="translate(-102.055 -237.778)" fill="#fff"/>
          <path id="Trazado_183141" data-name="Trazado 183141" d="M126.032,239.923a2.606,2.606,0,1,1-3.247-1.742A2.6,2.6,0,0,1,126.032,239.923Z" transform="translate(-101.09 -238.069)" fill="#fff"/>
        </g>
      </g>
      <g id="Grupo_140718" data-name="Grupo 140718" transform="translate(34.055 25.985)">
        <rect id="Rectángulo_35936" data-name="Rectángulo 35936" width="11.582" height="21.246" transform="translate(0 45.975) rotate(-16.791)" fill="#ffd234"/>
        <rect id="Rectángulo_35937" data-name="Rectángulo 35937" width="11.582" height="30.58" transform="translate(16.286 31.313) rotate(-16.791)" fill="#ffd234"/>
        <rect id="Rectángulo_35938" data-name="Rectángulo 35938" width="11.582" height="21.092" transform="translate(38.009 34.668) rotate(-16.785)" fill="#ffd234"/>
        <rect id="Rectángulo_35939" data-name="Rectángulo 35939" width="11.582" height="47.828" transform="translate(49.27 3.345) rotate(-16.785)" fill="#ffd234"/>
      </g>
      <g id="Grupo_140721" data-name="Grupo 140721" transform="translate(18.82 39.356)">
        <g id="Grupo_140719" data-name="Grupo 140719">
          <path id="Trazado_183142" data-name="Trazado 183142" d="M52.481,273.908a2.141,2.141,0,1,1-2.667-1.431A2.141,2.141,0,0,1,52.481,273.908Z" transform="translate(-48.29 -265.382)" fill="#ebebeb"/>
          <rect id="Rectángulo_35940" data-name="Rectángulo 35940" width="23.95" height="1.676" transform="translate(6.622 6.918) rotate(-16.789)" fill="#ebebeb"/>
        </g>
        <g id="Grupo_140720" data-name="Grupo 140720" transform="translate(1.762 5.84)">
          <path id="Trazado_183143" data-name="Trazado 183143" d="M54.071,279.179a2.14,2.14,0,1,1-2.667-1.431A2.14,2.14,0,0,1,54.071,279.179Z" transform="translate(-49.881 -270.654)" fill="#ebebeb"/>
          <rect id="Rectángulo_35941" data-name="Rectángulo 35941" width="23.95" height="1.675" transform="matrix(0.957, -0.289, 0.289, 0.957, 6.622, 6.918)" fill="#ebebeb"/>
        </g>
      </g>
    </g>
    <g id="Grupo_140723" data-name="Grupo 140723" transform="translate(138.439 189.969)">
      <path id="Trazado_183144" data-name="Trazado 183144" d="M176.578,202.7c0-.05.029-.093.029-.144V176.449a1.072,1.072,0,0,0-.024-.119,1.179,1.179,0,0,0-.05-.247,1.26,1.26,0,0,0-.1-.238c-.02-.035-.023-.075-.047-.109s-.054-.049-.08-.079a1.232,1.232,0,0,0-.188-.184,1.121,1.121,0,0,0-.42-.218,1.227,1.227,0,0,0-.235-.048,1.162,1.162,0,0,0-.121-.024H137.1a1.008,1.008,0,0,0-.115.023,1.252,1.252,0,0,0-.247.05,1.2,1.2,0,0,0-.222.089,1.116,1.116,0,0,0-.194.13,1.27,1.27,0,0,0-.187.183c-.024.03-.059.047-.08.079s-.027.073-.047.109a1.271,1.271,0,0,0-.151.485c0,.041-.024.076-.024.119v9.213H124.9c-.014,0-.027.008-.041.008a1.212,1.212,0,0,0-.279.057,1.187,1.187,0,0,0-.2.054,1.115,1.115,0,0,0-.184.124,1.23,1.23,0,0,0-.217.167c-.009.011-.023.014-.033.027a1.14,1.14,0,0,0-.086.152,1.192,1.192,0,0,0-.135.237,1.265,1.265,0,0,0-.053.264,1.18,1.18,0,0,0-.035.176v26.118a1.265,1.265,0,0,0,1.265,1.266h38.242a1.265,1.265,0,0,0,1.265-1.266V207.97a1.174,1.174,0,0,0,0-.249v-3.895h10.933a1.232,1.232,0,0,0,.525-.123,1.21,1.21,0,0,0,.121-.081,1.243,1.243,0,0,0,.308-.256c.017-.021.043-.027.059-.049a1.149,1.149,0,0,0,.061-.13,1.174,1.174,0,0,0,.112-.235A1.215,1.215,0,0,0,176.578,202.7Zm-12.169-9.9v-5.877a1.18,1.18,0,0,0-.035-.176,1.265,1.265,0,0,0-.053-.264,1.192,1.192,0,0,0-.135-.237,1.138,1.138,0,0,0-.086-.152c-.01-.012-.023-.016-.033-.027a1.344,1.344,0,0,0-.222-.172c-.017-.01-.03-.024-.045-.034l10.277-7.019v21.188Zm-38.242-3.1L137.7,199.72l-11.535,5.995Zm14.579,9.311,0,0-12.456-10.819h8.787c.008,0,.016.006.024.006s.016-.006.024-.006h15.29c.011,0,.022.006.033.006s.028,0,.042-.006h7.267L147.3,199.009l0,0-3.275,2.845Zm18.861-13.351h-6.773L141.2,177.715h30.046Zm2.271,4.04v16l-11.533-5.984Zm-23.513-10.855,9.979,6.816h-9.979Zm-12.2,32.934v-3.212l13.59-7.063,3.436,2.984a1.265,1.265,0,0,0,1.659,0l3.436-2.984,13.589,7.05v3.224Zm38.242-15.815,7.127,5.331h-7.127Z" transform="translate(-123.637 -175.184)" fill="#fff"/>
    </g>
    <g id="Grupo_140737" data-name="Grupo 140737" transform="translate(117.673 148.421)">
      <g id="Grupo_140736" data-name="Grupo 140736" transform="translate(14.636)">
        <g id="Grupo_140733" data-name="Grupo 140733" transform="translate(51.047)">
          <g id="Grupo_140732" data-name="Grupo 140732">
            <path id="Trazado_183150" data-name="Trazado 183150" d="M256.033,257.248s10,50.1,48.7,64.735c0,0,6.449-5.209,10.913-4.217s12.65,10.665,12.65,10.665h-25.3s-41.42-3.968-62.749-44.4L239,268.905Z" transform="translate(-150.946 -123.894)" fill="#ffc7ca"/>
            <path id="Trazado_183151" data-name="Trazado 183151" d="M235.52,218.735s25.133,32,28.11,40.427c0,0-15.873,13.147-20.834,17.611,0,0-18.824-36.879-15.625-47.125C230.147,220.114,235.52,218.735,235.52,218.735Z" transform="translate(-152.26 -128.041)" fill="#f15381"/>
            <path id="Trazado_183152" data-name="Trazado 183152" d="M204.737,211.392s-38.031,5.29-44.644,30.424,44.892,100.863,44.892,100.863h59.608s-14.551-118.39-21.826-123.02S225.9,207.092,204.737,211.392Z" transform="translate(-159.506 -128.965)" fill="#ff769b"/>
            <g id="Grupo_140730" data-name="Grupo 140730" transform="translate(25.904)">
              <path id="Trazado_183153" data-name="Trazado 183153" d="M221.389,198.656,219.964,221.9c-5.368,3.313-24.7-3.074-24.7-3.074l2.638-25.527Z" transform="translate(-181.56 -130.78)" fill="#ffc7ca"/>
              <g id="Grupo_140729" data-name="Grupo 140729" transform="translate(8.965 25.214)">
                <path id="Trazado_183154" data-name="Trazado 183154" d="M242.719,169.544s-.7,48.492-27.282,42.164c-31.251-7.441-16.866-52.088-16.866-52.088Z" transform="translate(-190.525 -159.62)" fill="#ffc7ca"/>
                <path id="Trazado_183155" data-name="Trazado 183155" d="M199.032,181.139s-2.149-4.8-5.621-2.81-4.3,15.574,4.96,16.633Z" transform="translate(-190.986 -157.657)" fill="#ffc7ca"/>
              </g>
              <path id="Trazado_183156" data-name="Trazado 183156" d="M194.282,182.743s5.125-.827,6.862,3.886l2.728-17.61s17.418,4.96,26.939,0c0,0,7.227,9.529,12.714,10.469s13.61-21.631,0-26.095c0,0-30.337-37.2-47.645,0,0,0-11.355.744-12.842,14.385s8.885,23.041,8.885,23.041S191.636,184.065,194.282,182.743Z" transform="translate(-182.892 -136.857)" fill="#2b2c84"/>
            </g>
            <g id="Grupo_140731" data-name="Grupo 140731" transform="translate(0.587 98.758)">
              <path id="Trazado_183157" data-name="Trazado 183157" d="M198.026,296.35s33.732,34.475,66.966,34.475h65.975s-15.377-20.091-22.818-17.239a46.989,46.989,0,0,0-12.4,7.069s-47.454-8.993-77.052-44.18C218.7,276.476,204.344,276.511,198.026,296.35Z" transform="translate(-155.945 -220.581)" fill="#ffc7ca"/>
              <path id="Trazado_183158" data-name="Trazado 183158" d="M160.036,240.108s.661,46.959,41.006,68.124c0,0,16.04-23.874,21.744-26.322,0,0-19.825-45.044-32.988-53.707C183.1,223.8,169.3,225.226,160.036,240.108Z" transform="translate(-160.036 -226.014)" fill="#f15381"/>
            </g>
          </g>
          <path id="Trazado_183159" data-name="Trazado 183159" d="M256.912,325.542a6.62,6.62,0,0,0-1.489,4.712H362.4s-1.158-4.464-2.645-4.712Z" transform="translate(-149.179 -116.54)" fill="#2b2c84"/>
          <path id="Trazado_183160" data-name="Trazado 183160" d="M318.043,338.187,345.9,251.874h42.329l-28.109,86.313Z" transform="translate(-142.435 -124.472)" fill="#0052ff"/>
          <path id="Trazado_183161" data-name="Trazado 183161" d="M362.493,288.685c-.827,3.394-3.224,5.723-5.353,5.2s-3.185-3.692-2.357-7.085,3.226-5.724,5.355-5.2S363.32,285.292,362.493,288.685Z" transform="translate(-138.509 -121.279)" fill="#fff"/>
        </g>
        <path id="Trazado_183162" data-name="Trazado 183162" d="M427.492,340.709H113.422A10.913,10.913,0,0,1,124.335,329.8H416.579a10.912,10.912,0,0,1,10.913,10.913Z" transform="translate(-113.422 -116.082)" fill="#009aff"/>
        <g id="Grupo_140734" data-name="Grupo 140734" transform="translate(33.295 194.864)">
          <path id="Trazado_183163" data-name="Trazado 183163" d="M203.306,331.628H152.9a9.425,9.425,0,0,1-9.424-9.425h0a9.425,9.425,0,0,1,9.424-9.425h50.4Z" transform="translate(-143.48 -312.778)" fill="#ff9a00"/>
          <path id="Trazado_183164" data-name="Trazado 183164" d="M202.868,325.844H151.7a4.154,4.154,0,0,1-4.153-4.154h0a4.153,4.153,0,0,1,4.153-4.153h51.168Z" transform="translate(-143.042 -312.265)" fill="#fff"/>
        </g>
        <g id="Grupo_140735" data-name="Grupo 140735" transform="translate(33.295 176.014)">
          <path id="Trazado_183165" data-name="Trazado 183165" d="M203.306,314.61H152.9a9.424,9.424,0,0,1-9.424-9.424h0a9.424,9.424,0,0,1,9.424-9.425h50.4Z" transform="translate(-143.48 -295.761)" fill="#008489"/>
          <path id="Trazado_183166" data-name="Trazado 183166" d="M202.868,308.827H151.7a4.154,4.154,0,0,1-4.153-4.154h0a4.153,4.153,0,0,1,4.153-4.153h51.168Z" transform="translate(-143.042 -295.248)" fill="#fff"/>
        </g>
      </g>
      <path id="Trazado_183167" data-name="Trazado 183167" d="M148.26,234.389l.544,1.739.545-1.739a9.267,9.267,0,0,1,4.077-5.246h0a9.268,9.268,0,0,1-4.077-5.245l-.545-1.74-.544,1.74a9.273,9.273,0,0,1-4.077,5.245h0A9.271,9.271,0,0,1,148.26,234.389Z" transform="translate(-95.474 -127.672)" fill="#ff9a00"/>
      <path id="Trazado_183168" data-name="Trazado 183168" d="M250.417,214.79l1.03,3.288,1.028-3.288a17.531,17.531,0,0,1,7.712-9.92h0a17.529,17.529,0,0,1-7.712-9.919l-1.028-3.289-1.03,3.289a17.526,17.526,0,0,1-7.709,9.919h0A17.528,17.528,0,0,1,250.417,214.79Z" transform="translate(-84.865 -130.956)" fill="#ff9a00"/>
      <path id="Trazado_183169" data-name="Trazado 183169" d="M315.916,278.2l1.03,3.289,1.028-3.289a17.535,17.535,0,0,1,7.712-9.92h0a17.526,17.526,0,0,1-7.712-9.919l-1.028-3.289-1.03,3.289a17.522,17.522,0,0,1-7.709,9.919h0A17.531,17.531,0,0,1,315.916,278.2Z" transform="translate(-77.811 -124.128)" fill="#ff9a00"/>
      <path id="Trazado_183170" data-name="Trazado 183170" d="M300.281,296.72l.673,2.154.675-2.154a11.479,11.479,0,0,1,5.051-6.5h0a11.49,11.49,0,0,1-5.051-6.5l-.675-2.156-.673,2.156a11.487,11.487,0,0,1-5.052,6.5h0A11.477,11.477,0,0,1,300.281,296.72Z" transform="translate(-79.209 -121.275)" fill="#ff9a00"/>
      <path id="Trazado_183171" data-name="Trazado 183171" d="M261.975,176.761l.675,2.154.673-2.154a11.486,11.486,0,0,1,5.052-6.5h0a11.48,11.48,0,0,1-5.052-6.5l-.673-2.154-.675,2.154a11.48,11.48,0,0,1-5.052,6.5h0A11.486,11.486,0,0,1,261.975,176.761Z" transform="translate(-83.334 -134.192)" fill="#ff9a00"/>
      <path id="Trazado_183172" data-name="Trazado 183172" d="M107.325,224.927l.949,3.034.95-3.034a16.178,16.178,0,0,1,7.115-9.155h0a16.173,16.173,0,0,1-7.115-9.153l-.95-3.035-.949,3.035a16.171,16.171,0,0,1-7.116,9.153h0A16.175,16.175,0,0,1,107.325,224.927Z" transform="translate(-100.209 -129.672)" fill="#ff9a00"/>
    </g>
    <g id="Grupo_140747" data-name="Grupo 140747" transform="translate(454.621 176.535)">
      <g id="Grupo_140738" data-name="Grupo 140738">
        <rect id="Rectángulo_35942" data-name="Rectángulo 35942" width="73.415" height="89.972" fill="#ffd234"/>
        <path id="Trazado_183173" data-name="Trazado 183173" d="M469.5,172.736v6.508h-8.264v-16.27A9.89,9.89,0,0,1,469.5,172.736Z" transform="translate(-387.824 -162.974)" fill="#ecaf0b"/>
      </g>
      <g id="Grupo_140744" data-name="Grupo 140744" transform="translate(8.299 26.028)">
        <g id="Grupo_140741" data-name="Grupo 140741">
          <g id="Grupo_140739" data-name="Grupo 140739">
            <rect id="Rectángulo_35943" data-name="Rectángulo 35943" width="11.625" height="11.625" fill="#ecaf0b"/>
          </g>
          <g id="Grupo_140740" data-name="Grupo 140740" transform="translate(17.381)">
            <rect id="Rectángulo_35944" data-name="Rectángulo 35944" width="39.436" height="2.897" fill="#2b2c84"/>
            <rect id="Rectángulo_35945" data-name="Rectángulo 35945" width="39.436" height="2.897" transform="translate(0 8.727)" fill="#2b2c84"/>
          </g>
        </g>
        <g id="Grupo_140743" data-name="Grupo 140743" transform="translate(0 26.29)">
          <rect id="Rectángulo_35946" data-name="Rectángulo 35946" width="11.625" height="11.625" fill="#ecaf0b"/>
          <g id="Grupo_140742" data-name="Grupo 140742" transform="translate(17.381)">
            <rect id="Rectángulo_35947" data-name="Rectángulo 35947" width="39.436" height="2.898" fill="#2b2c84"/>
            <rect id="Rectángulo_35948" data-name="Rectángulo 35948" width="39.436" height="2.898" transform="translate(0 8.727)" fill="#2b2c84"/>
          </g>
        </g>
      </g>
      <g id="Grupo_140745" data-name="Grupo 140745" transform="translate(10.27 23.603)">
        <path id="Trazado_183174" data-name="Trazado 183174" d="M409.066,194.928l-4.833-4.178,1.946-2.252,2.484,2.147,5.05-6.364,2.331,1.85Z" transform="translate(-404.233 -184.282)" fill="#fff"/>
      </g>
      <g id="Grupo_140746" data-name="Grupo 140746" transform="translate(10.27 49.232)">
        <path id="Trazado_183175" data-name="Trazado 183175" d="M409.066,218.066l-4.833-4.178,1.946-2.252,2.484,2.147,5.05-6.364,2.331,1.85Z" transform="translate(-404.233 -207.419)" fill="#fff"/>
      </g>
    </g>
  </g>
</svg>
