<svg xmlns="http://www.w3.org/2000/svg" width="630" height="159.419" viewBox="0 0 630 159.419">
  <g id="img4" transform="translate(-370 -3885.503)">
    <path id="Trazado_184797" data-name="Trazado 184797" d="M73.346,0c40.508,0,73.346,33.8,73.346,75.5s-32.838,75.5-73.346,75.5S0,117.2,0,75.5,32.838,0,73.346,0Z" transform="translate(392.7 3890.354)" fill="#fff"/>
    <path id="Trazado_184798" data-name="Trazado 184798" d="M72.807,0c40.21,0,72.807,33.8,72.807,75.5s-32.6,75.5-72.807,75.5S0,117.2,0,75.5,32.6,0,72.807,0Z" transform="translate(620.288 3890.354)" fill="#fff"/>
    <path id="Trazado_184799" data-name="Trazado 184799" d="M73.346,0c40.508,0,73.346,33.8,73.346,75.5s-32.838,75.5-73.346,75.5S0,117.2,0,75.5,32.838,0,73.346,0Z" transform="translate(846.797 3890.354)" fill="#fff"/>
    <g id="Grupo_141185" data-name="Grupo 141185" transform="translate(370 3885.503)">
      <g id="Grupo_140759" data-name="Grupo 140759">
        <g id="Grupo_140756" data-name="Grupo 140756">
          <path id="Trazado_183242" data-name="Trazado 183242" d="M111.031,214a79.71,79.71,0,1,1,79.709-79.709A79.8,79.8,0,0,1,111.031,214Zm0-152.686a72.976,72.976,0,1,0,72.977,72.977A73.061,73.061,0,0,0,111.031,61.311Z" transform="translate(-15.032 -54.578)" fill="#214be5"/>
          <g id="Grupo_140755" data-name="Grupo 140755" transform="translate(0 2.097)">
            <circle id="Elipse_4813" data-name="Elipse 4813" cx="34.197" cy="34.197" r="34.197" transform="translate(4.607 4.609)" fill="#214be5"/>
            <path id="Trazado_183243" data-name="Trazado 183243" d="M68.94,132.7a38.807,38.807,0,1,1,38.805-38.808A38.849,38.849,0,0,1,68.94,132.7Zm0-68.394A29.586,29.586,0,1,0,98.527,93.893,29.622,29.622,0,0,0,68.94,64.307Z" transform="translate(-30.135 -55.088)" fill="#fff"/>
          </g>
        </g>
        <g id="Grupo_140757" data-name="Grupo 140757" transform="translate(227.146)">
          <path id="Trazado_183242-2" data-name="Trazado 183242" d="M111.031,214a79.71,79.71,0,1,1,79.709-79.709A79.8,79.8,0,0,1,111.031,214Zm0-152.686a72.976,72.976,0,1,0,72.977,72.977A73.061,73.061,0,0,0,111.031,61.311Z" transform="translate(-15.032 -54.578)" fill="#214be5"/>
          <g id="Grupo_140755-2" data-name="Grupo 140755" transform="translate(0 2.097)">
            <circle id="Elipse_4813-2" data-name="Elipse 4813" cx="34.197" cy="34.197" r="34.197" transform="translate(4.607 4.609)" fill="#214be5"/>
            <path id="Trazado_183243-2" data-name="Trazado 183243" d="M68.94,132.7a38.807,38.807,0,1,1,38.805-38.808A38.849,38.849,0,0,1,68.94,132.7Zm0-68.394A29.586,29.586,0,1,0,98.527,93.893,29.622,29.622,0,0,0,68.94,64.307Z" transform="translate(-30.135 -55.088)" fill="#fff"/>
          </g>
        </g>
        <g id="Grupo_140758" data-name="Grupo 140758" transform="translate(454.292)">
          <path id="Trazado_183242-3" data-name="Trazado 183242" d="M111.031,214a79.71,79.71,0,1,1,79.709-79.709A79.8,79.8,0,0,1,111.031,214Zm0-152.686a72.976,72.976,0,1,0,72.977,72.977A73.061,73.061,0,0,0,111.031,61.311Z" transform="translate(-15.032 -54.578)" fill="#214be5"/>
          <g id="Grupo_140755-3" data-name="Grupo 140755" transform="translate(0 2.097)">
            <circle id="Elipse_4813-3" data-name="Elipse 4813" cx="34.197" cy="34.197" r="34.197" transform="translate(4.607 4.609)" fill="#214be5"/>
            <path id="Trazado_183243-3" data-name="Trazado 183243" d="M68.94,132.7a38.807,38.807,0,1,1,38.805-38.808A38.849,38.849,0,0,1,68.94,132.7Zm0-68.394A29.586,29.586,0,1,0,98.527,93.893,29.622,29.622,0,0,0,68.94,64.307Z" transform="translate(-30.135 -55.088)" fill="#fff"/>
          </g>
        </g>
        <path id="Trazado_184907" data-name="Trazado 184907" d="M2.876-15.326H9.2v5.362H2.876v7.255H-2.969V-9.964H-9.314v-5.362h6.346v-7.051H2.876Z" transform="translate(206.75 82.932)" fill="#ff0092"/>
        <path id="Trazado_184906" data-name="Trazado 184906" d="M8.433-13.4H-8.749v-4.824H8.433Zm0,8.146H-8.749v-4.824H8.433Z" transform="translate(433.5 84.932)" fill="#ff0092"/>
      </g>
      <path id="Trazado_184903" data-name="Trazado 184903" d="M54.1,13.211A4.025,4.025,0,0,1,52.742,16.1a4.76,4.76,0,0,1-3.223,1.055,4.28,4.28,0,0,1-3.441-1.473,6.038,6.038,0,0,1-1.254-4.043v-.7A6.819,6.819,0,0,1,45.4,8.055a4.332,4.332,0,0,1,1.652-1.918,5.164,5.164,0,0,1,5.668.387,4.326,4.326,0,0,1,1.391,2.961H51.77a2.376,2.376,0,0,0-.613-1.6,2.271,2.271,0,0,0-1.605-.5,1.991,1.991,0,0,0-1.754.84,4.707,4.707,0,0,0-.6,2.605V11.7a5.038,5.038,0,0,0,.559,2.7,1.954,1.954,0,0,0,1.762.852,2.314,2.314,0,0,0,1.621-.5,2.241,2.241,0,0,0,.613-1.535Zm1.039-.516a5.013,5.013,0,0,1,.484-2.242A3.546,3.546,0,0,1,57.016,8.93a4.069,4.069,0,0,1,2.113-.539,3.849,3.849,0,0,1,2.793,1.047,4.2,4.2,0,0,1,1.207,2.844l.016.578a4.418,4.418,0,0,1-1.086,3.121,4.209,4.209,0,0,1-5.832,0,4.5,4.5,0,0,1-1.09-3.187Zm2.258.16a3.16,3.16,0,0,0,.453,1.843,1.628,1.628,0,0,0,2.578.008,3.457,3.457,0,0,0,.461-2.015,3.128,3.128,0,0,0-.461-1.831,1.5,1.5,0,0,0-1.3-.649,1.474,1.474,0,0,0-1.281.646A3.516,3.516,0,0,0,57.395,12.856Zm9.219-4.309.07.977a2.951,2.951,0,0,1,2.43-1.133,2.453,2.453,0,0,1,2,.789,3.682,3.682,0,0,1,.672,2.359V17H69.527V11.594a1.465,1.465,0,0,0-.312-1.043,1.4,1.4,0,0,0-1.039-.324,1.553,1.553,0,0,0-1.43.813V17H64.488V8.547Zm10.4,6.789a1.481,1.481,0,0,0,1.016-.344,1.2,1.2,0,0,0,.406-.914h2.117a2.9,2.9,0,0,1-.469,1.574,3.093,3.093,0,0,1-1.262,1.109,3.949,3.949,0,0,1-1.77.395A3.67,3.67,0,0,1,74.191,16a4.56,4.56,0,0,1-1.047-3.184v-.148a4.508,4.508,0,0,1,1.039-3.117,3.627,3.627,0,0,1,2.852-1.164,3.555,3.555,0,0,1,2.543.9,3.2,3.2,0,0,1,.973,2.4H78.434a1.551,1.551,0,0,0-.406-1.072,1.51,1.51,0,0,0-2.223.163,3.333,3.333,0,0,0-.4,1.866v.235a3.375,3.375,0,0,0,.4,1.878A1.377,1.377,0,0,0,77.012,15.336Zm8.719,1.82A4.15,4.15,0,0,1,82.7,16.016a4.054,4.054,0,0,1-1.168-3.039v-.219a5.106,5.106,0,0,1,.492-2.277,3.612,3.612,0,0,1,1.395-1.547,3.914,3.914,0,0,1,2.059-.543,3.508,3.508,0,0,1,2.73,1.094,4.444,4.444,0,0,1,1,3.1v.922H83.824a2.1,2.1,0,0,0,.66,1.328,2,2,0,0,0,1.395.5,2.437,2.437,0,0,0,2.039-.945l1.109,1.242a3.389,3.389,0,0,1-1.375,1.121A4.511,4.511,0,0,1,85.73,17.156Zm-.258-6.945a1.411,1.411,0,0,0-1.09.455,2.357,2.357,0,0,0-.535,1.3h3.141v-.181a1.681,1.681,0,0,0-.406-1.165A1.456,1.456,0,0,0,85.473,10.211ZM98.1,12.852a5.07,5.07,0,0,1-.887,3.129,2.843,2.843,0,0,1-2.395,1.176,2.633,2.633,0,0,1-2.07-.891V20.25H90.488V8.547h2.094l.078.828A2.654,2.654,0,0,1,94.8,8.391a2.862,2.862,0,0,1,2.43,1.156,5.207,5.207,0,0,1,.867,3.188Zm-2.258-.164a3.327,3.327,0,0,0-.418-1.82,1.361,1.361,0,0,0-1.215-.641,1.478,1.478,0,0,0-1.461.813V14.5a1.5,1.5,0,0,0,1.477.836Q95.84,15.336,95.84,12.688ZM102.2,6.469V8.547h1.445V10.2H102.2v4.219a1.007,1.007,0,0,0,.18.672.9.9,0,0,0,.688.2,3.6,3.6,0,0,0,.664-.055v1.711a4.648,4.648,0,0,1-1.367.2,2.156,2.156,0,0,1-2.422-2.4V10.2H98.707V8.547h1.234V6.469Zm2.117,6.227a5.013,5.013,0,0,1,.484-2.242A3.546,3.546,0,0,1,106.2,8.93a4.069,4.069,0,0,1,2.113-.539A3.849,3.849,0,0,1,111.1,9.438a4.2,4.2,0,0,1,1.207,2.844l.016.578a4.418,4.418,0,0,1-1.086,3.121,4.209,4.209,0,0,1-5.832,0,4.5,4.5,0,0,1-1.09-3.187Zm2.258.16a3.16,3.16,0,0,0,.453,1.843,1.628,1.628,0,0,0,2.578.008,3.457,3.457,0,0,0,.461-2.015,3.128,3.128,0,0,0-.461-1.831,1.5,1.5,0,0,0-1.3-.649,1.474,1.474,0,0,0-1.281.646A3.516,3.516,0,0,0,106.574,12.856ZM60.324,41H58.059V32.547h2.266Zm-2.4-10.641a1.112,1.112,0,0,1,.34-.836,1.465,1.465,0,0,1,1.848,0,1.193,1.193,0,0,1,0,1.68,1.448,1.448,0,0,1-1.836,0A1.108,1.108,0,0,1,57.926,30.359Zm6.336,2.188.07.977a2.951,2.951,0,0,1,2.43-1.133,2.453,2.453,0,0,1,2,.789,3.682,3.682,0,0,1,.672,2.359V41H67.176V35.594a1.465,1.465,0,0,0-.312-1.043,1.4,1.4,0,0,0-1.039-.324,1.553,1.553,0,0,0-1.43.813V41H62.137V32.547ZM73.527,41H71.262V32.547h2.266Zm-2.4-10.641a1.112,1.112,0,0,1,.34-.836,1.465,1.465,0,0,1,1.848,0,1.193,1.193,0,0,1,0,1.68,1.448,1.448,0,0,1-1.836,0A1.108,1.108,0,0,1,71.129,30.359ZM78.9,39.336a1.481,1.481,0,0,0,1.016-.344,1.2,1.2,0,0,0,.406-.914h2.117a2.9,2.9,0,0,1-.469,1.574,3.093,3.093,0,0,1-1.262,1.109,3.949,3.949,0,0,1-1.77.395A3.67,3.67,0,0,1,76.082,40a4.56,4.56,0,0,1-1.047-3.184v-.148a4.508,4.508,0,0,1,1.039-3.117,3.627,3.627,0,0,1,2.852-1.164,3.555,3.555,0,0,1,2.543.9,3.2,3.2,0,0,1,.973,2.4H80.324a1.551,1.551,0,0,0-.406-1.072,1.51,1.51,0,0,0-2.223.163,3.333,3.333,0,0,0-.4,1.866v.235a3.375,3.375,0,0,0,.4,1.878A1.377,1.377,0,0,0,78.9,39.336ZM86.113,41H83.848V32.547h2.266Zm-2.4-10.641a1.112,1.112,0,0,1,.34-.836,1.465,1.465,0,0,1,1.848,0,1.193,1.193,0,0,1,0,1.68,1.448,1.448,0,0,1-1.836,0A1.108,1.108,0,0,1,83.715,30.359ZM92.871,41a2.507,2.507,0,0,1-.227-.758,2.732,2.732,0,0,1-2.133.914,3,3,0,0,1-2.059-.719,2.312,2.312,0,0,1-.816-1.812,2.389,2.389,0,0,1,1-2.062,4.915,4.915,0,0,1,2.879-.727h1.039v-.484a1.393,1.393,0,0,0-.3-.937,1.183,1.183,0,0,0-.949-.352,1.345,1.345,0,0,0-.895.273.929.929,0,0,0-.324.75H87.824a2.268,2.268,0,0,1,.453-1.359,3,3,0,0,1,1.281-.98,4.669,4.669,0,0,1,1.859-.355,3.689,3.689,0,0,1,2.48.785,2.747,2.747,0,0,1,.918,2.207v3.664a4.041,4.041,0,0,0,.336,1.82V41ZM91,39.43a1.945,1.945,0,0,0,.922-.223,1.462,1.462,0,0,0,.625-.6V37.156h-.844q-1.7,0-1.8,1.172l-.008.133a.9.9,0,0,0,.3.7A1.153,1.153,0,0,0,91,39.43ZM98.934,41H96.668V29h2.266Z" transform="translate(15 68.319)" fill="#12263f"/>
      <path id="Trazado_184904" data-name="Trazado 184904" d="M40.875,12.992V17H38.531V5.625h4.438a5.134,5.134,0,0,1,2.254.469,3.454,3.454,0,0,1,1.5,1.332,3.714,3.714,0,0,1,.523,1.965A3.266,3.266,0,0,1,46.1,12.027a4.767,4.767,0,0,1-3.168.965Zm0-1.9h2.094a2.059,2.059,0,0,0,1.418-.437,1.591,1.591,0,0,0,.488-1.25,1.876,1.876,0,0,0-.492-1.352,1.839,1.839,0,0,0-1.359-.531H40.875Zm12.578-.43a6.134,6.134,0,0,0-.812-.062,1.654,1.654,0,0,0-1.68.867V17H48.7V8.547h2.133L50.9,9.555a2.092,2.092,0,0,1,1.883-1.164,2.366,2.366,0,0,1,.7.1Zm.453,2.031a5.013,5.013,0,0,1,.484-2.242A3.546,3.546,0,0,1,55.785,8.93,4.069,4.069,0,0,1,57.9,8.391a3.849,3.849,0,0,1,2.793,1.047A4.2,4.2,0,0,1,61.9,12.281l.016.578a4.418,4.418,0,0,1-1.086,3.121,4.209,4.209,0,0,1-5.832,0,4.5,4.5,0,0,1-1.09-3.187Zm2.258.16a3.16,3.16,0,0,0,.453,1.843,1.628,1.628,0,0,0,2.578.008,3.457,3.457,0,0,0,.461-2.015A3.128,3.128,0,0,0,59.2,10.86a1.5,1.5,0,0,0-1.3-.649,1.474,1.474,0,0,0-1.281.646A3.516,3.516,0,0,0,56.164,12.856Zm14.75,0a5.07,5.07,0,0,1-.887,3.129,2.843,2.843,0,0,1-2.395,1.176,2.633,2.633,0,0,1-2.07-.891V20.25H63.3V8.547H65.4l.078.828a2.654,2.654,0,0,1,2.141-.984,2.862,2.862,0,0,1,2.43,1.156,5.207,5.207,0,0,1,.867,3.188Zm-2.258-.164a3.327,3.327,0,0,0-.418-1.82,1.361,1.361,0,0,0-1.215-.641,1.478,1.478,0,0,0-1.461.813V14.5a1.5,1.5,0,0,0,1.477.836Q68.656,15.336,68.656,12.688Zm8.719,3.453a2.831,2.831,0,0,1-2.312,1.016,2.67,2.67,0,0,1-2.074-.781,3.335,3.335,0,0,1-.73-2.289V8.547h2.258v5.467q0,1.322,1.2,1.322a1.63,1.63,0,0,0,1.578-.8V8.547h2.266V17H77.438Zm7.781,1.016a4.15,4.15,0,0,1-3.027-1.141,4.054,4.054,0,0,1-1.168-3.039v-.219a5.106,5.106,0,0,1,.492-2.277,3.612,3.612,0,0,1,1.395-1.547,3.914,3.914,0,0,1,2.059-.543,3.508,3.508,0,0,1,2.73,1.094,4.444,4.444,0,0,1,1,3.1v.922H83.25a2.1,2.1,0,0,0,.66,1.328,2,2,0,0,0,1.395.5,2.437,2.437,0,0,0,2.039-.945l1.109,1.242a3.389,3.389,0,0,1-1.375,1.121A4.511,4.511,0,0,1,85.156,17.156ZM84.9,10.211a1.411,1.411,0,0,0-1.09.455,2.357,2.357,0,0,0-.535,1.3h3.141v-.181a1.681,1.681,0,0,0-.406-1.165A1.456,1.456,0,0,0,84.9,10.211Zm9.594,4.453a.727.727,0,0,0-.41-.652,4.659,4.659,0,0,0-1.316-.426q-3.016-.633-3.016-2.562a2.323,2.323,0,0,1,.934-1.879,3.766,3.766,0,0,1,2.441-.754,4.053,4.053,0,0,1,2.574.758,2.388,2.388,0,0,1,.965,1.969H94.406a1.092,1.092,0,0,0-.312-.8A1.322,1.322,0,0,0,93.117,10a1.351,1.351,0,0,0-.883.258.814.814,0,0,0-.312.656.7.7,0,0,0,.355.605,3.657,3.657,0,0,0,1.2.4A9.8,9.8,0,0,1,94.9,12.3a2.336,2.336,0,0,1,1.789,2.273,2.2,2.2,0,0,1-.992,1.871,4.28,4.28,0,0,1-2.562.715,4.47,4.47,0,0,1-1.887-.379,3.166,3.166,0,0,1-1.293-1.039,2.414,2.414,0,0,1-.469-1.426h2.141a1.179,1.179,0,0,0,.445.922,1.766,1.766,0,0,0,1.109.32,1.635,1.635,0,0,0,.98-.246A.766.766,0,0,0,94.492,14.664Zm6.352-8.2V8.547h1.445V10.2h-1.445v4.219a1.007,1.007,0,0,0,.18.672.9.9,0,0,0,.688.2,3.6,3.6,0,0,0,.664-.055v1.711a4.648,4.648,0,0,1-1.367.2,2.156,2.156,0,0,1-2.422-2.4V10.2H97.352V8.547h1.234V6.469ZM108.445,17a2.507,2.507,0,0,1-.227-.758,2.732,2.732,0,0,1-2.133.914,3,3,0,0,1-2.059-.719,2.312,2.312,0,0,1-.816-1.812,2.389,2.389,0,0,1,1-2.062,4.915,4.915,0,0,1,2.879-.727h1.039v-.484a1.393,1.393,0,0,0-.3-.937,1.183,1.183,0,0,0-.949-.352,1.345,1.345,0,0,0-.895.273.929.929,0,0,0-.324.75H103.4a2.268,2.268,0,0,1,.453-1.359,3,3,0,0,1,1.281-.98,4.669,4.669,0,0,1,1.859-.355,3.689,3.689,0,0,1,2.48.785,2.747,2.747,0,0,1,.918,2.207v3.664a4.041,4.041,0,0,0,.336,1.82V17Zm-1.867-1.57a1.945,1.945,0,0,0,.922-.223,1.462,1.462,0,0,0,.625-.6V13.156h-.844q-1.7,0-1.8,1.172l-.008.133a.9.9,0,0,0,.3.7A1.153,1.153,0,0,0,106.578,15.43Zm10.125-.766a.727.727,0,0,0-.41-.652,4.659,4.659,0,0,0-1.316-.426q-3.016-.633-3.016-2.562a2.323,2.323,0,0,1,.934-1.879,3.766,3.766,0,0,1,2.441-.754,4.053,4.053,0,0,1,2.574.758,2.388,2.388,0,0,1,.965,1.969h-2.258a1.092,1.092,0,0,0-.312-.8,1.322,1.322,0,0,0-.977-.316,1.351,1.351,0,0,0-.883.258.814.814,0,0,0-.312.656.7.7,0,0,0,.355.605,3.657,3.657,0,0,0,1.2.4,9.8,9.8,0,0,1,1.422.379A2.336,2.336,0,0,1,118.9,14.57a2.2,2.2,0,0,1-.992,1.871,4.28,4.28,0,0,1-2.562.715,4.47,4.47,0,0,1-1.887-.379,3.166,3.166,0,0,1-1.293-1.039,2.414,2.414,0,0,1-.469-1.426h2.141a1.179,1.179,0,0,0,.445.922,1.766,1.766,0,0,0,1.109.32,1.635,1.635,0,0,0,.98-.246A.766.766,0,0,0,116.7,14.664ZM43.25,36.711a5.094,5.094,0,0,1,.887-3.148,2.877,2.877,0,0,1,2.426-1.172,2.589,2.589,0,0,1,2.039.922V29h2.266V41H48.828l-.109-.9a2.657,2.657,0,0,1-2.172,1.055,2.869,2.869,0,0,1-2.395-1.176A5.258,5.258,0,0,1,43.25,36.711Zm2.258.168a3.337,3.337,0,0,0,.414,1.823,1.349,1.349,0,0,0,1.2.634,1.511,1.511,0,0,0,1.477-.884V35.111a1.489,1.489,0,0,0-1.461-.884Q45.508,34.227,45.508,36.879Zm11,4.277a4.15,4.15,0,0,1-3.027-1.141,4.054,4.054,0,0,1-1.168-3.039v-.219A5.106,5.106,0,0,1,52.8,34.48,3.612,3.612,0,0,1,54.2,32.934a3.914,3.914,0,0,1,2.059-.543,3.508,3.508,0,0,1,2.73,1.094,4.444,4.444,0,0,1,1,3.1v.922H54.6a2.1,2.1,0,0,0,.66,1.328,2,2,0,0,0,1.395.5,2.437,2.437,0,0,0,2.039-.945L59.8,39.633a3.389,3.389,0,0,1-1.375,1.121A4.511,4.511,0,0,1,56.508,41.156Zm-.258-6.945a1.411,1.411,0,0,0-1.09.455,2.357,2.357,0,0,0-.535,1.3h3.141v-.181a1.681,1.681,0,0,0-.406-1.165A1.456,1.456,0,0,0,56.25,34.211Zm11.117-1.664.07.945a2.971,2.971,0,0,1,2.43-1.1,2.255,2.255,0,0,1,2.242,1.289,2.9,2.9,0,0,1,2.539-1.289,2.521,2.521,0,0,1,2.047.8,3.681,3.681,0,0,1,.672,2.41V41H75.1V35.609a1.61,1.61,0,0,0-.281-1.051,1.246,1.246,0,0,0-.992-.332,1.409,1.409,0,0,0-1.406.969L72.43,41H70.172V35.617a1.59,1.59,0,0,0-.289-1.062,1.259,1.259,0,0,0-.984-.328,1.463,1.463,0,0,0-1.391.8V41H65.25V32.547Zm15.625,8.609a4.15,4.15,0,0,1-3.027-1.141A4.054,4.054,0,0,1,78.8,36.977v-.219a5.106,5.106,0,0,1,.492-2.277,3.612,3.612,0,0,1,1.395-1.547,3.914,3.914,0,0,1,2.059-.543,3.508,3.508,0,0,1,2.73,1.094,4.444,4.444,0,0,1,1,3.1v.922H81.086a2.1,2.1,0,0,0,.66,1.328,2,2,0,0,0,1.395.5,2.437,2.437,0,0,0,2.039-.945l1.109,1.242a3.389,3.389,0,0,1-1.375,1.121A4.511,4.511,0,0,1,82.992,41.156Zm-.258-6.945a1.411,1.411,0,0,0-1.09.455,2.357,2.357,0,0,0-.535,1.3H84.25v-.181a1.681,1.681,0,0,0-.406-1.165A1.456,1.456,0,0,0,82.734,34.211Zm7.406-1.664v8.914a3.024,3.024,0,0,1-.742,2.176,2.821,2.821,0,0,1-2.141.777,4.591,4.591,0,0,1-1.117-.133V42.492a4.238,4.238,0,0,0,.711.07q1.023,0,1.023-1.086v-8.93ZM87.7,30.359a1.112,1.112,0,0,1,.34-.836,1.47,1.47,0,0,1,1.852,0,1.2,1.2,0,0,1-.008,1.68,1.448,1.448,0,0,1-1.836,0A1.108,1.108,0,0,1,87.7,30.359ZM91.555,36.7a5.013,5.013,0,0,1,.484-2.242,3.546,3.546,0,0,1,1.395-1.523,4.069,4.069,0,0,1,2.113-.539,3.849,3.849,0,0,1,2.793,1.047,4.2,4.2,0,0,1,1.207,2.844l.016.578a4.418,4.418,0,0,1-1.086,3.121,4.209,4.209,0,0,1-5.832,0,4.5,4.5,0,0,1-1.09-3.187Zm2.258.16a3.16,3.16,0,0,0,.453,1.843,1.628,1.628,0,0,0,2.578.008,3.457,3.457,0,0,0,.461-2.015,3.128,3.128,0,0,0-.461-1.831,1.5,1.5,0,0,0-1.3-.649,1.474,1.474,0,0,0-1.281.646A3.516,3.516,0,0,0,93.813,36.856ZM105.7,34.664a6.134,6.134,0,0,0-.812-.062,1.654,1.654,0,0,0-1.68.867V41h-2.258V32.547h2.133l.063,1.008a2.092,2.092,0,0,1,1.883-1.164,2.366,2.366,0,0,1,.7.1ZM111.453,41a2.507,2.507,0,0,1-.227-.758,2.732,2.732,0,0,1-2.133.914,3,3,0,0,1-2.059-.719,2.312,2.312,0,0,1-.816-1.812,2.389,2.389,0,0,1,1-2.062,4.915,4.915,0,0,1,2.879-.727h1.039v-.484a1.393,1.393,0,0,0-.3-.937,1.183,1.183,0,0,0-.949-.352,1.345,1.345,0,0,0-.895.273.929.929,0,0,0-.324.75h-2.258a2.268,2.268,0,0,1,.453-1.359,3,3,0,0,1,1.281-.98A4.669,4.669,0,0,1,110,32.391a3.689,3.689,0,0,1,2.48.785,2.747,2.747,0,0,1,.918,2.207v3.664a4.041,4.041,0,0,0,.336,1.82V41Zm-1.867-1.57a1.945,1.945,0,0,0,.922-.223,1.462,1.462,0,0,0,.625-.6V37.156h-.844q-1.7,0-1.8,1.172l-.008.133a.9.9,0,0,0,.3.7A1.153,1.153,0,0,0,109.586,39.43Z" transform="translate(243.75 68.319)" fill="#12263f"/>
      <path id="Trazado_184905" data-name="Trazado 184905" d="M64.594,17H62.25V5.625h2.344Zm2.172,0V5.625h3.5a5.315,5.315,0,0,1,2.684.676A4.712,4.712,0,0,1,74.8,8.223a5.928,5.928,0,0,1,.664,2.832v.523a5.945,5.945,0,0,1-.652,2.82,4.672,4.672,0,0,1-1.84,1.914,5.355,5.355,0,0,1-2.68.688Zm2.344-9.477v7.594h1.133a2.545,2.545,0,0,0,2.1-.9,4.06,4.06,0,0,0,.742-2.57v-.6a4.124,4.124,0,0,0-.719-2.629,2.537,2.537,0,0,0-2.1-.895Zm14.9,4.547h-4.5v3.047h5.281V17H77.164V5.625h7.609v1.9H79.508v2.711h4.5Zm8.578,2.586H88.477L87.7,17H85.2L89.438,5.625h2.172L95.867,17H93.375Zm-3.477-1.9h2.844L90.523,8.5ZM62.277,36.992V41H59.934V29.625h4.438a5.134,5.134,0,0,1,2.254.469,3.454,3.454,0,0,1,1.5,1.332,3.714,3.714,0,0,1,.523,1.965A3.266,3.266,0,0,1,67.5,36.027a4.767,4.767,0,0,1-3.168.965Zm0-1.9h2.094a2.059,2.059,0,0,0,1.418-.437,1.591,1.591,0,0,0,.488-1.25,1.876,1.876,0,0,0-.492-1.352,1.839,1.839,0,0,0-1.359-.531H62.277ZM72.6,39.117h4.977V41h-7.32V29.625H72.6ZM87.34,29.625v7.492a3.836,3.836,0,0,1-1.168,2.953,4.5,4.5,0,0,1-3.191,1.086A4.553,4.553,0,0,1,79.816,40.1a3.77,3.77,0,0,1-1.2-2.9V29.625h2.344v7.508a2.167,2.167,0,0,0,.535,1.629,2.054,2.054,0,0,0,1.48.512q1.977,0,2.008-2.078v-7.57Zm7.82,8.391A1.2,1.2,0,0,0,94.691,37,6.148,6.148,0,0,0,93,36.246a11.963,11.963,0,0,1-1.93-.777,3.153,3.153,0,0,1-1.937-2.82A2.747,2.747,0,0,1,89.656,31a3.389,3.389,0,0,1,1.492-1.129,5.616,5.616,0,0,1,2.184-.406,5.112,5.112,0,0,1,2.172.441,3.458,3.458,0,0,1,1.48,1.246,3.261,3.261,0,0,1,.527,1.828H95.168a1.534,1.534,0,0,0-.492-1.215,2.023,2.023,0,0,0-1.383-.434,2.162,2.162,0,0,0-1.336.363,1.146,1.146,0,0,0-.477.957,1.1,1.1,0,0,0,.559.93,6.311,6.311,0,0,0,1.645.7A7.106,7.106,0,0,1,96.6,35.781,2.972,2.972,0,0,1,97.512,38a2.737,2.737,0,0,1-1.117,2.316,4.891,4.891,0,0,1-3.008.84A5.808,5.808,0,0,1,91,40.676a3.783,3.783,0,0,1-1.645-1.316,3.371,3.371,0,0,1-.566-1.937h2.352q0,1.883,2.25,1.883a2.189,2.189,0,0,0,1.3-.34A1.106,1.106,0,0,0,95.16,38.016Z" transform="translate(472.5 68.319)" fill="#12263f"/>
      <g id="Grupo_140762" data-name="Grupo 140762" transform="translate(472.5 23.593)">
        <path id="Trazado_183249" data-name="Trazado 183249" d="M323.289,495.805a.848.848,0,0,0,.138-.251l4.336-13.01a2.746,2.746,0,0,0,.169-.525.351.351,0,0,0,.01-.045,2.754,2.754,0,0,0-3.315-3.233.607.607,0,0,0-.088.021,3.366,3.366,0,0,0-.347.115l-12.648,4.168a3.145,3.145,0,0,0-1.567.825l-9.19,9.19-7.5-1.191a.474.474,0,0,0-.161,0,2.538,2.538,0,0,0-2.183.718,2.569,2.569,0,0,0-.041,3.587.4.4,0,0,0,.055.068l3.324,3.321-.911.911a3.26,3.26,0,0,0,0,4.608l1.08,1.081-.11.218a.794.794,0,0,0,.145.924l4.747,4.746a.794.794,0,0,0,.925.146l.217-.109,1.123,1.121a3.237,3.237,0,0,0,2.305.956h0a3.237,3.237,0,0,0,2.3-.953l.721-.722,3.362,3.363a.494.494,0,0,0,.092.073,1.121,1.121,0,0,0,.085.1,2.543,2.543,0,0,0,1.811.749h0a2.564,2.564,0,0,0,2.451-3.313.545.545,0,0,0-.007-.1l-1.185-7.484,9.27-9.268A3.111,3.111,0,0,0,323.289,495.805Zm-31.494-.233a.566.566,0,0,0-.061-.079.466.466,0,0,0-.067-.057,1.508,1.508,0,0,1,.03-2.1,1.486,1.486,0,0,1,1.387-.4.589.589,0,0,0,.21.007l6.565,1.043-4.825,4.823Zm21.754,17.75a.527.527,0,0,0,.026.314,1.5,1.5,0,0,1-1.391,2.071h0a1.484,1.484,0,0,1-1.059-.438.4.4,0,0,1-.055-.069l-.057-.077a.542.542,0,0,0-.2-.155l-3.166-3.166,4.888-4.888Zm8.376-18.356a1.655,1.655,0,0,1-.338.514l-16.6,16.6a1.656,1.656,0,0,1-1.176.487h0a1.671,1.671,0,0,1-.486-.072,1.636,1.636,0,0,1-.439-.209,1.549,1.549,0,0,1-.254-.208L301.1,510.55a.8.8,0,0,0-.564-.233.789.789,0,0,0-.361.087l-.218.111-3.927-3.927.11-.218a.794.794,0,0,0-.145-.924l-1.491-1.492a1.666,1.666,0,0,1,0-2.354L311.1,485a1.6,1.6,0,0,1,.825-.4c.026-.007.053-.013.078-.022l12.713-4.188c.02-.007.04-.016.059-.022a1.356,1.356,0,0,1,.145-.052.265.265,0,0,0,.041-.009,1.163,1.163,0,0,1,1.423,1.339l-.007.026a1.117,1.117,0,0,1-.084.258c-.011.026-.022.054-.031.08l-4.286,12.862A.779.779,0,0,0,321.924,494.966Z" transform="translate(-290.197 -478.672)" fill="#fff"/>
        <path id="Trazado_183250" data-name="Trazado 183250" d="M305.9,495.555a2.876,2.876,0,0,0-2.048-.848h0a2.878,2.878,0,0,0-2.045.845l-3.547,3.547a2.9,2.9,0,0,0,0,4.1l1.673,1.673a2.876,2.876,0,0,0,2.048.848h0a2.88,2.88,0,0,0,2.045-.848l3.547-3.547a2.9,2.9,0,0,0,0-4.094Zm.548,4.641-3.547,3.547h0a1.285,1.285,0,0,1-.92.381h0a1.29,1.29,0,0,1-.921-.381l-1.673-1.673a1.3,1.3,0,0,1,0-1.843l3.547-3.547a1.3,1.3,0,0,1,.92-.381h0a1.3,1.3,0,0,1,.922.384l1.673,1.673a1.3,1.3,0,0,1,0,1.841Z" transform="translate(-289.125 -476.29)" fill="#fff"/>
        <path id="Trazado_183251" data-name="Trazado 183251" d="M313.285,487.721a4.565,4.565,0,0,0-2.153-.536h0a4.573,4.573,0,1,0,0,9.146h0a4.572,4.572,0,0,0,3.234-7.805A4.628,4.628,0,0,0,313.285,487.721Zm-.046,6.142a2.959,2.959,0,0,1-2.109.875h0a2.98,2.98,0,0,1,0-5.961h0a2.978,2.978,0,0,1,2.107,5.086Z" transform="translate(-287.767 -477.407)" fill="#fff"/>
      </g>
      <g id="Grupo_140763" data-name="Grupo 140763" transform="translate(246.75 24.962)">
        <path id="Trazado_183252" data-name="Trazado 183252" d="M447.186,187.18a.849.849,0,0,0,.535-.189l3.448-2.8a.847.847,0,0,0,.124-1.193l-8.661-10.662a12.782,12.782,0,1,0-11.494,4.978,12.939,12.939,0,0,0,1.341.068,12.661,12.661,0,0,0,5.374-1.193l8.675,10.679A.842.842,0,0,0,447.186,187.18Zm-15.874-11.555a11.086,11.086,0,1,1,8.13-2.423A11.01,11.01,0,0,1,431.312,175.625Zm9.2-1.106a12.391,12.391,0,0,0,.986-.889l7.943,9.778-2.131,1.73-7.95-9.785A13.55,13.55,0,0,0,440.512,174.518Z" transform="translate(-419.672 -151.823)" fill="#fff"/>
        <path id="Trazado_183253" data-name="Trazado 183253" d="M439.442,158.427a9.35,9.35,0,1,0-1.363,13.161A9.291,9.291,0,0,0,439.442,158.427Zm-2.434,11.844a7.659,7.659,0,1,1-4.843-13.606,7.989,7.989,0,0,1,.8.04,7.662,7.662,0,0,1,4.039,13.566Z" transform="translate(-419.398 -151.549)" fill="#fff"/>
      </g>
    </g>
    <g id="Grupo_141215" data-name="Grupo 141215" transform="translate(389.071 3907.552)">
      <path id="Trazado_182272" data-name="Trazado 182272" d="M946.355,551.493l-4.495,2.248-1.005-2.01,4.5-2.248Z" transform="translate(-908.692 -547.117)" fill="#fff"/>
      <path id="Trazado_182273" data-name="Trazado 182273" d="M945.35,589.57l-4.495-2.247,1-2.01,4.5,2.248Z" transform="translate(-908.692 -567.211)" fill="#fff"/>
      <path id="Trazado_182274" data-name="Trazado 182274" d="M944.556,569.685h4.57v2.248h-4.57Z" transform="translate(-910.767 -558.447)" fill="#fff"/>
      <path id="Trazado_182275" data-name="Trazado 182275" d="M870.207,549.483l4.5,2.248-1.005,2.01-4.495-2.248Z" transform="translate(-868.506 -547.117)" fill="#fff"/>
      <path id="Trazado_182276" data-name="Trazado 182276" d="M870.205,589.568l-1.005-2.01,4.5-2.248,1.005,2.01Z" transform="translate(-868.504 -567.21)" fill="#fff"/>
      <path id="Trazado_182277" data-name="Trazado 182277" d="M867.616,569.685h4.57v2.248h-4.57Z" transform="translate(-867.616 -558.447)" fill="#fff"/>
      <path id="Trazado_182278" data-name="Trazado 182278" d="M903.613,626.324h6.742v2.248h-6.742Z" transform="translate(-887.805 -590.213)" fill="#fff"/>
      <path id="Trazado_182279" data-name="Trazado 182279" d="M907.864,556.457a12.362,12.362,0,1,0-17.98,11v3.614h-2.248v2.248h2.248v4.645h11.238v-4.645h2.248v-2.248h-2.248v-3.614A12.367,12.367,0,0,0,907.864,556.457Zm-8.99,19.254h-6.742v-2.4h6.742ZM894.379,558.7a1.124,1.124,0,1,1,1.123,1.124A1.125,1.125,0,0,1,894.379,558.7Zm2.248,12.362v-9.183a3.371,3.371,0,1,0-2.248,0v9.183h-2.248v-5.058l-.672-.3a10.114,10.114,0,1,1,8.087,0l-.672.3v5.058Z" transform="translate(-876.323 -544.095)" fill="#fff"/>
    </g>
  </g>
</svg>
