<svg id="img5" xmlns="http://www.w3.org/2000/svg" xmlns:xlink="http://www.w3.org/1999/xlink" width="357.271" height="373.148" viewBox="0 0 357.271 373.148">
  <defs>
    <clipPath id="clip-path">
      <rect id="Rect치ngulo_36102" data-name="Rect치ngulo 36102" width="357.271" height="373.147" fill="none"/>
    </clipPath>
  </defs>
  <path id="Trazado_184711" data-name="Trazado 184711" d="M59.148,292.525,148.1,313.989l.04-117.024L59.188,175.5Z" transform="translate(19.938 59.158)" fill="#ffcb5c"/>
  <path id="Trazado_184712" data-name="Trazado 184712" d="M125.7,196.965l.04,117.024,88.947-21.464-.04-117.025Z" transform="translate(42.372 59.158)" fill="#ffbc2d"/>
  <path id="Trazado_184713" data-name="Trazado 184713" d="M59.178,177.777l88.948,21.466v-30.5Z" transform="translate(19.948 56.881)" fill="#e75e22"/>
  <path id="Trazado_184714" data-name="Trazado 184714" d="M214.665,177.777l-88.947,21.466v-30.5Z" transform="translate(42.377 56.881)" fill="#e96b34"/>
  <path id="Trazado_184715" data-name="Trazado 184715" d="M125.516,227.2l30.231-30.231L66.8,175.5,36.568,205.731Z" transform="translate(12.326 59.158)" fill="#ffd67e"/>
  <path id="Trazado_184716" data-name="Trazado 184716" d="M155.932,227.2,125.7,196.965,214.649,175.5l30.231,30.231Z" transform="translate(42.372 59.158)" fill="#ffd67e"/>
  <g id="Grupo_141223" data-name="Grupo 141223">
    <g id="Grupo_141222" data-name="Grupo 141222" clip-path="url(#clip-path)">
      <path id="Trazado_184717" data-name="Trazado 184717" d="M131.508,201.617a.668.668,0,0,1-.669-.669q0-1.326-.051-2.645a.668.668,0,0,1,.642-.7.687.687,0,0,1,.694.643q.052,1.346.052,2.7a.667.667,0,0,1-.669.669m-.467-8a.669.669,0,0,1-.663-.591q-.156-1.322-.361-2.627a.669.669,0,1,1,1.321-.21q.209,1.334.368,2.681a.667.667,0,0,1-.587.742.506.506,0,0,1-.078.005m-1.4-7.9a.67.67,0,0,1-.65-.515q-.3-1.288-.661-2.562a.668.668,0,0,1,1.288-.358q.363,1.3.674,2.611a.668.668,0,0,1-.5.8.623.623,0,0,1-.155.019m-2.289-7.672a.668.668,0,0,1-.628-.441q-.449-1.239-.943-2.466a.669.669,0,0,1,1.241-.5q.5,1.251.959,2.512a.667.667,0,0,1-.628.9m-3.123-7.369a.67.67,0,0,1-.6-.376q-.582-1.187-1.206-2.36a.669.669,0,0,1,1.181-.63q.636,1.2,1.226,2.4a.669.669,0,0,1-.306.895.68.68,0,0,1-.293.068m-3.887-7.01a.669.669,0,0,1-.568-.316q-.7-1.121-1.437-2.229a.669.669,0,0,1,1.112-.742q.75,1.125,1.46,2.266a.667.667,0,0,1-.567,1.02m-4.559-6.594a.666.666,0,0,1-.531-.263q-.8-1.051-1.643-2.083a.669.669,0,1,1,1.038-.844q.852,1.049,1.669,2.117a.668.668,0,0,1-.127.936.657.657,0,0,1-.405.138m-5.149-6.147a.667.667,0,0,1-.492-.217q-.895-.977-1.821-1.933a.669.669,0,0,1,.961-.931q.939.971,1.845,1.962a.668.668,0,0,1-.493,1.119m-5.657-5.683a.665.665,0,0,1-.453-.178q-.973-.9-1.974-1.778a.668.668,0,0,1,.881-1.006q1.017.891,2,1.8a.669.669,0,0,1-.455,1.159m-6.1-5.213a.662.662,0,0,1-.413-.144q-1.039-.82-2.1-1.622a.669.669,0,1,1,.8-1.07q1.081.81,2.131,1.643a.669.669,0,0,1-.416,1.193m-6.467-4.741a.666.666,0,0,1-.374-.115q-1.1-.744-2.217-1.468a.668.668,0,1,1,.725-1.123q1.135.732,2.242,1.486a.668.668,0,0,1-.376,1.221m-6.788-4.273a.665.665,0,0,1-.336-.09q-1.143-.668-2.312-1.314a.669.669,0,0,1,.647-1.17q1.181.654,2.339,1.328a.669.669,0,0,1-.338,1.246m-7.057-3.811a.664.664,0,0,1-.3-.071q-1.185-.592-2.392-1.162a.669.669,0,0,1,.572-1.209q1.217.576,2.417,1.175a.668.668,0,0,1-.3,1.266m-7.284-3.355a.659.659,0,0,1-.261-.053q-1.221-.517-2.46-1.013a.668.668,0,1,1,.5-1.241q1.254.5,2.486,1.023a.669.669,0,0,1-.261,1.285m-7.477-2.907a.649.649,0,0,1-.223-.039q-1.251-.443-2.516-.866a.668.668,0,1,1,.423-1.268q1.278.427,2.54.874a.668.668,0,0,1-.223,1.3m-7.633-2.464a.653.653,0,0,1-.187-.027q-1.274-.371-2.562-.721a.669.669,0,1,1,.35-1.29q1.3.351,2.586.727a.669.669,0,0,1-.187,1.31m-7.76-2.027a.61.61,0,0,1-.152-.019q-1.292-.3-2.6-.576a.669.669,0,0,1,.278-1.309q1.318.281,2.623.584a.669.669,0,0,1-.151,1.32m-7.859-1.6a.7.7,0,0,1-.116-.011q-1.308-.229-2.626-.436a.669.669,0,0,1,.207-1.321q1.332.209,2.65.44a.669.669,0,0,1-.115,1.328m-7.936-1.175q-.04,0-.08,0-1.318-.16-2.646-.3a.67.67,0,0,1-.6-.735.664.664,0,0,1,.734-.6q1.338.138,2.669.3a.668.668,0,0,1-.08,1.332m-7.985-.755h-.047q-1.324-.092-2.658-.16a.669.669,0,0,1,.07-1.336q1.344.07,2.68.162a.669.669,0,0,1-.044,1.336m-8.014-.345h-.012c-.884-.016-1.773-.024-2.662-.024a.669.669,0,0,1,0-1.337q1.346,0,2.685.024a.669.669,0,0,1-.012,1.337" transform="translate(4.476 37.49)" fill="#4b90da"/>
      <path id="Trazado_184718" data-name="Trazado 184718" d="M146.507,219.22a.669.669,0,0,1-.669-.669q0-1.342.009-2.679a.669.669,0,0,1,.669-.663h.005a.668.668,0,0,1,.663.673q-.01,1.334-.009,2.67a.669.669,0,0,1-.669.669m.08-8.022h-.013a.67.67,0,0,1-.655-.682q.024-1.342.062-2.679a.667.667,0,0,1,.669-.65h.017a.67.67,0,0,1,.651.686q-.036,1.33-.061,2.669a.67.67,0,0,1-.669.657m.235-8.02H146.8a.673.673,0,0,1-.643-.7q.054-1.342.116-2.678a.652.652,0,0,1,.7-.636.668.668,0,0,1,.635.7c-.041.888-.078,1.776-.114,2.667a.668.668,0,0,1-.669.643m.4-8.016h-.04a.669.669,0,0,1-.627-.707q.08-1.34.168-2.673a.68.68,0,0,1,.711-.623.669.669,0,0,1,.623.711q-.088,1.332-.168,2.666a.668.668,0,0,1-.667.627m.563-8-.055,0a.667.667,0,0,1-.612-.719q.108-1.338.225-2.67a.684.684,0,0,1,.725-.607.666.666,0,0,1,.607.725q-.116,1.328-.225,2.659a.666.666,0,0,1-.665.615m.726-7.992a.617.617,0,0,1-.07,0,.668.668,0,0,1-.6-.733q.136-1.336.281-2.666a.669.669,0,1,1,1.329.147q-.146,1.324-.281,2.654a.666.666,0,0,1-.663.6m.9-7.973a.59.59,0,0,1-.083-.005.669.669,0,0,1-.582-.746q.164-1.332.338-2.658a.669.669,0,0,1,1.326.175q-.174,1.318-.338,2.647a.669.669,0,0,1-.662.587m1.072-7.952a.591.591,0,0,1-.1-.008.667.667,0,0,1-.566-.757q.195-1.33.4-2.65a.668.668,0,0,1,1.321.2q-.2,1.316-.4,2.639a.669.669,0,0,1-.66.572m1.253-7.925a.675.675,0,0,1-.661-.781q.227-1.326.46-2.639a.668.668,0,0,1,1.316.233q-.233,1.312-.456,2.631a.67.67,0,0,1-.659.556m1.439-7.894a.7.7,0,0,1-.13-.012.671.671,0,0,1-.529-.785q.259-1.32.524-2.629a.669.669,0,0,1,1.31.269q-.265,1.3-.52,2.617a.67.67,0,0,1-.655.54m1.63-7.857a.78.78,0,0,1-.144-.015.669.669,0,0,1-.508-.8q.291-1.312.59-2.615a.669.669,0,1,1,1.3.3q-.3,1.3-.587,2.6a.669.669,0,0,1-.654.524m1.837-7.81a.679.679,0,0,1-.162-.02.67.67,0,0,1-.487-.81q.327-1.306.659-2.6a.669.669,0,0,1,1.3.334q-.333,1.288-.656,2.587a.67.67,0,0,1-.65.507m2.05-7.759a.705.705,0,0,1-.18-.024.67.67,0,0,1-.464-.824q.363-1.3.734-2.579a.669.669,0,0,1,1.285.373q-.371,1.276-.731,2.566a.669.669,0,0,1-.643.488m2.276-7.694a.653.653,0,0,1-.2-.031.668.668,0,0,1-.439-.837q.4-1.286.814-2.555a.668.668,0,1,1,1.272.412q-.407,1.264-.809,2.543a.667.667,0,0,1-.638.468m2.515-7.619a.676.676,0,0,1-.221-.037.666.666,0,0,1-.409-.85q.443-1.274.9-2.528a.668.668,0,1,1,1.256.455q-.449,1.248-.893,2.514a.666.666,0,0,1-.631.448m2.776-7.528a.676.676,0,0,1-.243-.045.667.667,0,0,1-.38-.865q.489-1.258.988-2.5a.669.669,0,0,1,1.241.5q-.5,1.229-.983,2.479a.67.67,0,0,1-.623.427m3.055-7.419a.668.668,0,0,1-.614-.935q.54-1.239,1.09-2.454A.668.668,0,1,1,171,90.9q-.546,1.205-1.079,2.435a.67.67,0,0,1-.614.4m3.36-7.286a.654.654,0,0,1-.294-.068.669.669,0,0,1-.308-.895q.594-1.213,1.2-2.4a.669.669,0,1,1,1.193.606q-.6,1.179-1.189,2.384a.67.67,0,0,1-.6.374m3.7-7.119a.667.667,0,0,1-.584-.992q.654-1.185,1.321-2.34a.668.668,0,1,1,1.157.669q-.66,1.145-1.308,2.318a.668.668,0,0,1-.586.345m4.073-6.91a.668.668,0,0,1-.566-1.026q.724-1.145,1.457-2.258a.668.668,0,1,1,1.115.735q-.726,1.1-1.441,2.237a.669.669,0,0,1-.566.312m4.493-6.644a.669.669,0,0,1-.54-1.062q.8-1.1,1.61-2.157a.668.668,0,0,1,1.06.814q-.8,1.043-1.588,2.129a.666.666,0,0,1-.541.275m4.969-6.294a.667.667,0,0,1-.507-1.1q.886-1.035,1.788-2.018a.668.668,0,1,1,.985.9c-.592.646-1.177,1.309-1.76,1.986a.664.664,0,0,1-.507.233m5.5-5.824a.669.669,0,0,1-.461-1.153q.985-.941,1.983-1.828a.669.669,0,1,1,.888,1q-.979.868-1.947,1.794a.667.667,0,0,1-.463.186m6.1-5.191a.669.669,0,0,1-.4-1.2q1.1-.818,2.2-1.568a.668.668,0,1,1,.749,1.106q-1.079.734-2.147,1.534a.671.671,0,0,1-.4.132m6.736-4.317a.668.668,0,0,1-.316-1.257q1.2-.646,2.419-1.213a.669.669,0,0,1,.564,1.213q-1.181.55-2.352,1.178a.669.669,0,0,1-.316.079m7.346-3.143a.669.669,0,0,1-.2-1.3c.861-.277,1.74-.527,2.61-.743a.669.669,0,0,1,.321,1.3c-.84.209-1.687.451-2.52.718a.689.689,0,0,1-.206.032m7.81-1.654a.668.668,0,0,1-.068-1.333c.9-.094,1.812-.155,2.713-.183a.677.677,0,0,1,.689.647.667.667,0,0,1-.647.689c-.869.028-1.749.087-2.615.178l-.071,0" transform="translate(49.159 12.755)" fill="#4b90da"/>
      <path id="Trazado_184719" data-name="Trazado 184719" d="M150.327,162.088c.076,14.735-17.349,39.7-19.46,39.717s-19.8-24.78-19.873-39.515,8.67-26.72,19.529-26.778,19.727,11.843,19.8,26.576" transform="translate(37.414 45.679)" fill="#ffcb5c"/>
      <path id="Trazado_184720" data-name="Trazado 184720" d="M129.182,192.086c-5.374-7.694-13.276-21.562-13.324-30.932-.074-13.614,7.679-22.344,13.05-22.371s13.206,8.62,13.28,22.236c.049,9.37-7.715,23.319-13.006,31.067" transform="translate(39.054 46.781)" fill="#ff9500"/>
      <path id="Trazado_184721" data-name="Trazado 184721" d="M116.578,88.316C105.8,92.8,94.159,103.377,92.817,153.907c8.736-5.868,25.062-22.853,25.062-22.853Z" transform="translate(31.287 29.77)" fill="#146ecf"/>
      <path id="Trazado_184722" data-name="Trazado 184722" d="M95.669,145.009c1.76-34.37,8.835-46.862,16.6-52.34l1.082,35.529c-2.812,2.876-10.866,11.006-17.679,16.811" transform="translate(32.248 31.237)" fill="#4b90da"/>
      <path id="Trazado_184723" data-name="Trazado 184723" d="M141.15,88.316c10.774,4.483,22.419,15.061,23.761,65.591-8.736-5.868-25.064-22.853-25.064-22.853Z" transform="translate(47.14 29.77)" fill="#146ecf"/>
      <path id="Trazado_184724" data-name="Trazado 184724" d="M160.2,145.009c-1.76-34.37-8.837-46.862-16.6-52.34L142.518,128.2c2.813,2.876,10.866,11.006,17.68,16.811" transform="translate(48.04 31.237)" fill="#4b90da"/>
      <path id="Trazado_184725" data-name="Trazado 184725" d="M178.837,91.931a50.581,50.581,0,1,0-80.726.053c15.536,20.612,18.722,29.648,17.194,40.15h46.3c-1.524-10.511,1.665-19.552,17.239-40.2Z" transform="translate(29.62 3.675)" fill="#ffcb5c"/>
      <path id="Trazado_184726" data-name="Trazado 184726" d="M132.213,134.3h0a1.966,1.966,0,0,1-1.8-1.158l1.8-.818-1.851.747c-14.192-31.117-29.394-70.923-21.1-83.814a9.564,9.564,0,0,1,8.512-4.372,23.156,23.156,0,0,1,13.85,4.4,24.557,24.557,0,0,1,14.424-4.553,9.821,9.821,0,0,1,8.71,4.483c9.31,14.513-11.407,63.533-20.749,83.934a1.946,1.946,0,0,1-1.793,1.15M117.771,48.847a5.567,5.567,0,0,0-5.165,2.557c-5.379,8.354,1.937,36.659,19.607,76.107,13.832-30.951,25.673-66.077,19.213-76.154a5.81,5.81,0,0,0-5.38-2.654,20.358,20.358,0,0,0-11.357,3.283c7,7.349,8.782,18.547,6.275,25.414-1.776,4.828-5.518,7.608-10.254,7.608-4.557,0-8.088-2.594-9.7-7.109-2.467-6.917-.222-18.361,7.481-25.967a19.108,19.108,0,0,0-10.721-3.083m13.8,5.624c-6.616,6.32-8.906,16.255-6.828,22.1,1.063,2.964,3.07,4.465,5.966,4.465,3.872,0,5.681-2.713,6.517-5,2.142-5.807.5-15.367-5.655-21.559" transform="translate(36.036 15.078)" fill="#ff9500"/>
      <path id="Trazado_184727" data-name="Trazado 184727" d="M107.8,123.638a23.94,23.94,0,1,1,23.946,23.943A23.943,23.943,0,0,1,107.8,123.638" transform="translate(36.336 33.608)" fill="#232374"/>
      <rect id="Rect치ngulo_36101" data-name="Rect치ngulo 36101" width="47.881" height="31.236" transform="translate(144.132 131.601)" fill="#232374"/>
      <path id="Trazado_184728" data-name="Trazado 184728" d="M156.434,100.905H107.529a1.984,1.984,0,0,1,0-3.968h48.905a1.984,1.984,0,1,1,0,3.968" transform="translate(35.579 32.676)" fill="#146ecf"/>
      <path id="Trazado_184729" data-name="Trazado 184729" d="M156.434,106.749H107.529a1.984,1.984,0,0,1,0-3.968h48.905a1.984,1.984,0,1,1,0,3.968" transform="translate(35.579 34.646)" fill="#146ecf"/>
      <path id="Trazado_184730" data-name="Trazado 184730" d="M156.434,112.59H107.529a1.984,1.984,0,0,1,0-3.967h48.905a1.984,1.984,0,1,1,0,3.967" transform="translate(35.579 36.615)" fill="#146ecf"/>
      <path id="Trazado_184731" data-name="Trazado 184731" d="M156.434,118.427H107.529a1.983,1.983,0,0,1,0-3.966h48.905a1.983,1.983,0,1,1,0,3.966" transform="translate(35.579 38.583)" fill="#146ecf"/>
      <path id="Trazado_184732" data-name="Trazado 184732" d="M156.434,124.274H107.529a1.986,1.986,0,0,1,0-3.972h48.905a1.986,1.986,0,1,1,0,3.972" transform="translate(35.579 40.552)" fill="#146ecf"/>
      <path id="Trazado_184733" data-name="Trazado 184733" d="M133.639,99.116l-4.466,43.911a1.671,1.671,0,0,1-3.324.015L121,99.171a6.353,6.353,0,1,1,12.629-1.395,6.6,6.6,0,0,1,.005,1.34" transform="translate(40.775 31.052)" fill="#146ecf"/>
      <path id="Trazado_184734" data-name="Trazado 184734" d="M153.965,182.915a.669.669,0,0,1-.669-.669c0-.449,0-.9.008-1.345a.642.642,0,0,1,.677-.66.669.669,0,0,1,.661.677c-.005.444-.008.885-.008,1.329a.669.669,0,0,1-.669.669" transform="translate(51.673 60.755)" fill="#4b90da"/>
      <path id="Trazado_184735" data-name="Trazado 184735" d="M154.115,202.541h-.04a.669.669,0,0,1-.627-.707q.08-1.326.2-2.642a.678.678,0,0,1,.723-.608.669.669,0,0,1,.608.723q-.114,1.3-.194,2.607a.668.668,0,0,1-.667.628m.777-7.853a.518.518,0,0,1-.091-.007.668.668,0,0,1-.572-.751q.179-1.316.39-2.619a.668.668,0,1,1,1.318.214c-.138.86-.266,1.719-.385,2.586a.668.668,0,0,1-.661.578m1.361-7.775a.744.744,0,0,1-.142-.015.67.67,0,0,1-.513-.794q.277-1.3.586-2.581a.663.663,0,0,1,.806-.5.67.67,0,0,1,.495.806q-.3,1.27-.579,2.55a.669.669,0,0,1-.652.529m1.937-7.651a.713.713,0,0,1-.189-.027.668.668,0,0,1-.452-.83q.373-1.278.782-2.54a.668.668,0,0,1,1.272.41q-.4,1.247-.771,2.507a.67.67,0,0,1-.642.48m2.518-7.5a.671.671,0,0,1-.626-.905q.473-1.243.972-2.474a.668.668,0,0,1,1.237.5q-.493,1.215-.957,2.442a.67.67,0,0,1-.626.433m3.074-7.288a.655.655,0,0,1-.282-.061.666.666,0,0,1-.324-.888q.562-1.205,1.151-2.392a.669.669,0,0,1,1.2.594q-.582,1.175-1.138,2.361a.668.668,0,0,1-.606.386m3.613-7.032a.659.659,0,0,1-.328-.086.67.67,0,0,1-.255-.911q.65-1.157,1.329-2.3a.669.669,0,1,1,1.149.685q-.67,1.123-1.313,2.266a.665.665,0,0,1-.582.341m4.128-6.738a.668.668,0,0,1-.556-1.039q.734-1.1,1.495-2.187a.668.668,0,1,1,1.094.767q-.752,1.069-1.476,2.161a.668.668,0,0,1-.556.3m4.617-6.409a.668.668,0,0,1-.528-1.079q.814-1.045,1.654-2.07a.668.668,0,1,1,1.034.846q-.826,1.013-1.633,2.044a.664.664,0,0,1-.527.258m5.081-6.044a.669.669,0,0,1-.5-1.118q.888-.983,1.8-1.941a.67.67,0,0,1,.969.924q-.9.945-1.78,1.915a.669.669,0,0,1-.5.221m5.514-5.648a.669.669,0,0,1-.461-1.154q.959-.911,1.94-1.8a.669.669,0,1,1,.9.991q-.969.878-1.917,1.778a.663.663,0,0,1-.46.185m5.915-5.221a.668.668,0,0,1-.424-1.185q1.023-.838,2.068-1.651a.668.668,0,0,1,.82,1.055q-1.029.8-2.042,1.63a.666.666,0,0,1-.423.151m6.286-4.764a.668.668,0,0,1-.384-1.215q1.083-.758,2.185-1.491a.668.668,0,1,1,.739,1.114q-1.089.722-2.157,1.471a.66.66,0,0,1-.384.122m6.621-4.279a.669.669,0,0,1-.342-1.243q1.135-.676,2.289-1.322a.669.669,0,1,1,.655,1.166q-1.139.638-2.26,1.3a.665.665,0,0,1-.342.095m6.919-3.773a.669.669,0,0,1-.3-1.268q1.181-.588,2.379-1.147a.669.669,0,0,1,.567,1.211q-1.183.554-2.351,1.134a.671.671,0,0,1-.3.07m7.177-3.242a.668.668,0,0,1-.253-1.286q1.221-.5,2.458-.965a.668.668,0,1,1,.473,1.25q-1.223.463-2.427.952a.643.643,0,0,1-.251.049m7.409-2.7a.669.669,0,0,1-.2-1.3q1.258-.4,2.53-.78a.668.668,0,0,1,.378,1.282q-1.256.371-2.5.77a.641.641,0,0,1-.2.032m7.6-2.133a.668.668,0,0,1-.158-1.318q1.286-.309,2.583-.587a.668.668,0,1,1,.279,1.306c-.854.183-1.7.377-2.549.58a.633.633,0,0,1-.156.019m7.736-1.556a.669.669,0,0,1-.106-1.329q1.3-.213,2.617-.392a.669.669,0,0,1,.183,1.325q-1.3.176-2.586.386a.6.6,0,0,1-.108.009m7.831-.973a.668.668,0,0,1-.056-1.334q1.316-.114,2.642-.2a.68.68,0,0,1,.707.627.669.669,0,0,1-.627.709q-1.306.08-2.607.193a.434.434,0,0,1-.059,0" transform="translate(51.724 34.529)" fill="#4b90da"/>
      <path id="Trazado_184736" data-name="Trazado 184736" d="M231.925,103.626a.669.669,0,0,1-.009-1.337q.672-.008,1.346-.008a.669.669,0,0,1,0,1.337c-.444,0-.885,0-1.328.008Z" transform="translate(77.952 34.477)" fill="#4b90da"/>
      <path id="Trazado_184737" data-name="Trazado 184737" d="M167.65,179.02a.669.669,0,0,1-.669-.669q0-.678.015-1.352a.668.668,0,0,1,.669-.654h.013a.669.669,0,0,1,.655.683c-.009.439-.015.881-.015,1.322a.669.669,0,0,1-.669.669" transform="translate(56.286 59.443)" fill="#4b90da"/>
      <path id="Trazado_184738" data-name="Trazado 184738" d="M167.92,187.4a.678.678,0,0,1-.074,0,.669.669,0,0,1-.592-.737q.146-1.354.352-2.69a.668.668,0,1,1,1.321.2q-.2,1.306-.344,2.631a.667.667,0,0,1-.663.6m1.383-7.925a.712.712,0,0,1-.158-.017.671.671,0,0,1-.492-.809q.321-1.322.7-2.622a.669.669,0,1,1,1.285.374q-.369,1.27-.685,2.565a.668.668,0,0,1-.65.509m2.413-7.676a.668.668,0,0,1-.623-.909q.491-1.27,1.039-2.512a.669.669,0,1,1,1.225.538q-.534,1.215-1.018,2.458a.669.669,0,0,1-.623.426m3.4-7.3a.668.668,0,0,1-.587-.991q.656-1.191,1.36-2.352a.669.669,0,1,1,1.143.7q-.69,1.135-1.33,2.3a.671.671,0,0,1-.586.346m4.328-6.787a.667.667,0,0,1-.539-1.064q.8-1.1,1.651-2.15a.669.669,0,0,1,1.044.836q-.83,1.033-1.618,2.106a.666.666,0,0,1-.539.273m5.175-6.163a.66.66,0,0,1-.461-.185.668.668,0,0,1-.021-.945c.626-.654,1.265-1.3,1.917-1.919a.669.669,0,1,1,.925.965c-.64.611-1.264,1.24-1.876,1.876a.669.669,0,0,1-.484.207m5.929-5.441a.667.667,0,0,1-.42-1.187q1.057-.85,2.151-1.654a.669.669,0,0,1,.792,1.078q-1.073.786-2.1,1.617a.666.666,0,0,1-.419.147m6.587-4.62a.667.667,0,0,1-.348-1.238q1.155-.706,2.347-1.357a.668.668,0,0,1,.642,1.173c-.775.424-1.539.868-2.294,1.325a.658.658,0,0,1-.346.1m7.131-3.72a.668.668,0,0,1-.27-1.28q1.236-.543,2.5-1.038a.669.669,0,0,1,.485,1.247q-1.235.481-2.447,1.012a.644.644,0,0,1-.269.058m7.555-2.749a.669.669,0,0,1-.187-1.312c.866-.253,1.74-.484,2.622-.7a.669.669,0,0,1,.317,1.3q-1.294.315-2.565.686a.655.655,0,0,1-.187.028m7.854-1.738a.668.668,0,0,1-.1-1.328q1.338-.207,2.69-.352a.668.668,0,1,1,.144,1.329q-1.324.142-2.631.342a.682.682,0,0,1-.1.008" transform="translate(56.377 44.363)" fill="#4b90da"/>
      <path id="Trazado_184739" data-name="Trazado 184739" d="M212.663,132.686a.669.669,0,0,1-.015-1.337c.448-.009.9-.015,1.352-.015a.669.669,0,1,1,0,1.337q-.662,0-1.322.015Z" transform="translate(71.459 44.27)" fill="#4b90da"/>
      <path id="Trazado_184740" data-name="Trazado 184740" d="M97.552,221.675a.669.669,0,0,1-.669-.669l-.005-2.671a.669.669,0,0,1,.666-.671h0a.668.668,0,0,1,.669.666l.005,2.677a.669.669,0,0,1-.669.669m-.049-8.024a.67.67,0,0,1-.669-.66l-.037-2.671a.668.668,0,0,1,.656-.679h.012a.67.67,0,0,1,.669.658l.037,2.677a.669.669,0,0,1-.659.677Zm-.15-8.022a.67.67,0,0,1-.669-.651l-.072-2.671a.67.67,0,0,1,.65-.689.661.661,0,0,1,.687.648l.072,2.677a.668.668,0,0,1-.652.686Zm-.251-8.02a.669.669,0,0,1-.667-.644l-.107-2.669a.67.67,0,0,1,.64-.7.684.684,0,0,1,.7.64l.106,2.674a.668.668,0,0,1-.642.694Zm-.354-8.017a.669.669,0,0,1-.667-.635c-.045-.892-.091-1.781-.142-2.667a.669.669,0,0,1,.631-.7.656.656,0,0,1,.7.63c.051.888.1,1.781.143,2.674a.669.669,0,0,1-.634.7h-.035m-.46-8.01a.669.669,0,0,1-.667-.626l-.178-2.666a.669.669,0,0,1,1.334-.091l.178,2.67a.669.669,0,0,1-.624.711h-.043m-.57-8.005a.668.668,0,0,1-.666-.616l-.215-2.662a.669.669,0,1,1,1.333-.11l.215,2.667a.669.669,0,0,1-.614.719h-.053m-.681-7.994a.669.669,0,0,1-.666-.607q-.122-1.334-.253-2.659a.668.668,0,0,1,1.33-.131q.13,1.33.254,2.667a.669.669,0,0,1-.6.727l-.061,0m-.8-7.985a.669.669,0,0,1-.665-.6l-.293-2.655a.669.669,0,1,1,1.329-.148l.293,2.661a.669.669,0,0,1-.592.737.692.692,0,0,1-.072,0m-.921-7.972a.67.67,0,0,1-.663-.587q-.164-1.332-.334-2.65a.669.669,0,1,1,1.326-.171q.17,1.324.336,2.658a.668.668,0,0,1-.582.745.577.577,0,0,1-.083.005m-1.048-7.956a.669.669,0,0,1-.662-.575l-.378-2.645a.668.668,0,0,1,1.322-.194l.38,2.651a.667.667,0,0,1-.568.755.56.56,0,0,1-.094.007m-1.185-7.936a.671.671,0,0,1-.661-.564q-.209-1.326-.425-2.638a.669.669,0,0,1,1.32-.217q.215,1.318.427,2.645a.668.668,0,0,1-.556.765.56.56,0,0,1-.1.009m-1.332-7.914a.669.669,0,0,1-.658-.551q-.235-1.322-.477-2.627a.669.669,0,0,1,1.316-.243q.241,1.31.479,2.635a.669.669,0,0,1-.542.776.585.585,0,0,1-.118.011m-1.488-7.886a.667.667,0,0,1-.654-.538q-.265-1.316-.534-2.617a.668.668,0,1,1,1.309-.271q.271,1.3.535,2.626a.669.669,0,0,1-.524.786.645.645,0,0,1-.132.013m-1.659-7.85a.668.668,0,0,1-.651-.524q-.295-1.31-.594-2.6a.668.668,0,1,1,1.3-.3q.3,1.3.595,2.614a.666.666,0,0,1-.507.8.6.6,0,0,1-.146.017m-1.851-7.809a.668.668,0,0,1-.647-.507q-.327-1.3-.662-2.585a.669.669,0,0,1,1.294-.337q.335,1.286.665,2.6a.669.669,0,0,1-.65.832M82.69,94.52a.67.67,0,0,1-.643-.487q-.365-1.3-.738-2.563a.668.668,0,0,1,1.282-.378q.375,1.278.743,2.578a.669.669,0,0,1-.644.85m-2.308-7.686a.668.668,0,0,1-.636-.464q-.409-1.284-.828-2.535a.668.668,0,1,1,1.268-.424q.421,1.262.833,2.551a.667.667,0,0,1-.433.84.632.632,0,0,1-.2.032m-2.6-7.593a.669.669,0,0,1-.628-.439q-.461-1.266-.933-2.495a.668.668,0,1,1,1.247-.48q.475,1.239.943,2.515a.67.67,0,0,1-.4.858.689.689,0,0,1-.23.04m-2.942-7.464a.67.67,0,0,1-.615-.408q-.529-1.241-1.066-2.439a.668.668,0,1,1,1.219-.547q.544,1.209,1.076,2.463a.668.668,0,0,1-.615.931M71.475,64.5a.671.671,0,0,1-.6-.366q-.61-1.205-1.231-2.352a.668.668,0,1,1,1.175-.636q.632,1.161,1.25,2.384a.669.669,0,0,1-.6.971M67.541,57.51a.666.666,0,0,1-.566-.312q-.722-1.145-1.455-2.212a.668.668,0,0,1,1.1-.757q.748,1.087,1.483,2.256a.668.668,0,0,1-.564,1.024m-4.7-6.485a.667.667,0,0,1-.511-.237q-.872-1.029-1.76-1.948a.668.668,0,1,1,.96-.929q.919.949,1.82,2.014a.669.669,0,0,1-.509,1.1m-5.788-5.5a.672.672,0,0,1-.393-.127A22.279,22.279,0,0,0,54.491,44a.669.669,0,0,1,.658-1.165,23.7,23.7,0,0,1,2.3,1.484.668.668,0,0,1-.394,1.209m-7.161-3.359a.646.646,0,0,1-.142-.015,14.278,14.278,0,0,0-2.523-.316.669.669,0,1,1,.045-1.337,15.8,15.8,0,0,1,2.76.345.669.669,0,0,1-.14,1.322" transform="translate(15.702 13.651)" fill="#4b90da"/>
      <path id="Trazado_184741" data-name="Trazado 184741" d="M189.292,126.731a6.23,6.23,0,0,0,7.211-5.057q.947,1.352,1.9,2.706a6.229,6.229,0,0,1-7.208,5.057q-.949-1.354-1.9-2.706" transform="translate(63.807 41.014)" fill="#ffcb5c"/>
      <path id="Trazado_184742" data-name="Trazado 184742" d="M138.861,182.268a6.23,6.23,0,0,0,7.211-5.057l1.9,2.7a6.229,6.229,0,0,1-7.208,5.058q-.949-1.354-1.9-2.706" transform="translate(46.808 59.735)" fill="#ffcb5c"/>
      <path id="Trazado_184743" data-name="Trazado 184743" d="M219.651,84.383a6.228,6.228,0,0,0,8.243,3.1q-.582,1.548-1.166,3.094a6.228,6.228,0,0,1-8.242-3.1q.586-1.546,1.165-3.093" transform="translate(73.648 28.444)" fill="#146ecf"/>
      <path id="Trazado_184744" data-name="Trazado 184744" d="M204.246,70.043a6.225,6.225,0,0,0-5.1-7.175l2.693-1.916a6.229,6.229,0,0,1,5.106,7.173l-2.694,1.917" transform="translate(67.127 20.546)" fill="#ffbc2d"/>
      <path id="Trazado_184745" data-name="Trazado 184745" d="M62.134,83.916a6.224,6.224,0,0,0-5.1-7.175l2.693-1.916A6.228,6.228,0,0,1,64.828,82l-2.694,1.917" transform="translate(19.223 25.222)" fill="#e75e22"/>
      <path id="Trazado_184746" data-name="Trazado 184746" d="M103.858,149.686a6.224,6.224,0,0,0-5.1-7.175l2.693-1.917a6.23,6.23,0,0,1,5.106,7.175q-1.346.959-2.694,1.917" transform="translate(33.288 47.392)" fill="#e75e22"/>
      <path id="Trazado_184747" data-name="Trazado 184747" d="M235.668,53.551a6.226,6.226,0,0,0,7.377-4.811l1.805,2.769a6.227,6.227,0,0,1-7.374,4.811q-.907-1.384-1.808-2.769" transform="translate(79.439 16.429)" fill="#e75e22"/>
      <path id="Trazado_184748" data-name="Trazado 184748" d="M60.975,163a6.225,6.225,0,0,0-8.016-3.648l1.369-3.008a6.229,6.229,0,0,1,8.016,3.646L60.975,163" transform="translate(17.852 52.565)" fill="#ffbc2d"/>
      <path id="Trazado_184749" data-name="Trazado 184749" d="M36.34,85.277a6.225,6.225,0,0,0-8.016-3.648l1.369-3.008a6.229,6.229,0,0,1,8.016,3.646l-1.369,3.01" transform="translate(9.548 26.368)" fill="#4b90da"/>
      <path id="Trazado_184750" data-name="Trazado 184750" d="M67.872,112.844a6.225,6.225,0,0,0,6.643,5.779c-.723.833-1.448,1.662-2.17,2.5a6.23,6.23,0,0,1-6.643-5.784q1.085-1.243,2.17-2.491" transform="translate(22.147 38.038)" fill="#ff9500"/>
      <path id="Trazado_184751" data-name="Trazado 184751" d="M78.714,68a6.227,6.227,0,0,0,5.311-7.025l2.635,1.994A6.227,6.227,0,0,1,81.351,70Q80.033,69,78.714,68" transform="translate(26.533 20.555)" fill="#232374"/>
      <path id="Trazado_184752" data-name="Trazado 184752" d="M184.674,35.525c-4.418.122-1.242,6.619-5.66,6.744q-1.266-1.063-2.532-2.126c4.419-.123,1.243-6.62,5.661-6.744q1.266,1.063,2.531,2.126" transform="translate(59.489 11.258)" fill="#ffbc2d"/>
      <path id="Trazado_184753" data-name="Trazado 184753" d="M190.909,163.4c-4.3-1.019-2.907,6.077-7.208,5.06q-.949-1.354-1.9-2.706c4.3,1.018,2.907-6.077,7.21-5.058l1.9,2.7" transform="translate(61.282 54.135)" fill="#ff9500"/>
      <path id="Trazado_184754" data-name="Trazado 184754" d="M94.01,169.605c-3.036,3.212,3.8,5.565.765,8.774-1.1.095-2.194.193-3.292.285,3.038-3.209-3.8-5.56-.765-8.771q1.647-.14,3.292-.287" transform="translate(30.311 57.171)" fill="#232374"/>
      <path id="Trazado_184755" data-name="Trazado 184755" d="M168.379,4.155c-4.324.919-.032,6.74-4.355,7.656-.956-.546-1.916-1.09-2.872-1.637,4.323-.916.028-6.735,4.354-7.653q1.436.82,2.873,1.634" transform="translate(54.321 0.85)" fill="#146ecf"/>
      <path id="Trazado_184756" data-name="Trazado 184756" d="M62.951,18.054c2.127,3.875,6.462-1.913,8.587,1.961-.247,1.072-.491,2.149-.738,3.222-2.125-3.875-6.458,1.915-8.584-1.96.247-1.076.491-2.149.735-3.224" transform="translate(20.972 6.086)" fill="#e75e22"/>
      <path id="Trazado_184757" data-name="Trazado 184757" d="M215.62,37.907a.724.724,0,0,1-.226-1.318l5.318-3.351a.724.724,0,0,1,.772,1.225l-5.316,3.351a.724.724,0,0,1-.547.094" transform="translate(72.492 11.167)" fill="#4b90da"/>
      <path id="Trazado_184758" data-name="Trazado 184758" d="M213.525,37.509a.726.726,0,0,1-.563-.678l-.242-6.274a.724.724,0,0,1,.7-.753.733.733,0,0,1,.75.7l.241,6.272a.721.721,0,0,1-.694.75.875.875,0,0,1-.188-.016" transform="translate(71.704 10.047)" fill="#4b90da"/>
      <path id="Trazado_184759" data-name="Trazado 184759" d="M212.8,37.961a.739.739,0,0,1-.176-.064l-5.554-2.924a.725.725,0,0,1-.3-.979.74.74,0,0,1,.977-.306l5.554,2.927a.724.724,0,0,1-.5,1.346" transform="translate(69.67 11.33)" fill="#4b90da"/>
      <path id="Trazado_184760" data-name="Trazado 184760" d="M207.525,43.009a.724.724,0,0,1-.226-1.318l5.312-3.348a.724.724,0,1,1,.771,1.225l-5.312,3.348a.715.715,0,0,1-.546.094" transform="translate(69.763 12.887)" fill="#4b90da"/>
      <path id="Trazado_184761" data-name="Trazado 184761" d="M213.9,47.071a.727.727,0,0,1-.563-.678l-.242-6.274a.723.723,0,1,1,1.445-.055l.243,6.274a.722.722,0,0,1-.7.749.811.811,0,0,1-.189-.016" transform="translate(71.829 13.27)" fill="#4b90da"/>
      <path id="Trazado_184762" data-name="Trazado 184762" d="M221.268,42.423a.842.842,0,0,1-.178-.066l-5.549-2.926a.719.719,0,0,1-.3-.979.73.73,0,0,1,.976-.3l5.55,2.923a.724.724,0,0,1-.5,1.348" transform="translate(72.524 12.833)" fill="#4b90da"/>
      <path id="Trazado_184763" data-name="Trazado 184763" d="M8.934,112.153a.724.724,0,0,1-.226-1.318l5.318-3.351a.724.724,0,0,1,.771,1.225l-5.316,3.351a.724.724,0,0,1-.547.094" transform="translate(2.821 36.194)" fill="#4b90da"/>
      <path id="Trazado_184764" data-name="Trazado 184764" d="M6.839,111.754a.726.726,0,0,1-.563-.678L6.034,104.8a.723.723,0,1,1,1.445-.055l.242,6.272a.721.721,0,0,1-.694.75.875.875,0,0,1-.189-.016" transform="translate(2.034 35.073)" fill="#4b90da"/>
      <path id="Trazado_184765" data-name="Trazado 184765" d="M6.118,112.206a.727.727,0,0,1-.178-.064L.388,109.218a.724.724,0,0,1-.3-.979.739.739,0,0,1,.976-.306l5.554,2.927a.723.723,0,0,1-.5,1.346" transform="translate(0 36.357)" fill="#4b90da"/>
      <path id="Trazado_184766" data-name="Trazado 184766" d="M.839,117.255a.724.724,0,0,1-.226-1.318l5.312-3.348a.724.724,0,1,1,.771,1.225l-5.312,3.348a.715.715,0,0,1-.546.094" transform="translate(0.093 37.914)" fill="#4b90da"/>
      <path id="Trazado_184767" data-name="Trazado 184767" d="M7.209,121.316a.727.727,0,0,1-.563-.678L6.4,114.365a.723.723,0,1,1,1.445-.055l.243,6.274a.722.722,0,0,1-.7.749.81.81,0,0,1-.189-.016" transform="translate(2.159 38.297)" fill="#4b90da"/>
      <path id="Trazado_184768" data-name="Trazado 184768" d="M14.582,116.669a.843.843,0,0,1-.178-.066l-5.549-2.927a.719.719,0,0,1-.3-.979.733.733,0,0,1,.976-.3l5.55,2.924a.724.724,0,0,1-.5,1.348" transform="translate(2.854 37.86)" fill="#4b90da"/>
      <path id="Trazado_184769" data-name="Trazado 184769" d="M183.242,91.2a.724.724,0,0,1-.226-1.318l5.318-3.351a.724.724,0,0,1,.772,1.225l-5.316,3.351a.724.724,0,0,1-.547.094" transform="translate(61.578 29.131)" fill="#4b90da"/>
      <path id="Trazado_184770" data-name="Trazado 184770" d="M181.147,90.8a.726.726,0,0,1-.563-.678l-.242-6.274a.725.725,0,0,1,.7-.753.733.733,0,0,1,.75.7l.241,6.272a.721.721,0,0,1-.694.75.876.876,0,0,1-.189-.016" transform="translate(60.79 28.011)" fill="#4b90da"/>
      <path id="Trazado_184771" data-name="Trazado 184771" d="M180.426,91.255a.739.739,0,0,1-.176-.064L174.7,88.267a.725.725,0,0,1-.3-.979.74.74,0,0,1,.977-.306l5.554,2.927a.724.724,0,0,1-.5,1.346" transform="translate(58.756 29.295)" fill="#4b90da"/>
      <path id="Trazado_184772" data-name="Trazado 184772" d="M175.147,96.3a.724.724,0,0,1-.226-1.318l5.312-3.348A.724.724,0,1,1,181,92.862l-5.312,3.348a.715.715,0,0,1-.546.094" transform="translate(58.849 30.851)" fill="#4b90da"/>
      <path id="Trazado_184773" data-name="Trazado 184773" d="M181.517,100.366a.727.727,0,0,1-.563-.678l-.242-6.274a.723.723,0,1,1,1.445-.055l.243,6.274a.722.722,0,0,1-.7.749.812.812,0,0,1-.189-.016" transform="translate(60.915 31.235)" fill="#4b90da"/>
      <path id="Trazado_184774" data-name="Trazado 184774" d="M188.89,95.718a.842.842,0,0,1-.178-.066l-5.549-2.927a.719.719,0,0,1-.3-.979.733.733,0,0,1,.976-.3l5.55,2.924a.724.724,0,0,1-.5,1.348" transform="translate(61.61 30.798)" fill="#4b90da"/>
      <path id="Trazado_184775" data-name="Trazado 184775" d="M222.472,132.374a.724.724,0,0,1-.226-1.318l5.318-3.351a.724.724,0,0,1,.771,1.225l-5.316,3.351a.724.724,0,0,1-.547.094" transform="translate(74.801 43.01)" fill="#4b90da"/>
      <path id="Trazado_184776" data-name="Trazado 184776" d="M220.377,131.976a.726.726,0,0,1-.563-.678l-.242-6.274a.724.724,0,0,1,.7-.753.733.733,0,0,1,.75.7l.241,6.272a.721.721,0,0,1-.694.75.875.875,0,0,1-.189-.016" transform="translate(74.014 41.89)" fill="#4b90da"/>
      <path id="Trazado_184777" data-name="Trazado 184777" d="M219.655,132.428a.737.737,0,0,1-.176-.064l-5.554-2.924a.726.726,0,0,1-.3-.979.74.74,0,0,1,.977-.306l5.554,2.927a.724.724,0,0,1-.5,1.346" transform="translate(71.98 43.173)" fill="#4b90da"/>
      <path id="Trazado_184778" data-name="Trazado 184778" d="M214.376,137.476a.724.724,0,0,1-.226-1.318l5.312-3.348a.724.724,0,1,1,.771,1.225l-5.312,3.348a.715.715,0,0,1-.546.094" transform="translate(72.072 44.73)" fill="#4b90da"/>
      <path id="Trazado_184779" data-name="Trazado 184779" d="M220.747,141.538a.727.727,0,0,1-.563-.678l-.242-6.274a.727.727,0,0,1,.7-.753.736.736,0,0,1,.75.7l.242,6.274a.722.722,0,0,1-.7.749.812.812,0,0,1-.189-.016" transform="translate(74.138 45.113)" fill="#4b90da"/>
      <path id="Trazado_184780" data-name="Trazado 184780" d="M228.12,136.89a.844.844,0,0,1-.178-.066l-5.549-2.927a.719.719,0,0,1-.3-.979.733.733,0,0,1,.976-.3l5.55,2.924a.724.724,0,0,1-.5,1.348" transform="translate(74.834 44.676)" fill="#4b90da"/>
      <path id="Trazado_184781" data-name="Trazado 184781" d="M239.984,102.808l-4.1-6.351,41.868,2.924Z" transform="translate(79.514 32.514)" fill="#f9a200"/>
      <path id="Trazado_184782" data-name="Trazado 184782" d="M238.952,112.489V102.07l37.773-3.426Z" transform="translate(80.546 33.251)" fill="#f98200"/>
      <path id="Trazado_184783" data-name="Trazado 184783" d="M240.264,105.246l4.6,7.688,31.42-14.289Z" transform="translate(80.989 33.251)" fill="#f9a200"/>
      <path id="Trazado_184784" data-name="Trazado 184784" d="M238.952,110.824l1.754-7.243L243.943,109Z" transform="translate(80.546 34.915)" fill="#e75e22"/>
      <path id="Trazado_184785" data-name="Trazado 184785" d="M53.95,38.6q2.048-3.02,4.1-6.192c-13.956.973-27.912-3.9-41.868-2.928,12.59,1.142,25.181,7.046,37.773,9.12" transform="translate(5.453 9.893)" fill="#f9a200"/>
      <path id="Trazado_184786" data-name="Trazado 184786" d="M53.95,48.984V38.566c-12.591-2.074-25.183-7.98-37.773-9.122,12.59,4.614,25.181,13.994,37.773,19.54" transform="translate(5.453 9.925)" fill="#f98200"/>
      <path id="Trazado_184787" data-name="Trazado 184787" d="M52.195,41.589q-2.3,3.612-4.6,7.088c-10.473-6.409-20.947-14.469-31.42-19.233,12,2.2,24.011,8.734,36.017,12.145" transform="translate(5.453 9.925)" fill="#f9a200"/>
      <path id="Trazado_184788" data-name="Trazado 184788" d="M45.685,45.923q-.876-3.686-1.754-7.4-1.621,2.543-3.237,5.017c1.663.848,3.327,1.647,4.991,2.38" transform="translate(13.717 12.986)" fill="#e75e22"/>
      <path id="Trazado_184789" data-name="Trazado 184789" d="M36.193,134.715a3.371,3.371,0,1,1,3.371-3.371,3.375,3.375,0,0,1-3.371,3.371m0-5.4a2.034,2.034,0,1,0,2.034,2.034,2.035,2.035,0,0,0-2.034-2.034" transform="translate(11.064 43.137)" fill="#e75e22"/>
      <path id="Trazado_184790" data-name="Trazado 184790" d="M99.937,6.742a3.371,3.371,0,1,1,3.371-3.371,3.375,3.375,0,0,1-3.371,3.371m0-5.4a2.034,2.034,0,1,0,2.034,2.034,2.035,2.035,0,0,0-2.034-2.034" transform="translate(32.551)" fill="#e75e22"/>
      <path id="Trazado_184791" data-name="Trazado 184791" d="M53.81,105.792a3.371,3.371,0,1,1,3.371-3.371,3.375,3.375,0,0,1-3.371,3.371m0-5.4a2.034,2.034,0,1,0,2.034,2.034,2.035,2.035,0,0,0-2.034-2.034" transform="translate(17.002 33.388)" fill="#232374"/>
      <path id="Trazado_184792" data-name="Trazado 184792" d="M214.57,159.06a3.37,3.37,0,1,1,3.372-3.371,3.374,3.374,0,0,1-3.372,3.371m0-5.4a2.033,2.033,0,1,0,2.035,2.032,2.034,2.034,0,0,0-2.035-2.032" transform="translate(71.192 51.344)" fill="#232374"/>
      <path id="Trazado_184793" data-name="Trazado 184793" d="M77.543,35.007a3.371,3.371,0,1,1,3.371-3.371,3.375,3.375,0,0,1-3.371,3.371m0-5.4a2.034,2.034,0,1,0,2.034,2.034A2.035,2.035,0,0,0,77.543,29.6" transform="translate(25.002 9.528)" fill="#4b90da"/>
      <path id="Trazado_184794" data-name="Trazado 184794" d="M245.556,131.816a3.371,3.371,0,1,1,3.371-3.371,3.374,3.374,0,0,1-3.371,3.371m0-5.4a2.034,2.034,0,1,0,2.034,2.034,2.034,2.034,0,0,0-2.034-2.034" transform="translate(81.637 42.16)" fill="#4b90da"/>
      <path id="Trazado_184795" data-name="Trazado 184795" d="M11.934,52.961A3.371,3.371,0,1,1,15.3,49.59a3.375,3.375,0,0,1-3.371,3.371m0-5.4a2.034,2.034,0,1,0,2.034,2.034,2.035,2.035,0,0,0-2.034-2.034" transform="translate(2.886 15.58)" fill="#ffbc2d"/>
      <path id="Trazado_184796" data-name="Trazado 184796" d="M207.536,15.122a3.371,3.371,0,1,1,3.371-3.371,3.374,3.374,0,0,1-3.371,3.371m0-5.4a2.034,2.034,0,1,0,2.034,2.034,2.035,2.035,0,0,0-2.034-2.034" transform="translate(68.82 2.825)" fill="#ffbc2d"/>
    </g>
  </g>
</svg>
