<svg xmlns="http://www.w3.org/2000/svg" xmlns:xlink="http://www.w3.org/1999/xlink" width="505" height="307.934" viewBox="0 0 505 307.934">
  <defs>
    <clipPath id="clip-path">
      <rect id="Rectángulo_36106" data-name="Rectángulo 36106" width="243.644" height="307.934" fill="none"/>
    </clipPath>
    <clipPath id="clip-path-2">
      <rect id="Rectángulo_36105" data-name="Rectángulo 36105" width="243.644" height="307.935" fill="none"/>
    </clipPath>
    <clipPath id="clip-path-3">
      <rect id="Rectángulo_36104" data-name="Rectángulo 36104" width="122.171" height="285.222" fill="none"/>
    </clipPath>
    <clipPath id="clip-path-4">
      <rect id="Rectángulo_36109" data-name="Rectángulo 36109" width="242.689" height="307.934" fill="none"/>
    </clipPath>
    <clipPath id="clip-path-5">
      <rect id="Rectángulo_36108" data-name="Rectángulo 36108" width="242.689" height="307.935" fill="none"/>
    </clipPath>
    <clipPath id="clip-path-6">
      <rect id="Rectángulo_36107" data-name="Rectángulo 36107" width="143.287" height="295.273" fill="none"/>
    </clipPath>
  </defs>
  <g id="img7" transform="translate(-2625 6851.934)">
    <g id="Grupo_141259" data-name="Grupo 141259" transform="translate(2625 -6851.934)">
      <g id="Grupo_141230" data-name="Grupo 141230" clip-path="url(#clip-path)">
        <g id="Grupo_141229" data-name="Grupo 141229" transform="translate(0 0)">
          <g id="Grupo_141228" data-name="Grupo 141228" clip-path="url(#clip-path-2)">
            <path id="Trazado_184800" data-name="Trazado 184800" d="M118.322,893.861c4.319-5.793,11.071-11.788,19.767-17.646l0,0c17.466-11.769,42.764-22.982,71.889-30.916,31.809-8.665,61.677-11.638,83.294-9.335a92.7,92.7,0,0,1,11.335,1.865l0,0c7.288,1.71,13.074,4.243,16.953,7.581-.877,6.851-6.308,14.411-15.251,21.976a37.193,37.193,0,0,0-3.223-10.692l-5.355-11.306c-16.3,15.228-47.389,30.826-84.781,41.008-26.265,7.155-51.2,10.428-71.263,10.059l2.906,16.328q.234,1.32.57,2.588c-14.585-1.085-25.869-4.388-32.161-9.787l0,0c.48-3.732,2.306-7.677,5.316-11.714" transform="translate(-84.114 -621.671)" fill="#5dc196"/>
            <path id="Trazado_184801" data-name="Trazado 184801" d="M144.077,914.222l-.894-.066c-15-1.116-26.252-4.553-32.529-9.94l-.05-.043-.2-.261.032-.266c.487-3.785,2.316-7.827,5.437-12.015,4.342-5.824,11.037-11.806,19.9-17.778l.027-.019c18.264-12.306,43.862-23.317,72.078-31,30.612-8.339,61.058-11.748,83.529-9.354a94.221,94.221,0,0,1,11.106,1.807h0l.31.07c7.529,1.766,13.324,4.363,17.224,7.719l.261.224-.044.341c-.873,6.82-6.224,14.56-15.472,22.383l-.882.747-.163-1.145a36.574,36.574,0,0,0-3.168-10.509l-4.982-10.52c-17.178,15.7-48.632,30.823-84.408,40.565-24.956,6.8-50.007,10.381-70.666,10.094l2.771,15.564c.15.846.338,1.7.559,2.537Zm-32.328-10.754c6,4.977,16.568,8.2,30.647,9.344-.138-.589-.261-1.181-.365-1.77l-3.042-17.093.777.014c20.682.382,45.928-3.183,71.083-10.036,36.035-9.813,67.629-25.087,84.513-40.859l.64-.6,5.729,12.1a37.921,37.921,0,0,1,3.1,9.736c8.316-7.223,13.181-14.281,14.116-20.486-3.7-3.076-9.133-5.484-16.169-7.16l-.251-.057a92.292,92.292,0,0,0-11.257-1.852c-22.32-2.378-52.594,1.018-83.058,9.316-28.074,7.647-53.526,18.589-71.676,30.813l-.027.018c-8.753,5.9-15.352,11.784-19.612,17.5-2.893,3.882-4.624,7.6-5.146,11.072" transform="translate(-82.175 -619.823)" fill="#373c3f"/>
            <path id="Trazado_184802" data-name="Trazado 184802" d="M205.729,758.268c21.242,1.586,49.471-1.528,79.424-9.684,35.169-9.578,64.764-23.95,81.721-38.3a37.193,37.193,0,0,0-3.223-10.692L358.3,688.285l-4.462-9.421L343.48,657.006a57.429,57.429,0,0,0-67.366-30.725l-42.1,11.773a54.263,54.263,0,0,0-38.8,61.759l3.437,19.3,0,0,3.6,20.235,2.906,16.328q.234,1.319.57,2.588" transform="translate(-144.673 -464.573)" fill="#5dc196"/>
            <path id="Trazado_184803" data-name="Trazado 184803" d="M215.234,757.486q-5.945,0-11.446-.409l-.454-.034-.116-.441c-.23-.871-.425-1.759-.581-2.639l-6.576-36.932,0,0L192.691,698.1a54.872,54.872,0,0,1,39.26-62.486l42.1-11.773a58.068,58.068,0,0,1,68.116,31.067l20.171,42.585a37.852,37.852,0,0,1,3.278,10.876l.05.35-.27.228c-8.524,7.213-20.339,14.485-34.171,21.03a290.68,290.68,0,0,1-47.8,17.4c-24.307,6.618-48.053,10.113-68.194,10.113m-10.893-1.65c22.055,1.57,50-1.868,78.751-9.7,33.407-9.1,63.725-23.268,81.2-37.943a36.588,36.588,0,0,0-3.116-10.159l-20.171-42.585a56.789,56.789,0,0,0-66.616-30.383l-42.1,11.773a53.867,53.867,0,0,0-33,26.65,53.1,53.1,0,0,0-5.35,34.381l3.5,19.671,0,0,6.444,36.194c.124.7.274,1.4.446,2.1" transform="translate(-142.78 -462.746)" fill="#373c3f"/>
            <path id="Trazado_184804" data-name="Trazado 184804" d="M151.953,958.356c21.031,1.3,48.547-1.862,77.7-9.8,30.277-8.245,56.423-20.043,73.932-32.32,16.551-11.607,25.384-23.642,22.692-33.516a15.435,15.435,0,0,0-5.077-7.637c-.877,6.85-6.308,14.411-15.251,21.976-16.957,14.351-46.552,28.722-81.721,38.3-29.954,8.156-58.183,11.27-79.424,9.684-14.585-1.085-25.869-4.388-32.161-9.787a14.081,14.081,0,0,0,.348,5.555c2.794,10.263,17.5,16.226,38.964,17.547" transform="translate(-83.747 -651.347)" fill="#5dc196"/>
            <path id="Trazado_184805" data-name="Trazado 184805" d="M159.714,955.617q-4.987,0-9.658-.287c-22.715-1.4-36.758-7.8-39.541-18.017a14.776,14.776,0,0,1-.365-5.806l.152-1.174.9.771c6.069,5.208,17.062,8.54,31.792,9.635,22.124,1.652,50.256-1.78,79.209-9.663,33.581-9.145,64.04-23.415,81.476-38.172,9-7.613,14.2-15.072,15.03-21.569l.151-1.178.9.774a16.078,16.078,0,0,1,5.277,7.953c2.674,9.808-5.474,21.957-22.941,34.208-18.386,12.891-44.713,24.4-74.131,32.414-24.247,6.6-48.074,10.109-68.248,10.11m-48.4-22.775a13.223,13.223,0,0,0,.435,4.135c1.313,4.821,5.391,8.761,12.121,11.709,6.611,2.9,15.448,4.7,26.265,5.368,3.086.19,6.289.285,9.586.285,20.06,0,43.762-3.49,67.9-10.065,29.28-7.973,55.466-19.418,73.734-32.227,16.993-11.918,24.964-23.576,22.442-32.825a14.359,14.359,0,0,0-4.021-6.539c-1.306,6.525-6.56,13.825-15.277,21.2-8.523,7.213-20.339,14.485-34.171,21.03a290.655,290.655,0,0,1-47.8,17.4c-29.09,7.921-57.374,11.367-79.64,9.7-14.279-1.062-25.156-4.226-31.584-9.172" transform="translate(-81.889 -647.682)" fill="#373c3f"/>
            <path id="Trazado_184806" data-name="Trazado 184806" d="M228.682,944.976c21.242,1.586,49.471-1.528,79.424-9.684,35.169-9.578,64.764-23.95,81.721-38.3A37.191,37.191,0,0,0,386.6,886.3l-5.355-11.306c-16.3,15.228-47.389,30.826-84.781,41.009-26.264,7.155-51.2,10.428-71.263,10.059l2.906,16.328q.234,1.319.57,2.588" transform="translate(-167.626 -651.281)" fill="#48d7b2"/>
            <path id="Trazado_184807" data-name="Trazado 184807" d="M237.852,942.923q-5.945,0-11.446-.409l-.454-.034-.116-.441c-.23-.871-.425-1.759-.581-2.639l-3.042-17.093.777.014c20.684.382,45.928-3.184,71.083-10.036,36.035-9.813,67.629-25.087,84.513-40.859l.639-.6,5.729,12.1a37.853,37.853,0,0,1,3.278,10.876l.05.35-.27.228c-8.524,7.213-20.339,14.485-34.171,21.03a290.683,290.683,0,0,1-47.8,17.4c-24.307,6.618-48.053,10.113-68.194,10.113m-10.893-1.65c22.055,1.571,50-1.867,78.751-9.7,33.407-9.1,63.725-23.268,81.2-37.943a36.581,36.581,0,0,0-3.117-10.159l-4.982-10.52c-17.179,15.7-48.633,30.823-84.408,40.565-24.956,6.8-50.007,10.381-70.666,10.094l2.771,15.564c.124.7.274,1.4.446,2.1" transform="translate(-165.398 -648.183)" fill="#373c3f"/>
            <path id="Trazado_184808" data-name="Trazado 184808" d="M111.036,1109.678l1.009-.784,0,0Z" transform="translate(-82.647 -825.38)" fill="#373c3f"/>
            <path id="Trazado_184809" data-name="Trazado 184809" d="M218.854,691.664a234,234,0,0,1,29.286-12.252q7.531-2.551,15.277-4.434a119.135,119.135,0,0,1,15.7-2.736c1.326-.114,2.656-.2,3.984-.3,1.332-.046,2.666-.071,4-.107l1.967-.044.983-.022.492-.011.491-.031L293,671.6c.655-.041,1.311-.08,1.964-.154a130.086,130.086,0,0,0,15.589-2.467c5.151-1.121,10.256-2.474,15.312-4,1.264-.38,2.525-.773,3.786-1.167,1.254-.414,2.517-.8,3.765-1.237l1.877-.638,1.87-.659c1.251-.427,2.491-.886,3.736-1.332-2.438,1.026-4.889,2.024-7.369,2.948-1.234.478-2.483.916-3.725,1.375-1.248.44-2.5.88-3.751,1.307-5.025,1.673-10.117,3.163-15.282,4.376a122.142,122.142,0,0,1-15.694,2.7c-.331.034-.66.08-.992.1l-1,.069-1.992.137-.5.033-.5.013-1,.026-2,.052c-1.312.041-2.621.07-3.932.12-1.309.1-2.618.2-3.925.309a120.807,120.807,0,0,0-15.55,2.64c-5.136,1.173-10.21,2.622-15.243,4.2s-10.008,3.36-14.935,5.266c-.617.236-1.237.463-1.851.706l-1.841.734c-1.227.49-2.457.973-3.672,1.492-2.443,1.01-4.867,2.064-7.3,3.11" transform="translate(-162.899 -491.216)" fill="#373c3f"/>
            <path id="Trazado_184810" data-name="Trazado 184810" d="M105.854,560.357c4.3,31.905,53.358,51.631,109.58,44.058s98.316-39.575,94.019-71.48S256.1,481.3,199.873,488.877s-98.316,39.575-94.019,71.48" transform="translate(-78.566 -362.68)" fill="#fba99e"/>
            <path id="Trazado_184811" data-name="Trazado 184811" d="M189.657,604.8c-18.547,0-35.973-3.021-50.591-8.9-10.146-4.08-18.392-9.318-24.508-15.57-6.366-6.508-10.136-13.833-11.205-21.771s.629-16,5.046-23.959c4.244-7.648,10.81-14.881,19.515-21.5,17.845-13.567,42.707-23.063,70.006-26.74s53.788-1.1,74.586,7.266c10.146,4.079,18.392,9.318,24.508,15.57,6.366,6.508,10.136,13.832,11.205,21.771s-.628,16-5.046,23.959c-4.244,7.648-10.81,14.881-19.516,21.5-17.844,13.567-42.706,23.063-70.006,26.74a180.1,180.1,0,0,1-23.994,1.633m32.114-118.781a177.684,177.684,0,0,0-23.681,1.609c-55.783,7.513-97.714,39.257-93.471,70.762,2.046,15.193,14.449,28.094,34.923,36.326,14.466,5.816,31.73,8.806,50.108,8.807a178.772,178.772,0,0,0,23.83-1.622c27.084-3.648,51.732-13.056,69.4-26.491,17.567-13.356,26.115-29.078,24.068-44.271-3.629-26.942-39.873-45.12-85.18-45.12" transform="translate(-76.697 -360.793)" fill="#373c3f"/>
            <path id="Trazado_184812" data-name="Trazado 184812" d="M177.2,406.765c23.3,15.246,55.919,19.489,87.729,8.764,20.927-7.056,38.213-19.481,50.242-34.631l-31.245-56.7a49.956,49.956,0,0,0-59.711-23.227l-1.724.581a33.278,33.278,0,0,0-18.509,15.728l0,0q-.4.733-.841,1.458c-.178.293-.364.584-.55.876-.149.227-.3.452-.455.678-.016.028-.034.052-.052.076-.107.154-.213.308-.324.464-.083.116-.167.237-.254.352-.335.464-.684.917-1.042,1.367-.179.223-.36.443-.544.663-.2.236-.4.469-.6.7-.158.179-.315.357-.477.534-.413.449-.839.9-1.276,1.331-.1.105-.209.211-.319.314-.317.31-.64.618-.975.919-.151.143-.3.28-.461.418a1.262,1.262,0,0,1-.1.085c-.269.242-.545.475-.825.706-.137.12-.279.234-.424.353-.174.14-.348.28-.526.421-.257.2-.521.4-.787.6-.164.126-.33.248-.5.368a1.041,1.041,0,0,1-.095.069c-.148.109-.3.215-.449.321q-.626.444-1.281.864c-.108.073-.216.147-.327.214-.172.113-.346.22-.524.328-.084.058-.17.109-.259.161-.242.148-.488.294-.731.438a.8.8,0,0,1-.072.039c-.194.113-.389.227-.585.334-.146.082-.295.166-.445.246q-.449.245-.9.481c-.182.095-.362.185-.545.276l-.282.139c-.253.126-.508.245-.766.366a.3.3,0,0,1-.054.026c-.291.135-.581.27-.877.4-.261.114-.525.229-.791.337-.333.142-.667.277-1.006.41-.192.076-.386.149-.579.221-.049.02-.1.037-.148.054-.2.079-.41.153-.617.227-.244.086-.485.171-.73.254l-.089.03a14.109,14.109,0,0,0-9.5,10.847c-.051.287-.1.576-.144.864-.066.417-.125.832-.18,1.249-.037.264-.07.526-.1.79,0,.042-.012.085-.015.131q-.055.478-.1.953c0,.019-.006.039-.007.057-.061.652-.109,1.307-.142,1.964-.019.328-.035.662-.047.99a.08.08,0,0,0,0,.037q-.018.5-.026,1.006c0,.015,0,.027,0,.041,0,.326-.005.652-.005.98a.013.013,0,0,1,0,.011c0,.339.007.677.018,1.017.007.3.016.607.033.908q.045,1.17.154,2.34.033.393.076.783c.006.072.014.139.02.2.026.242.055.48.084.721.051.415.1.825.167,1.24Z" transform="translate(-126.705 -222.065)" fill="#fba99e"/>
            <path id="Trazado_184813" data-name="Trazado 184813" d="M227.212,420.248c-19.007,0-37.245-5.025-52.228-14.828l-.241-.157-6.461-43.717c-.063-.419-.117-.835-.169-1.255-.03-.244-.059-.485-.086-.73l0-.042c-.006-.057-.013-.117-.018-.18-.027-.246-.053-.513-.076-.781-.073-.8-.126-1.6-.156-2.369-.016-.3-.027-.608-.033-.919s-.014-.621-.017-.934v0l0-.233,0,0c0-.277,0-.552.005-.827l0-.021,0-.051q.008-.484.025-.97a.722.722,0,0,1,0-.1c.011-.327.028-.658.046-.984.032-.63.08-1.3.144-1.979,0-.022,0-.044.007-.066l0,.022c.032-.339.065-.657.1-.976,0-.035.007-.068.011-.1l0-.032c.03-.276.064-.545.1-.815q.082-.626.182-1.261c.048-.294.095-.586.146-.877a14.747,14.747,0,0,1,9.921-11.341l.09-.03c.238-.08.472-.163.709-.246.214-.076.414-.147.609-.223l.029-.011c.036-.012.072-.024.108-.039l.027-.01c.187-.07.375-.141.562-.214.335-.131.664-.264.99-.4.271-.11.53-.223.786-.335.291-.127.578-.26.864-.393l.053-.026c.254-.118.5-.235.751-.358l.284-.14c.178-.088.355-.177.534-.27q.445-.232.889-.475c.151-.081.3-.162.437-.242.2-.108.387-.218.574-.327l.162-.093c.211-.126.424-.252.633-.38.086-.051.16-.094.23-.142l.031-.02c.171-.1.339-.206.5-.315.122-.074.221-.142.32-.209q.66-.423,1.271-.856c.151-.106.3-.209.44-.315l.022-.016.041-.028.042-.032c.164-.116.323-.233.481-.354.269-.2.528-.4.781-.6l.484-.388.118-.1c.109-.089.216-.177.32-.267.333-.275.588-.494.819-.7l.042-.035c.017-.013.034-.028.049-.042.165-.146.313-.277.458-.415.3-.273.615-.568.967-.912.11-.1.208-.2.306-.3.412-.41.835-.852,1.264-1.319.159-.173.313-.348.468-.524.2-.229.4-.457.59-.688s.36-.435.537-.655c.388-.487.723-.926,1.021-1.34.083-.109.154-.21.224-.309l.027-.038c.109-.154.214-.306.32-.458l.049-.072c.151-.222.3-.444.448-.668.18-.282.363-.57.539-.859.279-.458.557-.94.826-1.432a33.871,33.871,0,0,1,18.868-16.032l1.724-.581a50.555,50.555,0,0,1,60.475,23.525l31.451,57.076-.265.333c-12.626,15.9-30.1,27.949-50.538,34.839a113.092,113.092,0,0,1-36.055,5.993m-51.288-15.741c24.031,15.6,56.5,18.8,86.934,8.536,20.059-6.763,37.229-18.547,49.681-34.09L281.5,322.624a49.277,49.277,0,0,0-58.948-22.93l-1.724.581A32.592,32.592,0,0,0,202.676,315.7c-.281.514-.569,1.014-.859,1.489-.18.3-.369.592-.557.887-.152.232-.3.456-.456.68-.023.038-.048.072-.072.106-.1.144-.207.3-.319.457l-.027.038c-.078.111-.159.224-.241.332-.3.417-.648.872-1.05,1.378-.184.229-.367.451-.553.674-.2.241-.4.479-.615.716-.159.18-.319.362-.484.542-.443.481-.878.936-1.3,1.351-.111.112-.219.22-.33.326-.357.349-.682.656-.986.93-.145.138-.3.28-.467.423-.027.025-.068.061-.113.1-.24.215-.5.441-.828.708-.1.088-.218.185-.338.283l-.128.1-.493.395c-.265.207-.534.414-.8.614-.157.12-.323.243-.493.363-.038.03-.08.06-.122.088-.133.1-.286.207-.442.316-.421.3-.861.595-1.3.879-.1.071-.221.15-.341.222-.153.1-.329.21-.509.319-.092.062-.186.119-.283.176-.2.124-.421.254-.636.382l-.091.054a1.057,1.057,0,0,1-.094.052c-.2.115-.39.227-.585.334-.141.079-.295.166-.449.248-.3.163-.6.325-.907.484-.186.1-.369.188-.556.282l-.284.14c-.249.124-.5.243-.759.362a.878.878,0,0,1-.1.045c-.288.134-.576.267-.87.4-.266.116-.535.233-.806.343-.328.14-.669.277-1.014.413-.191.076-.386.149-.58.221-.045.019-.1.039-.161.059-.2.079-.411.153-.619.227-.26.091-.5.176-.743.258l-.09.03a13.471,13.471,0,0,0-9.07,10.352c-.051.285-.1.57-.143.856-.065.41-.124.819-.178,1.231-.037.262-.069.518-.1.776l-.015.134q-.054.472-.1.94s0,.028-.006.053v0c-.062.667-.109,1.318-.141,1.937-.017.3-.032.6-.043.894l0,.007,0,.117q-.017.483-.026.963l0,.02,0,.049c0,.289-.005.578-.005.868l.048.145-.047.1c0,.287.007.574.016.862.007.3.016.6.032.894.029.754.081,1.53.152,2.317.022.261.047.517.075.771.006.069.011.116.016.161l0,.044c.026.238.054.473.083.711.05.409.1.814.164,1.223Zm-6.918-51.24v0m-1.275-.089v0Z" transform="translate(-124.84 -220.186)" fill="#373c3f"/>
            <path id="Trazado_184814" data-name="Trazado 184814" d="M258.42,688.715l58.648-19.774a33.238,33.238,0,0,0,18.49-47.538l-.094-.168c-12.029,15.15-29.315,27.575-50.242,34.63-31.81,10.725-64.425,6.482-87.729-8.764l.7,4.733a46.018,46.018,0,0,0,60.228,36.879" transform="translate(-147 -462.403)" fill="#f75f4b"/>
            <path id="Trazado_184815" data-name="Trazado 184815" d="M241.247,688.44a46.684,46.684,0,0,1-46.131-39.848l-.906-6.14,1.19.779c24.055,15.737,56.644,18.987,87.174,8.693,20.2-6.811,37.473-18.714,49.946-34.422l.594-.749.558,1a33.877,33.877,0,0,1-18.844,48.454L256.18,685.984a46.719,46.719,0,0,1-14.933,2.456m-45.36-43.377.493,3.342a45.379,45.379,0,0,0,59.391,36.367l.2.606-.2-.606L314.419,665a32.6,32.6,0,0,0,18.5-45.948c-12.577,15.528-29.821,27.3-49.934,34.084a113.093,113.093,0,0,1-36.055,5.993c-18.507,0-36.286-4.766-51.04-14.065" transform="translate(-144.555 -459.066)" fill="#373c3f"/>
            <path id="Trazado_184816" data-name="Trazado 184816" d="M266.628,432.9a38.541,38.541,0,0,0-16.786-14.316,50.276,50.276,0,0,0-10.588-3.394,60.174,60.174,0,0,0-11.069-1.216,71.3,71.3,0,0,0-11.141.635,84.234,84.234,0,0,0-10.963,2.209,89.224,89.224,0,0,0-10.614,3.608,109.164,109.164,0,0,0-10.176,4.794,85.688,85.688,0,0,1,9.927-5.37l1.291-.578.646-.289.656-.265c.876-.349,1.746-.715,2.628-1.051l2.667-.953c.9-.293,1.8-.569,2.7-.854a78.007,78.007,0,0,1,11.071-2.449,70.674,70.674,0,0,1,11.334-.713,59.955,59.955,0,0,1,11.293,1.313,48.582,48.582,0,0,1,10.76,3.675c.435.19.85.424,1.269.648l1.254.674c.415.229.812.493,1.218.738s.811.494,1.2.76l1.159.827c.386.276.777.543,1.138.853.73.606,1.491,1.173,2.165,1.842a34.518,34.518,0,0,1,6.957,8.873" transform="translate(-137.916 -307.171)" fill="#373c3f"/>
            <path id="Trazado_184817" data-name="Trazado 184817" d="M232.428,289.357c-8.4,29.1-66.452,37.9-129.656,19.649S-4.857,252.37,3.547,223.268,70,185.37,133.2,203.62s107.629,56.636,99.226,85.738" transform="translate(-1.88 -144.479)" fill="#f3f3f5"/>
            <path id="Trazado_184818" data-name="Trazado 184818" d="M163.836,317.27c-19.571,0-41.285-3.246-63.122-9.551-30.655-8.852-57.9-22.677-76.706-38.93-18.941-16.367-27.094-33.271-22.956-47.6S21.1,196.9,45.848,193.153c24.578-3.724,55-.9,85.651,7.95s57.9,22.677,76.706,38.93c18.941,16.366,27.094,33.271,22.956,47.6s-20.046,24.285-44.8,28.036a150.891,150.891,0,0,1-22.53,1.6M68.254,192.844c-34.637,0-60.621,10.161-65.974,28.7C-6.012,250.26,38.3,288.367,101.069,306.49c30.482,8.8,60.706,11.612,85.105,7.915,11.823-1.792,21.622-5.016,29.125-9.582,7.7-4.687,12.626-10.59,14.634-17.545,8.292-28.717-36.024-66.823-98.789-84.946-22.246-6.424-43.874-9.488-62.89-9.488" transform="translate(0 -142.577)" fill="#373c3f"/>
            <path id="Trazado_184819" data-name="Trazado 184819" d="M280.239,317.464l-71.231-15.313a45.128,45.128,0,0,1-33.458-58l5.3-16.394c17.44,21.207,44.335,37.795,76.5,44.71,23.8,5.116,47.137,4.219,67.639-1.518l-1.728,15.53a35.736,35.736,0,0,1-43.026,30.984" transform="translate(-129.026 -169.526)" fill="#d7d4d3"/>
            <path id="Trazado_184820" data-name="Trazado 184820" d="M285.935,315.088a36.264,36.264,0,0,1-7.623-.809l-71.231-15.313a45.767,45.767,0,0,1-33.932-58.821l5.659-17.506.742.9c18.116,22.03,45.158,37.83,76.145,44.492,22.916,4.926,46.2,4.4,67.333-1.509l.913-.255-1.833,16.471a36.368,36.368,0,0,1-36.173,32.347M179.308,225.25l-4.942,15.289a44.489,44.489,0,0,0,32.984,57.178l71.231,15.313a35.1,35.1,0,0,0,42.256-30.43l1.624-14.592c-21.089,5.732-44.245,6.175-67.034,1.276a146.258,146.258,0,0,1-43.968-17.071,124.815,124.815,0,0,1-32.152-26.962" transform="translate(-127.234 -165.716)" fill="#373c3f"/>
            <path id="Trazado_184821" data-name="Trazado 184821" d="M346.837,103.283c-20.5,5.737-43.842,6.634-67.639,1.518-32.17-6.915-59.065-23.5-76.5-44.71l6.614-20.466a54.612,54.612,0,0,1,10.24-18.471A16.753,16.753,0,0,1,236,15.721l.082.018a20.111,20.111,0,0,0,19.7-6.8,17.405,17.405,0,0,1,16.9-6.081l.27.057,31.777,6.831a58.038,58.038,0,0,1,45.485,63.168Z" transform="translate(-150.87 -1.859)" fill="#f3f3f5"/>
            <path id="Trazado_184822" data-name="Trazado 184822" d="M308.395,106.94a149.625,149.625,0,0,1-31.415-3.374,146.262,146.262,0,0,1-43.968-17.071,124.461,124.461,0,0,1-32.9-27.858l-.222-.27,6.722-20.8a55.081,55.081,0,0,1,10.36-18.687,17.37,17.37,0,0,1,17.079-5.644l.067.015A19.44,19.44,0,0,0,253.2,6.667a18.03,18.03,0,0,1,17.527-6.3l.273.058,31.777,6.831a58.677,58.677,0,0,1,45.986,63.864l-3.428,30.8-.415.116a135.692,135.692,0,0,1-36.53,4.9M201.325,58.094c18.115,21.889,45.063,37.588,75.923,44.222,22.766,4.894,45.894,4.411,66.918-1.393L347.5,70.981A57.233,57.233,0,0,0,302.513,8.508L270.47,1.62a16.755,16.755,0,0,0-16.282,5.864A20.711,20.711,0,0,1,233.864,14.5l-.085-.018a16.1,16.1,0,0,0-15.827,5.22,53.808,53.808,0,0,0-10.121,18.255Z" transform="translate(-148.786 0.001)" fill="#373c3f"/>
            <path id="Trazado_184823" data-name="Trazado 184823" d="M472.936,105.013l-1.5,1.157c-.5.381-.989.788-1.517,1.134l-1.566,1.069c-.264.174-.517.366-.79.525l-.811.492-1.623.985c-.549.314-1.113.6-1.669.9l-.837.449-.419.224c-.141.073-.286.136-.429.2l-1.721.808c-.287.134-.574.271-.863.4l-.883.353-1.767.707c-.292.125-.595.22-.895.323l-.9.306c-.6.2-1.2.419-1.808.6a60.11,60.11,0,0,1-22.644,2.289c-.633-.065-1.265-.149-1.9-.227s-1.266-.144-1.893-.254l-1.88-.345c-.626-.119-1.256-.217-1.874-.374a58.4,58.4,0,0,1-7.338-2.128A59.433,59.433,0,0,1,382.2,84.732a61.275,61.275,0,0,1-2.853-7.037c-.2-.6-.4-1.2-.575-1.808l-.267-.91c-.092-.3-.176-.606-.25-.914-.149-.614-.313-1.224-.449-1.841l-.391-1.852L377.9,72.2c.166.608.362,1.208.541,1.811s.391,1.2.585,1.8.418,1.187.639,1.776a60.865,60.865,0,0,0,3.093,6.868,58.925,58.925,0,0,0,3.9,6.429,62.333,62.333,0,0,0,4.637,5.9,60.08,60.08,0,0,0,11.248,9.855,59.422,59.422,0,0,0,6.438,3.816,60.889,60.889,0,0,0,6.87,2.964,57.118,57.118,0,0,0,7.178,2.113c.6.157,1.222.255,1.834.374l1.84.346c.614.11,1.237.169,1.855.256s1.237.171,1.857.241a61.19,61.19,0,0,0,14.95-.349c1.244-.145,2.465-.422,3.694-.658.306-.065.616-.112.919-.192l.91-.232,1.822-.458c.6-.162,1.2-.364,1.8-.543l.9-.277c.3-.093.6-.179.893-.295l1.765-.65.883-.325.866-.368,1.733-.736c.144-.062.29-.12.432-.187l.423-.207.846-.413c.563-.279,1.133-.544,1.69-.835l1.648-.917.825-.459c.278-.148.536-.329.8-.492l1.6-1c.545-.319,1.048-.7,1.569-1.053Z" transform="translate(-280.922 -52.379)" fill="#373c3f"/>
            <g id="Grupo_141227" data-name="Grupo 141227" transform="translate(120.836 6.842)" opacity="0.15">
              <g id="Grupo_141226" data-name="Grupo 141226">
                <g id="Grupo_141225" data-name="Grupo 141225" clip-path="url(#clip-path-3)">
                  <path id="Trazado_184824" data-name="Trazado 184824" d="M522.333,164.311c-3.319,1.544-7.149,1.347-10.8,1.117q-19.455-1.231-38.911-2.457a188.125,188.125,0,0,0,62.4,23.591,18.028,18.028,0,0,1-17.871,6.195c16.1,8.245,22.33,27.671,27.037,45.144.593,2.2,1.184,4.559.463,6.724-2.488,7.466-16.532,4.868-18.833,12.392-2.03,6.635,7.3,10.388,11.659,15.788,6.563,8.143.741,20.61-7.328,27.262-5.273,4.349-11.522,7.69-16.838,11.912,4.153-1.265,8.294-2.57,12.407-3.964,11.661-3.953,23.106-8.63,33.537-15.238,5.525-3.5,10.854-7.374,16.468-10.7q-.045-.1-.093-.209c13.947-10.682,21.152-21.538,18.684-30.583a15.435,15.435,0,0,0-5.078-7.637c-3.879-3.337-9.664-5.87-16.951-7.581l0,0a90.188,90.188,0,0,0-10.038-1.718l-.683-1.864c14.985-12.454,23.12-27.4,21.111-42.316a35.373,35.373,0,0,0-5.929-15.2,27.092,27.092,0,0,0,5.589-10.176c4.958-17.166-8.465-37.558-33.278-55.146l2.079-18.679A58.04,58.04,0,0,0,505.645,27.8L500.8,26.757c3.311,5.561,6.9,10.787,8.964,15.161,9.429,20.006,6.671,44.04-9.13,60.183-4.922,5.029-11.362,10.13-11.15,17.163,8.678,7.583,20.988,9.636,30.238,16.509s13.06,23.678,2.613,28.538" transform="translate(-472.62 -26.758)" fill="#d7d4d3"/>
                </g>
              </g>
            </g>
          </g>
        </g>
      </g>
    </g>
    <g id="Grupo_141260" data-name="Grupo 141260" transform="translate(2887.311 -6851.934)">
      <g id="Grupo_141237" data-name="Grupo 141237" clip-path="url(#clip-path-4)">
        <g id="Grupo_141236" data-name="Grupo 141236" transform="translate(0 -0.001)">
          <g id="Grupo_141235" data-name="Grupo 141235" clip-path="url(#clip-path-5)">
            <path id="Trazado_184825" data-name="Trazado 184825" d="M255.245,833.93c-2.1,30.182-56.935,50.958-122.486,46.405S15.769,847.623,17.866,817.441,74.8,766.483,140.351,771.036s116.99,32.712,114.893,62.894" transform="translate(-13.257 -573.668)" fill="#156c87"/>
            <path id="Trazado_184826" data-name="Trazado 184826" d="M148.892,879.732c-5.933,0-11.959-.209-18.04-.631-31.793-2.209-61.3-9.991-83.077-21.913-21.932-12.006-33.442-26.8-32.409-41.662S29.843,787.6,53.224,778.744c23.219-8.8,53.517-12.424,85.309-10.216s61.3,9.991,83.076,21.913c21.932,12.006,33.442,26.8,32.41,41.662s-14.477,27.923-37.858,36.781c-18.777,7.114-42.184,10.848-67.268,10.848M120.483,769.173c-24.926,0-48.171,3.705-66.807,10.765-11.169,4.232-20.062,9.436-26.43,15.47-6.537,6.194-10.106,12.992-10.607,20.2C14.571,845.4,65.846,873.3,130.94,877.827s119.736-16.03,121.8-45.813l.637.044-.637-.044c2.069-29.783-49.207-57.691-114.3-62.213-6.055-.421-12.056-.629-17.961-.629" transform="translate(-11.394 -571.797)" fill="#373c3f"/>
            <path id="Trazado_184827" data-name="Trazado 184827" d="M303.1,901.473H230.322a45.075,45.075,0,0,1-44.847-49.613l1.733-17.121c21.482,17.048,51.228,27.6,84.093,27.6,24.312,0,46.916-5.776,65.732-15.682l1.572,15.528A35.693,35.693,0,0,1,303.1,901.473" transform="translate(-137.936 -621.569)" fill="#125e70"/>
            <path id="Trazado_184828" data-name="Trazado 184828" d="M301.249,898.537H228.476a45.714,45.714,0,0,1-45.482-50.316l1.851-18.283.914.726c22.315,17.709,52.039,27.462,83.7,27.462,23.412,0,46.039-5.4,65.435-15.608l.837-.441,1.667,16.469a36.331,36.331,0,0,1-36.146,39.991M185.881,832.382l-1.616,15.967a44.436,44.436,0,0,0,44.212,48.911h72.773a35.055,35.055,0,0,0,34.876-38.585l-1.477-14.59c-19.391,10.024-41.909,15.318-65.192,15.318a146.087,146.087,0,0,1-46.518-7.44,124.665,124.665,0,0,1-37.057-19.58" transform="translate(-136.09 -617.995)" fill="#373c3f"/>
            <path id="Trazado_184829" data-name="Trazado 184829" d="M342.768,640.839c-18.816,9.906-41.42,15.682-65.732,15.682-32.866,0-62.612-10.552-84.093-27.6l2.163-21.374a54.552,54.552,0,0,1,6.122-20.187,16.734,16.734,0,0,1,14.927-8.759h.084a20.087,20.087,0,0,0,17.806-10.779,17.385,17.385,0,0,1,15.231-9.487h32.74a57.97,57.97,0,0,1,57.678,52.136Z" transform="translate(-143.671 -415.751)" fill="#156c87"/>
            <path id="Trazado_184830" data-name="Trazado 184830" d="M275.082,655.3a146.084,146.084,0,0,1-46.518-7.44,124.31,124.31,0,0,1-37.972-20.3l-.273-.217,2.2-21.721A55.017,55.017,0,0,1,198.71,585.2a17.347,17.347,0,0,1,15.418-9.1h.156a19.413,19.413,0,0,0,17.241-10.436,18.01,18.01,0,0,1,15.794-9.829h32.743a58.609,58.609,0,0,1,58.313,52.71l3.118,30.8-.381.2C321.533,649.849,298.7,655.3,275.082,655.3m-83.423-28.522c22.284,17.572,51.895,27.246,83.423,27.246,23.259,0,45.742-5.326,65.054-15.408L337.1,608.674a57.166,57.166,0,0,0-57.042-51.562H247.323a16.735,16.735,0,0,0-14.668,9.145,20.686,20.686,0,0,1-18.372,11.121h-.153a16.075,16.075,0,0,0-14.294,8.421,53.762,53.762,0,0,0-6.051,19.951Z" transform="translate(-141.716 -413.89)" fill="#373c3f"/>
            <path id="Trazado_184831" data-name="Trazado 184831" d="M431.233,657.921l-1.219,1.445c-.411.478-.8.977-1.244,1.426l-1.3,1.372c-.221.225-.428.466-.661.679l-.688.651-1.378,1.3c-.471.422-.961.822-1.44,1.234l-.723.615-.362.307c-.122.1-.251.193-.376.29l-1.511,1.15c-.252.192-.5.385-.759.572l-.788.53-1.577,1.061c-.259.183-.535.34-.806.5l-.816.488c-.547.32-1.083.661-1.639.965a60.033,60.033,0,0,1-21.632,6.989c-.632.069-1.266.12-1.9.177s-1.267.125-1.9.149l-1.908.057c-.636.015-1.272.052-1.908.028a58.314,58.314,0,0,1-7.613-.538,59.363,59.363,0,0,1-38.706-22.209,61.231,61.231,0,0,1-4.263-6.273c-.321-.544-.647-1.085-.94-1.645l-.452-.832c-.153-.276-.3-.555-.436-.84-.274-.568-.563-1.129-.824-1.7l-.771-1.727.857,1.684c.29.559.607,1.1.908,1.655s.634,1.087.948,1.63.658,1.071,1,1.6a60.745,60.745,0,0,0,4.463,6.057,58.82,58.82,0,0,0,5.153,5.46,62.241,62.241,0,0,0,5.767,4.788,60,60,0,0,0,13.052,7.263,59.376,59.376,0,0,0,7.088,2.375,60.779,60.779,0,0,0,7.331,1.452,57.091,57.091,0,0,0,7.453.556c.623.026,1.246-.008,1.87-.021l1.87-.049c.623-.021,1.243-.094,1.865-.139s1.244-.092,1.864-.155a61.122,61.122,0,0,0,14.526-3.479c1.184-.4,2.319-.929,3.469-1.419.285-.128.578-.239.857-.38l.839-.418,1.683-.83c.556-.285,1.094-.606,1.642-.908l.819-.459c.273-.154.549-.3.81-.475l1.587-1.006.794-.5.768-.541L421.5,666.8c.127-.091.258-.178.383-.273l.37-.291.74-.582c.491-.391.992-.769,1.475-1.17l1.417-1.241.709-.621c.24-.2.454-.434.683-.65l1.352-1.316c.465-.426.876-.9,1.311-1.358Z" transform="translate(-246.238 -479.647)" fill="#373c3f"/>
            <path id="Trazado_184832" data-name="Trazado 184832" d="M204.03,559.044c-6.711-2.657-15.6-4.208-26.06-4.623h0c-21.019-.836-48.4,2.911-77.319,11.454-31.58,9.33-58.523,22.477-75.686,35.779a92.583,92.583,0,0,0-8.654,7.534h0c-5.3,5.278-8.884,10.468-10.429,15.34,4.341,5.361,12.924,8.937,24.493,10.672A37.147,37.147,0,0,1,27.5,624.421L26.114,612c21.845,4.386,56.451,1.328,93.572-9.642,26.076-7.7,48.985-18.008,65.841-28.851l6.1,15.4q.493,1.244.873,2.5c11.826-8.576,19.682-17.305,22.2-25.2v0c-2.366-2.92-5.989-5.314-10.665-7.166" transform="translate(-4.375 -412.752)" fill="#373c3f"/>
            <path id="Trazado_184833" data-name="Trazado 184833" d="M29.339,634.136l-1.142-.171c-11.965-1.795-20.574-5.565-24.9-10.9l-.216-.267.1-.328c1.553-4.9,5.115-10.146,10.587-15.6l.205-.2h0a94.089,94.089,0,0,1,8.508-7.382C40.335,585.455,68,572.375,98.39,563.4c28.013-8.276,55.545-12.353,77.525-11.48l.036,0c10.663.425,19.49,2,26.236,4.666,4.85,1.921,8.526,4.4,10.926,7.357l.159.2-.023.327-.023.076c-2.507,7.872-10.263,16.7-22.429,25.519l-.724.526-.261-.857c-.253-.83-.541-1.654-.856-2.449L183.142,572.6c-17.406,11.079-40.575,21.189-65.352,28.508C82.274,611.6,47.6,615.252,24.768,610.93l1.287,11.555a36.532,36.532,0,0,0,2.823,10.593ZM4.515,622.525c4.051,4.782,11.89,8.227,22.748,10a37.878,37.878,0,0,1-2.477-9.9l-1.479-13.287.857.172c22.626,4.543,57.491.943,93.265-9.629,24.975-7.378,48.3-17.6,65.677-28.776l.653-.42,6.385,16.123c.22.554.427,1.122.619,1.7,11.364-8.361,18.658-16.648,21.141-24.025-2.264-2.672-5.689-4.929-10.184-6.709-6.619-2.62-15.316-4.161-25.85-4.578l-.036,0c-21.84-.865-49.21,3.2-77.08,11.43C68.507,573.557,41,586.558,23.276,600.292a92.292,92.292,0,0,0-8.595,7.482l-.205.2h0c-5.086,5.108-8.434,10-9.959,14.546" transform="translate(-2.298 -410.886)" fill="#373c3f"/>
            <path id="Trazado_184834" data-name="Trazado 184834" d="M239.326,438.791c-17.22,12.5-42.845,24.664-72.58,33.452-34.915,10.317-67.608,13.635-89.55,10.338A37.147,37.147,0,0,1,74.324,471.8l-1.383-12.418-1.152-10.349-2.672-24.009a57.363,57.363,0,0,1,41.126-61.465L152.2,351.474A54.2,54.2,0,0,1,217.585,383.6l7.209,18.207h0l7.557,19.088,6.1,15.4q.493,1.244.874,2.5" transform="translate(-51.202 -260.134)" fill="#373c3f"/>
            <path id="Trazado_184835" data-name="Trazado 184835" d="M93.475,482.568a123.943,123.943,0,0,1-18.232-1.228l-.349-.053-.141-.323A37.8,37.8,0,0,1,71.832,470l-5.207-46.777a58,58,0,0,1,41.584-62.149l41.954-12.087a54.837,54.837,0,0,1,66.158,32.5l20.868,52.7c.328.827.628,1.685.89,2.547l.133.436-.368.267c-18.051,13.1-43.9,25.013-72.774,33.548a290.385,290.385,0,0,1-49.75,10.3,198.1,198.1,0,0,1-21.844,1.288M75.784,480.13c22.557,3.3,55.758-.571,88.924-10.371,28.544-8.436,54.1-20.178,72.015-33.088-.218-.683-.46-1.358-.72-2.015l-20.868-52.7a53.039,53.039,0,0,0-22.59-26.41,53.8,53.8,0,0,0-42.027-5.332L108.563,362.3a56.723,56.723,0,0,0-40.668,60.781L73.1,469.86a36.547,36.547,0,0,0,2.683,10.27" transform="translate(-49.344 -258.261)" fill="#373c3f"/>
            <path id="Trazado_184836" data-name="Trazado 184836" d="M190.894,641.2c-17.192,12.14-42.235,23.9-71.175,32.446-30.058,8.883-58.469,12.578-79.793,11.333C19.77,683.8,5.947,678.2,3.053,668.4a15.417,15.417,0,0,1,.307-9.155c4.341,5.361,12.924,8.937,24.494,10.672,21.942,3.3,54.635-.021,89.55-10.338,29.736-8.788,55.361-20.956,72.581-33.452,11.826-8.576,19.682-17.3,22.2-25.2a14.073,14.073,0,0,1,2.62,4.9c3.011,10.188-6.358,22.974-23.9,35.36" transform="translate(-1.859 -447.47)" fill="#373c3f"/>
            <path id="Trazado_184837" data-name="Trazado 184837" d="M46.585,682q-4.406,0-8.554-.241C16.756,680.517,3.457,674.468.581,664.729A16.058,16.058,0,0,1,.892,655.2l.359-1.13.746.922c4.117,5.085,12.448,8.7,24.092,10.443,22.562,3.39,55.936-.468,89.275-10.319,28.742-8.495,54.449-20.341,72.386-33.356,11.944-8.661,19.538-17.262,21.962-24.873l.359-1.127.745.919a14.756,14.756,0,0,1,2.736,5.125c3,10.145-5.58,22.954-24.148,36.063-17.98,12.7-43.324,24.252-71.362,32.537-25.6,7.566-50.6,11.6-71.456,11.6M1.791,656.7a14.337,14.337,0,0,0,.015,7.668c2.711,9.184,15.6,14.908,36.3,16.119,22.247,1.3,50.507-2.717,79.574-11.308,27.908-8.246,53.118-19.737,70.987-32.355h0c8.843-6.243,15.405-12.415,19.5-18.346,4.173-6.037,5.571-11.526,4.156-16.312a13.2,13.2,0,0,0-1.8-3.743C207.66,606,200.077,614.4,188.5,622.793c-18.051,13.1-43.9,25.013-72.774,33.547a290.365,290.365,0,0,1-49.75,10.3c-15.189,1.7-29.047,1.718-40.076.061-11.278-1.692-19.573-5.138-24.108-10" transform="translate(0 -443.619)" fill="#373c3f"/>
            <path id="Trazado_184838" data-name="Trazado 184838" d="M251.513,647.4c-17.22,12.5-42.845,24.664-72.58,33.452-34.915,10.317-67.608,13.635-89.55,10.338a37.147,37.147,0,0,1-2.872-10.778L85.128,668c21.845,4.386,56.451,1.328,93.572-9.642,26.075-7.7,48.985-18.008,65.841-28.85l6.1,15.4q.493,1.244.874,2.5" transform="translate(-63.389 -468.745)" fill="#515558"/>
            <path id="Trazado_184839" data-name="Trazado 184839" d="M105.387,690.26a123.952,123.952,0,0,1-18.232-1.228l-.349-.053-.141-.323a37.806,37.806,0,0,1-2.921-10.963l-1.48-13.287.857.172c22.626,4.543,57.491.943,93.265-9.629,24.975-7.378,48.3-17.6,65.677-28.775l.653-.42,6.385,16.124c.328.827.628,1.685.89,2.547l.133.436-.368.267c-18.051,13.1-43.9,25.013-72.774,33.548a290.39,290.39,0,0,1-49.75,10.3,198.122,198.122,0,0,1-21.844,1.288M87.7,687.822c22.557,3.3,55.758-.571,88.924-10.371,28.544-8.436,54.1-20.178,72.015-33.088-.218-.683-.46-1.358-.72-2.015L242.1,627.666c-17.406,11.079-40.575,21.189-65.352,28.508-35.516,10.5-70.186,14.146-93.022,9.823l1.287,11.555A36.546,36.546,0,0,0,87.7,687.822" transform="translate(-61.256 -465.953)" fill="#373c3f"/>
            <path id="Trazado_184840" data-name="Trazado 184840" d="M822.365,600.831l-1.274-.087v0Z" transform="translate(-611.409 -447.328)" fill="#373c3f"/>
            <path id="Trazado_184841" data-name="Trazado 184841" d="M90.7,415.894c5.171-1.086,10.327-2.227,15.418-3.611,5.1-1.356,10.146-2.885,15.112-4.636a130,130,0,0,0,14.543-6.085c.293-.147.593-.281.882-.437l.868-.463,1.738-.923.434-.232.424-.249.847-.5,1.695-.995c1.15-.668,2.3-1.347,3.453-2.007,1.181-.611,2.357-1.235,3.543-1.836a119.1,119.1,0,0,1,14.777-5.915q7.562-2.467,15.31-4.249a233.292,233.292,0,0,1,31.319-4.955c-2.614.387-5.227.763-7.833,1.187-1.305.2-2.6.432-3.9.66l-1.949.342c-.649.116-1.3.248-1.944.372-5.187.965-10.346,2.074-15.456,3.362s-10.18,2.728-15.16,4.427a120.581,120.581,0,0,0-14.6,5.915c-1.171.589-2.332,1.2-3.5,1.8-1.14.645-2.268,1.307-3.4,1.962l-1.726,1-.863.5-.431.251-.441.233-1.765.929-.883.462c-.294.155-.6.288-.9.433a121.912,121.912,0,0,1-14.754,5.942c-5.026,1.681-10.135,3.086-15.283,4.3-1.289.3-2.582.577-3.873.858-1.3.261-2.587.545-3.887.787-2.593.516-5.2.954-7.809,1.363" transform="translate(-67.539 -282.066)" fill="#373c3f"/>
            <path id="Trazado_184842" data-name="Trazado 184842" d="M238.337,264.182c-2.923,32.022-51.036,53.806-107.465,48.656s-99.8-35.284-96.882-67.307,51.036-53.806,107.465-48.656,99.8,35.284,96.881,67.307" transform="translate(-25.206 -146.037)" fill="#f8d06f"/>
            <path id="Trazado_184843" data-name="Trazado 184843" d="M145.514,312.36c-5.45,0-10.984-.252-16.565-.761-27.4-2.5-52.616-10.913-71-23.688-8.971-6.232-15.832-13.169-20.395-20.619-4.749-7.754-6.788-15.726-6.061-23.694s4.176-15.438,10.25-22.2c5.836-6.5,13.84-12.081,23.79-16.587,20.4-9.235,46.719-12.944,74.119-10.443s52.616,10.913,71,23.688c8.971,6.232,15.832,13.169,20.395,20.619,4.749,7.755,6.788,15.726,6.061,23.694l-.636-.058.636.058c-.727,7.968-4.176,15.438-10.25,22.2-5.835,6.5-13.84,12.082-23.79,16.587-16.242,7.354-36.245,11.2-57.554,11.2M123.077,194.88c-21.127,0-40.941,3.81-57.021,11.091-20.079,9.091-31.9,22.5-33.3,37.744-2.886,31.621,40.316,61.5,96.3,66.613,27.183,2.48,53.278-1.189,73.476-10.335,20.079-9.091,31.9-22.5,33.3-37.744,2.886-31.621-40.316-61.5-96.3-66.613-5.543-.506-11.044-.756-16.456-.756" transform="translate(-23.341 -144.161)" fill="#373c3f"/>
            <path id="Trazado_184844" data-name="Trazado 184844" d="M337.049,108.06c-22.6,16.211-54.967,21.841-87.17,12.5-21.185-6.145-38.967-17.8-51.619-32.408l28.753-57.921A49.9,49.9,0,0,1,285.607,4.5L287.351,5a33.241,33.241,0,0,1,19.143,14.9l0,0c.288.476.587.949.9,1.419.19.284.388.567.587.85.158.22.32.438.483.657.018.027.036.051.055.074.113.149.226.3.343.448.087.113.177.23.269.34.354.448.722.886,1.1,1.319.189.215.378.426.572.639s.415.451.63.674c.165.172.33.343.5.512.432.431.875.858,1.33,1.274.109.1.218.2.331.3.329.3.665.59,1.012.876.157.136.316.266.478.4a1.285,1.285,0,0,0,.1.081c.279.23.564.451.853.67.142.114.289.222.438.334.18.132.36.265.543.4.265.19.537.382.811.566.17.118.34.233.515.346a1.02,1.02,0,0,0,.1.065c.152.1.305.2.462.3q.644.416,1.316.807c.111.068.222.137.335.2.177.106.355.205.537.305.086.054.174.1.266.15.247.137.5.272.748.406a.793.793,0,0,0,.073.036c.2.1.4.21.6.308.149.076.3.153.455.227q.458.226.92.441c.186.087.37.169.556.252l.287.127c.258.115.517.223.781.332a.32.32,0,0,0,.055.023c.3.122.591.244.892.361.265.1.533.206.8.3.338.127.678.247,1.022.365.2.068.391.132.587.2.049.018.1.033.15.047.205.07.416.135.626.2.247.075.491.15.74.222l.091.026A14.092,14.092,0,0,1,340.686,48.2c.063.284.122.57.181.857.084.414.161.825.234,1.239.048.261.092.521.133.784.006.042.016.085.021.13q.075.475.14.947c0,.019.007.038.009.057q.133.972.226,1.954c.033.326.064.659.089.986a.076.076,0,0,1,0,.037q.04.5.069,1c0,.014,0,.026,0,.041.018.326.033.65.047.978a.014.014,0,0,0,0,.011c.011.338.022.676.026,1.015.006.3.009.607.006.908q0,1.169-.054,2.342-.016.394-.042.785c0,.072-.008.14-.012.2-.016.243-.034.481-.053.723-.033.416-.069.828-.113,1.244Z" transform="translate(-147.631 -1.871)" fill="#f8d06f"/>
            <path id="Trazado_184845" data-name="Trazado 184845" d="M279.07,123.834a113.544,113.544,0,0,1-31.586-4.536c-20.688-6-38.643-17.275-51.924-32.6l-.278-.321.189-.381,28.753-57.921A50.5,50.5,0,0,1,283.566,2.007l1.745.506A33.827,33.827,0,0,1,304.823,17.7l.011.019c.287.475.582.938.876,1.377.188.282.384.561.579.84.152.212.312.427.472.642l.044.06c.12.158.231.3.346.454l.044.056c.069.089.14.18.212.267.328.415.681.839,1.089,1.308.184.209.372.418.562.628s.405.441.616.659c.164.17.326.338.492.5.457.456.885.866,1.309,1.254.114.105.215.2.319.289.371.334.7.614,1,.866.163.142.316.266.472.392a.746.746,0,0,0,.064.051l.045.034c.239.2.5.4.832.653.123.1.235.182.348.266l.089.067.535.391c.257.184.524.372.793.554.171.119.335.229.5.337l.048.034.037.023.024.015c.148.1.3.2.449.293.42.272.854.538,1.293.794.12.074.219.135.32.191.192.114.364.209.539.306l.031.018c.073.046.148.085.225.127.224.124.44.24.654.355l.167.086c.206.108.392.207.581.3.154.078.3.153.45.224.308.152.61.3.914.439.182.085.362.166.546.248l.284.126c.255.114.51.22.767.326l.054.023c.3.123.586.242.879.355.259.1.523.2.789.3.341.128.675.246,1.013.362.186.064.371.125.555.185l.043.015c.035.013.072.023.108.033l.031.01c.194.067.393.128.592.189.257.078.5.152.744.223l.091.026a14.73,14.73,0,0,1,10.386,10.894c.064.286.123.575.183.865.085.421.163.838.237,1.258.048.262.094.529.135.8l.005.033c.006.034.012.069.017.105q.075.475.14.947v0c0,.027.008.05.011.073.091.66.168,1.326.227,1.961.032.32.063.651.088.977a.755.755,0,0,1,.005.1q.038.484.067.966v.006c0,.017,0,.034,0,.052.016.281.029.563.042.846l0,0,.007.2v0c.011.32.021.641.024.964.006.3.009.613.006.921,0,.756-.015,1.555-.054,2.366-.011.263-.025.53-.043.8,0,.04,0,.1-.008.154l0,.047c-.016.248-.035.489-.054.734-.034.422-.07.839-.115,1.262l-4.576,43.9-.233.167c-15.714,11.271-35.469,17.131-56.134,17.131M196.8,86.178c13.091,14.978,30.729,26,51.036,31.893,30.805,8.936,63.073,4.359,86.386-12.24l4.517-43.33c.044-.412.079-.819.112-1.229.019-.238.037-.473.053-.713l0-.051c0-.043.006-.087.008-.134.018-.276.032-.531.042-.788.038-.793.056-1.57.053-2.313,0-.3,0-.6-.006-.9s-.012-.581-.021-.868l-.039-.078.031-.146c-.013-.3-.027-.594-.044-.89v0c0-.017,0-.034,0-.051q-.029-.486-.068-.975l-.009-.119,0-.007c-.023-.294-.051-.591-.081-.883-.058-.622-.133-1.27-.223-1.931,0-.021-.007-.042-.01-.064q-.064-.462-.137-.926l0-.03c0-.014,0-.027-.007-.04l-.011-.065c-.039-.255-.082-.508-.129-.763-.073-.414-.148-.821-.231-1.228-.058-.281-.116-.564-.178-.845a13.454,13.454,0,0,0-9.5-9.943l-.091-.027c-.251-.073-.5-.148-.747-.224-.223-.068-.43-.132-.632-.2-.059-.017-.118-.035-.176-.056-.2-.064-.387-.126-.578-.193-.348-.12-.693-.242-1.037-.371-.266-.1-.539-.2-.809-.3-.3-.116-.592-.236-.885-.357-.038-.014-.071-.028-.1-.041-.261-.109-.519-.216-.775-.33l-.285-.126c-.193-.086-.38-.17-.569-.258q-.467-.218-.932-.447c-.152-.073-.309-.152-.463-.231-.19-.093-.388-.2-.587-.3-.032-.015-.074-.035-.115-.059l-.081-.043c-.219-.117-.439-.236-.657-.357-.089-.047-.184-.1-.278-.156-.184-.1-.364-.2-.543-.309-.1-.054-.217-.126-.336-.2-.449-.262-.9-.538-1.333-.819-.154-.1-.308-.2-.46-.3-.04-.025-.08-.051-.117-.077-.175-.113-.346-.229-.516-.347-.271-.183-.547-.378-.817-.571-.188-.137-.369-.27-.55-.4l-.092-.069c-.125-.093-.248-.185-.367-.281-.321-.242-.593-.456-.841-.659-.047-.034-.093-.071-.135-.107-.151-.121-.316-.256-.479-.4-.306-.252-.644-.544-1.02-.883-.106-.092-.216-.193-.326-.295-.447-.409-.889-.833-1.359-1.3-.173-.173-.341-.347-.508-.522-.219-.225-.431-.454-.642-.686-.2-.216-.388-.43-.579-.647-.423-.486-.788-.925-1.119-1.344-.071-.085-.15-.187-.228-.288l-.043-.056c-.119-.153-.233-.3-.348-.455-.019-.024-.043-.056-.068-.092-.161-.217-.323-.434-.48-.653-.2-.292-.406-.579-.6-.867-.308-.46-.617-.946-.918-1.444l-.012-.02a32.55,32.55,0,0,0-18.765-14.6l-1.745-.506a49.218,49.218,0,0,0-57.843,25.405Z" transform="translate(-145.413 0.005)" fill="#373c3f"/>
            <path id="Trazado_184846" data-name="Trazado 184846" d="M267.638,401.9l-59.371-17.222a33.2,33.2,0,0,1-20.486-46.647l.086-.171c12.652,14.6,30.434,26.262,51.619,32.408,32.2,9.341,64.567,3.711,87.17-12.5l-.495,4.753A45.964,45.964,0,0,1,267.638,401.9" transform="translate(-137.237 -251.579)" fill="#fae0a1"/>
            <path id="Trazado_184847" data-name="Trazado 184847" d="M278.637,401.048a46.684,46.684,0,0,1-13.017-1.855l-59.371-17.222a33.838,33.838,0,0,1-20.88-47.544l.516-1.026.625.721c13.119,15.141,30.863,26.28,51.314,32.212,30.909,8.966,63.289,4.328,86.62-12.406l1.154-.828-.642,6.166a46.623,46.623,0,0,1-46.318,41.781M186.18,335.685a32.561,32.561,0,0,0,20.424,45.06l59.371,17.222a45.325,45.325,0,0,0,57.71-38.832l.349-3.357c-23.552,16.3-55.792,20.71-86.567,11.783-20.36-5.906-38.072-16.919-51.288-31.876" transform="translate(-135.397 -248.26)" fill="#373c3f"/>
            <path id="Trazado_184848" data-name="Trazado 184848" d="M426.206,134.519a34.468,34.468,0,0,1,6.562-9.152c.644-.7,1.38-1.294,2.082-1.93.347-.325.726-.608,1.1-.9l1.121-.875c.38-.283.778-.542,1.168-.811s.779-.542,1.184-.789l1.223-.727c.408-.242.812-.493,1.238-.7a48.526,48.526,0,0,1,10.58-4.128,59.889,59.889,0,0,1,11.213-1.793,70.618,70.618,0,0,1,11.34.227,77.956,77.956,0,0,1,11.153,1.97c.911.246,1.825.482,2.733.737l2.7.837c.895.3,1.779.625,2.668.936l.665.237.657.261,1.313.522a85.545,85.545,0,0,1,10.136,4.934,108.922,108.922,0,0,0-10.36-4.348,89.152,89.152,0,0,0-10.746-3.147,84.215,84.215,0,0,0-11.035-1.735,71.23,71.23,0,0,0-11.144-.157,60.085,60.085,0,0,0-10.994,1.687,50.231,50.231,0,0,0-10.421,3.84,38.494,38.494,0,0,0-16.138,15" transform="translate(-317.365 -83.832)" fill="#373c3f"/>
            <g id="Grupo_141234" data-name="Grupo 141234" transform="translate(99.402 11.381)" opacity="0.2">
              <g id="Grupo_141233" data-name="Grupo 141233">
                <g id="Grupo_141232" data-name="Grupo 141232" clip-path="url(#clip-path-6)">
                  <path id="Trazado_184849" data-name="Trazado 184849" d="M488.4,245.936l-1.89-18.678c-.059-.562-.125-1.119-.2-1.675-.018-.123-.033-.243-.051-.363-.064-.472-.135-.942-.209-1.412l-.023-.148c-.008-.049-.015-.094-.023-.14-.046-.271-.095-.541-.143-.81-.026-.153-.054-.3-.084-.455-.038-.2-.077-.409-.117-.61,13.537-10.9,20.4-21.816,17.764-30.742a14.052,14.052,0,0,0-2.62-4.9v0a22.336,22.336,0,0,0-7.161-5.57,0,0,0,0,1,0,0l-.023-.01c-.235-.123-.47-.24-.71-.358-.043-.023-.089-.046-.133-.066-.23-.112-.465-.222-.7-.332-.051-.023-.1-.049-.156-.072-.253-.115-.513-.227-.774-.34-.033-.015-.066-.031-.1-.043-.3-.128-.6-.253-.909-.373-.743-.294-1.517-.575-2.314-.84,9.163-7.653,14.845-16.944,15.79-27.307,1.3-14.3-6.622-28.221-20.818-39.71l1.652-15.864c.043-.416.079-.827.112-1.244.02-.243.038-.48.054-.725.005-.064.01-.13.013-.2.018-.26.031-.524.041-.787.038-.781.059-1.56.054-2.342.005-.3,0-.6-.005-.907,0-.34-.015-.677-.026-1.016a.008.008,0,0,1,0-.01c-.015-.327-.031-.651-.048-.978,0-.015,0-.026,0-.041-.02-.332-.043-.667-.069-1a.1.1,0,0,0,0-.038c-.026-.327-.056-.659-.089-.986-.061-.654-.138-1.3-.225-1.954,0-.018-.008-.038-.01-.056-.043-.317-.089-.631-.14-.947-.005-.046-.015-.089-.02-.13-.041-.263-.084-.523-.133-.784-.072-.414-.148-.825-.232-1.239-.059-.286-.117-.572-.181-.858a13.558,13.558,0,0,0-.651-2.109.124.124,0,0,0-.01-.028c-.051-.13-.107-.26-.163-.388-.008-.018-.015-.036-.023-.051-.036-.084-.074-.169-.112-.253.181-.139.357-.278.536-.417a33.654,33.654,0,0,0-5.341-4.214c-3.137-1.893-7.041-2.346-10.471-3.522a15.684,15.684,0,0,1-8.707-6.492,24.761,24.761,0,0,0-4.644-5.008c-1.4-1.272-2.595-2.729-3.945-4.05-2.294-2.245-5.311-4.608-6.362-7.778-4.559,1.41-9.531,2.447-10.819,6.659-2.028,6.627,7.3,10.376,11.645,15.769,6.555,8.134.741,20.585-7.319,27.23s-18.4,10.935-24.194,19.628c12.554,2.487,24.324,15.889,18.79,27.429-2.081,4.339-6.093,7.362-9.589,10.669A59.63,59.63,0,0,0,403.779,192.8c-.074,2.3.089,4.865,1.726,6.486a8.132,8.132,0,0,0,4.341,1.857c11.111,2.079,24.638-.163,31.909,8.491,8.141,9.694,1.325,24.227-5.437,34.927-1.042,1.647-2.125,3.547-1.642,5.434.559,2.2,2.916,3.317,4.906,4.4,16.747,9.142,19.513,34.169,9.05,50.124s-30.067,23.706-49.047,25.665c-3.348.345-7.145.766-9.158,3.465a5.674,5.674,0,0,0-1.182,3.271c6.714,1.019,13.644,1.788,20.739,2.28,65.551,4.553,120.39-16.221,122.486-46.4,1.236-17.8-16.152-34.9-44.074-46.866" transform="translate(-389.246 -44.558)" fill="#d7d4d3"/>
                </g>
              </g>
            </g>
          </g>
        </g>
      </g>
    </g>
  </g>
</svg>
