<svg xmlns="http://www.w3.org/2000/svg" xmlns:xlink="http://www.w3.org/1999/xlink" width="143" height="143" viewBox="0 0 143 143">
  <defs>
    <filter id="Elipse_4850" x="0" y="0" width="143" height="143" filterUnits="userSpaceOnUse">
      <feOffset dy="3" input="SourceAlpha"/>
      <feGaussianBlur stdDeviation="3" result="blur"/>
      <feFlood flood-opacity="0.161"/>
      <feComposite operator="in" in2="blur"/>
      <feComposite in="SourceGraphic"/>
    </filter>
  </defs>
  <g id="letra2" transform="translate(-466 -6928.866)">
    <g transform="matrix(1, 0, 0, 1, 466, 6928.87)" filter="url(#Elipse_4850)">
      <circle id="Elipse_4850-2" data-name="Elipse 4850" cx="62.5" cy="62.5" r="62.5" transform="translate(9 6)" fill="#fff"/>
    </g>
    <ellipse id="Elipse_4851" data-name="Elipse 4851" cx="57" cy="56.5" rx="57" ry="56.5" transform="translate(480 6940.866)" fill="#ff0092"/>
    <path id="Trazado_184912" data-name="Trazado 184912" d="M12.633-10.11A10.9,10.9,0,0,1,10.951-4.6,10.149,10.149,0,0,1,6.634-.9,14.693,14.693,0,0,1,.287.41a11.725,11.725,0,0,1-9.27-3.835q-3.384-3.835-3.384-10.828v-1.477a18.074,18.074,0,0,1,1.528-7.68,11.576,11.576,0,0,1,4.4-5.086A12.273,12.273,0,0,1,.205-30.29a12.87,12.87,0,0,1,8.736,2.861,11.3,11.3,0,0,1,3.753,7.885H5.517a5.348,5.348,0,0,0-1.374-3.917A5.651,5.651,0,0,0,.205-24.65a4.3,4.3,0,0,0-3.937,2.01q-1.251,2.01-1.312,6.419v2.112q0,4.778,1.2,6.829A4.39,4.39,0,0,0,.287-5.229,5.527,5.527,0,0,0,4.081-6.4,4.961,4.961,0,0,0,5.476-10.11Z" transform="translate(535 7013.866)" fill="#fff"/>
  </g>
</svg>
