<svg xmlns="http://www.w3.org/2000/svg" xmlns:xlink="http://www.w3.org/1999/xlink" width="143" height="143" viewBox="0 0 143 143">
  <defs>
    <filter id="Elipse_4860" x="0" y="0" width="143" height="143" filterUnits="userSpaceOnUse">
      <feOffset dy="3" input="SourceAlpha"/>
      <feGaussianBlur stdDeviation="3" result="blur"/>
      <feFlood flood-opacity="0.161"/>
      <feComposite operator="in" in2="blur"/>
      <feComposite in="SourceGraphic"/>
    </filter>
  </defs>
  <g id="letra7" transform="translate(-466 -7616.866)">
    <g transform="matrix(1, 0, 0, 1, 466, 7616.87)" filter="url(#Elipse_4860)">
      <circle id="Elipse_4860-2" data-name="Elipse 4860" cx="62.5" cy="62.5" r="62.5" transform="translate(9 6)" fill="#fff"/>
    </g>
    <ellipse id="Elipse_4861" data-name="Elipse 4861" cx="57" cy="56.5" rx="57" ry="56.5" transform="translate(480 7628.866)" fill="#214be5"/>
    <path id="Trazado_184917" data-name="Trazado 184917" d="M-.349-10.562h-3.9V0h-7.2V-29.859H.308q5.312,0,8.306,2.356a7.983,7.983,0,0,1,2.994,6.658,9.7,9.7,0,0,1-1.261,5.163A8.952,8.952,0,0,1,6.4-12.364L12.633-.308V0H4.922Zm-3.9-5.537H.308a4.087,4.087,0,0,0,3.086-1.079A4.173,4.173,0,0,0,4.43-20.19a4.222,4.222,0,0,0-1.046-3.032,4.048,4.048,0,0,0-3.076-1.1H-4.245Z" transform="translate(537 7701.866)" fill="#fff"/>
  </g>
</svg>
