<svg xmlns="http://www.w3.org/2000/svg" width="1030" height="317.656" viewBox="0 0 1030 317.656">
  <g id="img1" transform="translate(-285 -1414.96)">
    <g id="Grupo_140352" data-name="Grupo 140352" transform="translate(285 1414.96)">
      <g id="Grupo_140351" data-name="Grupo 140351" transform="translate(0 0)">
        <path id="Trazado_182249" data-name="Trazado 182249" d="M1369.11,637.53a89.332,89.332,0,0,0-66.178-149.338c-.185,0-.368.006-.552.007a89.151,89.151,0,0,0-89.368,89.049v.23a35.786,35.786,0,0,1-21.172,32.711l-4.73,2.116c-12.594,5.635-27.533,3.685-37.715-5.624a89.372,89.372,0,0,0-22.493-15.009c-.088-.04-.173-.084-.26-.124-.916-.425-1.844-.826-2.777-1.22-.353-.149-.7-.3-1.059-.448-.729-.3-1.466-.576-2.2-.853-.574-.217-1.147-.434-1.727-.639s-1.149-.391-1.727-.582c-.758-.251-1.518-.5-2.285-.726-.446-.133-.9-.26-1.345-.387q-1.354-.384-2.723-.728c-.358-.089-.718-.173-1.077-.257q-1.5-.353-3.012-.656c-.32-.063-.641-.123-.962-.184q-1.549-.288-3.114-.524c-.341-.051-.683-.1-1.025-.148q-1.494-.206-3-.359c-.433-.045-.867-.088-1.3-.126-.412-.036-.818-.089-1.231-.119s-.845-.036-1.269-.061q-1.124-.069-2.256-.107-1.057-.038-2.11-.051c-.357,0-.71-.025-1.066-.025-.479,0-.95.025-1.427.034-.613.009-1.227.02-1.837.042-.906.033-1.807.086-2.706.147-.534.035-1.068.065-1.6.111-1.012.086-2.016.2-3.018.317-.414.049-.829.089-1.241.144-1.231.164-2.454.359-3.669.573-.176.032-.356.055-.531.087a88.236,88.236,0,0,0-12.67,3.3l-.046.017q-2,.685-3.954,1.462c-.1.042-.207.086-.311.128q-1.826.731-3.61,1.54c-.135.061-.268.124-.4.186q-1.752.805-3.462,1.681l-.364.189q-1.742.9-3.439,1.881l-.252.145q-1.783,1.035-3.511,2.147l-.053.034a89.481,89.481,0,0,0-10.541,7.929c-.452.4-.923.76-1.389,1.133a39.374,39.374,0,0,1-40.151,4.62h0a40.068,40.068,0,0,1-23.446-35.961q-.055-2.477-.247-4.982a88.628,88.628,0,0,0-25.633-55.6l-.042-.043q-1.246-1.256-2.544-2.459c-.11-.1-.217-.206-.326-.308-.778-.717-1.571-1.415-2.374-2.1-.205-.177-.408-.359-.616-.534-.72-.607-1.454-1.2-2.192-1.782-.3-.241-.6-.486-.911-.722-.662-.511-1.337-1.006-2.014-1.5-.4-.289-.792-.583-1.193-.866-.609-.428-1.229-.84-1.848-1.254-.485-.322-.965-.648-1.456-.962-.563-.359-1.135-.7-1.707-1.052s-1.119-.682-1.686-1.011c-.527-.3-1.061-.6-1.595-.89-.624-.345-1.247-.688-1.879-1.018-.5-.26-1.011-.51-1.518-.761-.676-.336-1.353-.671-2.039-.99-.484-.226-.975-.439-1.464-.655-.718-.318-1.437-.635-2.165-.935-.48-.2-.965-.384-1.45-.573-.743-.29-1.487-.579-2.24-.85-.494-.177-.992-.344-1.489-.513-.753-.255-1.505-.508-2.266-.744-.515-.16-1.035-.307-1.555-.457-.75-.218-1.5-.432-2.259-.63-.551-.144-1.106-.274-1.661-.407-.732-.176-1.463-.35-2.2-.507-.6-.127-1.2-.24-1.8-.355-.706-.134-1.412-.269-2.123-.387-.649-.107-1.3-.2-1.956-.293s-1.335-.19-2.007-.27c-.709-.084-1.421-.151-2.134-.218-.421-.04-.838-.1-1.261-.13-.182-.014-.361-.014-.543-.028-.282-.021-.561-.055-.843-.073-.725-.047-1.442-.052-2.163-.08-.694-.029-1.389-.066-2.079-.078-.934-.016-1.86,0-2.787.013-.722.009-1.447.007-2.165.034-.861.033-1.713.1-2.568.156-.773.051-1.55.088-2.318.159-.734.068-1.459.169-2.188.255-.872.1-1.749.19-2.613.318-.354.051-.7.125-1.051.181a88.24,88.24,0,0,0-12,2.782c-.146.046-.3.082-.441.128-1.2.374-2.374.788-3.549,1.211-.271.1-.546.185-.817.285-1.13.42-2.242.876-3.35,1.339-.3.126-.6.242-.9.371-1.1.473-2.174.978-3.245,1.493-.294.142-.592.275-.885.42-1.066.527-2.116,1.083-3.159,1.651-.284.155-.57.3-.852.463-1.043.583-2.068,1.192-3.085,1.815-.263.162-.53.32-.793.486-1.023.642-2.029,1.308-3.025,1.99-.237.163-.475.325-.711.489q-1.511,1.057-2.973,2.175c-.205.157-.411.314-.615.472q-1.489,1.158-2.928,2.375-.252.213-.5.429-1.475,1.266-2.892,2.594c-.124.116-.246.233-.368.349q-1.466,1.389-2.87,2.84c-.071.074-.139.148-.209.222q-1.466,1.529-2.861,3.126l-.026.031a88.647,88.647,0,0,0-21.858,58.651,35.786,35.786,0,0,1-21.169,32.669l-4.731,2.116c-12.594,5.635-27.533,3.685-37.716-5.624a88.871,88.871,0,0,0-118.667-1.237,38.2,38.2,0,0,1-40.79,6.105l-.658-.295a40.113,40.113,0,0,1-23.575-36.015q-.049-2.211-.207-4.446c-3.082-43.473-38.161-78.873-81.607-82.314a89.15,89.15,0,0,0-95.981,96.03c3.454,43.345,38.721,78.367,82.088,81.546a88.715,88.715,0,0,0,65.045-21.611,39.325,39.325,0,0,1,41.851-5.991,40.065,40.065,0,0,1,23.446,35.959,92.417,92.417,0,0,0,.687,9.357,89.063,89.063,0,0,0,177.4-11.369v-.23a35.784,35.784,0,0,1,21.171-32.71l4.731-2.117c12.594-5.634,27.533-3.685,37.716,5.625a89.406,89.406,0,0,0,22.48,15c.09.042.176.086.266.128.921.426,1.853.83,2.791,1.226.346.147.69.3,1.038.44.735.3,1.478.581,2.223.861.57.216,1.139.431,1.714.635s1.156.393,1.737.584c.753.249,1.509.494,2.272.723.452.135.907.263,1.362.391q1.347.382,2.708.724c.361.09.726.175,1.09.26q1.49.351,3,.653c.324.064.649.125.974.186q1.548.29,3.11.524.51.077,1.02.147,1.493.206,3,.36c.435.045.871.088,1.309.126.407.036.809.088,1.218.118.425.032.845.036,1.269.061q1.13.07,2.268.109,1.052.036,2.1.05c.359,0,.715.025,1.077.025.486,0,.966-.025,1.45-.033.592-.01,1.183-.02,1.772-.041.926-.033,1.848-.087,2.766-.148.509-.034,1.019-.062,1.526-.1,1.056-.09,2.1-.205,3.149-.33.363-.044.729-.077,1.091-.125a88.34,88.34,0,0,0,12.74-2.654c.067-.019.135-.041.2-.061q1.951-.564,3.863-1.216c.166-.056.33-.118.495-.175q1.773-.615,3.511-1.3c.187-.073.371-.15.557-.225q1.717-.69,3.4-1.45l.5-.229q1.735-.8,3.428-1.665c.111-.057.224-.113.335-.171q1.835-.951,3.621-1.98l.022-.012a89.543,89.543,0,0,0,13.565-9.613,39.6,39.6,0,0,1,65.637,29.642,92.118,92.118,0,0,0,.687,9.357c.1.764.267,1.5.382,2.26q.2,1.3.438,2.587.571,3.134,1.368,6.186c.055.208.106.417.163.625a89.456,89.456,0,0,0,51.566,59.06c.121.051.24.106.361.157q2.017.839,4.076,1.579c1.162.42,2.335.821,3.519,1.192.965.3,1.933.586,2.911.854q2.421.669,4.891,1.2c.7.149,1.4.283,2.111.415,1.936.367,3.891.68,5.867.917.154.018.3.054.457.072.457.05.91.071,1.367.115.557.056,1.111.127,1.671.172.3.024.6.026.9.047.924.063,1.845.106,2.763.142.778.031,1.554.06,2.328.07.865.012,1.727,0,2.587-.011.813-.012,1.625-.024,2.434-.059s1.6-.089,2.4-.145c.854-.059,1.708-.118,2.556-.2.73-.071,1.454-.164,2.178-.253.9-.111,1.8-.222,2.7-.359.653-.1,1.3-.221,1.948-.337.949-.168,1.9-.336,2.833-.534.57-.12,1.132-.26,1.7-.39,1-.232,2-.466,2.994-.732.473-.128.94-.273,1.411-.408,1.064-.3,2.128-.614,3.175-.958.365-.119.723-.254,1.085-.378,1.14-.39,2.276-.789,3.395-1.224.233-.091.459-.191.69-.283,1.237-.493,2.465-1,3.673-1.547.067-.031.134-.064.2-.1a89.142,89.142,0,0,0,52.309-81.387,35.783,35.783,0,0,1,21.17-32.663l4.731-2.117c12.594-5.634,27.533-3.685,37.715,5.625,1.222,1.118,2.486,2.189,3.77,3.239a89.32,89.32,0,0,0,120.714-5.952c.643-.362,1.292-.714,1.951-1.041C1368.7,638.651,1368.909,638.09,1369.11,637.53Z" transform="translate(-362.265 -488.191)" fill="#214be5"/>
        <circle id="Elipse_4746" data-name="Elipse 4746" cx="65.809" cy="65.809" r="65.809" transform="translate(18.125 149.31) rotate(-85.348)" fill="#fff"/>
        <circle id="Elipse_4747" data-name="Elipse 4747" cx="65.809" cy="65.809" r="65.809" transform="translate(235.941 118.399)" fill="#fff"/>
        <g id="Grupo_140343" data-name="Grupo 140343" transform="translate(255.641 143.065)">
          <path id="Trazado_182250" data-name="Trazado 182250" d="M679.236,672.622a12.04,12.04,0,1,0,12.04,12.04A12.054,12.054,0,0,0,679.236,672.622Zm0,19.264a7.224,7.224,0,1,1,7.224-7.224A7.232,7.232,0,0,1,679.236,691.886Z" transform="translate(-638.139 -643.494)" fill="#00bab5"/>
          <path id="Trazado_182251" data-name="Trazado 182251" d="M679.85,688.682l-3.406-3.405,3.406-3.406,3.406,3.406Z" transform="translate(-638.753 -644.108)" fill="#00bab5"/>
          <path id="Trazado_182252" data-name="Trazado 182252" d="M699.394,698.149a69.642,69.642,0,0,0-.676-14.454A75.45,75.45,0,0,0,684,649.6l-6.133-8.178-6.134,8.178A75.459,75.459,0,0,0,657.015,683.7a69.586,69.586,0,0,0-.675,14.454,23.542,23.542,0,0,0-9.778,19.1V723.7l5-3.665a21.524,21.524,0,0,1,8.292-3.272c.912,2.841,1.586,4.465,2.5,6.944,1.589-1.063,5.407-5.776,13.1-6.7v6.679h4.816V717.01c7.72.926,11.531,5.649,13.1,6.7.921-2.495,1.589-4.1,2.5-6.944a21.52,21.52,0,0,1,8.291,3.272l5,3.665v-6.457A23.544,23.544,0,0,0,699.394,698.149Zm-47.812,16.318a18.565,18.565,0,0,1,5.326-10.517,74.733,74.733,0,0,0,1.607,8.162A26.376,26.376,0,0,0,651.582,714.468Zm39.53,1.382a24.9,24.9,0,0,0-10.838-3.682V699.609h-4.817v12.558a24.9,24.9,0,0,0-10.838,3.682c-7.184-21.9-3.341-44.284,10.966-63.358l2.281-3.041,2.281,3.041C694.453,671.566,698.3,693.951,691.113,715.849Zm6.105-3.736a74.738,74.738,0,0,0,1.608-8.162,18.558,18.558,0,0,1,5.326,10.517A26.365,26.365,0,0,0,697.218,712.113Z" transform="translate(-636.77 -641.424)" fill="#00bab5"/>
          <path id="Trazado_182253" data-name="Trazado 182253" d="M636.074,662.3h14.609v4.817H636.074Z" transform="translate(-636.074 -642.81)" fill="#00bab5"/>
          <path id="Trazado_182254" data-name="Trazado 182254" d="M708.463,662.3h14.608v4.817H708.463Z" transform="translate(-640.877 -642.81)" fill="#00bab5"/>
          <path id="Trazado_182255" data-name="Trazado 182255" d="M641.3,644.017l13.094,6.105-2.035,4.366-13.094-6.106Z" transform="translate(-636.286 -641.596)" fill="#00bab5"/>
          <path id="Trazado_182256" data-name="Trazado 182256" d="M717.808,685.01,704.714,678.9l2.035-4.365,13.094,6.106Z" transform="translate(-640.629 -643.621)" fill="#00bab5"/>
          <path id="Trazado_182257" data-name="Trazado 182257" d="M639.263,680.643l13.094-6.105,2.035,4.364L641.3,685.008Z" transform="translate(-636.286 -643.621)" fill="#00bab5"/>
          <path id="Trazado_182258" data-name="Trazado 182258" d="M717.809,644.016l2.035,4.364-13.094,6.106-2.035-4.364Z" transform="translate(-640.629 -641.596)" fill="#00bab5"/>
        </g>
        <circle id="Elipse_4748" data-name="Elipse 4748" cx="65.809" cy="65.809" r="65.809" transform="translate(438.851 143.34) rotate(-80.682)" fill="#fff"/>
        <circle id="Elipse_4749" data-name="Elipse 4749" cx="65.809" cy="65.809" r="65.809" transform="translate(864.225 143.34) rotate(-80.682)" fill="#fff"/>
        <circle id="Elipse_4750" data-name="Elipse 4750" cx="65.809" cy="65.809" r="65.809" transform="translate(661.334 118.399)" fill="#fff"/>
        <g id="Grupo_140344" data-name="Grupo 140344" transform="translate(40.88 55.52)">
          <path id="Trazado_182259" data-name="Trazado 182259" d="M489.806,586.509a1.422,1.422,0,0,1-1.3-.842l-13.257-29.74a1.422,1.422,0,0,1,.6-1.816l11.107-6.269a1.421,1.421,0,0,1,2.062.838l9.674,32.963a1.421,1.421,0,0,1-.831,1.718l-7.524,3.046A1.41,1.41,0,0,1,489.806,586.509Zm-11.433-30.558,12.172,27.3,5.059-2.048L486.795,551.2Z" transform="translate(-410.633 -547.658)" fill="#00bab5"/>
          <path id="Trazado_182260" data-name="Trazado 182260" d="M476.437,595.04a1.423,1.423,0,0,1-.822-.261l-11.376-8.063a1.421,1.421,0,1,1,1.643-2.319l11,7.793c1.908-.064,3.159-.559,3.722-1.473.882-1.436.119-3.9-.363-5.015-2.892-2-22.9-15.829-24.508-17a1.672,1.672,0,0,0-2.162-.183c-.767.96-6.536,7.858-12.849,6.327a1.454,1.454,0,0,1-.31-.115,5.693,5.693,0,0,1-3.316-3.857,6.516,6.516,0,0,1,1.421-5.038,1.407,1.407,0,0,1,.126-.134c.32-.3,7.885-7.348,11.3-9.607,3.328-2.205,7.38-1.337,11.671-.416l1.06.226c4.2.88,11.766-.012,11.842-.021a1.421,1.421,0,0,1,.339,2.822c-.328.04-8.109.958-12.766-.021l-1.072-.229c-3.848-.824-7.173-1.538-9.5.007-3.04,2.014-10.025,8.478-10.848,9.243a3.676,3.676,0,0,0-.779,2.6,2.933,2.933,0,0,0,1.668,1.812c4.005.823,8.452-3.625,9.847-5.435a1.191,1.191,0,0,1,.12-.137,4.464,4.464,0,0,1,5.886-.146c1.675,1.218,24.539,17.021,24.77,17.181a1.421,1.421,0,0,1,.461.528c.247.491,2.365,4.887.391,8.1C481.865,594.086,479.65,595.04,476.437,595.04Z" transform="translate(-408.103 -548.126)" fill="#00bab5"/>
          <path id="Trazado_182261" data-name="Trazado 182261" d="M471.859,604.5c-.181,0-.294-.006-.32-.008a1.431,1.431,0,0,1-.761-.274l-11.287-8.331a1.421,1.421,0,0,1,1.687-2.287l10.913,8.055a5.441,5.441,0,0,0,3.752-1.418,4.388,4.388,0,0,0,.649-3.8,1.422,1.422,0,0,1,2.8-.511c.473,2.59.028,4.679-1.324,6.207C476.031,604.318,472.875,604.5,471.859,604.5Z" transform="translate(-409.557 -550.688)" fill="#00bab5"/>
          <path id="Trazado_182262" data-name="Trazado 182262" d="M465.086,611.278c-.2,0-.331-.006-.359-.009a1.41,1.41,0,0,1-.84-.342l-7.167-6.176a1.421,1.421,0,0,1,1.855-2.152l6.769,5.832a5.785,5.785,0,0,0,3.812-1.372,3.918,3.918,0,0,0,.872-3.255,1.421,1.421,0,1,1,2.83-.268,6.65,6.65,0,0,1-1.667,5.508C469.208,611.093,466.134,611.278,465.086,611.278Z" transform="translate(-409.379 -551.28)" fill="#00bab5"/>
          <path id="Trazado_182263" data-name="Trazado 182263" d="M458.4,617.674a8.939,8.939,0,0,1-1.215-.073,1.426,1.426,0,0,1-.725-.333l-4.434-3.854a1.421,1.421,0,0,1,1.864-2.146l4.089,3.553a5.733,5.733,0,0,0,3.937-1.062,4.186,4.186,0,0,0,1.166-3.433,1.419,1.419,0,0,1,1.384-1.457h.037a1.42,1.42,0,0,1,1.42,1.385,6.912,6.912,0,0,1-2.132,5.642A8.2,8.2,0,0,1,458.4,617.674Z" transform="translate(-409.068 -551.719)" fill="#00bab5"/>
          <path id="Trazado_182264" data-name="Trazado 182264" d="M484.621,587.7c-.389,0-.712-.011-.935-.023a1.421,1.421,0,0,1,.144-2.838c1.9.094,4.018-.2,4.439-.623a1.421,1.421,0,1,1,2.009,2.009C489.005,587.5,486.243,587.7,484.621,587.7Z" transform="translate(-411.112 -550.056)" fill="#00bab5"/>
          <path id="Trazado_182265" data-name="Trazado 182265" d="M437.159,563.854a4.065,4.065,0,0,1-1.346-.19c-2.338-.843-8.488-4.976-9.182-5.445a1.422,1.422,0,0,1,1.593-2.356c1.8,1.218,6.854,4.514,8.553,5.126.92.331,5.37-.859,9.521-2.545a1.421,1.421,0,0,1,1.07,2.634C445.6,561.8,440.261,563.854,437.159,563.854Z" transform="translate(-407.374 -548.186)" fill="#00bab5"/>
          <path id="Trazado_182266" data-name="Trazado 182266" d="M421.087,590.251a1.42,1.42,0,0,1-1.216-.682c-.723-1.188-3.172-1.732-3.973-1.829a1.421,1.421,0,0,1,.333-2.823c.457.054,4.5.6,6.067,3.174a1.421,1.421,0,0,1-1.212,2.16Z" transform="translate(-406.62 -550.129)" fill="#00bab5"/>
          <path id="Trazado_182267" data-name="Trazado 182267" d="M414.994,586.51a1.414,1.414,0,0,1-.519-.1l-7.524-2.956a1.421,1.421,0,0,1-.855-1.681l8.6-33.054a1.421,1.421,0,0,1,2.039-.9l11.2,5.912a1.421,1.421,0,0,1,.653,1.793l-12.272,30.1A1.421,1.421,0,0,1,414.994,586.51Zm-5.831-5.24,5.045,1.982,11.255-27.605-8.47-4.473Z" transform="translate(-406.05 -547.658)" fill="#00bab5"/>
          <path id="Trazado_182268" data-name="Trazado 182268" d="M422.813,600.6a6.177,6.177,0,0,1-4.929-9.907l4.5-5.915a6.18,6.18,0,0,1,9.837,7.482l-4.5,5.917A6.154,6.154,0,0,1,422.813,600.6Zm4.475-15.4a3.308,3.308,0,0,0-2.642,1.3h0l-4.5,5.915a3.284,3.284,0,0,0-.643,2.456,3.342,3.342,0,0,0,5.957,1.584l4.5-5.916a3.338,3.338,0,0,0-2.67-5.343Zm-3.773.443h0Z" transform="translate(-406.752 -549.96)" fill="#00bab5"/>
          <path id="Trazado_182269" data-name="Trazado 182269" d="M430.156,607.943a6.177,6.177,0,0,1-4.929-9.907l4.5-5.915a6.18,6.18,0,0,1,9.837,7.482l-4.5,5.917A6.15,6.15,0,0,1,430.156,607.943Zm4.475-15.4a3.308,3.308,0,0,0-2.642,1.3h0l-4.5,5.915a3.282,3.282,0,0,0-.643,2.456A3.342,3.342,0,0,0,432.8,603.8l4.5-5.917a3.338,3.338,0,0,0-2.67-5.343Zm-3.773.443h0Z" transform="translate(-407.239 -550.447)" fill="#00bab5"/>
          <path id="Trazado_182270" data-name="Trazado 182270" d="M439,612.969a6.4,6.4,0,0,1-6.156-5,5.093,5.093,0,0,1,.9-4.162l3.744-4.922h0a5.952,5.952,0,0,1,9.428,7.173l-3.744,4.92a5.084,5.084,0,0,1-3.771,1.979C439.266,612.964,439.131,612.969,439,612.969Zm.752-12.365-3.744,4.922a2.287,2.287,0,0,0-.378,1.873,3.545,3.545,0,0,0,3.577,2.721,2.286,2.286,0,0,0,1.7-.864l3.745-4.922a3.142,3.142,0,0,0-4.9-3.73Z" transform="translate(-407.82 -550.925)" fill="#00bab5"/>
          <path id="Trazado_182271" data-name="Trazado 182271" d="M446.778,617.765a6.042,6.042,0,0,1-3.63-1.27c-2.42-1.84-3.1-5.031-1.517-7.114l3.156-4.147h0c1.583-2.08,4.841-2.275,7.26-.437a5.926,5.926,0,0,1,2.336,3.846,4.374,4.374,0,0,1-.819,3.27l-3.154,4.147a4.474,4.474,0,0,1-3.464,1.7Zm.27-10.81-3.155,4.146c-.624.821-.177,2.255.976,3.131a3.237,3.237,0,0,0,1.989.688,1.668,1.668,0,0,0,1.29-.584l3.155-4.147a1.556,1.556,0,0,0,.264-1.165,3.114,3.114,0,0,0-1.239-1.965c-1.154-.876-2.655-.924-3.28-.1Z" transform="translate(-408.354 -551.365)" fill="#00bab5"/>
        </g>
        <g id="Grupo_140345" data-name="Grupo 140345" transform="translate(471.819 52.194)">
          <path id="Trazado_182272" data-name="Trazado 182272" d="M952.548,553.756l-9.556,4.778-2.137-4.273,9.557-4.778Z" transform="translate(-872.476 -544.452)" fill="#00bab5"/>
          <path id="Trazado_182273" data-name="Trazado 182273" d="M950.411,594.364l-9.556-4.777,2.136-4.274,9.557,4.778Z" transform="translate(-872.476 -546.83)" fill="#00bab5"/>
          <path id="Trazado_182274" data-name="Trazado 182274" d="M944.556,569.685h9.716v4.778h-9.716Z" transform="translate(-872.721 -545.793)" fill="#00bab5"/>
          <path id="Trazado_182275" data-name="Trazado 182275" d="M871.338,549.483l9.557,4.778-2.137,4.274-9.556-4.778Z" transform="translate(-867.721 -544.452)" fill="#00bab5"/>
          <path id="Trazado_182276" data-name="Trazado 182276" d="M871.337,594.362l-2.137-4.273,9.557-4.778,2.137,4.273Z" transform="translate(-867.721 -546.83)" fill="#00bab5"/>
          <path id="Trazado_182277" data-name="Trazado 182277" d="M867.616,569.685h9.716v4.778h-9.716Z" transform="translate(-867.616 -545.793)" fill="#00bab5"/>
          <path id="Trazado_182278" data-name="Trazado 182278" d="M903.613,626.324h14.334V631.1H903.613Z" transform="translate(-870.005 -549.551)" fill="#00bab5"/>
          <path id="Trazado_182279" data-name="Trazado 182279" d="M935.7,570.376a26.281,26.281,0,1,0-38.226,23.377v7.683H892.7v4.778h4.778v9.875h23.891v-9.875h4.778v-4.778h-4.778v-7.683A26.293,26.293,0,0,0,935.7,570.376Zm-19.114,40.935H902.255v-5.1h14.334Zm-9.556-36.156a2.389,2.389,0,1,1,2.388,2.389A2.392,2.392,0,0,1,907.033,575.155Zm4.778,26.281V581.912a7.168,7.168,0,1,0-4.778,0v19.523h-4.778V590.683l-1.429-.627a21.5,21.5,0,1,1,17.193,0l-1.429.627v10.753Z" transform="translate(-868.646 -544.095)" fill="#00bab5"/>
        </g>
        <g id="Grupo_140349" data-name="Grupo 140349" transform="translate(683.245 141.01)">
          <g id="Grupo_140346" data-name="Grupo 140346" transform="translate(0 36.132)">
            <path id="Trazado_182280" data-name="Trazado 182280" d="M1123.477,723.992a16.66,16.66,0,1,1,16.66-16.66A16.678,16.678,0,0,1,1123.477,723.992Zm0-31.046a14.386,14.386,0,1,0,14.386,14.386A14.4,14.4,0,0,0,1123.477,692.946Z" transform="translate(-1094.915 -678.77)" fill="#00bab5"/>
            <path id="Trazado_182281" data-name="Trazado 182281" d="M1123.8,719.762a12.107,12.107,0,1,1,12.107-12.107A12.12,12.12,0,0,1,1123.8,719.762Zm0-21.938a9.832,9.832,0,1,0,9.832,9.831A9.843,9.843,0,0,0,1123.8,697.824Z" transform="translate(-1095.239 -679.094)" fill="#00bab5"/>
            <path id="Trazado_182282" data-name="Trazado 182282" d="M1127.114,735.048h-8.965a1.138,1.138,0,0,1-1.137-1.137v-3.349a24.448,24.448,0,0,1-7.433-3.075l-2.367,2.365a1.136,1.136,0,0,1-1.608,0l-6.339-6.339a1.138,1.138,0,0,1,0-1.608l2.366-2.367a24.449,24.449,0,0,1-3.075-7.434h-3.349a1.138,1.138,0,0,1-1.137-1.137V702a1.138,1.138,0,0,1,1.137-1.137h3.35a24.423,24.423,0,0,1,3.075-7.434l-2.367-2.367a1.138,1.138,0,0,1,0-1.608l6.339-6.339a1.138,1.138,0,0,1,1.608,0l2.367,2.366a24.422,24.422,0,0,1,7.433-3.075v-3.35a1.138,1.138,0,0,1,1.137-1.137h8.965a1.138,1.138,0,0,1,1.137,1.137v3.35a24.422,24.422,0,0,1,7.433,3.075l2.367-2.366a1.138,1.138,0,0,1,1.608,0l6.339,6.339a1.138,1.138,0,0,1,0,1.608l-2.366,2.367a24.417,24.417,0,0,1,3.075,7.434h3.35a1.138,1.138,0,0,1,1.137,1.137v8.963a1.138,1.138,0,0,1-1.137,1.137h-3.35a24.421,24.421,0,0,1-3.075,7.435l2.366,2.366a1.138,1.138,0,0,1,0,1.608l-6.339,6.339a1.17,1.17,0,0,1-1.608,0l-2.367-2.365a24.448,24.448,0,0,1-7.433,3.075v3.349A1.138,1.138,0,0,1,1127.114,735.048Zm-7.828-2.274h6.69V729.64a1.139,1.139,0,0,1,.923-1.117,22.191,22.191,0,0,0,8.3-3.435,1.138,1.138,0,0,1,1.442.137l2.214,2.214,4.73-4.731-2.214-2.214a1.136,1.136,0,0,1-.137-1.442,22.2,22.2,0,0,0,3.436-8.3,1.136,1.136,0,0,1,1.117-.922h3.133v-6.689h-3.133a1.137,1.137,0,0,1-1.117-.922,22.2,22.2,0,0,0-3.436-8.3,1.136,1.136,0,0,1,.137-1.442l2.214-2.214-4.73-4.73-2.214,2.213a1.136,1.136,0,0,1-1.442.138,22.209,22.209,0,0,0-8.3-3.436,1.137,1.137,0,0,1-.923-1.117V680.2h-6.69v3.133a1.136,1.136,0,0,1-.922,1.117,22.221,22.221,0,0,0-8.3,3.436,1.136,1.136,0,0,1-1.442-.138l-2.213-2.213-4.731,4.73,2.214,2.214a1.137,1.137,0,0,1,.138,1.442,22.2,22.2,0,0,0-3.436,8.3,1.137,1.137,0,0,1-1.117.922h-3.133v6.689h3.132a1.137,1.137,0,0,1,1.117.922,22.217,22.217,0,0,0,3.436,8.3,1.136,1.136,0,0,1-.137,1.442l-2.214,2.214,4.731,4.731,2.213-2.214a1.139,1.139,0,0,1,1.442-.137,22.2,22.2,0,0,0,8.3,3.435,1.138,1.138,0,0,1,.922,1.117Z" transform="translate(-1094.069 -677.924)" fill="#00bab5"/>
          </g>
          <g id="Grupo_140347" data-name="Grupo 140347" transform="translate(47.177 12.224)">
            <path id="Trazado_182283" data-name="Trazado 182283" d="M1168.432,689.608a13.452,13.452,0,1,1,1.49-.082A13.646,13.646,0,0,1,1168.432,689.608Zm.031-24.628a11.333,11.333,0,0,0-1.254.069,11.176,11.176,0,1,0,12.338,9.877h0a11.176,11.176,0,0,0-11.084-9.946Z" transform="translate(-1145.288 -653.006)" fill="#00bab5"/>
            <path id="Trazado_182284" data-name="Trazado 182284" d="M1168.677,686.253a9.84,9.84,0,0,1-1.064-19.62,9.839,9.839,0,1,1,1.064,19.62Zm.024-17.4a7.667,7.667,0,0,0-.839.047,7.558,7.558,0,1,0,.839-.047Z" transform="translate(-1145.545 -653.263)" fill="#00bab5"/>
            <path id="Trazado_182285" data-name="Trazado 182285" d="M1166.611,698.618a1.138,1.138,0,0,1-1.13-1.012l-.272-2.455a19.651,19.651,0,0,1-5.849-1.7l-1.542,1.927a1.137,1.137,0,0,1-.763.42,1.149,1.149,0,0,1-.836-.244l-5.551-4.443a1.136,1.136,0,0,1-.177-1.6l1.542-1.927a19.585,19.585,0,0,1-2.934-5.336l-2.456.272a1.15,1.15,0,0,1-1.256-1.006l-.783-7.066a1.137,1.137,0,0,1,1.006-1.256l2.455-.272a19.625,19.625,0,0,1,1.7-5.849l-1.928-1.542a1.138,1.138,0,0,1-.177-1.6l4.444-5.551a1.136,1.136,0,0,1,1.6-.177l1.927,1.542a19.622,19.622,0,0,1,5.336-2.934l-.272-2.455a1.137,1.137,0,0,1,1.006-1.256l7.067-.783a1.138,1.138,0,0,1,1.256,1.006l.272,2.455a19.623,19.623,0,0,1,5.848,1.7l1.542-1.927a1.137,1.137,0,0,1,1.6-.176l5.551,4.443a1.135,1.135,0,0,1,.177,1.6l-1.541,1.926a19.591,19.591,0,0,1,2.933,5.337l2.455-.273a1.138,1.138,0,0,1,1.256,1.006l.782,7.067a1.138,1.138,0,0,1-1.006,1.256l-2.453.272a19.588,19.588,0,0,1-1.7,5.849l1.927,1.542a1.136,1.136,0,0,1,.177,1.6l-4.443,5.552a1.139,1.139,0,0,1-.763.42,1.155,1.155,0,0,1-.836-.243l-1.928-1.542a19.612,19.612,0,0,1-5.336,2.934l.274,2.455a1.138,1.138,0,0,1-1.006,1.257l-7.068.783C1166.7,698.615,1166.654,698.618,1166.611,698.618Zm-7.565-7.726a1.12,1.12,0,0,1,.529.132,17.4,17.4,0,0,0,6.755,1.957,1.138,1.138,0,0,1,1.039,1.008l.247,2.236,4.807-.533-.249-2.235a1.139,1.139,0,0,1,.794-1.212,17.4,17.4,0,0,0,6.163-3.389,1.138,1.138,0,0,1,1.448-.021l1.755,1.405,3.021-3.776-1.754-1.4a1.137,1.137,0,0,1-.3-1.418,17.357,17.357,0,0,0,1.957-6.754,1.14,1.14,0,0,1,1.008-1.041l2.235-.246-.532-4.806-2.236.248a1.137,1.137,0,0,1-1.211-.794,17.369,17.369,0,0,0-3.388-6.162,1.137,1.137,0,0,1-.022-1.448l1.4-1.755-3.775-3.021-1.4,1.753a1.136,1.136,0,0,1-1.417.3,17.409,17.409,0,0,0-6.756-1.957,1.137,1.137,0,0,1-1.039-1.008l-.247-2.236-4.806.532.248,2.237a1.137,1.137,0,0,1-.794,1.211,17.4,17.4,0,0,0-6.162,3.389,1.139,1.139,0,0,1-1.449.021l-1.754-1.405-3.022,3.776,1.756,1.405a1.136,1.136,0,0,1,.3,1.417,17.406,17.406,0,0,0-1.958,6.754,1.136,1.136,0,0,1-1.008,1.04l-2.236.247.533,4.805,2.236-.247a1.139,1.139,0,0,1,1.212.794,17.375,17.375,0,0,0,3.388,6.161,1.137,1.137,0,0,1,.021,1.448l-1.4,1.755,3.776,3.021,1.4-1.754A1.138,1.138,0,0,1,1159.046,690.892Z" transform="translate(-1144.599 -652.316)" fill="#00bab5"/>
          </g>
          <g id="Grupo_140348" data-name="Grupo 140348" transform="translate(16.137)">
            <path id="Trazado_182286" data-name="Trazado 182286" d="M1129.617,667.923a10.431,10.431,0,1,1,10.375-11.559h0a10.442,10.442,0,0,1-9.239,11.5A10.621,10.621,0,0,1,1129.617,667.923Zm.022-18.588a8.365,8.365,0,0,0-.9.049,8.156,8.156,0,1,0,8.991,7.225h0a8.159,8.159,0,0,0-8.092-7.274Z" transform="translate(-1111.873 -639.744)" fill="#00bab5"/>
            <path id="Trazado_182287" data-name="Trazado 182287" d="M1129.851,664.894a7.17,7.17,0,1,1,7.132-7.946h0a7.168,7.168,0,0,1-7.132,7.946Zm.009-12.065a4.895,4.895,0,1,0,4.863,4.365A4.916,4.916,0,0,0,1129.859,652.829Z" transform="translate(-1112.105 -639.976)" fill="#00bab5"/>
            <path id="Trazado_182288" data-name="Trazado 182288" d="M1128.213,674.722a1.138,1.138,0,0,1-1.13-1.014l-.178-1.637a15.11,15.11,0,0,1-4.077-1.189l-1.031,1.282a1.137,1.137,0,0,1-1.6.175l-4.183-3.362a1.136,1.136,0,0,1-.174-1.6l1.03-1.283a15.046,15.046,0,0,1-2.04-3.724l-1.637.177a1.145,1.145,0,0,1-1.254-1.007l-.582-5.334a1.137,1.137,0,0,1,1.007-1.254l1.638-.178a15.031,15.031,0,0,1,1.189-4.078l-1.282-1.03a1.138,1.138,0,0,1-.174-1.6l3.36-4.183a1.137,1.137,0,0,1,1.6-.175l1.283,1.03a15.114,15.114,0,0,1,3.726-2.039l-.179-1.636a1.137,1.137,0,0,1,1.007-1.255l5.335-.581a1.146,1.146,0,0,1,1.254,1.007l.178,1.637a15.081,15.081,0,0,1,4.077,1.189l1.032-1.282a1.136,1.136,0,0,1,1.6-.175l4.183,3.361a1.137,1.137,0,0,1,.174,1.6l-1.03,1.283a15.061,15.061,0,0,1,2.039,3.725l1.636-.178a1.139,1.139,0,0,1,1.254,1.008l.582,5.335a1.138,1.138,0,0,1-1.008,1.254l-1.636.178a15.061,15.061,0,0,1-1.189,4.077l1.282,1.031a1.136,1.136,0,0,1,.174,1.6l-3.361,4.184a1.136,1.136,0,0,1-1.6.175l-1.282-1.031a15.052,15.052,0,0,1-3.726,2.039l.177,1.638a1.136,1.136,0,0,1-1.007,1.253l-5.334.582A1.1,1.1,0,0,1,1128.213,674.722Zm-5.7-6.4a1.141,1.141,0,0,1,.531.132,12.859,12.859,0,0,0,4.988,1.455,1.139,1.139,0,0,1,1.038,1.011l.154,1.41,3.073-.335-.153-1.411a1.136,1.136,0,0,1,.8-1.209,12.87,12.87,0,0,0,4.557-2.495,1.137,1.137,0,0,1,1.448-.02l1.105.888,1.936-2.411-1.105-.888a1.138,1.138,0,0,1-.293-1.418,12.829,12.829,0,0,0,1.456-4.987,1.135,1.135,0,0,1,1.01-1.037l1.411-.154-.335-3.074-1.411.154a1.136,1.136,0,0,1-1.21-.8,12.845,12.845,0,0,0-2.495-4.556,1.135,1.135,0,0,1-.019-1.448l.888-1.105-2.411-1.936-.888,1.105a1.138,1.138,0,0,1-1.419.293,12.837,12.837,0,0,0-4.986-1.456,1.139,1.139,0,0,1-1.038-1.011l-.154-1.411-3.073.336.154,1.41a1.137,1.137,0,0,1-.8,1.21,12.861,12.861,0,0,0-4.557,2.5,1.141,1.141,0,0,1-1.448.019l-1.1-.887-1.936,2.41,1.1.888a1.136,1.136,0,0,1,.293,1.418,12.808,12.808,0,0,0-1.454,4.987,1.137,1.137,0,0,1-1.01,1.037l-1.412.154.335,3.074,1.411-.153a1.133,1.133,0,0,1,1.21.8,12.847,12.847,0,0,0,2.495,4.556,1.135,1.135,0,0,1,.02,1.448l-.888,1.1,2.41,1.936.888-1.1A1.136,1.136,0,0,1,1122.511,668.324Z" transform="translate(-1111.353 -639.224)" fill="#00bab5"/>
          </g>
        </g>
        <g id="Grupo_140350" data-name="Grupo 140350" transform="translate(892.82 47.859)">
          <path id="Trazado_182289" data-name="Trazado 182289" d="M1348.23,598.836a29.692,29.692,0,1,1,29.691-29.692A29.725,29.725,0,0,1,1348.23,598.836Zm0-56.371a26.679,26.679,0,1,0,26.678,26.679A26.709,26.709,0,0,0,1348.23,542.465Z" transform="translate(-1318.539 -539.452)" fill="#00bab5"/>
          <path id="Trazado_182290" data-name="Trazado 182290" d="M1367.555,586.276l-2.137-2.123a19.845,19.845,0,0,0,.647-27.293l2.235-2.02a22.858,22.858,0,0,1-.745,31.437Z" transform="translate(-1321.65 -540.473)" fill="#00bab5"/>
          <path id="Trazado_182291" data-name="Trazado 182291" d="M1349.747,595.427a22.754,22.754,0,0,1-8.35-1.573l1.1-2.8a19.935,19.935,0,0,0,14.033.176l1.029,2.832A22.8,22.8,0,0,1,1349.747,595.427Z" transform="translate(-1320.056 -542.876)" fill="#00bab5"/>
          <rect id="Rectángulo_35793" data-name="Rectángulo 35793" width="3.013" height="8.427" transform="translate(49.732 51.863) rotate(-45)" fill="#00bab5"/>
          <path id="Trazado_182292" data-name="Trazado 182292" d="M1395.551,623.3a1.5,1.5,0,0,1-1.065-.441L1375.3,603.676a1.506,1.506,0,0,1,0-2.131l5.325-5.324a1.507,1.507,0,0,1,2.13,0l19.185,19.185a1.507,1.507,0,0,1,0,2.13l-5.325,5.325A1.5,1.5,0,0,1,1395.551,623.3Zm-17.054-20.69,17.054,17.054,3.194-3.194-17.054-17.053Z" transform="translate(-1322.276 -543.19)" fill="#00bab5"/>
        </g>
      </g>
      <path id="Trazado_184866" data-name="Trazado 184866" d="M-32.111-5.432h-4.852v3.059h5.73V0h-8.815V-12.8h8.833v2.382h-5.748v2.7h4.852Zm4.8-4.078.1,1.116A3.27,3.27,0,0,1-24.5-9.686a2.407,2.407,0,0,1,2.435,1.433A3.165,3.165,0,0,1-19.27-9.686q2.892,0,2.971,3.5V0H-19.27V-6a1.813,1.813,0,0,0-.246-1.063,1.048,1.048,0,0,0-.9-.334,1.4,1.4,0,0,0-1.31.782l.009.123V0h-2.971V-5.985a1.906,1.906,0,0,0-.237-1.081,1.045,1.045,0,0,0-.905-.334,1.42,1.42,0,0,0-1.3.782V0h-2.962V-9.51ZM-5.779-4.685a5.735,5.735,0,0,1-1,3.538A3.2,3.2,0,0,1-9.47.176a2.742,2.742,0,0,1-2.153-.958V3.656h-2.962V-9.51h2.769l.088.879A2.742,2.742,0,0,1-9.488-9.686a3.224,3.224,0,0,1,2.733,1.3,5.805,5.805,0,0,1,.976,3.564Zm-2.962-.185q0-2.531-1.477-2.531a1.394,1.394,0,0,0-1.406.756V-2.9a1.439,1.439,0,0,0,1.424.791q1.415,0,1.459-2.443ZM.883,0A3.344,3.344,0,0,1,.6-.853,2.754,2.754,0,0,1-1.683.176,3.374,3.374,0,0,1-3.968-.637a2.588,2.588,0,0,1-.94-2.043A2.66,2.66,0,0,1-3.766-5.019,5.821,5.821,0,0,1-.444-5.81H.47v-.5q0-1.316-1.134-1.316A.927.927,0,0,0-1.718-6.587H-4.68A2.655,2.655,0,0,1-3.507-8.825a4.931,4.931,0,0,1,2.993-.86A4.323,4.323,0,0,1,2.36-8.8,3.086,3.086,0,0,1,3.441-6.363v4.21a4.311,4.311,0,0,0,.4,2V0ZM-.971-1.934a1.652,1.652,0,0,0,.918-.237A1.487,1.487,0,0,0,.47-2.707V-4.228H-.391q-1.547,0-1.547,1.389a.848.848,0,0,0,.272.655A.986.986,0,0,0-.971-1.934Zm9.5-9.94V-9.51h1.564v2.057H8.53V-3.1a1.111,1.111,0,0,0,.193.747,1.037,1.037,0,0,0,.765.211,4.345,4.345,0,0,0,.738-.053V-.079a5.466,5.466,0,0,1-1.67.255A3.1,3.1,0,0,1,6.3-.545a2.954,2.954,0,0,1-.729-2.188v-4.72H4.355V-9.51H5.568v-2.364ZM14.383,0H11.413V-9.51h2.971ZM11.237-11.962A1.322,1.322,0,0,1,11.694-13a1.724,1.724,0,0,1,1.187-.4,1.724,1.724,0,0,1,1.187.4,1.322,1.322,0,0,1,.457,1.037,1.322,1.322,0,0,1-.457,1.037,1.724,1.724,0,0,1-1.187.4,1.724,1.724,0,0,1-1.187-.4A1.322,1.322,0,0,1,11.237-11.962ZM19.7-2.285h4.333V0H15.957V-1.652l4.219-5.572H16.141V-9.51h7.8v1.6ZM30.828,0a3.344,3.344,0,0,1-.281-.853A2.754,2.754,0,0,1,28.261.176a3.374,3.374,0,0,1-2.285-.813,2.588,2.588,0,0,1-.94-2.043,2.66,2.66,0,0,1,1.143-2.338A5.821,5.821,0,0,1,29.5-5.81h.914v-.5q0-1.316-1.134-1.316a.927.927,0,0,0-1.055,1.042H25.264a2.655,2.655,0,0,1,1.173-2.239,4.931,4.931,0,0,1,2.993-.86A4.323,4.323,0,0,1,32.3-8.8a3.086,3.086,0,0,1,1.081,2.435v4.21a4.311,4.311,0,0,0,.4,2V0ZM28.973-1.934a1.652,1.652,0,0,0,.918-.237,1.487,1.487,0,0,0,.523-.536V-4.228h-.861q-1.547,0-1.547,1.389a.848.848,0,0,0,.272.655A.986.986,0,0,0,28.973-1.934Zm11.8-4.9L39.8-6.9a1.752,1.752,0,0,0-1.793.879V0H35.046V-9.51h2.777l.1,1.222A2.294,2.294,0,0,1,40-9.686a2.888,2.888,0,0,1,.826.105Z" transform="translate(90 212)" fill="#12263f"/>
      <path id="Trazado_184867" data-name="Trazado 184867" d="M-26.433,0V-12.8h4.122a6.064,6.064,0,0,1,3.05.769,5.406,5.406,0,0,1,2.114,2.171,6.554,6.554,0,0,1,.769,3.142v.589a6.592,6.592,0,0,1-.743,3.151A5.429,5.429,0,0,1-19.213-.8a5.93,5.93,0,0,1-3.01.8Zm3.085-10.415v8.042h1.072a2.4,2.4,0,0,0,2.039-.945,4.63,4.63,0,0,0,.712-2.808V-6.68a4.592,4.592,0,0,0-.712-2.795,2.442,2.442,0,0,0-2.074-.94ZM-10.332.176a4.889,4.889,0,0,1-3.542-1.305,4.507,4.507,0,0,1-1.354-3.4v-.246a5.84,5.84,0,0,1,.541-2.575,3.955,3.955,0,0,1,1.578-1.727,4.763,4.763,0,0,1,2.461-.611A4.117,4.117,0,0,1-7.484-8.442a4.887,4.887,0,0,1,1.16,3.467v1.151h-5.889a2.135,2.135,0,0,0,.694,1.257,2.066,2.066,0,0,0,1.389.457,2.662,2.662,0,0,0,2.2-.984l1.354,1.6A3.784,3.784,0,0,1-8.147-.277,5.3,5.3,0,0,1-10.332.176ZM-10.666-7.4q-1.3,0-1.547,1.723h2.988v-.229a1.467,1.467,0,0,0-.36-1.1A1.434,1.434,0,0,0-10.666-7.4ZM-4.443,0V-7.453h-1.38V-9.51h1.38v-.316a3.631,3.631,0,0,1,1.248-2.909,4.987,4.987,0,0,1,3.243-.949,11.509,11.509,0,0,1,3.094.51l-.4,2.338-.492-.132a7.832,7.832,0,0,0-2.021-.255q-1.7,0-1.7,1.547v.167H.391v2.057H-1.472V0ZM4.5,0H1.525V-9.51H4.5ZM9.031-9.51l.1,1.116a3.225,3.225,0,0,1,2.716-1.292,2.713,2.713,0,0,1,2.219.888,4.226,4.226,0,0,1,.76,2.672V0H11.852V-6a1.6,1.6,0,0,0-.29-1.059A1.342,1.342,0,0,0,10.507-7.4a1.413,1.413,0,0,0-1.292.686V0H6.253V-9.51ZM19.586,0H16.616V-9.51h2.971ZM16.44-11.962A1.322,1.322,0,0,1,16.9-13a1.724,1.724,0,0,1,1.187-.4,1.724,1.724,0,0,1,1.187.4,1.322,1.322,0,0,1,.457,1.037,1.322,1.322,0,0,1-.457,1.037,1.724,1.724,0,0,1-1.187.4,1.724,1.724,0,0,1-1.187-.4A1.322,1.322,0,0,1,16.44-11.962ZM27.163-6.829l-.976-.07a1.752,1.752,0,0,0-1.793.879V0H21.432V-9.51h2.777l.1,1.222a2.294,2.294,0,0,1,2.083-1.4,2.888,2.888,0,0,1,.826.105Z" transform="translate(305 314)" fill="#12263f"/>
      <path id="Trazado_184868" data-name="Trazado 184868" d="M-16.611,0h-3.076V-12.8h3.076Zm1.635-4.825A5.809,5.809,0,0,1-14-8.385a3.211,3.211,0,0,1,2.725-1.3,2.731,2.731,0,0,1,2.145,1V-13.5h2.971V0H-8.824l-.149-1.02a2.8,2.8,0,0,1-2.32,1.2,3.205,3.205,0,0,1-2.689-1.3A5.993,5.993,0,0,1-14.977-4.825Zm2.962.185q0,2.531,1.477,2.531a1.458,1.458,0,0,0,1.406-.826V-6.557A1.419,1.419,0,0,0-10.521-7.4q-1.371,0-1.485,2.215ZM.123.176A4.889,4.889,0,0,1-3.419-1.129a4.507,4.507,0,0,1-1.354-3.4v-.246a5.84,5.84,0,0,1,.541-2.575A3.955,3.955,0,0,1-2.654-9.075,4.763,4.763,0,0,1-.193-9.686,4.117,4.117,0,0,1,2.971-8.442a4.887,4.887,0,0,1,1.16,3.467v1.151H-1.758a2.135,2.135,0,0,0,.694,1.257,2.066,2.066,0,0,0,1.389.457,2.662,2.662,0,0,0,2.2-.984l1.354,1.6A3.784,3.784,0,0,1,2.307-.277,5.3,5.3,0,0,1,.123.176ZM-.211-7.4q-1.3,0-1.547,1.723H1.23v-.229a1.467,1.467,0,0,0-.36-1.1A1.434,1.434,0,0,0-.211-7.4ZM10.679,0A3.344,3.344,0,0,1,10.4-.853,2.754,2.754,0,0,1,8.112.176,3.374,3.374,0,0,1,5.827-.637a2.588,2.588,0,0,1-.94-2.043A2.66,2.66,0,0,1,6.029-5.019,5.821,5.821,0,0,1,9.352-5.81h.914v-.5q0-1.316-1.134-1.316A.927.927,0,0,0,8.077-6.587H5.115A2.655,2.655,0,0,1,6.289-8.825a4.931,4.931,0,0,1,2.993-.86,4.323,4.323,0,0,1,2.874.888,3.086,3.086,0,0,1,1.081,2.435v4.21a4.311,4.311,0,0,0,.4,2V0ZM8.824-1.934a1.652,1.652,0,0,0,.918-.237,1.487,1.487,0,0,0,.523-.536V-4.228H9.4q-1.547,0-1.547,1.389a.848.848,0,0,0,.272.655A.986.986,0,0,0,8.824-1.934Zm11.8-4.9-.976-.07a1.752,1.752,0,0,0-1.793.879V0H14.9V-9.51h2.777l.1,1.222a2.294,2.294,0,0,1,2.083-1.4,2.888,2.888,0,0,1,.826.105Z" transform="translate(515 212)" fill="#12263f"/>
      <path id="Trazado_184869" data-name="Trazado 184869" d="M-36.94-4.342V0h-3.085V-12.8h5.106a5.948,5.948,0,0,1,2.6.541,4.074,4.074,0,0,1,1.749,1.538,4.2,4.2,0,0,1,.62,2.263,3.7,3.7,0,0,1-1.34,2.993,5.561,5.561,0,0,1-3.678,1.121Zm0-2.382h2.021a1.906,1.906,0,0,0,1.367-.448,1.665,1.665,0,0,0,.47-1.266,2.059,2.059,0,0,0-.483-1.433,1.712,1.712,0,0,0-1.318-.545H-36.94Zm14.247-.105-.976-.07a1.752,1.752,0,0,0-1.793.879V0h-2.962V-9.51h2.777l.1,1.222a2.294,2.294,0,0,1,2.083-1.4,2.888,2.888,0,0,1,.826.105Zm.378,1.986a5.613,5.613,0,0,1,.554-2.536,3.96,3.96,0,0,1,1.591-1.709,4.791,4.791,0,0,1,2.435-.6A4.373,4.373,0,0,1-14.37-8.363a5.076,5.076,0,0,1,1.23,3.6v.105a4.925,4.925,0,0,1-1.235,3.529A4.384,4.384,0,0,1-17.719.176a4.434,4.434,0,0,1-3.261-1.217,4.761,4.761,0,0,1-1.327-3.3Zm2.962.185a3.538,3.538,0,0,0,.413,1.934,1.376,1.376,0,0,0,1.222.615q1.582,0,1.617-2.435v-.3q0-2.558-1.635-2.558-1.485,0-1.608,2.206Zm10.969-7.216V-9.51H-6.82v2.057H-8.385V-3.1a1.111,1.111,0,0,0,.193.747,1.037,1.037,0,0,0,.765.211A4.345,4.345,0,0,0-6.688-2.2V-.079a5.466,5.466,0,0,1-1.67.255,3.1,3.1,0,0,1-2.259-.721,2.954,2.954,0,0,1-.729-2.188v-4.72H-12.56V-9.51h1.213v-2.364Zm2.092,7.031a5.613,5.613,0,0,1,.554-2.536A3.96,3.96,0,0,1-4.148-9.088a4.791,4.791,0,0,1,2.435-.6A4.373,4.373,0,0,1,1.652-8.363a5.076,5.076,0,0,1,1.23,3.6v.105A4.925,4.925,0,0,1,1.648-1.129,4.384,4.384,0,0,1-1.7.176,4.434,4.434,0,0,1-4.957-1.042a4.761,4.761,0,0,1-1.327-3.3Zm2.962.185a3.538,3.538,0,0,0,.413,1.934A1.376,1.376,0,0,0-1.7-2.109q1.582,0,1.617-2.435v-.3Q-.079-7.4-1.714-7.4-3.2-7.4-3.322-5.194ZM7.638-11.874V-9.51H9.2v2.057H7.638V-3.1a1.111,1.111,0,0,0,.193.747,1.037,1.037,0,0,0,.765.211A4.345,4.345,0,0,0,9.334-2.2V-.079a5.466,5.466,0,0,1-1.67.255A3.1,3.1,0,0,1,5.405-.545a2.954,2.954,0,0,1-.729-2.188v-4.72H3.463V-9.51H4.676v-2.364ZM13.491,0H10.521V-9.51h2.971ZM10.345-11.962A1.322,1.322,0,0,1,10.8-13a1.724,1.724,0,0,1,1.187-.4,1.724,1.724,0,0,1,1.187.4,1.322,1.322,0,0,1,.457,1.037,1.322,1.322,0,0,1-.457,1.037,1.724,1.724,0,0,1-1.187.4,1.724,1.724,0,0,1-1.187-.4A1.322,1.322,0,0,1,10.345-11.962Zm13.8,7.277a5.735,5.735,0,0,1-1,3.538A3.2,3.2,0,0,1,20.452.176,2.742,2.742,0,0,1,18.3-.782V3.656H15.337V-9.51h2.769l.088.879a2.742,2.742,0,0,1,2.241-1.055,3.224,3.224,0,0,1,2.733,1.3,5.805,5.805,0,0,1,.976,3.564Zm-2.962-.185q0-2.531-1.477-2.531a1.394,1.394,0,0,0-1.406.756V-2.9a1.439,1.439,0,0,0,1.424.791q1.415,0,1.459-2.443ZM30.806,0a3.344,3.344,0,0,1-.281-.853A2.754,2.754,0,0,1,28.239.176a3.374,3.374,0,0,1-2.285-.813,2.588,2.588,0,0,1-.94-2.043,2.66,2.66,0,0,1,1.143-2.338,5.821,5.821,0,0,1,3.322-.791h.914v-.5q0-1.316-1.134-1.316A.927.927,0,0,0,28.2-6.587H25.242a2.655,2.655,0,0,1,1.173-2.239,4.931,4.931,0,0,1,2.993-.86,4.323,4.323,0,0,1,2.874.888,3.086,3.086,0,0,1,1.081,2.435v4.21a4.311,4.311,0,0,0,.4,2V0ZM28.951-1.934a1.652,1.652,0,0,0,.918-.237,1.487,1.487,0,0,0,.523-.536V-4.228h-.861q-1.547,0-1.547,1.389a.848.848,0,0,0,.272.655A.986.986,0,0,0,28.951-1.934Zm11.8-4.9-.976-.07a1.752,1.752,0,0,0-1.793.879V0H35.024V-9.51H37.8l.1,1.222a2.294,2.294,0,0,1,2.083-1.4,2.888,2.888,0,0,1,.826.105Z" transform="translate(736 314)" fill="#12263f"/>
      <path id="Trazado_184870" data-name="Trazado 184870" d="M-22.786-3.48l2.549-9.316h3.445L-21.1,0h-3.375l-4.271-12.8h3.419ZM-11.043,0a3.344,3.344,0,0,1-.281-.853A2.754,2.754,0,0,1-13.61.176,3.374,3.374,0,0,1-15.9-.637a2.588,2.588,0,0,1-.94-2.043,2.66,2.66,0,0,1,1.143-2.338,5.821,5.821,0,0,1,3.322-.791h.914v-.5q0-1.316-1.134-1.316a.927.927,0,0,0-1.055,1.042h-2.962a2.655,2.655,0,0,1,1.173-2.239,4.931,4.931,0,0,1,2.993-.86A4.323,4.323,0,0,1-9.567-8.8,3.086,3.086,0,0,1-8.486-6.363v4.21a4.311,4.311,0,0,0,.4,2V0ZM-12.9-1.934a1.652,1.652,0,0,0,.918-.237,1.487,1.487,0,0,0,.523-.536V-4.228h-.861q-1.547,0-1.547,1.389a.848.848,0,0,0,.272.655A.986.986,0,0,0-12.9-1.934ZM-3.722,0H-6.693V-13.5h2.971ZM1.226,0H-1.745V-9.51H1.226ZM-1.92-11.962A1.322,1.322,0,0,1-1.463-13a1.724,1.724,0,0,1,1.187-.4A1.724,1.724,0,0,1,.91-13a1.322,1.322,0,0,1,.457,1.037A1.322,1.322,0,0,1,.91-10.925a1.724,1.724,0,0,1-1.187.4,1.724,1.724,0,0,1-1.187-.4A1.322,1.322,0,0,1-1.92-11.962Zm4.6,7.137a5.809,5.809,0,0,1,.976-3.56,3.211,3.211,0,0,1,2.725-1.3,2.731,2.731,0,0,1,2.145,1V-13.5h2.971V0H8.829L8.679-1.02a2.8,2.8,0,0,1-2.32,1.2,3.205,3.205,0,0,1-2.689-1.3A5.993,5.993,0,0,1,2.676-4.825Zm2.962.185q0,2.531,1.477,2.531a1.458,1.458,0,0,0,1.406-.826V-6.557A1.419,1.419,0,0,0,7.132-7.4q-1.371,0-1.485,2.215ZM18.532,0a3.344,3.344,0,0,1-.281-.853A2.754,2.754,0,0,1,15.965.176,3.374,3.374,0,0,1,13.68-.637a2.588,2.588,0,0,1-.94-2.043,2.66,2.66,0,0,1,1.143-2.338A5.821,5.821,0,0,1,17.2-5.81h.914v-.5q0-1.316-1.134-1.316A.927.927,0,0,0,15.93-6.587H12.968a2.655,2.655,0,0,1,1.173-2.239,4.931,4.931,0,0,1,2.993-.86,4.323,4.323,0,0,1,2.874.888,3.086,3.086,0,0,1,1.081,2.435v4.21a4.311,4.311,0,0,0,.4,2V0ZM16.677-1.934a1.652,1.652,0,0,0,.918-.237,1.487,1.487,0,0,0,.523-.536V-4.228h-.861q-1.547,0-1.547,1.389a.848.848,0,0,0,.272.655A.986.986,0,0,0,16.677-1.934Zm11.8-4.9-.976-.07a1.752,1.752,0,0,0-1.793.879V0H22.75V-9.51h2.777l.1,1.222a2.294,2.294,0,0,1,2.083-1.4,2.888,2.888,0,0,1,.826.105Z" transform="translate(940 212)" fill="#12263f"/>
    </g>
  </g>
</svg>
