<svg xmlns="http://www.w3.org/2000/svg" xmlns:xlink="http://www.w3.org/1999/xlink" width="425" height="360.91" viewBox="0 0 425 360.91">
  <defs>
    <filter id="Elipse_4799" x="132" y="65" width="293" height="293" filterUnits="userSpaceOnUse">
      <feOffset dy="3" input="SourceAlpha"/>
      <feGaussianBlur stdDeviation="3" result="blur"/>
      <feFlood flood-opacity="0.161"/>
      <feComposite operator="in" in2="blur"/>
      <feComposite in="SourceGraphic"/>
    </filter>
  </defs>
  <g id="img2" transform="translate(-370 -1470)">
    <g transform="matrix(1, 0, 0, 1, 370, 1470)" filter="url(#Elipse_4799)">
      <circle id="Elipse_4799-2" data-name="Elipse 4799" cx="137.5" cy="137.5" r="137.5" transform="translate(141 71)" fill="#fff"/>
    </g>
    <circle id="Elipse_3953" data-name="Elipse 3953" cx="125" cy="125" r="125" transform="translate(523 1554)" fill="#214be5"/>
    <path id="Trazado_184892" data-name="Trazado 184892" d="M49.059,6.852H45.4V17H43.91V6.852H40.262V5.625h8.8ZM54.855,17a3.036,3.036,0,0,1-.2-.891,3.225,3.225,0,0,1-2.406,1.047,2.984,2.984,0,0,1-2.051-.707,2.287,2.287,0,0,1-.8-1.793,2.39,2.39,0,0,1,1-2.051,4.733,4.733,0,0,1,2.824-.73h1.406v-.664A1.623,1.623,0,0,0,54.176,10a1.821,1.821,0,0,0-1.336-.449,2.107,2.107,0,0,0-1.3.391,1.151,1.151,0,0,0-.523.945H49.566a2,2,0,0,1,.449-1.223,3.066,3.066,0,0,1,1.219-.934,4.1,4.1,0,0,1,1.691-.344,3.342,3.342,0,0,1,2.289.73,2.635,2.635,0,0,1,.859,2.012v3.891a4.757,4.757,0,0,0,.3,1.852V17Zm-2.4-1.1a2.54,2.54,0,0,0,1.289-.352,2.127,2.127,0,0,0,.883-.914V12.9H53.5q-2.656,0-2.656,1.555a1.316,1.316,0,0,0,.453,1.063A1.742,1.742,0,0,0,52.457,15.9ZM59.7,8.547l.039.938a3.122,3.122,0,0,1,2.508-1.094A2.417,2.417,0,0,1,64.66,9.75a3.2,3.2,0,0,1,1.1-.984,3.242,3.242,0,0,1,1.6-.375q2.781,0,2.828,2.945V17H68.738V11.422a1.941,1.941,0,0,0-.414-1.355,1.823,1.823,0,0,0-1.391-.449,1.916,1.916,0,0,0-1.336.48,1.949,1.949,0,0,0-.617,1.293V17H63.527V11.461a1.613,1.613,0,0,0-1.8-1.844,1.934,1.934,0,0,0-1.945,1.211V17H58.332V8.547Zm19.82,4.32a5.026,5.026,0,0,1-.891,3.113,2.846,2.846,0,0,1-2.391,1.176,2.947,2.947,0,0,1-2.477-1.133l-.07.977H72.363V5h1.445V9.477a2.93,2.93,0,0,1,2.414-1.086,2.863,2.863,0,0,1,2.418,1.164,5.177,5.177,0,0,1,.879,3.188ZM78.074,12.7a3.906,3.906,0,0,0-.57-2.281,1.888,1.888,0,0,0-1.641-.8,2.122,2.122,0,0,0-2.055,1.328V14.6a2.181,2.181,0,0,0,2.07,1.328,1.878,1.878,0,0,0,1.617-.8A4.153,4.153,0,0,0,78.074,12.7ZM82.91,17H81.465V8.547H82.91ZM81.348,6.3a.863.863,0,0,1,.215-.594.807.807,0,0,1,.637-.242.819.819,0,0,1,.641.242.854.854,0,0,1,.219.594.826.826,0,0,1-.219.586.834.834,0,0,1-.641.234.821.821,0,0,1-.637-.234A.834.834,0,0,1,81.348,6.3ZM88.73,17.156a3.693,3.693,0,0,1-2.8-1.129,4.19,4.19,0,0,1-1.078-3.02v-.266a5.073,5.073,0,0,1,.48-2.246A3.748,3.748,0,0,1,86.68,8.949a3.378,3.378,0,0,1,1.871-.559,3.166,3.166,0,0,1,2.563,1.086,4.7,4.7,0,0,1,.914,3.109v.6H86.3a3,3,0,0,0,.73,2.02,2.3,2.3,0,0,0,1.777.77,2.517,2.517,0,0,0,1.3-.312,3.259,3.259,0,0,0,.93-.828l.883.688A3.55,3.55,0,0,1,88.73,17.156Zm-.18-7.578a1.928,1.928,0,0,0-1.469.637A3.1,3.1,0,0,0,86.348,12h4.234v-.109a2.753,2.753,0,0,0-.594-1.707A1.815,1.815,0,0,0,88.551,9.578ZM89.254,5H91L88.91,7.3l-1.164,0Zm5.813,3.547.047,1.063a3.08,3.08,0,0,1,2.531-1.219q2.68,0,2.7,3.023V17H98.9V11.406a1.946,1.946,0,0,0-.418-1.352,1.675,1.675,0,0,0-1.277-.437,2.086,2.086,0,0,0-1.234.375,2.546,2.546,0,0,0-.828.984V17H93.7V8.547ZM110,17.156a3.693,3.693,0,0,1-2.8-1.129,4.19,4.19,0,0,1-1.078-3.02v-.266a5.073,5.073,0,0,1,.48-2.246,3.748,3.748,0,0,1,1.344-1.547,3.378,3.378,0,0,1,1.871-.559,3.166,3.166,0,0,1,2.563,1.086,4.7,4.7,0,0,1,.914,3.109v.6h-5.727a3,3,0,0,0,.73,2.02,2.3,2.3,0,0,0,1.777.77,2.517,2.517,0,0,0,1.3-.312,3.259,3.259,0,0,0,.93-.828l.883.688A3.55,3.55,0,0,1,110,17.156Zm-.18-7.578a1.928,1.928,0,0,0-1.469.637A3.1,3.1,0,0,0,107.613,12h4.234v-.109a2.753,2.753,0,0,0-.594-1.707A1.815,1.815,0,0,0,109.816,9.578Zm10.07,5.18a1.064,1.064,0,0,0-.441-.91,4.249,4.249,0,0,0-1.539-.559,7.277,7.277,0,0,1-1.742-.562,2.479,2.479,0,0,1-.953-.781,1.869,1.869,0,0,1-.309-1.078,2.193,2.193,0,0,1,.879-1.758,3.432,3.432,0,0,1,2.246-.719,3.532,3.532,0,0,1,2.332.742,2.357,2.357,0,0,1,.895,1.9H119.8a1.3,1.3,0,0,0-.5-1.023,1.888,1.888,0,0,0-1.27-.43,1.976,1.976,0,0,0-1.234.344,1.082,1.082,0,0,0-.445.9.877.877,0,0,0,.414.789,5.1,5.1,0,0,0,1.5.508,7.8,7.8,0,0,1,1.754.578,2.558,2.558,0,0,1,1,.809,1.988,1.988,0,0,1,.324,1.152,2.163,2.163,0,0,1-.906,1.816,3.8,3.8,0,0,1-2.352.684,4.257,4.257,0,0,1-1.8-.359,2.922,2.922,0,0,1-1.223-1,2.42,2.42,0,0,1-.441-1.395h1.445a1.5,1.5,0,0,0,.582,1.152,2.258,2.258,0,0,0,1.434.426,2.331,2.331,0,0,0,1.316-.332A1.02,1.02,0,0,0,119.887,14.758ZM6.063,41H4.617V32.547H6.063ZM4.5,30.3a.863.863,0,0,1,.215-.594.807.807,0,0,1,.637-.242.819.819,0,0,1,.641.242.854.854,0,0,1,.219.594.826.826,0,0,1-.219.586.834.834,0,0,1-.641.234.821.821,0,0,1-.637-.234A.834.834,0,0,1,4.5,30.3Zm5.234,2.242.039.938a3.122,3.122,0,0,1,2.508-1.094A2.417,2.417,0,0,1,14.7,33.75a3.2,3.2,0,0,1,1.1-.984,3.242,3.242,0,0,1,1.6-.375q2.781,0,2.828,2.945V41H18.773V35.422a1.941,1.941,0,0,0-.414-1.355,1.823,1.823,0,0,0-1.391-.449,1.916,1.916,0,0,0-1.336.48,1.949,1.949,0,0,0-.617,1.293V41H13.563V35.461a1.613,1.613,0,0,0-1.8-1.844,1.934,1.934,0,0,0-1.945,1.211V41H8.367V32.547Zm19.8,4.32a5.062,5.062,0,0,1-.883,3.109,2.829,2.829,0,0,1-2.391,1.18,3.1,3.1,0,0,1-2.422-.977v4.07H22.4v-11.7h1.32l.07.938a2.977,2.977,0,0,1,2.453-1.094,2.882,2.882,0,0,1,2.41,1.148,5.117,5.117,0,0,1,.887,3.2ZM28.094,36.7a3.735,3.735,0,0,0-.609-2.258,1.963,1.963,0,0,0-1.672-.828,2.125,2.125,0,0,0-1.969,1.164V38.82a2.129,2.129,0,0,0,1.984,1.156,1.954,1.954,0,0,0,1.652-.824A4.077,4.077,0,0,0,28.094,36.7Zm2.9-.008a4.993,4.993,0,0,1,.488-2.234A3.643,3.643,0,0,1,32.84,32.93a3.7,3.7,0,0,1,1.988-.539,3.565,3.565,0,0,1,2.793,1.2,4.6,4.6,0,0,1,1.066,3.18v.1a5.036,5.036,0,0,1-.473,2.215,3.589,3.589,0,0,1-1.352,1.527,3.743,3.743,0,0,1-2.02.547,3.556,3.556,0,0,1-2.785-1.2A4.575,4.575,0,0,1,30.992,36.8Zm1.453.172a3.616,3.616,0,0,0,.652,2.258,2.211,2.211,0,0,0,3.5-.012,3.955,3.955,0,0,0,.648-2.418,3.61,3.61,0,0,0-.66-2.254,2.1,2.1,0,0,0-1.754-.863,2.075,2.075,0,0,0-1.727.852A3.925,3.925,0,0,0,32.445,36.867Zm12.141-3.023a4.331,4.331,0,0,0-.711-.055A1.9,1.9,0,0,0,41.945,35v6H40.5V32.547h1.406l.023.977a2.251,2.251,0,0,1,2.016-1.133,1.477,1.477,0,0,1,.641.109Zm3.68-3.344v2.047h1.578v1.117H48.266v5.249a1.173,1.173,0,0,0,.211.763.888.888,0,0,0,.719.254,3.5,3.5,0,0,0,.688-.094V41a4.215,4.215,0,0,1-1.109.155,1.8,1.8,0,0,1-1.461-.586,2.517,2.517,0,0,1-.492-1.664V33.664H45.281V32.547H46.82V30.5ZM56.75,41a3.036,3.036,0,0,1-.2-.891,3.225,3.225,0,0,1-2.406,1.047,2.984,2.984,0,0,1-2.051-.707,2.287,2.287,0,0,1-.8-1.793,2.39,2.39,0,0,1,1-2.051,4.733,4.733,0,0,1,2.824-.73h1.406v-.664A1.623,1.623,0,0,0,56.07,34a1.821,1.821,0,0,0-1.336-.449,2.107,2.107,0,0,0-1.3.391,1.151,1.151,0,0,0-.523.945H51.461a2,2,0,0,1,.449-1.223,3.066,3.066,0,0,1,1.219-.934,4.1,4.1,0,0,1,1.691-.344,3.342,3.342,0,0,1,2.289.73,2.635,2.635,0,0,1,.859,2.012v3.891a4.757,4.757,0,0,0,.3,1.852V41Zm-2.4-1.1a2.54,2.54,0,0,0,1.289-.352,2.127,2.127,0,0,0,.883-.914V36.9H55.391q-2.656,0-2.656,1.555a1.316,1.316,0,0,0,.453,1.063A1.742,1.742,0,0,0,54.352,39.9Zm7.25-7.352.047,1.063a3.08,3.08,0,0,1,2.531-1.219q2.68,0,2.7,3.023V41H65.438V35.406a1.946,1.946,0,0,0-.418-1.352,1.675,1.675,0,0,0-1.277-.437,2.086,2.086,0,0,0-1.234.375,2.546,2.546,0,0,0-.828.984V41H60.234V32.547ZM71.023,30.5v2.047H72.6v1.117H71.023v5.249a1.173,1.173,0,0,0,.211.763.888.888,0,0,0,.719.254,3.5,3.5,0,0,0,.688-.094V41a4.215,4.215,0,0,1-1.109.155,1.8,1.8,0,0,1-1.461-.586,2.517,2.517,0,0,1-.492-1.664V33.664H68.039V32.547h1.539V30.5ZM77.8,41.156A3.693,3.693,0,0,1,75,40.027a4.19,4.19,0,0,1-1.078-3.02v-.266A5.073,5.073,0,0,1,74.4,34.5a3.748,3.748,0,0,1,1.344-1.547,3.378,3.378,0,0,1,1.871-.559,3.166,3.166,0,0,1,2.563,1.086,4.7,4.7,0,0,1,.914,3.109v.6H75.367a3,3,0,0,0,.73,2.02,2.3,2.3,0,0,0,1.777.77,2.517,2.517,0,0,0,1.3-.312,3.259,3.259,0,0,0,.93-.828l.883.688A3.55,3.55,0,0,1,77.8,41.156Zm-.18-7.578a1.928,1.928,0,0,0-1.469.637A3.1,3.1,0,0,0,75.414,36h4.234v-.109a2.753,2.753,0,0,0-.594-1.707A1.815,1.815,0,0,0,77.617,33.578Zm11.9,5.461,2.094-6.492h1.477L90.055,41h-1.1l-3.062-8.453h1.477Zm8.469,2.117a3.693,3.693,0,0,1-2.8-1.129,4.19,4.19,0,0,1-1.078-3.02v-.266a5.073,5.073,0,0,1,.48-2.246,3.748,3.748,0,0,1,1.344-1.547,3.378,3.378,0,0,1,1.871-.559,3.166,3.166,0,0,1,2.563,1.086,4.7,4.7,0,0,1,.914,3.109v.6H95.555a3,3,0,0,0,.73,2.02,2.3,2.3,0,0,0,1.777.77,2.517,2.517,0,0,0,1.3-.312,3.259,3.259,0,0,0,.93-.828l.883.688A3.55,3.55,0,0,1,97.984,41.156Zm-.18-7.578a1.928,1.928,0,0,0-1.469.637A3.1,3.1,0,0,0,95.6,36h4.234v-.109a2.753,2.753,0,0,0-.594-1.707A1.815,1.815,0,0,0,97.8,33.578Zm9.234.266a4.331,4.331,0,0,0-.711-.055A1.9,1.9,0,0,0,104.4,35v6h-1.445V32.547h1.406l.023.977a2.251,2.251,0,0,1,2.016-1.133,1.477,1.477,0,0,1,.641.109Zm2.9,7.156h-1.445V32.547h1.445Zm-1.562-10.7a.863.863,0,0,1,.215-.594.807.807,0,0,1,.637-.242.819.819,0,0,1,.641.242.854.854,0,0,1,.219.594.826.826,0,0,1-.219.586.834.834,0,0,1-.641.234.821.821,0,0,1-.637-.234A.834.834,0,0,1,108.375,30.3ZM112.734,41V33.664H111.4V32.547h1.336v-.719a2.937,2.937,0,0,1,.809-2.2,3.136,3.136,0,0,1,2.285-.789,6.881,6.881,0,0,1,2.211.477l-.242,1.219a5.008,5.008,0,0,0-1.859-.391,1.819,1.819,0,0,0-1.34.418,1.723,1.723,0,0,0-.41,1.254v.734h1.727v1.117h-1.727V41Zm6.023,0H117.3V32.547h1.453Zm5.742-1.023a2.082,2.082,0,0,0,1.352-.469,1.649,1.649,0,0,0,.641-1.172h1.367a2.621,2.621,0,0,1-.5,1.383,3.293,3.293,0,0,1-1.23,1.047,3.55,3.55,0,0,1-1.629.391A3.482,3.482,0,0,1,121.754,40a4.59,4.59,0,0,1-1.02-3.152v-.242a5.089,5.089,0,0,1,.453-2.2,3.451,3.451,0,0,1,1.3-1.492,3.7,3.7,0,0,1,2-.531,3.39,3.39,0,0,1,2.363.852,3.043,3.043,0,0,1,1,2.211h-1.367a1.992,1.992,0,0,0-.621-1.348,1.932,1.932,0,0,0-1.379-.527,2.023,2.023,0,0,0-1.707.793,3.724,3.724,0,0,0-.605,2.293v.273a3.65,3.65,0,0,0,.6,2.25A2.033,2.033,0,0,0,124.5,39.977ZM134.7,41a3.036,3.036,0,0,1-.2-.891,3.225,3.225,0,0,1-2.406,1.047,2.984,2.984,0,0,1-2.051-.707,2.287,2.287,0,0,1-.8-1.793,2.39,2.39,0,0,1,1-2.051,4.733,4.733,0,0,1,2.824-.73h1.406v-.664A1.623,1.623,0,0,0,134.023,34a1.821,1.821,0,0,0-1.336-.449,2.107,2.107,0,0,0-1.3.391,1.151,1.151,0,0,0-.523.945h-1.453a2,2,0,0,1,.449-1.223,3.066,3.066,0,0,1,1.219-.934,4.1,4.1,0,0,1,1.691-.344,3.342,3.342,0,0,1,2.289.73,2.635,2.635,0,0,1,.859,2.012v3.891a4.757,4.757,0,0,0,.3,1.852V41Zm-2.4-1.1a2.54,2.54,0,0,0,1.289-.352,2.127,2.127,0,0,0,.883-.914V36.9h-1.133q-2.656,0-2.656,1.555a1.316,1.316,0,0,0,.453,1.063A1.742,1.742,0,0,0,132.3,39.9Zm9.969-6.055a4.331,4.331,0,0,0-.711-.055A1.9,1.9,0,0,0,139.633,35v6h-1.445V32.547h1.406l.023.977a2.251,2.251,0,0,1,2.016-1.133,1.477,1.477,0,0,1,.641.109Zm10.211,4.914a1.064,1.064,0,0,0-.441-.91,4.249,4.249,0,0,0-1.539-.559,7.277,7.277,0,0,1-1.742-.562,2.479,2.479,0,0,1-.953-.781,1.869,1.869,0,0,1-.309-1.078,2.193,2.193,0,0,1,.879-1.758,3.432,3.432,0,0,1,2.246-.719,3.532,3.532,0,0,1,2.332.742,2.357,2.357,0,0,1,.895,1.9H152.4a1.3,1.3,0,0,0-.5-1.023,1.888,1.888,0,0,0-1.27-.43,1.976,1.976,0,0,0-1.234.344,1.082,1.082,0,0,0-.445.9.877.877,0,0,0,.414.789,5.1,5.1,0,0,0,1.5.508,7.8,7.8,0,0,1,1.754.578,2.558,2.558,0,0,1,1,.809,1.988,1.988,0,0,1,.324,1.152,2.163,2.163,0,0,1-.906,1.816,3.8,3.8,0,0,1-2.352.684,4.257,4.257,0,0,1-1.8-.359,2.922,2.922,0,0,1-1.223-1,2.42,2.42,0,0,1-.441-1.395h1.445a1.5,1.5,0,0,0,.582,1.152,2.258,2.258,0,0,0,1.434.426,2.331,2.331,0,0,0,1.316-.332A1.02,1.02,0,0,0,152.484,38.758Zm4.9,2.242h-1.445V32.547h1.445ZM155.82,30.3a.863.863,0,0,1,.215-.594.807.807,0,0,1,.637-.242.819.819,0,0,1,.641.242.854.854,0,0,1,.219.594.826.826,0,0,1-.219.586.834.834,0,0,1-.641.234.821.821,0,0,1-.637-.234A.834.834,0,0,1,155.82,30.3ZM13.207,65H11.762V53h1.445Zm1.93-4.3a4.993,4.993,0,0,1,.488-2.234,3.643,3.643,0,0,1,1.359-1.531,3.7,3.7,0,0,1,1.988-.539,3.565,3.565,0,0,1,2.793,1.2,4.6,4.6,0,0,1,1.066,3.18v.1a5.036,5.036,0,0,1-.473,2.215,3.589,3.589,0,0,1-1.352,1.527,3.743,3.743,0,0,1-2.02.547,3.556,3.556,0,0,1-2.785-1.2A4.575,4.575,0,0,1,15.137,60.8Zm1.453.172a3.616,3.616,0,0,0,.652,2.258,2.211,2.211,0,0,0,3.5-.012,3.955,3.955,0,0,0,.648-2.418,3.61,3.61,0,0,0-.66-2.254,2.1,2.1,0,0,0-1.754-.863,2.075,2.075,0,0,0-1.727.852A3.925,3.925,0,0,0,16.59,60.867Zm12.977,1.891a1.064,1.064,0,0,0-.441-.91,4.249,4.249,0,0,0-1.539-.559,7.277,7.277,0,0,1-1.742-.562,2.479,2.479,0,0,1-.953-.781,1.869,1.869,0,0,1-.309-1.078,2.193,2.193,0,0,1,.879-1.758,3.432,3.432,0,0,1,2.246-.719,3.532,3.532,0,0,1,2.332.742,2.357,2.357,0,0,1,.895,1.9H29.48a1.3,1.3,0,0,0-.5-1.023,1.888,1.888,0,0,0-1.27-.43,1.976,1.976,0,0,0-1.234.344,1.082,1.082,0,0,0-.445.9.877.877,0,0,0,.414.789,5.1,5.1,0,0,0,1.5.508,7.8,7.8,0,0,1,1.754.578,2.558,2.558,0,0,1,1,.809,1.988,1.988,0,0,1,.324,1.152,2.163,2.163,0,0,1-.906,1.816,3.8,3.8,0,0,1-2.352.684,4.257,4.257,0,0,1-1.8-.359,2.922,2.922,0,0,1-1.223-1,2.42,2.42,0,0,1-.441-1.395h1.445a1.5,1.5,0,0,0,.582,1.152,2.258,2.258,0,0,0,1.434.426,2.331,2.331,0,0,0,1.316-.332A1.02,1.02,0,0,0,29.566,62.758Zm11.375-4.914a4.331,4.331,0,0,0-.711-.055A1.9,1.9,0,0,0,38.3,59v6H36.855V56.547h1.406l.023.977A2.251,2.251,0,0,1,40.3,56.391a1.477,1.477,0,0,1,.641.109Zm4.836,7.313a3.693,3.693,0,0,1-2.8-1.129,4.19,4.19,0,0,1-1.078-3.02v-.266a5.073,5.073,0,0,1,.48-2.246,3.748,3.748,0,0,1,1.344-1.547,3.378,3.378,0,0,1,1.871-.559,3.166,3.166,0,0,1,2.563,1.086,4.7,4.7,0,0,1,.914,3.109v.6H43.348a3,3,0,0,0,.73,2.02,2.3,2.3,0,0,0,1.777.77,2.517,2.517,0,0,0,1.3-.312,3.258,3.258,0,0,0,.93-.828l.883.688A3.55,3.55,0,0,1,45.777,65.156Zm-.18-7.578a1.928,1.928,0,0,0-1.469.637A3.1,3.1,0,0,0,43.395,60h4.234v-.109a2.753,2.753,0,0,0-.594-1.707A1.815,1.815,0,0,0,45.6,57.578ZM52.707,54.5v2.047h1.578v1.117H52.707v5.249a1.173,1.173,0,0,0,.211.763.888.888,0,0,0,.719.254,3.5,3.5,0,0,0,.688-.094V65a4.215,4.215,0,0,1-1.109.155,1.8,1.8,0,0,1-1.461-.586,2.517,2.517,0,0,1-.492-1.664V57.664H49.723V56.547h1.539V54.5Zm2.727,6.2a4.993,4.993,0,0,1,.488-2.234,3.643,3.643,0,0,1,1.359-1.531,3.7,3.7,0,0,1,1.988-.539,3.565,3.565,0,0,1,2.793,1.2,4.6,4.6,0,0,1,1.066,3.18v.1a5.036,5.036,0,0,1-.473,2.215A3.589,3.589,0,0,1,61.3,64.609a3.743,3.743,0,0,1-2.02.547,3.556,3.556,0,0,1-2.785-1.2A4.575,4.575,0,0,1,55.434,60.8Zm1.453.172a3.616,3.616,0,0,0,.652,2.258,2.211,2.211,0,0,0,3.5-.012,3.955,3.955,0,0,0,.648-2.418,3.61,3.61,0,0,0-.66-2.254,2.1,2.1,0,0,0-1.754-.863,2.075,2.075,0,0,0-1.727.852A3.925,3.925,0,0,0,56.887,60.867Zm12.977,1.891a1.064,1.064,0,0,0-.441-.91,4.249,4.249,0,0,0-1.539-.559,7.277,7.277,0,0,1-1.742-.562,2.479,2.479,0,0,1-.953-.781,1.869,1.869,0,0,1-.309-1.078,2.193,2.193,0,0,1,.879-1.758A3.432,3.432,0,0,1,68,56.391a3.532,3.532,0,0,1,2.332.742,2.357,2.357,0,0,1,.895,1.9H69.777a1.3,1.3,0,0,0-.5-1.023,1.888,1.888,0,0,0-1.27-.43,1.976,1.976,0,0,0-1.234.344,1.082,1.082,0,0,0-.445.9.877.877,0,0,0,.414.789,5.1,5.1,0,0,0,1.5.508,7.8,7.8,0,0,1,1.754.578,2.558,2.558,0,0,1,1,.809,1.988,1.988,0,0,1,.324,1.152,2.163,2.163,0,0,1-.906,1.816,3.8,3.8,0,0,1-2.352.684,4.257,4.257,0,0,1-1.8-.359,2.922,2.922,0,0,1-1.223-1A2.42,2.42,0,0,1,64.59,62.4h1.445a1.5,1.5,0,0,0,.582,1.152,2.258,2.258,0,0,0,1.434.426,2.331,2.331,0,0,0,1.316-.332A1.02,1.02,0,0,0,69.863,62.758Zm11.375-4.914a4.331,4.331,0,0,0-.711-.055A1.9,1.9,0,0,0,78.6,59v6H77.152V56.547h1.406l.023.977A2.251,2.251,0,0,1,80.6,56.391a1.477,1.477,0,0,1,.641.109Zm4.836,7.313a3.693,3.693,0,0,1-2.8-1.129,4.19,4.19,0,0,1-1.078-3.02v-.266a5.073,5.073,0,0,1,.48-2.246,3.748,3.748,0,0,1,1.344-1.547,3.378,3.378,0,0,1,1.871-.559,3.166,3.166,0,0,1,2.563,1.086,4.7,4.7,0,0,1,.914,3.109v.6H83.645a3,3,0,0,0,.73,2.02,2.3,2.3,0,0,0,1.777.77,2.517,2.517,0,0,0,1.3-.312,3.259,3.259,0,0,0,.93-.828l.883.688A3.55,3.55,0,0,1,86.074,65.156Zm-.18-7.578a1.928,1.928,0,0,0-1.469.637A3.1,3.1,0,0,0,83.691,60h4.234v-.109a2.753,2.753,0,0,0-.594-1.707A1.815,1.815,0,0,0,85.895,57.578Zm10.07,5.18a1.064,1.064,0,0,0-.441-.91,4.249,4.249,0,0,0-1.539-.559,7.277,7.277,0,0,1-1.742-.562,2.479,2.479,0,0,1-.953-.781,1.869,1.869,0,0,1-.309-1.078,2.193,2.193,0,0,1,.879-1.758,3.432,3.432,0,0,1,2.246-.719,3.532,3.532,0,0,1,2.332.742,2.357,2.357,0,0,1,.895,1.9H95.879a1.3,1.3,0,0,0-.5-1.023,1.888,1.888,0,0,0-1.27-.43,1.976,1.976,0,0,0-1.234.344,1.082,1.082,0,0,0-.445.9.877.877,0,0,0,.414.789,5.1,5.1,0,0,0,1.5.508,7.8,7.8,0,0,1,1.754.578,2.558,2.558,0,0,1,1,.809,1.988,1.988,0,0,1,.324,1.152,2.163,2.163,0,0,1-.906,1.816,3.8,3.8,0,0,1-2.352.684,4.257,4.257,0,0,1-1.8-.359,2.922,2.922,0,0,1-1.223-1,2.42,2.42,0,0,1-.441-1.395h1.445a1.5,1.5,0,0,0,.582,1.152,2.258,2.258,0,0,0,1.434.426,2.331,2.331,0,0,0,1.316-.332A1.02,1.02,0,0,0,95.965,62.758Zm10.469-1.891a5.062,5.062,0,0,1-.883,3.109,2.829,2.829,0,0,1-2.391,1.18,3.1,3.1,0,0,1-2.422-.977v4.07H99.293v-11.7h1.32l.07.938a2.977,2.977,0,0,1,2.453-1.094,2.882,2.882,0,0,1,2.41,1.148,5.117,5.117,0,0,1,.887,3.2Zm-1.445-.164a3.735,3.735,0,0,0-.609-2.258,1.963,1.963,0,0,0-1.672-.828,2.125,2.125,0,0,0-1.969,1.164V62.82a2.129,2.129,0,0,0,1.984,1.156,1.954,1.954,0,0,0,1.652-.824A4.077,4.077,0,0,0,104.988,60.7Zm2.9-.008a4.993,4.993,0,0,1,.488-2.234,3.643,3.643,0,0,1,1.359-1.531,3.7,3.7,0,0,1,1.988-.539,3.565,3.565,0,0,1,2.793,1.2,4.6,4.6,0,0,1,1.066,3.18v.1a5.036,5.036,0,0,1-.473,2.215,3.589,3.589,0,0,1-1.352,1.527,3.743,3.743,0,0,1-2.02.547,3.556,3.556,0,0,1-2.785-1.2,4.575,4.575,0,0,1-1.066-3.164Zm1.453.172a3.616,3.616,0,0,0,.652,2.258,2.211,2.211,0,0,0,3.5-.012,3.955,3.955,0,0,0,.648-2.418,3.61,3.61,0,0,0-.66-2.254,2.1,2.1,0,0,0-1.754-.863A2.075,2.075,0,0,0,110,58.43,3.925,3.925,0,0,0,109.34,60.867Zm9.422-4.32.047,1.063a3.08,3.08,0,0,1,2.531-1.219q2.68,0,2.7,3.023V65H122.6V59.406a1.946,1.946,0,0,0-.418-1.352,1.675,1.675,0,0,0-1.277-.437,2.086,2.086,0,0,0-1.234.375,2.546,2.546,0,0,0-.828.984V65h-1.445V56.547Zm7.109,4.156a4.952,4.952,0,0,1,.922-3.129,3.137,3.137,0,0,1,4.766-.168V53H133V65h-1.328l-.07-.906a2.943,2.943,0,0,1-2.414,1.063,2.887,2.887,0,0,1-2.395-1.2,5.008,5.008,0,0,1-.926-3.141Zm1.445.164a3.749,3.749,0,0,0,.594,2.25,1.919,1.919,0,0,0,1.641.813,2.108,2.108,0,0,0,2.008-1.234V58.813a2.125,2.125,0,0,0-1.992-1.2,1.929,1.929,0,0,0-1.656.82A4.128,4.128,0,0,0,127.316,60.867Zm11.438,4.289a3.693,3.693,0,0,1-2.8-1.129,4.19,4.19,0,0,1-1.078-3.02v-.266a5.073,5.073,0,0,1,.48-2.246,3.748,3.748,0,0,1,1.344-1.547,3.378,3.378,0,0,1,1.871-.559,3.166,3.166,0,0,1,2.563,1.086,4.7,4.7,0,0,1,.914,3.109v.6h-5.727a3,3,0,0,0,.73,2.02,2.3,2.3,0,0,0,1.777.77,2.517,2.517,0,0,0,1.3-.312,3.258,3.258,0,0,0,.93-.828l.883.688A3.55,3.55,0,0,1,138.754,65.156Zm-.18-7.578a1.928,1.928,0,0,0-1.469.637A3.1,3.1,0,0,0,136.371,60h4.234v-.109a2.753,2.753,0,0,0-.594-1.707A1.815,1.815,0,0,0,138.574,57.578Zm6.516-1.031.047,1.063a3.08,3.08,0,0,1,2.531-1.219q2.68,0,2.7,3.023V65h-1.445V59.406a1.946,1.946,0,0,0-.418-1.352,1.675,1.675,0,0,0-1.277-.437,2.086,2.086,0,0,0-1.234.375,2.546,2.546,0,0,0-.828.984V65h-1.445V56.547ZM23.59,87.977a2.082,2.082,0,0,0,1.352-.469,1.649,1.649,0,0,0,.641-1.172h1.367a2.621,2.621,0,0,1-.5,1.383,3.293,3.293,0,0,1-1.23,1.047,3.55,3.55,0,0,1-1.629.391A3.482,3.482,0,0,1,20.844,88a4.59,4.59,0,0,1-1.02-3.152v-.242a5.089,5.089,0,0,1,.453-2.2,3.451,3.451,0,0,1,1.3-1.492,3.7,3.7,0,0,1,2-.531,3.39,3.39,0,0,1,2.363.852,3.043,3.043,0,0,1,1,2.211H25.582a1.992,1.992,0,0,0-.621-1.348,1.932,1.932,0,0,0-1.379-.527,2.023,2.023,0,0,0-1.707.793,3.724,3.724,0,0,0-.605,2.293v.273a3.65,3.65,0,0,0,.6,2.25A2.033,2.033,0,0,0,23.59,87.977ZM30.145,89H28.7V77h1.445Zm7.531,0a3.036,3.036,0,0,1-.2-.891,3.225,3.225,0,0,1-2.406,1.047,2.984,2.984,0,0,1-2.051-.707,2.287,2.287,0,0,1-.8-1.793,2.39,2.39,0,0,1,1-2.051,4.733,4.733,0,0,1,2.824-.73h1.406v-.664A1.623,1.623,0,0,0,37,82a1.821,1.821,0,0,0-1.336-.449,2.108,2.108,0,0,0-1.3.391,1.151,1.151,0,0,0-.523.945H32.387a2,2,0,0,1,.449-1.223,3.066,3.066,0,0,1,1.219-.934,4.1,4.1,0,0,1,1.691-.344,3.342,3.342,0,0,1,2.289.73,2.635,2.635,0,0,1,.859,2.012v3.891a4.757,4.757,0,0,0,.3,1.852V89Zm-2.4-1.1a2.54,2.54,0,0,0,1.289-.352,2.127,2.127,0,0,0,.883-.914V84.9H36.316q-2.656,0-2.656,1.555a1.316,1.316,0,0,0,.453,1.063A1.742,1.742,0,0,0,35.277,87.9Zm9.969-6.055a4.331,4.331,0,0,0-.711-.055A1.9,1.9,0,0,0,42.605,83v6H41.16V80.547h1.406l.023.977a2.251,2.251,0,0,1,2.016-1.133,1.477,1.477,0,0,1,.641.109ZM51.48,89a3.036,3.036,0,0,1-.2-.891,3.225,3.225,0,0,1-2.406,1.047,2.984,2.984,0,0,1-2.051-.707,2.287,2.287,0,0,1-.8-1.793,2.39,2.39,0,0,1,1-2.051,4.733,4.733,0,0,1,2.824-.73h1.406v-.664A1.623,1.623,0,0,0,50.8,82a1.821,1.821,0,0,0-1.336-.449,2.108,2.108,0,0,0-1.3.391,1.151,1.151,0,0,0-.523.945H46.191a2,2,0,0,1,.449-1.223,3.066,3.066,0,0,1,1.219-.934,4.1,4.1,0,0,1,1.691-.344,3.342,3.342,0,0,1,2.289.73,2.635,2.635,0,0,1,.859,2.012v3.891a4.757,4.757,0,0,0,.3,1.852V89Zm-2.4-1.1a2.54,2.54,0,0,0,1.289-.352,2.127,2.127,0,0,0,.883-.914V84.9H50.121q-2.656,0-2.656,1.555a1.316,1.316,0,0,0,.453,1.063A1.742,1.742,0,0,0,49.082,87.9Zm7.242-7.352.039.938a3.122,3.122,0,0,1,2.508-1.094,2.417,2.417,0,0,1,2.414,1.359,3.2,3.2,0,0,1,1.1-.984,3.242,3.242,0,0,1,1.6-.375q2.781,0,2.828,2.945V89H65.363V83.422a1.941,1.941,0,0,0-.414-1.355,1.823,1.823,0,0,0-1.391-.449,1.916,1.916,0,0,0-1.336.48,1.949,1.949,0,0,0-.617,1.293V89H60.152V83.461a1.613,1.613,0,0,0-1.8-1.844A1.934,1.934,0,0,0,56.4,82.828V89H54.957V80.547ZM72.5,89.156a3.693,3.693,0,0,1-2.8-1.129,4.19,4.19,0,0,1-1.078-3.02v-.266A5.073,5.073,0,0,1,69.1,82.5a3.748,3.748,0,0,1,1.344-1.547,3.378,3.378,0,0,1,1.871-.559,3.166,3.166,0,0,1,2.563,1.086,4.7,4.7,0,0,1,.914,3.109v.6H70.066a3,3,0,0,0,.73,2.02,2.3,2.3,0,0,0,1.777.77,2.517,2.517,0,0,0,1.3-.312,3.259,3.259,0,0,0,.93-.828l.883.688A3.55,3.55,0,0,1,72.5,89.156Zm-.18-7.578a1.928,1.928,0,0,0-1.469.637A3.1,3.1,0,0,0,70.113,84h4.234v-.109a2.753,2.753,0,0,0-.594-1.707A1.815,1.815,0,0,0,72.316,81.578Zm6.516-1.031.047,1.063a3.08,3.08,0,0,1,2.531-1.219q2.68,0,2.7,3.023V89H82.668V83.406a1.946,1.946,0,0,0-.418-1.352,1.675,1.675,0,0,0-1.277-.437,2.086,2.086,0,0,0-1.234.375,2.546,2.546,0,0,0-.828.984V89H77.465V80.547ZM88.254,78.5v2.047h1.578v1.117H88.254v5.249a1.173,1.173,0,0,0,.211.763.888.888,0,0,0,.719.254,3.5,3.5,0,0,0,.688-.094V89a4.215,4.215,0,0,1-1.109.155A1.8,1.8,0,0,1,87.3,88.57a2.517,2.517,0,0,1-.492-1.664V81.664H85.27V80.547h1.539V78.5Zm6.773,10.656a3.693,3.693,0,0,1-2.8-1.129,4.19,4.19,0,0,1-1.078-3.02v-.266a5.073,5.073,0,0,1,.48-2.246,3.748,3.748,0,0,1,1.344-1.547,3.378,3.378,0,0,1,1.871-.559,3.166,3.166,0,0,1,2.563,1.086,4.7,4.7,0,0,1,.914,3.109v.6H92.6a3,3,0,0,0,.73,2.02,2.3,2.3,0,0,0,1.777.77,2.517,2.517,0,0,0,1.3-.312,3.259,3.259,0,0,0,.93-.828l.883.688A3.55,3.55,0,0,1,95.027,89.156Zm-.18-7.578a1.928,1.928,0,0,0-1.469.637A3.1,3.1,0,0,0,92.645,84h4.234v-.109a2.753,2.753,0,0,0-.594-1.707A1.815,1.815,0,0,0,94.848,81.578ZM109.176,89a3.036,3.036,0,0,1-.2-.891,3.225,3.225,0,0,1-2.406,1.047,2.984,2.984,0,0,1-2.051-.707,2.287,2.287,0,0,1-.8-1.793,2.39,2.39,0,0,1,1-2.051,4.733,4.733,0,0,1,2.824-.73h1.406v-.664A1.623,1.623,0,0,0,108.5,82a1.821,1.821,0,0,0-1.336-.449,2.108,2.108,0,0,0-1.3.391,1.151,1.151,0,0,0-.523.945h-1.453a2,2,0,0,1,.449-1.223,3.066,3.066,0,0,1,1.219-.934,4.1,4.1,0,0,1,1.691-.344,3.342,3.342,0,0,1,2.289.73,2.635,2.635,0,0,1,.859,2.012v3.891a4.757,4.757,0,0,0,.3,1.852V89Zm-2.4-1.1a2.54,2.54,0,0,0,1.289-.352,2.127,2.127,0,0,0,.883-.914V84.9h-1.133q-2.656,0-2.656,1.555a1.316,1.316,0,0,0,.453,1.063A1.742,1.742,0,0,0,106.777,87.9Zm11.8-9.4v2.047h1.578v1.117h-1.578v5.249a1.173,1.173,0,0,0,.211.763.888.888,0,0,0,.719.254,3.5,3.5,0,0,0,.688-.094V89a4.215,4.215,0,0,1-1.109.155,1.8,1.8,0,0,1-1.461-.586,2.517,2.517,0,0,1-.492-1.664V81.664H115.6V80.547h1.539V78.5Zm7.352,3.344a4.331,4.331,0,0,0-.711-.055A1.9,1.9,0,0,0,123.293,83v6h-1.445V80.547h1.406l.023.977a2.251,2.251,0,0,1,2.016-1.133,1.477,1.477,0,0,1,.641.109Zm4.836,7.313a3.693,3.693,0,0,1-2.8-1.129,4.19,4.19,0,0,1-1.078-3.02v-.266a5.073,5.073,0,0,1,.48-2.246,3.748,3.748,0,0,1,1.344-1.547,3.378,3.378,0,0,1,1.871-.559,3.166,3.166,0,0,1,2.563,1.086,4.7,4.7,0,0,1,.914,3.109v.6H128.34a3,3,0,0,0,.73,2.02,2.3,2.3,0,0,0,1.777.77,2.517,2.517,0,0,0,1.3-.312,3.258,3.258,0,0,0,.93-.828l.883.688A3.55,3.55,0,0,1,130.77,89.156Zm-.18-7.578a1.928,1.928,0,0,0-1.469.637A3.1,3.1,0,0,0,128.387,84h4.234v-.109a2.753,2.753,0,0,0-.594-1.707A1.815,1.815,0,0,0,130.59,81.578Zm10.07,5.18a1.064,1.064,0,0,0-.441-.91,4.249,4.249,0,0,0-1.539-.559,7.277,7.277,0,0,1-1.742-.562,2.479,2.479,0,0,1-.953-.781,1.869,1.869,0,0,1-.309-1.078,2.193,2.193,0,0,1,.879-1.758,3.432,3.432,0,0,1,2.246-.719,3.532,3.532,0,0,1,2.332.742,2.357,2.357,0,0,1,.895,1.9h-1.453a1.3,1.3,0,0,0-.5-1.023,1.888,1.888,0,0,0-1.27-.43,1.976,1.976,0,0,0-1.234.344,1.082,1.082,0,0,0-.445.9.877.877,0,0,0,.414.789,5.1,5.1,0,0,0,1.5.508,7.8,7.8,0,0,1,1.754.578,2.558,2.558,0,0,1,1,.809,1.988,1.988,0,0,1,.324,1.152,2.163,2.163,0,0,1-.906,1.816,3.8,3.8,0,0,1-2.352.684,4.257,4.257,0,0,1-1.8-.359,2.922,2.922,0,0,1-1.223-1,2.42,2.42,0,0,1-.441-1.395h1.445a1.5,1.5,0,0,0,.582,1.152,2.258,2.258,0,0,0,1.434.426,2.331,2.331,0,0,0,1.316-.332A1.02,1.02,0,0,0,140.66,86.758ZM21.813,111.977a2.082,2.082,0,0,0,1.352-.469,1.649,1.649,0,0,0,.641-1.172h1.367a2.621,2.621,0,0,1-.5,1.383,3.293,3.293,0,0,1-1.23,1.047,3.55,3.55,0,0,1-1.629.391A3.482,3.482,0,0,1,19.066,112a4.59,4.59,0,0,1-1.02-3.152v-.242a5.089,5.089,0,0,1,.453-2.2,3.451,3.451,0,0,1,1.3-1.492,3.7,3.7,0,0,1,2-.531,3.39,3.39,0,0,1,2.363.852,3.043,3.043,0,0,1,1,2.211H23.8a1.992,1.992,0,0,0-.621-1.348,1.932,1.932,0,0,0-1.379-.527,2.023,2.023,0,0,0-1.707.793,3.724,3.724,0,0,0-.605,2.293v.273a3.65,3.65,0,0,0,.6,2.25A2.033,2.033,0,0,0,21.813,111.977Zm10.2.188a3.07,3.07,0,0,1-2.477.992,2.628,2.628,0,0,1-2.059-.785,3.4,3.4,0,0,1-.715-2.324v-5.5h1.445v5.461q0,1.922,1.563,1.922a2.163,2.163,0,0,0,2.2-1.234v-6.148h1.445V113H32.047Zm7.109.992a3.693,3.693,0,0,1-2.8-1.129,4.19,4.19,0,0,1-1.078-3.02v-.266a5.073,5.073,0,0,1,.48-2.246,3.748,3.748,0,0,1,1.344-1.547,3.378,3.378,0,0,1,1.871-.559,3.166,3.166,0,0,1,2.563,1.086,4.7,4.7,0,0,1,.914,3.109v.6H36.7a3,3,0,0,0,.73,2.02,2.3,2.3,0,0,0,1.777.77,2.517,2.517,0,0,0,1.3-.312,3.259,3.259,0,0,0,.93-.828l.883.688A3.55,3.55,0,0,1,39.125,113.156Zm-.18-7.578a1.928,1.928,0,0,0-1.469.637A3.1,3.1,0,0,0,36.742,108h4.234v-.109a2.753,2.753,0,0,0-.594-1.707A1.815,1.815,0,0,0,38.945,105.578Zm10.07,5.18a1.064,1.064,0,0,0-.441-.91,4.249,4.249,0,0,0-1.539-.559,7.277,7.277,0,0,1-1.742-.562,2.479,2.479,0,0,1-.953-.781,1.869,1.869,0,0,1-.309-1.078,2.193,2.193,0,0,1,.879-1.758,3.432,3.432,0,0,1,2.246-.719,3.532,3.532,0,0,1,2.332.742,2.357,2.357,0,0,1,.895,1.9H48.93a1.3,1.3,0,0,0-.5-1.023,1.888,1.888,0,0,0-1.27-.43,1.976,1.976,0,0,0-1.234.344,1.082,1.082,0,0,0-.445.9.877.877,0,0,0,.414.789,5.1,5.1,0,0,0,1.5.508,7.8,7.8,0,0,1,1.754.578,2.558,2.558,0,0,1,1,.809,1.988,1.988,0,0,1,.324,1.152,2.163,2.163,0,0,1-.906,1.816,3.8,3.8,0,0,1-2.352.684,4.257,4.257,0,0,1-1.8-.359,2.922,2.922,0,0,1-1.223-1,2.42,2.42,0,0,1-.441-1.395h1.445a1.5,1.5,0,0,0,.582,1.152,2.258,2.258,0,0,0,1.434.426,2.331,2.331,0,0,0,1.316-.332A1.02,1.02,0,0,0,49.016,110.758ZM54.3,102.5v2.047h1.578v1.117H54.3v5.249a1.173,1.173,0,0,0,.211.763.888.888,0,0,0,.719.254,3.5,3.5,0,0,0,.688-.094V113a4.215,4.215,0,0,1-1.109.155,1.8,1.8,0,0,1-1.461-.586,2.517,2.517,0,0,1-.492-1.664v-5.242H51.32v-1.117h1.539V102.5ZM59.141,113H57.7v-8.453h1.445Zm-1.562-10.7a.863.863,0,0,1,.215-.594.807.807,0,0,1,.637-.242.819.819,0,0,1,.641.242.854.854,0,0,1,.219.594.826.826,0,0,1-.219.586.834.834,0,0,1-.641.234.821.821,0,0,1-.637-.234A.834.834,0,0,1,57.578,102.3ZM61.07,108.7a4.993,4.993,0,0,1,.488-2.234,3.642,3.642,0,0,1,1.359-1.531,3.7,3.7,0,0,1,1.988-.539,3.565,3.565,0,0,1,2.793,1.2,4.6,4.6,0,0,1,1.066,3.18v.1a5.036,5.036,0,0,1-.473,2.215,3.589,3.589,0,0,1-1.352,1.527,3.743,3.743,0,0,1-2.02.547,3.556,3.556,0,0,1-2.785-1.2A4.575,4.575,0,0,1,61.07,108.8Zm1.453.172a3.616,3.616,0,0,0,.652,2.258,2.211,2.211,0,0,0,3.5-.012,3.955,3.955,0,0,0,.648-2.418,3.61,3.61,0,0,0-.66-2.254,2.1,2.1,0,0,0-1.754-.863,2.075,2.075,0,0,0-1.727.852A3.925,3.925,0,0,0,62.523,108.867Zm9.422-4.32.047,1.063a3.08,3.08,0,0,1,2.531-1.219q2.68,0,2.7,3.023V113H75.781v-5.594a1.946,1.946,0,0,0-.418-1.352,1.675,1.675,0,0,0-1.277-.437,2.086,2.086,0,0,0-1.234.375,2.546,2.546,0,0,0-.828.984V113H70.578v-8.453ZM84.625,113a3.036,3.036,0,0,1-.2-.891,3.225,3.225,0,0,1-2.406,1.047,2.984,2.984,0,0,1-2.051-.707,2.287,2.287,0,0,1-.8-1.793,2.39,2.39,0,0,1,1-2.051,4.733,4.733,0,0,1,2.824-.73H84.4v-.664A1.623,1.623,0,0,0,83.945,106a1.821,1.821,0,0,0-1.336-.449,2.108,2.108,0,0,0-1.3.391,1.151,1.151,0,0,0-.523.945H79.336a2,2,0,0,1,.449-1.223A3.066,3.066,0,0,1,81,104.734a4.1,4.1,0,0,1,1.691-.344,3.342,3.342,0,0,1,2.289.73,2.635,2.635,0,0,1,.859,2.012v3.891a4.757,4.757,0,0,0,.3,1.852V113Zm-2.4-1.1a2.54,2.54,0,0,0,1.289-.352,2.127,2.127,0,0,0,.883-.914V108.9H83.266q-2.656,0-2.656,1.555a1.316,1.316,0,0,0,.453,1.063A1.742,1.742,0,0,0,82.227,111.9Zm7.242-7.352.039.938a3.122,3.122,0,0,1,2.508-1.094,2.417,2.417,0,0,1,2.414,1.359,3.2,3.2,0,0,1,1.1-.984,3.242,3.242,0,0,1,1.6-.375q2.781,0,2.828,2.945V113H98.508v-5.578a1.941,1.941,0,0,0-.414-1.355,1.823,1.823,0,0,0-1.391-.449,1.916,1.916,0,0,0-1.336.48,1.949,1.949,0,0,0-.617,1.293V113H93.3v-5.539a1.613,1.613,0,0,0-1.8-1.844,1.934,1.934,0,0,0-1.945,1.211V113H88.1v-8.453ZM103.7,113h-1.445v-8.453H103.7Zm-1.562-10.7a.863.863,0,0,1,.215-.594.807.807,0,0,1,.637-.242.819.819,0,0,1,.641.242.854.854,0,0,1,.219.594.826.826,0,0,1-.219.586.834.834,0,0,1-.641.234.821.821,0,0,1-.637-.234A.834.834,0,0,1,102.141,102.3Zm7.383,10.852a3.693,3.693,0,0,1-2.8-1.129,4.19,4.19,0,0,1-1.078-3.02v-.266a5.073,5.073,0,0,1,.48-2.246,3.748,3.748,0,0,1,1.344-1.547,3.378,3.378,0,0,1,1.871-.559,3.166,3.166,0,0,1,2.563,1.086,4.7,4.7,0,0,1,.914,3.109v.6h-5.727a3,3,0,0,0,.73,2.02,2.3,2.3,0,0,0,1.777.77,2.517,2.517,0,0,0,1.3-.312,3.259,3.259,0,0,0,.93-.828l.883.688A3.55,3.55,0,0,1,109.523,113.156Zm-.18-7.578a1.928,1.928,0,0,0-1.469.637,3.1,3.1,0,0,0-.734,1.785h4.234v-.109a2.753,2.753,0,0,0-.594-1.707A1.815,1.815,0,0,0,109.344,105.578Zm6.516-1.031.047,1.063a3.08,3.08,0,0,1,2.531-1.219q2.68,0,2.7,3.023V113H119.7v-5.594a1.946,1.946,0,0,0-.418-1.352,1.675,1.675,0,0,0-1.277-.437,2.086,2.086,0,0,0-1.234.375,2.546,2.546,0,0,0-.828.984V113h-1.445v-8.453Zm9.422-2.047v2.047h1.578v1.117h-1.578v5.249a1.173,1.173,0,0,0,.211.763.888.888,0,0,0,.719.254,3.5,3.5,0,0,0,.688-.094V113a4.215,4.215,0,0,1-1.109.155,1.8,1.8,0,0,1-1.461-.586,2.517,2.517,0,0,1-.492-1.664v-5.242H122.3v-1.117h1.539V102.5Zm2.727,6.2a4.993,4.993,0,0,1,.488-2.234,3.642,3.642,0,0,1,1.359-1.531,3.7,3.7,0,0,1,1.988-.539,3.565,3.565,0,0,1,2.793,1.2,4.6,4.6,0,0,1,1.066,3.18v.1a5.036,5.036,0,0,1-.473,2.215,3.589,3.589,0,0,1-1.352,1.527,3.743,3.743,0,0,1-2.02.547,3.556,3.556,0,0,1-2.785-1.2,4.575,4.575,0,0,1-1.066-3.164Zm1.453.172a3.616,3.616,0,0,0,.652,2.258,2.211,2.211,0,0,0,3.5-.012,3.954,3.954,0,0,0,.648-2.418,3.61,3.61,0,0,0-.66-2.254,2.1,2.1,0,0,0-1.754-.863,2.075,2.075,0,0,0-1.727.852A3.925,3.925,0,0,0,129.461,108.867Zm12.977,1.891a1.064,1.064,0,0,0-.441-.91,4.249,4.249,0,0,0-1.539-.559,7.277,7.277,0,0,1-1.742-.562,2.479,2.479,0,0,1-.953-.781,1.869,1.869,0,0,1-.309-1.078,2.193,2.193,0,0,1,.879-1.758,3.432,3.432,0,0,1,2.246-.719,3.532,3.532,0,0,1,2.332.742,2.357,2.357,0,0,1,.895,1.9h-1.453a1.3,1.3,0,0,0-.5-1.023,1.888,1.888,0,0,0-1.27-.43,1.976,1.976,0,0,0-1.234.344,1.082,1.082,0,0,0-.445.9.877.877,0,0,0,.414.789,5.1,5.1,0,0,0,1.5.508,7.8,7.8,0,0,1,1.754.578,2.558,2.558,0,0,1,1,.809,1.988,1.988,0,0,1,.324,1.152,2.163,2.163,0,0,1-.906,1.816,3.8,3.8,0,0,1-2.352.684,4.257,4.257,0,0,1-1.8-.359,2.922,2.922,0,0,1-1.223-1,2.42,2.42,0,0,1-.441-1.395h1.445a1.5,1.5,0,0,0,.582,1.152,2.258,2.258,0,0,0,1.434.426,2.331,2.331,0,0,0,1.316-.332A1.02,1.02,0,0,0,142.438,110.758ZM35.219,135.977a2.082,2.082,0,0,0,1.352-.469,1.649,1.649,0,0,0,.641-1.172h1.367a2.621,2.621,0,0,1-.5,1.383,3.293,3.293,0,0,1-1.23,1.047,3.55,3.55,0,0,1-1.629.391A3.482,3.482,0,0,1,32.473,136a4.59,4.59,0,0,1-1.02-3.152v-.242a5.089,5.089,0,0,1,.453-2.2,3.451,3.451,0,0,1,1.3-1.492,3.7,3.7,0,0,1,2-.531,3.39,3.39,0,0,1,2.363.852,3.043,3.043,0,0,1,1,2.211H37.211a1.992,1.992,0,0,0-.621-1.348,1.932,1.932,0,0,0-1.379-.527,2.023,2.023,0,0,0-1.707.793,3.724,3.724,0,0,0-.605,2.293v.273a3.65,3.65,0,0,0,.6,2.25A2.033,2.033,0,0,0,35.219,135.977ZM41.773,137H40.328V125h1.445Zm7.531,0a3.036,3.036,0,0,1-.2-.891,3.225,3.225,0,0,1-2.406,1.047,2.984,2.984,0,0,1-2.051-.707,2.288,2.288,0,0,1-.8-1.793,2.39,2.39,0,0,1,1-2.051,4.733,4.733,0,0,1,2.824-.73h1.406v-.664A1.623,1.623,0,0,0,48.625,130a1.821,1.821,0,0,0-1.336-.449,2.107,2.107,0,0,0-1.3.391,1.151,1.151,0,0,0-.523.945H44.016a2,2,0,0,1,.449-1.223,3.066,3.066,0,0,1,1.219-.934,4.1,4.1,0,0,1,1.691-.344,3.342,3.342,0,0,1,2.289.73,2.635,2.635,0,0,1,.859,2.012v3.891a4.757,4.757,0,0,0,.3,1.852V137Zm-2.4-1.1a2.54,2.54,0,0,0,1.289-.352,2.127,2.127,0,0,0,.883-.914V132.9H47.945q-2.656,0-2.656,1.555a1.316,1.316,0,0,0,.453,1.063A1.742,1.742,0,0,0,46.906,135.9Zm8.555-.859,2.094-6.492h1.477L56,137H54.9l-3.062-8.453h1.477Zm8.469,2.117a3.693,3.693,0,0,1-2.8-1.129,4.19,4.19,0,0,1-1.078-3.02v-.266a5.073,5.073,0,0,1,.48-2.246,3.748,3.748,0,0,1,1.344-1.547,3.379,3.379,0,0,1,1.871-.559,3.166,3.166,0,0,1,2.563,1.086,4.7,4.7,0,0,1,.914,3.109v.6H61.5a3,3,0,0,0,.73,2.02,2.3,2.3,0,0,0,1.777.77,2.517,2.517,0,0,0,1.3-.312,3.258,3.258,0,0,0,.93-.828l.883.688A3.55,3.55,0,0,1,63.93,137.156Zm-.18-7.578a1.928,1.928,0,0,0-1.469.637A3.1,3.1,0,0,0,61.547,132h4.234v-.109a2.753,2.753,0,0,0-.594-1.707A1.815,1.815,0,0,0,63.75,129.578Zm5.1,9.688-.82-.562a3.77,3.77,0,0,0,.766-2.109v-1.3h1.414v1.133A3.559,3.559,0,0,1,69.824,138,3.7,3.7,0,0,1,68.852,139.266ZM81.219,137a3.036,3.036,0,0,1-.2-.891,3.225,3.225,0,0,1-2.406,1.047,2.984,2.984,0,0,1-2.051-.707,2.288,2.288,0,0,1-.8-1.793,2.39,2.39,0,0,1,1-2.051,4.733,4.733,0,0,1,2.824-.73h1.406v-.664A1.623,1.623,0,0,0,80.539,130a1.821,1.821,0,0,0-1.336-.449,2.107,2.107,0,0,0-1.3.391,1.151,1.151,0,0,0-.523.945H75.93a2,2,0,0,1,.449-1.223,3.066,3.066,0,0,1,1.219-.934,4.1,4.1,0,0,1,1.691-.344,3.342,3.342,0,0,1,2.289.73,2.635,2.635,0,0,1,.859,2.012v3.891a4.757,4.757,0,0,0,.3,1.852V137Zm-2.4-1.1a2.54,2.54,0,0,0,1.289-.352,2.127,2.127,0,0,0,.883-.914V132.9H79.859q-2.656,0-2.656,1.555a1.316,1.316,0,0,0,.453,1.063A1.742,1.742,0,0,0,78.82,135.9Zm14.766-1.141a1.064,1.064,0,0,0-.441-.91,4.249,4.249,0,0,0-1.539-.559,7.277,7.277,0,0,1-1.742-.562,2.479,2.479,0,0,1-.953-.781,1.869,1.869,0,0,1-.309-1.078,2.193,2.193,0,0,1,.879-1.758,3.432,3.432,0,0,1,2.246-.719,3.532,3.532,0,0,1,2.332.742,2.357,2.357,0,0,1,.895,1.9H93.5a1.3,1.3,0,0,0-.5-1.023,1.888,1.888,0,0,0-1.27-.43,1.976,1.976,0,0,0-1.234.344,1.082,1.082,0,0,0-.445.9.877.877,0,0,0,.414.789,5.1,5.1,0,0,0,1.5.508,7.8,7.8,0,0,1,1.754.578,2.558,2.558,0,0,1,1,.809,1.988,1.988,0,0,1,.324,1.152,2.163,2.163,0,0,1-.906,1.816,3.8,3.8,0,0,1-2.352.684,4.257,4.257,0,0,1-1.8-.359,2.922,2.922,0,0,1-1.223-1,2.42,2.42,0,0,1-.441-1.395h1.445a1.5,1.5,0,0,0,.582,1.152,2.258,2.258,0,0,0,1.434.426,2.331,2.331,0,0,0,1.316-.332A1.02,1.02,0,0,0,93.586,134.758ZM102.133,137a3.036,3.036,0,0,1-.2-.891,3.225,3.225,0,0,1-2.406,1.047,2.984,2.984,0,0,1-2.051-.707,2.288,2.288,0,0,1-.8-1.793,2.39,2.39,0,0,1,1-2.051,4.733,4.733,0,0,1,2.824-.73h1.406v-.664a1.623,1.623,0,0,0-.453-1.207,1.821,1.821,0,0,0-1.336-.449,2.107,2.107,0,0,0-1.3.391,1.151,1.151,0,0,0-.523.945H96.844a2,2,0,0,1,.449-1.223,3.066,3.066,0,0,1,1.219-.934,4.1,4.1,0,0,1,1.691-.344,3.342,3.342,0,0,1,2.289.73,2.635,2.635,0,0,1,.859,2.012v3.891a4.757,4.757,0,0,0,.3,1.852V137Zm-2.4-1.1a2.54,2.54,0,0,0,1.289-.352,2.127,2.127,0,0,0,.883-.914V132.9h-1.133q-2.656,0-2.656,1.555a1.316,1.316,0,0,0,.453,1.063A1.742,1.742,0,0,0,99.734,135.9Zm13.039-3.031a5.026,5.026,0,0,1-.891,3.113,2.846,2.846,0,0,1-2.391,1.176,2.947,2.947,0,0,1-2.477-1.133l-.07.977h-1.328V125h1.445v4.477a2.93,2.93,0,0,1,2.414-1.086,2.863,2.863,0,0,1,2.418,1.164,5.177,5.177,0,0,1,.879,3.188Zm-1.445-.164a3.906,3.906,0,0,0-.57-2.281,1.888,1.888,0,0,0-1.641-.8,2.122,2.122,0,0,0-2.055,1.328V134.6a2.181,2.181,0,0,0,2.07,1.328,1.878,1.878,0,0,0,1.617-.8A4.153,4.153,0,0,0,111.328,132.7Zm6.773,4.453a3.693,3.693,0,0,1-2.8-1.129,4.19,4.19,0,0,1-1.078-3.02v-.266a5.073,5.073,0,0,1,.48-2.246,3.748,3.748,0,0,1,1.344-1.547,3.379,3.379,0,0,1,1.871-.559,3.166,3.166,0,0,1,2.563,1.086,4.7,4.7,0,0,1,.914,3.109v.6h-5.727a3,3,0,0,0,.73,2.02,2.3,2.3,0,0,0,1.777.77,2.517,2.517,0,0,0,1.3-.312,3.258,3.258,0,0,0,.93-.828l.883.688A3.55,3.55,0,0,1,118.1,137.156Zm-.18-7.578a1.928,1.928,0,0,0-1.469.637,3.1,3.1,0,0,0-.734,1.785h4.234v-.109a2.753,2.753,0,0,0-.594-1.707A1.815,1.815,0,0,0,117.922,129.578Zm9.234.266a4.332,4.332,0,0,0-.711-.055,1.9,1.9,0,0,0-1.93,1.211v6H123.07v-8.453h1.406l.023.977a2.251,2.251,0,0,1,2.016-1.133,1.476,1.476,0,0,1,.641.109Zm1.281,6.4a.905.905,0,0,1,.223-.625.848.848,0,0,1,.668-.25.874.874,0,0,1,.676.25.887.887,0,0,1,.23.625.839.839,0,0,1-.23.6.89.89,0,0,1-.676.242.8.8,0,0,1-.891-.844Zm.008-6.9a.905.905,0,0,1,.223-.625.848.848,0,0,1,.668-.25.874.874,0,0,1,.676.25.887.887,0,0,1,.23.625.839.839,0,0,1-.23.6.89.89,0,0,1-.676.242.8.8,0,0,1-.891-.844Z" transform="translate(567 1608)" fill="#fff"/>
    <g id="Grupo_141209" data-name="Grupo 141209" transform="translate(60.182 997.518)">
      <g id="Grupo_141189" data-name="Grupo 141189" transform="translate(430.152 472.482)">
        <g id="Grupo_141187" data-name="Grupo 141187">
          <path id="Trazado_184664" data-name="Trazado 184664" d="M1058.939,424.276a37.581,37.581,0,0,0-8.308-14.437q-5.959-6.592-16.254-10.892t-26.161-4.3a102.349,102.349,0,0,0-25.8,3.413,76.662,76.662,0,0,0-22.826,9.754l8.4,23.055-4.5,3.646,6.527,1.918a95.846,95.846,0,0,1,17.61-7.346,60.887,60.887,0,0,1,16.867-2.276q8.926,0,13.516,4.3A13.736,13.736,0,0,1,1022.6,441.5a19.935,19.935,0,0,1-4.707,13.044q-4.723,5.7-10.424,11.527-3.96,4.044-7.687,8.352a59.95,59.95,0,0,0-6.573,9.251,50.3,50.3,0,0,0-4.586,10.636,43.655,43.655,0,0,0-1.736,12.788c0,1.525.032,3.339.121,5.45.015.389.035.769.059,1.144h-6.171l6.734,4.554h32.741a21.749,21.749,0,0,1-.25-3.545v-3.042a21.993,21.993,0,0,1,1.736-8.484,43.88,43.88,0,0,1,4.344-7.981,58.953,58.953,0,0,1,5.829-7.214q3.222-3.426,6.2-6.464,3.961-4.044,8.179-8.608a67.657,67.657,0,0,0,7.444-9.622,54.06,54.06,0,0,0,5.329-11.024,38.81,38.81,0,0,0,2.115-13.044A52.165,52.165,0,0,0,1058.939,424.276Z" transform="translate(-953.187 -394.071)" fill="#e49b31"/>
          <path id="Trazado_184665" data-name="Trazado 184665" d="M956.467,421.527a61.362,61.362,0,0,0-16.669,2.2,95.858,95.858,0,0,0-17.4,7.11l-10.3-27.7a76.6,76.6,0,0,1,22.558-9.44,103.166,103.166,0,0,1,25.495-3.3q15.68,0,25.854,4.165t16.063,10.541a36.194,36.194,0,0,1,8.211,13.972,49.523,49.523,0,0,1,2.33,14.459,36.85,36.85,0,0,1-2.091,12.624,51.867,51.867,0,0,1-5.266,10.669,65.689,65.689,0,0,1-7.357,9.312q-4.165,4.417-8.083,8.331-2.945,2.945-6.128,6.256a57.3,57.3,0,0,0-5.761,6.982,42.2,42.2,0,0,0-4.293,7.724,20.9,20.9,0,0,0-1.716,8.211v2.944a20.626,20.626,0,0,0,.247,3.431H939.8a34.3,34.3,0,0,1-.614-5.514c-.088-2.043-.12-3.8-.12-5.275a41.432,41.432,0,0,1,1.716-12.376,48.155,48.155,0,0,1,4.532-10.294,58.05,58.05,0,0,1,6.5-8.953q3.675-4.165,7.6-8.083,5.638-5.638,10.3-11.155a19.052,19.052,0,0,0,4.652-12.624,13.171,13.171,0,0,0-4.532-10.054Q965.288,421.527,956.467,421.527Z" transform="translate(-912.092 -390.399)" fill="#fbc343"/>
        </g>
        <g id="Grupo_141188" data-name="Grupo 141188" transform="translate(25.622 137.463)">
          <path id="Trazado_184666" data-name="Trazado 184666" d="M1187,1429.7q0,8.855-5.733,13.671a19.845,19.845,0,0,1-25.935,0q-5.723-4.82-5.726-13.671t5.726-13.671a19.923,19.923,0,0,1,21.474-2.586A18.41,18.41,0,0,1,1187,1429.7Z" transform="translate(-1143.203 -1411.202)" fill="#e49b31"/>
          <path id="Trazado_184667" data-name="Trazado 184667" d="M1139.5,1428.342q0,8.855-5.733,13.671a19.845,19.845,0,0,1-25.935,0q-5.723-4.82-5.726-13.671t5.726-13.671a19.844,19.844,0,0,1,25.935,0Q1139.5,1419.5,1139.5,1428.342Z" transform="translate(-1102.108 -1409.848)" fill="#fbc343"/>
        </g>
      </g>
      <g id="Grupo_141208" data-name="Grupo 141208" transform="translate(309.818 488.474)">
        <g id="Grupo_141192" data-name="Grupo 141192" transform="translate(20.988 0)">
          <circle id="Elipse_4894" data-name="Elipse 4894" cx="8.659" cy="8.659" r="8.659" transform="matrix(0.184, -0.983, 0.983, 0.184, 59.48, 98.734)" fill="#d3dfff"/>
          <ellipse id="Elipse_4895" data-name="Elipse 4895" cx="4.87" cy="4.905" rx="4.87" ry="4.905" transform="translate(71.694 112.659) rotate(-79.386)" fill="#d3dfff"/>
          <g id="Grupo_141191" data-name="Grupo 141191">
            <circle id="Elipse_4896" data-name="Elipse 4896" cx="34.095" cy="34.095" r="34.095" transform="translate(0 48.218) rotate(-45)" fill="#d3dfff"/>
            <g id="Grupo_141190" data-name="Grupo 141190" transform="translate(30.83 43.922)">
              <circle id="Elipse_4897" data-name="Elipse 4897" cx="4.296" cy="4.296" r="4.296" fill="#fff"/>
              <circle id="Elipse_4898" data-name="Elipse 4898" cx="4.296" cy="4.296" r="4.296" transform="translate(13.092)" fill="#fff"/>
              <circle id="Elipse_4899" data-name="Elipse 4899" cx="4.296" cy="4.296" r="4.296" transform="translate(26.183)" fill="#fff"/>
            </g>
          </g>
        </g>
        <g id="Grupo_141207" data-name="Grupo 141207" transform="translate(0 122.735)">
          <g id="Grupo_141195" data-name="Grupo 141195" transform="translate(19.969 135.626)">
            <g id="Grupo_141193" data-name="Grupo 141193" transform="translate(24.602 55.844)">
              <path id="Trazado_184668" data-name="Trazado 184668" d="M496.171,1606.211l3.186,12.281a7.037,7.037,0,0,0,7.353,5.134c10.445-.71,32.148-3.269,44.6-12.449l-3.541-17.7c-17.126-.967-33.142-.015-47.011,4.654A6.783,6.783,0,0,0,496.171,1606.211Z" transform="translate(-495.961 -1593.136)" fill="#102048"/>
              <path id="Trazado_184669" data-name="Trazado 184669" d="M547.4,1629.536a.414.414,0,0,1-.4-.3l-4.277-15.315a.414.414,0,0,1,.8-.222l4.277,15.315a.414.414,0,0,1-.287.51A.42.42,0,0,1,547.4,1629.536Z" transform="translate(-527.228 -1606.685)" fill="#fff"/>
              <path id="Trazado_184670" data-name="Trazado 184670" d="M575.316,1623.286a.415.415,0,0,1-.4-.3l-4.277-15.315a.414.414,0,0,1,.8-.222l4.277,15.315a.414.414,0,0,1-.287.51A.421.421,0,0,1,575.316,1623.286Z" transform="translate(-545.9 -1602.504)" fill="#fff"/>
            </g>
            <path id="Trazado_184671" data-name="Trazado 184671" d="M536.815,1427.03l-39.8,11.813,29.561,40.5,42.439,3.375,58.536-24.752L605.3,1424.5Z" transform="translate(-472.061 -1424.498)" fill="#fbc343"/>
            <path id="Trazado_184672" data-name="Trazado 184672" d="M669.242,1438.5c87.414-25.877,101.463,51.379-34.927,65.443-4.818-5.421-10.447-14.827-12.683-22.689l72.025-33.284Z" transform="translate(-555.415 -1430.347)" fill="#fbc343"/>
            <path id="Trazado_184673" data-name="Trazado 184673" d="M732.072,1608.467a37.812,37.812,0,0,1-8.006-3.9l-14.049,4.407,3.22,15.283,14.594,2.965C732.277,1619.094,732.536,1612.417,732.072,1608.467Z" transform="translate(-614.531 -1544.941)" fill="#f9b384"/>
            <path id="Trazado_184674" data-name="Trazado 184674" d="M621.315,1505.182l-.624-1.074c15.026-8.733,53.514-29.711,86.306-35.9l.23,1.221C674.624,1475.582,636.285,1496.482,621.315,1505.182Z" transform="translate(-554.785 -1453.735)" fill="#e49b31"/>
            <path id="Trazado_184675" data-name="Trazado 184675" d="M486.421,1428.071c-81.365-15.47-102.438,62.724,33.951,76.788A49.544,49.544,0,0,0,531.2,1485.17a620.945,620.945,0,0,0-70.048-40.035Z" transform="translate(-421.667 -1425.539)" fill="#fbc343"/>
            <path id="Trazado_184676" data-name="Trazado 184676" d="M592.8,1510.347c-3.87-2.463-7.9-5.067-12.173-7.824-21.434-13.839-45.728-29.524-66.368-38.469l.494-1.139c20.734,8.985,45.073,24.7,66.548,38.565,4.268,2.756,8.3,5.359,12.167,7.82Z" transform="translate(-483.594 -1450.193)" fill="#e49b31"/>
            <path id="Trazado_184677" data-name="Trazado 184677" d="M434.742,1525.623l-1.087-.6a22.829,22.829,0,0,1,14.54-11.084l.331,1.2C442.178,1516.892,437.669,1520.323,434.742,1525.623Z" transform="translate(-429.685 -1484.321)" fill="#e49b31"/>
            <path id="Trazado_184678" data-name="Trazado 184678" d="M921.928,1511.407c-2.927-5.3-7.436-8.73-13.784-10.488l.332-1.2a22.831,22.831,0,0,1,14.54,11.084Z" transform="translate(-747.05 -1474.812)" fill="#e49b31"/>
            <path id="Trazado_184679" data-name="Trazado 184679" d="M694.9,1614.8l-.908-.847c6.509-6.971,10.506-14.33,12.221-22.5l1.215.255C705.664,1600.109,701.566,1607.662,694.9,1614.8Z" transform="translate(-603.812 -1536.17)" fill="#e49b31"/>
            <g id="Grupo_141194" data-name="Grupo 141194" transform="translate(113.3 56.974)">
              <path id="Trazado_184680" data-name="Trazado 184680" d="M808.632,1598.55c-10.425-6.44-30.634,4.688-35.707,5.251a12.213,12.213,0,0,1-4.872-.7c.465,3.951.2,10.627-4.241,18.759l2.479.5s17.137,6.282,35.317,2.625C818.388,1621.615,816.827,1603.613,808.632,1598.55Z" transform="translate(-763.812 -1596.55)" fill="#102048"/>
              <path id="Trazado_184681" data-name="Trazado 184681" d="M851.651,1629.835a.42.42,0,0,1-.125-.019.414.414,0,0,1-.27-.519c1.238-3.922,1.779-11.636-1.808-16.818a.414.414,0,0,1,.681-.472c3.757,5.426,3.2,13.462,1.917,17.539A.414.414,0,0,1,851.651,1629.835Z" transform="translate(-821.041 -1606.77)" fill="#fff"/>
              <path id="Trazado_184682" data-name="Trazado 184682" d="M826.964,1634.523a.414.414,0,0,1-.395-.538c1.238-3.922,1.779-11.637-1.808-16.818a.414.414,0,0,1,.681-.471c3.757,5.426,3.2,13.461,1.917,17.538A.414.414,0,0,1,826.964,1634.523Z" transform="translate(-804.529 -1609.906)" fill="#fff"/>
            </g>
          </g>
          <g id="Grupo_141203" data-name="Grupo 141203">
            <g id="Grupo_141197" data-name="Grupo 141197" transform="translate(46.131 0.73)">
              <path id="Trazado_184683" data-name="Trazado 184683" d="M524.868,1053.742s20.492-17.425,19.733-20.737c-.542-2.366-6.347,1.1-6.347,1.1s8.141-9.658,7.727-10.831c-.74-2.1-6.37,1.811-6.37,1.811s3.806-5.477,1.986-6.37-5.786,2.483-5.786,2.483,2.317-3.041,1.229-3.839-5.786,2.483-5.786,2.483,1.686-3.835-1.9-2.381-28.688,24.495-28.688,24.495Z" transform="translate(-500.671 -1017.136)" fill="#f9b384"/>
              <g id="Grupo_141196" data-name="Grupo 141196" transform="translate(23.061 2.296)">
                <path id="Trazado_184684" data-name="Trazado 184684" d="M579.833,1052.935a.413.413,0,0,1-.279-.109c-3.517-3.214-5.068-3.994-8.949-5.188a.414.414,0,1,1,.243-.791c4.021,1.236,5.627,2.044,9.264,5.368a.414.414,0,0,1-.28.719Z" transform="translate(-570.312 -1039.293)" fill="#e28b6d"/>
                <path id="Trazado_184685" data-name="Trazado 184685" d="M579.581,1080.773a.414.414,0,0,1-.41-.471c.4-2.882,1.31-4.682,2.773-5.5,1.251-.7,2.878-.631,4.838.215a.414.414,0,1,1-.328.76c-1.709-.738-3.09-.823-4.1-.253-1.206.678-2,2.326-2.359,4.9A.414.414,0,0,1,579.581,1080.773Z" transform="translate(-576.235 -1057.679)" fill="#e28b6d"/>
                <path id="Trazado_184686" data-name="Trazado 184686" d="M576.664,1029.744a.414.414,0,0,1-.284-.715l5.142-4.846a.414.414,0,1,1,.568.6l-5.142,4.846A.41.41,0,0,1,576.664,1029.744Z" transform="translate(-574.284 -1024.07)" fill="#e28b6d"/>
                <path id="Trazado_184687" data-name="Trazado 184687" d="M591.039,1034.138a.414.414,0,0,1-.3-.7l4.939-5.146a.414.414,0,0,1,.6.573l-4.939,5.146A.413.413,0,0,1,591.039,1034.138Z" transform="translate(-583.898 -1026.808)" fill="#e28b6d"/>
                <path id="Trazado_184688" data-name="Trazado 184688" d="M605.726,1044.888a.414.414,0,0,1-.3-.7l3.875-4.157a.414.414,0,0,1,.606.565l-3.875,4.157A.414.414,0,0,1,605.726,1044.888Z" transform="translate(-593.722 -1034.66)" fill="#e28b6d"/>
              </g>
            </g>
            <g id="Grupo_141198" data-name="Grupo 141198" transform="translate(0 20.966)">
              <path id="Trazado_184689" data-name="Trazado 184689" d="M639.45,1280.1l-74.921,2.9-8.279-68.3s25.082-23.79,34.732-32.551l16.291-.835C657.815,1204.289,649.539,1232.983,639.45,1280.1Z" transform="translate(-491.715 -1147.184)" fill="#3a6bea"/>
              <path id="Trazado_184690" data-name="Trazado 184690" d="M710.329,1181.315s57.825,4.945,76.054,44.563c17.838,38.765-55.467,52.569-55.467,52.569Z" transform="translate(-594.771 -1147.184)" fill="#3a6bea"/>
              <path id="Trazado_184691" data-name="Trazado 184691" d="M410.825,1120.866l23.9-29.079-22.345-13.542c-9.321,6.481-27.346,21.161-42.621,37.784a31.549,31.549,0,0,0-7.332,12.674,27.272,27.272,0,0,0-.7,11.9h0a22.973,22.973,0,0,0,20.3,19.233c9.1,1.066,43.877-1.656,72.024-9.934l8.279-31.952C458.071,1115.536,426.455,1115.117,410.825,1120.866Z" transform="translate(-361.364 -1078.245)" fill="#3a6bea"/>
            </g>
            <g id="Grupo_141199" data-name="Grupo 141199" transform="translate(12.212 30.584)" opacity="0.8">
              <path id="Trazado_184692" data-name="Trazado 184692" d="M798.871,1205.751l.374-.086c-.261-.155-.524-.3-.786-.457a125.361,125.361,0,0,1-12.92,2.493c-2.59.312-11.244.884-13.774-4.882-1.258-2.869-.306-6.059,1.117-8.3l-.62-.177c-1.457,2.372-2.393,5.7-1.065,8.725,2.7,6.159,11.718,5.575,14.416,5.249A128,128,0,0,0,798.871,1205.751Z" transform="translate(-647.269 -1165.516)" fill="#fff"/>
              <path id="Trazado_184693" data-name="Trazado 184693" d="M899.836,1359.821c-2.763-1.067-5.617-2.171-8.617-1.888-5.263.5-9.766,5.7-10.039,11.6a18.2,18.2,0,0,0,4.28,11.946q.265-.166.527-.333a17.6,17.6,0,0,1-4.187-11.584c.26-5.6,4.511-10.542,9.477-11.012,2.852-.264,5.515.76,8.334,1.849,1.006.389,2.029.78,3.069,1.114.054-.2.106-.4.154-.6C901.822,1360.585,900.821,1360.2,899.836,1359.821Z" transform="translate(-721.248 -1274.904)" fill="#fff"/>
              <path id="Trazado_184694" data-name="Trazado 184694" d="M438.547,1298.046c-3.61-2.986-9.219-3.784-15.387-2.189a26.554,26.554,0,0,0-13.453,7.965c.213.069.421.146.637.209a26.041,26.041,0,0,1,12.971-7.573c5.972-1.546,11.381-.791,14.837,2.066a13.478,13.478,0,0,1,3.648,5.025l.642-.074A14.194,14.194,0,0,0,438.547,1298.046Z" transform="translate(-405.911 -1232.875)" fill="#fff"/>
              <path id="Trazado_184695" data-name="Trazado 184695" d="M398.243,1131.395a74.9,74.9,0,0,0,19.454-7.549,21.254,21.254,0,0,0,6.725-5.5,9.438,9.438,0,0,0,1.728-8.405,6.571,6.571,0,0,0-1.685-2.657l-.478.392a5.987,5.987,0,0,1,1.572,2.459,8.82,8.82,0,0,1-1.637,7.843,20.687,20.687,0,0,1-6.535,5.325,73.359,73.359,0,0,1-18.335,7.249Q398.647,1130.974,398.243,1131.395Z" transform="translate(-398.243 -1107.289)" fill="#fff"/>
            </g>
            <g id="Grupo_141201" data-name="Grupo 141201" transform="translate(74.321)">
              <path id="Trazado_184696" data-name="Trazado 184696" d="M684.08,1133.34l-.011,1.06-.168,16.468-.021,1.784a10.255,10.255,0,0,1-20.509-.011l-.2-20.351Z" transform="translate(-637.552 -1093.428)" fill="#f9b384"/>
              <path id="Trazado_184697" data-name="Trazado 184697" d="M699.842,1138.662l-.168,16.468c-9.152-3.726-12.92-13.634-12.92-13.634Z" transform="translate(-653.324 -1097.689)" fill="#102048"/>
              <path id="Trazado_184698" data-name="Trazado 184698" d="M683.419,1048.965c3.28,3.936,12.857,26.239,3.149,33.849-10.925,8.563-27.552-5.51-27.552-5.51l-2.23-25.977,14.432-3.8Z" transform="translate(-633.28 -1036.729)" fill="#f9b384"/>
              <path id="Trazado_184699" data-name="Trazado 184699" d="M601.955,1047.559s-32.01,16.7-5.91,64.821a13.11,13.11,0,0,0,17.13,5.863h0a12.983,12.983,0,0,0,5.694-18.132c-4.269-7.585-8.39-17.351-6.631-24.619Z" transform="translate(-585.801 -1036.754)" fill="#102048"/>
              <circle id="Elipse_4900" data-name="Elipse 4900" cx="8.659" cy="8.659" r="8.659" transform="translate(6.931 18.708) rotate(-45)" fill="#fbc343"/>
              <path id="Trazado_184700" data-name="Trazado 184700" d="M643.564,1044.043c-.936-5.4-1.506-9.107,3.954-11.891,0,0,19.242,3.5,22.916-3.761s-1.924-18.717-13.644-10.758c-30-5.86-34.024,22.216-24.928,31.575l8.978-1.378A3.269,3.269,0,0,0,643.564,1044.043Z" transform="translate(-613.735 -1014.931)" fill="#102048"/>
              <g id="Grupo_141200" data-name="Grupo 141200" transform="translate(38.714 19.258)">
                <circle id="Elipse_4901" data-name="Elipse 4901" cx="1.279" cy="1.279" r="1.279" transform="translate(4.734 8.59)" fill="#102048"/>
                <circle id="Elipse_4902" data-name="Elipse 4902" cx="1.279" cy="1.279" r="1.279" transform="translate(13.393 4.326)" fill="#102048"/>
                <path id="Trazado_184701" data-name="Trazado 184701" d="M738.711,1102.848a.362.362,0,0,1-.263-.611c.513-.54,1.075-1.3.839-1.85-.245-.572-1.282-.819-1.757-.819-1.021,0-1.511-1.816-1.6-2.18a.362.362,0,0,1,.7-.17c.186.767.608,1.625.894,1.625.488,0,1.982.231,2.423,1.257.315.733-.015,1.619-.979,2.635A.362.362,0,0,1,738.711,1102.848Z" transform="translate(-724.923 -1089.042)" fill="#102048"/>
                <path id="Trazado_184702" data-name="Trazado 184702" d="M733.211,1126.224a.359.359,0,0,1-.2-.062,4.841,4.841,0,0,0-4.865-.248.362.362,0,0,1-.361-.628,5.506,5.506,0,0,1,5.631.276.362.362,0,0,1-.2.662Z" transform="translate(-719.359 -1107.563)" fill="#102048"/>
                <path id="Trazado_184703" data-name="Trazado 184703" d="M708.163,1084.95c.728,1.37-.54,1.644-2.026,2.434s-3.007,1.079-3.354.425.576-1.823,2.061-2.612S707.6,1083.89,708.163,1084.95Z" transform="translate(-702.71 -1080.621)" fill="#102048"/>
                <path id="Trazado_184704" data-name="Trazado 184704" d="M735.467,1074.942c.32,1.223,1.232.687,2.558.34s2.4-1.013,2.245-1.6-1.351-.774-2.678-.428S735.22,1074,735.467,1074.942Z" transform="translate(-724.596 -1073.085)" fill="#102048"/>
              </g>
              <circle id="Elipse_4903" data-name="Elipse 4903" cx="3.772" cy="3.772" r="3.772" transform="matrix(0.735, -0.678, 0.678, 0.735, 33.494, 34.881)" fill="#eb5d60" opacity="0.4"/>
              <ellipse id="Elipse_4904" data-name="Elipse 4904" cx="5.108" cy="5.805" rx="5.108" ry="5.805" transform="matrix(0.611, -0.792, 0.792, 0.611, 16.783, 35.608)" fill="#f9b384"/>
              <path id="Trazado_184705" data-name="Trazado 184705" d="M657.2,1118.164a.362.362,0,0,1-.362-.362,3.174,3.174,0,0,0-1.394-2.644,2.557,2.557,0,0,0-2.381-.317.362.362,0,0,1-.273-.671,3.277,3.277,0,0,1,3.058.386,3.9,3.9,0,0,1,1.714,3.245A.362.362,0,0,1,657.2,1118.164Z" transform="translate(-630.456 -1081.161)" fill="#102048"/>
            </g>
            <g id="Grupo_141202" data-name="Grupo 141202" transform="translate(36.085 63.305)">
              <rect id="Rectngulo_36087" data-name="Rectngulo 36087" width="19.254" height="0.828" transform="translate(0 14.138) rotate(-47.248)" fill="#102048"/>
              <path id="Trazado_184706" data-name="Trazado 184706" d="M787.377,1353.988l-.241-.792c9.515-2.9,18.748-6.369,27.117-16.834l.646.517C806.383,1347.529,797.021,1351.049,787.377,1353.988Z" transform="translate(-682.229 -1293.227)" fill="#102048"/>
            </g>
          </g>
          <g id="Grupo_141206" data-name="Grupo 141206" transform="translate(60.81 92.007)">
            <g id="Grupo_141204" data-name="Grupo 141204">
              <path id="Trazado_184707" data-name="Trazado 184707" d="M631.208,1292.776H550.271a5.5,5.5,0,0,0-5.271,5.7v57.787a5.5,5.5,0,0,0,5.271,5.7h80.938a5.5,5.5,0,0,0,5.271-5.7v-57.787A5.5,5.5,0,0,0,631.208,1292.776Z" transform="translate(-545 -1292.776)" fill="#d3dfff"/>
            </g>
            <g id="Grupo_141205" data-name="Grupo 141205" transform="translate(39.255 29.287)">
              <path id="Trazado_184708" data-name="Trazado 184708" d="M674.3,1382.874a.58.58,0,0,1,.556.6v6.1a.581.581,0,0,1-.556.6h-8.546a.581.581,0,0,1-.556-.6v-6.1a.58.58,0,0,1,.556-.6H674.3m0-1.656h-8.546a2.237,2.237,0,0,0-2.212,2.258v6.1a2.238,2.238,0,0,0,2.212,2.258H674.3a2.238,2.238,0,0,0,2.212-2.258v-6.1a2.237,2.237,0,0,0-2.212-2.258Z" transform="translate(-663.542 -1381.218)" fill="#1f3c88"/>
            </g>
          </g>
        </g>
      </g>
    </g>
  </g>
</svg>
