<svg xmlns="http://www.w3.org/2000/svg" xmlns:xlink="http://www.w3.org/1999/xlink" width="179" height="179" viewBox="0 0 179 179">
  <defs>
    <linearGradient id="linear-gradient" x1="-19.202" y1="0.5" x2="-18.202" y2="0.5" gradientUnits="objectBoundingBox">
      <stop offset="0" stop-color="#ff857a"/>
      <stop offset="1" stop-color="#ffa57a"/>
    </linearGradient>
    <linearGradient id="linear-gradient-2" x1="-43.889" y1="0.5" x2="-42.889" y2="0.5" xlink:href="#linear-gradient"/>
    <linearGradient id="linear-gradient-3" x1="-51.2" y1="1" x2="-51.2" y2="0" xlink:href="#linear-gradient"/>
  </defs>
  <g id="img3" transform="translate(-980 -1005)">
    <circle id="Elipse_499" data-name="Elipse 499" cx="89.5" cy="89.5" r="89.5" transform="translate(980 1005)" fill="#edf1fd"/>
    <g id="Grupo_140369" data-name="Grupo 140369" transform="translate(896.294 860.097)">
      <g id="Grupo_140362" data-name="Grupo 140362" transform="translate(131.614 242.152)">
        <path id="Trazado_182433" data-name="Trazado 182433" d="M270.709,299.377a7.485,7.485,0,0,0,.938,3.637l.112.206a3.227,3.227,0,0,1-2.867,4.722h-8.948a7.834,7.834,0,0,0-7.833,7.833v9.413a3.93,3.93,0,0,0,3.93,3.93h.151a12.259,12.259,0,0,0,5.921-1.64,7.547,7.547,0,0,1,11.137,7.5,7.544,7.544,0,0,1-11.214,5.683,12.129,12.129,0,0,0-5.969-1.6A3.942,3.942,0,0,0,252.11,343v9.413a7.833,7.833,0,0,0,7.833,7.833h36.633a7.833,7.833,0,0,0,7.833-7.833V315.776a7.833,7.833,0,0,0-7.833-7.833h-8.953a3.221,3.221,0,0,1-2.856-4.741l.063-.111a7.55,7.55,0,1,0-14.121-3.714Z" transform="translate(-198.817 -291.827)" fill="#3d70cc"/>
        <g id="Grupo_140361" data-name="Grupo 140361" transform="translate(53.293 21.889)" opacity="0.2">
          <path id="Trazado_182434" data-name="Trazado 182434" d="M260.066,380.011a7.539,7.539,0,0,0,11.159-5.334,7.524,7.524,0,0,1-9.189,1.377,12.129,12.129,0,0,0-5.969-1.6,3.942,3.942,0,0,0-3.956,3.93V387.8a7.815,7.815,0,0,0,2.82,6.017,7.8,7.8,0,0,0,.283-2.06V382.8a3.222,3.222,0,0,1,4.741-2.856Z" transform="translate(-252.11 -349.107)"/>
          <path id="Trazado_182435" data-name="Trazado 182435" d="M252.11,341.589a3.93,3.93,0,0,0,3.127,3.847,3.29,3.29,0,0,1-.024-.356v-8.948a7.815,7.815,0,0,0-2.82-6.017,7.829,7.829,0,0,0-.283,2.06Z" transform="translate(-252.11 -330.115)"/>
        </g>
        <path id="Trazado_182436" data-name="Trazado 182436" d="M219.756,338.871a7.484,7.484,0,0,0-3.637.937l-.206.112a3.227,3.227,0,0,1-4.722-2.866V328.1a7.833,7.833,0,0,0-7.833-7.833h-9.414a3.93,3.93,0,0,0-3.93,3.93v.15a12.256,12.256,0,0,0,1.64,5.921,7.547,7.547,0,0,1-7.5,11.137A7.544,7.544,0,0,1,178.47,330.2a12.127,12.127,0,0,0,1.6-5.969,3.942,3.942,0,0,0-3.929-3.956h-9.414a7.833,7.833,0,0,0-7.833,7.833v36.633a7.833,7.833,0,0,0,7.833,7.833h36.633a7.834,7.834,0,0,0,7.833-7.833v-8.952a3.221,3.221,0,0,1,4.74-2.856l.111.062a7.55,7.55,0,1,0,3.714-14.121Z" transform="translate(-158.891 -304.01)" fill="#ff8558"/>
      </g>
      <g id="Grupo_140363" data-name="Grupo 140363" transform="translate(131.614 204.698)">
        <path id="Trazado_182437" data-name="Trazado 182437" d="M192.591,287.178a7.485,7.485,0,0,0-.938-3.637l-.112-.206a3.227,3.227,0,0,1,2.867-4.722h8.948a7.834,7.834,0,0,0,7.833-7.833v-9.414a3.93,3.93,0,0,0-3.93-3.93h-.151a12.259,12.259,0,0,0-5.921,1.64,7.547,7.547,0,0,1-11.137-7.5,7.544,7.544,0,0,1,11.214-5.683,12.129,12.129,0,0,0,5.969,1.6,3.942,3.942,0,0,0,3.956-3.929v-9.414a7.833,7.833,0,0,0-7.833-7.833H166.724a7.833,7.833,0,0,0-7.833,7.833v36.633a7.833,7.833,0,0,0,7.833,7.833h8.953a3.221,3.221,0,0,1,2.856,4.74l-.063.111a7.55,7.55,0,1,0,14.121,3.714Z" transform="translate(-158.891 -226.313)" fill="#3d70cc"/>
        <path id="Trazado_182438" data-name="Trazado 182438" d="M228.985,226.313h-9.536a7.376,7.376,0,0,0-.671,2.332,7.547,7.547,0,0,0,11.137,7.5l.206-.112a3.227,3.227,0,0,1,4.723,2.866v8.055a3.923,3.923,0,0,0,1.975-3.4v-9.414A7.833,7.833,0,0,0,228.985,226.313Z" transform="translate(-184.519 -226.313)" opacity="0.2"/>
      </g>
      <g id="Grupo_140368" data-name="Grupo 140368" transform="translate(95.206 175.848)">
        <path id="Trazado_182439" data-name="Trazado 182439" d="M178.788,222.977a12.619,12.619,0,0,1-12.518-18.684c1.593-2.852,4.365-5.313,4.445-8.578.043-1.751-.723-3.4-1.25-5.074s-.786-3.61.169-5.079c1.59-2.444,5.369-2.1,7.665-3.894,2.059-1.612,2.778-4.836,5.265-5.644,1.856-.6,3.8.464,5.489,1.434s3.765,1.893,5.517,1.033c1.846-.906,3.835,1.563,3.758,3.618-.037.97-.47,1.9-.437,2.873.063,1.808,1.664,3.142,2.419,4.786,1.047,2.28.381,4.976-.628,7.273s-2.365,4.5-2.716,6.989c-.551,3.9,1.455,7.938.393,11.729-.909,3.245-3.947,5.542-7.178,6.5S182.134,222.576,178.788,222.977Z" transform="translate(-124.977 -175.848)" fill="#1c4e7a"/>
        <path id="Trazado_182440" data-name="Trazado 182440" d="M264.311,244.232l.165-2.621a.837.837,0,0,1,.186-.575,1.046,1.046,0,0,1,.651-.169c.228-.021.5-.124.531-.35a4.515,4.515,0,0,1,1.186-2.009A2.6,2.6,0,0,1,269,237.492a2.5,2.5,0,0,1,2.2,1.963,4.811,4.811,0,0,1-.436,3.081A9.258,9.258,0,0,1,266.7,246.9c-.009-.019-.042-.076-.051-.1A5.825,5.825,0,0,0,264.311,244.232Z" transform="translate(-167.635 -202.25)" fill="#ffa57a"/>
        <path id="Trazado_182441" data-name="Trazado 182441" d="M185.836,232.976A23.1,23.1,0,0,0,227.41,241.3a4.109,4.109,0,0,1,3.913,3.839c-.2,5.846-7.226,9.66-12.147,12.822-5.266,3.384-11.179,6.494-17.423,6.056a20.223,20.223,0,0,1-12.548-6.09,35.491,35.491,0,0,1-7.538-11.975c-1.1-2.716-2.012-5.66-1.492-8.546S182.9,232.993,185.836,232.976Z" transform="translate(-131.534 -200.316)" fill="#ff8f3a"/>
        <path id="Trazado_182442" data-name="Trazado 182442" d="M185.836,232.976A23.1,23.1,0,0,0,227.41,241.3a4.109,4.109,0,0,1,3.913,3.839c-.2,5.846-7.226,9.66-12.147,12.822-5.266,3.384-11.179,6.494-17.423,6.056a20.223,20.223,0,0,1-12.548-6.09,35.491,35.491,0,0,1-7.538-11.975c-1.1-2.716-2.012-5.66-1.492-8.546S182.9,232.993,185.836,232.976Z" transform="translate(-131.534 -200.316)" opacity="0.2"/>
        <path id="Trazado_182443" data-name="Trazado 182443" d="M110.659,379.2c-.54-.829-1.876-1.3-2.809-1.681-.711-.29-3.094-.518-3.528-1-.911-1.007-2.781-.773-3.928-.044a7.3,7.3,0,0,0-2.442,3.193A28.75,28.75,0,0,0,95.3,394.254a3.311,3.311,0,0,0,.872,2.333c1.146.972,2.917.11,3.976-.956,1.688-1.7,2.827-3.869,4.391-5.685s3.819-3.339,6.195-3.025c.05-1.36-.111-2.716-.086-4.076.019-.994.512-2.373.167-3.329A1.5,1.5,0,0,0,110.659,379.2Z" transform="translate(-95.206 -261.508)" fill="#003866"/>
        <path id="Trazado_182444" data-name="Trazado 182444" d="M159.465,316.722q.565,18.676,2.316,37.292c-11.87-.992-24.008-2.151-35.877-3.143a25.375,25.375,0,0,0-.144,14.411,91.165,91.165,0,0,0,47.571,5.644c3.23-.482,6.644-1.251,8.921-3.593,2.341-2.409,2.979-5.96,3.4-9.293,1.723-13.755,1.569-27.668,1.412-41.53C178.177,315.184,168.445,316.631,159.465,316.722Z" transform="translate(-107.875 -235.856)" fill="#9b66de"/>
        <path id="Trazado_182445" data-name="Trazado 182445" d="M159.465,316.722q.565,18.676,2.316,37.292c-11.87-.992-24.008-2.151-35.877-3.143a25.375,25.375,0,0,0-.144,14.411,91.165,91.165,0,0,0,47.571,5.644c3.23-.482,6.644-1.251,8.921-3.593,2.341-2.409,2.979-5.96,3.4-9.293,1.723-13.755,1.569-27.668,1.412-41.53C178.177,315.184,168.445,316.631,159.465,316.722Z" transform="translate(-107.875 -235.856)" opacity="0.2"/>
        <path id="Trazado_182446" data-name="Trazado 182446" d="M153.131,316.722q.565,18.676,2.317,37.292c-11.87-.992-24.008-2.151-35.878-3.143a25.375,25.375,0,0,0-.143,14.411A91.165,91.165,0,0,0,167,370.926c3.23-.482,6.644-1.251,8.92-3.593,2.342-2.409,2.979-5.96,3.4-9.293,1.723-13.755,1.568-27.668,1.412-41.53C171.844,315.184,162.112,316.631,153.131,316.722Z" transform="translate(-105.162 -235.856)" fill="#9b66de"/>
        <path id="Trazado_182447" data-name="Trazado 182447" d="M196.732,227.234a18.8,18.8,0,0,1,11.661,10.138c2.112,4.49,2.534,9.391,2.683,14.208a140.851,140.851,0,0,1-2.09,28.9,102.664,102.664,0,0,1-33.827-1.036c3.04-14.418-3.374-26.986.049-41.964C176.873,230.194,188.6,224.911,196.732,227.234Z" transform="translate(-129.028 -197.62)" fill="#ff8f3a"/>
        <path id="Trazado_182448" data-name="Trazado 182448" d="M174.707,248c.424-3.242,1.165-6.6,3.258-9.108a5.594,5.594,0,0,1,5.333-2.1,24.477,24.477,0,0,0-.1,8.985c.007.109.01.218.019.328.077.971-.042,2.542.648,3.337a.791.791,0,0,0,.84.246,12.737,12.737,0,0,1,.127,1.461.9.9,0,0,0,.873.9,25.846,25.846,0,0,0,7.9,12.879,26.22,26.22,0,0,0,17.153,6.184q-.347,4.469-.982,8.918c-1.835.125-3.644.182-5.3.273-6.97.382-14.416.143-20.231-3.72a22.551,22.551,0,0,1-8.817-12.814q-.283-1.013-.491-2.042c-.3-2.612-.568-5.24-.675-7.912A51.942,51.942,0,0,1,174.707,248Z" transform="translate(-129.065 -201.92)" opacity="0.1"/>
        <path id="Trazado_182449" data-name="Trazado 182449" d="M231.47,226.781a7.485,7.485,0,0,0,3.637-.938l.206-.112a3.227,3.227,0,0,1,4.722,2.867v8.948a7.834,7.834,0,0,0,7.833,7.833h9.413a3.93,3.93,0,0,0,3.93-3.93V241.3a12.258,12.258,0,0,0-1.64-5.921,7.547,7.547,0,0,1,7.5-11.137,7.544,7.544,0,0,1,5.683,11.214,12.129,12.129,0,0,0-1.6,5.969,3.942,3.942,0,0,0,3.929,3.956H284.5a7.833,7.833,0,0,0,7.833-7.833V200.914a7.833,7.833,0,0,0-7.833-7.833H247.869a7.833,7.833,0,0,0-7.833,7.833v8.953a3.221,3.221,0,0,1-4.74,2.856l-.111-.063a7.55,7.55,0,1,0-3.714,14.121Z" transform="translate(-150.335 -183.229)" fill="#47c5de"/>
        <path id="Trazado_182450" data-name="Trazado 182450" d="M261.486,281.293l1.3-2.624a.932.932,0,0,1,.44-.511,1.169,1.169,0,0,1,.742.108c.243.078.564.087.7-.13a5.03,5.03,0,0,1,2.088-1.552,2.9,2.9,0,0,1,2.469-.19,2.792,2.792,0,0,1,1.415,2.97,5.364,5.364,0,0,1-1.781,2.977,10.32,10.32,0,0,1-6.069,2.724c0-.023-.01-.1-.01-.121A6.493,6.493,0,0,0,261.486,281.293Z" transform="translate(-166.425 -218.828)" fill="#ffa57a"/>
        <path id="Trazado_182451" data-name="Trazado 182451" d="M184.936,235.822a25.766,25.766,0,0,0,39.132,26.538,4.583,4.583,0,0,1,2.361,5.64c-2.73,5.924-11.606,6.8-18.032,7.924-6.876,1.2-14.3,1.839-20.528-1.313a22.556,22.556,0,0,1-10.263-11.688,39.576,39.576,0,0,1-2.567-15.57c.039-3.269.381-6.688,2.163-9.428S181.916,234.571,184.936,235.822Z" transform="translate(-129.397 -201.27)" fill="#ff8f3a"/>
        <path id="Trazado_182452" data-name="Trazado 182452" d="M181.023,235.586a8.525,8.525,0,0,1-3.052-1.387q.744-.725,1.512-1.427c4.308-4.63,12.644-7.318,18.876-5.538a17.644,17.644,0,0,1,5.416,2.623,6.724,6.724,0,0,1,.1.878,5.2,5.2,0,0,1-2.225,4.618,6.546,6.546,0,0,1-4.463.617c-1.517-.235-2.991-.72-4.518-.876C188.786,234.7,184.831,236.448,181.023,235.586Z" transform="translate(-130.655 -197.62)" opacity="0.1"/>
        <path id="Trazado_182453" data-name="Trazado 182453" d="M204.462,214.883q.08,4.663.159,9.327a8.525,8.525,0,0,1-9.326-.354,63.028,63.028,0,0,1,1.289-9.316A14.152,14.152,0,0,1,204.462,214.883Z" transform="translate(-138.075 -192.243)" fill="#ffa57a"/>
        <path id="Trazado_182454" data-name="Trazado 182454" d="M195.748,220.721c.254-2.066.647-4.1,1.03-6.181a13.609,13.609,0,0,1,6.807.046,10.914,10.914,0,0,1,1.081.8l.115,6.729a6.316,6.316,0,0,1-1.821.828,7.731,7.731,0,0,1-6.363-1.53C196.3,221.193,196.021,220.961,195.748,220.721Z" transform="translate(-138.269 -192.244)" opacity="0.1"/>
        <path id="Trazado_182455" data-name="Trazado 182455" d="M206.152,203.885c-.683,2.777-2.694,5.422-5.5,5.979a6.8,6.8,0,0,1-5.1-1.191,10.625,10.625,0,0,1-3.372-4.12,11.991,11.991,0,0,1-.543-9.84,8.631,8.631,0,0,1,7.932-5.333C206.473,189.673,207.424,198.717,206.152,203.885Z" transform="translate(-136.158 -181.641)" fill="#ffa57a"/>
        <path id="Trazado_182456" data-name="Trazado 182456" d="M204.219,209.51a.61.61,0,1,0,.61-.61A.61.61,0,0,0,204.219,209.51Z" transform="translate(-141.897 -190.004)" fill="#3b3b3b"/>
        <path id="Trazado_182457" data-name="Trazado 182457" d="M213.618,209.51a.61.61,0,1,0,.61-.61A.61.61,0,0,0,213.618,209.51Z" transform="translate(-145.923 -190.004)" fill="#3b3b3b"/>
        <g id="Grupo_140364" data-name="Grupo 140364" transform="translate(59.214 16.46)">
          <path id="Trazado_182458" data-name="Trazado 182458" d="M199.1,206.117a.319.319,0,0,0,.194-.066,3.761,3.761,0,0,1,4.526-.034.319.319,0,1,0,.38-.512,4.56,4.56,0,0,0-2.653-.865,4.423,4.423,0,0,0-2.639.9.319.319,0,0,0,.193.572Z" transform="translate(-198.783 -204.64)" fill="#3b3b3b"/>
        </g>
        <g id="Grupo_140365" data-name="Grupo 140365" transform="translate(66.423 16.986)">
          <path id="Trazado_182459" data-name="Trazado 182459" d="M214.838,206.818a.319.319,0,0,0,.213-.555,2.734,2.734,0,0,0-3.539-.105.318.318,0,1,0,.4.5,2.1,2.1,0,0,1,2.715.081A.319.319,0,0,0,214.838,206.818Z" transform="translate(-211.393 -205.56)" fill="#3b3b3b"/>
        </g>
        <path id="Trazado_182460" data-name="Trazado 182460" d="M198.178,214.211c0,.872,1.046,1.579,2.337,1.579s2.337-.707,2.337-1.579-1.046-1.58-2.337-1.58S198.178,213.338,198.178,214.211Z" transform="translate(-139.309 -191.602)" fill="url(#linear-gradient)"/>
        <path id="Trazado_182461" data-name="Trazado 182461" d="M216.2,212.631c.022,0,.042,0,.065,0-.068.421-.149.827-.243,1.211a9.528,9.528,0,0,1-.661,1.833c-.875-.228-1.5-.8-1.5-1.469C213.863,213.338,214.909,212.631,216.2,212.631Z" transform="translate(-146.027 -191.602)" fill="url(#linear-gradient-2)"/>
        <g id="Grupo_140366" data-name="Grupo 140366" transform="translate(59.17 16.68)">
          <path id="Trazado_182462" data-name="Trazado 182462" d="M201.53,210.676a2.825,2.825,0,1,1,2.825-2.825A2.829,2.829,0,0,1,201.53,210.676Zm0-5.365a2.539,2.539,0,1,0,2.539,2.539A2.542,2.542,0,0,0,201.53,205.311Z" transform="translate(-198.705 -205.025)" fill="#47c5de"/>
        </g>
        <g id="Grupo_140367" data-name="Grupo 140367" transform="translate(66.212 16.681)">
          <path id="Trazado_182463" data-name="Trazado 182463" d="M213.774,210.675a2.825,2.825,0,1,1,2.9-2.751A2.827,2.827,0,0,1,213.774,210.675Zm.138-5.362a2.539,2.539,0,1,0,2.473,2.6A2.543,2.543,0,0,0,213.913,205.312Z" transform="translate(-211.022 -205.025)" fill="#47c5de"/>
        </g>
        <path id="Trazado_182464" data-name="Trazado 182464" d="M210.06,212.079a5.011,5.011,0,0,1,.37.644.764.764,0,0,1-.034.713.709.709,0,0,1-.927.114,1.718,1.718,0,0,1-.605-.811,2.327,2.327,0,0,1-.238-1.428c.065-.284.559-1.053.972-.846C209.793,210.565,209.889,211.783,210.06,212.079Z" transform="translate(-143.768 -190.66)" fill="url(#linear-gradient-3)"/>
        <rect id="Rect치ngulo_35821" data-name="Rect치ngulo 35821" width="1.58" height="0.593" transform="translate(64.761 19.133)" fill="#47c5de"/>
        <rect id="Rect치ngulo_35822" data-name="Rect치ngulo 35822" width="4.342" height="0.414" transform="translate(54.888 19.092)" fill="#47c5de"/>
        <path id="Trazado_182465" data-name="Trazado 182465" d="M202.866,197.613a6.273,6.273,0,0,1-4.939-3.322c-.515-1-2.495-.313-3.417.337a8.7,8.7,0,0,0-2.1,2.625,5.374,5.374,0,0,1-2.378,2.326c-.953.369-2.064.233-2.971.7-1.349.7-1.727,2.418-2.015,3.911s-.832,3.213-2.272,3.7a3.048,3.048,0,0,1-3.518-1.952,7.617,7.617,0,0,1-.079-4.368,22.151,22.151,0,0,1,4.218-9.7,12.791,12.791,0,0,1,9.118-4.923,9.066,9.066,0,0,1,8.65,5.1C202,194,202,195.682,202.866,197.613Z" transform="translate(-131.051 -180.603)" fill="#1c4e7a"/>
      </g>
    </g>
  </g>
</svg>
