<svg xmlns="http://www.w3.org/2000/svg" xmlns:xlink="http://www.w3.org/1999/xlink" width="440" height="469.933" viewBox="0 0 440 469.933">
  <defs>
    <clipPath id="clip-path">
      <ellipse id="Elipse_4905" data-name="Elipse 4905" cx="220" cy="220" rx="220" ry="220" transform="translate(0 0)" fill="#f6f5ff"/>
    </clipPath>
    <clipPath id="clip-path-2">
      <rect id="Rectángulo_35930" data-name="Rectángulo 35930" width="618" height="513" fill="#fff" stroke="#707070" stroke-width="1"/>
    </clipPath>
    <linearGradient id="linear-gradient" x1="-0.362" y1="0.267" x2="1.283" y2="0.802" gradientUnits="objectBoundingBox">
      <stop offset="0" stop-color="#a8a3ea"/>
      <stop offset="0.274" stop-color="#3931a5"/>
      <stop offset="0.469" stop-color="#3c34af"/>
      <stop offset="0.639" stop-color="#4139be"/>
      <stop offset="0.795" stop-color="#4740d4"/>
      <stop offset="0.94" stop-color="#4f48f0"/>
      <stop offset="1" stop-color="#544dff"/>
    </linearGradient>
    <clipPath id="clip-path-3">
      <rect id="Rectángulo_36112" data-name="Rectángulo 36112" width="269.461" height="271.096" fill="none"/>
    </clipPath>
    <linearGradient id="linear-gradient-2" x1="0.5" y1="0.272" x2="0.5" y2="1.24" gradientUnits="objectBoundingBox">
      <stop offset="0" stop-color="#fff"/>
      <stop offset="0.287" stop-color="#fffcfc"/>
      <stop offset="0.49" stop-color="#fff2f2"/>
      <stop offset="0.667" stop-color="#ffe3e3"/>
      <stop offset="0.83" stop-color="#ffcdcd"/>
      <stop offset="0.982" stop-color="#ffb0b0"/>
      <stop offset="1" stop-color="#ffadad"/>
    </linearGradient>
  </defs>
  <g id="img1" transform="translate(-909 -390)">
    <g id="Grupo_141240" data-name="Grupo 141240" transform="translate(909 390)">
      <ellipse id="Elipse_4907" data-name="Elipse 4907" cx="220" cy="220" rx="220" ry="220" transform="translate(0 0)" fill="#f6f5ff"/>
      <g id="Enmascarar_grupo_117" data-name="Enmascarar grupo 117" transform="translate(0 2)" clip-path="url(#clip-path)">
        <g id="Grupo_141184" data-name="Grupo 141184" transform="translate(-229 -49)">
          <g id="Enmascarar_grupo_115" data-name="Enmascarar grupo 115" transform="translate(0 0)" clip-path="url(#clip-path-2)">
            <g id="Grupo_140697" data-name="Grupo 140697" transform="translate(-148.158 -285.283)">
              <path id="Trazado_183080" data-name="Trazado 183080" d="M620.057,226.052c-16.313-7.109-27.572-22.058-32.3-37.026s-1.182-21.271,4.727-20.484,5.415,17.825,16.15,28.723c16.478,16.729,30.725,10.274,33.483,20.123S635.42,232.75,620.057,226.052Z" transform="translate(-0.395 318.095)" fill="#5476ff" opacity="0.29" style="mix-blend-mode: multiply;isolation: isolate"/>
              <path id="Trazado_183081" data-name="Trazado 183081" d="M1088.916,221.679s-19.8-18.1-47.6-11.716-48.018,31.259-89.211,25.41-61.15-7.187-84.557,9.74-20.011,55.693-57.16,50.491-71.376-28.2-116.894-21.032S576.288,317.73,566.834,350.547s30.725,69.056,63.813,52.511,53.9-61.665,99.1-70.968c57.278-11.789,102.106,18.96,126.384,4.079,55.825-34.221,38.51-79.857,68.235-68.564,45.237,17.185,81.707,8.993,105.233-19.74s38.992-25.079,59.122-14.514Z" transform="translate(-384.638 362.05)" fill="#5476ff" opacity="0.29" style="mix-blend-mode: multiply;isolation: isolate"/>
              <path id="Trazado_183082" data-name="Trazado 183082" d="M1256.86,549.1s-6.892-26.029-34.679-28.773c-45.972-4.543-59.8-14.431-83.2-56.539s-63.849-48.744-85.085-77.994-13.59-65-87.226-84.777c-57.742-15.514-83.1-62.816-62.842-105.266,16.684-34.96,107.8-44.393,129.69-96.339C1072.25,7.5,990.855-40.452,924.064-37.245S737.939,10.169,689.975,79.47s-52.311,347.772-95.009,434.851-37.463,174.088-5.42,198.143,90.1,64.213,155.991,17.192,102.588-74.236,139.375-80.4c46.678-7.825,102.246,4.136,125.854-3.786s14.649-35.825,43.133-55.558c19.262-13.342,47.9-2.839,74.889-1.829,49,1.829,59.968-48.07,120.078-27.6Z" transform="translate(-564.229 37.396)" fill="url(#linear-gradient)"/>
              <path id="Trazado_183083" data-name="Trazado 183083" d="M689.658,234.393c-12.664-4.935-23.242,13.377-26,24.013s-7.09,21.295-20.089,31.328-9.454,23.247-1.576,25.5,21.666-3.039,42.937-20.678S710.929,242.682,689.658,234.393Z" transform="translate(-177.926 406.842)" fill="#3931a3"/>
              <path id="Trazado_183084" data-name="Trazado 183084" d="M813.747,272.128c-9.61-9.612-26.66,2.9-33.462,11.524s-15.058,16.644-30.995,20.6-18.007,17.48-11.7,22.713,21.056,5.935,47.626-1.657S829.887,288.273,813.747,272.128Z" transform="translate(-529.117 454.69)" fill="#3931a3"/>
              <path id="Trazado_183085" data-name="Trazado 183085" d="M674.1,275.18a12.6,12.6,0,1,0,12.6-12.6A12.606,12.606,0,0,0,674.1,275.18Z" transform="translate(-266.363 446.396)" fill="#544dff"/>
              <path id="Trazado_183086" data-name="Trazado 183086" d="M689.1,262.507a5.176,5.176,0,1,0,5.176-5.176A5.176,5.176,0,0,0,689.1,262.507Z" transform="translate(-301.958 439.245)" fill="#5476ff"/>
              <path id="Trazado_183087" data-name="Trazado 183087" d="M620.057,222.791c-16.313-7.112-27.572-22.058-32.3-37.028s-1.182-21.271,4.727-20.482S597.9,183.1,608.635,194c16.478,16.731,30.725,10.276,33.483,20.122S635.42,229.487,620.057,222.791Z" transform="translate(-0.395 313.648)" fill="#544dff"/>
              <ellipse id="Elipse_4806" data-name="Elipse 4806" cx="6.943" cy="6.943" rx="6.943" ry="6.943" transform="translate(568.258 461.596)" fill="#3931a3"/>
              <ellipse id="Elipse_4807" data-name="Elipse 4807" cx="2.363" cy="2.363" rx="2.363" ry="2.363" transform="translate(515.277 432.962)" fill="#3931a3"/>
              <path id="Trazado_183096" data-name="Trazado 183096" d="M676.746,236.55a4.861,4.861,0,0,0,4.72-2.891l3.3-7.478-.463,8.161a4.863,4.863,0,0,0,2.89,4.722l7.478,3.3-8.163-.463a4.863,4.863,0,0,0-4.72,2.888l-3.3,7.48.463-8.163a4.862,4.862,0,0,0-2.891-4.72l-7.478-3.3Z" transform="translate(-248.678 396.774)" fill="#fff"/>
              <path id="Trazado_183097" data-name="Trazado 183097" d="M735.922,245.2a6.015,6.015,0,0,0,4.06-5.519l.289-10.12,3.288,9.574a6.013,6.013,0,0,0,5.519,4.06l10.12.288-9.574,3.288a6.021,6.021,0,0,0-4.063,5.521l-.286,10.118-3.288-9.574a6.019,6.019,0,0,0-5.521-4.06l-10.118-.288Z" transform="translate(-449.728 401.384)" fill="#fff"/>
              <path id="Trazado_183098" data-name="Trazado 183098" d="M628.426,183.694a3,3,0,0,0,2.839-1.9l1.853-4.689-.088,5.041a3,3,0,0,0,1.9,2.839l4.689,1.853-5.041-.085a2.994,2.994,0,0,0-2.839,1.893l-1.853,4.691.085-5.044a2.994,2.994,0,0,0-1.893-2.839l-4.692-1.853Z" transform="translate(-86.789 329.865)" fill="#fff"/>
              <path id="Trazado_183099" data-name="Trazado 183099" d="M704.325,233.909A2.6,2.6,0,0,0,707,232.635l2.17-3.8-.7,4.316a2.592,2.592,0,0,0,1.274,2.671L713.535,238l-4.316-.7a2.6,2.6,0,0,0-2.671,1.276l-2.17,3.793.7-4.316a2.6,2.6,0,0,0-1.274-2.671l-3.793-2.172Z" transform="translate(-341.814 400.397)" fill="#fff"/>
              <path id="Trazado_183100" data-name="Trazado 183100" d="M680.522,143.868a2.6,2.6,0,0,0,1.633-2.467l-.095-4.37,1.624,4.058a2.6,2.6,0,0,0,2.47,1.633l4.37-.095-4.06,1.624a2.6,2.6,0,0,0-1.631,2.47l.092,4.37-1.624-4.058a2.594,2.594,0,0,0-2.467-1.633l-4.373.092Z" transform="translate(-263.148 275.22)" fill="#fff"/>
              <path id="Trazado_183101" data-name="Trazado 183101" d="M712.162,202.326a2.6,2.6,0,0,0,2.489-1.6l1.676-4.037-.149,4.37a2.6,2.6,0,0,0,1.6,2.489l4.037,1.676-4.368-.149a2.6,2.6,0,0,0-2.489,1.6l-1.676,4.037.149-4.368a2.594,2.594,0,0,0-1.6-2.489l-4.037-1.676Z" transform="translate(-368.489 356.559)" fill="#fff"/>
              <g id="Grupo_141242" data-name="Grupo 141242" transform="translate(376.59 412.252)">
                <g id="Grupo_141241" data-name="Grupo 141241" clip-path="url(#clip-path-3)">
                  <path id="Trazado_184851" data-name="Trazado 184851" d="M68.447,176.444l-9.664,1.285c-1.259,3.172-1.315,6.479-1.662,9.839l9.281,3.913c.394,3.394.809,6.959,1.248,10.744-.422.386-.9.88-1.435,1.3-1.647,1.295-3.323,2.554-4.973,3.844-.541.422-1.041.9-1.5,1.295,1.144,4.282,2.673,7.778,3.925,8.98l9.308-1.09c2.585,2.746,4.517,5.91,6.826,8.895L76,234.615a46.613,46.613,0,0,0,7.739,6.181l7.644-5.579.517-.378,10.162,4.449c.363,3.215.711,6.3,1.077,9.551,3.209,1.237,6.571,1.289,9.889,1.641l3.869-9.261,5.095-.6,5.457-.64a4.492,4.492,0,0,1,1.924,1.788c1.134,1.677,2.355,3.3,3.577,4.914a11.455,11.455,0,0,0,1.248,1.214,36.777,36.777,0,0,0,8.894-3.66c-.35-3.217-.693-6.367-1.064-9.777l8.855-6.679,9.128,3.821a43.971,43.971,0,0,0,6.182-7.79l-5.817-7.838,4.295-10.2,9.909-1.209a59.519,59.519,0,0,0,1.506-9.781l-9.306-4.118c-.425-3.788-.826-7.364-1.233-10.993l8-5.907c-1.522-5.307-2.76-8.018-4.2-9.171l-9.211,1.137c-2.349-2.966-4.657-6.064-6.716-9.087L157.2,147.6a44.781,44.781,0,0,0-7.88-6.06l-7.817,5.692c-3.506-.922-6.794-2.8-10.371-4.18-.417-3.351-.826-6.633-1.256-10.089l-9.77-1.392c-1.335,3.263-2.6,6.346-3.887,9.5l-6.35.724-4.47.509c-.573-.634-1.12-1.3-1.654-1.978-1.54-1.964-2.976-4.087-4.621-6.175l-9.083,3.592c.394,3.479.767,6.768,1.151,10.158l-8.933,6.556-9.315-3.9c-.381.416-4.908,5.892-6.285,7.881,1.4,1.739,2.805,3.466,4.179,5.221.724.926,1.385,1.9,2.014,2.769-1.513,3.441-2.947,6.7-4.406,10.021m22.812-2.819a30.68,30.68,0,1,1,7.763,42.689,30.68,30.68,0,0,1-7.763-42.689" transform="translate(-41.013 -94.469)" fill="#99acf0"/>
                  <path id="Trazado_184852" data-name="Trazado 184852" d="M205.128,304.7a24.473,24.473,0,1,1,22.253-14.2,24.338,24.338,0,0,1-22.253,14.2m.049-46.166a21.707,21.707,0,1,0,9.082,2.012,21.664,21.664,0,0,0-9.082-2.012" transform="translate(-129.729 -183.629)" fill="#99acf0"/>
                  <path id="Trazado_184853" data-name="Trazado 184853" d="M512.706,673.115a9.588,9.588,0,1,0-3.51-13.1,9.588,9.588,0,0,0,3.51,13.1" transform="translate(-403.596 -446.629)" fill="#d3abdd"/>
                  <path id="Trazado_184854" data-name="Trazado 184854" d="M395.6,550.778c-.682-.127-1.433-.244-2.175-.411-1.4-.318-2.8-.664-4.205-1-.782,1.354-2.731,5.512-2.868,5.85l4.854,4.364-1.362,7.031-6.253,2.135c.14,2.144.275,4.219.411,6.3,1.674.384,3.312.636,4.885.994.546.124,1.084.26,1.613.42l.937,2.753,1.332,3.911-4.475,4.9,3.513,5.324,6.242-2.054a66.783,66.783,0,0,1,5.308,4.9l-1.166,6.14a28.952,28.952,0,0,0,5.719,2.93l4.239-4.713c2.335.368,4.783.861,7.165,1.413l1.881,5.7c1.071.521,3,.5,6.518-.081.4-2.05.819-4.163,1.241-6.305l6.764-2.317,4.977,4.3a38.435,38.435,0,0,0,5.3-3.582l-2.032-6.124,4.773-5.328,6.187,1.233a28.425,28.425,0,0,0,2.843-5.764l-4.755-4.277c.5-2.421.986-4.751,1.456-7.019l6.007-2.079a23.786,23.786,0,0,0-.319-6.208,7.418,7.418,0,0,0-1.054-.393c-1.282-.268-2.566-.533-3.859-.732a2.9,2.9,0,0,1-1.576-.63l-1.134-3.365-1.059-3.141,4.342-4.819a24.4,24.4,0,0,0-3.691-5.324l-5.878,2.009L440.838,543l.078-.407c.382-2,.767-4.015,1.148-6.008a30.166,30.166,0,0,0-5.749-2.814l-4.3,4.756c-2.382-.524-4.765-.779-7.083-1.531l-1.935-5.739c-1.049-.4-3.513-.327-6.332.188-.106.376-.246.8-.343,1.232-.3,1.321-.571,2.648-.872,3.968-.1.429-.255.845-.364,1.2l-6.622,2.239-4.851-4.342a23.161,23.161,0,0,0-5.29,3.69l1.919,6-4.637,5.343m36.381,1.505a19.829,19.829,0,1,1-27.088,7.259,19.829,19.829,0,0,1,27.088-7.259" transform="translate(-308.164 -351.274)" fill="#d3abdd"/>
                  <path id="Trazado_184855" data-name="Trazado 184855" d="M705.016,338.957a10.349,10.349,0,0,0-.139-2.7,3.24,3.24,0,0,0-.459-.171c-.558-.117-1.117-.232-1.68-.319a1.261,1.261,0,0,1-.687-.274l-.494-1.465q-.233-.69-.461-1.368l1.89-2.1a10.615,10.615,0,0,0-1.607-2.318l-2.559.875-2.354-2.05c.011-.059.022-.118.034-.177.166-.87.334-1.748.5-2.616a13.109,13.109,0,0,0-2.5-1.225l-1.873,2.071c-1.037-.229-2.074-.34-3.084-.667l-.843-2.5a6.534,6.534,0,0,0-2.757.082c-.046.164-.107.348-.15.536-.129.575-.248,1.153-.38,1.728-.043.187-.111.368-.158.522l-2.883.975-2.112-1.89a10.085,10.085,0,0,0-2.3,1.606c.281.878.554,1.732.836,2.613l-2.019,2.327c-.3-.055-.624-.106-.947-.18-.612-.138-1.221-.289-1.831-.435-.34.589-1.189,2.4-1.249,2.547l2.113,1.9q-.3,1.532-.593,3.061l-2.722.93c.061.933.12,1.837.179,2.742.729.168,1.442.277,2.127.433.237.054.472.113.7.183l.408,1.2.58,1.7-1.949,2.131,1.529,2.318,2.717-.894a29.088,29.088,0,0,1,2.311,2.135l-.508,2.673a12.6,12.6,0,0,0,2.49,1.276l1.845-2.052c1.016.16,2.082.375,3.119.615l.819,2.48a5.42,5.42,0,0,0,2.838-.036l.541-2.745,2.945-1.009L696.4,353.3a16.789,16.789,0,0,0,2.307-1.56l-.885-2.666,2.078-2.319,2.694.537a12.4,12.4,0,0,0,1.238-2.51l-2.07-1.862c.219-1.055.429-2.069.634-3.056l2.615-.905m-13.972,1.213a3.174,3.174,0,1,1-1.162-4.335,3.174,3.174,0,0,1,1.162,4.335" transform="translate(-464.117 -226.191)" fill="#ff0092"/>
                  <path id="Trazado_184856" data-name="Trazado 184856" d="M572.964,35.566a21.5,21.5,0,0,0-.289-5.617,6.757,6.757,0,0,0-.954-.356c-1.16-.243-2.321-.482-3.491-.663a2.622,2.622,0,0,1-1.426-.569l-1.026-3.045q-.483-1.433-.958-2.842l3.928-4.36a22.054,22.054,0,0,0-3.339-4.817l-5.318,1.818-4.892-4.26c.024-.122.047-.246.071-.367.345-1.808.694-3.632,1.039-5.436a27.2,27.2,0,0,0-5.2-2.546l-3.892,4.3c-2.156-.475-4.311-.706-6.408-1.386L539.055.232c-.949-.361-3.179-.3-5.728.17-.1.34-.223.722-.311,1.114-.269,1.2-.516,2.4-.788,3.59-.089.388-.231.764-.329,1.084l-5.992,2.025-4.389-3.927a20.947,20.947,0,0,0-4.786,3.338c.583,1.826,1.151,3.6,1.737,5.43-1.39,1.6-2.756,3.174-4.2,4.835-.616-.115-1.3-.221-1.967-.373-1.271-.287-2.537-.6-3.8-.9-.707,1.225-2.47,4.987-2.595,5.292l4.391,3.948q-.616,3.183-1.232,6.361l-5.657,1.931c.126,1.939.249,3.817.371,5.7,1.515.349,3,.576,4.42.9.493.112.981.236,1.459.38.289.847.569,1.669.848,2.49.4,1.183.8,2.356,1.2,3.539l-4.049,4.429,3.178,4.817,5.647-1.857a60.418,60.418,0,0,1,4.8,4.437c-.369,1.944-.711,3.746-1.055,5.555a26.17,26.17,0,0,0,5.174,2.652l3.835-4.264c2.112.332,4.327.779,6.482,1.279l1.7,5.154c.969.471,2.711.448,5.9-.074.365-1.855.741-3.767,1.123-5.705l6.12-2.1,4.5,3.89a34.861,34.861,0,0,0,4.794-3.241l-1.838-5.54,4.318-4.82,5.6,1.115a25.765,25.765,0,0,0,2.573-5.215l-4.3-3.869c.455-2.192.892-4.3,1.317-6.351l5.435-1.881m-21.518,6.861a15.274,15.274,0,1,1-5.592-20.865,15.277,15.277,0,0,1,5.592,20.865" transform="translate(-361.453 0)" fill="#ffd400"/>
                  <path id="Trazado_184858" data-name="Trazado 184858" d="M814.533,575.963a9.395,9.395,0,1,1,4.244-1.024,9.409,9.409,0,0,1-4.244,1.024m-.023-17.237a7.853,7.853,0,1,0,7.013,4.291,7.808,7.808,0,0,0-7.013-4.291" transform="translate(-578.105 -400.076)" fill="#cecccc"/>
                  <path id="Trazado_184861" data-name="Trazado 184861" d="M225.762,314.078a11.766,11.766,0,1,0,11.766-11.766,11.766,11.766,0,0,0-11.766,11.766" transform="translate(-162.1 -217.064)" fill="#fbe9dd"/>
                </g>
              </g>
              <g id="Grupo_140690" data-name="Grupo 140690" transform="translate(491.264 523.207)">
                <rect id="Rectángulo_35918" data-name="Rectángulo 35918" width="86.604" height="58.809" transform="translate(5.277)" fill="url(#linear-gradient-2)"/>
                <g id="Grupo_140688" data-name="Grupo 140688" transform="translate(0 58.809)">
                  <path id="Trazado_183110" data-name="Trazado 183110" d="M694.265,152.483h86.6l5.277,10.115H688.988Z" transform="translate(-688.988 -152.483)" fill="#fff"/>
                  <path id="Trazado_183111" data-name="Trazado 183111" d="M693.684,154.273h82.193l1.413,2.968H692.271Z" transform="translate(-686.201 -150.965)" fill="#9fa9d1"/>
                </g>
                <rect id="Rectángulo_35919" data-name="Rectángulo 35919" width="76.77" height="48.694" transform="translate(10.195 5.058)" fill="#3931a3"/>
                <rect id="Rectángulo_35920" data-name="Rectángulo 35920" width="97.159" height="3.98" transform="translate(0 68.924)" fill="#9fa9d1"/>
                <g id="Grupo_140689" data-name="Grupo 140689" transform="translate(42.032 13.429)">
                  <text id="_011100" data-name="011100" transform="matrix(-1, 0, 0, 1, 14.075, 4.693)" fill="#fff" font-size="4" font-family="SegoeUI, Segoe UI" letter-spacing="0.2em"><tspan x="-8.469" y="0">011100</tspan></text>
                  <text id="_101100" data-name="101100" transform="matrix(-1, 0, 0, 1, 12.924, 13.858)" fill="#fff" font-size="5" font-family="SegoeUI, Segoe UI" letter-spacing="0.2em"><tspan x="-10.586" y="0">101100</tspan></text>
                  <text id="_001100" data-name="001100" transform="matrix(-1, 0, 0, 1, 11.902, 22.241)" fill="#fff" font-size="5" font-family="SegoeUI, Segoe UI" letter-spacing="0.153em"><tspan x="-9.998" y="0">001100</tspan></text>
                  <text id="_011110" data-name="011110" transform="matrix(-1, 0, 0, 1, 13.084, 30.623)" fill="#fff" font-size="5" font-family="SegoeUI, Segoe UI" letter-spacing="0.243em"><tspan x="-11.123" y="0">011110</tspan></text>
                </g>
              </g>
            </g>
          </g>
          <g id="Grupo_140683" data-name="Grupo 140683" transform="translate(485.104 151.286)">
            <g id="Grupo_140657" data-name="Grupo 140657" transform="translate(3.247 3.261)">
              <path id="Trazado_183056" data-name="Trazado 183056" d="M-1230.388,1691.013a41.136,41.136,0,0,1-35.455-12.186,41.2,41.2,0,0,1-6.959-47.459c-9.129-6.182-15.126-13.915-15.126-25.766,0-8.747,3.268-14.005,8.652-20.076a34.171,34.171,0,0,1-2.157-12,34.23,34.23,0,0,1,9.688-23.9c-4.992-12.481-2.411-28.865,7.912-42.156,9.244-11.884,22.412-14.289,34.63-14.269a31.021,31.021,0,0,1,17.505-26.845,31.023,31.023,0,0,1,41.431,14.438l-.075.269a30.743,30.743,0,0,1,2.37,11.82,30.658,30.658,0,0,1-3.184,13.623,15.862,15.862,0,0,1,6.7,12.937,15.9,15.9,0,0,1-12.84,15.585,26.01,26.01,0,0,1,15.759,23.905,25.891,25.891,0,0,1-7.722,18.483,25.9,25.9,0,0,1,7.12,17.839,25.986,25.986,0,0,1-11.508,21.593c5.648,7.013,9.191,17.109,9.191,28.332,0,11.772-8,28.711-8,28.711a31.214,31.214,0,0,1,5.353,17.516,31.328,31.328,0,0,1-31.33,31.33,31.337,31.337,0,0,1-31.341-31.33Z" transform="translate(1287.928 -1463.261)" fill="#ccc"/>
            </g>
            <g id="Grupo_140670" data-name="Grupo 140670" transform="translate(0 0)">
              <g id="Grupo_140659" data-name="Grupo 140659">
                <path id="Trazado_183058" data-name="Trazado 183058" d="M-1200.815,1723.61a34.625,34.625,0,0,0,34.578-34.583,34.387,34.387,0,0,0-4.918-17.78c2.052-4.669,7.562-18.166,7.562-28.447,0-10.218-2.866-20.114-7.933-27.681a29.227,29.227,0,0,0,10.249-22.244,29.132,29.132,0,0,0-6.03-17.764,29.049,29.049,0,0,0,6.637-18.558,29.236,29.236,0,0,0-11.7-23.409,19.17,19.17,0,0,0,8.779-16.082,19.145,19.145,0,0,0-5.966-13.861,33.689,33.689,0,0,0,2.454-12.7,33.767,33.767,0,0,0-2.295-12.264,3.2,3.2,0,0,0-.317-1.237,34.047,34.047,0,0,0-19.579-17.459,34.1,34.1,0,0,0-26.2,1.507,34.2,34.2,0,0,0-19.092,26.559c-10.514.328-24.317,2.783-34.185,15.486-10.313,13.264-13.7,29.7-9.087,43.409a37.445,37.445,0,0,0-9.2,24.645,37.592,37.592,0,0,0,1.724,11.281c-5.109,6.056-8.219,11.878-8.219,20.79,0,10.942,4.548,19.531,14.269,26.829a44.441,44.441,0,0,0,8.726,48.65,44.544,44.544,0,0,0,35.307,13.465A34.625,34.625,0,0,0-1200.815,1723.61Zm24.867-244.536a3.107,3.107,0,0,0,.222.861,27.268,27.268,0,0,1,2.115,10.567,27.246,27.246,0,0,1-2.834,12.18,3.247,3.247,0,0,0,1.026,4.088,12.667,12.667,0,0,1,5.32,10.292,12.632,12.632,0,0,1-10.2,12.391,3.246,3.246,0,0,0-2.613,2.845,3.235,3.235,0,0,0,1.946,3.332,22.752,22.752,0,0,1,13.792,20.923,22.59,22.59,0,0,1-6.759,16.172,3.255,3.255,0,0,0-.073,4.543,22.643,22.643,0,0,1,6.23,15.607,22.732,22.732,0,0,1-10.08,18.9,3.269,3.269,0,0,0-1.4,2.211,3.237,3.237,0,0,0,.677,2.522c5.384,6.685,8.472,16.274,8.472,26.3,0,10.921-7.6,27.162-7.68,27.326a3.276,3.276,0,0,0,.244,3.205,27.921,27.921,0,0,1,4.8,15.7,28.115,28.115,0,0,1-28.083,28.083,28.115,28.115,0,0,1-28.083-28.083,3.257,3.257,0,0,0-1.809-2.908,3.242,3.242,0,0,0-2.517-.7,38.081,38.081,0,0,1-32.662-11.228,37.929,37.929,0,0,1-6.41-43.71,3.253,3.253,0,0,0-1.058-4.184c-9.477-6.415-13.708-13.534-13.708-23.074,0-7.637,2.761-12.19,7.838-17.918a3.269,3.269,0,0,0,.614-3.29,31.08,31.08,0,0,1-1.946-10.863,30.981,30.981,0,0,1,8.758-21.646,3.237,3.237,0,0,0,.687-3.469c-4.706-11.767-1.776-27.052,7.468-38.951,6.992-9,16.84-13.016,31.923-13.016h.137a3.25,3.25,0,0,0,3.247-3.131,27.728,27.728,0,0,1,15.675-24.038,27.583,27.583,0,0,1,21.219-1.216A27.559,27.559,0,0,1-1175.947,1479.075Z" transform="translate(1293.556 -1457.619)" fill="#214be5"/>
              </g>
              <g id="Grupo_140660" data-name="Grupo 140660" transform="translate(58.368 202.347)">
                <path id="Trazado_183059" data-name="Trazado 183059" d="M-1191.315,1857.11a3.26,3.26,0,0,0,1.756-.518,3.245,3.245,0,0,0,.974-4.491,27.991,27.991,0,0,1-4.454-15.8,28.175,28.175,0,0,1,12.27-22.593,3.262,3.262,0,0,0,.857-4.517,3.252,3.252,0,0,0-4.517-.851,34.672,34.672,0,0,0-15.105,27.823,34.474,34.474,0,0,0,5.479,19.457A3.25,3.25,0,0,0-1191.315,1857.11Z" transform="translate(1199.542 -1807.772)" fill="#214be5"/>
              </g>
              <g id="Grupo_140661" data-name="Grupo 140661" transform="translate(6.315 109.241)">
                <path id="Trazado_183060" data-name="Trazado 183060" d="M-1105.722,1684.909a3.248,3.248,0,0,0,3.248-3.247,3.25,3.25,0,0,0-3.248-3.247,28.54,28.54,0,0,1-28.505-28.512,3.254,3.254,0,0,0-3.258-3.247,3.252,3.252,0,0,0-3.247,3.247A35.048,35.048,0,0,0-1105.722,1684.909Z" transform="translate(1140.732 -1646.655)" fill="#214be5"/>
              </g>
              <g id="Grupo_140662" data-name="Grupo 140662" transform="translate(55.255 30.018)">
                <path id="Trazado_183061" data-name="Trazado 183061" d="M-1189.17,1528.079a3.225,3.225,0,0,0,2.349-1.011,3.25,3.25,0,0,0-.105-4.6,46.649,46.649,0,0,0-32.3-12.91h0a3.244,3.244,0,0,0-3.247,3.247,3.246,3.246,0,0,0,3.247,3.253h0a40.159,40.159,0,0,1,27.819,11.117A3.244,3.244,0,0,0-1189.17,1528.079Z" transform="translate(1222.477 -1509.563)" fill="#214be5"/>
              </g>
              <g id="Grupo_140663" data-name="Grupo 140663" transform="translate(63.194 34.699)">
                <path id="Trazado_183062" data-name="Trazado 183062" d="M-1237.246,1566c7.826,0,16.606-4.162,23.185-11.8,10.313-11.967,11.4-28.008,2.412-35.751a3.246,3.246,0,0,0-4.581.344,3.25,3.25,0,0,0,.339,4.58c6.272,5.4,4.886,17.326-3.089,26.585s-19.568,12.386-25.84,6.982a3.245,3.245,0,0,0-4.581.343,3.249,3.249,0,0,0,.339,4.58A17.791,17.791,0,0,0-1237.246,1566Z" transform="translate(1250.187 -1517.664)" fill="#214be5"/>
              </g>
              <g id="Grupo_140664" data-name="Grupo 140664" transform="translate(28.298 75.227)">
                <path id="Trazado_183063" data-name="Trazado 183063" d="M-1150.581,1629.817a3.244,3.244,0,0,0,1.163-.217,21.651,21.651,0,0,0,12.407-27.951,21.638,21.638,0,0,0-27.945-12.407,3.246,3.246,0,0,0-1.872,4.2,3.254,3.254,0,0,0,4.2,1.867,15.15,15.15,0,0,1,19.558,8.678,15.145,15.145,0,0,1-8.685,19.547,3.25,3.25,0,0,0-1.862,4.2A3.249,3.249,0,0,0-1150.581,1629.817Z" transform="translate(1167.045 -1587.795)" fill="#214be5"/>
              </g>
              <g id="Grupo_140665" data-name="Grupo 140665" transform="translate(75.304 184.587)">
                <path id="Trazado_183064" data-name="Trazado 183064" d="M-1231.923,1819.064a3.22,3.22,0,0,0,1.165-.222,21.649,21.649,0,0,0,12.407-27.951,21.642,21.642,0,0,0-27.945-12.407,3.253,3.253,0,0,0-1.873,4.205,3.251,3.251,0,0,0,4.2,1.861,15.152,15.152,0,0,1,19.558,8.673,15.158,15.158,0,0,1-8.674,19.558,3.245,3.245,0,0,0-1.871,4.2A3.258,3.258,0,0,0-1231.923,1819.064Z" transform="translate(1248.387 -1777.039)" fill="#214be5"/>
              </g>
              <g id="Grupo_140666" data-name="Grupo 140666" transform="translate(58.038 146.955)">
                <path id="Trazado_183065" data-name="Trazado 183065" d="M-1206.358,1732.363a17.223,17.223,0,0,0,17.2-17.2,3.251,3.251,0,0,0-3.258-3.247,3.248,3.248,0,0,0-3.247,3.247,10.711,10.711,0,0,1-10.693,10.7,10.712,10.712,0,0,1-10.7-10.7,3.248,3.248,0,0,0-3.247-3.247,3.241,3.241,0,0,0-3.247,3.247A17.215,17.215,0,0,0-1206.358,1732.363Z" transform="translate(1223.556 -1711.918)" fill="#214be5"/>
              </g>
              <g id="Grupo_140667" data-name="Grupo 140667" transform="translate(30.875 158.544)">
                <path id="Trazado_183066" data-name="Trazado 183066" d="M-1148.906,1766.336c.075,0,.159,0,.233-.01a17.079,17.079,0,0,0,11.772-5.9,17.1,17.1,0,0,0,4.157-12.492,17.192,17.192,0,0,0-18.393-15.918,3.238,3.238,0,0,0-3.005,3.469,3.256,3.256,0,0,0,3.471,3.009,10.707,10.707,0,0,1,11.444,9.906,10.691,10.691,0,0,1-2.581,7.775,10.66,10.66,0,0,1-7.33,3.67,3.245,3.245,0,0,0-3,3.469A3.243,3.243,0,0,0-1148.906,1766.336Z" transform="translate(1154.152 -1731.972)" fill="#214be5"/>
              </g>
              <g id="Grupo_140668" data-name="Grupo 140668" transform="translate(79.892 76.582)">
                <path id="Trazado_183067" data-name="Trazado 183067" d="M-1233.715,1624.509c.074,0,.159-.005.233-.011a17.218,17.218,0,0,0,15.918-18.389,17.2,17.2,0,0,0-18.382-15.924,3.255,3.255,0,0,0-3.016,3.475,3.245,3.245,0,0,0,3.48,3.009,10.7,10.7,0,0,1,11.435,9.906,10.71,10.71,0,0,1-9.9,11.439,3.245,3.245,0,0,0-3,3.474A3.242,3.242,0,0,0-1233.715,1624.509Z" transform="translate(1238.97 -1590.141)" fill="#214be5"/>
              </g>
              <g id="Grupo_140669" data-name="Grupo 140669" transform="translate(53.284 123.204)">
                <path id="Trazado_183068" data-name="Trazado 183068" d="M-1201.738,1688.983a3.241,3.241,0,0,0,2.243-.9,3.249,3.249,0,0,0,.105-4.6c-.233-.243-23.66-24.121-55.889-5.7a3.245,3.245,0,0,0-1.216,4.432,3.251,3.251,0,0,0,4.43,1.211c27.883-15.924,47.779,4.342,47.979,4.549A3.232,3.232,0,0,0-1201.738,1688.983Z" transform="translate(1256.924 -1670.818)" fill="#214be5"/>
              </g>
            </g>
          </g>
        </g>
      </g>
    </g>
    <path id="Trazado_184862" data-name="Trazado 184862" d="M317.355,0,0,18.036V81L317.355,62.964Z" transform="translate(978.175 761.066)" fill="#00bab5"/>
    <path id="Trazado_184918" data-name="Trazado 184918" d="M26.934,19.211V25H22.821V7.938h6.809a7.93,7.93,0,0,1,3.463.721,5.431,5.431,0,0,1,2.332,2.051,5.6,5.6,0,0,1,.826,3.018,4.937,4.937,0,0,1-1.787,3.99,7.415,7.415,0,0,1-4.9,1.494Zm0-3.176h2.7a2.542,2.542,0,0,0,1.822-.6,2.221,2.221,0,0,0,.627-1.687,2.745,2.745,0,0,0-.645-1.91,2.282,2.282,0,0,0-1.758-.727H26.934Zm17.461,9.2a6.518,6.518,0,0,1-4.723-1.74,6.009,6.009,0,0,1-1.8-4.529v-.328a7.787,7.787,0,0,1,.721-3.434,5.274,5.274,0,0,1,2.1-2.3,6.35,6.35,0,0,1,3.281-.814,5.489,5.489,0,0,1,4.219,1.658,6.516,6.516,0,0,1,1.547,4.623V19.9H41.887a2.846,2.846,0,0,0,.926,1.676,2.755,2.755,0,0,0,1.852.609,3.549,3.549,0,0,0,2.93-1.312l1.8,2.133a5.045,5.045,0,0,1-2.092,1.623A7.069,7.069,0,0,1,44.4,25.234Zm-.445-10.1q-1.734,0-2.062,2.3h3.984v-.3a1.956,1.956,0,0,0-.48-1.471A1.912,1.912,0,0,0,43.95,15.133Zm11-2.812.129,1.488A4.3,4.3,0,0,1,58.7,12.086a3.618,3.618,0,0,1,2.959,1.184,5.635,5.635,0,0,1,1.014,3.563V25H58.715V17a2.14,2.14,0,0,0-.387-1.412,1.789,1.789,0,0,0-1.406-.451,1.883,1.883,0,0,0-1.723.914V25H51.25V12.32ZM71.5,21.438a.912.912,0,0,0-.527-.809,8.021,8.021,0,0,0-2-.633,9.138,9.138,0,0,1-2.437-.861,4.083,4.083,0,0,1-1.465-1.295,3.092,3.092,0,0,1-.5-1.746A3.5,3.5,0,0,1,66,13.217a5.938,5.938,0,0,1,3.773-1.131,6.579,6.579,0,0,1,4.031,1.137,3.555,3.555,0,0,1,1.523,2.988H71.372q0-1.523-1.605-1.523a1.591,1.591,0,0,0-1.043.346,1.07,1.07,0,0,0-.422.861.982.982,0,0,0,.516.855,4.872,4.872,0,0,0,1.646.539,14.228,14.228,0,0,1,1.986.5q2.859.984,2.859,3.527a3.321,3.321,0,0,1-1.541,2.824,6.758,6.758,0,0,1-3.99,1.09,6.9,6.9,0,0,1-2.906-.586,4.86,4.86,0,0,1-1.992-1.594,3.609,3.609,0,0,1-.715-2.121h3.691a1.526,1.526,0,0,0,.586,1.283,2.41,2.41,0,0,0,1.441.4,1.9,1.9,0,0,0,1.213-.328A1.05,1.05,0,0,0,71.5,21.438ZM84.3,25a4.459,4.459,0,0,1-.375-1.137,3.672,3.672,0,0,1-3.047,1.371,4.5,4.5,0,0,1-3.047-1.084,3.45,3.45,0,0,1-1.254-2.725A3.546,3.546,0,0,1,78.1,18.309a7.761,7.761,0,0,1,4.43-1.055h1.219v-.671q0-1.755-1.512-1.755a1.236,1.236,0,0,0-1.406,1.39H76.879a3.54,3.54,0,0,1,1.564-2.985,6.575,6.575,0,0,1,3.99-1.147,5.764,5.764,0,0,1,3.832,1.184,4.115,4.115,0,0,1,1.441,3.246v5.613a5.748,5.748,0,0,0,.539,2.672V25Zm-2.473-2.578a2.2,2.2,0,0,0,1.225-.316,1.983,1.983,0,0,0,.7-.715V19.363H82.6q-2.062,0-2.062,1.852a1.131,1.131,0,0,0,.363.873A1.315,1.315,0,0,0,81.825,22.422Zm11.8-10.1.129,1.488a4.36,4.36,0,0,1,3.621-1.723A3.21,3.21,0,0,1,100.622,14a4.22,4.22,0,0,1,3.727-1.91q3.855,0,3.961,4.664V25h-3.961V17a2.417,2.417,0,0,0-.328-1.418,1.4,1.4,0,0,0-1.2-.445,1.871,1.871,0,0,0-1.746,1.043l.012.164V25H97.129V17.02a2.541,2.541,0,0,0-.316-1.441,1.393,1.393,0,0,0-1.207-.445,1.894,1.894,0,0,0-1.734,1.043V25H89.922V12.32ZM114.731,25H110.77V12.32h3.961Zm-4.2-15.949a1.763,1.763,0,0,1,.609-1.383,2.591,2.591,0,0,1,3.164,0,1.763,1.763,0,0,1,.609,1.383,1.763,1.763,0,0,1-.609,1.383,2.591,2.591,0,0,1-3.164,0A1.763,1.763,0,0,1,110.536,9.051ZM123.3,25.234a6.518,6.518,0,0,1-4.723-1.74,6.009,6.009,0,0,1-1.8-4.529v-.328a7.787,7.787,0,0,1,.721-3.434,5.274,5.274,0,0,1,2.1-2.3,6.35,6.35,0,0,1,3.281-.814,5.489,5.489,0,0,1,4.219,1.658,6.516,6.516,0,0,1,1.547,4.623V19.9H120.79a2.846,2.846,0,0,0,.926,1.676,2.755,2.755,0,0,0,1.852.609,3.549,3.549,0,0,0,2.93-1.312l1.8,2.133a5.045,5.045,0,0,1-2.092,1.623A7.069,7.069,0,0,1,123.3,25.234Zm-.445-10.1q-1.734,0-2.062,2.3h3.984v-.3a1.956,1.956,0,0,0-.48-1.471A1.912,1.912,0,0,0,122.852,15.133Zm11-2.812.129,1.488a4.3,4.3,0,0,1,3.621-1.723,3.618,3.618,0,0,1,2.959,1.184,5.635,5.635,0,0,1,1.014,3.563V25h-3.961V17a2.14,2.14,0,0,0-.387-1.412,1.789,1.789,0,0,0-1.406-.451,1.883,1.883,0,0,0-1.723.914V25h-3.949V12.32Zm14.508-3.152V12.32h2.086v2.742h-2.086v5.8a1.481,1.481,0,0,0,.258,1,1.383,1.383,0,0,0,1.02.281,5.793,5.793,0,0,0,.984-.07v2.824a7.288,7.288,0,0,1-2.227.34,4.137,4.137,0,0,1-3.012-.961,3.939,3.939,0,0,1-.973-2.918V15.063H142.8V12.32h1.617V9.168Zm2.789,9.375a7.484,7.484,0,0,1,.738-3.381,5.28,5.28,0,0,1,2.121-2.279,6.388,6.388,0,0,1,3.246-.8,5.83,5.83,0,0,1,4.488,1.764,6.768,6.768,0,0,1,1.641,4.8v.141a6.566,6.566,0,0,1-1.646,4.705,5.846,5.846,0,0,1-4.459,1.74,5.912,5.912,0,0,1-4.348-1.623,6.348,6.348,0,0,1-1.77-4.4Zm3.949.246a4.718,4.718,0,0,0,.551,2.578,1.835,1.835,0,0,0,1.629.82q2.109,0,2.156-3.246v-.4q0-3.41-2.18-3.41-1.98,0-2.145,2.941Zm21.363,3.4a1.756,1.756,0,0,0,1.289-.451,1.654,1.654,0,0,0,.445-1.26h3.7a4.384,4.384,0,0,1-1.494,3.422,5.558,5.558,0,0,1-3.85,1.336A5.627,5.627,0,0,1,172.2,23.5a6.834,6.834,0,0,1-1.594-4.8v-.164a7.723,7.723,0,0,1,.709-3.393,5.162,5.162,0,0,1,2.045-2.262,6.1,6.1,0,0,1,3.164-.791,5.488,5.488,0,0,1,3.926,1.371,4.863,4.863,0,0,1,1.453,3.715h-3.7a2.168,2.168,0,0,0-.48-1.512,1.658,1.658,0,0,0-1.289-.527q-1.535,0-1.793,1.957a13.809,13.809,0,0,0-.082,1.711,5.424,5.424,0,0,0,.457,2.648A1.582,1.582,0,0,0,176.465,22.188Zm6.609-3.645a7.484,7.484,0,0,1,.738-3.381,5.28,5.28,0,0,1,2.121-2.279,6.388,6.388,0,0,1,3.246-.8,5.83,5.83,0,0,1,4.488,1.764,6.768,6.768,0,0,1,1.641,4.8v.141a6.566,6.566,0,0,1-1.646,4.705,5.846,5.846,0,0,1-4.459,1.74,5.912,5.912,0,0,1-4.348-1.623,6.348,6.348,0,0,1-1.77-4.4Zm3.949.246a4.718,4.718,0,0,0,.551,2.578,1.835,1.835,0,0,0,1.629.82q2.109,0,2.156-3.246v-.4q0-3.41-2.18-3.41-1.98,0-2.145,2.941Zm13.652-6.469.129,1.488a4.3,4.3,0,0,1,3.621-1.723,3.618,3.618,0,0,1,2.959,1.184,5.635,5.635,0,0,1,1.014,3.563V25h-3.961V17a2.14,2.14,0,0,0-.387-1.412,1.789,1.789,0,0,0-1.406-.451,1.883,1.883,0,0,0-1.723.914V25h-3.949V12.32Zm14.965,7.98,2-7.98h4.16L217.668,25h-4.031L209.5,12.32h4.172Zm13.477,4.934a6.518,6.518,0,0,1-4.723-1.74,6.009,6.009,0,0,1-1.8-4.529v-.328a7.787,7.787,0,0,1,.721-3.434,5.274,5.274,0,0,1,2.1-2.3,6.35,6.35,0,0,1,3.281-.814,5.489,5.489,0,0,1,4.219,1.658,6.516,6.516,0,0,1,1.547,4.623V19.9H226.61a2.846,2.846,0,0,0,.926,1.676,2.755,2.755,0,0,0,1.852.609,3.549,3.549,0,0,0,2.93-1.312l1.8,2.133a5.045,5.045,0,0,1-2.092,1.623A7.069,7.069,0,0,1,229.118,25.234Zm-.445-10.1q-1.734,0-2.062,2.3h3.984v-.3a1.956,1.956,0,0,0-.48-1.471A1.912,1.912,0,0,0,228.672,15.133Zm15.047.762-1.3-.094a2.336,2.336,0,0,0-2.391,1.172V25h-3.949V12.32h3.7l.129,1.629a3.058,3.058,0,0,1,2.777-1.863,3.851,3.851,0,0,1,1.1.141Zm.961,2.672a8.561,8.561,0,0,1,.633-3.4,5.094,5.094,0,0,1,1.816-2.279,4.788,4.788,0,0,1,2.754-.8,3.807,3.807,0,0,1,3.094,1.336l.141-1.1H256.7v12.2a5.346,5.346,0,0,1-.779,2.912,5,5,0,0,1-2.256,1.9,8.292,8.292,0,0,1-3.422.662,7.153,7.153,0,0,1-2.7-.527,4.876,4.876,0,0,1-2-1.371l1.652-2.32a3.621,3.621,0,0,0,2.906,1.3q2.625,0,2.625-2.7v-.4a3.708,3.708,0,0,1-2.871,1.254,4.583,4.583,0,0,1-3.75-1.775,7.356,7.356,0,0,1-1.43-4.752Zm3.961.246a4.511,4.511,0,0,0,.586,2.467,1.849,1.849,0,0,0,1.641.908,2.1,2.1,0,0,0,1.863-.855V16a2.045,2.045,0,0,0-1.84-.867,1.861,1.861,0,0,0-1.652.943A5.144,5.144,0,0,0,248.641,18.813Zm16.441,6.422a6.518,6.518,0,0,1-4.723-1.74,6.009,6.009,0,0,1-1.8-4.529v-.328a7.787,7.787,0,0,1,.721-3.434,5.274,5.274,0,0,1,2.1-2.3,6.35,6.35,0,0,1,3.281-.814,5.489,5.489,0,0,1,4.219,1.658,6.516,6.516,0,0,1,1.547,4.623V19.9h-7.852a2.846,2.846,0,0,0,.926,1.676,2.755,2.755,0,0,0,1.852.609,3.549,3.549,0,0,0,2.93-1.312l1.8,2.133a5.045,5.045,0,0,1-2.092,1.623A7.069,7.069,0,0,1,265.083,25.234Zm-.445-10.1q-1.734,0-2.062,2.3h3.984v-.3a1.956,1.956,0,0,0-.48-1.471A1.912,1.912,0,0,0,264.637,15.133Zm11-2.812.129,1.488a4.3,4.3,0,0,1,3.621-1.723,3.618,3.618,0,0,1,2.959,1.184,5.635,5.635,0,0,1,1.014,3.563V25H279.4V17a2.14,2.14,0,0,0-.387-1.412,1.789,1.789,0,0,0-1.406-.451,1.883,1.883,0,0,0-1.723.914V25h-3.949V12.32Zm14.508-3.152V12.32h2.086v2.742h-2.086v5.8a1.481,1.481,0,0,0,.258,1,1.383,1.383,0,0,0,1.02.281,5.793,5.793,0,0,0,.984-.07v2.824a7.288,7.288,0,0,1-2.227.34,4.137,4.137,0,0,1-3.012-.961,3.939,3.939,0,0,1-.973-2.918V15.063h-1.617V12.32H286.2V9.168Zm9.773,16.066a6.518,6.518,0,0,1-4.723-1.74,6.009,6.009,0,0,1-1.8-4.529v-.328a7.787,7.787,0,0,1,.721-3.434,5.274,5.274,0,0,1,2.1-2.3,6.35,6.35,0,0,1,3.281-.814,5.489,5.489,0,0,1,4.219,1.658,6.516,6.516,0,0,1,1.547,4.623V19.9h-7.852a2.846,2.846,0,0,0,.926,1.676,2.755,2.755,0,0,0,1.852.609,3.549,3.549,0,0,0,2.93-1.312l1.8,2.133a5.045,5.045,0,0,1-2.092,1.623A7.069,7.069,0,0,1,299.922,25.234Zm-.445-10.1q-1.734,0-2.062,2.3H301.4v-.3a1.956,1.956,0,0,0-.48-1.471A1.912,1.912,0,0,0,299.477,15.133Z" transform="translate(972.705 796.15) rotate(-3)" fill="#fff"/>
    <path id="Trazado_184863" data-name="Trazado 184863" d="M827.007-881.6a24.287,24.287,0,0,0-24.286,24.285,24.287,24.287,0,0,0,24.286,24.286,24.286,24.286,0,0,0,24.286-24.286A24.286,24.286,0,0,0,827.007-881.6Zm0,42.1a17.809,17.809,0,0,1-17.809-17.81,17.809,17.809,0,0,1,17.809-17.809,17.81,17.81,0,0,1,17.81,17.809A17.81,17.81,0,0,1,827.007-839.508Z" transform="translate(141.388 1311.021)" fill="#ffd400"/>
    <rect id="Rectángulo_36113" data-name="Rectángulo 36113" width="79.068" height="9.237" transform="matrix(0.998, -0.07, 0.07, 0.998, 1199.813, 824.217)" fill="#ff0092"/>
    <path id="Trazado_184864" data-name="Trazado 184864" d="M1278.927-585.471h12.447V-627.4h-12.447Zm-.822.827v-43.587H1292.2v43.587Zm2.538,12.451,5.048-8.744,5.047,8.744Zm0,11.076,5.048-8.744,5.047,8.744Zm0,11.078,5.048-8.745,5.047,8.745Zm0,11.076,5.048-8.744,5.047,8.744Zm0,11.076,5.048-8.744,5.047,8.744Zm0,11.076,5.048-8.744,5.047,8.744Zm0,11.078,5.048-8.745,5.047,8.745Zm0,11.076,5.048-8.744,5.047,8.744Zm0,11.076,5.048-8.744,5.047,8.744Z" transform="translate(493.597 -405.184) rotate(87)" fill="#00bab5"/>
  </g>
</svg>
