<svg xmlns="http://www.w3.org/2000/svg" width="633" height="358.556" viewBox="0 0 633 358.556">
  <g id="img8" transform="translate(-180 -4627.352)">
    <path id="Trazado_183971" data-name="Trazado 183971" d="M1411.112-850.139l3,356.582-633-.93V-852.112Z" transform="translate(-601.112 5479.464)" fill="#214be5" fill-rule="evenodd"/>
    <g id="Grupo_141061" data-name="Grupo 141061" transform="translate(-357.167 4573.321)">
      <g id="Grupo_141009" data-name="Grupo 141009" transform="translate(806.408 75.276)">
        <path id="Trazado_183972" data-name="Trazado 183972" d="M1814.79,944.557h-.007c-2.756-.013-5.073-.051-7.083-.114a1.362,1.362,0,0,1,.085-2.724c1.986.062,4.28.1,7.011.112a1.363,1.363,0,0,1-.006,2.725Zm7.048-.009a1.363,1.363,0,0,1-.008-2.725c2.087-.012,4.211-.03,6.332-.047l.714-.006a1.363,1.363,0,1,1,.023,2.725l-.714.006c-2.122.017-4.249.035-6.339.047Zm14.1-.1a1.363,1.363,0,0,1-.006-2.725q1.3-.005,2.57-.007a8.327,8.327,0,0,0,3.718-.85,1.363,1.363,0,0,1,1.207,2.443,11.033,11.033,0,0,1-4.923,1.131q-1.262,0-2.56.007Zm-35.182-.646a1.356,1.356,0,0,1-.4-.06,12.043,12.043,0,0,1-6.2-4.681,1.363,1.363,0,0,1,2.207-1.6,9.393,9.393,0,0,0,4.8,3.675,1.363,1.363,0,0,1-.4,2.665Zm47.092-5.16a1.363,1.363,0,0,1-1.148-2.095,26.135,26.135,0,0,0,2.737-6.1,1.363,1.363,0,0,1,2.6.826,28.876,28.876,0,0,1-3.035,6.734,1.363,1.363,0,0,1-1.151.631Zm-55.651-5.342a1.363,1.363,0,0,1-1.3-.941,45.812,45.812,0,0,1-1.645-7.083,1.363,1.363,0,0,1,2.693-.42,43.072,43.072,0,0,0,1.543,6.658,1.363,1.363,0,0,1-1.3,1.785Zm60.125-7.944a1.378,1.378,0,0,1-.21-.016,1.362,1.362,0,0,1-1.139-1.554c.092-.6.172-1.185.237-1.754.1-.845.151-3.967.164-5.1a1.363,1.363,0,0,1,1.362-1.348h.015a1.363,1.363,0,0,1,1.348,1.378c-.005.431-.051,4.242-.182,5.38-.069.6-.154,1.228-.251,1.858a1.363,1.363,0,0,1-1.345,1.155Zm-62.406-5.956a1.362,1.362,0,0,1-1.36-1.306c-.04-.961-.046-1.665-.047-2,0-.128,0-.194,0-.194a1.363,1.363,0,0,1,1.362-1.339h.023a1.362,1.362,0,0,1,1.339,1.384v.148c0,.312.006.974.044,1.886a1.362,1.362,0,0,1-1.3,1.418Z" transform="translate(-1740.226 -706.64)" fill="#fcce5b"/>
        <path id="Trazado_183973" data-name="Trazado 183973" d="M1699.047,281.955c-1.29,0-3.1-.026-5.382-.079a1.363,1.363,0,1,1,.062-2.724c2.26.052,4.05.078,5.32.078.49,0,.916,0,1.271-.012.124,0,.245-.008.364-.014a1.363,1.363,0,0,1,.149,2.721q-.221.012-.451.017c-.372.008-.819.013-1.333.013Zm-12.409-.272h-.043c-2.257-.069-4.643-.148-7.062-.231a1.363,1.363,0,1,1,.093-2.724c2.416.083,4.8.161,7.052.231a1.362,1.362,0,0,1-.041,2.724Zm-14.113-.479h-.05l-5.708-.207-1.349-.049a1.362,1.362,0,1,1,.1-2.723l1.349.049,5.707.206a1.363,1.363,0,0,1-.048,2.724Zm-14.114-.507h-.047c-3.129-.107-4.9-.157-5.58-.157a8.291,8.291,0,0,1-1.708-.184,1.363,1.363,0,0,1,.563-2.667,5.557,5.557,0,0,0,1.145.125c.72,0,2.47.049,5.673.159a1.362,1.362,0,0,1-.046,2.724Zm47.9-2.313a1.363,1.363,0,0,1-1.284-1.818,8.531,8.531,0,0,0,.388-2.859c0-.505-.021-.989-.041-1.457-.011-.253-.021-.492-.028-.716s-.026-.539-.05-.9l-.034-.525a1.363,1.363,0,0,1,2.72-.168l.033.516c.026.4.047.725.055,1,.006.211.016.437.026.675.02.473.043,1.01.043,1.574a11.1,11.1,0,0,1-.545,3.769,1.363,1.363,0,0,1-1.284.908Zm-60.767-1.752a1.36,1.36,0,0,1-1.047-.489,16.82,16.82,0,0,1-3.364-6.812,1.595,1.595,0,0,0-.081-.338c-.3-1.291-.5-2.888-.767-4.91-.089-.684-.183-1.411-.289-2.179a1.363,1.363,0,0,1,2.7-.37c.106.775.2,1.508.291,2.2.254,1.95.454,3.49.721,4.654a1.425,1.425,0,0,1,.025.148,1.361,1.361,0,0,1,.044.144,14.117,14.117,0,0,0,2.812,5.721,1.362,1.362,0,0,1-1.046,2.235Zm61.134-12.285c-.034,0-.069,0-.1,0a1.362,1.362,0,0,1-1.256-1.461c.168-2.233.476-4.628.915-7.119a1.363,1.363,0,0,1,2.684.473c-.423,2.4-.72,4.708-.881,6.851a1.363,1.363,0,0,1-1.357,1.26Zm-66.488-8.217a1.362,1.362,0,0,1-1.334-1.093c-.467-2.313-1-4.517-1.64-6.739a1.362,1.362,0,1,1,2.619-.751c.657,2.293,1.21,4.566,1.692,6.951a1.363,1.363,0,0,1-1.066,1.605,1.394,1.394,0,0,1-.271.027Zm68.866-5.655a1.364,1.364,0,0,1-1.323-1.694c.551-2.2,1.2-4.5,1.925-6.855a1.363,1.363,0,0,1,2.6.805c-.712,2.3-1.346,4.561-1.885,6.711a1.363,1.363,0,0,1-1.321,1.032Zm-72.743-7.878a1.362,1.362,0,0,1-1.276-.883c-.8-2.13-1.706-4.283-2.69-6.4a1.363,1.363,0,0,1,2.471-1.15c1.014,2.177,1.945,4.394,2.771,6.589a1.363,1.363,0,0,1-1.275,1.842Zm76.878-5.588a1.363,1.363,0,0,1-1.283-1.822c.771-2.156,1.616-4.388,2.511-6.635a1.363,1.363,0,0,1,2.532,1.009c-.883,2.216-1.717,4.418-2.477,6.544a1.364,1.364,0,0,1-1.283.9Zm-82.807-7.181a1.363,1.363,0,0,1-1.193-.7c-1.1-1.987-2.3-4-3.57-5.971a1.362,1.362,0,1,1,2.294-1.471c1.3,2.024,2.53,4.084,3.66,6.121a1.363,1.363,0,0,1-1.191,2.023Zm88.246-5.8a1.364,1.364,0,0,1-1.2-2c1.047-1.984,2.23-4,3.618-6.171a1.362,1.362,0,0,1,2.3,1.469c-1.346,2.1-2.492,4.058-3.5,5.973a1.363,1.363,0,0,1-1.207.727Zm-95.836-6.06a1.361,1.361,0,0,1-1.1-.564c-1.317-1.818-2.7-3.636-4.224-5.558a1.362,1.362,0,1,1,2.134-1.694c1.55,1.953,2.956,3.8,4.3,5.654a1.363,1.363,0,0,1-1.1,2.162Zm103.34-5.847a1.363,1.363,0,0,1-1.114-2.145q.806-1.147,1.618-2.294c.8-1.13,1.626-2.3,2.434-3.461a1.362,1.362,0,1,1,2.238,1.555c-.814,1.172-1.644,2.345-2.447,3.479q-.809,1.144-1.613,2.286a1.361,1.361,0,0,1-1.117.58Zm-112.06-5.21a1.36,1.36,0,0,1-1.046-.489l-1.243-1.484c-1.141-1.361-2.219-2.646-3.274-3.937a1.363,1.363,0,0,1,2.109-1.725c1.045,1.278,2.117,2.557,3.253,3.911l1.245,1.487a1.363,1.363,0,0,1-1.045,2.237Zm120.012-6.416a1.363,1.363,0,0,1-1.154-2.085c1.3-2.083,2.431-4.049,3.448-6.011a1.362,1.362,0,1,1,2.419,1.254c-1.051,2.027-2.214,4.056-3.556,6.2a1.362,1.362,0,0,1-1.156.64Zm-128.827-4.561a1.361,1.361,0,0,1-1.109-.569,59.774,59.774,0,0,1-3.856-6.076,1.362,1.362,0,0,1,2.389-1.311,57.127,57.127,0,0,0,3.682,5.8,1.362,1.362,0,0,1-1.107,2.156Zm135.263-7.942a1.363,1.363,0,0,1-1.265-1.869c.845-2.115,1.6-4.311,2.235-6.528a1.363,1.363,0,0,1,2.619.753c-.662,2.3-1.444,4.587-2.323,6.786a1.364,1.364,0,0,1-1.266.857Zm-141.954-4.389a1.363,1.363,0,0,1-1.278-.89,52.325,52.325,0,0,1-2.021-6.927,1.363,1.363,0,0,1,2.661-.588,49.58,49.58,0,0,0,1.916,6.57,1.363,1.363,0,0,1-1.278,1.836Zm145.859-9.115a1.386,1.386,0,0,1-.255-.024,1.363,1.363,0,0,1-1.085-1.593c.417-2.2.757-4.505,1.009-6.854a1.363,1.363,0,1,1,2.71.291c-.26,2.421-.61,4.8-1.041,7.071a1.363,1.363,0,0,1-1.337,1.109Zm-148.959-4.575a1.363,1.363,0,0,1-1.353-1.213c-.248-2.237-.413-4.635-.491-7.129a1.362,1.362,0,1,1,2.724-.085c.076,2.422.236,4.748.476,6.913a1.364,1.364,0,0,1-1.356,1.513Zm150.489-9.407h-.054a1.362,1.362,0,0,1-1.308-1.415c.058-1.5.088-3.053.088-4.62q0-.351,0-.7-.005-.816-.025-1.629a1.363,1.363,0,1,1,2.724-.067q.021.838.026,1.681,0,.362,0,.719c0,1.6-.03,3.193-.09,4.727a1.362,1.362,0,0,1-1.36,1.309Zm-150.975-4.659h-.037a1.363,1.363,0,0,1-1.325-1.4c.06-2.247.178-4.635.351-7.1a1.362,1.362,0,1,1,2.718.191c-.17,2.423-.286,4.771-.345,6.98a1.363,1.363,0,0,1-1.361,1.326Zm150.574-9.41a1.362,1.362,0,0,1-1.353-1.218c-.246-2.295-.59-4.6-1.023-6.855a1.363,1.363,0,0,1,2.676-.514c.447,2.328.8,4.709,1.056,7.079a1.362,1.362,0,0,1-1.21,1.5,1.339,1.339,0,0,1-.147.008Zm-149.479-4.63a1.348,1.348,0,0,1-.206-.016,1.363,1.363,0,0,1-1.143-1.551c.359-2.37.83-4.735,1.4-7.029a1.363,1.363,0,0,1,2.645.658c-.551,2.212-1.005,4.492-1.351,6.779a1.363,1.363,0,0,1-1.345,1.159Zm146.821-9.192a1.363,1.363,0,0,1-1.311-.993c-.625-2.22-1.353-4.434-2.162-6.581a1.363,1.363,0,1,1,2.55-.961c.837,2.22,1.589,4.509,2.235,6.8a1.363,1.363,0,0,1-1.312,1.732Zm-143.418-4.454a1.363,1.363,0,0,1-1.284-1.819c.8-2.252,1.718-4.484,2.732-6.635a1.362,1.362,0,1,1,2.465,1.162c-.975,2.07-1.86,4.218-2.629,6.385a1.363,1.363,0,0,1-1.284.907Zm138.453-8.716a1.363,1.363,0,0,1-1.229-.773c-1-2.078-2.1-4.132-3.269-6.1a1.362,1.362,0,1,1,2.342-1.392c1.213,2.04,2.351,4.165,3.384,6.316a1.363,1.363,0,0,1-1.227,1.953Zm-132.458-4.006a1.363,1.363,0,0,1-1.167-2.064c1.224-2.041,2.568-4.047,3.994-5.963a1.362,1.362,0,1,1,2.186,1.627c-1.372,1.844-2.665,3.775-3.843,5.739a1.362,1.362,0,0,1-1.17.662Zm125.264-8.091a1.362,1.362,0,0,1-1.105-.564c-1.353-1.869-2.8-3.69-4.31-5.411a1.362,1.362,0,0,1,2.051-1.795c1.562,1.784,3.065,3.671,4.467,5.608a1.362,1.362,0,0,1-1.1,2.162Zm-116.87-3.2a1.363,1.363,0,0,1-1.008-2.278c1.594-1.755,3.3-3.462,5.071-5.074a1.362,1.362,0,1,1,1.834,2.015c-1.707,1.554-3.351,3.2-4.887,4.89a1.36,1.36,0,0,1-1.01.447Zm107.6-7.388a1.358,1.358,0,0,1-.936-.373c-1.676-1.584-3.441-3.1-5.246-4.5a1.362,1.362,0,1,1,1.67-2.153c1.875,1.454,3.708,3.025,5.448,4.67a1.363,1.363,0,0,1-.936,2.353Zm-97.192-2.088a1.363,1.363,0,0,1-.822-2.451c1.891-1.426,3.879-2.789,5.911-4.053a1.363,1.363,0,0,1,1.439,2.314c-1.962,1.221-3.883,2.538-5.709,3.915a1.355,1.355,0,0,1-.819.275Zm86.07-6.53a1.356,1.356,0,0,1-.722-.208,67.225,67.225,0,0,0-6.03-3.359,1.363,1.363,0,0,1,1.2-2.446,70.02,70.02,0,0,1,6.275,3.5,1.363,1.363,0,0,1-.724,2.517Zm-74.123-.912a1.363,1.363,0,0,1-.618-2.578c2.111-1.072,4.3-2.071,6.516-2.969a1.362,1.362,0,1,1,1.025,2.525c-2.142.869-4.263,1.836-6.306,2.874a1.358,1.358,0,0,1-.616.148Zm61.5-5.282a1.364,1.364,0,0,1-.469-.083,64.3,64.3,0,0,0-6.592-2.019,1.362,1.362,0,0,1,.656-2.645,67.076,67.076,0,0,1,6.873,2.1,1.363,1.363,0,0,1-.468,2.642Zm-48.454-.017a1.363,1.363,0,0,1-.406-2.663c2.265-.708,4.59-1.332,6.912-1.855a1.363,1.363,0,0,1,.6,2.659c-2.25.507-4.5,1.112-6.7,1.8a1.358,1.358,0,0,1-.407.062Zm13.734-3.1a1.363,1.363,0,0,1-.189-2.712c2.353-.333,4.748-.575,7.119-.717a1.363,1.363,0,0,1,.163,2.72c-2.3.138-4.62.372-6.9.7a1.383,1.383,0,0,1-.193.014Zm21.075-.272a1.412,1.412,0,0,1-.185-.012,64.071,64.071,0,0,0-6.871-.556,1.363,1.363,0,1,1,.073-2.724,66.906,66.906,0,0,1,7.164.579,1.363,1.363,0,0,1-.181,2.713Z" transform="translate(-1593.618 -75.276)" fill="#fcce5b"/>
      </g>
      <g id="Grupo_141010" data-name="Grupo 141010" transform="translate(699.579 282.262)" opacity="0.47">
        <path id="Trazado_183974" data-name="Trazado 183974" d="M1269.948,925.678c-.134-1.811,3.307-3.343,2.634-4.979s-4.089-1.005-5.076-2.354.359-4.3-1.162-5.51-3.755,1.366-5.423,1.463-2.807-3.852-4.411-3.477-1.458,3.7-3.235,4.609-4.406-1.285-5.594.169,1.017,3.665.465,5.614-4.115,1.927-4.155,3.722,3.553,2.112,3.942,4-2.142,3.65-.769,5.52,3.873-.324,5.573.536.965,4.307,2.978,4.719,2.569-2.887,4.595-3.168,3.1,2.647,5.335,1.7.48-3.766,1.462-5.378,4.567-.369,5.2-2.132S1270.083,927.488,1269.948,925.678Zm-12.895,7.489a7.631,7.631,0,1,1,9.006-5.945A7.631,7.631,0,0,1,1257.054,933.167Z" transform="translate(-1223.776 -910.796)" fill="#fff"/>
        <path id="Trazado_183975" data-name="Trazado 183975" d="M1186.41,994.227c-.124-1.675,3.059-3.092,2.437-4.606s-3.782-.931-4.7-2.178.332-3.982-1.075-5.1-3.474,1.264-5.018,1.353-2.6-3.563-4.081-3.217-1.348,3.426-2.992,4.264-4.078-1.189-5.175.157.941,3.391.429,5.192-3.808,1.784-3.844,3.444,3.287,1.955,3.647,3.7-1.982,3.377-.712,5.106,3.583-.3,5.157.5.894,3.985,2.755,4.367,2.377-2.671,4.251-2.932,2.87,2.449,4.936,1.571.444-3.484,1.352-4.975,4.225-.341,4.811-1.972S1186.533,995.9,1186.41,994.227Zm-11.93,6.93a7.06,7.06,0,1,1,8.333-5.5A7.06,7.06,0,0,1,1174.479,1001.156Z" transform="translate(-1162.394 -963.201)" fill="#fff"/>
      </g>
      <g id="Grupo_141015" data-name="Grupo 141015" transform="translate(621.509 258.862)">
        <path id="Trazado_183976" data-name="Trazado 183976" d="M1012.38,852.6s-8.56-4.415-10.4,4.744,1.124,23.475.359,26.159-1.745,3.726,5.59,1.705.175-19.723,1.336-22.886a10.464,10.464,0,0,1,3.065-4.583Z" transform="translate(-963.192 -842.818)" fill="#003853"/>
        <path id="Trazado_183977" data-name="Trazado 183977" d="M1220.2,1220.618l13.124.628s14.384-7.4,18.067,5.954c-.9.683-1.814.32-2.45-1.029-.7.415-2.76-.877-4.457-2.527-1.578-1.535-3.692-.9-5.081.817-.609.753.635.712,3.585,1.133,3.211.458,3.045.875,3.387,1.934-1.081.555-5.925-.283-8.515.384a6.675,6.675,0,0,1-4.909-.916l-12.18-.235Z" transform="translate(-1127.806 -1119.398)" fill="#f0c0a7"/>
        <path id="Trazado_183978" data-name="Trazado 183978" d="M1046.338,1020.835s11.411,38.444,15.091,45.868c9.57.623,18.86,4.215,26.313,4.793-.248,6.193-.5,6.771-.5,6.771s-20.319-.6-30.988-1.528-24.449-41.558-24.449-41.558Z" transform="translate(-986.089 -970.175)" fill="#d2e8f2"/>
        <path id="Trazado_183979" data-name="Trazado 183979" d="M954.074,950.9c2.269-.384,6.33-.7,6.33-.7s12.616,30.87,15.444,42.438a17.8,17.8,0,0,1-7.228,10.826c-10.156,19.793-11.761,27.32-11.761,27.32l-32.435-4.3s9.414-15.208,9.425-27.145c.4-5.144.206-9.788.163-16.207-1.174-5.229-7.395-11.876-1.444-18.526C934.6,962.328,945.386,953.571,954.074,950.9Z" transform="translate(-905.306 -917.034)" fill="#fff"/>
        <path id="Trazado_183980" data-name="Trazado 183980" d="M938.491,969.1c4.971-3.95,10.215-10.249,18.046-13.211,1.807-.375,3.547,2.07,3.547,2.07s14.342,27.968,13.613,39.675c-.74,4.612-2.588,7.354-7.354,10.487-7.547,15.39-9.028,27.605-9.028,27.605l-30.576-5.192s8.84-15.013,8.851-26.95c.4-5.144.206-9.788.163-16.207C934.579,982.151,936.144,970.968,938.491,969.1Z" transform="translate(-907.048 -921.291)" fill="#fff"/>
        <path id="Trazado_183981" data-name="Trazado 183981" d="M1044.277,951.194c4.647,2.884,16.2,26.785,11.428,26.48-2.86-.239-11.917-17.23-13.37-22.5C1041.579,952.433,1043.323,950.845,1044.277,951.194Z" transform="translate(-993.868 -917.75)" fill="#f0c0a7"/>
        <path id="Trazado_183982" data-name="Trazado 183982" d="M1070.08,891.5c-3.662-1.291-10.78,6.543-15.071,11.41-1.992,2.283-2.961,3.3-3.639,3.452-2.4-2.007-8.832-11.672-6.928-14.455,5.917-5.587,4.373-7.48,4.373-7.48S1073.485,851.228,1070.08,891.5Z" transform="translate(-995.33 -857.882)" fill="#e1b39d"/>
        <path id="Trazado_183983" data-name="Trazado 183983" d="M1208.677,1360.8h-9.428c-.018-.969-2.381-21.758-1.563-21.688a25.4,25.4,0,0,1,9.352,3.178,7.369,7.369,0,0,1,2.378,4.823C1209.475,1350.871,1208.677,1360.8,1208.677,1360.8Z" transform="translate(-1110.743 -1209.602)" fill="#e1b39d"/>
        <path id="Trazado_183984" data-name="Trazado 183984" d="M1134.452,1361.682c.029-.642,5.637-15.918,5.95-16.78.717-1.967,5.18-5.106,9.471-4.553,2.8.361,4.856,2.784,5.647,5.253.77,2.4.254,15.467.166,16.079Z" transform="translate(-1063.303 -1210.486)" fill="#f0c0a7"/>
        <path id="Trazado_183985" data-name="Trazado 183985" d="M941.7,1086.583c-11.032,20.974-10.759,34.049-10.759,34.049l-4.189,7.517,17.4,3.437,14.991.063s3.046-7.276,3.609-9.142c.647-2.145,2.464-6.142,2.464-6.142S941.159,1103.335,941.7,1086.583Z" transform="translate(-907.06 -1019.635)" fill="#d2e8f2"/>
        <g id="Grupo_141011" data-name="Grupo 141011" transform="translate(47.45 0)">
          <path id="Trazado_183986" data-name="Trazado 183986" d="M1084.2,853.345s-2.973-3.981-5.416.045,4.574,6.528,4.574,6.528,3.487,7.156,7.616,8.308a56.1,56.1,0,0,0,5.817,1.007,1.668,1.668,0,0,0,1.453-.863c.086-.424,1.82-9.977,1.82-9.977s2.493-.268,1.47-1.649c-4.644-6.276.115-12.715-6.92-15.636Z" transform="translate(-1068.491 -834.972)" fill="#f0c0a7"/>
          <path id="Trazado_183987" data-name="Trazado 183987" d="M1128.066,829.935s12.671,7.263-2.259,14.927C1109.483,853.242,1128.066,829.935,1128.066,829.935Z" transform="translate(-1099.201 -826.567)" fill="#003853"/>
          <path id="Trazado_183988" data-name="Trazado 183988" d="M1061.95,836.077s-3.567,1.388-5.643-.338c-1.341-1.115-2.869-1.5-4.434.1s-1.4,5.782-2.825,8.315c-1.245,2.211-4.88,1.884-4.88,1.884a10.393,10.393,0,0,1-1.839-2.316c-1.132-2.034-5.305-17.385-2.691-19.49s14.386-7.89,21.922-7.893,7.721,5.68,3.418,11.888S1061.95,836.077,1061.95,836.077Z" transform="translate(-1038.792 -816.34)" fill="#003853"/>
        </g>
        <path id="Trazado_183989" data-name="Trazado 183989" d="M896.969,1254.368c-4.8,5.694-11.474,19.45-9.431,28.906.23,1.454,4.129,13.775,11.406,13.775h55.3a77.683,77.683,0,0,1,1.433-13.354c.805-3.778,4.707-7.184,9.6-7.509.977-.053,1.7-.007,2.838-.007-8.954-2.889-31.239-6.086-38.19-7.46a50.3,50.3,0,0,0-.534-10.907S918.08,1257.523,896.969,1254.368Z" transform="translate(-877.273 -1145.854)" fill="#144665"/>
        <g id="Grupo_141013" data-name="Grupo 141013" transform="translate(0 89.502)">
          <rect id="Rectángulo_36010" data-name="Rectángulo 36010" width="2.776" height="61.779" transform="translate(4.361)" fill="#003853"/>
          <g id="Grupo_141012" data-name="Grupo 141012" transform="translate(0 0.761)">
            <path id="Trazado_183990" data-name="Trazado 183990" d="M847.254,1197.213a3.479,3.479,0,0,0,3.478,3.478h4.506c1.921,0,10.706-1.663,10.706-9.969s-8.863-10.025-10.706-10.025h-4.506a3.477,3.477,0,0,0-3.478,3.477Z" transform="translate(-847.254 -1180.697)" fill="#144665"/>
          </g>
        </g>
        <path id="Trazado_183991" data-name="Trazado 183991" d="M1079.06,1148.279l7.362-1.092s3.417-4.446,6.984-8.314c3.358-3.643,11.732-2.476,12.812-2.615.814,2.259-3.823,2.62-6.01,2.6a4.756,4.756,0,0,1,.047,4.516c-.9,1.265-4.01,1.684-4.075-.068-.68.014-1.276.8-1.427,1.641-.17.94.325,1.261,2.522.666,4.263-1.154,4.929-.28,5.536.636-.878.814-8.091,3.605-10.114,5.3a3.1,3.1,0,0,1-3.771.46l-10.176,1.784Z" transform="translate(-1021.401 -1056.949)" fill="#f0c0a7"/>
        <g id="Grupo_141014" data-name="Grupo 141014" transform="translate(15.043 46.834)">
          <path id="Trazado_183992" data-name="Trazado 183992" d="M956.441,1048.869l-32.406,2.519s4.61-19.96,8.98-30.112-11.537-23.325-15.271-10.724-9.459,35.941-9.762,44.784,11,10.547,28.556,5.828,20.384-4.589,20.384-4.589Z" transform="translate(-907.976 -1005.39)" fill="#fff"/>
        </g>
      </g>
      <g id="Grupo_141016" data-name="Grupo 141016" transform="translate(990.117 144.979)" opacity="0.54">
        <path id="Trazado_183993" data-name="Trazado 183993" d="M2339.975,356.639h-4.723l7.861,9.276-7.939,9.228h4.727l7.938-9.232Z" transform="translate(-2335.174 -356.638)" fill="#fff"/>
        <path id="Trazado_183994" data-name="Trazado 183994" d="M2382.009,356.643l-.073,0h-4.653l7.865,9.27-7.943,9.23h4.732l7.94-9.23Z" transform="translate(-2366.792 -356.642)" fill="#fff"/>
      </g>
      <g id="Grupo_141020" data-name="Grupo 141020" transform="translate(591.398 141.454)">
        <g id="Grupo_141017" data-name="Grupo 141017" transform="translate(0 18.764)">
          <rect id="Rectángulo_36011" data-name="Rectángulo 36011" width="3.246" height="3.244" transform="matrix(0.005, -1, 1, 0.005, 0, 3.246)" fill="#fff" opacity="0.05"/>
          <rect id="Rectángulo_36012" data-name="Rectángulo 36012" width="3.243" height="3.244" transform="matrix(0.006, -1, 1, 0.006, 8.113, 3.288)" fill="#fff" opacity="0.1"/>
          <rect id="Rectángulo_36013" data-name="Rectángulo 36013" width="3.245" height="3.245" transform="translate(16.224 3.335) rotate(-89.692)" fill="#fff" opacity="0.15"/>
          <path id="Trazado_183995" data-name="Trazado 183995" d="M827.19,421.956l-3.244-.016.019-3.245,3.243.019Z" transform="translate(-799.61 -418.561)" fill="#fff" opacity="0.2"/>
          <rect id="Rectángulo_36014" data-name="Rectángulo 36014" width="3.245" height="3.245" transform="matrix(0.005, -1, 1, 0.005, 32.449, 3.423)" fill="#fff" opacity="0.25"/>
          <rect id="Rectángulo_36015" data-name="Rectángulo 36015" width="3.244" height="3.246" transform="matrix(0.005, -1, 1, 0.005, 40.561, 3.466)" fill="#fff" opacity="0.3"/>
          <rect id="Rectángulo_36016" data-name="Rectángulo 36016" width="3.244" height="3.242" transform="translate(48.675 3.51) rotate(-89.684)" fill="#fff" opacity="0.35"/>
          <rect id="Rectángulo_36017" data-name="Rectángulo 36017" width="3.245" height="3.243" transform="translate(56.785 3.554) rotate(-89.666)" fill="#fff" opacity="0.4"/>
          <rect id="Rectángulo_36018" data-name="Rectángulo 36018" width="3.246" height="3.244" transform="translate(64.899 3.599) rotate(-89.692)" fill="#fff" opacity="0.45"/>
          <path id="Trazado_183996" data-name="Trazado 183996" d="M1023.668,423.028l-3.249-.019.02-3.242,3.244.016Z" transform="translate(-947.411 -419.367)" fill="#fff" opacity="0.5"/>
          <path id="Trazado_183997" data-name="Trazado 183997" d="M1056.411,423.2l-3.247-.018.02-3.244,3.245.017Z" transform="translate(-972.043 -419.498)" fill="#fff" opacity="0.55"/>
          <path id="Trazado_183998" data-name="Trazado 183998" d="M1089.163,423.382l-3.247-.018.02-3.242,3.244.017Z" transform="translate(-996.681 -419.634)" fill="#fff" opacity="0.6"/>
          <path id="Trazado_183999" data-name="Trazado 183999" d="M1121.911,423.562l-3.245-.018.019-3.244,3.243.018Z" transform="translate(-1021.318 -419.768)" fill="#fff" opacity="0.65"/>
          <path id="Trazado_184000" data-name="Trazado 184000" d="M1154.656,423.738l-3.246-.017.02-3.245,3.244.018Z" transform="translate(-1045.949 -419.901)" fill="#fff" opacity="0.7"/>
          <path id="Trazado_184001" data-name="Trazado 184001" d="M1187.4,423.913l-3.247-.016.019-3.246,3.246.019Z" transform="translate(-1070.583 -420.032)" fill="#fff" opacity="0.75"/>
          <rect id="Rectángulo_36019" data-name="Rectángulo 36019" width="3.244" height="3.245" transform="matrix(0.006, -1, 1, 0.006, 121.683, 3.907)" fill="#fff" opacity="0.8"/>
          <path id="Trazado_184002" data-name="Trazado 184002" d="M1252.894,424.27l-3.248-.017.018-3.244,3.245.019Z" transform="translate(-1119.85 -420.302)" fill="#fff" opacity="0.85"/>
          <path id="Trazado_184003" data-name="Trazado 184003" d="M1285.644,424.455l-3.244-.02.016-3.242,3.247.018Z" transform="translate(-1144.49 -420.44)" fill="#fff" opacity="0.9"/>
          <path id="Trazado_184004" data-name="Trazado 184004" d="M1318.388,424.627l-3.243-.015.017-3.247,3.243.02Z" transform="translate(-1169.123 -420.569)" fill="#fff" opacity="0.95"/>
          <rect id="Rectángulo_36020" data-name="Rectángulo 36020" width="3.245" height="3.244" transform="translate(154.135 4.084) rotate(-89.68)" fill="#fff"/>
          <path id="Trazado_184005" data-name="Trazado 184005" d="M1383.883,424.99l-3.246-.018.019-3.244,3.245.016Z" transform="translate(-1218.39 -420.842)" fill="#fff"/>
          <rect id="Rectángulo_36021" data-name="Rectángulo 36021" width="3.247" height="3.245" transform="translate(170.36 4.175) rotate(-89.714)" fill="#fff"/>
        </g>
        <g id="Grupo_141018" data-name="Grupo 141018" transform="translate(0.001 0)">
          <path id="Trazado_184006" data-name="Trazado 184006" d="M728.961,345.672l-3.246-.02.017-3.243,3.243.018Z" transform="translate(-725.715 -342.409)" fill="#fff" opacity="0.05"/>
          <path id="Trazado_184007" data-name="Trazado 184007" d="M761.7,345.851l-3.245-.016.017-3.245,3.245.019Z" transform="translate(-750.345 -342.544)" fill="#fff" opacity="0.1"/>
          <rect id="Rectángulo_36022" data-name="Rectángulo 36022" width="3.244" height="3.245" transform="translate(16.223 3.335) rotate(-89.68)" fill="#fff" opacity="0.15"/>
          <path id="Trazado_184008" data-name="Trazado 184008" d="M827.188,346.213l-3.247-.017.021-3.244,3.243.017Z" transform="translate(-799.607 -342.818)" fill="#fff" opacity="0.2"/>
          <path id="Trazado_184009" data-name="Trazado 184009" d="M859.939,346.382l-3.245-.016.016-3.246,3.245.019Z" transform="translate(-824.246 -342.944)" fill="#fff" opacity="0.25"/>
          <rect id="Rectángulo_36023" data-name="Rectángulo 36023" width="3.246" height="3.244" transform="translate(40.56 3.466) rotate(-89.662)" fill="#fff" opacity="0.3"/>
          <path id="Trazado_184010" data-name="Trazado 184010" d="M925.431,346.748l-3.242-.016.016-3.245,3.244.018Z" transform="translate(-873.516 -343.22)" fill="#fff" opacity="0.35"/>
          <path id="Trazado_184011" data-name="Trazado 184011" d="M958.176,346.921l-3.245-.015.019-3.247,3.244.019Z" transform="translate(-898.146 -343.35)" fill="#fff" opacity="0.4"/>
          <path id="Trazado_184012" data-name="Trazado 184012" d="M990.923,347.1l-3.245-.013.018-3.247,3.243.018Z" transform="translate(-922.782 -343.485)" fill="#fff" opacity="0.45"/>
          <path id="Trazado_184013" data-name="Trazado 184013" d="M1023.67,347.283l-3.246-.016.018-3.243,3.244.015Z" transform="translate(-947.415 -343.624)" fill="#fff" opacity="0.5"/>
          <path id="Trazado_184014" data-name="Trazado 184014" d="M1056.414,347.463l-3.248-.019.019-3.243,3.247.015Z" transform="translate(-972.045 -343.757)" fill="#fff" opacity="0.55"/>
          <path id="Trazado_184015" data-name="Trazado 184015" d="M1089.165,347.633l-3.247-.018.021-3.245,3.244.018Z" transform="translate(-996.684 -343.884)" fill="#fff" opacity="0.6"/>
          <rect id="Rectángulo_36024" data-name="Rectángulo 36024" width="3.243" height="3.245" transform="matrix(0.006, -1, 1, 0.006, 97.347, 3.774)" fill="#fff" opacity="0.65"/>
          <rect id="Rectángulo_36025" data-name="Rectángulo 36025" width="3.243" height="3.245" transform="translate(105.461 3.818) rotate(-89.706)" fill="#fff" opacity="0.7"/>
          <path id="Trazado_184016" data-name="Trazado 184016" d="M1187.4,348.175l-3.246-.02.017-3.243,3.246.015Z" transform="translate(-1070.587 -344.292)" fill="#fff" opacity="0.75"/>
          <path id="Trazado_184017" data-name="Trazado 184017" d="M1220.146,348.347l-3.246-.019.019-3.244,3.244.018Z" transform="translate(-1095.217 -344.421)" fill="#fff" opacity="0.8"/>
          <path id="Trazado_184018" data-name="Trazado 184018" d="M1252.9,348.529l-3.247-.019.017-3.243,3.245.016Z" transform="translate(-1119.853 -344.559)" fill="#fff" opacity="0.85"/>
          <rect id="Rectángulo_36026" data-name="Rectángulo 36026" width="3.244" height="3.244" transform="translate(137.91 3.996) rotate(-89.675)" fill="#fff" opacity="0.9"/>
          <rect id="Rectángulo_36027" data-name="Rectángulo 36027" width="3.244" height="3.244" transform="translate(146.022 4.04) rotate(-89.684)" fill="#fff" opacity="0.95"/>
          <path id="Trazado_184019" data-name="Trazado 184019" d="M1351.137,349.065l-3.246-.017.018-3.244,3.245.019Z" transform="translate(-1193.757 -344.963)" fill="#fff"/>
          <path id="Trazado_184020" data-name="Trazado 184020" d="M1383.885,349.24l-3.246-.019.019-3.246,3.244.019Z" transform="translate(-1218.392 -345.092)" fill="#fff"/>
          <path id="Trazado_184021" data-name="Trazado 184021" d="M1416.625,349.421l-3.245-.018.018-3.244,3.248.017Z" transform="translate(-1243.022 -345.23)" fill="#fff"/>
        </g>
        <g id="Grupo_141019" data-name="Grupo 141019" transform="translate(8.143 9.558)">
          <rect id="Rectángulo_36028" data-name="Rectángulo 36028" width="3.246" height="3.245" transform="translate(0 3.246) rotate(-89.662)" fill="#fff" opacity="0.05"/>
          <path id="Trazado_184022" data-name="Trazado 184022" d="M794.576,384.439l-3.244-.018.016-3.243,3.247.018Z" transform="translate(-783.218 -381.132)" fill="#fff" opacity="0.1"/>
          <rect id="Rectángulo_36029" data-name="Rectángulo 36029" width="3.243" height="3.246" transform="matrix(0.005, -1, 1, 0.005, 16.224, 3.335)" fill="#fff" opacity="0.15"/>
          <path id="Trazado_184023" data-name="Trazado 184023" d="M860.067,384.793l-3.244-.017.017-3.246,3.246.02Z" transform="translate(-832.484 -381.397)" fill="#fff" opacity="0.2"/>
          <rect id="Rectángulo_36030" data-name="Rectángulo 36030" width="3.245" height="3.245" transform="translate(32.45 3.424) rotate(-89.71)" fill="#fff" opacity="0.25"/>
          <path id="Trazado_184024" data-name="Trazado 184024" d="M925.559,385.149l-3.243-.02.017-3.245,3.245.019Z" transform="translate(-881.753 -381.663)" fill="#fff" opacity="0.3"/>
          <rect id="Rectángulo_36031" data-name="Rectángulo 36031" width="3.245" height="3.245" transform="translate(48.675 3.512) rotate(-89.693)" fill="#fff" opacity="0.35"/>
          <path id="Trazado_184025" data-name="Trazado 184025" d="M991.048,385.509l-3.247-.015.02-3.246,3.245.019Z" transform="translate(-931.015 -381.937)" fill="#fff" opacity="0.4"/>
          <path id="Trazado_184026" data-name="Trazado 184026" d="M1023.8,385.686l-3.245-.014.017-3.246,3.246.017Z" transform="translate(-955.652 -382.071)" fill="#fff" opacity="0.45"/>
          <path id="Trazado_184027" data-name="Trazado 184027" d="M1056.544,385.868l-3.245-.021.019-3.243,3.245.018Z" transform="translate(-980.287 -382.205)" fill="#fff" opacity="0.5"/>
          <path id="Trazado_184028" data-name="Trazado 184028" d="M1089.289,386.05l-3.242-.017.018-3.242,3.243.015Z" transform="translate(-1004.922 -382.345)" fill="#fff" opacity="0.55"/>
          <rect id="Rectángulo_36032" data-name="Rectángulo 36032" width="3.245" height="3.247" transform="matrix(0.005, -1, 1, 0.005, 89.236, 3.733)" fill="#fff" opacity="0.6"/>
          <path id="Trazado_184029" data-name="Trazado 184029" d="M1154.788,386.4l-3.246-.018.018-3.245,3.244.018Z" transform="translate(-1054.192 -382.609)" fill="#fff" opacity="0.65"/>
          <rect id="Rectángulo_36033" data-name="Rectángulo 36033" width="3.244" height="3.247" transform="translate(105.462 3.82) rotate(-89.684)" fill="#fff" opacity="0.7"/>
          <path id="Trazado_184030" data-name="Trazado 184030" d="M1220.282,386.754l-3.245-.016.017-3.246,3.244.018Z" transform="translate(-1103.461 -382.872)" fill="#fff" opacity="0.75"/>
          <path id="Trazado_184031" data-name="Trazado 184031" d="M1253.02,386.933l-3.243-.017.019-3.246,3.245.019Z" transform="translate(-1128.091 -383.005)" fill="#fff" opacity="0.8"/>
          <rect id="Rectángulo_36034" data-name="Rectángulo 36034" width="3.246" height="3.245" transform="translate(129.8 3.955) rotate(-89.696)" fill="#fff" opacity="0.85"/>
          <path id="Trazado_184032" data-name="Trazado 184032" d="M1318.518,387.291l-3.244-.02.016-3.245,3.247.018Z" transform="translate(-1177.362 -383.274)" fill="#fff" opacity="0.9"/>
          <rect id="Rectángulo_36035" data-name="Rectángulo 36035" width="3.245" height="3.245" transform="translate(146.023 4.043) rotate(-89.675)" fill="#fff" opacity="0.95"/>
          <path id="Trazado_184033" data-name="Trazado 184033" d="M1384.008,387.65l-3.243-.016.017-3.245,3.246.018Z" transform="translate(-1226.628 -383.546)" fill="#fff"/>
          <path id="Trazado_184034" data-name="Trazado 184034" d="M1416.764,387.825l-3.242-.016.015-3.246,3.245.018Z" transform="translate(-1251.271 -383.678)" fill="#fff"/>
          <path id="Trazado_184035" data-name="Trazado 184035" d="M1449.505,388.006l-3.242-.017.017-3.246,3.245.018Z" transform="translate(-1275.901 -383.813)" fill="#fff"/>
        </g>
      </g>
      <path id="Trazado_184036" data-name="Trazado 184036" d="M1847.155,729.137h-17.273v6.783h20.081l23.574-23.628,4.184,4.185V703.242h-13.235l4.256,4.255Z" transform="translate(-964.944 -472.398)" fill="#fcce5b"/>
      <g id="Grupo_141026" data-name="Grupo 141026" transform="translate(734.604 219.502)">
        <path id="Trazado_184037" data-name="Trazado 184037" d="M1408.944,883.1a9.724,9.724,0,0,1,2.065-3.221c1.225-1.059,13.047-8.382,13.047-8.382s9.312,10.916,11.339,38.43c.29,6.641-2.979,20.3-8.511,35.519-4.213-.613-18.415,6.359-16.1-4.294,1.483-6.829-.083-18.58-1.709-28.008C1406.6,898.8,1408.944,883.1,1408.944,883.1Z" transform="translate(-1382.133 -818.474)" fill="#fff"/>
        <g id="Grupo_141021" data-name="Grupo 141021" transform="translate(48.125 15.754)">
          <path id="Trazado_184038" data-name="Trazado 184038" d="M1801.875,735.387l3.281-1.893s2.049-4.259,4.32-8.067c2.139-3.587,9.248-4.075,10.114-4.377,1.063,1.722-2.7,2.823-4.507,3.185a4,4,0,0,1,.822,3.717c-.522,1.2-3.015,2.083-3.372.649-.559.13-.914.884-.893,1.6.023.8.487.984,2.2.112,3.316-1.69,4.016-1.085,4.676-.435-.582.824-6.049,4.376-7.424,6.122a2.609,2.609,0,0,1-3.031,1.033l-4.8,3.137Z" transform="translate(-1726.603 -721.051)" fill="#f0c0a7"/>
          <path id="Trazado_184039" data-name="Trazado 184039" d="M1691.687,774.226c-18.858,11.671-30.055,16.227-35.244,18.287s-5.614,15.054,5.227,12.154,32.248-24.2,32.248-24.2A11.755,11.755,0,0,0,1691.687,774.226Z" transform="translate(-1614.54 -761.053)" fill="#144665"/>
          <path id="Trazado_184040" data-name="Trazado 184040" d="M1498.707,844.052c6.391-2.545,23.891,3.621,43.539-.53,8.35-1.765,11.731,11.843-.491,14.03-12.337,2.208-26.585,4.491-33.3,8.916C1504.356,861.89,1495.538,845.315,1498.707,844.052Z" transform="translate(-1498.033 -813.063)" fill="#144665"/>
        </g>
        <g id="Grupo_141022" data-name="Grupo 141022" transform="translate(20.473 124.497)">
          <path id="Trazado_184041" data-name="Trazado 184041" d="M1386.414,1251.22c3.707-17.34-.567-37.04,1.3-44.509s8.753-13.378,8.753-13.378,11.66,51.77,10.425,57.887Z" transform="translate(-1386.414 -1185.075)" fill="#003853"/>
          <path id="Trazado_184042" data-name="Trazado 184042" d="M1432.7,1226.145c.372-28.985-4.612-59.83-4.612-59.83L1397.524,1160s-11.359,22.869-5.45,30.1c9.414,11.52,8.712,22.337,9.7,36.045Z" transform="translate(-1389.39 -1160)" fill="#144665"/>
        </g>
        <path id="Trazado_184043" data-name="Trazado 184043" d="M1431.747,911.734l31.214-.434s-.435-32.564,3.12-37.641,3.948-6.394,3.71-10.961c-1.875-3.9-14.035-19.8-19.752-29.7s-14.708-6.618-14.708-6.618Z" transform="translate(-1400.043 -784.141)" fill="#fff"/>
        <path id="Trazado_184044" data-name="Trazado 184044" d="M1416.047,1183.487c.06-6.639-14.384-.438-13.442-9.675,1.476-14.481,4.648-19.145,4.648-19.145s17.155,4.17,33.629,3.922c-.112,12.7-5.45,36.293-5.45,36.293S1429.127,1183.91,1416.047,1183.487Z" transform="translate(-1378.087 -1031.491)" fill="#144665"/>
        <path id="Trazado_184045" data-name="Trazado 184045" d="M1471.129,737.536c-6.128,2.005-9.939,15.2-9.964,17.687-2.056,4.41-14.95-10.889-14.95-10.889s3.461-3.371,3.857-7.466-1.76-20.074-1.76-20.074S1476.731,735.7,1471.129,737.536Z" transform="translate(-1410.927 -702.093)" fill="#e1b39d"/>
        <g id="Grupo_141023" data-name="Grupo 141023" transform="translate(39.698 1.89)">
          <path id="Trazado_184046" data-name="Trazado 184046" d="M1470.239,692.757s-4.218-3.708-5.978,1.316,6.586,6.147,6.586,6.147,5.532,7.1,10.366,7.406a69.536,69.536,0,0,0,7.047-.284,1.024,1.024,0,0,0,.982-.946c0-.488-.125-10.877-.125-10.877s2.339-.739,1.063-2.2c-6.152-7.06-3.83-14.973-12.524-16.616Z" transform="translate(-1464.017 -673.823)" fill="#f0c0a7"/>
          <path id="Trazado_184047" data-name="Trazado 184047" d="M1482.946,683.9c-4.819,0-3.99-4.784-2.574-9.814,1.139-4.049,6.13-8.055,8.7-8.887s20.281,2.717,4.754,15.625C1490.757,683.375,1485.078,683.9,1482.946,683.9Z" transform="translate(-1475.494 -665.086)" fill="#003853"/>
        </g>
        <path id="Trazado_184048" data-name="Trazado 184048" d="M1367.627,848.782s.885-2.963,2.239-3.977,18.555-16.53,18.555-16.53,15.213,24.093,15.311,52.915c-.174,6.555-1.334,12.465-6.736,24.693-3.119,7.06-13.907,6.452-20.73,1.165.929-4.521.549-14.305-.2-24.431C1374.936,867.449,1367.627,848.782,1367.627,848.782Z" transform="translate(-1351.808 -785.958)" fill="#144665"/>
        <path id="Trazado_184049" data-name="Trazado 184049" d="M1421.707,1101.533c3.1-5.512,5.4-13.82,5.4-13.82s-26.85,5.592-26.15,7.751C1402.775,1101.063,1415.657,1103.59,1421.707,1101.533Z" transform="translate(-1376.872 -981.124)" fill="#003853"/>
        <g id="Grupo_141025" data-name="Grupo 141025" transform="translate(0 62.489)">
          <path id="Trazado_184050" data-name="Trazado 184050" d="M1564.62,1075.922a2.641,2.641,0,0,1-3.632.872l-20.767-12.722a2.641,2.641,0,0,1-.872-3.632l17.934-29.274a2.64,2.64,0,0,1,3.631-.872l20.768,12.721a2.642,2.642,0,0,1,.873,3.632Z" transform="translate(-1480.695 -1000.125)" fill="#305d81"/>
          <g id="Grupo_141024" data-name="Grupo 141024">
            <path id="Trazado_184051" data-name="Trazado 184051" d="M1548,1074.04c-.421.028-.805.038-.805.038s4.861,3.331,14.051,5.706c1.616.419.159,2.248.159,2.248s1.835,1.256.264,1.595-6.356-.389-6.356-.389,3.207,1.24,3.732,1.394-.142,2.552-4.456,1.281c-1.641-.484-13.066-1.739-14.39-6.43-.5-.081-3.884-.19-3.884-.19l.4-6.294s6.385-1.325,13.109-1.95Z" transform="translate(-1478.706 -1031.076)" fill="#f0c0a7"/>
            <path id="Trazado_184052" data-name="Trazado 184052" d="M1363.735,950.837l-45.011,3.566s9.736-17.6,13.748-26.917-12.887-17.788-12.887-17.788-15.532,42.4-15.81,50.514,15.313,9.247,31.433,4.916,27.854-6.4,27.854-6.4Z" transform="translate(-1303.772 -909.698)" fill="#144665"/>
          </g>
        </g>
        <path id="Trazado_184053" data-name="Trazado 184053" d="M1389.01,700.119a4.726,4.726,0,0,0,4.624-3.138c1.959-7.013,3.794-27.548,9.024-33.568,8.11-9.338,21.92-6.254,22.987-.567.029,1.03,2.733,6.262-.058,9.075.019.048.037.095.052.139-.08.011-.158.025-.237.037-1.333,1.188-2.94,1.08-4.123,1.622-1.206.984-2.972,2.521-3.49,4.558-.339,1.332-1.734,14.041-6.069,20.934-3.283,5.221-6.032,6.337-9.042,7.68C1393.51,710.978,1388.06,708.418,1389.01,700.119Z" transform="translate(-1367.813 -657.457)" fill="#003853"/>
      </g>
      <g id="Grupo_141027" data-name="Grupo 141027" transform="translate(839.782 97.875)">
        <path id="Trazado_184054" data-name="Trazado 184054" d="M1897.607,171.723a5.869,5.869,0,0,1-1.436,4.034,4.55,4.55,0,0,1-4.728,1.475,3.346,3.346,0,0,0-3.2,2.008l-.127.267a3.561,3.561,0,0,0,1.672,3.469c1.106.768,2.346,1.728,2.38,3.5a4.533,4.533,0,0,1-1.187,3.149c-.858.977-2.235,3.31-1.255,4.677s2.775,1.336,4.006,1.058a3.788,3.788,0,0,1,3.441.726,4.415,4.415,0,0,1,1.487,3.241c.066,1.293.015,2.9,1.916,3.569,1.544.543,3.312-.8,4.072-1.875a4.466,4.466,0,0,1,2.781-2.008,3.122,3.122,0,0,1,3.273,1.353,3.806,3.806,0,0,0,4.5,1.126c1.236-.612,2.074-1.96,1.493-4.162a3.29,3.29,0,0,1,1.037-3.256,4.778,4.778,0,0,1,4.323-1.358c1.212.152,3.412-.613,3.785-2.21s-1.1-3.25-1.988-3.838a3.8,3.8,0,0,1-1.894-3.223,4.667,4.667,0,0,1,1.637-3.5,3.407,3.407,0,0,0,1.023-4.023,3.055,3.055,0,0,0-3.389-1.556c-1.288.269-2.812.5-4.071-.631a4.534,4.534,0,0,1-1.418-3.62,3.582,3.582,0,0,0-1.813-3.394c-1.658-.774-3.327.723-3.906,1.592a4.722,4.722,0,0,1-3.054,2.278,4.032,4.032,0,0,1-3.585-1.506,3.256,3.256,0,0,0-3.96-1.057C1897.523,168.832,1897.478,170.214,1897.607,171.723Zm5.047,5.7a8.659,8.659,0,1,1-3.511,11.732A8.658,8.658,0,0,1,1902.654,177.426Z" transform="translate(-1848.486 -166.498)" fill="#fff"/>
        <path id="Trazado_184055" data-name="Trazado 184055" d="M1743.57,239.275a4.929,4.929,0,0,1-2.346,4.129c-2.843,1.889-4.356,1.17-5.279.96a4.49,4.49,0,0,0-4.794,1.62c-.855,1.4-1.5,3.2.928,5.711a5.739,5.739,0,0,1,1.573,5.318c-.261,1.751-1.887,2.9-3.022,3.621a4.269,4.269,0,0,0-2.1,5.172c.655,2.674,3.585,2.528,5.192,2.954a5.951,5.951,0,0,1,3.917,2.573,6.421,6.421,0,0,1,.9,4.5c-.2,1.693-.52,3.943,2.216,5.3,1.932.957,4.239-.227,5.463-1.461a5.812,5.812,0,0,1,4.769-1.381c3.036.617,3.967,2.292,3.967,2.292.457,1.264,2.486,3.382,5.056,2.609a4.533,4.533,0,0,0,3.2-4.97,4.843,4.843,0,0,1,2.189-4.659,5.3,5.3,0,0,1,5.015-.6,4.491,4.491,0,0,0,5.206-2.107c1.014-1.939.04-4.005-1.232-5.3-1.334-1.359-1.554-3.6-1.214-5.586a5.24,5.24,0,0,1,2.784-3.792,3.966,3.966,0,0,0,1.96-4.708c-.634-2.028-1.478-2.816-3.6-3.069-1.72-.2-3.857-.355-5.244-2.1a6.946,6.946,0,0,1-1.367-5.335,4.736,4.736,0,0,0-2.009-4.581c-1.984-1.368-4.23-.119-5.172.883a6.476,6.476,0,0,1-4.579,2.3,5.381,5.381,0,0,1-4.237-2.949,4.153,4.153,0,0,0-4.811-2.245C1744.255,235.024,1743.732,237.287,1743.57,239.275Zm5.962,9.168a11.148,11.148,0,1,1-6.971,14.141A11.15,11.15,0,0,1,1749.532,248.442Z" transform="translate(-1728.335 -217.459)" fill="#fcce5b"/>
      </g>
      <g id="Grupo_141029" data-name="Grupo 141029" transform="translate(833.943 334.499)">
        <path id="Trazado_184056" data-name="Trazado 184056" d="M1878.193,1134.008s-.107-1.126-2-1.126-12.628,32.863-12.628,32.863h20.014Z" transform="translate(-1824.224 -1130.1)" fill="#1a6388"/>
        <g id="Grupo_141028" data-name="Grupo 141028" transform="translate(0 2.78)">
          <path id="Trazado_184057" data-name="Trazado 184057" d="M1712.374,1134.506c-.293,1.165-7.609,31.306-7.609,31.306h44.173l8.006-32.936h-42.575S1712.668,1133.342,1712.374,1134.506Z" transform="translate(-1704.765 -1132.876)" fill="#b1dee8"/>
          <path id="Trazado_184058" data-name="Trazado 184058" d="M1732.994,1173.6h33.452l4.927-20.268h-33.452Z" transform="translate(-1726.001 -1148.262)" fill="#fff"/>
          <path id="Trazado_184059" data-name="Trazado 184059" d="M1823.954,1167.605a.539.539,0,0,0,.544.7h9.721a.961.961,0,0,0,.886-.7h0a.539.539,0,0,0-.544-.7h-9.721a.961.961,0,0,0-.886.7Z" transform="translate(-1794.411 -1158.473)" fill="#1a6388"/>
          <path id="Trazado_184060" data-name="Trazado 184060" d="M1839.239,1190.015h4.432l1.061-4.364H1840.3Z" transform="translate(-1805.926 -1172.577)" fill="#1a6388"/>
          <path id="Trazado_184061" data-name="Trazado 184061" d="M1833.093,1215.3h4.432l1.061-4.364h-4.432Z" transform="translate(-1801.302 -1191.598)" fill="#1a6388"/>
          <path id="Trazado_184062" data-name="Trazado 184062" d="M1812.982,1190.015h4.432l1.061-4.364h-4.432Z" transform="translate(-1786.173 -1172.577)" fill="#fcce5b"/>
          <path id="Trazado_184063" data-name="Trazado 184063" d="M1806.836,1215.3h4.432l1.061-4.364H1807.9Z" transform="translate(-1781.55 -1191.598)" fill="#1a6388"/>
          <path id="Trazado_184064" data-name="Trazado 184064" d="M1787.014,1190.015h4.432l1.06-4.364h-4.432Z" transform="translate(-1766.638 -1172.577)" fill="#1a6388"/>
          <path id="Trazado_184065" data-name="Trazado 184065" d="M1780.867,1215.3h4.432l1.061-4.364h-4.432Z" transform="translate(-1762.014 -1191.598)" fill="#1a6388"/>
          <path id="Trazado_184066" data-name="Trazado 184066" d="M1760.757,1190.015h4.432l1.061-4.364h-4.432Z" transform="translate(-1746.886 -1172.577)" fill="#1a6388"/>
          <path id="Trazado_184067" data-name="Trazado 184067" d="M1754.609,1215.3h4.432l1.061-4.364h-4.432Z" transform="translate(-1742.261 -1191.598)" fill="#003853"/>
        </g>
        <path id="Trazado_184068" data-name="Trazado 184068" d="M1876.917,1127.324a.851.851,0,0,0,.851-.851V1122.5a.851.851,0,0,0-.851-.851h0a.85.85,0,0,0-.85.851v3.969a.851.851,0,0,0,.85.851Z" transform="translate(-1833.629 -1121.653)" fill="#17476f"/>
        <path id="Trazado_184069" data-name="Trazado 184069" d="M1763.1,1127.324a.851.851,0,0,0,.85-.851V1122.5a.85.85,0,0,0-.85-.851h0a.851.851,0,0,0-.851.851v3.969a.851.851,0,0,0,.851.851Z" transform="translate(-1748.007 -1121.653)" fill="#17476f"/>
      </g>
      <g id="Grupo_141033" data-name="Grupo 141033" transform="translate(897.39 328.992)">
        <g id="Grupo_141031" data-name="Grupo 141031">
          <g id="Grupo_141030" data-name="Grupo 141030">
            <path id="Trazado_184070" data-name="Trazado 184070" d="M2010.13,1136.813s-9.593-34.342-9.844-35.449a2.674,2.674,0,0,0-3.006-1.931c-1.941.133-34.382-.07-35.223.1a1.416,1.416,0,0,0-1.12,1.8c.255.813,10.335,36.045,10.335,36.045Z" transform="translate(-1960.874 -1099.423)" fill="#1a6388"/>
            <path id="Trazado_184071" data-name="Trazado 184071" d="M2065.326,1250.507l-23.633-.184-38.843.567s.483,3.284,2.753,3.481c3.913.046,56.244-.06,57.653,0C2065.107,1254.446,2065.326,1250.507,2065.326,1250.507Z" transform="translate(-1992.451 -1212.94)" fill="#1a6388"/>
          </g>
          <path id="Trazado_184072" data-name="Trazado 184072" d="M2008.551,1109.494l-32.825-.108,10.2,35.347,32.3-.087Z" transform="translate(-1972.047 -1106.918)" fill="#b1dee8"/>
        </g>
        <g id="Grupo_141032" data-name="Grupo 141032" transform="translate(15.742 10.624)">
          <path id="Trazado_184073" data-name="Trazado 184073" d="M2033.583,1159.319l-4.556-10.9c-3.915,1.717-5.678,7.172-3.938,12.883,1.9,6.233,7.241,10.4,11.932,9.3,3.351-.783,5.454-4.044,5.692-8.114Z" transform="translate(-2024.419 -1146.906)" fill="#fff"/>
          <path id="Trazado_184074" data-name="Trazado 184074" d="M2057.528,1152.03c-.008-.033-.017-.067-.028-.1-1.838-6.249-7.149-10.488-11.862-9.475a6.34,6.34,0,0,0-1.127.366l4.424,10.874Z" transform="translate(-2039.534 -1142.307)" fill="#fbca69"/>
          <path id="Trazado_184075" data-name="Trazado 184075" d="M2064.887,1185.791l.028.069,9.118,3.368a14.658,14.658,0,0,0-.537-5.049Z" transform="translate(-2054.862 -1173.806)" fill="#144665"/>
        </g>
      </g>
      <path id="Trazado_184076" data-name="Trazado 184076" d="M1109.282,1305.242v-24.924c0-3.886,1.378-5.264,5.264-5.264h295.125c3.887,0,5.264,1.378,5.264,5.264v24.924h9.909v-24.924c0-9.359-5.814-15.173-15.173-15.173H1114.547c-9.359,0-15.173,5.814-15.173,15.173v24.924Z" transform="translate(-415.406 -895.099)" fill="#95dbe2"/>
      <g id="Grupo_141034" data-name="Grupo 141034" transform="translate(875.19 201.631)">
        <path id="Trazado_184077" data-name="Trazado 184077" d="M1883.8,628.553a1.521,1.521,0,0,1-1.521,1.521h0a1.521,1.521,0,0,1-1.521-1.521v-7.2a1.521,1.521,0,0,1,1.521-1.521h0a1.521,1.521,0,0,1,1.521,1.521Z" transform="translate(-1878.402 -611.285)" fill="#305d81"/>
        <path id="Trazado_184078" data-name="Trazado 184078" d="M1906.4,628.553a1.521,1.521,0,0,1-1.521,1.521h0a1.521,1.521,0,0,1-1.521-1.521v-7.2a1.521,1.521,0,0,1,1.521-1.521h0a1.521,1.521,0,0,1,1.521,1.521Z" transform="translate(-1895.407 -611.285)" fill="#305d81"/>
        <path id="Trazado_184079" data-name="Trazado 184079" d="M1929.286,628.553a1.521,1.521,0,0,1-1.521,1.521h0a1.521,1.521,0,0,1-1.521-1.521v-7.2a1.521,1.521,0,0,1,1.521-1.521h0a1.521,1.521,0,0,1,1.521,1.521Z" transform="translate(-1912.624 -611.285)" fill="#305d81"/>
        <path id="Trazado_184080" data-name="Trazado 184080" d="M1951.056,628.553a1.521,1.521,0,0,1-1.521,1.521h0a1.521,1.521,0,0,1-1.521-1.521v-7.2a1.521,1.521,0,0,1,1.521-1.521h0a1.521,1.521,0,0,1,1.521,1.521Z" transform="translate(-1929 -611.285)" fill="#305d81"/>
        <rect id="Rectángulo_36036" data-name="Rectángulo 36036" width="23.715" height="3.802" transform="translate(0 19.965)" fill="#305d81"/>
        <path id="Trazado_184081" data-name="Trazado 184081" d="M1891.461,589.146l-8.029-3.826-8.513,3.826h-3.655v3.8h23.715v-3.8Z" transform="translate(-1871.264 -585.32)" fill="#305d81"/>
      </g>
      <g id="Grupo_141038" data-name="Grupo 141038" transform="translate(907.55 147.714)">
        <g id="Grupo_141035" data-name="Grupo 141035" transform="translate(0 0)">
          <path id="Trazado_184082" data-name="Trazado 184082" d="M2009.708,386.309l-1.439,0-1.2.034s0,0,0,0l.933,6.719a.445.445,0,0,1-.1.357,8.722,8.722,0,0,1-1.066,1.036h-.01a9.546,9.546,0,0,1-1.138-1.023.437.437,0,0,1-.11-.371l.612-6.713s-.01-.005-.011-.01l-1.109-.031-1.436,0a1.742,1.742,0,0,0-1.745,1.741l-.006,8.9a1.739,1.739,0,0,0,1.6,1.731l.768,9.455a1.5,1.5,0,0,0,1.447,1.4h1.914a1.5,1.5,0,0,0,1.449-1.4l.781-9.454a1.736,1.736,0,0,0,1.6-1.729l.005-8.9A1.743,1.743,0,0,0,2009.708,386.309Z" transform="translate(-2001.886 -381.691)" fill="#fff"/>
          <path id="Trazado_184083" data-name="Trazado 184083" d="M2017.17,369.648a1.965,1.965,0,1,1-1.964-1.967A1.963,1.963,0,0,1,2017.17,369.648Z" transform="translate(-2010.426 -367.681)" fill="#fff"/>
        </g>
        <g id="Grupo_141036" data-name="Grupo 141036" transform="translate(11.89 0)">
          <path id="Trazado_184084" data-name="Trazado 184084" d="M2057.706,386.309l-1.438,0-1.2.034s0,0,0,0l.934,6.719a.447.447,0,0,1-.1.357,8.778,8.778,0,0,1-1.066,1.036h-.01a9.558,9.558,0,0,1-1.138-1.023.437.437,0,0,1-.11-.371l.612-6.713s-.009-.005-.011-.01l-1.109-.031-1.436,0a1.741,1.741,0,0,0-1.745,1.741l-.006,8.9a1.739,1.739,0,0,0,1.6,1.731l.768,9.455a1.493,1.493,0,0,0,1.446,1.4h1.914a1.5,1.5,0,0,0,1.449-1.4l.781-9.454a1.736,1.736,0,0,0,1.6-1.729l.005-8.9A1.742,1.742,0,0,0,2057.706,386.309Z" transform="translate(-2049.883 -381.691)" fill="#fff"/>
          <path id="Trazado_184085" data-name="Trazado 184085" d="M2065.167,369.648a1.965,1.965,0,1,1-1.964-1.967A1.963,1.963,0,0,1,2065.167,369.648Z" transform="translate(-2058.424 -367.681)" fill="#fff"/>
        </g>
        <g id="Grupo_141037" data-name="Grupo 141037" transform="translate(23.412 0)">
          <path id="Trazado_184086" data-name="Trazado 184086" d="M2104.214,386.309l-1.439,0-1.2.034s0,0,0,0l.934,6.719a.447.447,0,0,1-.1.357,8.736,8.736,0,0,1-1.066,1.036h-.01a9.581,9.581,0,0,1-1.138-1.023.437.437,0,0,1-.11-.371l.612-6.713s-.009-.005-.011-.01l-1.109-.031-1.436,0a1.741,1.741,0,0,0-1.744,1.741l-.006,8.9a1.739,1.739,0,0,0,1.6,1.731l.768,9.455a1.494,1.494,0,0,0,1.447,1.4h1.914a1.5,1.5,0,0,0,1.449-1.4l.781-9.454a1.737,1.737,0,0,0,1.6-1.729l.005-8.9A1.743,1.743,0,0,0,2104.214,386.309Z" transform="translate(-2096.392 -381.691)" fill="#fff"/>
          <path id="Trazado_184087" data-name="Trazado 184087" d="M2111.674,369.648a1.965,1.965,0,1,1-1.963-1.967A1.962,1.962,0,0,1,2111.674,369.648Z" transform="translate(-2104.932 -367.681)" fill="#fff"/>
        </g>
      </g>
      <g id="Grupo_141041" data-name="Grupo 141041" transform="translate(841.793 171.383)">
        <g id="Grupo_141039" data-name="Grupo 141039" transform="translate(0 3.382)">
          <path id="Trazado_184088" data-name="Trazado 184088" d="M1747.2,557.961l-10.311,13.216a2.07,2.07,0,0,0,.359,2.907l.816.638a2.071,2.071,0,0,0,2.907-.36l10.311-13.216Z" transform="translate(-1736.451 -537.872)" fill="#144665"/>
          <path id="Trazado_184089" data-name="Trazado 184089" d="M1771.858,499.1a12.431,12.431,0,1,1,17.447-2.154,12.445,12.445,0,0,1-17.447,2.154Zm13.381-17.151a9.323,9.323,0,1,0,1.615,13.086,9.334,9.334,0,0,0-1.615-13.086Z" transform="translate(-1759.492 -476.871)" fill="#144665"/>
        </g>
        <g id="Grupo_141040" data-name="Grupo 141040" transform="translate(13.45)">
          <path id="Trazado_184090" data-name="Trazado 184090" d="M1974.436,527.174a4.847,4.847,0,1,1-3.975-5.585A4.847,4.847,0,0,1,1974.436,527.174Z" transform="translate(-1921.687 -507.078)" fill="#305d81"/>
          <path id="Trazado_184091" data-name="Trazado 184091" d="M1816.515,491.262l-.652-1.709,29.166-11.119,13.264,14.914-1.366,1.216L1844.5,480.593l-27.987,10.67Z" transform="translate(-1809.64 -474.665)" fill="#305d81"/>
          <path id="Trazado_184092" data-name="Trazado 184092" d="M1922.588,468.874a4.848,4.848,0,1,1-3.975-5.585A4.847,4.847,0,0,1,1922.588,468.874Z" transform="translate(-1882.682 -463.22)" fill="#305d81"/>
          <circle id="Elipse_4847" data-name="Elipse 4847" cx="4.847" cy="4.847" r="4.847" transform="translate(0 17.769) rotate(-62.187)" fill="#e8ac4c"/>
        </g>
      </g>
      <g id="Grupo_141045" data-name="Grupo 141045" transform="translate(724.158 337.81)">
        <g id="Grupo_141043" data-name="Grupo 141043" transform="translate(0 0)">
          <g id="Grupo_141042" data-name="Grupo 141042">
            <path id="Trazado_184093" data-name="Trazado 184093" d="M1347.946,1164.032s7.444-26.65,7.641-27.509a2.074,2.074,0,0,1,2.331-1.5c1.5.1,26.678-.054,27.329.074a1.1,1.1,0,0,1,.871,1.4c-.2.631-8.02,27.969-8.02,27.969Z" transform="translate(-1326.557 -1135.019)" fill="#0f3b5f"/>
            <path id="Trazado_184094" data-name="Trazado 184094" d="M1261.606,1252.5l21.4-.4,30.141.44s-.374,2.549-2.137,2.7c-3.037.039-46.7-.044-47.8,0C1261.775,1255.3,1261.606,1252.5,1261.606,1252.5Z" transform="translate(-1261.606 -1223.097)" fill="#0f3b5f"/>
          </g>
          <path id="Trazado_184095" data-name="Trazado 184095" d="M1365.089,1142.83l25.471-.085-7.92,27.428-25.06-.067Z" transform="translate(-1333.804 -1140.831)" fill="#fff"/>
        </g>
        <g id="Grupo_141044" data-name="Grupo 141044" transform="translate(25.924 8.771)">
          <path id="Trazado_184096" data-name="Trazado 184096" d="M1367.408,1221.607h3.96l-1.158,4.107h-3.96Z" transform="translate(-1366.25 -1208.927)" fill="#aedeeb"/>
          <path id="Trazado_184097" data-name="Trazado 184097" d="M1415.73,1206.774h3.959l-2.2,7.782h-3.958Z" transform="translate(-1401.821 -1197.769)" fill="#fcce5b"/>
          <path id="Trazado_184098" data-name="Trazado 184098" d="M1393.587,1184.962h3.96l-3.721,13.186h-3.959Z" transform="translate(-1384.017 -1181.36)" fill="#6ba1c4"/>
          <path id="Trazado_184099" data-name="Trazado 184099" d="M1443.027,1170.423h3.959l-4.736,16.787h-3.958Z" transform="translate(-1420.444 -1170.423)" fill="#aedeeb"/>
        </g>
      </g>
      <g id="Grupo_141051" data-name="Grupo 141051" transform="translate(931.7 200.142)">
        <path id="Trazado_184100" data-name="Trazado 184100" d="M2285.405,1212.883s-1.7,3.156-3.6,6.542c-1.053,1.877-2.669,1.484-5.385,1.627-1.49.079-2.075-.811-10.045.541-2.013-2.2,5.667-3.48,5.667-3.48s-3.66-.671-7.2-1.091a49.032,49.032,0,0,0-6.5,3.537c-1.988,1.187-3.237.307-3.414-.226,1.211-1.49,6.049-4.956,7.246-6.008,3.114-2.736,4.843-2.993,8.063-1.837a44.6,44.6,0,0,0,6.358,1.486l3.195-7.363Z" transform="translate(-2216.395 -1051.207)" fill="#f0c0a7"/>
        <g id="Grupo_141046" data-name="Grupo 141046" transform="translate(9.624 66.207)">
          <path id="Trazado_184101" data-name="Trazado 184101" d="M2138.843,853.49a3.122,3.122,0,0,1-.626-1.966c-.01-.7.972-1.54.972-1.54s-.844-1.1-.779-1.563a2.007,2.007,0,0,1,1.444-1.57c.471-.071,5.129-.035,6.118.787a1.315,1.315,0,0,1-.908,2.012c.213.179.823.174.567.952a2.206,2.206,0,0,1-.866,1.2s1.2.31.672,1.074a5.171,5.171,0,0,1-.952.839c2.017,1.039,4.317,2.423,5.11.143-.413-1.307-1.405-3.165-1.877-4.93-.589-2.2.884-2.372.884-2.372s1.458,1.992,3.1,3.784,2.622,2.8,2.622,2.8,1.59,5.915,1.177,8.578c1.156,1.011,7.927,6.317,7.927,6.317l-6.565,3.468s-4.585-4.765-6.441-6.441a104.483,104.483,0,0,1-11.334-7.618A3.1,3.1,0,0,1,2138.843,853.49Z" transform="translate(-2138.217 -846.558)" fill="#f0c0a7"/>
        </g>
        <path id="Trazado_184102" data-name="Trazado 184102" d="M2263.387,772s-14.535-1.221-23.516,16.226c-6.909,13.421-5.15,26.158-12.969,38.426-4.384-3.267-30.2-20.727-30.2-20.727l-5.45,5.946s13.522,17.259,27.4,27.5c11.692,8.63,17.563,4.109,20.975.826s28.407-41.124,28.407-41.124Z" transform="translate(-2168.488 -724.252)" fill="#d2e8f2"/>
        <path id="Trazado_184103" data-name="Trazado 184103" d="M2469.02,805.443s-7.376-15.015-10.526-25.63c-8.175-36.786-9.895-55.406-23.767-64.82-2.315-1.571-23.828-11.272-23.828-11.272l-2.147-3.22-6.172,1.3s-10.733,16.456-11.413,17.4c.774,1.672,2.219,4.242,3.365,6.255-.413,25.434,1.534,35.787,11.309,54.192,6.593,12.41,7.514,20.975,12.717,36.334C2453.983,826.142,2469.02,805.443,2469.02,805.443Z" transform="translate(-2318.878 -670.477)" fill="#fff"/>
        <path id="Trazado_184104" data-name="Trazado 184104" d="M2479.642,903.012c-6.942,10.461-10.075,5.45-12.717-4.294s15.173-56.088,19.625-51.219C2492.486,853.992,2491.367,885.34,2479.642,903.012Z" transform="translate(-2375.669 -780.79)" fill="#d2e8f2"/>
        <g id="Grupo_141047" data-name="Grupo 141047" transform="translate(97.664 134.773)">
          <path id="Trazado_184105" data-name="Trazado 184105" d="M2493.6,1223.082l1.684-65.4,45.7-1.752s-16.7,40.127-19.634,67.154Z" transform="translate(-2493.6 -1147.853)" fill="#003853"/>
          <path id="Trazado_184106" data-name="Trazado 184106" d="M2580.406,1198.562c-1.223-18.152.27-33.336.743-42.858.773-15.559,3.176-20.543-.876-32.371-14.464,9.879-40.876,9.414-40.876,9.414l13.758,65.814Z" transform="translate(-2528.052 -1123.333)" fill="#144665"/>
        </g>
        <g id="Grupo_141048" data-name="Grupo 141048" transform="translate(60.698 13.655)">
          <path id="Trazado_184107" data-name="Trazado 184107" d="M2361.771,669.968a14.053,14.053,0,0,0-3.1-5.043,45.973,45.973,0,0,0-8.312-5.459c-1.54-.662-5.946-.681-5.946-.681s-1-23.49,9.481-24.318,15.137,11.467,15.137,11.467-.526,3.334,3.6,6.452C2376.418,655.247,2361.771,669.968,2361.771,669.968Z" transform="translate(-2344.384 -634.427)" fill="#e1b39d"/>
        </g>
        <path id="Trazado_184108" data-name="Trazado 184108" d="M2381.776,765.584s-1.2,1.108-1.713,4.31a14.84,14.84,0,0,0,.5,3.7,317.326,317.326,0,0,0-5.906,38.031c-2.406,29.429-3.7,40.3-3.7,40.3l7,10.033,10.822-10.808s-2.907-11.343-6.424-39.01a135.373,135.373,0,0,1,1.12-38.227s2.539-3.065,4.465-5.313A44.089,44.089,0,0,0,2381.776,765.584Z" transform="translate(-2303.673 -719.437)" fill="#e8ac4c"/>
        <path id="Trazado_184109" data-name="Trazado 184109" d="M2420.852,700.495l3.985,3.9-9.23,16.207a19.779,19.779,0,0,1-8.341-6.111C2415.937,710.117,2420.852,700.495,2420.852,700.495Z" transform="translate(-2330.99 -670.473)" fill="#d2e8f2"/>
        <path id="Trazado_184110" data-name="Trazado 184110" d="M2374.284,778.089c-5.616,21.378-5.578,28.844-6.421,34.418-1.8,13.356-19.935,60.438-19.935,60.438l9.292,3.229s18.795-35.205,26.217-47.224c1.363-3.88,12.935-21.2,17.164-44.93C2405.87,754.449,2382.044,748.544,2374.284,778.089Z" transform="translate(-2286.351 -714.232)" fill="#fff"/>
        <g id="Grupo_141049" data-name="Grupo 141049" transform="translate(55.178)">
          <path id="Trazado_184111" data-name="Trazado 184111" d="M2339.86,607.42s2.61-4.514,5.638-.6-3.3,8.245-3.3,8.245-3.108,9.721-7.5,10.731a57.81,57.81,0,0,1-8.714,1.181c-.455.014-1.207-.039-1.347-.471s-1.174-13.142-1.174-13.142-1.837-.156-1.254-1.867c2.3-6.753,2.746-12.156,5.3-13.944,0,0,6.3-8.082,9.345-4.918S2339.86,607.42,2339.86,607.42Z" transform="translate(-2322.102 -588.78)" fill="#f0c0a7"/>
          <path id="Trazado_184112" data-name="Trazado 184112" d="M2344.44,598.342c-.7,1.384,3.182,3.554,4.289,1.012s3.316-2.654,4.927-1.019.413,5.183,1.887,7.777c.964,1.7,5.692,1.539,6.447,1.651-.587-4.375,2.917-19.364.227-21.513s-10.894-6.964-18.625-6.941-12.256,3.04-7.817,9.394C2353.881,581.14,2344.828,597.577,2344.44,598.342Z" transform="translate(-2331.072 -579.309)" fill="#144665"/>
        </g>
        <g id="Grupo_141050" data-name="Grupo 141050" transform="translate(0 27.194)">
          <path id="Trazado_184113" data-name="Trazado 184113" d="M2153.962,801.314l2.881,19.328a2.414,2.414,0,0,0,2.745,2.032l1.195-.177a2.415,2.415,0,0,0,2.032-2.745l-2.881-19.328Z" transform="translate(-2140.438 -772.84)" fill="#144665"/>
          <path id="Trazado_184114" data-name="Trazado 184114" d="M2116,717.9a14.491,14.491,0,1,1,12.2-16.469A14.508,14.508,0,0,1,2116,717.9Zm-3.739-25.082a10.868,10.868,0,1,0,12.352,9.147,10.88,10.88,0,0,0-12.352-9.147Z" transform="translate(-2099.37 -689.079)" fill="#144665"/>
        </g>
        <path id="Trazado_184115" data-name="Trazado 184115" d="M2180.114,856.9l-.795-5.722-2.509-3.093s-2.163-.085-1.177,2.374a16.6,16.6,0,0,0,2.5,4.213Z" transform="translate(-2156.547 -781.498)" fill="#f0c0a7"/>
      </g>
      <path id="Trazado_184116" data-name="Trazado 184116" d="M2135.4,847.984a16.835,16.835,0,0,1,3.282.248c2.385.434.9,2.3.238,2.519,1.084.588.582,1.468-.572,2.122,1.108.562,1.139,1.15.086,2.017s-3.313.186-3.313.186Z" transform="translate(-1194.567 -581.278)" fill="#f0c0a7"/>
      <g id="Grupo_141056" data-name="Grupo 141056" transform="translate(1025.751 218.237)">
        <g id="Grupo_141053" data-name="Grupo 141053" transform="translate(0 69.279)">
          <path id="Trazado_184117" data-name="Trazado 184117" d="M2571.611,991.881c-.858-.357-4.807.687-5.726.856-.541.1-5.229,1.54-5.665,1.776s-2,.489-1.815,1.167c.178.585.765,1.167,2.04,1.1a36.263,36.263,0,0,0,5.08-1.3l1,.426a11.682,11.682,0,0,0-2.09.65c-.377.248-7.184,4.634-7.238,5.038s1.058,1.663,1.814,1.435a6.72,6.72,0,0,0,2.259-1.1,17.993,17.993,0,0,1-1.468,1.241c-.527.365-.134,2.128.867,2.016.984-.1,4.664-2.777,4.664-2.777l3.266-.779s-5.32,4.318-5.45,4.556a1.017,1.017,0,0,0,1.157,1.44c2.228-.458,5.981-3.674,5.981-3.674a35.748,35.748,0,0,1,4.476.184c1.418,2.182,4.972,2.354,6.766,1.019,2.4.131,18.2,6.167,29.4,9.491,6.582-2.021,3.424-9.314,3.23-10.558-15.829-2.971-35.564-6.508-35.564-6.508S2572.475,992.236,2571.611,991.881Z" transform="translate(-2537.83 -976.991)" fill="#f0c0a7"/>
          <g id="Grupo_141052" data-name="Grupo 141052">
            <path id="Trazado_184118" data-name="Trazado 184118" d="M2479.462,949.462c-.346-.353-.494-.565-.432-.969a1.406,1.406,0,0,1,.468-.859l1.145-.908,12.538-7.7c.283-.217.941.047,1.471.587l23.008,23.887c.36.369,2.676,2.708,3.426,3.283-.031.118.181,2.635.091,2.7l-7.992,10.715-1.525,1.237c-.283.217-1.027-.1-1.556-.645Z" transform="translate(-2479.016 -937.225)" fill="#144665"/>
            <path id="Trazado_184119" data-name="Trazado 184119" d="M2485.561,942.924c-.529-.542-.732-1.154-.262-1.543l12.218-9.342c.233-.15.885.163,1.415.705l28.656,29.116c.529.542.561,1.376.284,1.588l-10.151,11.515c-.277.213-.933-.055-1.462-.6Z" transform="translate(-2483.544 -932.002)" fill="#d2e8f2"/>
            <path id="Trazado_184120" data-name="Trazado 184120" d="M2499.623,938.243c-.834-1-1.763-2.2-3.041-1.4-.036.024-.459.406-.5.433-1.25.886-.3,1.951.834,3.07.04.04.055.135.013.165l-1.9,1.429a.776.776,0,0,0-.293,1.163l.722-.53,1.26,1.1c.809.828,1.781,1.232,2.459.8l5.224-4.017c.5-.408.413-1.171-.582-2.167l-1.667-1.693s-2.26,1.747-2.293,1.77S2499.739,938.382,2499.623,938.243Z" transform="translate(-2490.727 -935.445)" fill="#144665"/>
          </g>
          <path id="Trazado_184121" data-name="Trazado 184121" d="M2596.434,990.314s-3.815-6.024-6.924-6.711-7.441-1.594-8.6-1.882-.5,3.485,2.8,3.806a16.084,16.084,0,0,1,7.255,3.01Z" transform="translate(-2555.264 -969.392)" fill="#f0c0a7"/>
        </g>
        <path id="Trazado_184122" data-name="Trazado 184122" d="M2758.242,826.419c-4.042,1.695-11.6,6.519-14.6,15.646s.782,23.079,1.695,27.381,2.477,15.907,5.085,17.211,13.3,3.39,14.343-11.735S2762.284,824.724,2758.242,826.419Z" transform="translate(-2677.228 -783.252)" fill="#144665"/>
        <path id="Trazado_184123" data-name="Trazado 184123" d="M2767.583,839.53c2.1,1.477.947,10.758-4.844,20.41-6.917,14.479-12.867,29.987-9.042,44.243-10.779,2.955-29.786,15.989-32.141,7s-.847-30.915-3.976-36.726c-2.522-4.681-3.823-5.954-3.912-10.822,1.7-4.281,11.325-21.856,16.66-32.8s15.128-8.127,15.128-8.127S2757.769,832.452,2767.583,839.53Z" transform="translate(-2655.535 -780.26)" fill="#fff"/>
        <path id="Trazado_184124" data-name="Trazado 184124" d="M2744.9,1157.818c14.145-2.069,31.28-7.271,31.28-7.271a32.757,32.757,0,0,1,2.525,3.219c5.456,5.022,11.054,14.494,11.738,22.708s-2.187,18.691.873,37.538l.571,5.021h-45.689c.172-15.214-.149-26.334.526-41.543C2745.457,1171.069,2745.38,1163.386,2744.9,1157.818Z" transform="translate(-2679.028 -1027.127)" fill="#144665"/>
        <path id="Trazado_184125" data-name="Trazado 184125" d="M2737.737,734.553c6.174,1.552,10.213,14.751,10.409,17.2,2.33,4.2,14.6-12.224,14.6-12.224s-3.64-3.08-4.315-7.086.345-19.892.345-19.892S2732.093,733.136,2737.737,734.553Z" transform="translate(-2673.054 -697.635)" fill="#e1b39d"/>
        <g id="Grupo_141054" data-name="Grupo 141054" transform="translate(57.629 0)">
          <path id="Trazado_184126" data-name="Trazado 184126" d="M2815.325,680.871s4.782,1.99,6.69,12.238,4.124,24.8,4.935,27.8-.889,3.654-8.341-.411c-3.366-1.836-8.073-5.162-9.322-8.709a14.454,14.454,0,0,1-.816-6.364Z" transform="translate(-2784.43 -673.806)" fill="#003853"/>
          <path id="Trazado_184127" data-name="Trazado 184127" d="M2731.752,692.816s3.9-3.943,5.979.883-6.061,6.51-6.061,6.51a32.032,32.032,0,0,1-2.746,3.421,18.907,18.907,0,0,1-4.445,3.7,7.257,7.257,0,0,1-2.505.891,68.609,68.609,0,0,1-6.96.208,1.01,1.01,0,0,1-1.033-.863c-.031-.482-.538-11.612-.538-11.612s-2.856-.836-1.371-2.049c7.718-6.314,3.04-14.242,11.265-16.387Z" transform="translate(-2711.643 -671.282)" fill="#f0c0a7"/>
          <path id="Trazado_184128" data-name="Trazado 184128" d="M2721.318,664.153s-16.541,5.365.2,17.155S2721.318,664.153,2721.318,664.153Z" transform="translate(-2713.435 -661.229)" fill="#003853"/>
          <path id="Trazado_184129" data-name="Trazado 184129" d="M2746.619,674.847s3.182,1.6,5.743.013c1.653-1.025,3.666-1.9,5.149.11s-.207,10.289.979,13.309c1.034,2.636,4.467,5.874,4.467,5.874s.329-6.776,2.709-7.811,4.3-22.319,1.737-25.048-9.711-7.637-18.039-8.8-9.409,5.089-5.61,12.614S2746.619,674.847,2746.619,674.847Z" transform="translate(-2734.223 -652.352)" fill="#003853"/>
        </g>
        <path id="Trazado_184130" data-name="Trazado 184130" d="M2821.388,842.871s-.9-3.02-2.282-4.053-23.77-16.385-23.77-16.385-15.5,24.555-15.6,53.932c.177,6.681,1.36,12.7,6.865,25.167,3.179,7.2,16.049,5.9,23,.515-1.739-6.78-2.435-13.908-1.667-24.228C2809.082,862.359,2821.388,842.871,2821.388,842.871Z" transform="translate(-2705.234 -780.298)" fill="#144665"/>
        <path id="Trazado_184131" data-name="Trazado 184131" d="M2808.556,820.2l7.654,5.125s-14.011,21.221-17.838,20.417C2800.064,837.952,2808.556,820.2,2808.556,820.2Z" transform="translate(-2719.257 -778.617)" fill="#1a6388"/>
        <path id="Trazado_184132" data-name="Trazado 184132" d="M2798.144,1120.549l2.379,5.313a48.909,48.909,0,0,0,10.529,3.455,15.685,15.685,0,0,0,12.876-3.325Z" transform="translate(-2719.085 -1004.561)" fill="#003853"/>
        <g id="Grupo_141055" data-name="Grupo 141055" transform="translate(47.503 61.98)">
          <path id="Trazado_184133" data-name="Trazado 184133" d="M2699.826,1073.514a132.449,132.449,0,0,0-19-2.965c.341,3.517,7.645,3.8,7.645,3.8s-15.705,6.873-16.467,7.306-.236,2.181-.236,2.181-2.021,1.3-.336,1.714,9.106-1.685,9.106-1.685-5.731,2.7-6.3,2.853.54,2.192,5.239.956c1.787-.471,14.8-2.243,16.381-7.267.546-.071,4.2-.082,4.2-.082Z" transform="translate(-2670.766 -1028.927)" fill="#f0c0a7"/>
          <path id="Trazado_184134" data-name="Trazado 184134" d="M2782.905,946.917l39.972,3.919s-9.415-19.917-13.452-30.107,13.934-18.191,13.934-18.191,15.432,46.268,15.475,55.043-15.979,9.206-33.248,4.021-22.951-6.695-22.951-6.695Z" transform="translate(-2754.921 -902.539)" fill="#144665"/>
        </g>
      </g>
      <g id="Grupo_141060" data-name="Grupo 141060" transform="translate(547.167 203.087)">
        <g id="Grupo_141057" data-name="Grupo 141057" transform="translate(25.257 11.127)">
          <path id="Trazado_184135" data-name="Trazado 184135" d="M773.015,655.972c-.63.05-1.079-.13-.809.785,1.611,5.43,4.764,6.438,1.208,11.274-.692.287-1.974-1.447-2.426-2.312-1.5-2.872-2.911-3.729-4.861-2.512.2.712,2.391,4.331,4.286,8.232,1.55,3.192,2.941,3.636,3.67,3.943.36,1.34,2.027,7.323,2.208,7.932.731-.058,5.765-2.189,7.308-2.346-.886-2.275-2.549-5.577-3.364-8.358a18.508,18.508,0,0,0,1.194-8.535,7.771,7.771,0,0,0-3.092-4.532c-.171-2.684-1.869-2.04-1.869-2.04S776.075,655.822,773.015,655.972Z" transform="translate(-737.14 -651.044)" fill="#e1b39d"/>
          <path id="Trazado_184136" data-name="Trazado 184136" d="M649.119,753.631s11.5-1.531,25.877,13.8c11.323,12.073,13.26,13.568,17.5,14.774s-5.151-31.068-5.151-31.068l9.479-3.418s13.724,39.886,14.213,47.524-8.57,8.612-17.65,6.481-40.222-14.58-40.222-14.58Z" transform="translate(-649.119 -720.07)" fill="#d2e8f2"/>
          <path id="Trazado_184137" data-name="Trazado 184137" d="M767.066,657.431c.874-.908,4.573-4.164,4.818-4.5a1.044,1.044,0,0,0,.16-1.2c-.206-.341-10.31-15.074-10.493-15.354a.591.591,0,0,0-.949-.053c-.249.358-4.461,5.33-4.625,5.61a1.2,1.2,0,0,0,.092,1.282c.336.385,9.825,14.247,9.825,14.247A.919.919,0,0,0,767.066,657.431Z" transform="translate(-729.397 -636.109)" fill="#003853"/>
        </g>
        <path id="Trazado_184138" data-name="Trazado 184138" d="M602.989,846.286s8.876-52.98,4.106-70.826c-2.4-8.958-9.733-18.135-13.563-23.476-.246-.344.787-3.331.512-3.64-8.136-9.116-23.076-8.847-23.076-8.847s-21.334,25.962-19.778,37.862a425.054,425.054,0,0,0,10.668,53.8l-1.672,11.427Z" transform="translate(-550.132 -702.757)" fill="#fff"/>
        <g id="Grupo_141058" data-name="Grupo 141058" transform="translate(22.438)">
          <path id="Trazado_184139" data-name="Trazado 184139" d="M651.617,620.374c6.1-3.178,13.6,5.919,15.25,26.938-5.9-.808-13.325,7.3-14.146,12.129-7.111-5.428-13.528-10.914-14.978-11.577,2.242-3.319,4.406-10.75,4.406-10.75S646.28,623.155,651.617,620.374Z" transform="translate(-637.742 -612.681)" fill="#e1b39d"/>
          <path id="Trazado_184140" data-name="Trazado 184140" d="M692.089,605.474s-1.651-5.225-5.2-1.851,2.176,7.511,2.176,7.511,1.666,11.571,6.111,13.084a65.494,65.494,0,0,0,8.913,2.211c.469.07,1.254.112,1.446-.285s2.85-12.318,2.85-12.318,2.479.849,2.016-.855c-1.994-7.356-2.687-11.7-3.492-14.645,0,0-6.695-9.31-10.183-6.655S692.089,605.474,692.089,605.474Z" transform="translate(-673.844 -591.196)" fill="#f0c0a7"/>
        </g>
        <path id="Trazado_184141" data-name="Trazado 184141" d="M613.007,937.168l4.682,29.958L617.157,976l31.853,3.141s-10.89-14.375-11.535-30.347c-.243-5.99.246-24.2-4.856-29.98-5.6-6.347-12.1-2.161-14.8,4.711C614.693,931.486,613.007,937.168,613.007,937.168Z" transform="translate(-596.696 -835.295)" fill="#d2e8f2"/>
        <path id="Trazado_184142" data-name="Trazado 184142" d="M693.3,780.137s2.165.619,2.935,3.889a6.146,6.146,0,0,1-.143,3.513s10.137,12.464,12.217,29.32a367.821,367.821,0,0,1,3.064,43.263l-4.955,7.927-6.317-9.166s.96-16.917.826-42.445c-.094-17.631-7.248-27.949-7.248-27.949s-1.775-1.806-4-3.71A17.183,17.183,0,0,0,693.3,780.137Z" transform="translate(-654.373 -733.33)" fill="#e8ac4c"/>
        <path id="Trazado_184143" data-name="Trazado 184143" d="M651.332,739.529a16.153,16.153,0,0,1-7.122,6.441c-5.682-13.417-13.021-15.643-13.021-15.643a30.091,30.091,0,0,1,1.366-3.055C638.667,729.587,651.332,739.529,651.332,739.529Z" transform="translate(-610.373 -693.561)" fill="#d2e8f2"/>
        <path id="Trazado_184144" data-name="Trazado 184144" d="M792.51,661.441a25.8,25.8,0,0,0-4.418-1.636c-1.774-.355-.83-1.989-.83-1.989s-1.35-.574-1.5-.886c-.475-.989-.051-1.379-.051-1.379a10.185,10.185,0,0,1,3.533-.089C790.826,655.788,792.51,661.441,792.51,661.441Z" transform="translate(-726.484 -639.446)" fill="#e1b39d"/>
        <g id="Grupo_141059" data-name="Grupo 141059" transform="translate(0 137.715)">
          <path id="Trazado_184145" data-name="Trazado 184145" d="M547.167,1241.37c2.347-10.872,2.683-49.117,5.733-56.853s23.8-2.617,23.8-2.617l2.088,59.47S550.576,1241.362,547.167,1241.37Z" transform="translate(-547.167 -1172.028)" fill="#003853"/>
          <path id="Trazado_184146" data-name="Trazado 184146" d="M614.552,1216.437c-.347-20.563-2.476-63.652-2.476-63.652l-42.723-5.69s-10.46,20.069-4.177,27.969c11.726,14.748,18.461,41.373,18.461,41.373S607.258,1216.454,614.552,1216.437Z" transform="translate(-559.203 -1147.095)" fill="#144665"/>
        </g>
        <path id="Trazado_184147" data-name="Trazado 184147" d="M806.64,1148.793a78.176,78.176,0,0,1,13.708-4.459c.991,2.348-4.377,4.329-4.377,4.329s6.008-1.067,8.237.543c1.442,1.042-.021,4.459-.021,4.459l-2.973-.289-2.766.289s-1.569.289-2.808.619c-1.634.436-6.093,4.18-8.26-.125a32.558,32.558,0,0,1-3.933-1.3Z" transform="translate(-739.959 -1007.303)" fill="#f0c0a7"/>
        <path id="Trazado_184148" data-name="Trazado 184148" d="M592.583,826.578c5.581,21.247,4.47,25.3,5.308,30.841,1.787,13.274,32.775,36.411,32.775,36.411l-6.193,8.671s-32.334-19.76-39.712-31.7c-1.354-3.856-14.129-14.74-18.332-38.325C561.191,803.084,584.87,797.215,592.583,826.578Z" transform="translate(-561.094 -753.744)" fill="#fff"/>
      </g>
      <path id="Trazado_184149" data-name="Trazado 184149" d="M673.133,591.231c.18,1.245-2.675,1.92-3.642-.882s-3.571-3.729-5.429-2.123-.609,6.841-2.4,9.483c-1.172,1.729-5.545,1.321-6.359,1.376,1.3-8.956-1.829-20.657,2.98-23.785,3.089-2.009,15.97-1.771,18.745-6.028,8.084-1.748,11.148,6.441,7.1,12.222C669.432,576.291,671.5,584.549,673.133,591.231Z" transform="translate(-81.348 -371.436)" fill="#144665"/>
    </g>
  </g>
</svg>
