<svg xmlns="http://www.w3.org/2000/svg" xmlns:xlink="http://www.w3.org/1999/xlink" width="1328" height="602" viewBox="0 0 1328 602">
  <defs>
    <linearGradient id="linear-gradient" x1="0.5" y1="0.322" x2="0.5" y2="1.321" gradientUnits="objectBoundingBox">
      <stop offset="0" stop-color="#2651e1"/>
      <stop offset="1" stop-color="#fc1892"/>
    </linearGradient>
  </defs>
  <g id="fondo5" transform="translate(-136 -2454.079)">
    <rect id="Rectángulo_35950" data-name="Rectángulo 35950" width="1328" height="602" transform="translate(136 2454.079)" fill="url(#linear-gradient)"/>
    <path id="Trazado_183240" data-name="Trazado 183240" d="M24.721,0A2.564,2.564,0,0,0,27.11,0ZM37.854,7.585a2.566,2.566,0,1,0-.938-3.505,2.565,2.565,0,0,0,.938,3.505Zm13.222,7.634a2.566,2.566,0,1,0-.939-3.505,2.567,2.567,0,0,0,.939,3.505ZM64.3,22.852a2.566,2.566,0,1,0-.939-3.505,2.566,2.566,0,0,0,.939,3.505ZM77.52,30.486a2.566,2.566,0,1,0-.939-3.505,2.566,2.566,0,0,0,.939,3.505Zm13.222,7.633a2.565,2.565,0,1,0-.939-3.505,2.566,2.566,0,0,0,.939,3.505Zm13.221,7.634a2.566,2.566,0,1,0-.939-3.505,2.565,2.565,0,0,0,.939,3.505ZM58.71,2a2.567,2.567,0,0,0,3.505-.939A2.568,2.568,0,0,0,62.549,0H57.437A2.561,2.561,0,0,0,58.71,2ZM71.932,9.63a2.566,2.566,0,1,0-.939-3.505,2.566,2.566,0,0,0,.939,3.505Zm13.221,7.634a2.566,2.566,0,1,0-.939-3.505,2.565,2.565,0,0,0,.939,3.505ZM98.375,24.9a2.566,2.566,0,1,0-.939-3.505,2.566,2.566,0,0,0,.939,3.505ZM111.6,32.531a2.566,2.566,0,1,0-.939-3.505,2.566,2.566,0,0,0,.939,3.505ZM92.787,4.042A2.566,2.566,0,0,0,95.879,0H92.261a2.567,2.567,0,0,0,.526,4.042Zm13.222,7.634a2.566,2.566,0,1,0-.939-3.505,2.567,2.567,0,0,0,.939,3.505Zm13.222,7.633a2.566,2.566,0,1,0-.94-3.5,2.564,2.564,0,0,0,.94,3.5Zm7.633-13.221a2.566,2.566,0,1,0-.939-3.505,2.566,2.566,0,0,0,.939,3.505ZM24.085,123.039a2.566,2.566,0,1,0-.939-3.505,2.566,2.566,0,0,0,.939,3.505Zm13.221,7.634a2.566,2.566,0,1,0-.939-3.505,2.566,2.566,0,0,0,.939,3.505Zm13.222,7.633a2.566,2.566,0,1,0-.939-3.5,2.566,2.566,0,0,0,.939,3.5ZM6.906,94.87a2.566,2.566,0,1,0-1.765-4.682q.831,2.359,1.765,4.682Zm11.59,7.314a2.566,2.566,0,1,0-.939-3.505,2.566,2.566,0,0,0,.939,3.505Zm13.222,7.634a2.566,2.566,0,1,0-.939-3.505,2.567,2.567,0,0,0,.939,3.505Zm13.222,7.633A2.566,2.566,0,1,0,44,113.946a2.566,2.566,0,0,0,.939,3.505Zm13.222,7.633a2.565,2.565,0,1,0-.939-3.5,2.566,2.566,0,0,0,.939,3.5ZM.812,74.034A2.566,2.566,0,1,0,0,69.1q.35,2.478.812,4.937Zm12.1,7.294a2.566,2.566,0,1,0-.939-3.505,2.565,2.565,0,0,0,.939,3.505ZM26.13,88.962a2.566,2.566,0,1,0-.939-3.505,2.567,2.567,0,0,0,.939,3.505ZM39.352,96.6a2.565,2.565,0,1,0-.939-3.5,2.565,2.565,0,0,0,.939,3.5Zm13.222,7.634a2.566,2.566,0,1,0-.94-3.505,2.564,2.564,0,0,0,.94,3.505ZM65.8,111.863a2.566,2.566,0,1,0-.94-3.505,2.565,2.565,0,0,0,.94,3.505ZM7.32,60.473a2.566,2.566,0,1,0-.939-3.505,2.566,2.566,0,0,0,.939,3.505Zm13.222,7.634A2.566,2.566,0,1,0,19.6,64.6a2.566,2.566,0,0,0,.939,3.505ZM33.764,75.74a2.566,2.566,0,1,0-.94-3.505,2.566,2.566,0,0,0,.94,3.505Zm13.221,7.634a2.566,2.566,0,1,0-.938-3.505,2.566,2.566,0,0,0,.938,3.505Zm13.222,7.633a2.565,2.565,0,1,0-.939-3.505,2.566,2.566,0,0,0,.939,3.505Zm13.222,7.634a2.566,2.566,0,1,0-.939-3.505,2.567,2.567,0,0,0,.939,3.505ZM1.732,39.618a2.566,2.566,0,1,0-.939-3.505,2.566,2.566,0,0,0,.939,3.505Zm13.222,7.633a2.566,2.566,0,1,0-.94-3.505,2.566,2.566,0,0,0,.94,3.505Zm13.222,7.634a2.566,2.566,0,1,0-.94-3.505,2.565,2.565,0,0,0,.94,3.505ZM41.4,62.518a2.566,2.566,0,1,0-.939-3.505,2.565,2.565,0,0,0,.939,3.505Zm13.222,7.634a2.566,2.566,0,1,0-.939-3.505,2.566,2.566,0,0,0,.939,3.505Zm13.222,7.634a2.566,2.566,0,1,0-.939-3.505,2.567,2.567,0,0,0,.939,3.505Zm13.222,7.633a2.566,2.566,0,1,0-.939-3.505,2.564,2.564,0,0,0,.939,3.505ZM9.365,26.4a2.566,2.566,0,1,0-.939-3.5,2.566,2.566,0,0,0,.939,3.5Zm13.222,7.633a2.566,2.566,0,1,0-.939-3.5,2.566,2.566,0,0,0,.939,3.5Zm13.222,7.634a2.566,2.566,0,1,0-.939-3.505,2.566,2.566,0,0,0,.939,3.505ZM49.031,49.3a2.566,2.566,0,1,0-.94-3.5,2.567,2.567,0,0,0,.94,3.5ZM62.252,56.93a2.566,2.566,0,1,0-.938-3.505,2.567,2.567,0,0,0,.938,3.505Zm13.222,7.634a2.566,2.566,0,1,0-.939-3.5,2.566,2.566,0,0,0,.939,3.5ZM88.7,72.2a2.566,2.566,0,1,0-.939-3.505A2.566,2.566,0,0,0,88.7,72.2ZM17,13.174a2.566,2.566,0,1,0-.939-3.505A2.567,2.567,0,0,0,17,13.174Zm13.222,7.633a2.565,2.565,0,1,0-.939-3.5,2.565,2.565,0,0,0,.939,3.5Zm13.222,7.634a2.566,2.566,0,1,0-.939-3.505,2.564,2.564,0,0,0,.939,3.505Zm13.222,7.634a2.566,2.566,0,1,0-.94-3.505,2.565,2.565,0,0,0,.94,3.505Zm13.221,7.633a2.566,2.566,0,1,0-.939-3.5,2.564,2.564,0,0,0,.939,3.5Zm13.222,7.634a2.566,2.566,0,1,0-.939-3.505,2.566,2.566,0,0,0,.939,3.505ZM96.33,58.976a2.566,2.566,0,1,0-.939-3.505,2.566,2.566,0,0,0,.939,3.505Zm20.855-5.589a2.566,2.566,0,1,0-.939-3.505,2.566,2.566,0,0,0,.939,3.505Zm13.222,7.633a2.566,2.566,0,1,0-.939-3.505,2.566,2.566,0,0,0,.939,3.505Zm13.222,7.634a2.566,2.566,0,1,0-.939-3.505,2.566,2.566,0,0,0,.939,3.505Zm13.222,7.633a2.566,2.566,0,1,0-.939-3.5,2.566,2.566,0,0,0,.939,3.5Zm13.222,7.634a2.566,2.566,0,1,0-.94-3.505,2.566,2.566,0,0,0,.94,3.505Zm13.221,7.634a2.566,2.566,0,1,0-.939-3.505,2.566,2.566,0,0,0,.939,3.505Zm13.222,7.633a2.566,2.566,0,1,0-.939-3.505,2.566,2.566,0,0,0,.939,3.505Zm-71.7-59.023a2.566,2.566,0,1,0-.939-3.505,2.566,2.566,0,0,0,.939,3.505ZM138.041,47.8a2.566,2.566,0,1,0-.939-3.505,2.566,2.566,0,0,0,.939,3.505Zm13.222,7.633a2.566,2.566,0,1,0-.94-3.505,2.566,2.566,0,0,0,.94,3.505Zm13.221,7.634a2.566,2.566,0,1,0-.939-3.505,2.566,2.566,0,0,0,.939,3.505ZM177.706,70.7a2.566,2.566,0,1,0-.939-3.505,2.565,2.565,0,0,0,.939,3.505Zm13.222,7.634a2.566,2.566,0,1,0-.939-3.505,2.566,2.566,0,0,0,.939,3.505Zm13.222,7.634a2.566,2.566,0,1,0-.939-3.505,2.566,2.566,0,0,0,.939,3.505Zm-71.7-59.024a2.566,2.566,0,1,0-.939-3.505,2.567,2.567,0,0,0,.939,3.505Zm13.222,7.634a2.566,2.566,0,1,0-.939-3.5,2.566,2.566,0,0,0,.939,3.5ZM158.9,42.21a2.566,2.566,0,1,0-.939-3.505,2.565,2.565,0,0,0,.939,3.505Zm13.222,7.634a2.566,2.566,0,1,0-.939-3.505,2.566,2.566,0,0,0,.939,3.505Zm13.222,7.633a2.566,2.566,0,1,0-.94-3.5,2.565,2.565,0,0,0,.94,3.5Zm13.222,7.634a2.566,2.566,0,1,0-.94-3.505,2.564,2.564,0,0,0,.94,3.505Zm13.221,7.634a2.566,2.566,0,1,0-.939-3.5,2.566,2.566,0,0,0,.939,3.5Zm-71.7-59.024a2.566,2.566,0,1,0-.939-3.505,2.565,2.565,0,0,0,.939,3.505Zm13.222,7.634a2.566,2.566,0,1,0-.939-3.505,2.567,2.567,0,0,0,.939,3.505Zm13.222,7.634a2.566,2.566,0,1,0-.939-3.506,2.566,2.566,0,0,0,.939,3.506Zm13.221,7.633a2.566,2.566,0,1,0-.938-3.505,2.567,2.567,0,0,0,.938,3.505Zm13.223,7.634a2.566,2.566,0,1,0-.94-3.505,2.565,2.565,0,0,0,.94,3.505ZM206.2,51.889a2.566,2.566,0,1,0-.939-3.505,2.566,2.566,0,0,0,.939,3.505ZM147.72.5a2.568,2.568,0,0,0,3.185-.5h-3.8a2.583,2.583,0,0,0,.62.5Zm13.222,7.633a2.566,2.566,0,1,0-.94-3.5,2.566,2.566,0,0,0,.94,3.5Zm13.221,7.634a2.566,2.566,0,1,0-.939-3.5,2.566,2.566,0,0,0,.939,3.5ZM187.385,23.4a2.566,2.566,0,1,0-.939-3.505,2.566,2.566,0,0,0,.939,3.505Zm13.222,7.634a2.566,2.566,0,1,0-.939-3.5,2.566,2.566,0,0,0,.939,3.5Zm13.222,7.634a2.56,2.56,0,0,0,2.252.153q-.348-2.48-.812-4.937a2.567,2.567,0,0,0-1.44,4.784ZM181.8,2.545a2.565,2.565,0,0,0,3.5-.939A2.55,2.55,0,0,0,185.625,0h-5.091A2.566,2.566,0,0,0,181.8,2.545Zm13.222,7.634a2.566,2.566,0,1,0-.939-3.505,2.567,2.567,0,0,0,.939,3.505Zm13.222,7.633a2.565,2.565,0,0,0,2.7-.082q-.829-2.359-1.765-4.682a2.566,2.566,0,0,0-.934,4.764ZM63.75,145.94a2.566,2.566,0,1,0-.939-3.505,2.566,2.566,0,0,0,.939,3.505Zm13.222,7.634a2.566,2.566,0,1,0-.939-3.505,2.567,2.567,0,0,0,.939,3.505Zm13.222,7.633a2.566,2.566,0,1,0-.94-3.505,2.566,2.566,0,0,0,.94,3.505Zm-18.81-28.489a2.566,2.566,0,1,0-.939-3.505,2.564,2.564,0,0,0,.939,3.505Zm13.221,7.634a2.566,2.566,0,1,0-.939-3.505,2.566,2.566,0,0,0,.939,3.505Zm13.222,7.633a2.566,2.566,0,1,0-.939-3.5,2.565,2.565,0,0,0,.939,3.5Zm13.222,7.634a2.566,2.566,0,1,0-.939-3.505,2.566,2.566,0,0,0,.939,3.505Zm17.066,5.568a2.566,2.566,0,1,0-4.937.813q2.478-.35,4.937-.813ZM79.017,119.5a2.566,2.566,0,1,0-.939-3.5,2.564,2.564,0,0,0,.939,3.5Zm13.222,7.634a2.566,2.566,0,1,0-.939-3.505,2.566,2.566,0,0,0,.939,3.505Zm13.222,7.634a2.566,2.566,0,1,0-.939-3.505,2.567,2.567,0,0,0,.939,3.505Zm13.222,7.633a2.566,2.566,0,1,0-.939-3.5,2.566,2.566,0,0,0,.939,3.5Zm13.222,7.634a2.566,2.566,0,1,0-.94-3.505,2.565,2.565,0,0,0,.94,3.505Zm17.046,5.063a2.566,2.566,0,1,0-4.682,1.764q2.361-.828,4.682-1.764Zm-62.3-48.819a2.566,2.566,0,1,0-.939-3.505,2.566,2.566,0,0,0,.939,3.505Zm13.222,7.633a2.566,2.566,0,1,0-.939-3.505,2.566,2.566,0,0,0,.939,3.505Zm13.221,7.634a2.566,2.566,0,1,0-.939-3.505,2.566,2.566,0,0,0,.939,3.505Zm13.222,7.633a2.565,2.565,0,1,0-.939-3.5,2.564,2.564,0,0,0,.939,3.5Zm13.222,7.634a2.566,2.566,0,1,0-.939-3.505,2.566,2.566,0,0,0,.939,3.505Zm13.222,7.634a2.566,2.566,0,1,0-.939-3.505,2.566,2.566,0,0,0,.939,3.505ZM94.284,93.053a2.566,2.566,0,1,0-.939-3.505,2.565,2.565,0,0,0,.939,3.505Zm13.222,7.634a2.566,2.566,0,1,0-.939-3.505,2.567,2.567,0,0,0,.939,3.505Zm13.222,7.633a2.566,2.566,0,1,0-.939-3.505,2.565,2.565,0,0,0,.939,3.505Zm13.222,7.634a2.566,2.566,0,1,0-.939-3.505,2.567,2.567,0,0,0,.939,3.505Zm13.222,7.633a2.565,2.565,0,1,0-.939-3.505,2.564,2.564,0,0,0,.939,3.505Zm13.222,7.634a2.566,2.566,0,1,0-.94-3.505,2.565,2.565,0,0,0,.94,3.505Zm13.221,7.634a2.566,2.566,0,1,0-.939-3.506,2.566,2.566,0,0,0,.939,3.506Zm-71.7-59.024a2.566,2.566,0,1,0-.939-3.505,2.566,2.566,0,0,0,.939,3.505Zm13.222,7.634a2.566,2.566,0,1,0-.939-3.5,2.567,2.567,0,0,0,.939,3.5ZM128.362,95.1a2.566,2.566,0,1,0-.94-3.505,2.566,2.566,0,0,0,.94,3.505Zm13.221,7.634a2.566,2.566,0,1,0-.939-3.505,2.565,2.565,0,0,0,.939,3.505Zm13.222,7.634a2.566,2.566,0,1,0-.939-3.5,2.567,2.567,0,0,0,.939,3.5ZM168.027,118a2.566,2.566,0,1,0-.939-3.505,2.566,2.566,0,0,0,.939,3.505Zm13.222,7.634a2.566,2.566,0,1,0-.939-3.5,2.566,2.566,0,0,0,.939,3.5Zm-71.7-59.024a2.566,2.566,0,1,0-.939-3.5,2.564,2.564,0,0,0,.939,3.5Zm13.222,7.634a2.566,2.566,0,1,0-.94-3.505,2.565,2.565,0,0,0,.94,3.505ZM136,81.876a2.565,2.565,0,1,0-.939-3.5,2.565,2.565,0,0,0,.939,3.5Zm13.222,7.634a2.566,2.566,0,1,0-.939-3.505,2.566,2.566,0,0,0,.939,3.505Zm13.222,7.634a2.566,2.566,0,1,0-.939-3.505,2.567,2.567,0,0,0,.939,3.505Zm13.222,7.633a2.566,2.566,0,1,0-.94-3.505,2.564,2.564,0,0,0,.94,3.505Zm13.221,7.634a2.566,2.566,0,1,0-.938-3.505A2.566,2.566,0,0,0,188.882,112.411Z" transform="translate(136 2800.09) rotate(-90)" fill="#faeeb2" fill-rule="evenodd"/>
  </g>
</svg>
