<svg xmlns="http://www.w3.org/2000/svg" width="1119.988" height="330" viewBox="0 0 1119.988 330">
  <g id="fondo-figuras" transform="translate(-136 -4060.134)">
    <g id="Grupo_140479" data-name="Grupo 140479" transform="translate(-120.553 3381.087)">
      <g id="Grupo_140474" data-name="Grupo 140474" transform="translate(256.553 854.357)">
        <path id="Trazado_182711" data-name="Trazado 182711" d="M712.554,1354.369H679.91c-4.719,55.5-18.18,98.487-42.752,125.573H755.306C729.285,1452.453,716.364,1408.972,712.554,1354.369Z" transform="translate(-538.355 -1354.369)" fill="#e6f2ff"/>
        <g id="Grupo_140473" data-name="Grupo 140473" transform="translate(0 82.984)">
          <path id="Trazado_182712" data-name="Trazado 182712" d="M372.041,1726.041a19.427,19.427,0,0,0-25.645-22.975,31.577,31.577,0,0,0-59.929,9.082c-.316-.019-.633-.032-.954-.032a15.573,15.573,0,0,0-13.964,8.675,9.036,9.036,0,0,0-14.995,5.25Z" transform="translate(-256.553 -1682.003)" fill="#e6f2ff"/>
          <path id="Trazado_182713" data-name="Trazado 182713" d="M1480.045,1813.727c.021-.261.035-.524.035-.791a9.71,9.71,0,0,0-19.421,0c0,.266.014.529.035.791Z" transform="translate(-1148.079 -1769.689)" fill="#e6f2ff"/>
          <path id="Trazado_182714" data-name="Trazado 182714" d="M1156.892,1718.073c.051-.569.082-1.143.082-1.724a18.958,18.958,0,0,0-25.542-17.771,26.479,26.479,0,1,0-52.649,5.484,19.433,19.433,0,0,0-24.585,14.011Z" transform="translate(-847.133 -1674.035)" fill="#e6f2ff"/>
        </g>
      </g>
      <g id="Grupo_140478" data-name="Grupo 140478" transform="translate(347.968 679.047)">
        <g id="Grupo_140477" data-name="Grupo 140477" transform="translate(0)">
          <path id="Rectángulo_35883" data-name="Rectángulo 35883" d="M0,0H40.134a0,0,0,0,1,0,0V5.784a5.791,5.791,0,0,1-5.791,5.791H5.79A5.79,5.79,0,0,1,0,5.785V0A0,0,0,0,1,0,0Z" transform="translate(46.395 164.365)" fill="#5184ce"/>
          <g id="Grupo_140475" data-name="Grupo 140475" transform="translate(0 108.341)">
            <path id="Trazado_182715" data-name="Trazado 182715" d="M643.88,1096.4s-15.137,20.165-25.9,32.565c-14.524,16.735-10.665,18.868,2.342,65.284,33.1-22.293,18.984-54.459,30.87-60.94C672.883,1121.477,643.88,1096.4,643.88,1096.4Z" transform="translate(-608.698 -1096.395)" fill="#5184ce"/>
            <path id="Trazado_182716" data-name="Trazado 182716" d="M941.4,1096.4s15.137,20.165,25.9,32.565c14.524,16.735,10.665,18.868-2.342,65.284-33.1-22.293-18.983-54.459-30.87-60.94C912.392,1121.477,941.4,1096.4,941.4,1096.4Z" transform="translate(-843.653 -1096.395)" fill="#5184ce"/>
          </g>
          <g id="Grupo_140476" data-name="Grupo 140476" transform="translate(25.29)">
            <path id="Trazado_182717" data-name="Trazado 182717" d="M788.463,771.483c0-38.872-22.465-73.577-34.093-88.938a8.827,8.827,0,0,0-13.911-.208c-11.847,14.7-34.34,47.817-34.34,87.257,0,15.935,10.92,61.191,16.613,72.723a8.09,8.09,0,0,0,7.252,4.522h35.484a8.091,8.091,0,0,0,7.252-4.522C778.413,830.784,788.463,787.418,788.463,771.483Z" transform="translate(-706.119 -679.047)" fill="#5184ce"/>
          </g>
          <path id="Trazado_182718" data-name="Trazado 182718" d="M772.72,910.121c5.693-11.533,15.743-54.9,15.743-70.834,0-23.675-8.333-45.8-17.476-62.96a50.137,50.137,0,0,0-48.652,1.224c-8.66,16.255-16.215,36.988-16.215,59.846,0,15.935,10.92,61.19,16.613,72.724a8.09,8.09,0,0,0,7.252,4.522h35.484A8.091,8.091,0,0,0,772.72,910.121Z" transform="translate(-680.829 -746.851)" fill="#cae1f9"/>
          <path id="Trazado_182719" data-name="Trazado 182719" d="M799.3,865.953a25.177,25.177,0,0,0-3.924-.665l-.129-.011q-.491-.042-.987-.065l-.149-.006c-.339-.013-.679-.022-1.021-.022a25.278,25.278,0,0,0-25.278,25.278c0,.319.008.637.02.953,0,.063,0,.126.007.189q.02.459.057.914c0,.055.01.11.015.165.025.29.055.579.09.867,0,.03.006.06.01.09.038.3.083.607.132.908q.015.092.031.184c.051.3.106.6.167.893.007.036.016.072.023.107q.09.422.193.839c.01.041.019.081.03.122q.112.44.239.873l.046.155c.089.3.181.589.28.88l0,.008c.1.293.206.583.316.871.015.039.029.078.044.116q.165.427.346.846l.045.1q.376.863.813,1.691l.047.09q.222.416.457.822l.017.029q.489.838,1.039,1.634l.034.049A25.734,25.734,0,1,0,799.3,865.953Z" transform="translate(-726.506 -816.864)" fill="#7a7a7a" style="mix-blend-mode: screen;isolation: isolate"/>
        </g>
        <path id="Trazado_182720" data-name="Trazado 182720" d="M854.966,1175.041c0,24.572-2.438,40.428-5.267,44.491-2.926-4.232-5.267-19.919-5.267-44.491a193.724,193.724,0,0,1,5.267-44.491A193.728,193.728,0,0,1,854.966,1175.041Z" transform="translate(-783.237 -1013.342)" fill="#5184ce"/>
        <path id="Trazado_182721" data-name="Trazado 182721" d="M717.059,792.9c0-41.072,24.137-75.554,36.851-90.867l.035-.042a1.785,1.785,0,0,0-2.073-2.774,8.756,8.756,0,0,0-3.6,2.584c-11.847,14.27-34.34,46.4-34.34,84.676,0,15.243,9.809,52.934,15.565,64.875C723.449,832.434,717.059,805.895,717.059,792.9Z" transform="translate(-686.618 -693.879)" fill="#592d24" style="mix-blend-mode: screen;isolation: isolate"/>
      </g>
    </g>
    <g id="Grupo_140482" data-name="Grupo 140482" transform="translate(205.402 3238.018)">
      <g id="Grupo_140480" data-name="Grupo 140480" transform="translate(615.714 822.117)">
        <path id="Trazado_182722" data-name="Trazado 182722" d="M1390.212,1152.117v-1.945c5.018,0,10.079-.237,15.041-.694l.179,1.937C1400.41,1151.877,1395.29,1152.113,1390.212,1152.117Zm-15.218-.684c-5.048-.459-10.126-1.158-15.093-2.077l.354-1.913c4.907.908,9.925,1.6,14.915,2.052Zm45.527-2.113-.356-1.912c4.918-.916,9.849-2.074,14.657-3.442l.532,1.871C1430.489,1147.222,1425.5,1148.394,1420.521,1149.321Zm-75.456-3.43c-4.867-1.378-9.729-3-14.452-4.829l.7-1.815c4.666,1.8,9.471,3.411,14.28,4.772Zm104.735-4.9-.7-1.813c4.661-1.809,9.292-3.86,13.766-6.093l.869,1.74C1459.2,1137.086,1454.517,1139.161,1449.8,1140.992Zm-133.131-6.084c-4.529-2.255-9.008-4.751-13.313-7.417l1.024-1.655c4.254,2.636,8.681,5.1,13.156,7.33Zm160.364-7.514-1.026-1.653c4.244-2.634,8.42-5.5,12.413-8.524l1.174,1.551C1485.554,1121.826,1481.328,1124.728,1477.033,1127.394Zm-186.249-8.516c-4.037-3.049-7.983-6.323-11.726-9.732l1.309-1.438c3.7,3.369,7.6,6.606,11.589,9.618Zm210.525-9.853-1.311-1.438c3.695-3.371,7.277-6.955,10.646-10.651l1.438,1.31C1508.672,1101.986,1505.048,1105.613,1501.309,1109.025Zm-233.036-10.645c-3.415-3.738-6.7-7.677-9.751-11.71l1.551-1.175c3.019,3.985,6.261,7.878,9.637,11.573Zm253.547-11.854-1.552-1.173c3.018-3.992,5.885-8.171,8.52-12.419l1.653,1.026C1527.774,1078.259,1524.874,1082.486,1521.82,1086.526Zm-271.931-12.411c-2.673-4.3-5.176-8.774-7.438-13.3l1.74-.87c2.236,4.47,4.708,8.891,7.35,13.14Zm287.977-13.464-1.741-.868c2.233-4.479,4.281-9.114,6.088-13.775l1.814.7C1542.2,1051.427,1540.126,1056.117,1537.866,1060.65Zm-301.589-13.761c-1.834-4.718-3.468-9.578-4.855-14.443l1.871-.534c1.371,4.808,2.985,9.61,4.8,14.272Zm312.588-14.628-1.871-.531c1.365-4.807,2.519-9.739,3.433-14.659l1.913.355C1551.415,1022.405,1550.245,1027.4,1548.864,1032.261Zm-320.934-14.646c-.928-4.966-1.636-10.043-2.1-15.089l1.937-.18c.461,4.987,1.161,10,2.078,14.911Zm-.868-30.308h-1.945v-.19c0-5.008.227-10.064.675-15.027l1.937.175c-.443,4.905-.667,9.9-.667,14.852Zm325.39-15.608c-.468-4.985-1.173-10-2.1-14.908l1.912-.359c.934,4.966,1.648,10.041,2.121,15.086Zm-322.679-14.35L1227.86,957c.919-4.98,2.082-9.972,3.457-14.839l1.872.529C1231.83,947.494,1230.681,952.427,1229.773,957.348Zm317.116-15.208c-1.377-4.808-3-9.607-4.814-14.266l1.813-.708c1.839,4.715,3.478,9.573,4.872,14.438ZM1237.953,928.4l-1.815-.7c1.823-4.721,3.89-9.413,6.145-13.948l1.742.866C1241.8,919.1,1239.754,923.738,1237.953,928.4Zm298-14.284c-2.241-4.468-4.719-8.886-7.365-13.132l1.651-1.029c2.678,4.3,5.186,8.768,7.453,13.289ZM1251.347,901.46l-1.654-1.024c2.661-4.3,5.557-8.533,8.606-12.576l1.553,1.171C1256.838,893.028,1253.976,897.209,1251.347,901.46Zm268.7-12.872c-3.024-3.981-6.271-7.871-9.65-11.561l1.435-1.313c3.419,3.733,6.7,7.669,9.764,11.7Zm-250.584-11.151-1.439-1.309c3.406-3.745,7.026-7.375,10.76-10.79l1.313,1.435C1276.407,870.148,1272.829,873.735,1269.463,877.437Zm22.2-20.307-1.176-1.55c4.033-3.06,8.256-5.967,12.55-8.64l1.028,1.651C1299.823,851.233,1295.649,854.106,1291.663,857.13Zm184.03-8.833c-4.258-2.631-8.688-5.092-13.165-7.314l.865-1.742c4.531,2.249,9.013,4.74,13.322,7.4ZM1317.2,841.233l-.871-1.739c4.527-2.267,9.211-4.347,13.924-6.183l.706,1.813C1326.3,836.938,1321.676,838.993,1317.2,841.233Zm131.54-6.314c-4.667-1.8-9.473-3.4-14.285-4.756l.528-1.872c4.87,1.373,9.734,2.992,14.457,4.813Zm-103.513-4.6-.534-1.87c4.864-1.39,9.853-2.568,14.829-3.5l.358,1.912C1354.967,827.782,1350.037,828.945,1345.23,830.318Zm74.562-3.562c-4.909-.9-9.928-1.587-14.917-2.035l.174-1.938c5.048.453,10.127,1.146,15.1,2.059Zm-45-1.983-.181-1.937c5.023-.468,10.143-.71,15.218-.719l0,1.945C1384.818,824.071,1379.757,824.31,1374.793,824.773Z" transform="translate(-1225.117 -822.117)" fill="#bad4fb"/>
      </g>
      <path id="Trazado_182723" data-name="Trazado 182723" d="M1340.62,1298.657c-4.568-1.628-9.195-3.094-13.728-4.812a3.513,3.513,0,0,1-1.909-2.279c-.887-5.547-1.455-11.145-2.379-16.684-.269-1.612-.124-2.53,1.238-3.51,4.795-3.453,9.5-7.035,14.229-10.574.767-.573,1.515-1.174,2.829-2.2l-13.852-22.44c-6.466,3.1-12.39,5.828-18.191,8.791-2.045,1.045-3.293,1.1-5.208-.557-3.913-3.38-8.294-6.212-12.388-9.39a3.183,3.183,0,0,1-1.054-2.443c.7-5.954,1.393-11.919,2.454-17.815.509-2.83-.419-4.043-2.99-4.638a16.306,16.306,0,0,1-2.837-1.237l-13.366-3.3a8.3,8.3,0,0,1-1.55.073c-5.279-.727-4.348-.923-6.036,3.76-2.057,5.706-4.019,11.447-5.757,16.418l-21.727,3.466-13.441-17.969a84.242,84.242,0,0,0-22.369,13.8c3.064,6.354,6.036,12.557,9.053,18.738a2.331,2.331,0,0,1-.275,2.99c-3.63,4.515-7.15,9.129-10.461,13.881a2.741,2.741,0,0,1-3.2,1.362c-6.021-.889-12.062-1.638-18.087-2.5-1.5-.215-2.362.051-3.023,1.631a75.105,75.105,0,0,0-5.056,22.1c-.144,1.5.67,1.927,1.881,2.335,5.6,1.888,11.16,3.911,16.775,5.759a2.96,2.96,0,0,1,2.422,3.056c.634,6.449,1.644,12.862,2.58,19.806l-17.243,12.9a78.511,78.511,0,0,0,13.725,22.762l19.742-9.637c5.2,3.6,9.95,7.062,14.9,10.206,1.872,1.188,2.436,2.3,2.073,4.457-.966,5.741-1.709,11.52-2.482,17.291-.153,1.14-.667,2.555,1.164,2.992q11.175,2.667,22.349,5.341c1.583.378,2.343-.317,2.849-1.848,1.885-5.694,4.02-11.309,5.808-17.032.69-2.208,1.94-2.607,3.985-2.849a138.1,138.1,0,0,0,15.065-2.451c2.132-.5,3.051-.144,4.25,1.558,3.854,5.466,7.924,10.781,11.827,16.042,5.252-1.351,18.411-9.51,22.745-14.04-3.007-6.1-5.983-12.3-9.13-18.412-.788-1.53-.484-2.351.507-3.647,3.2-4.184,6.1-8.593,9.258-12.81a3.477,3.477,0,0,1,2.654-1.252c5.34.653,10.658,1.493,15.974,2.332,2.972.469,4.169.669,5.019-.282l5.853-23.718C1345.683,1300.476,1344.316,1299.974,1340.62,1298.657Zm-43.52,3.388a39.537,39.537,0,0,1-47.858,28.914h0a39.538,39.538,0,0,1-28.914-47.858h0a39.537,39.537,0,0,1,47.859-28.913h0a39.537,39.537,0,0,1,28.913,47.858Z" transform="translate(-576.677 -233.947)" fill="#cae1f9"/>
      <path id="Trazado_182724" data-name="Trazado 182724" d="M2163.874,1292.767c-2.847-1.323-5.741-2.546-8.56-3.925a2.276,2.276,0,0,1-1.094-1.584c-.239-3.628-.269-7.271-.533-10.9a1.923,1.923,0,0,1,1.008-2.189c3.3-1.938,6.543-3.965,9.806-5.963.529-.324,1.046-.667,1.955-1.247l-7.584-15.3c-4.354,1.612-8.336,3.014-12.253,4.577a2.522,2.522,0,0,1-3.324-.671c-2.319-2.413-4.974-4.5-7.423-6.8a2.061,2.061,0,0,1-.533-1.638c.809-3.8,1.613-7.6,2.65-11.336.5-1.794-.028-2.631-1.649-3.169a10.577,10.577,0,0,1-1.755-.967l-8.419-2.928a5.319,5.319,0,0,1-1-.046c-3.359-.785-2.747-.855-4.116,2.062-1.668,3.555-3.277,7.138-4.7,10.239l-14.214.932-7.586-12.389a54.546,54.546,0,0,0-15.247,7.557c1.594,4.28,3.138,8.456,4.712,12.621a1.509,1.509,0,0,1-.357,1.911c-2.611,2.692-5.156,5.456-7.575,8.321a1.775,1.775,0,0,1-2.144.686c-3.828-.934-7.677-1.78-11.508-2.7a1.528,1.528,0,0,0-2.047.87,48.618,48.618,0,0,0-4.584,13.941c-.183.959.316,1.282,1.072,1.618,3.5,1.552,6.959,3.189,10.468,4.717a1.917,1.917,0,0,1,1.379,2.116c.022,4.2.288,8.39.476,12.922l-11.888,7.28a50.829,50.829,0,0,0,7.483,15.5l13.3-5.029c3.137,2.629,5.99,5.149,8.995,7.473a2.437,2.437,0,0,1,1.069,3c-.967,3.643-1.792,7.323-2.636,11-.167.727-.583,1.607.571,2q7.044,2.39,14.086,4.783c1,.338,1.53-.065,1.948-1.021,1.556-3.557,3.27-7.048,4.765-10.63.577-1.382,1.406-1.565,2.74-1.6a89.359,89.359,0,0,0,9.858-.676,2.144,2.144,0,0,1,2.647,1.259c2.157,3.755,4.462,7.425,6.662,11.05,3.467-.556,12.438-5.026,15.5-7.686-1.572-4.112-3.119-8.287-4.782-12.416a1.848,1.848,0,0,1,.545-2.32c2.313-2.505,4.448-5.173,6.736-7.7a2.246,2.246,0,0,1,1.786-.648c3.4.741,6.781,1.6,10.157,2.461,1.887.481,2.647.682,3.253.119l5.195-14.938C2167.029,1294.243,2166.177,1293.837,2163.874,1292.767Zm-28.257-.425a25.6,25.6,0,0,1-32.583,15.769h0a25.6,25.6,0,0,1-15.769-32.584h0a25.6,25.6,0,0,1,32.583-15.769h0a25.6,25.6,0,0,1,15.769,32.584Z" transform="translate(-1116.605 -247.976)" fill="#cae1f9"/>
      <g id="Grupo_140481" data-name="Grupo 140481" transform="translate(227.098 843.727)">
        <path id="Trazado_182725" data-name="Trazado 182725" d="M490.583,1019.53l-1.551-.118c.3-4,.427-8.049.366-12.034l1.555-.024C491.015,1011.386,490.89,1015.483,490.583,1019.53Zm-1.475,12.091c-.674,4-1.541,8-2.577,11.906l-1.5-.4c1.024-3.857,1.881-7.815,2.547-11.765Zm1.1-36.425-1.546.167c-.43-3.977-1.052-7.979-1.849-11.9l1.524-.31C489.14,987.122,489.77,991.172,490.2,995.2Zm-7.342,59.947c-1.4,3.8-2.989,7.573-4.733,11.227l-1.4-.67c1.724-3.61,3.3-7.342,4.677-11.094Zm2.491-83.8-1.488.45c-1.158-3.826-2.51-7.644-4.017-11.347l1.44-.586C482.814,963.61,484.182,967.474,485.353,971.346Zm-12.981,105.765c-2.074,3.473-4.337,6.891-6.726,10.161l-1.256-.917c2.361-3.231,4.6-6.609,6.647-10.042Zm3.8-128.307-1.38.716c-1.841-3.544-3.873-7.048-6.037-10.416l1.308-.841C472.257,941.671,474.312,945.218,476.175,948.8Zm-18.164,147.964c-2.677,3.032-5.528,5.978-8.475,8.755l-1.066-1.132c2.912-2.744,5.73-5.655,8.376-8.652Zm5-168.44-1.226.958c-2.462-3.151-5.1-6.226-7.841-9.138l1.133-1.066C457.852,922.029,460.521,925.14,463.013,928.329Zm-22.718,185.135c-3.188,2.495-6.53,4.869-9.931,7.058l-.842-1.308c3.361-2.163,6.663-4.511,9.815-6.976ZM446.329,910.6l-1.03,1.165c-3-2.65-6.154-5.19-9.381-7.55l.918-1.256C440.1,905.351,443.3,907.921,446.329,910.6Zm-26.5,216.036c-3.592,1.869-7.312,3.591-11.056,5.118l-.587-1.44c3.7-1.51,7.376-3.211,10.925-5.057ZM426.68,896.23l-.8,1.335c-3.434-2.054-7-3.97-10.61-5.695l.671-1.4C419.592,892.213,423.2,894.152,426.68,896.23Zm-29.389,239.6c-3.874,1.175-7.848,2.181-11.811,2.989l-.311-1.524c3.916-.8,7.843-1.793,11.671-2.953Zm7.428-250.1-.537,1.459c-3.749-1.381-7.61-2.6-11.477-3.632l.4-1.5C397.017,883.093,400.925,884.33,404.718,885.728Zm-31.276,254.966c-4.016.436-8.106.691-12.158.755l-.025-1.555c4-.064,8.047-.315,12.015-.746ZM381.2,879.468,380.94,881c-3.93-.666-7.95-1.158-11.949-1.464l-.3-.022.116-1.551.3.023C373.155,878.3,377.223,878.795,381.2,879.468Zm-31.973,260.067-.119,1.551-.151-.011c-3.993-.306-8.01-.8-11.939-1.456l.258-1.534c3.883.653,7.854,1.136,11.8,1.438Zm7.429-260.366c-4,.068-8.045.324-12.013.76l-.17-1.546c4.016-.441,8.106-.7,12.157-.769Zm-31.148,256.375-.4,1.5c-3.914-1.036-7.823-2.268-11.619-3.662l.536-1.46C317.778,1133.3,321.64,1134.52,325.508,1135.544ZM332.75,881.8c-3.917.8-7.842,1.8-11.668,2.967l-.453-1.488c3.871-1.179,7.844-2.189,11.808-3Zm-29.819,245.457-.669,1.4c-3.652-1.741-7.268-3.676-10.744-5.75l.8-1.336C295.75,1123.622,299.322,1125.534,302.931,1127.255ZM309.743,888.8c-3.7,1.514-7.372,3.22-10.919,5.07l-.72-1.379c3.589-1.873,7.307-3.6,11.05-5.13Zm-27.473,226.13-.917,1.256c-3.267-2.384-6.464-4.951-9.5-7.629l1.029-1.167C275.882,1110.039,279.041,1112.575,282.27,1114.932Zm6.148-215c-3.359,2.168-6.658,4.518-9.806,6.987l-.96-1.224c3.185-2.5,6.524-4.877,9.923-7.07Zm-24.194,199.094-1.132,1.067c-2.777-2.944-5.451-6.052-7.945-9.237l1.224-.959C258.837,1093.041,261.478,1096.112,264.224,1099.022Zm5.263-184.249c-2.909,2.747-5.723,5.661-8.365,8.661l-1.168-1.028c2.674-3.036,5.522-5.985,8.465-8.764Zm-20.1,165.31-1.307.843c-2.193-3.4-4.253-6.947-6.122-10.533l1.379-.719C245.187,1073.218,247.223,1076.72,249.39,1080.083Zm4.2-147.255c-2.358,3.234-4.59,6.615-6.636,10.049l-1.336-.8c2.07-3.475,4.329-6.9,6.715-10.169Zm-15.311,125.923-1.44.588c-1.531-3.748-2.9-7.609-4.078-11.478l1.488-.452C235.408,1051.232,236.764,1055.048,238.276,1058.751Zm3-105.254c-1.72,3.611-3.289,7.345-4.664,11.1l-1.46-.535c1.392-3.8,2.98-7.578,4.72-11.232Zm-9.99,82.243-1.524.312c-.811-3.963-1.445-8.012-1.885-12.036l1.546-.169C229.859,1027.823,230.485,1031.824,231.286,1035.74ZM233,976.079c-1.019,3.859-1.872,7.818-2.533,11.768l-1.534-.257c.669-4,1.532-8,2.563-11.909Zm-4.329,35.754-1.556.025c-.066-4.033.054-8.13.356-12.176l1.551.116C228.723,1003.8,228.605,1007.846,228.671,1011.833Z" transform="translate(-227.098 -877.614)" fill="#bad4fb"/>
      </g>
    </g>
  </g>
</svg>
