<svg xmlns="http://www.w3.org/2000/svg" width="92.209" height="90.636" viewBox="0 0 92.209 90.636">
  <g id="icon6" transform="translate(-1257.291 -3380.603)">
    <path id="Trazado_183264" data-name="Trazado 183264" d="M1475,415.544c0,24.752,17.683,29.092,45.8,29.092s45.408-3.554,45.408-28.306S1548.919,355,1520.8,355,1475,390.792,1475,415.544Z" transform="translate(-217.209 3026.103)" fill="#ff0092" stroke="rgba(0,0,0,0)" stroke-width="1"/>
    <g id="_8" data-name="8" transform="translate(1112.457 3343.395)">
      <path id="Trazado_183282" data-name="Trazado 183282" d="M218.693,84.361H211.85a1.039,1.039,0,0,0-.73,1.777,4.872,4.872,0,0,1,1.473,3.483,5.182,5.182,0,0,1-10.357,0,4.872,4.872,0,0,1,1.473-3.483,1.038,1.038,0,0,0-.73-1.777H195.4a3.068,3.068,0,0,0-1.368.332,3.079,3.079,0,0,0,.331-1.37V77.273a7.385,7.385,0,0,0,3.575.925,7.07,7.07,0,1,0,0-14.136,7.385,7.385,0,0,0-3.575.925V60.876a3.853,3.853,0,0,0-3.849-3.849H167.954a3.853,3.853,0,0,0-3.849,3.849V82.589a3.845,3.845,0,0,0,1.222,2.811,3.839,3.839,0,0,0-1.222,2.811v21.712a3.853,3.853,0,0,0,3.849,3.849h22.559a3.826,3.826,0,0,0,2.811-1.238,3.82,3.82,0,0,0,2.81,1.238h22.559a3.854,3.854,0,0,0,3.851-3.849V88.212A3.854,3.854,0,0,0,218.693,84.361ZM166.18,60.876a1.774,1.774,0,0,1,1.774-1.772h22.559a1.774,1.774,0,0,1,1.772,1.772V67.1a1.038,1.038,0,0,0,1.8.709,5.275,5.275,0,0,1,3.854-1.67,5,5,0,1,1,0,9.984,5.271,5.271,0,0,1-3.854-1.668,1.038,1.038,0,0,0-1.8.707v8.164a1.039,1.039,0,0,1-1.038,1.038h-5.761a6.907,6.907,0,0,0,1-3.584,7.257,7.257,0,0,0-14.509,0,6.9,6.9,0,0,0,1,3.584h-5.027a1.774,1.774,0,0,1-1.774-1.772ZM190.513,111.7H167.954a1.776,1.776,0,0,1-1.774-1.774V88.212a1.775,1.775,0,0,1,1.774-1.774h7.291a1.039,1.039,0,0,0,.655-1.844,4.91,4.91,0,0,1-1.846-3.816,5.182,5.182,0,0,1,10.357,0,4.911,4.911,0,0,1-1.844,3.816,1.038,1.038,0,0,0,.655,1.844h8.026a3.067,3.067,0,0,0,1.368-.331,3.072,3.072,0,0,0-.331,1.368v5.789A7.372,7.372,0,0,0,188.143,92a7.07,7.07,0,1,0,0,14.136,7.371,7.371,0,0,0,4.142-1.264v5.053A1.775,1.775,0,0,1,190.513,111.7Zm29.954-1.774a1.776,1.776,0,0,1-1.774,1.774H196.134a1.775,1.775,0,0,1-1.772-1.774V102.4a1.038,1.038,0,0,0-1.894-.586,5.224,5.224,0,0,1-4.325,2.248,5,5,0,1,1,0-9.984,5.224,5.224,0,0,1,4.325,2.248,1.038,1.038,0,0,0,1.894-.586V87.476a1.039,1.039,0,0,1,1.038-1.038h5.537a6.868,6.868,0,0,0-.775,3.183,7.257,7.257,0,0,0,14.509,0,6.87,6.87,0,0,0-.777-3.183h4.8a1.775,1.775,0,0,1,1.774,1.774Z" transform="translate(0 0)" fill="#fff"/>
      <path id="Trazado_183283" data-name="Trazado 183283" d="M184.568,59.1h3.114a1.038,1.038,0,0,0,0-2.077h-3.114a1.038,1.038,0,1,0,0,2.077Z" transform="translate(12.216 0)" fill="#fff"/>
      <path id="Trazado_183284" data-name="Trazado 183284" d="M198.4,57.027h-.984a1.038,1.038,0,0,0,0,2.077h.984a1.774,1.774,0,0,1,1.772,1.772V61a1.038,1.038,0,0,0,2.077,0v-.127A3.853,3.853,0,0,0,198.4,57.027Z" transform="translate(20.296 0)" fill="#fff"/>
      <path id="Trazado_183285" data-name="Trazado 183285" d="M199.745,62.6a1.04,1.04,0,0,0-1.039,1.039v5.527a1.038,1.038,0,1,0,2.077,0V63.641A1.039,1.039,0,0,0,199.745,62.6Z" transform="translate(21.76 3.506)" fill="#fff"/>
      <path id="Trazado_183286" data-name="Trazado 183286" d="M190.25,59.1h5.528a1.038,1.038,0,1,0,0-2.077H190.25a1.038,1.038,0,0,0,0,2.077Z" transform="translate(15.79 0)" fill="#fff"/>
      <path id="Trazado_183287" data-name="Trazado 183287" d="M199.745,69.772a1.04,1.04,0,0,0-1.039,1.039v3.114a1.038,1.038,0,0,0,2.077,0V70.811A1.039,1.039,0,0,0,199.745,69.772Z" transform="translate(21.76 8.015)" fill="#fff"/>
      <path id="Trazado_183288" data-name="Trazado 183288" d="M199.822,82.146a1.039,1.039,0,0,0-1.039,1.038V90.95a.538.538,0,0,1-.538.538h-5.382a1.038,1.038,0,0,0,0,2.077h5.382a2.617,2.617,0,0,0,2.614-2.614V83.184A1.038,1.038,0,0,0,199.822,82.146Z" transform="translate(17.434 15.797)" fill="#fff"/>
      <path id="Trazado_183289" data-name="Trazado 183289" d="M190.1,87.881h-1.644a1.038,1.038,0,0,0,0,2.077H190.1a1.038,1.038,0,0,0,0-2.077Z" transform="translate(14.661 19.404)" fill="#fff"/>
      <path id="Trazado_183290" data-name="Trazado 183290" d="M167.851,71.153a1.037,1.037,0,0,0,1.038-1.038V62.349a.539.539,0,0,1,.539-.538h5.382a1.038,1.038,0,0,0,0-2.075h-5.382a2.616,2.616,0,0,0-2.614,2.613v7.767A1.037,1.037,0,0,0,167.851,71.153Z" transform="translate(1.703 1.704)" fill="#fff"/>
      <path id="Trazado_183291" data-name="Trazado 183291" d="M175.522,61.811h1.644a1.038,1.038,0,0,0,0-2.075h-1.644a1.038,1.038,0,1,0,0,2.075Z" transform="translate(6.527 1.704)" fill="#fff"/>
      <path id="Trazado_183292" data-name="Trazado 183292" d="M177.232,90.552h-7.767a.538.538,0,0,1-.538-.538V84.633a1.038,1.038,0,0,0-2.077,0v5.382a2.617,2.617,0,0,0,2.614,2.614h7.767a1.038,1.038,0,0,0,0-2.077Z" transform="translate(1.727 16.709)" fill="#fff"/>
      <path id="Trazado_183293" data-name="Trazado 183293" d="M167.889,82.906a1.039,1.039,0,0,0,1.039-1.038V80.225a1.038,1.038,0,0,0-2.077,0v1.644A1.037,1.037,0,0,0,167.889,82.906Z" transform="translate(1.727 13.936)" fill="#fff"/>
    </g>
  </g>
</svg>
