<svg xmlns="http://www.w3.org/2000/svg" width="92.209" height="90.636" viewBox="0 0 92.209 90.636">
  <g id="icon3" transform="translate(-508.291 -3380.603)">
    <path id="Trazado_183261" data-name="Trazado 183261" d="M1475,415.544c0,24.752,17.683,29.092,45.8,29.092s45.408-3.554,45.408-28.306S1548.919,355,1520.8,355,1475,390.792,1475,415.544Z" transform="translate(-966.209 3026.103)" fill="#ff0092" stroke="rgba(0,0,0,0)" stroke-width="1"/>
    <g id="_7" data-name="7" transform="translate(399.619 3331.705)">
      <path id="Trazado_183265" data-name="Trazado 183265" d="M172.693,61.193a26.293,26.293,0,0,0-19.63-6.873c-13.462.838-23.792,11.3-24.027,24.324a25.612,25.612,0,0,0,11.275,21.729,2.45,2.45,0,0,1,1.095,2.015v3.852a5.16,5.16,0,0,0,5.154,5.154h16.293a5.16,5.16,0,0,0,5.154-5.154v-3.847a2.472,2.472,0,0,1,1.112-2.03,25.67,25.67,0,0,0,11.262-21.243A24.326,24.326,0,0,0,172.693,61.193ZM151.072,82.384l3.635-7.27,3.635,7.27Zm-.828,2.679h4.463v12.05a1.34,1.34,0,0,0,2.679,0V85.063h1.784v23.651h-1.784v-5.8a1.34,1.34,0,1,0-2.679,0v5.8h-4.463Zm17.369,13.084a5.15,5.15,0,0,0-2.282,4.244v3.847a2.479,2.479,0,0,1-2.477,2.475h-1V83.722a1.355,1.355,0,0,0-.141-.6l-5.8-11.6a1.34,1.34,0,0,0-2.4,0l-5.8,11.6a1.329,1.329,0,0,0-.143.6v24.992h-1a2.477,2.477,0,0,1-2.475-2.475v-3.852a5.119,5.119,0,0,0-2.269-4.23,22.949,22.949,0,0,1-10.1-19.466c.21-11.618,9.46-20.949,21.516-21.7q.813-.05,1.616-.05a23.135,23.135,0,0,1,16.015,6.2A21.676,21.676,0,0,1,177.7,79.118,22.989,22.989,0,0,1,167.612,98.147Z" fill="#fff"/>
      <path id="Trazado_183266" data-name="Trazado 183266" d="M151.2,70.089a1.342,1.342,0,0,0-1.841.45,16.471,16.471,0,0,1-2.267,2.933,1.34,1.34,0,0,0,1.923,1.866,19.329,19.329,0,0,0,2.635-3.408A1.341,1.341,0,0,0,151.2,70.089Z" transform="translate(19.473 17.21)" fill="#fff"/>
      <path id="Trazado_183267" data-name="Trazado 183267" d="M151.825,61.052a19.366,19.366,0,0,0-7.6-3.528,1.34,1.34,0,0,0-.578,2.616,16.668,16.668,0,0,1,6.541,3.034,1.339,1.339,0,1,0,1.635-2.122Z" transform="translate(14.939 3.553)" fill="#fff"/>
      <path id="Trazado_183268" data-name="Trazado 183268" d="M151.049,63.123a1.339,1.339,0,1,0-2.467,1.042,15.824,15.824,0,0,1,1.227,6.175q0,.457-.025.908a1.339,1.339,0,0,0,1.261,1.412l.078,0a1.342,1.342,0,0,0,1.336-1.265c.019-.349.027-.7.027-1.057A18.485,18.485,0,0,0,151.049,63.123Z" transform="translate(21.413 8.853)" fill="#fff"/>
      <path id="Trazado_183269" data-name="Trazado 183269" d="M134.8,69.846a15.521,15.521,0,0,1,1.109-5.53,1.339,1.339,0,0,0-2.486-1,18.206,18.206,0,0,0-1.3,6.48l0,.355q0,.741.057,1.467a1.336,1.336,0,0,0,1.332,1.238.828.828,0,0,0,.1,0,1.339,1.339,0,0,0,1.233-1.437q-.047-.624-.046-1.263Z" transform="translate(3.397 9.041)" fill="#fff"/>
      <path id="Trazado_183270" data-name="Trazado 183270" d="M143.164,57.583a19.558,19.558,0,0,0-7.514,3.7,1.339,1.339,0,1,0,1.677,2.089,16.9,16.9,0,0,1,6.478-3.185,1.339,1.339,0,1,0-.641-2.6Z" transform="translate(6.735 3.608)" fill="#fff"/>
      <path id="Trazado_183271" data-name="Trazado 183271" d="M135.917,70.68a1.339,1.339,0,1,0-2.255,1.444,19.32,19.32,0,0,0,2.713,3.347,1.339,1.339,0,0,0,1.878-1.91A16.57,16.57,0,0,1,135.917,70.68Z" transform="translate(4.867 17.396)" fill="#fff"/>
      <path id="Trazado_183272" data-name="Trazado 183272" d="M160.322,82.093h-24.1a1.34,1.34,0,0,0-1.341,1.338v8.48a6.257,6.257,0,0,0,6.249,6.249H143a5.338,5.338,0,0,0,10.531,0h1.876a6.256,6.256,0,0,0,6.249-6.249v-8.48A1.339,1.339,0,0,0,160.322,82.093ZM148.269,99.947a2.658,2.658,0,0,1-2.5-1.786h4.995A2.663,2.663,0,0,1,148.269,99.947Zm7.142-4.463H141.127a3.575,3.575,0,0,1-3.57-3.572V84.77h21.424v1.786h-4.463a1.34,1.34,0,0,0,0,2.679h4.463v1.784h-4.463a1.34,1.34,0,0,0,0,2.679h3.967A3.563,3.563,0,0,1,155.411,95.484Z" transform="translate(6.438 30.643)" fill="#fff"/>
      <path id="Trazado_183273" data-name="Trazado 183273" d="M143.464,84.217h-4.911a1.34,1.34,0,0,0,0,2.679h4.911a1.34,1.34,0,0,0,0-2.679Z" transform="translate(9.011 32.982)" fill="#fff"/>
      <path id="Trazado_183274" data-name="Trazado 183274" d="M143.464,86.341h-4.911a1.34,1.34,0,0,0,0,2.679h4.911a1.34,1.34,0,0,0,0-2.679Z" transform="translate(9.011 35.321)" fill="#fff"/>
    </g>
  </g>
</svg>
