<svg xmlns="http://www.w3.org/2000/svg" width="92.209" height="90.636" viewBox="0 0 92.209 90.636">
  <g id="icon5" transform="translate(-999.5 -3380.603)">
    <path id="Trazado_183263" data-name="Trazado 183263" d="M1475,415.544c0,24.752,17.683,29.092,45.8,29.092s45.408-3.554,45.408-28.306S1548.919,355,1520.8,355,1475,390.792,1475,415.544Z" transform="translate(-475 3026.103)" fill="#ff0092" stroke="rgba(0,0,0,0)" stroke-width="1"/>
    <g id="_4" data-name="4" transform="translate(849.638 3382.742)">
      <path id="Trazado_183275" data-name="Trazado 183275" d="M171.4,25.364h-2.381a1.655,1.655,0,0,1,0-3.31H171.4a1.655,1.655,0,1,1,0,3.31Z" transform="translate(0 11.548)" fill="#fff"/>
      <path id="Trazado_183276" data-name="Trazado 183276" d="M184.961,15.885a15.775,15.775,0,0,0-6.454,1.937,1.242,1.242,0,1,0,1.2,2.172,13.286,13.286,0,0,1,5.445-1.633,1.242,1.242,0,0,0-.195-2.476Z" transform="translate(9.961 5.695)" fill="#fff"/>
      <path id="Trazado_183277" data-name="Trazado 183277" d="M195.625,30.411a14.9,14.9,0,0,0-9.607-13.959,1.242,1.242,0,0,0-.9,2.316,12.43,12.43,0,0,1,8.019,11.643,1.242,1.242,0,0,0,2.484,0Z" transform="translate(16.089 6.157)" fill="#fff"/>
      <path id="Trazado_183278" data-name="Trazado 183278" d="M189.254,45.739h-8.968a1.242,1.242,0,0,0,0,2.484h8.968a1.242,1.242,0,0,0,0-2.484Z" transform="translate(11.078 34.007)" fill="#fff"/>
      <path id="Trazado_183279" data-name="Trazado 183279" d="M182.894,14.761a1.655,1.655,0,0,0,1.656-1.656V11.531a1.655,1.655,0,1,0-3.31,0v1.574A1.654,1.654,0,0,0,182.894,14.761Z" transform="translate(13.16)" fill="#fff"/>
      <path id="Trazado_183280" data-name="Trazado 183280" d="M197.943,22.479h-2.4a1.655,1.655,0,0,0,0,3.31h2.4a1.655,1.655,0,0,0,0-3.31Z" transform="translate(25.15 11.951)" fill="#fff"/>
      <path id="Trazado_183281" data-name="Trazado 183281" d="M222.731,45.748l-5.981-2.523a1.627,1.627,0,0,0-.475-.1,21.569,21.569,0,0,0,1.142-6.934,21.055,21.055,0,0,0-1.046-6.569L222.616,27a1.656,1.656,0,1,0-1.282-3.053l-6.262,2.628a20.283,20.283,0,0,0-2.856-4.148c.021-.019.047-.025.066-.045l4.816-4.816a1.655,1.655,0,0,0-2.342-2.34l-4.814,4.814a1.38,1.38,0,0,0-.1.148A21.3,21.3,0,0,0,205.23,17.3a1.718,1.718,0,0,0,.271-.452l1.845-4.682a1.654,1.654,0,1,0-3.078-1.214l-1.847,4.682a1.634,1.634,0,0,0-.109.61,22.974,22.974,0,0,0-8.251-.879,21.945,21.945,0,0,0-4.927.988,1.666,1.666,0,0,0-.107-.618l-1.685-4.331a1.656,1.656,0,0,0-3.086,1.2l1.685,4.331a1.649,1.649,0,0,0,.347.526,21.652,21.652,0,0,0-4.058,2.56,1.746,1.746,0,0,0-.168-.249l-4.545-4.545a1.655,1.655,0,0,0-2.342,2.34l4.547,4.545a1.39,1.39,0,0,0,.125.084,21.053,21.053,0,0,0-3.178,4.44,1.637,1.637,0,0,0-.288-.2l-6.338-2.673a1.655,1.655,0,1,0-1.286,3.049l6.336,2.675a1.55,1.55,0,0,0,.306.062,20.1,20.1,0,0,0-1.153,6.852,21.531,21.531,0,0,0,1.06,6.41,1.417,1.417,0,0,0-.181.035l-5.987,2.513a1.656,1.656,0,0,0,1.282,3.053l5.987-2.513a1.315,1.315,0,0,0,.127-.086,21.547,21.547,0,0,0,3.072,4.563l-4.43,4.43a1.655,1.655,0,0,0,2.342,2.34l4.43-4.43a8.794,8.794,0,0,1,3.109,5.849c0,.035.008.07.014.1l.325,1.732h-.014a2.8,2.8,0,0,0-2.794,2.794v2.691a2.8,2.8,0,0,0,2.794,2.792h.187v5.247a4.478,4.478,0,0,0,4.473,4.473H201.62a4.477,4.477,0,0,0,4.471-4.473V68.681h.189a2.8,2.8,0,0,0,2.794-2.792V63.2A2.8,2.8,0,0,0,206.28,60.4h-.016l.325-1.724a.877.877,0,0,0,.014-.1,10.387,10.387,0,0,1,3.125-5.872c.105-.09.2-.191.3-.282l4.728,4.728a1.655,1.655,0,0,0,2.342-2.34l-4.76-4.761a21.6,21.6,0,0,0,2.7-4.064,1.562,1.562,0,0,0,.423.288l5.983,2.525a1.655,1.655,0,1,0,1.286-3.051ZM203.609,73.928a1.991,1.991,0,0,1-1.989,1.989H190.041a1.991,1.991,0,0,1-1.989-1.989V68.681h15.557ZM206.59,63.2v2.691a.311.311,0,0,1-.31.31h-20.9a.312.312,0,0,1-.312-.31V63.2a.313.313,0,0,1,.312-.312h20.9A.311.311,0,0,1,206.59,63.2ZM191.873,43.023h-1.537a1.542,1.542,0,0,1-1.541-1.539v-.232a1.539,1.539,0,0,1,3.078,0Zm2.283,17.16.1-14.8a5.05,5.05,0,0,1,3.226-.006l.1,14.81a1.181,1.181,0,0,0,.045.222h-3.524A1.361,1.361,0,0,0,194.156,60.183Zm5.63-17.16V41.252a1.539,1.539,0,0,1,3.078,0v.232a1.54,1.54,0,0,1-1.539,1.539Zm8.342,7.783a12.885,12.885,0,0,0-3.99,7.466l-.357,1.9a1.038,1.038,0,0,0,0,.234h-3.762a1.088,1.088,0,0,0,.047-.24l-.1-14.658h1.356a4.027,4.027,0,0,0,4.023-4.023v-.232a4.022,4.022,0,1,0-8.044,0v1.537a5.968,5.968,0,0,0-2.948.023V41.252a4.022,4.022,0,1,0-8.044,0v.232a4.027,4.027,0,0,0,4.023,4.023h1.44l-.1,14.658a1.213,1.213,0,0,0,.047.24h-3.844a1.317,1.317,0,0,0,0-.232l-.358-1.907a11.256,11.256,0,0,0-3.986-7.456,19.092,19.092,0,0,1-6.807-14.429c-.092-9.615,7.608-17.756,17.528-18.537a19.629,19.629,0,0,1,14.888,4.986,17.992,17.992,0,0,1,5.79,13.365A19.064,19.064,0,0,1,208.129,50.806Z" transform="translate(0.362 0.029)" fill="#fff"/>
    </g>
  </g>
</svg>
