<svg xmlns="http://www.w3.org/2000/svg" width="811.896" height="564.487" viewBox="0 0 811.896 564.487">
  <g id="img10" transform="translate(-390.316 -5227.746)">
    <g id="Grupo_141181" data-name="Grupo 141181" transform="translate(31.25 65.204)">
      <g id="Grupo_140553" data-name="Grupo 140553">
        <ellipse id="Elipse_4788" data-name="Elipse 4788" cx="133" cy="134" rx="133" ry="134" transform="translate(615 5367)" fill="#fff"/>
        <circle id="Elipse_4783" data-name="Elipse 4783" cx="69" cy="69" r="69" transform="translate(506 5375)" fill="#fff"/>
        <circle id="Elipse_4784" data-name="Elipse 4784" cx="69" cy="69" r="69" transform="translate(679 5247)" fill="#fff"/>
        <circle id="Elipse_4785" data-name="Elipse 4785" cx="69" cy="69" r="69" transform="translate(852 5375)" fill="#fff"/>
        <circle id="Elipse_4786" data-name="Elipse 4786" cx="69" cy="69" r="69" transform="translate(783 5577)" fill="#fff"/>
        <circle id="Elipse_4787" data-name="Elipse 4787" cx="69" cy="69" r="69" transform="translate(575 5577)" fill="#fff"/>
        <g id="Grupo_140552" data-name="Grupo 140552" transform="translate(764.751 3725.896)">
          <g id="Grupo_140537" data-name="Grupo 140537" transform="translate(-91.009 1640.415)">
            <path id="Trazado_182895" data-name="Trazado 182895" d="M318.892,1956.013a1.828,1.828,0,0,1-1-3.36,133.514,133.514,0,0,1,72.926-21.56,1.828,1.828,0,0,1,0,3.655,129.868,129.868,0,0,0-70.935,20.969A1.817,1.817,0,0,1,318.892,1956.013Z" transform="translate(-317.062 -1931.093)" fill="#282f35"/>
          </g>
          <path id="Trazado_182896" data-name="Trazado 182896" d="M376.988,1672.728a79.817,79.817,0,1,1,56.438-23.378A79.294,79.294,0,0,1,376.988,1672.728Zm0-145.013a65.2,65.2,0,1,0,65.2,65.2A65.27,65.27,0,0,0,376.988,1527.715Z" transform="translate(-394.239)" fill="#ffc82c"/>
          <g id="Grupo_140538" data-name="Grupo 140538" transform="translate(35.654 1645.16)">
            <path id="Trazado_182897" data-name="Trazado 182897" d="M734.724,1968.938a1.828,1.828,0,0,1-.174-3.647l15.479-1.5-5.066-14.7a1.828,1.828,0,1,1,3.455-1.191l5.822,16.892a1.827,1.827,0,0,1-1.551,2.415L734.9,1968.93C734.843,1968.936,734.783,1968.938,734.724,1968.938Z" transform="translate(-732.899 -1946.67)" fill="#282f35"/>
          </g>
          <g id="Grupo_140539" data-name="Grupo 140539" transform="translate(-19.079 1640.415)">
            <path id="Trazado_182898" data-name="Trazado 182898" d="M627.542,1956.387a1.819,1.819,0,0,1-1-.3,129.82,129.82,0,0,0-71.5-21.339,1.828,1.828,0,0,1,0-3.655,133.471,133.471,0,0,1,73.508,21.939,1.828,1.828,0,0,1-1.005,3.355Z" transform="translate(-553.212 -1931.093)" fill="#282f35"/>
          </g>
          <g id="Grupo_140540" data-name="Grupo 140540" transform="translate(64.196 1669.921)">
            <path id="Trazado_182899" data-name="Trazado 182899" d="M870.881,2093.456a1.828,1.828,0,0,1-1.738-1.263,129.864,129.864,0,0,0-41.863-60.983,1.828,1.828,0,0,1,2.3-2.842,133.517,133.517,0,0,1,43.04,62.7,1.829,1.829,0,0,1-1.739,2.393Z" transform="translate(-826.603 -2027.961)" fill="#282f35"/>
          </g>
          <path id="Trazado_182900" data-name="Trazado 182900" d="M943.605,2084.473a80.043,80.043,0,1,1,24.749-3.947A79.458,79.458,0,0,1,943.605,2084.473ZM921.283,1935.66l2.259,6.952a65.2,65.2,0,1,0,49.746,3.915,64.768,64.768,0,0,0-49.746-3.915Z" transform="translate(-788.297 -286.274)" fill="#ff9c31"/>
          <g id="Grupo_140541" data-name="Grupo 140541" transform="translate(101.345 1791.032)">
            <path id="Trazado_182901" data-name="Trazado 182901" d="M957.525,2445.609a1.826,1.826,0,0,1-1.676-1.1l-7.133-16.384a1.828,1.828,0,0,1,3.352-1.459l6.207,14.259,12.416-9.362a1.828,1.828,0,1,1,2.2,2.919l-14.267,10.757A1.825,1.825,0,0,1,957.525,2445.609Z" transform="translate(-948.564 -2425.57)" fill="#282f35"/>
          </g>
          <g id="Grupo_140542" data-name="Grupo 140542" transform="translate(106.646 1731.76)">
            <path id="Trazado_182902" data-name="Trazado 182902" d="M969.624,2310.277a1.83,1.83,0,0,1-1.764-2.311,129.816,129.816,0,0,0-1.8-74.594,1.828,1.828,0,0,1,3.477-1.13,133.468,133.468,0,0,1,1.849,76.689A1.828,1.828,0,0,1,969.624,2310.277Z" transform="translate(-965.97 -2230.98)" fill="#282f35"/>
          </g>
          <g id="Grupo_140543" data-name="Grupo 140543" transform="translate(58.624 1820.075)">
            <path id="Trazado_182903" data-name="Trazado 182903" d="M810.141,2584.059a1.827,1.827,0,0,1-1.076-3.306,129.865,129.865,0,0,0,45.062-58.659,1.827,1.827,0,0,1,3.412,1.309,133.507,133.507,0,0,1-46.326,60.307A1.82,1.82,0,0,1,810.141,2584.059Z" transform="translate(-808.311 -2520.92)" fill="#282f35"/>
          </g>
          <path id="Trazado_182904" data-name="Trazado 182904" d="M727.418,2750.807a80.852,80.852,0,0,1-12.657-1,79.471,79.471,0,1,1,12.657,1Zm-.31-145.045a65.216,65.216,0,1,0,52.883,26.889h0a64.77,64.77,0,0,0-42.546-26.072A66.064,66.064,0,0,0,727.108,2605.762Z" transform="translate(-637.798 -749.675)" fill="#f95fb7"/>
          <g id="Grupo_140544" data-name="Grupo 140544" transform="translate(-12.763 1892.833)">
            <path id="Trazado_182905" data-name="Trazado 182905" d="M590.412,2785.531a1.819,1.819,0,0,1-1.046-.33l-14.64-10.244a1.828,1.828,0,0,1-.164-2.866l13.378-11.847a1.828,1.828,0,1,1,2.424,2.737l-11.643,10.31,12.741,8.915a1.827,1.827,0,0,1-1.05,3.325Z" transform="translate(-573.946 -2759.785)" fill="#282f35"/>
          </g>
          <g id="Grupo_140545" data-name="Grupo 140545" transform="translate(-12.752 1879.56)">
            <path id="Trazado_182906" data-name="Trazado 182906" d="M575.81,2744.974a1.828,1.828,0,0,1-.084-3.653,129.819,129.819,0,0,0,70.387-24.762,1.827,1.827,0,1,1,2.149,2.957,133.47,133.47,0,0,1-72.364,25.457Z" transform="translate(-573.983 -2716.21)" fill="#282f35"/>
          </g>
          <g id="Grupo_140546" data-name="Grupo 140546" transform="translate(-96.781 1879.559)">
            <path id="Trazado_182907" data-name="Trazado 182907" d="M370.634,2744.939c-.032,0-.064,0-.1,0a133.515,133.515,0,0,1-71.671-25.422,1.827,1.827,0,1,1,2.148-2.957,129.871,129.871,0,0,0,69.713,24.729,1.828,1.828,0,0,1-.094,3.653Z" transform="translate(-298.112 -2716.208)" fill="#282f35"/>
          </g>
          <path id="Trazado_182908" data-name="Trazado 182908" d="M26.484,2750.807a79.221,79.221,0,0,1-46.745-15.262,79.817,79.817,0,0,1,34.43-143.407,79.292,79.292,0,0,1,59.4,14.26A79.817,79.817,0,0,1,39.14,2749.807,80.9,80.9,0,0,1,26.484,2750.807ZM26.74,2605.8a65.149,65.149,0,0,0-52.831,26.852,65.2,65.2,0,0,0,14.422,91.065,64.766,64.766,0,0,0,48.521,11.649A64.771,64.771,0,0,0,79.4,2709.293h0a65.2,65.2,0,0,0-14.424-91.066A64.853,64.853,0,0,0,26.74,2605.8Z" transform="translate(-150.604 -749.675)" fill="#20d3d3"/>
          <g id="Grupo_140547" data-name="Grupo 140547" transform="translate(-147.951 1819.429)">
            <path id="Trazado_182909" data-name="Trazado 182909" d="M131.949,2539.543a1.83,1.83,0,0,1-1.748-2.362l5.219-17.089a1.827,1.827,0,0,1,2.675-1.041l15.4,9.062a1.828,1.828,0,0,1-1.854,3.15l-13.4-7.886-4.542,14.872A1.829,1.829,0,0,1,131.949,2539.543Z" transform="translate(-130.121 -2518.799)" fill="#282f35"/>
          </g>
          <g id="Grupo_140548" data-name="Grupo 140548" transform="translate(-142.719 1819.436)">
            <path id="Trazado_182910" data-name="Trazado 182910" d="M195.062,2582.6a1.822,1.822,0,0,1-1.073-.349,133.469,133.469,0,0,1-46.573-60.956,1.828,1.828,0,1,1,3.42-1.291,129.826,129.826,0,0,0,45.3,59.29,1.827,1.827,0,0,1-1.076,3.306Z" transform="translate(-147.298 -2518.823)" fill="#282f35"/>
          </g>
          <g id="Grupo_140549" data-name="Grupo 140549" transform="translate(-151.305 1731.76)">
            <path id="Trazado_182911" data-name="Trazado 182911" d="M125.434,2309.616a1.828,1.828,0,0,1-1.764-1.355,133.512,133.512,0,0,1,2.03-76.019,1.827,1.827,0,0,1,3.476,1.129,129.865,129.865,0,0,0-1.977,73.943,1.83,1.83,0,0,1-1.766,2.3Z" transform="translate(-119.109 -2230.978)" fill="#282f35"/>
          </g>
          <path id="Trazado_182912" data-name="Trazado 182912" d="M-189.811,2084.477a80,80,0,0,1-24.748-3.947,79.294,79.294,0,0,1-46.453-39.674,79.293,79.293,0,0,1-4.793-60.9A79.292,79.292,0,0,1-226.13,1933.5a79.3,79.3,0,0,1,60.9-4.793,79.3,79.3,0,0,1,46.453,39.674,79.289,79.289,0,0,1,4.793,60.9,79.293,79.293,0,0,1-39.674,46.453A79.464,79.464,0,0,1-189.811,2084.477Zm-.038-145.058a65.309,65.309,0,0,0-62.051,45.054,64.766,64.766,0,0,0,3.915,49.745,64.767,64.767,0,0,0,37.943,32.407,64.77,64.77,0,0,0,49.745-3.915,64.772,64.772,0,0,0,32.407-37.944,65.269,65.269,0,0,0-41.859-82.15A64.984,64.984,0,0,0-189.848,1939.419Z" transform="translate(0 -286.276)" fill="#b358f9"/>
          <g id="Grupo_140550" data-name="Grupo 140550" transform="translate(-119.681 1669.477)">
            <path id="Trazado_182913" data-name="Trazado 182913" d="M238.766,2047.606a1.83,1.83,0,0,1-1.786-2.223l3.359-15.185-15.548.276a1.828,1.828,0,0,1-.065-3.655l17.865-.317a1.808,1.808,0,0,1,1.447.67,1.828,1.828,0,0,1,.37,1.551l-3.86,17.448A1.829,1.829,0,0,1,238.766,2047.606Z" transform="translate(-222.931 -2026.502)" fill="#282f35"/>
          </g>
          <g id="Grupo_140551" data-name="Grupo 140551" transform="translate(-144.804 1669.492)">
            <path id="Trazado_182914" data-name="Trazado 182914" d="M142.28,2092.477a1.829,1.829,0,0,1-1.738-2.393,133.467,133.467,0,0,1,43.58-63.13,1.828,1.828,0,1,1,2.285,2.853,129.819,129.819,0,0,0-42.389,61.406A1.828,1.828,0,0,1,142.28,2092.477Z" transform="translate(-140.451 -2026.553)" fill="#282f35"/>
          </g>
          <path id="Trazado_182915" data-name="Trazado 182915" d="M1099.288,2156.794l-4.339-1.736a.892.892,0,0,0-.322-.062h-32.112a.869.869,0,0,0-.869.868v3.473a.868.868,0,0,0,.869.867h32.112a.886.886,0,0,0,.322-.061l4.339-1.737a.868.868,0,0,0,0-1.612Zm-32.434,1.674h-3.472v-1.735h3.472Zm26.037,0h-24.3v-1.735h24.3Zm1.736-.067v-1.6l2,.8Zm-31.245-22.5v4.34a.869.869,0,0,0,.536.8.851.851,0,0,0,.332.066.865.865,0,0,0,.612-.254l4.955-4.954h3.112v9.547a2.607,2.607,0,0,0,2.6,2.6h12.659l4.953,4.953a.87.87,0,0,0,.614.254.854.854,0,0,0,.332-.066.868.868,0,0,0,.536-.8v-4.339h1.736a2.607,2.607,0,0,0,2.6-2.6V2133.3a2.606,2.606,0,0,0-2.6-2.6H1085.08v-9.547a2.607,2.607,0,0,0-2.6-2.6h-20.831a2.607,2.607,0,0,0-2.6,2.6V2133.3a2.606,2.606,0,0,0,2.6,2.6Zm32.981-3.471a.868.868,0,0,1,.867.867v12.151a.869.869,0,0,1-.867.868h-2.6a.868.868,0,0,0-.867.869v3.112l-3.726-3.727a.875.875,0,0,0-.614-.254h-13.019a.869.869,0,0,1-.868-.868V2133.3a.868.868,0,0,1,.868-.867Zm-35.583.867v-12.151a.867.867,0,0,1,.866-.867h20.831a.868.868,0,0,1,.867.867v9.547h-7.811a2.605,2.605,0,0,0-2.6,2.6v.868h-3.473a.865.865,0,0,0-.612.255l-3.727,3.726v-3.112a.868.868,0,0,0-.867-.869h-2.6A.867.867,0,0,1,1060.779,2133.3Zm7.809-7.811a.868.868,0,1,0-.867-.867A.868.868,0,0,0,1068.589,2125.487Zm3.473,0a.868.868,0,1,0-.869-.867A.869.869,0,0,0,1072.062,2125.487Zm3.471,0a.868.868,0,1,0-.868-.867A.868.868,0,0,0,1075.533,2125.487Zm-10.415,3.473H1079a.868.868,0,0,0,0-1.737h-13.887a.868.868,0,0,0,0,1.737ZM1079,2141.978h13.887a.868.868,0,0,0,0-1.735H1079a.868.868,0,0,0,0,1.735Zm0-3.471h13.887a.868.868,0,0,0,0-1.736H1079a.868.868,0,0,0,0,1.736Z" transform="translate(-924.046 -421.032)" fill="#abadb2"/>
          <path id="Trazado_182916" data-name="Trazado 182916" d="M881.861,2820.693l-9.636-9.636a.864.864,0,0,0-1.223,0l-1.224,1.223-1.266-1.266a15.466,15.466,0,0,0,2.211-17.549.441.441,0,0,0-.018-.065c-.008-.015-.023-.023-.031-.037a15.591,15.591,0,1,0-3.385,18.875l1.265,1.265-1.223,1.223a.863.863,0,0,0,0,1.223l9.639,9.639a3.46,3.46,0,1,0,4.891-4.894Zm-11.138-20.908h-10.3l9.116-4.795A13.736,13.736,0,0,1,870.723,2799.785Zm-12.932-12.93a13.829,13.829,0,0,1,10.938,6.606l-10.937,5.758Zm8.967,23.521c-.019.018-.045.024-.064.044s-.025.042-.043.063a13.83,13.83,0,1,1-10.591-23.628v13.8c0,.011.008.023.009.034a.819.819,0,0,0,.033.169.878.878,0,0,0,.049.166c0,.01,0,.023.009.033a.829.829,0,0,0,.15.2c.008.008.019.014.027.021a.865.865,0,0,0,.216.147c.025.012.05.022.075.031a.837.837,0,0,0,.295.06h13.8A13.784,13.784,0,0,1,866.758,2810.375Zm2.407,4.961,2.448-2.445,1.061,1.062-2.447,2.448Zm11.474,9.028a1.777,1.777,0,0,1-2.447,0l-6.741-6.741,2.447-2.446,6.741,6.739a1.734,1.734,0,0,1,0,2.448Zm-35.823-8.144a.865.865,0,0,0-.865.865v8.649a.865.865,0,1,0,1.73,0v-8.649A.865.865,0,0,0,844.816,2816.22Zm-2.594,5.189a.865.865,0,0,0-.865.865v3.46a.864.864,0,1,0,1.729,0v-3.46A.864.864,0,0,0,842.222,2821.41Zm5.189-2.595a.866.866,0,0,0-.865.865v6.055a.865.865,0,1,0,1.73,0v-6.055A.864.864,0,0,0,847.411,2818.815Zm5.19,2.595a.865.865,0,0,0-.865.865v3.46a.865.865,0,1,0,1.729,0v-3.46A.865.865,0,0,0,852.6,2821.41Zm5.19-1.73a.866.866,0,0,0-.866.866v5.189a.865.865,0,1,0,1.731,0v-5.189A.865.865,0,0,0,857.791,2819.679Zm-7.784-3.459a.865.865,0,0,0-.866.865v8.649a.865.865,0,1,0,1.73,0v-8.649A.864.864,0,0,0,850.007,2816.22Zm5.189,1.729a.865.865,0,0,0-.864.866v6.92a.864.864,0,1,0,1.729,0v-6.92A.865.865,0,0,0,855.2,2817.949Z" transform="translate(-772.667 -884.544)" fill="#abadb2"/>
          <path id="Trazado_182917" data-name="Trazado 182917" d="M-35.1,2141.83a2.672,2.672,0,0,0,1-2.086,2.673,2.673,0,0,0-1-2.086l-1.193-.963a.959.959,0,0,1-.241-1.2l.733-1.348a2.674,2.674,0,0,0,.123-2.31,2.672,2.672,0,0,0-1.719-1.544l-1.47-.434a.959.959,0,0,1-.683-1.022l.162-1.525a2.671,2.671,0,0,0-.771-2.18,2.672,2.672,0,0,0-2.179-.77l-1.526.163a.964.964,0,0,1-1.02-.683l-.435-1.473a2.669,2.669,0,0,0-1.545-1.718,2.672,2.672,0,0,0-2.308.122l-1.349.734a.955.955,0,0,1-1.2-.24l-.964-1.193a2.669,2.669,0,0,0-2.086-1,2.667,2.667,0,0,0-2.086,1l-.963,1.193a.957.957,0,0,1-1.205.24l-1.348-.734a2.671,2.671,0,0,0-2.308-.122,2.672,2.672,0,0,0-1.546,1.718l-.433,1.473a.962.962,0,0,1-1.022.683l-1.525-.163a2.673,2.673,0,0,0-2.178.77,2.667,2.667,0,0,0-.772,2.18l.162,1.525a.96.96,0,0,1-.684,1.022l-1.47.434a2.672,2.672,0,0,0-1.719,1.544,2.682,2.682,0,0,0,.122,2.311l.735,1.347a.959.959,0,0,1-.241,1.2l-1.193.964a2.67,2.67,0,0,0-1,2.086,2.67,2.67,0,0,0,1,2.086l1.193.963a.96.96,0,0,1,.24,1.206l-.734,1.347a2.678,2.678,0,0,0-.122,2.309,2.675,2.675,0,0,0,1.719,1.545l1.47.434a.961.961,0,0,1,.684,1.022l-.162,1.525a2.67,2.67,0,0,0,.772,2.18,2.675,2.675,0,0,0,2.178.77l1.527-.162a.966.966,0,0,1,1.021.682l.433,1.472a2.67,2.67,0,0,0,1.546,1.718,2.671,2.671,0,0,0,2.308-.123l1.348-.733a.96.96,0,0,1,1.205.24l.963,1.193a2.665,2.665,0,0,0,2.086,1,2.668,2.668,0,0,0,2.086-1l.964-1.194a.965.965,0,0,1,1.205-.24l1.348.734a2.672,2.672,0,0,0,2.308.123,2.667,2.667,0,0,0,1.545-1.718l.435-1.472a.957.957,0,0,1,1.02-.682l1.526.162a2.671,2.671,0,0,0,2.179-.77,2.674,2.674,0,0,0,.771-2.18l-.162-1.525a.959.959,0,0,1,.683-1.022l1.47-.434a2.676,2.676,0,0,0,1.719-1.545,2.674,2.674,0,0,0-.123-2.31l-.733-1.345a.96.96,0,0,1,.241-1.206Zm-2.945,2.993.733,1.345a.957.957,0,0,1,.043.827.951.951,0,0,1-.614.551l-1.472.435a2.681,2.681,0,0,0-1.907,2.855l.162,1.525a.948.948,0,0,1-.276.781.964.964,0,0,1-.779.275l-1.525-.162a2.688,2.688,0,0,0-2.855,1.907l-.435,1.473a.954.954,0,0,1-.552.614.961.961,0,0,1-.826-.044l-1.348-.734a2.686,2.686,0,0,0-3.367.67l-.965,1.193a.989.989,0,0,1-1.492,0l-.964-1.193a2.676,2.676,0,0,0-2.086-1,2.679,2.679,0,0,0-1.281.326l-1.348.733a.961.961,0,0,1-.826.044.957.957,0,0,1-.553-.614l-.433-1.473a2.67,2.67,0,0,0-2.854-1.907l-1.527.162a.963.963,0,0,1-.779-.275.951.951,0,0,1-.275-.781l.162-1.525a2.683,2.683,0,0,0-1.909-2.855l-1.471-.435a.95.95,0,0,1-.614-.551.954.954,0,0,1,.043-.826l.733-1.348a2.68,2.68,0,0,0-.67-3.367l-1.193-.964a.953.953,0,0,1-.356-.745.954.954,0,0,1,.356-.745l1.193-.965a2.681,2.681,0,0,0,.67-3.368l-.733-1.346a.957.957,0,0,1-.043-.827.955.955,0,0,1,.614-.552l1.471-.434a2.683,2.683,0,0,0,1.909-2.855l-.162-1.525a.95.95,0,0,1,.275-.78.961.961,0,0,1,.779-.275l1.527.162a2.68,2.68,0,0,0,2.854-1.907l.433-1.472a.957.957,0,0,1,.553-.614.966.966,0,0,1,.826.043l1.347.733a2.681,2.681,0,0,0,3.368-.669l.964-1.193a.99.99,0,0,1,1.492,0l.965,1.193a2.674,2.674,0,0,0,3.368.67l1.347-.733a.957.957,0,0,1,.826-.043.954.954,0,0,1,.552.614l.435,1.472a2.677,2.677,0,0,0,2.855,1.907l1.525-.162a.953.953,0,0,1,.778.275.947.947,0,0,1,.276.78l-.162,1.525a2.681,2.681,0,0,0,1.907,2.855l1.472.434a.957.957,0,0,1,.614.552.953.953,0,0,1-.043.825l-.733,1.348a2.683,2.683,0,0,0,.67,3.369l1.192.964a.95.95,0,0,1,.357.745.949.949,0,0,1-.357.745l-1.192.965A2.682,2.682,0,0,0-38.041,2144.823Zm-11.884-17.059a.863.863,0,0,0,1.122-.475.864.864,0,0,0-.475-1.122,14.556,14.556,0,0,0-5.493-1.065,14.656,14.656,0,0,0-14.612,13.727.86.86,0,0,0,.806.913l.054,0a.862.862,0,0,0,.859-.808,12.932,12.932,0,0,1,12.894-12.111A12.826,12.826,0,0,1-49.925,2127.764Zm-17.357,15.21a.861.861,0,0,0-1.048-.619.86.86,0,0,0-.619,1.05,14.628,14.628,0,0,0,.6,1.83.864.864,0,0,0,.8.539.871.871,0,0,0,.323-.063.862.862,0,0,0,.476-1.122A12.992,12.992,0,0,1-67.282,2142.974Zm26.32-3.228a.867.867,0,0,0-.913.806,12.933,12.933,0,0,1-12.894,12.111,12.849,12.849,0,0,1-4.844-.939.86.86,0,0,0-1.121.475.861.861,0,0,0,.475,1.121,14.555,14.555,0,0,0,5.49,1.065,14.657,14.657,0,0,0,14.614-13.727A.861.861,0,0,0-40.962,2139.746Zm-1.3-3.232a.861.861,0,0,0,.833.645.882.882,0,0,0,.215-.027.861.861,0,0,0,.619-1.05,14.449,14.449,0,0,0-.6-1.829.862.862,0,0,0-1.122-.475.861.861,0,0,0-.475,1.121A12.748,12.748,0,0,1-42.257,2136.514Zm-6.484,10.12a.86.86,0,0,0,.862-.861v-1.723a4.312,4.312,0,0,0-4.3-4.306h-.33a3.429,3.429,0,0,0,1.191-2.584v-1.723a3.45,3.45,0,0,0-3.447-3.444,3.448,3.448,0,0,0-3.445,3.444v1.723a3.43,3.43,0,0,0,1.19,2.584h-.328a4.311,4.311,0,0,0-4.306,4.306v1.723a.861.861,0,0,0,.861.861Zm-7.75-11.2a1.724,1.724,0,0,1,1.722-1.722,1.724,1.724,0,0,1,1.723,1.722v1.723a1.725,1.725,0,0,1-1.723,1.723,1.724,1.724,0,0,1-1.722-1.723Zm-3.446,8.613a2.587,2.587,0,0,1,2.584-2.584h5.169a2.587,2.587,0,0,1,2.583,2.584v.861H-59.937Z" transform="translate(-135.125 -421.4)" fill="#abadb2"/>
          <path id="Trazado_182918" data-name="Trazado 182918" d="M531.828,1732.738h-.861v-8.613a4.311,4.311,0,0,0-4.307-4.306h-5.672l-6.637-6.637a.862.862,0,0,0-1.218,0l-1.544,1.545-1.545-1.545a.862.862,0,0,0-1.218,0l-6.637,6.637h-6.533a4.312,4.312,0,0,0-4.307,4.306v2.585a.851.851,0,0,0,.058.287,4.133,4.133,0,0,0-.058.574v18.947a4.312,4.312,0,0,0,4.307,4.306h31a4.311,4.311,0,0,0,4.307-4.306v-5.167h.861a.861.861,0,0,0,.861-.862v-6.89A.861.861,0,0,0,531.828,1732.738Zm-5.168-11.2a2.586,2.586,0,0,1,2.584,2.583v.023a4.264,4.264,0,0,0-2.584-.883h-2.227l-1.723-1.723Zm-12.919-6.534,8.256,8.257h-1.869l-7.321-7.32Zm-4.306,0,8.256,8.257H501.18Zm-16.364,9.117a2.586,2.586,0,0,1,2.585-2.583h4.811l-1.723,1.723h-3.088a4.269,4.269,0,0,0-2.585.883Zm36.172,22.393a2.586,2.586,0,0,1-2.584,2.584h-31a2.587,2.587,0,0,1-2.585-2.584v-18.947a2.587,2.587,0,0,1,2.585-2.584h31a2.586,2.586,0,0,1,2.584,2.584v5.167h-4.306a4.307,4.307,0,0,0,0,8.613h4.306Zm1.723-6.889h-6.029a2.584,2.584,0,0,1,0-5.168h6.029Zm-6.89-2.585a.861.861,0,1,0,.861-.86A.862.862,0,0,0,524.077,1737.043Zm-24.976,8.613h-1.723a.862.862,0,0,0,0,1.723H499.1a.862.862,0,0,0,0-1.723Zm0-18.947h-1.723a.861.861,0,0,0,0,1.722H499.1a.861.861,0,1,0,0-1.722Zm18.948,1.722h1.723a.861.861,0,1,0,0-1.722h-1.723a.861.861,0,1,0,0,1.722Zm5.167,0h1.723a.861.861,0,0,0,0-1.722h-1.723a.861.861,0,0,0,0,1.722Zm0,17.224a.862.862,0,0,0,0,1.723h1.723a.862.862,0,0,0,0-1.723ZM514.6,1726.71H512.88a.861.861,0,0,0,0,1.722H514.6a.861.861,0,0,0,0-1.722Zm5.168,18.947h-1.723a.862.862,0,0,0,0,1.723h1.723a.862.862,0,0,0,0-1.723Zm-15.5,0h-1.722a.862.862,0,1,0,0,1.723h1.722a.862.862,0,0,0,0-1.723Zm10.335,0H512.88a.862.862,0,0,0,0,1.723H514.6a.862.862,0,0,0,0-1.723Zm-5.167-18.947h-1.722a.861.861,0,0,0,0,1.722h1.722a.861.861,0,1,0,0-1.722Zm-5.167,0h-1.722a.861.861,0,1,0,0,1.722h1.722a.861.861,0,1,0,0-1.722Zm5.167,18.947h-1.722a.862.862,0,0,0,0,1.723h1.722a.862.862,0,0,0,0-1.723Z" transform="translate(-529.271 -138.966)" fill="#abadb2"/>
          <path id="Trazado_182919" data-name="Trazado 182919" d="M179.813,2785.377h-36.17a2.587,2.587,0,0,0-2.584,2.584v36.171a2.588,2.588,0,0,0,2.584,2.584h36.17a2.588,2.588,0,0,0,2.585-2.584v-36.171A2.587,2.587,0,0,0,179.813,2785.377Zm.864,38.755a.864.864,0,0,1-.864.861h-36.17a.863.863,0,0,1-.862-.861v-36.171a.863.863,0,0,1,.862-.863h36.17a.863.863,0,0,1,.864.863Zm-2.586-35.31H148.81a.862.862,0,0,0-.863.862v4.306h-2.582a.859.859,0,0,0-.861.86v3.446a.861.861,0,0,0,.861.862h2.582v13.778h-2.582a.861.861,0,0,0-.861.861v3.446a.86.86,0,0,0,.861.86h2.582v4.306a.863.863,0,0,0,.863.862h29.281a.86.86,0,0,0,.861-.862v-32.725A.86.86,0,0,0,178.091,2788.823Zm-31.865,8.611v-1.722h4.306v1.722Zm0,18.948v-1.723h4.306v1.723Zm31.006,5.167H149.671V2818.1h1.723a.861.861,0,0,0,.862-.86V2813.8a.863.863,0,0,0-.862-.861h-1.723v-13.778h1.723a.863.863,0,0,0,.862-.862v-3.446a.861.861,0,0,0-.862-.86h-1.723v-3.446h27.561Zm-13.782-6.89a8.613,8.613,0,1,0-8.612-8.612A8.621,8.621,0,0,0,163.45,2814.659Zm.863-1.782v-4.4a2.6,2.6,0,0,0,1.565-1.563h4.4A6.9,6.9,0,0,1,164.313,2812.876Zm0-13.659a6.9,6.9,0,0,1,5.968,5.968h-4.4a2.591,2.591,0,0,0-1.565-1.563Zm-.863,5.968a.862.862,0,1,1-.859.862A.863.863,0,0,1,163.45,2805.185Zm-.859-5.968v4.4a2.575,2.575,0,0,0-1.565,1.563H156.62A6.9,6.9,0,0,1,162.591,2799.217Zm-1.565,7.691a2.578,2.578,0,0,0,1.565,1.563v4.4a6.9,6.9,0,0,1-5.971-5.968Zm5.008,9.473h-5.167a.861.861,0,0,0,0,1.721h5.167a.861.861,0,1,0,0-1.721Z" transform="translate(-285.678 -884.749)" fill="#abadb2"/>
        </g>
      </g>
      <path id="Trazado_184886" data-name="Trazado 184886" d="M16.426,11.57a6.867,6.867,0,0,1-.594,2.945,4.472,4.472,0,0,1-1.7,1.953,4.7,4.7,0,0,1-2.535.688,4.732,4.732,0,0,1-2.523-.68,4.515,4.515,0,0,1-1.719-1.941,6.67,6.67,0,0,1-.617-2.9V11.07a6.831,6.831,0,0,1,.605-2.957A4.508,4.508,0,0,1,9.055,6.152a4.706,4.706,0,0,1,2.527-.684,4.706,4.706,0,0,1,2.527.684A4.508,4.508,0,0,1,15.82,8.113a6.811,6.811,0,0,1,.605,2.949Zm-2.375-.516a4.787,4.787,0,0,0-.641-2.719,2.088,2.088,0,0,0-1.828-.93,2.088,2.088,0,0,0-1.82.918,4.732,4.732,0,0,0-.648,2.691v.555a4.847,4.847,0,0,0,.641,2.7,2.082,2.082,0,0,0,1.844.961,2.064,2.064,0,0,0,1.813-.926,4.819,4.819,0,0,0,.641-2.7Zm8.68-.391a6.134,6.134,0,0,0-.812-.062,1.654,1.654,0,0,0-1.68.867V17H17.98V8.547h2.133l.063,1.008a2.092,2.092,0,0,1,1.883-1.164,2.366,2.366,0,0,1,.7.1ZM26.2,17H23.934V8.547H26.2ZM23.8,6.359a1.112,1.112,0,0,1,.34-.836,1.465,1.465,0,0,1,1.848,0,1.105,1.105,0,0,1,.344.836,1.108,1.108,0,0,1-.348.844,1.448,1.448,0,0,1-1.836,0A1.108,1.108,0,0,1,23.8,6.359Zm3.93,6.352a4.954,4.954,0,0,1,.926-3.133,3,3,0,0,1,2.5-1.187,2.631,2.631,0,0,1,2.164.953l.094-.8h2.047v8.172a3.613,3.613,0,0,1-.5,1.93,3.236,3.236,0,0,1-1.418,1.25,4.985,4.985,0,0,1-2.141.43,4.635,4.635,0,0,1-1.812-.371A3.217,3.217,0,0,1,28.246,19l1-1.375a2.645,2.645,0,0,0,2.047.945,1.936,1.936,0,0,0,1.4-.48,1.8,1.8,0,0,0,.5-1.363v-.453a2.612,2.612,0,0,1-2.055.883,2.992,2.992,0,0,1-2.465-1.191,4.953,4.953,0,0,1-.941-3.16Zm2.258.168a3.085,3.085,0,0,0,.461,1.8,1.466,1.466,0,0,0,1.266.653,1.568,1.568,0,0,0,1.477-.775V11a1.564,1.564,0,0,0-1.461-.775,1.476,1.476,0,0,0-1.277.665A3.477,3.477,0,0,0,29.988,12.879Zm11.094,4.277a4.15,4.15,0,0,1-3.027-1.141,4.054,4.054,0,0,1-1.168-3.039v-.219a5.106,5.106,0,0,1,.492-2.277,3.612,3.612,0,0,1,1.395-1.547,3.914,3.914,0,0,1,2.059-.543,3.508,3.508,0,0,1,2.73,1.094,4.444,4.444,0,0,1,1,3.1v.922H39.176a2.1,2.1,0,0,0,.66,1.328,2,2,0,0,0,1.395.5,2.437,2.437,0,0,0,2.039-.945l1.109,1.242A3.389,3.389,0,0,1,43,16.754,4.511,4.511,0,0,1,41.082,17.156Zm-.258-6.945a1.411,1.411,0,0,0-1.09.455,2.357,2.357,0,0,0-.535,1.3H42.34v-.181a1.681,1.681,0,0,0-.406-1.165A1.456,1.456,0,0,0,40.824,10.211Zm7.094-1.664.07.977a2.951,2.951,0,0,1,2.43-1.133,2.453,2.453,0,0,1,2,.789,3.682,3.682,0,0,1,.672,2.359V17H50.832V11.594a1.465,1.465,0,0,0-.312-1.043,1.4,1.4,0,0,0-1.039-.324,1.553,1.553,0,0,0-1.43.813V17H45.793V8.547ZM14.574,36.836H12.707V41H10.363V29.625H14.59a4.778,4.778,0,0,1,3.109.9,3.1,3.1,0,0,1,1.094,2.539,3.5,3.5,0,0,1-.5,1.941,3.437,3.437,0,0,1-1.527,1.238l2.461,4.648V41H16.707Zm-1.867-1.9H14.6a1.936,1.936,0,0,0,1.367-.449,1.606,1.606,0,0,0,.484-1.238,1.719,1.719,0,0,0-.457-1.266,1.9,1.9,0,0,0-1.4-.461H12.707Zm11.609,6.219a4.15,4.15,0,0,1-3.027-1.141,4.054,4.054,0,0,1-1.168-3.039v-.219a5.106,5.106,0,0,1,.492-2.277,3.612,3.612,0,0,1,1.395-1.547,3.914,3.914,0,0,1,2.059-.543,3.508,3.508,0,0,1,2.73,1.094,4.444,4.444,0,0,1,1,3.1v.922H22.41a2.1,2.1,0,0,0,.66,1.328,2,2,0,0,0,1.395.5,2.437,2.437,0,0,0,2.039-.945l1.109,1.242a3.389,3.389,0,0,1-1.375,1.121A4.511,4.511,0,0,1,24.316,41.156Zm-.258-6.945a1.411,1.411,0,0,0-1.09.455,2.357,2.357,0,0,0-.535,1.3h3.141v-.181a1.681,1.681,0,0,0-.406-1.165A1.456,1.456,0,0,0,24.059,34.211Zm7.719-3.742v2.078h1.445V34.2H31.777v4.219a1.007,1.007,0,0,0,.18.672.9.9,0,0,0,.688.2,3.6,3.6,0,0,0,.664-.055v1.711a4.648,4.648,0,0,1-1.367.2,2.156,2.156,0,0,1-2.422-2.4V34.2H28.285V32.547H29.52V30.469ZM33.895,36.7a5.013,5.013,0,0,1,.484-2.242,3.546,3.546,0,0,1,1.395-1.523,4.069,4.069,0,0,1,2.113-.539,3.849,3.849,0,0,1,2.793,1.047,4.2,4.2,0,0,1,1.207,2.844l.016.578a4.418,4.418,0,0,1-1.086,3.121,4.209,4.209,0,0,1-5.832,0,4.5,4.5,0,0,1-1.09-3.187Zm2.258.16a3.16,3.16,0,0,0,.453,1.843,1.628,1.628,0,0,0,2.578.008,3.457,3.457,0,0,0,.461-2.015,3.128,3.128,0,0,0-.461-1.831,1.5,1.5,0,0,0-1.3-.649,1.474,1.474,0,0,0-1.281.646A3.516,3.516,0,0,0,36.152,36.856Zm11.719,1.808a.727.727,0,0,0-.41-.652,4.659,4.659,0,0,0-1.316-.426q-3.016-.633-3.016-2.562a2.323,2.323,0,0,1,.934-1.879,3.766,3.766,0,0,1,2.441-.754,4.053,4.053,0,0,1,2.574.758,2.388,2.388,0,0,1,.965,1.969H47.785a1.092,1.092,0,0,0-.312-.8A1.322,1.322,0,0,0,46.5,34a1.351,1.351,0,0,0-.883.258.814.814,0,0,0-.312.656.7.7,0,0,0,.355.605,3.657,3.657,0,0,0,1.2.4,9.8,9.8,0,0,1,1.422.379,2.336,2.336,0,0,1,1.789,2.273,2.205,2.205,0,0,1-.992,1.871,4.28,4.28,0,0,1-2.562.715,4.47,4.47,0,0,1-1.887-.379,3.166,3.166,0,0,1-1.293-1.039,2.414,2.414,0,0,1-.469-1.426H45a1.179,1.179,0,0,0,.445.922,1.766,1.766,0,0,0,1.109.32,1.635,1.635,0,0,0,.98-.246A.766.766,0,0,0,47.871,38.664Z" transform="translate(718 5483)" fill="#12263f"/>
    </g>
    <path id="Trazado_184887" data-name="Trazado 184887" d="M16.186,19H13.119L8.583,11.037V19H5.5V6.2H8.583l4.526,7.963V6.2h3.076Zm6.416.176a4.889,4.889,0,0,1-3.542-1.305,4.507,4.507,0,0,1-1.354-3.4v-.246a5.84,5.84,0,0,1,.541-2.575,3.955,3.955,0,0,1,1.578-1.727,4.763,4.763,0,0,1,2.461-.611,4.117,4.117,0,0,1,3.164,1.244,4.887,4.887,0,0,1,1.16,3.467v1.151H20.721a2.135,2.135,0,0,0,.694,1.257,2.066,2.066,0,0,0,1.389.457,2.662,2.662,0,0,0,2.2-.984l1.354,1.6a3.784,3.784,0,0,1-1.569,1.217A5.3,5.3,0,0,1,22.6,19.176ZM22.268,11.6q-1.3,0-1.547,1.723h2.988v-.229a1.467,1.467,0,0,0-.36-1.1A1.434,1.434,0,0,0,22.268,11.6Zm9.554,5.291a1.317,1.317,0,0,0,.967-.338,1.241,1.241,0,0,0,.334-.945H35.9a3.288,3.288,0,0,1-1.121,2.566,4.168,4.168,0,0,1-2.887,1,4.22,4.22,0,0,1-3.27-1.3,5.125,5.125,0,0,1-1.2-3.6v-.123a5.792,5.792,0,0,1,.532-2.544,3.872,3.872,0,0,1,1.534-1.7,4.573,4.573,0,0,1,2.373-.593,4.116,4.116,0,0,1,2.944,1.028,3.647,3.647,0,0,1,1.09,2.786H33.123A1.626,1.626,0,0,0,32.762,12a1.244,1.244,0,0,0-.967-.4q-1.151,0-1.345,1.468a10.357,10.357,0,0,0-.062,1.283,4.068,4.068,0,0,0,.343,1.986A1.187,1.187,0,0,0,31.822,16.891Zm9.932,2.285a4.889,4.889,0,0,1-3.542-1.305,4.507,4.507,0,0,1-1.354-3.4v-.246a5.84,5.84,0,0,1,.541-2.575,3.955,3.955,0,0,1,1.578-1.727,4.763,4.763,0,0,1,2.461-.611A4.117,4.117,0,0,1,44.6,10.558a4.887,4.887,0,0,1,1.16,3.467v1.151H39.873a2.135,2.135,0,0,0,.694,1.257,2.066,2.066,0,0,0,1.389.457,2.662,2.662,0,0,0,2.2-.984l1.354,1.6a3.784,3.784,0,0,1-1.569,1.217A5.3,5.3,0,0,1,41.753,19.176ZM41.419,11.6q-1.3,0-1.547,1.723h2.988v-.229a1.467,1.467,0,0,0-.36-1.1A1.434,1.434,0,0,0,41.419,11.6Zm10.512,4.729a.684.684,0,0,0-.4-.606,6.016,6.016,0,0,0-1.5-.475A6.853,6.853,0,0,1,48.2,14.6a3.062,3.062,0,0,1-1.1-.971,2.319,2.319,0,0,1-.378-1.31,2.628,2.628,0,0,1,1.081-2.158,4.453,4.453,0,0,1,2.83-.848,4.934,4.934,0,0,1,3.023.853,2.666,2.666,0,0,1,1.143,2.241H51.834q0-1.143-1.2-1.143a1.194,1.194,0,0,0-.782.259.8.8,0,0,0-.316.646.737.737,0,0,0,.387.642,3.654,3.654,0,0,0,1.235.4,10.671,10.671,0,0,1,1.49.378,2.706,2.706,0,0,1,2.145,2.646,2.491,2.491,0,0,1-1.156,2.118,5.068,5.068,0,0,1-2.993.817,5.172,5.172,0,0,1-2.18-.439,3.645,3.645,0,0,1-1.494-1.2,2.707,2.707,0,0,1-.536-1.591H49.2a1.145,1.145,0,0,0,.439.962,1.808,1.808,0,0,0,1.081.3,1.422,1.422,0,0,0,.91-.246A.787.787,0,0,0,51.931,16.328ZM59.3,19H56.326V9.49H59.3ZM56.15,7.038A1.322,1.322,0,0,1,56.607,6,1.943,1.943,0,0,1,58.98,6a1.322,1.322,0,0,1,.457,1.037,1.322,1.322,0,0,1-.457,1.037,1.943,1.943,0,0,1-2.373,0A1.322,1.322,0,0,1,56.15,7.038Zm4.6,7.137a5.809,5.809,0,0,1,.976-3.56,3.211,3.211,0,0,1,2.725-1.3,2.731,2.731,0,0,1,2.145,1V5.5h2.971V19H66.9l-.149-1.02a2.8,2.8,0,0,1-2.32,1.2,3.205,3.205,0,0,1-2.689-1.3A5.993,5.993,0,0,1,60.747,14.175Zm2.962.185q0,2.531,1.477,2.531a1.458,1.458,0,0,0,1.406-.826V12.443A1.419,1.419,0,0,0,65.2,11.6q-1.371,0-1.485,2.215ZM76.6,19a3.344,3.344,0,0,1-.281-.853,2.754,2.754,0,0,1-2.285,1.028,3.374,3.374,0,0,1-2.285-.813,2.588,2.588,0,0,1-.94-2.043,2.66,2.66,0,0,1,1.143-2.338,5.821,5.821,0,0,1,3.322-.791h.914v-.5q0-1.316-1.134-1.316A.927.927,0,0,0,74,12.413H71.039a2.655,2.655,0,0,1,1.173-2.239,4.931,4.931,0,0,1,2.993-.86,4.323,4.323,0,0,1,2.874.888,3.086,3.086,0,0,1,1.081,2.435v4.21a4.311,4.311,0,0,0,.4,2V19Zm-1.854-1.934a1.652,1.652,0,0,0,.918-.237,1.487,1.487,0,0,0,.523-.536V14.772h-.861q-1.547,0-1.547,1.389a.848.848,0,0,0,.272.655A.986.986,0,0,0,74.748,17.066Zm5.678-2.892a5.809,5.809,0,0,1,.976-3.56,3.211,3.211,0,0,1,2.725-1.3,2.731,2.731,0,0,1,2.145,1V5.5h2.971V19H86.578l-.149-1.02a2.8,2.8,0,0,1-2.32,1.2,3.205,3.205,0,0,1-2.689-1.3A5.993,5.993,0,0,1,80.425,14.175Zm2.962.185q0,2.531,1.477,2.531a1.458,1.458,0,0,0,1.406-.826V12.443a1.419,1.419,0,0,0-1.389-.844q-1.371,0-1.485,2.215Zm12.138,4.816a4.889,4.889,0,0,1-3.542-1.305,4.507,4.507,0,0,1-1.354-3.4v-.246a5.84,5.84,0,0,1,.541-2.575,3.955,3.955,0,0,1,1.578-1.727,4.763,4.763,0,0,1,2.461-.611,4.117,4.117,0,0,1,3.164,1.244,4.887,4.887,0,0,1,1.16,3.467v1.151H93.644a2.135,2.135,0,0,0,.694,1.257,2.066,2.066,0,0,0,1.389.457,2.662,2.662,0,0,0,2.2-.984l1.354,1.6a3.784,3.784,0,0,1-1.569,1.217A5.3,5.3,0,0,1,95.525,19.176ZM95.191,11.6q-1.3,0-1.547,1.723h2.988v-.229a1.467,1.467,0,0,0-.36-1.1A1.434,1.434,0,0,0,95.191,11.6ZM105.7,16.328a.684.684,0,0,0-.4-.606,6.016,6.016,0,0,0-1.5-.475,6.853,6.853,0,0,1-1.828-.646,3.062,3.062,0,0,1-1.1-.971,2.319,2.319,0,0,1-.378-1.31,2.628,2.628,0,0,1,1.081-2.158,4.453,4.453,0,0,1,2.83-.848,4.934,4.934,0,0,1,3.023.853,2.666,2.666,0,0,1,1.143,2.241h-2.971q0-1.143-1.2-1.143a1.194,1.194,0,0,0-.782.259.8.8,0,0,0-.316.646.737.737,0,0,0,.387.642,3.654,3.654,0,0,0,1.235.4,10.671,10.671,0,0,1,1.49.378,2.706,2.706,0,0,1,2.145,2.646,2.491,2.491,0,0,1-1.156,2.118,5.068,5.068,0,0,1-2.993.817,5.172,5.172,0,0,1-2.18-.439,3.645,3.645,0,0,1-1.494-1.2,2.707,2.707,0,0,1-.536-1.591h2.769a1.145,1.145,0,0,0,.439.962,1.808,1.808,0,0,0,1.081.3,1.422,1.422,0,0,0,.91-.246A.787.787,0,0,0,105.7,16.328Zm8.35-2.153a5.809,5.809,0,0,1,.976-3.56,3.211,3.211,0,0,1,2.725-1.3,2.731,2.731,0,0,1,2.145,1V5.5h2.971V19H120.2l-.149-1.02a2.8,2.8,0,0,1-2.32,1.2,3.205,3.205,0,0,1-2.689-1.3A5.993,5.993,0,0,1,114.052,14.175Zm2.962.185q0,2.531,1.477,2.531a1.458,1.458,0,0,0,1.406-.826V12.443a1.419,1.419,0,0,0-1.389-.844q-1.371,0-1.485,2.215Zm12.138,4.816a4.889,4.889,0,0,1-3.542-1.305,4.507,4.507,0,0,1-1.354-3.4v-.246a5.84,5.84,0,0,1,.541-2.575,3.955,3.955,0,0,1,1.578-1.727,4.763,4.763,0,0,1,2.461-.611A4.117,4.117,0,0,1,132,10.558a4.887,4.887,0,0,1,1.16,3.467v1.151h-5.889a2.135,2.135,0,0,0,.694,1.257,2.066,2.066,0,0,0,1.389.457,2.662,2.662,0,0,0,2.2-.984l1.354,1.6a3.784,3.784,0,0,1-1.569,1.217A5.3,5.3,0,0,1,129.152,19.176Zm-.334-7.576q-1.3,0-1.547,1.723h2.988v-.229a1.467,1.467,0,0,0-.36-1.1A1.434,1.434,0,0,0,128.818,11.6Zm8.657,7.4H134.5V5.5h2.971ZM51.123,31.2v8.376a4.814,4.814,0,0,1-.606,2.465,3.929,3.929,0,0,1-1.74,1.586,6.131,6.131,0,0,1-2.681.545,5.3,5.3,0,0,1-3.683-1.213,4.326,4.326,0,0,1-1.371-3.322V31.2h3.1v8.5q.053,2.1,1.951,2.1a1.889,1.889,0,0,0,1.45-.527,2.465,2.465,0,0,0,.492-1.714V31.2ZM57.89,41.328a.684.684,0,0,0-.4-.606,6.016,6.016,0,0,0-1.5-.475,6.853,6.853,0,0,1-1.828-.646,3.062,3.062,0,0,1-1.1-.971,2.319,2.319,0,0,1-.378-1.31,2.628,2.628,0,0,1,1.081-2.158,4.453,4.453,0,0,1,2.83-.848,4.934,4.934,0,0,1,3.023.853,2.666,2.666,0,0,1,1.143,2.241H57.793q0-1.143-1.2-1.143a1.194,1.194,0,0,0-.782.259.8.8,0,0,0-.316.646.737.737,0,0,0,.387.642,3.654,3.654,0,0,0,1.235.4,10.671,10.671,0,0,1,1.49.378,2.706,2.706,0,0,1,2.145,2.646,2.491,2.491,0,0,1-1.156,2.118,5.068,5.068,0,0,1-2.993.817,5.172,5.172,0,0,1-2.18-.439,3.645,3.645,0,0,1-1.494-1.2,2.707,2.707,0,0,1-.536-1.591h2.769a1.145,1.145,0,0,0,.439.962,1.808,1.808,0,0,0,1.081.3,1.422,1.422,0,0,0,.91-.246A.787.787,0,0,0,57.89,41.328ZM67.8,42.972a3.054,3.054,0,0,1-2.54,1.2,3,3,0,0,1-2.369-.91,3.826,3.826,0,0,1-.8-2.615V34.49h2.962v6.179a1.065,1.065,0,0,0,1.187,1.222,1.548,1.548,0,0,0,1.45-.729V34.49h2.979V44H67.883ZM77.639,44a3.344,3.344,0,0,1-.281-.853,2.754,2.754,0,0,1-2.285,1.028,3.374,3.374,0,0,1-2.285-.813,2.588,2.588,0,0,1-.94-2.043,2.66,2.66,0,0,1,1.143-2.338,5.821,5.821,0,0,1,3.322-.791h.914v-.5q0-1.316-1.134-1.316a.927.927,0,0,0-1.055,1.042H72.076a2.655,2.655,0,0,1,1.173-2.239,4.931,4.931,0,0,1,2.993-.86,4.323,4.323,0,0,1,2.874.888A3.086,3.086,0,0,1,80.2,37.637v4.21a4.311,4.311,0,0,0,.4,2V44Zm-1.854-1.934a1.652,1.652,0,0,0,.918-.237,1.487,1.487,0,0,0,.523-.536V39.772h-.861q-1.547,0-1.547,1.389a.848.848,0,0,0,.272.655A.986.986,0,0,0,75.785,42.066Zm11.8-4.9-.976-.07a1.752,1.752,0,0,0-1.793.879V44H81.858V34.49h2.777l.1,1.222a2.294,2.294,0,0,1,2.083-1.4,2.888,2.888,0,0,1,.826.105ZM91.781,44H88.81V34.49h2.971ZM88.634,32.038A1.322,1.322,0,0,1,89.091,31a1.943,1.943,0,0,1,2.373,0,1.405,1.405,0,0,1,0,2.074,1.943,1.943,0,0,1-2.373,0A1.322,1.322,0,0,1,88.634,32.038Zm4.6,7.119a5.613,5.613,0,0,1,.554-2.536,3.96,3.96,0,0,1,1.591-1.709,4.791,4.791,0,0,1,2.435-.6,4.373,4.373,0,0,1,3.366,1.323,5.076,5.076,0,0,1,1.23,3.6v.105a4.925,4.925,0,0,1-1.235,3.529,4.384,4.384,0,0,1-3.344,1.305,4.434,4.434,0,0,1-3.261-1.217,4.761,4.761,0,0,1-1.327-3.3Zm2.962.185a3.538,3.538,0,0,0,.413,1.934,1.376,1.376,0,0,0,1.222.615q1.582,0,1.617-2.435v-.3q0-2.558-1.635-2.558-1.485,0-1.608,2.206Z" transform="translate(705 5222.246)" fill="#12263f"/>
    <path id="Trazado_184891" data-name="Trazado 184891" d="M11.013,8.585H7.172V19H4.087V8.585H.316V6.2h10.7Zm5.766,10.591a4.889,4.889,0,0,1-3.542-1.305,4.507,4.507,0,0,1-1.354-3.4v-.246a5.84,5.84,0,0,1,.541-2.575A3.955,3.955,0,0,1,14,9.925a4.763,4.763,0,0,1,2.461-.611,4.117,4.117,0,0,1,3.164,1.244,4.887,4.887,0,0,1,1.16,3.467v1.151H14.9a2.135,2.135,0,0,0,.694,1.257,2.066,2.066,0,0,0,1.389.457,2.662,2.662,0,0,0,2.2-.984l1.354,1.6a3.784,3.784,0,0,1-1.569,1.217A5.3,5.3,0,0,1,16.778,19.176ZM16.444,11.6q-1.3,0-1.547,1.723h2.988v-.229a1.467,1.467,0,0,0-.36-1.1A1.434,1.434,0,0,0,16.444,11.6ZM24.7,9.49l.1,1.116A3.225,3.225,0,0,1,27.51,9.314a2.713,2.713,0,0,1,2.219.888,4.226,4.226,0,0,1,.76,2.672V19H27.519V13a1.6,1.6,0,0,0-.29-1.059,1.342,1.342,0,0,0-1.055-.338,1.413,1.413,0,0,0-1.292.686V19H21.92V9.49Zm7.058,4.685a5.809,5.809,0,0,1,.976-3.56,3.211,3.211,0,0,1,2.725-1.3,2.731,2.731,0,0,1,2.145,1V5.5H40.57V19H37.907l-.149-1.02a2.8,2.8,0,0,1-2.32,1.2,3.205,3.205,0,0,1-2.689-1.3A5.993,5.993,0,0,1,31.755,14.175Zm2.962.185q0,2.531,1.477,2.531a1.458,1.458,0,0,0,1.406-.826V12.443a1.419,1.419,0,0,0-1.389-.844q-1.371,0-1.485,2.215Zm12.138,4.816a4.889,4.889,0,0,1-3.542-1.305,4.507,4.507,0,0,1-1.354-3.4v-.246a5.84,5.84,0,0,1,.541-2.575,3.955,3.955,0,0,1,1.578-1.727,4.763,4.763,0,0,1,2.461-.611A4.117,4.117,0,0,1,49.7,10.558a4.887,4.887,0,0,1,1.16,3.467v1.151H44.974a2.135,2.135,0,0,0,.694,1.257,2.066,2.066,0,0,0,1.389.457,2.662,2.662,0,0,0,2.2-.984l1.354,1.6a3.784,3.784,0,0,1-1.569,1.217A5.3,5.3,0,0,1,46.854,19.176ZM46.521,11.6q-1.3,0-1.547,1.723h2.988v-.229a1.467,1.467,0,0,0-.36-1.1A1.434,1.434,0,0,0,46.521,11.6ZM54.773,9.49l.1,1.116a3.225,3.225,0,0,1,2.716-1.292,2.713,2.713,0,0,1,2.219.888,4.226,4.226,0,0,1,.76,2.672V19H57.595V13a1.6,1.6,0,0,0-.29-1.059A1.342,1.342,0,0,0,56.25,11.6a1.413,1.413,0,0,0-1.292.686V19H52V9.49Zm11.452,7.4a1.317,1.317,0,0,0,.967-.338,1.241,1.241,0,0,0,.334-.945H70.3a3.288,3.288,0,0,1-1.121,2.566,4.168,4.168,0,0,1-2.887,1,4.22,4.22,0,0,1-3.27-1.3,5.125,5.125,0,0,1-1.2-3.6v-.123a5.792,5.792,0,0,1,.532-2.544,3.872,3.872,0,0,1,1.534-1.7,4.573,4.573,0,0,1,2.373-.593,4.116,4.116,0,0,1,2.944,1.028,3.647,3.647,0,0,1,1.09,2.786H67.526A1.626,1.626,0,0,0,67.166,12a1.244,1.244,0,0,0-.967-.4q-1.151,0-1.345,1.468a10.357,10.357,0,0,0-.062,1.283,4.068,4.068,0,0,0,.343,1.986A1.187,1.187,0,0,0,66.226,16.891ZM74.681,19H71.71V9.49h2.971ZM71.534,7.038A1.322,1.322,0,0,1,71.991,6a1.943,1.943,0,0,1,2.373,0,1.322,1.322,0,0,1,.457,1.037,1.322,1.322,0,0,1-.457,1.037,1.943,1.943,0,0,1-2.373,0A1.322,1.322,0,0,1,71.534,7.038ZM81.861,19a3.344,3.344,0,0,1-.281-.853,2.754,2.754,0,0,1-2.285,1.028,3.374,3.374,0,0,1-2.285-.813,2.588,2.588,0,0,1-.94-2.043,2.66,2.66,0,0,1,1.143-2.338,5.821,5.821,0,0,1,3.322-.791h.914v-.5q0-1.316-1.134-1.316a.927.927,0,0,0-1.055,1.042H76.3a2.655,2.655,0,0,1,1.173-2.239,4.931,4.931,0,0,1,2.993-.86,4.323,4.323,0,0,1,2.874.888,3.086,3.086,0,0,1,1.081,2.435v4.21a4.311,4.311,0,0,0,.4,2V19Zm-1.854-1.934a1.652,1.652,0,0,0,.918-.237,1.487,1.487,0,0,0,.523-.536V14.772h-.861q-1.547,0-1.547,1.389a.848.848,0,0,0,.272.655A.986.986,0,0,0,80.007,17.066Zm11.03-.738a.684.684,0,0,0-.4-.606,6.016,6.016,0,0,0-1.5-.475,6.853,6.853,0,0,1-1.828-.646,3.062,3.062,0,0,1-1.1-.971,2.319,2.319,0,0,1-.378-1.31,2.628,2.628,0,0,1,1.081-2.158,4.453,4.453,0,0,1,2.83-.848,4.934,4.934,0,0,1,3.023.853,2.666,2.666,0,0,1,1.143,2.241H90.94q0-1.143-1.2-1.143a1.194,1.194,0,0,0-.782.259.8.8,0,0,0-.316.646.737.737,0,0,0,.387.642,3.654,3.654,0,0,0,1.235.4,10.671,10.671,0,0,1,1.49.378,2.706,2.706,0,0,1,2.145,2.646,2.491,2.491,0,0,1-1.156,2.118,5.068,5.068,0,0,1-2.993.817,5.172,5.172,0,0,1-2.18-.439,3.645,3.645,0,0,1-1.494-1.2,2.707,2.707,0,0,1-.536-1.591H88.3a1.145,1.145,0,0,0,.439.962,1.808,1.808,0,0,0,1.081.3,1.422,1.422,0,0,0,.91-.246A.787.787,0,0,0,91.037,16.328Zm8.35-2.153a5.809,5.809,0,0,1,.976-3.56,3.211,3.211,0,0,1,2.725-1.3,2.731,2.731,0,0,1,2.145,1V5.5H108.2V19h-2.663l-.149-1.02a2.8,2.8,0,0,1-2.32,1.2,3.205,3.205,0,0,1-2.689-1.3A5.993,5.993,0,0,1,99.387,14.175Zm2.962.185q0,2.531,1.477,2.531a1.458,1.458,0,0,0,1.406-.826V12.443a1.419,1.419,0,0,0-1.389-.844q-1.371,0-1.485,2.215Zm12.138,4.816a4.889,4.889,0,0,1-3.542-1.305,4.507,4.507,0,0,1-1.354-3.4v-.246a5.84,5.84,0,0,1,.541-2.575,3.955,3.955,0,0,1,1.578-1.727,4.763,4.763,0,0,1,2.461-.611,4.117,4.117,0,0,1,3.164,1.244,4.887,4.887,0,0,1,1.16,3.467v1.151h-5.889a2.135,2.135,0,0,0,.694,1.257,2.066,2.066,0,0,0,1.389.457,2.662,2.662,0,0,0,2.2-.984l1.354,1.6a3.784,3.784,0,0,1-1.569,1.217A5.3,5.3,0,0,1,114.486,19.176Zm-.334-7.576q-1.3,0-1.547,1.723h2.988v-.229a1.467,1.467,0,0,0-.36-1.1A1.434,1.434,0,0,0,114.152,11.6ZM4.254,44H1.178V31.2H4.254Zm4.729-9.51.1,1.116a3.225,3.225,0,0,1,2.716-1.292,2.713,2.713,0,0,1,2.219.888,4.226,4.226,0,0,1,.76,2.672V44H11.8V38a1.6,1.6,0,0,0-.29-1.059,1.342,1.342,0,0,0-1.055-.338,1.413,1.413,0,0,0-1.292.686V44H6.205V34.49Zm7.058,4.685a5.809,5.809,0,0,1,.976-3.56,3.211,3.211,0,0,1,2.725-1.3,2.731,2.731,0,0,1,2.145,1V30.5h2.971V44H22.192l-.149-1.02a2.8,2.8,0,0,1-2.32,1.2,3.205,3.205,0,0,1-2.689-1.3A5.993,5.993,0,0,1,16.04,39.175ZM19,39.359q0,2.531,1.477,2.531a1.458,1.458,0,0,0,1.406-.826V37.443A1.419,1.419,0,0,0,20.5,36.6q-1.371,0-1.485,2.215Zm13.2,3.612a3.054,3.054,0,0,1-2.54,1.2,3,3,0,0,1-2.369-.91,3.826,3.826,0,0,1-.8-2.615V34.49h2.962v6.179a1.065,1.065,0,0,0,1.187,1.222,1.548,1.548,0,0,0,1.45-.729V34.49h2.979V44H32.291Zm9.466-1.644a.684.684,0,0,0-.4-.606,6.016,6.016,0,0,0-1.5-.475,6.853,6.853,0,0,1-1.828-.646,3.062,3.062,0,0,1-1.1-.971,2.319,2.319,0,0,1-.378-1.31,2.628,2.628,0,0,1,1.081-2.158,4.453,4.453,0,0,1,2.83-.848,4.934,4.934,0,0,1,3.023.853,2.666,2.666,0,0,1,1.143,2.241H41.572q0-1.143-1.2-1.143a1.194,1.194,0,0,0-.782.259.8.8,0,0,0-.316.646.737.737,0,0,0,.387.642,3.654,3.654,0,0,0,1.235.4,10.671,10.671,0,0,1,1.49.378,2.706,2.706,0,0,1,2.145,2.646,2.491,2.491,0,0,1-1.156,2.118,5.068,5.068,0,0,1-2.993.817,5.172,5.172,0,0,1-2.18-.439,3.645,3.645,0,0,1-1.494-1.2,2.707,2.707,0,0,1-.536-1.591h2.769a1.145,1.145,0,0,0,.439.962,1.808,1.808,0,0,0,1.081.3,1.422,1.422,0,0,0,.91-.246A.787.787,0,0,0,41.669,41.328Zm7.69-9.2V34.49h1.564v2.057H49.359V40.9a1.111,1.111,0,0,0,.193.747,1.037,1.037,0,0,0,.765.211,4.345,4.345,0,0,0,.738-.053v2.118a5.466,5.466,0,0,1-1.67.255,3.1,3.1,0,0,1-2.259-.721,2.954,2.954,0,0,1-.729-2.188v-4.72H45.185V34.49H46.4V32.126Zm8.481,5.045-.976-.07a1.752,1.752,0,0,0-1.793.879V44H52.11V34.49h2.777l.1,1.222a2.294,2.294,0,0,1,2.083-1.4,2.888,2.888,0,0,1,.826.105ZM62.033,44H59.063V34.49h2.971ZM58.887,32.038A1.322,1.322,0,0,1,59.344,31a1.943,1.943,0,0,1,2.373,0,1.405,1.405,0,0,1,0,2.074,1.943,1.943,0,0,1-2.373,0A1.322,1.322,0,0,1,58.887,32.038ZM69.214,44a3.344,3.344,0,0,1-.281-.853,2.754,2.754,0,0,1-2.285,1.028,3.374,3.374,0,0,1-2.285-.813,2.588,2.588,0,0,1-.94-2.043,2.66,2.66,0,0,1,1.143-2.338,5.821,5.821,0,0,1,3.322-.791H68.8v-.5q0-1.316-1.134-1.316a.927.927,0,0,0-1.055,1.042H63.65a2.655,2.655,0,0,1,1.173-2.239,4.931,4.931,0,0,1,2.993-.86,4.323,4.323,0,0,1,2.874.888,3.086,3.086,0,0,1,1.081,2.435v4.21a4.311,4.311,0,0,0,.4,2V44Zm-1.854-1.934a1.652,1.652,0,0,0,.918-.237,1.487,1.487,0,0,0,.523-.536V39.772h-.861q-1.547,0-1.547,1.389a.848.848,0,0,0,.272.655A.986.986,0,0,0,67.359,42.066Z" transform="translate(1083.718 5472.246)" fill="#12263f"/>
    <path id="Trazado_184890" data-name="Trazado 184890" d="M11.8,12.865a7.546,7.546,0,0,1-.694,3.313A5.132,5.132,0,0,1,9.136,18.4a5.494,5.494,0,0,1-2.914.778,5.572,5.572,0,0,1-2.9-.751,5.123,5.123,0,0,1-1.973-2.149,7.329,7.329,0,0,1-.743-3.208v-.721A7.58,7.58,0,0,1,1.3,9.029,5.119,5.119,0,0,1,3.274,6.81a5.533,5.533,0,0,1,2.931-.782,5.479,5.479,0,0,1,2.9.773A5.211,5.211,0,0,1,11.087,9a7.362,7.362,0,0,1,.716,3.274Zm-3.138-.536a5.381,5.381,0,0,0-.637-2.9,2.044,2.044,0,0,0-1.824-.989q-2.32,0-2.452,3.48l-.009.94a5.535,5.535,0,0,0,.624,2.892,2.041,2.041,0,0,0,1.854,1.011,2.016,2.016,0,0,0,1.8-.993,5.383,5.383,0,0,0,.642-2.856Zm13.421,1.986a5.735,5.735,0,0,1-1,3.538A3.2,3.2,0,0,1,18.4,19.176a2.742,2.742,0,0,1-2.153-.958v4.438H13.28V9.49h2.769l.088.879a2.742,2.742,0,0,1,2.241-1.055,3.224,3.224,0,0,1,2.733,1.3,5.805,5.805,0,0,1,.976,3.564Zm-2.962-.185q0-2.531-1.477-2.531a1.394,1.394,0,0,0-1.406.756V16.1a1.439,1.439,0,0,0,1.424.791q1.415,0,1.459-2.443Zm3.894.026a5.613,5.613,0,0,1,.554-2.536,3.96,3.96,0,0,1,1.591-1.709,4.791,4.791,0,0,1,2.435-.6,4.373,4.373,0,0,1,3.366,1.323,5.076,5.076,0,0,1,1.23,3.6v.105a4.925,4.925,0,0,1-1.235,3.529,4.384,4.384,0,0,1-3.344,1.305,4.434,4.434,0,0,1-3.261-1.217,4.761,4.761,0,0,1-1.327-3.3Zm2.962.185a3.538,3.538,0,0,0,.413,1.934,1.376,1.376,0,0,0,1.222.615q1.582,0,1.617-2.435v-.3q0-2.558-1.635-2.558-1.485,0-1.608,2.206Zm13.271-2.171-.976-.07a1.752,1.752,0,0,0-1.793.879V19H33.521V9.49H36.3l.1,1.222a2.294,2.294,0,0,1,2.083-1.4,2.888,2.888,0,0,1,.826.105Zm4.957-5.045V9.49h1.564v2.057H44.209V15.9a1.111,1.111,0,0,0,.193.747,1.037,1.037,0,0,0,.765.211,4.345,4.345,0,0,0,.738-.053v2.118a5.466,5.466,0,0,1-1.67.255,3.1,3.1,0,0,1-2.259-.721,2.954,2.954,0,0,1-.729-2.188v-4.72H40.034V9.49h1.213V7.126ZM52.6,17.972a3.054,3.054,0,0,1-2.54,1.2,3,3,0,0,1-2.369-.91,3.826,3.826,0,0,1-.8-2.615V9.49h2.962v6.179a1.065,1.065,0,0,0,1.187,1.222,1.548,1.548,0,0,0,1.45-.729V9.49h2.979V19H52.69ZM59.81,9.49l.1,1.116a3.225,3.225,0,0,1,2.716-1.292,2.713,2.713,0,0,1,2.219.888,4.226,4.226,0,0,1,.76,2.672V19H62.631V13a1.6,1.6,0,0,0-.29-1.059,1.342,1.342,0,0,0-1.055-.338,1.413,1.413,0,0,0-1.292.686V19H57.032V9.49ZM70.365,19H67.395V9.49h2.971ZM67.219,7.038A1.322,1.322,0,0,1,67.676,6a1.943,1.943,0,0,1,2.373,0,1.322,1.322,0,0,1,.457,1.037,1.322,1.322,0,0,1-.457,1.037,1.943,1.943,0,0,1-2.373,0A1.322,1.322,0,0,1,67.219,7.038Zm4.6,7.137a5.809,5.809,0,0,1,.976-3.56,3.211,3.211,0,0,1,2.725-1.3,2.731,2.731,0,0,1,2.145,1V5.5h2.971V19H77.968l-.149-1.02a2.8,2.8,0,0,1-2.32,1.2,3.205,3.205,0,0,1-2.689-1.3A5.993,5.993,0,0,1,71.815,14.175Zm2.962.185q0,2.531,1.477,2.531a1.458,1.458,0,0,0,1.406-.826V12.443a1.419,1.419,0,0,0-1.389-.844q-1.371,0-1.485,2.215ZM87.671,19a3.344,3.344,0,0,1-.281-.853A2.754,2.754,0,0,1,85.1,19.176a3.374,3.374,0,0,1-2.285-.813,2.588,2.588,0,0,1-.94-2.043,2.66,2.66,0,0,1,1.143-2.338,5.821,5.821,0,0,1,3.322-.791h.914v-.5q0-1.316-1.134-1.316a.927.927,0,0,0-1.055,1.042H82.107a2.655,2.655,0,0,1,1.173-2.239,4.931,4.931,0,0,1,2.993-.86,4.323,4.323,0,0,1,2.874.888,3.086,3.086,0,0,1,1.081,2.435v4.21a4.311,4.311,0,0,0,.4,2V19Zm-1.854-1.934a1.652,1.652,0,0,0,.918-.237,1.487,1.487,0,0,0,.523-.536V14.772H86.4q-1.547,0-1.547,1.389a.848.848,0,0,0,.272.655A.986.986,0,0,0,85.816,17.066Zm5.678-2.892a5.809,5.809,0,0,1,.976-3.56,3.211,3.211,0,0,1,2.725-1.3,2.731,2.731,0,0,1,2.145,1V5.5h2.971V19H97.646L97.5,17.98a2.8,2.8,0,0,1-2.32,1.2,3.205,3.205,0,0,1-2.689-1.3A5.993,5.993,0,0,1,91.494,14.175Zm2.962.185q0,2.531,1.477,2.531a1.458,1.458,0,0,0,1.406-.826V12.443A1.419,1.419,0,0,0,95.95,11.6q-1.371,0-1.485,2.215Zm12.138,4.816a4.889,4.889,0,0,1-3.542-1.305,4.507,4.507,0,0,1-1.354-3.4v-.246a5.84,5.84,0,0,1,.541-2.575,3.955,3.955,0,0,1,1.578-1.727,4.763,4.763,0,0,1,2.461-.611,4.117,4.117,0,0,1,3.164,1.244,4.887,4.887,0,0,1,1.16,3.467v1.151h-5.889a2.135,2.135,0,0,0,.694,1.257,2.066,2.066,0,0,0,1.389.457,2.662,2.662,0,0,0,2.2-.984l1.354,1.6a3.784,3.784,0,0,1-1.569,1.217A5.3,5.3,0,0,1,106.594,19.176ZM106.26,11.6q-1.3,0-1.547,1.723H107.7v-.229a1.467,1.467,0,0,0-.36-1.1A1.434,1.434,0,0,0,106.26,11.6Zm10.512,4.729a.684.684,0,0,0-.4-.606,6.016,6.016,0,0,0-1.5-.475,6.853,6.853,0,0,1-1.828-.646,3.062,3.062,0,0,1-1.1-.971,2.319,2.319,0,0,1-.378-1.31,2.628,2.628,0,0,1,1.081-2.158,4.453,4.453,0,0,1,2.83-.848,4.934,4.934,0,0,1,3.023.853,2.666,2.666,0,0,1,1.143,2.241h-2.971q0-1.143-1.2-1.143a1.194,1.194,0,0,0-.782.259.8.8,0,0,0-.316.646.737.737,0,0,0,.387.642,3.654,3.654,0,0,0,1.235.4,10.671,10.671,0,0,1,1.49.378,2.706,2.706,0,0,1,2.145,2.646,2.491,2.491,0,0,1-1.156,2.118,5.068,5.068,0,0,1-2.993.817,5.172,5.172,0,0,1-2.18-.439,3.645,3.645,0,0,1-1.494-1.2,2.707,2.707,0,0,1-.536-1.591h2.769a1.145,1.145,0,0,0,.439.962,1.808,1.808,0,0,0,1.081.3,1.422,1.422,0,0,0,.91-.246A.787.787,0,0,0,116.771,16.328ZM4.254,44H1.178V31.2H4.254Zm4.729-9.51.1,1.116a3.225,3.225,0,0,1,2.716-1.292,2.713,2.713,0,0,1,2.219.888,4.226,4.226,0,0,1,.76,2.672V44H11.8V38a1.6,1.6,0,0,0-.29-1.059,1.342,1.342,0,0,0-1.055-.338,1.413,1.413,0,0,0-1.292.686V44H6.205V34.49Zm10.881-2.364V34.49h1.564v2.057H19.863V40.9a1.111,1.111,0,0,0,.193.747,1.037,1.037,0,0,0,.765.211,4.345,4.345,0,0,0,.738-.053v2.118a5.466,5.466,0,0,1-1.67.255,3.1,3.1,0,0,1-2.259-.721,2.954,2.954,0,0,1-.729-2.188v-4.72H15.688V34.49H16.9V32.126Zm7.33,12.05a4.889,4.889,0,0,1-3.542-1.305,4.507,4.507,0,0,1-1.354-3.4v-.246a5.84,5.84,0,0,1,.541-2.575,3.955,3.955,0,0,1,1.578-1.727,4.763,4.763,0,0,1,2.461-.611,4.117,4.117,0,0,1,3.164,1.244,4.887,4.887,0,0,1,1.16,3.467v1.151H25.313a2.135,2.135,0,0,0,.694,1.257,2.066,2.066,0,0,0,1.389.457,2.662,2.662,0,0,0,2.2-.984l1.354,1.6a3.784,3.784,0,0,1-1.569,1.217A5.3,5.3,0,0,1,27.193,44.176ZM26.859,36.6q-1.3,0-1.547,1.723H28.3v-.229a1.467,1.467,0,0,0-.36-1.1A1.434,1.434,0,0,0,26.859,36.6Zm11.285.571-.976-.07a1.752,1.752,0,0,0-1.793.879V44H32.414V34.49h2.777l.1,1.222a2.294,2.294,0,0,1,2.083-1.4,2.888,2.888,0,0,1,.826.105Zm3.788-2.681.1,1.116a3.225,3.225,0,0,1,2.716-1.292,2.713,2.713,0,0,1,2.219.888,4.226,4.226,0,0,1,.76,2.672V44H44.754V38a1.6,1.6,0,0,0-.29-1.059,1.342,1.342,0,0,0-1.055-.338,1.413,1.413,0,0,0-1.292.686V44H39.155V34.49ZM54.721,44a3.344,3.344,0,0,1-.281-.853,2.754,2.754,0,0,1-2.285,1.028,3.374,3.374,0,0,1-2.285-.813,2.588,2.588,0,0,1-.94-2.043,2.66,2.66,0,0,1,1.143-2.338,5.821,5.821,0,0,1,3.322-.791h.914v-.5q0-1.316-1.134-1.316a.927.927,0,0,0-1.055,1.042H49.157a2.655,2.655,0,0,1,1.173-2.239,4.931,4.931,0,0,1,2.993-.86A4.323,4.323,0,0,1,56.2,35.2a3.086,3.086,0,0,1,1.081,2.435v4.21a4.311,4.311,0,0,0,.4,2V44Zm-1.854-1.934a1.652,1.652,0,0,0,.918-.237,1.487,1.487,0,0,0,.523-.536V39.772h-.861q-1.547,0-1.547,1.389a.848.848,0,0,0,.272.655A.986.986,0,0,0,52.866,42.066Zm11.03-.738a.684.684,0,0,0-.4-.606,6.016,6.016,0,0,0-1.5-.475A6.853,6.853,0,0,1,60.17,39.6a3.062,3.062,0,0,1-1.1-.971,2.319,2.319,0,0,1-.378-1.31,2.628,2.628,0,0,1,1.081-2.158,4.453,4.453,0,0,1,2.83-.848,4.934,4.934,0,0,1,3.023.853,2.666,2.666,0,0,1,1.143,2.241H63.8q0-1.143-1.2-1.143a1.194,1.194,0,0,0-.782.259.8.8,0,0,0-.316.646.737.737,0,0,0,.387.642,3.654,3.654,0,0,0,1.235.4,10.671,10.671,0,0,1,1.49.378,2.706,2.706,0,0,1,2.145,2.646A2.491,2.491,0,0,1,65.6,43.358a5.068,5.068,0,0,1-2.993.817,5.172,5.172,0,0,1-2.18-.439,3.645,3.645,0,0,1-1.494-1.2,2.707,2.707,0,0,1-.536-1.591h2.769a1.145,1.145,0,0,0,.439.962,1.808,1.808,0,0,0,1.081.3,1.422,1.422,0,0,0,.91-.246A.787.787,0,0,0,63.9,41.328Z" transform="translate(1020 5693.788)" fill="#12263f"/>
    <path id="Trazado_184889" data-name="Trazado 184889" d="M11.013,8.585H7.172V19H4.087V8.585H.316V6.2h10.7Zm5.766,10.591a4.889,4.889,0,0,1-3.542-1.305,4.507,4.507,0,0,1-1.354-3.4v-.246a5.84,5.84,0,0,1,.541-2.575A3.955,3.955,0,0,1,14,9.925a4.763,4.763,0,0,1,2.461-.611,4.117,4.117,0,0,1,3.164,1.244,4.887,4.887,0,0,1,1.16,3.467v1.151H14.9a2.135,2.135,0,0,0,.694,1.257,2.066,2.066,0,0,0,1.389.457,2.662,2.662,0,0,0,2.2-.984l1.354,1.6a3.784,3.784,0,0,1-1.569,1.217A5.3,5.3,0,0,1,16.778,19.176ZM16.444,11.6q-1.3,0-1.547,1.723h2.988v-.229a1.467,1.467,0,0,0-.36-1.1A1.434,1.434,0,0,0,16.444,11.6ZM24.7,9.49l.1,1.116A3.225,3.225,0,0,1,27.51,9.314a2.713,2.713,0,0,1,2.219.888,4.226,4.226,0,0,1,.76,2.672V19H27.519V13a1.6,1.6,0,0,0-.29-1.059,1.342,1.342,0,0,0-1.055-.338,1.413,1.413,0,0,0-1.292.686V19H21.92V9.49Zm7.058,4.685a5.809,5.809,0,0,1,.976-3.56,3.211,3.211,0,0,1,2.725-1.3,2.731,2.731,0,0,1,2.145,1V5.5H40.57V19H37.907l-.149-1.02a2.8,2.8,0,0,1-2.32,1.2,3.205,3.205,0,0,1-2.689-1.3A5.993,5.993,0,0,1,31.755,14.175Zm2.962.185q0,2.531,1.477,2.531a1.458,1.458,0,0,0,1.406-.826V12.443a1.419,1.419,0,0,0-1.389-.844q-1.371,0-1.485,2.215Zm12.138,4.816a4.889,4.889,0,0,1-3.542-1.305,4.507,4.507,0,0,1-1.354-3.4v-.246a5.84,5.84,0,0,1,.541-2.575,3.955,3.955,0,0,1,1.578-1.727,4.763,4.763,0,0,1,2.461-.611A4.117,4.117,0,0,1,49.7,10.558a4.887,4.887,0,0,1,1.16,3.467v1.151H44.974a2.135,2.135,0,0,0,.694,1.257,2.066,2.066,0,0,0,1.389.457,2.662,2.662,0,0,0,2.2-.984l1.354,1.6a3.784,3.784,0,0,1-1.569,1.217A5.3,5.3,0,0,1,46.854,19.176ZM46.521,11.6q-1.3,0-1.547,1.723h2.988v-.229a1.467,1.467,0,0,0-.36-1.1A1.434,1.434,0,0,0,46.521,11.6ZM54.773,9.49l.1,1.116a3.225,3.225,0,0,1,2.716-1.292,2.713,2.713,0,0,1,2.219.888,4.226,4.226,0,0,1,.76,2.672V19H57.595V13a1.6,1.6,0,0,0-.29-1.059A1.342,1.342,0,0,0,56.25,11.6a1.413,1.413,0,0,0-1.292.686V19H52V9.49Zm11.452,7.4a1.317,1.317,0,0,0,.967-.338,1.241,1.241,0,0,0,.334-.945H70.3a3.288,3.288,0,0,1-1.121,2.566,4.168,4.168,0,0,1-2.887,1,4.22,4.22,0,0,1-3.27-1.3,5.125,5.125,0,0,1-1.2-3.6v-.123a5.792,5.792,0,0,1,.532-2.544,3.872,3.872,0,0,1,1.534-1.7,4.573,4.573,0,0,1,2.373-.593,4.116,4.116,0,0,1,2.944,1.028,3.647,3.647,0,0,1,1.09,2.786H67.526A1.626,1.626,0,0,0,67.166,12a1.244,1.244,0,0,0-.967-.4q-1.151,0-1.345,1.468a10.357,10.357,0,0,0-.062,1.283,4.068,4.068,0,0,0,.343,1.986A1.187,1.187,0,0,0,66.226,16.891ZM74.681,19H71.71V9.49h2.971ZM71.534,7.038A1.322,1.322,0,0,1,71.991,6a1.943,1.943,0,0,1,2.373,0,1.322,1.322,0,0,1,.457,1.037,1.322,1.322,0,0,1-.457,1.037,1.943,1.943,0,0,1-2.373,0A1.322,1.322,0,0,1,71.534,7.038ZM81.861,19a3.344,3.344,0,0,1-.281-.853,2.754,2.754,0,0,1-2.285,1.028,3.374,3.374,0,0,1-2.285-.813,2.588,2.588,0,0,1-.94-2.043,2.66,2.66,0,0,1,1.143-2.338,5.821,5.821,0,0,1,3.322-.791h.914v-.5q0-1.316-1.134-1.316a.927.927,0,0,0-1.055,1.042H76.3a2.655,2.655,0,0,1,1.173-2.239,4.931,4.931,0,0,1,2.993-.86,4.323,4.323,0,0,1,2.874.888,3.086,3.086,0,0,1,1.081,2.435v4.21a4.311,4.311,0,0,0,.4,2V19Zm-1.854-1.934a1.652,1.652,0,0,0,.918-.237,1.487,1.487,0,0,0,.523-.536V14.772h-.861q-1.547,0-1.547,1.389a.848.848,0,0,0,.272.655A.986.986,0,0,0,80.007,17.066Zm11.03-.738a.684.684,0,0,0-.4-.606,6.016,6.016,0,0,0-1.5-.475,6.853,6.853,0,0,1-1.828-.646,3.062,3.062,0,0,1-1.1-.971,2.319,2.319,0,0,1-.378-1.31,2.628,2.628,0,0,1,1.081-2.158,4.453,4.453,0,0,1,2.83-.848,4.934,4.934,0,0,1,3.023.853,2.666,2.666,0,0,1,1.143,2.241H90.94q0-1.143-1.2-1.143a1.194,1.194,0,0,0-.782.259.8.8,0,0,0-.316.646.737.737,0,0,0,.387.642,3.654,3.654,0,0,0,1.235.4,10.671,10.671,0,0,1,1.49.378,2.706,2.706,0,0,1,2.145,2.646,2.491,2.491,0,0,1-1.156,2.118,5.068,5.068,0,0,1-2.993.817,5.172,5.172,0,0,1-2.18-.439,3.645,3.645,0,0,1-1.494-1.2,2.707,2.707,0,0,1-.536-1.591H88.3a1.145,1.145,0,0,0,.439.962,1.808,1.808,0,0,0,1.081.3,1.422,1.422,0,0,0,.91-.246A.787.787,0,0,0,91.037,16.328ZM11.32,39.667a4.673,4.673,0,0,1-.721,2.36,4.35,4.35,0,0,1-1.85,1.586,6.3,6.3,0,0,1-2.72.563,5.025,5.025,0,0,1-3.973-1.644,6.786,6.786,0,0,1-1.45-4.641v-.633a7.746,7.746,0,0,1,.655-3.292,4.961,4.961,0,0,1,1.885-2.18,5.26,5.26,0,0,1,2.848-.769,5.516,5.516,0,0,1,3.744,1.226,4.844,4.844,0,0,1,1.608,3.379H8.271a2.292,2.292,0,0,0-.589-1.679,2.422,2.422,0,0,0-1.687-.51,1.843,1.843,0,0,0-1.687.861,5.536,5.536,0,0,0-.562,2.751v.905a6.125,6.125,0,0,0,.514,2.927,1.882,1.882,0,0,0,1.771.879,2.369,2.369,0,0,0,1.626-.5,2.126,2.126,0,0,0,.6-1.591Zm.949-.51a5.613,5.613,0,0,1,.554-2.536,3.96,3.96,0,0,1,1.591-1.709,4.791,4.791,0,0,1,2.435-.6,4.373,4.373,0,0,1,3.366,1.323,5.076,5.076,0,0,1,1.23,3.6v.105a4.925,4.925,0,0,1-1.235,3.529,4.384,4.384,0,0,1-3.344,1.305,4.434,4.434,0,0,1-3.261-1.217,4.761,4.761,0,0,1-1.327-3.3Zm2.962.185a3.538,3.538,0,0,0,.413,1.934,1.376,1.376,0,0,0,1.222.615q1.582,0,1.617-2.435v-.3q0-2.558-1.635-2.558-1.485,0-1.608,2.206ZM25.471,34.49l.1,1.116a3.225,3.225,0,0,1,2.716-1.292A2.713,2.713,0,0,1,30.5,35.2a4.226,4.226,0,0,1,.76,2.672V44H28.292V38A1.6,1.6,0,0,0,28,36.938a1.342,1.342,0,0,0-1.055-.338,1.413,1.413,0,0,0-1.292.686V44H22.693V34.49Zm12.41,6.838a.684.684,0,0,0-.4-.606,6.016,6.016,0,0,0-1.5-.475,6.853,6.853,0,0,1-1.828-.646,3.062,3.062,0,0,1-1.1-.971,2.319,2.319,0,0,1-.378-1.31,2.628,2.628,0,0,1,1.081-2.158,4.453,4.453,0,0,1,2.83-.848,4.934,4.934,0,0,1,3.023.853,2.666,2.666,0,0,1,1.143,2.241H37.784q0-1.143-1.2-1.143a1.194,1.194,0,0,0-.782.259.8.8,0,0,0-.316.646.737.737,0,0,0,.387.642,3.654,3.654,0,0,0,1.235.4,10.671,10.671,0,0,1,1.49.378,2.706,2.706,0,0,1,2.145,2.646,2.491,2.491,0,0,1-1.156,2.118,5.068,5.068,0,0,1-2.993.817,5.172,5.172,0,0,1-2.18-.439,3.645,3.645,0,0,1-1.494-1.2,2.707,2.707,0,0,1-.536-1.591h2.769a1.145,1.145,0,0,0,.439.962,1.808,1.808,0,0,0,1.081.3,1.422,1.422,0,0,0,.91-.246A.787.787,0,0,0,37.881,41.328Zm9.905,1.644a3.054,3.054,0,0,1-2.54,1.2,3,3,0,0,1-2.369-.91,3.826,3.826,0,0,1-.8-2.615V34.49h2.962v6.179a1.065,1.065,0,0,0,1.187,1.222,1.548,1.548,0,0,0,1.45-.729V34.49h2.979V44H47.874Zm7.286-8.481.1,1.116a3.27,3.27,0,0,1,2.716-1.292,2.407,2.407,0,0,1,2.435,1.433,3.165,3.165,0,0,1,2.795-1.433q2.892,0,2.971,3.5V44H63.114V38a1.813,1.813,0,0,0-.246-1.063,1.048,1.048,0,0,0-.9-.334,1.4,1.4,0,0,0-1.31.782l.009.123V44H57.7V38.015a1.906,1.906,0,0,0-.237-1.081,1.045,1.045,0,0,0-.905-.334,1.42,1.42,0,0,0-1.3.782V44H52.295V34.49ZM70.9,44H67.931V34.49H70.9ZM67.755,32.038A1.322,1.322,0,0,1,68.212,31a1.943,1.943,0,0,1,2.373,0,1.405,1.405,0,0,1,0,2.074,1.943,1.943,0,0,1-2.373,0A1.322,1.322,0,0,1,67.755,32.038Zm4.6,7.137a5.809,5.809,0,0,1,.976-3.56,3.211,3.211,0,0,1,2.725-1.3,2.731,2.731,0,0,1,2.145,1V30.5h2.971V44H78.5l-.149-1.02a2.8,2.8,0,0,1-2.32,1.2,3.205,3.205,0,0,1-2.689-1.3A5.993,5.993,0,0,1,72.352,39.175Zm2.962.185q0,2.531,1.477,2.531a1.458,1.458,0,0,0,1.406-.826V37.443a1.419,1.419,0,0,0-1.389-.844q-1.371,0-1.485,2.215Zm7.163-.2a5.613,5.613,0,0,1,.554-2.536,3.96,3.96,0,0,1,1.591-1.709,4.791,4.791,0,0,1,2.435-.6,4.373,4.373,0,0,1,3.366,1.323,5.076,5.076,0,0,1,1.23,3.6v.105a4.925,4.925,0,0,1-1.235,3.529,4.384,4.384,0,0,1-3.344,1.305,4.434,4.434,0,0,1-3.261-1.217,4.761,4.761,0,0,1-1.327-3.3Zm2.962.185a3.538,3.538,0,0,0,.413,1.934,1.376,1.376,0,0,0,1.222.615q1.582,0,1.617-2.435v-.3q0-2.558-1.635-2.558-1.485,0-1.608,2.206ZM98.71,37.171l-.976-.07a1.752,1.752,0,0,0-1.793.879V44H92.979V34.49h2.777l.1,1.222a2.294,2.294,0,0,1,2.083-1.4,2.888,2.888,0,0,1,.826.105Zm5.669,7a4.889,4.889,0,0,1-3.542-1.305,4.507,4.507,0,0,1-1.354-3.4v-.246a5.84,5.84,0,0,1,.541-2.575,3.955,3.955,0,0,1,1.578-1.727,4.763,4.763,0,0,1,2.461-.611,4.117,4.117,0,0,1,3.164,1.244,4.887,4.887,0,0,1,1.16,3.467v1.151H102.5a2.135,2.135,0,0,0,.694,1.257,2.066,2.066,0,0,0,1.389.457,2.662,2.662,0,0,0,2.2-.984l1.354,1.6a3.784,3.784,0,0,1-1.569,1.217A5.3,5.3,0,0,1,104.379,44.176Zm-.334-7.576q-1.3,0-1.547,1.723h2.988v-.229a1.467,1.467,0,0,0-.36-1.1A1.434,1.434,0,0,0,104.045,36.6Zm10.512,4.729a.684.684,0,0,0-.4-.606,6.016,6.016,0,0,0-1.5-.475,6.853,6.853,0,0,1-1.828-.646,3.062,3.062,0,0,1-1.1-.971,2.319,2.319,0,0,1-.378-1.31,2.628,2.628,0,0,1,1.081-2.158,4.453,4.453,0,0,1,2.83-.848,4.934,4.934,0,0,1,3.023.853,2.666,2.666,0,0,1,1.143,2.241H114.46q0-1.143-1.2-1.143a1.194,1.194,0,0,0-.782.259.8.8,0,0,0-.316.646.737.737,0,0,0,.387.642,3.654,3.654,0,0,0,1.235.4,10.671,10.671,0,0,1,1.49.378,2.706,2.706,0,0,1,2.145,2.646,2.491,2.491,0,0,1-1.156,2.118,5.068,5.068,0,0,1-2.993.817,5.172,5.172,0,0,1-2.18-.439,3.645,3.645,0,0,1-1.494-1.2,2.707,2.707,0,0,1-.536-1.591h2.769a1.145,1.145,0,0,0,.439.962,1.808,1.808,0,0,0,1.081.3,1.422,1.422,0,0,0,.91-.246A.787.787,0,0,0,114.557,41.328Z" transform="translate(402.626 5699.246)" fill="#12263f"/>
    <path id="Trazado_184888" data-name="Trazado 184888" d="M11.013,8.585H7.172V19H4.087V8.585H.316V6.2h10.7Zm5.766,10.591a4.889,4.889,0,0,1-3.542-1.305,4.507,4.507,0,0,1-1.354-3.4v-.246a5.84,5.84,0,0,1,.541-2.575A3.955,3.955,0,0,1,14,9.925a4.763,4.763,0,0,1,2.461-.611,4.117,4.117,0,0,1,3.164,1.244,4.887,4.887,0,0,1,1.16,3.467v1.151H14.9a2.135,2.135,0,0,0,.694,1.257,2.066,2.066,0,0,0,1.389.457,2.662,2.662,0,0,0,2.2-.984l1.354,1.6a3.784,3.784,0,0,1-1.569,1.217A5.3,5.3,0,0,1,16.778,19.176ZM16.444,11.6q-1.3,0-1.547,1.723h2.988v-.229a1.467,1.467,0,0,0-.36-1.1A1.434,1.434,0,0,0,16.444,11.6ZM24.7,9.49l.1,1.116A3.225,3.225,0,0,1,27.51,9.314a2.713,2.713,0,0,1,2.219.888,4.226,4.226,0,0,1,.76,2.672V19H27.519V13a1.6,1.6,0,0,0-.29-1.059,1.342,1.342,0,0,0-1.055-.338,1.413,1.413,0,0,0-1.292.686V19H21.92V9.49Zm7.058,4.685a5.809,5.809,0,0,1,.976-3.56,3.211,3.211,0,0,1,2.725-1.3,2.731,2.731,0,0,1,2.145,1V5.5H40.57V19H37.907l-.149-1.02a2.8,2.8,0,0,1-2.32,1.2,3.205,3.205,0,0,1-2.689-1.3A5.993,5.993,0,0,1,31.755,14.175Zm2.962.185q0,2.531,1.477,2.531a1.458,1.458,0,0,0,1.406-.826V12.443a1.419,1.419,0,0,0-1.389-.844q-1.371,0-1.485,2.215Zm12.138,4.816a4.889,4.889,0,0,1-3.542-1.305,4.507,4.507,0,0,1-1.354-3.4v-.246a5.84,5.84,0,0,1,.541-2.575,3.955,3.955,0,0,1,1.578-1.727,4.763,4.763,0,0,1,2.461-.611A4.117,4.117,0,0,1,49.7,10.558a4.887,4.887,0,0,1,1.16,3.467v1.151H44.974a2.135,2.135,0,0,0,.694,1.257,2.066,2.066,0,0,0,1.389.457,2.662,2.662,0,0,0,2.2-.984l1.354,1.6a3.784,3.784,0,0,1-1.569,1.217A5.3,5.3,0,0,1,46.854,19.176ZM46.521,11.6q-1.3,0-1.547,1.723h2.988v-.229a1.467,1.467,0,0,0-.36-1.1A1.434,1.434,0,0,0,46.521,11.6ZM54.773,9.49l.1,1.116a3.225,3.225,0,0,1,2.716-1.292,2.713,2.713,0,0,1,2.219.888,4.226,4.226,0,0,1,.76,2.672V19H57.595V13a1.6,1.6,0,0,0-.29-1.059A1.342,1.342,0,0,0,56.25,11.6a1.413,1.413,0,0,0-1.292.686V19H52V9.49Zm11.452,7.4a1.317,1.317,0,0,0,.967-.338,1.241,1.241,0,0,0,.334-.945H70.3a3.288,3.288,0,0,1-1.121,2.566,4.168,4.168,0,0,1-2.887,1,4.22,4.22,0,0,1-3.27-1.3,5.125,5.125,0,0,1-1.2-3.6v-.123a5.792,5.792,0,0,1,.532-2.544,3.872,3.872,0,0,1,1.534-1.7,4.573,4.573,0,0,1,2.373-.593,4.116,4.116,0,0,1,2.944,1.028,3.647,3.647,0,0,1,1.09,2.786H67.526A1.626,1.626,0,0,0,67.166,12a1.244,1.244,0,0,0-.967-.4q-1.151,0-1.345,1.468a10.357,10.357,0,0,0-.062,1.283,4.068,4.068,0,0,0,.343,1.986A1.187,1.187,0,0,0,66.226,16.891ZM74.681,19H71.71V9.49h2.971ZM71.534,7.038A1.322,1.322,0,0,1,71.991,6a1.943,1.943,0,0,1,2.373,0,1.322,1.322,0,0,1,.457,1.037,1.322,1.322,0,0,1-.457,1.037,1.943,1.943,0,0,1-2.373,0A1.322,1.322,0,0,1,71.534,7.038ZM81.861,19a3.344,3.344,0,0,1-.281-.853,2.754,2.754,0,0,1-2.285,1.028,3.374,3.374,0,0,1-2.285-.813,2.588,2.588,0,0,1-.94-2.043,2.66,2.66,0,0,1,1.143-2.338,5.821,5.821,0,0,1,3.322-.791h.914v-.5q0-1.316-1.134-1.316a.927.927,0,0,0-1.055,1.042H76.3a2.655,2.655,0,0,1,1.173-2.239,4.931,4.931,0,0,1,2.993-.86,4.323,4.323,0,0,1,2.874.888,3.086,3.086,0,0,1,1.081,2.435v4.21a4.311,4.311,0,0,0,.4,2V19Zm-1.854-1.934a1.652,1.652,0,0,0,.918-.237,1.487,1.487,0,0,0,.523-.536V14.772h-.861q-1.547,0-1.547,1.389a.848.848,0,0,0,.272.655A.986.986,0,0,0,80.007,17.066Zm11.03-.738a.684.684,0,0,0-.4-.606,6.016,6.016,0,0,0-1.5-.475,6.853,6.853,0,0,1-1.828-.646,3.062,3.062,0,0,1-1.1-.971,2.319,2.319,0,0,1-.378-1.31,2.628,2.628,0,0,1,1.081-2.158,4.453,4.453,0,0,1,2.83-.848,4.934,4.934,0,0,1,3.023.853,2.666,2.666,0,0,1,1.143,2.241H90.94q0-1.143-1.2-1.143a1.194,1.194,0,0,0-.782.259.8.8,0,0,0-.316.646.737.737,0,0,0,.387.642,3.654,3.654,0,0,0,1.235.4,10.671,10.671,0,0,1,1.49.378,2.706,2.706,0,0,1,2.145,2.646,2.491,2.491,0,0,1-1.156,2.118,5.068,5.068,0,0,1-2.993.817,5.172,5.172,0,0,1-2.18-.439,3.645,3.645,0,0,1-1.494-1.2,2.707,2.707,0,0,1-.536-1.591H88.3a1.145,1.145,0,0,0,.439.962,1.808,1.808,0,0,0,1.081.3,1.422,1.422,0,0,0,.91-.246A.787.787,0,0,0,91.037,16.328ZM11.443,42.418A4.96,4.96,0,0,1,9.36,43.692a8.984,8.984,0,0,1-3.006.483,5.36,5.36,0,0,1-4.017-1.538,6.226,6.226,0,0,1-1.608-4.28L.721,37.25a7.637,7.637,0,0,1,.668-3.3A4.96,4.96,0,0,1,3.3,31.779a5.407,5.407,0,0,1,2.878-.76,5.669,5.669,0,0,1,3.713,1.094,4.637,4.637,0,0,1,1.542,3.265H8.464a2.426,2.426,0,0,0-.686-1.529,2.212,2.212,0,0,0-1.494-.457,2.013,2.013,0,0,0-1.793.984,5.256,5.256,0,0,0-.642,2.813v.773A5.145,5.145,0,0,0,4.5,40.84a2.316,2.316,0,0,0,2.061.962,2.592,2.592,0,0,0,1.793-.536V39.28H6.214V37.162h5.229ZM16.225,44H13.254V30.5h2.971Zm1.45-4.843a5.613,5.613,0,0,1,.554-2.536,3.96,3.96,0,0,1,1.591-1.709,4.791,4.791,0,0,1,2.435-.6,4.373,4.373,0,0,1,3.366,1.323,5.076,5.076,0,0,1,1.23,3.6v.105a4.925,4.925,0,0,1-1.235,3.529,4.384,4.384,0,0,1-3.344,1.305,4.434,4.434,0,0,1-3.261-1.217,4.761,4.761,0,0,1-1.327-3.3Zm2.962.185a3.538,3.538,0,0,0,.413,1.934,1.376,1.376,0,0,0,1.222.615q1.582,0,1.617-2.435v-.3q0-2.558-1.635-2.558-1.485,0-1.608,2.206Zm16.348-.018a5.8,5.8,0,0,1-.967,3.595,3.238,3.238,0,0,1-2.725,1.257,2.81,2.81,0,0,1-2.338-1.151L30.832,44H28.178V30.5H31.14v4.755a2.711,2.711,0,0,1,2.136-.94,3.239,3.239,0,0,1,2.742,1.274,5.826,5.826,0,0,1,.967,3.586Zm-2.971-.189a3.866,3.866,0,0,0-.365-1.952,1.229,1.229,0,0,0-1.121-.584,1.418,1.418,0,0,0-1.389.763v3.773a1.426,1.426,0,0,0,1.406.755,1.258,1.258,0,0,0,1.327-1.018A7.309,7.309,0,0,0,34.014,39.135ZM43.646,44a3.344,3.344,0,0,1-.281-.853,2.754,2.754,0,0,1-2.285,1.028,3.374,3.374,0,0,1-2.285-.813,2.588,2.588,0,0,1-.94-2.043A2.66,2.66,0,0,1,39,38.981a5.821,5.821,0,0,1,3.322-.791h.914v-.5q0-1.316-1.134-1.316a.927.927,0,0,0-1.055,1.042H38.083a2.655,2.655,0,0,1,1.173-2.239,4.931,4.931,0,0,1,2.993-.86,4.323,4.323,0,0,1,2.874.888A3.086,3.086,0,0,1,46.2,37.637v4.21a4.311,4.311,0,0,0,.4,2V44Zm-1.854-1.934a1.652,1.652,0,0,0,.918-.237,1.487,1.487,0,0,0,.523-.536V39.772h-.861q-1.547,0-1.547,1.389a.848.848,0,0,0,.272.655A.986.986,0,0,0,41.792,42.066ZM50.968,44H48V30.5h2.971Zm6.425.176a4.889,4.889,0,0,1-3.542-1.305,4.507,4.507,0,0,1-1.354-3.4v-.246a5.84,5.84,0,0,1,.541-2.575,3.955,3.955,0,0,1,1.578-1.727,4.763,4.763,0,0,1,2.461-.611,4.117,4.117,0,0,1,3.164,1.244,4.887,4.887,0,0,1,1.16,3.467v1.151H55.512a2.135,2.135,0,0,0,.694,1.257,2.066,2.066,0,0,0,1.389.457,2.662,2.662,0,0,0,2.2-.984l1.354,1.6a3.784,3.784,0,0,1-1.569,1.217A5.3,5.3,0,0,1,57.393,44.176ZM57.059,36.6q-1.3,0-1.547,1.723H58.5v-.229a1.467,1.467,0,0,0-.36-1.1A1.434,1.434,0,0,0,57.059,36.6ZM67.57,41.328a.684.684,0,0,0-.4-.606,6.016,6.016,0,0,0-1.5-.475,6.853,6.853,0,0,1-1.828-.646,3.062,3.062,0,0,1-1.1-.971,2.319,2.319,0,0,1-.378-1.31,2.628,2.628,0,0,1,1.081-2.158,4.453,4.453,0,0,1,2.83-.848,4.934,4.934,0,0,1,3.023.853,2.666,2.666,0,0,1,1.143,2.241H67.474q0-1.143-1.2-1.143a1.194,1.194,0,0,0-.782.259.8.8,0,0,0-.316.646.737.737,0,0,0,.387.642,3.654,3.654,0,0,0,1.235.4,10.671,10.671,0,0,1,1.49.378,2.706,2.706,0,0,1,2.145,2.646,2.491,2.491,0,0,1-1.156,2.118,5.068,5.068,0,0,1-2.993.817,5.172,5.172,0,0,1-2.18-.439,3.645,3.645,0,0,1-1.494-1.2,2.707,2.707,0,0,1-.536-1.591h2.769a1.145,1.145,0,0,0,.439.962,1.808,1.808,0,0,0,1.081.3,1.422,1.422,0,0,0,.91-.246A.787.787,0,0,0,67.57,41.328Z" transform="translate(390 5485.246)" fill="#12263f"/>
  </g>
</svg>
