<svg xmlns="http://www.w3.org/2000/svg" xmlns:xlink="http://www.w3.org/1999/xlink" width="610" height="341.358" viewBox="0 0 610 341.358">
  <defs>
    <clipPath id="clip-path">
      <path id="Trazado_182938" data-name="Trazado 182938" d="M875,234.83a10.287,10.287,0,0,0,10.287,10.287h157.906a10.287,10.287,0,0,0,10.287-10.287V141.5H875Z" transform="translate(-875 -141.502)" fill="none"/>
    </clipPath>
  </defs>
  <g id="img1" transform="translate(801.159 24.176)">
    <g id="Grupo_140554" data-name="Grupo 140554" transform="translate(-648.96 142.157)">
      <path id="Trazado_182920" data-name="Trazado 182920" d="M92.386,852.781q3.134-1.849,6.2-3.819c26.07-16.748,48.441-41.423,55.829-71.516S151.235,711.9,124.763,695.8c-23.015-14-52.483-11.379-78.4-4.043s-50.892,18.931-77.689,21.707c-31.737,3.288-65.765-5.729-94.587,7.956-31.991,15.19-46.411,56.7-36.046,90.562,4.751,15.522,13.825,29.2,25.548,40.371Z" transform="translate(169.238 -677.756)" fill="#ebebff" opacity="0.3"/>
      <path id="Trazado_182921" data-name="Trazado 182921" d="M-118.87,828.045l-.1-.061c-2.044-1.3-4.067-2.639-6.013-3.987-28.418-19.664-47.644-46.212-54.137-74.754-7.638-33.573,4.512-69.545,28.89-85.531,19-12.457,44.626-13.9,76.176-4.294,8.2,2.5,16.439,5.519,24.4,8.44,16.356,6,33.269,12.2,50.672,14.14,10.772,1.2,22,.807,32.857.427,19.969-.7,40.617-1.418,58.776,7.867,29.849,15.261,45.562,57.8,35.03,94.836-4.547,15.985-13.8,28.632-30.924,42.288l-.107.084h-.136Zm7.07-174.111c-14.688,0-27.394,3.479-38,10.433-24.114,15.813-36.123,51.437-28.556,84.7,6.45,28.349,25.563,54.731,53.819,74.284,1.907,1.32,3.888,2.634,5.891,3.908l215.025-.543C113.3,813.2,122.444,800.7,126.934,784.913c10.436-36.69-5.1-78.825-34.634-93.925-17.978-9.191-38.522-8.471-58.392-7.781-10.886.381-22.141.774-32.97-.432-17.5-1.945-34.456-8.166-50.855-14.182-7.953-2.917-16.177-5.934-24.361-8.426Q-94.75,653.932-111.8,653.933Z" transform="translate(181.385 -653.151)" fill="#9192ff" opacity="0.6"/>
    </g>
    <g id="Grupo_140557" data-name="Grupo 140557" transform="translate(-331.821 262.967)">
      <g id="Grupo_140555" data-name="Grupo 140555" transform="translate(27.275 11.289)">
        <path id="Trazado_182922" data-name="Trazado 182922" d="M1235.05,1217.122c-7.688,0-13.941-5.842-13.941-13.023s6.253-13.023,13.941-13.023,13.942,5.842,13.942,13.023S1242.738,1217.122,1235.05,1217.122Zm0-21.192c-5.01,0-9.086,3.664-9.086,8.169s4.077,8.169,9.086,8.169,9.087-3.664,9.087-8.169S1240.061,1195.93,1235.05,1195.93Z" transform="translate(-1221.109 -1191.075)" fill="#3335cf"/>
      </g>
      <g id="Grupo_140556" data-name="Grupo 140556">
        <path id="Trazado_182923" data-name="Trazado 182923" d="M1148.114,1200.166H1117.6l-5.215-52.937h40.942Z" transform="translate(-1111.812 -1146.707)" fill="#fff"/>
        <path id="Trazado_182924" data-name="Trazado 182924" d="M1146.818,1199.084h-31.456l-5.318-53.981h42.093Zm-30.51-1.044h29.564l5.113-51.894H1111.2Z" transform="translate(-1110.044 -1145.103)" fill="#3335cf"/>
      </g>
      <path id="Trazado_182925" data-name="Trazado 182925" d="M1164.687,1242.931h-19.9l-3.4-33.185h26.7Z" transform="translate(-1133.693 -1193.872)" fill="#ebebff"/>
    </g>
    <g id="Grupo_140559" data-name="Grupo 140559" transform="translate(-801.159 3.768)">
      <path id="Trazado_182926" data-name="Trazado 182926" d="M-680.784,191.737h-5.655v-1.043h5.655a10.623,10.623,0,0,0,3.727-.669l.365.977A11.654,11.654,0,0,1-680.784,191.737Zm-11.309,0h-5.655v-1.043h5.655Zm-11.309,0h-5.655v-1.043h5.655Zm-11.309,0h-5.655v-1.043h5.655Zm-11.31,0h-5.655v-1.043h5.655Zm-11.309,0h-5.654v-1.043h5.654Zm-11.309,0H-754.3v-1.043h5.655Zm-11.309,0H-765.6v-1.043h5.655Zm-11.309,0h-5.655v-1.043h5.655Zm-11.309,0h-5.655v-1.043h5.655Zm-11.4-.9a11.759,11.759,0,0,1-4.666-3.536l.817-.649a10.713,10.713,0,0,0,4.251,3.222Zm122.069-3.189-.792-.679a10.656,10.656,0,0,0,2.348-4.787l1.021.209A11.7,11.7,0,0,1-671.894,187.648ZM-801,181.949a11.753,11.753,0,0,1-.156-1.918v-3.813h1.043v3.814a10.693,10.693,0,0,0,.142,1.747Zm131.924-5.3h-1.043v-5.655h1.043Zm-131.037-6.085h-1.043v-5.655h1.043Zm131.037-5.225h-1.043v-5.654h1.043Zm-131.037-6.085h-1.043V153.6h1.043Zm131.037-5.225h-1.043v-5.655h1.043Zm-131.037-6.085h-1.043V142.29h1.043Zm131.037-5.225h-1.043v-5.654h1.043Zm-131.037-6.085h-1.043V130.98h1.043Zm131.037-5.225h-1.043v-5.655h1.043Zm-131.037-6.085h-1.043v-5.655h1.043Zm131.037-5.225h-1.043v-5.655h1.043Zm-131.037-6.085h-1.043v-5.654h1.043Zm131.037-5.224h-1.043v-5.655h1.043Zm-131.037-6.085h-1.043V101.32a11.638,11.638,0,0,1,.839-4.359l.968.388a10.606,10.606,0,0,0-.764,3.971Zm129.376-4.973a10.7,10.7,0,0,0-2.995-4.413l.69-.783a11.746,11.746,0,0,1,3.288,4.845Zm-125.45-4.679-.66-.808a11.685,11.685,0,0,1,5.318-2.448l.184,1.026A10.644,10.644,0,0,0-796.19,93.055Zm117.7-2.149a10.722,10.722,0,0,0-2.3-.248h-3.227V89.615h3.227a11.752,11.752,0,0,1,2.519.272Zm-11.178-.248h-5.655V89.615h5.655Zm-11.309,0h-5.655V89.615h5.655Zm-11.309,0h-5.655V89.615h5.655Zm-11.31,0h-5.655V89.615h5.655Zm-11.309,0h-5.655V89.615h5.655Zm-11.309,0h-5.654V89.615h5.654Zm-11.309,0h-5.655V89.615h5.655Zm-11.309,0h-5.655V89.615h5.655Zm-11.309,0H-785.8V89.615h5.655Z" transform="translate(801.159 -89.615)" fill="#9192ff"/>
      <rect id="Rectángulo_35894" data-name="Rectángulo 35894" width="145.99" height="112.613" rx="50.74" transform="translate(21.031 15.454)" fill="#9192ff"/>
      <g id="Grupo_140558" data-name="Grupo 140558" transform="translate(33.893 48.884)">
        <rect id="Rectángulo_35895" data-name="Rectángulo 35895" width="14.247" height="68.327" fill="#fff"/>
        <rect id="Rectángulo_35896" data-name="Rectángulo 35896" width="14.247" height="56.302" transform="translate(26.505 12.025)" fill="#fff"/>
        <rect id="Rectángulo_35897" data-name="Rectángulo 35897" width="14.247" height="45.786" transform="translate(53.01 22.541)" fill="#fff"/>
        <rect id="Rectángulo_35898" data-name="Rectángulo 35898" width="14.247" height="38.368" transform="translate(79.515 29.959)" fill="#fff"/>
        <rect id="Rectángulo_35899" data-name="Rectángulo 35899" width="14.247" height="16.49" transform="translate(106.019 51.837)" fill="#fff"/>
      </g>
      <rect id="Rectángulo_35900" data-name="Rectángulo 35900" width="70.683" height="6.126" transform="translate(58.685 30.978)" fill="#fff"/>
    </g>
    <g id="Grupo_140560" data-name="Grupo 140560" transform="translate(-585.534 -1.847)">
      <path id="Trazado_182927" data-name="Trazado 182927" d="M343.912,66.8c-7.37,3.412-17.181,8.9-15.315,18.663,1.831,9.575,13.386,7.847,20.132,5.558A65.377,65.377,0,0,0,363,84.2c2.886-1.85,6.945-5.047,5.959-9.01-.846-3.4-4.8-4.4-7.831-3.776a32.543,32.543,0,0,0-12.878,6.412c-3.13,2.566-5.569,6.562-4.955,10.752.561,3.83,3.722,6.56,7.241,7.762,4.385,1.5,10.333,1.19,14.742-.148,2.679-.813,5.156-3.24,3.4-6.141-2.075-3.435-6.382-2.6-9.368-1.092-4.031,2.041-8.8,4.707-10.8,8.986-1.513,3.249-1.273,7.278,1.671,9.631,2.885,2.305,7.048,2.314,10.543,2.048,2.893-.221,7.616-.825,8.075-4.473.463-3.679-4.061-5.352-6.935-4.266-4.453,1.683-7.243,7.173-8.593,11.425a25.8,25.8,0,0,0-.017,15.422c.2.639,1.2.367,1.006-.277A24.727,24.727,0,0,1,356.4,107.8c1.653-2.845,4.91-7.343,8.8-6.085,2.078.672,3.551,3.132,1.709,4.983-1.294,1.3-3.475,1.618-5.213,1.8a22.016,22.016,0,0,1-7.71-.26,6.642,6.642,0,0,1-4.811-9.188c1.3-3.443,4.478-5.6,7.507-7.412,2.878-1.718,8.618-5.312,11.1-1.062,2.776,4.761-6.255,5.266-8.734,5.453-3.642.275-7.5.144-10.685-1.861A8.126,8.126,0,0,1,344.7,84.54c1.233-3.866,4.443-6.442,7.871-8.336,2.675-1.478,5.809-3.2,8.828-3.783,2.128-.411,4.813-.075,6.081,1.945,1.518,2.417-.292,5.055-2.043,6.7-4.905,4.619-12.313,7.537-18.65,9.486-6.6,2.03-17.429,2.469-17.334-7.246.082-8.4,8.392-12.556,14.983-15.607.609-.282.079-1.181-.526-.9Z" transform="translate(-266.611 -66.749)" fill="#1b1b43"/>
      <path id="Trazado_182928" data-name="Trazado 182928" d="M78.429,267.276c1.69,3.555,3.228,7.163,4.724,10.787l2.189,5.455,2.1,5.487-3.133-.922,5.259-4.126c1.755-1.372,3.547-2.7,5.318-4.048l2.143-1.634.99,2.478c.713,1.783,1.373,3.588,2.063,5.38s1.315,3.611,1.975,5.416c.621,1.821,1.269,3.63,1.853,5.466q.908,2.741,1.7,5.529l-1.51.617q-1.387-2.545-2.662-5.135c-.87-1.719-1.676-3.464-2.509-5.2-.794-1.75-1.616-3.488-2.387-5.248s-1.558-3.512-2.3-5.283l3.133.844c-1.759,1.368-3.5,2.762-5.272,4.109l-5.332,4.032-2.264,1.712-.869-2.634L81.8,284.78l-1.75-5.611c-1.13-3.754-2.219-7.522-3.156-11.345Z" transform="translate(-76.892 -218.032)" fill="#ffa121"/>
      <path id="Trazado_182929" data-name="Trazado 182929" d="M600.511,312.423c-.936,3.823-2.025,7.591-3.156,11.345l-1.75,5.611-1.84,5.579-.869,2.634-2.264-1.712-5.332-4.032c-1.775-1.347-3.513-2.741-5.272-4.109l3.133-.844c-.741,1.772-1.535,3.522-2.3,5.283s-1.593,3.5-2.387,5.248c-.833,1.734-1.639,3.479-2.509,5.2q-1.273,2.591-2.662,5.135l-1.51-.618q.794-2.787,1.7-5.529c.584-1.836,1.232-3.645,1.853-5.466.66-1.8,1.292-3.621,1.975-5.416s1.35-3.6,2.063-5.38l.99-2.478,2.143,1.634c1.772,1.351,3.563,2.676,5.318,4.049l5.259,4.126-3.133.922,2.1-5.487,2.19-5.455c1.5-3.624,3.034-7.232,4.723-10.787Z" transform="translate(-450.261 -251.68)" fill="#ffa121"/>
    </g>
    <g id="Grupo_140573" data-name="Grupo 140573" transform="translate(-390.062 -24.176)">
      <g id="Grupo_140567" data-name="Grupo 140567">
        <g id="Grupo_140563" data-name="Grupo 140563" transform="translate(0.522 40.686)">
          <g id="Grupo_140562" data-name="Grupo 140562" transform="translate(0 0)" clip-path="url(#clip-path)">
            <path id="Trazado_182930" data-name="Trazado 182930" d="M875,234.83a10.287,10.287,0,0,0,10.287,10.287h157.906a10.287,10.287,0,0,0,10.287-10.287V141.5H875Z" transform="translate(-875 -141.502)" fill="#fff"/>
            <g id="Grupo_140561" data-name="Grupo 140561" transform="translate(-44.826 9.723)">
              <path id="Trazado_182931" data-name="Trazado 182931" d="M720.305,242.8a16.488,16.488,0,0,1,32.359-2.277,9.851,9.851,0,0,1,11.818,13.624c7.586,1.2,12.587,10.6,9.338,17.56A18.42,18.42,0,0,1,796.886,287.8a16.767,16.767,0,0,1,32.562,1.357c22.623-34.4,82.019-24.448,98.942,13.711l-24.555,62.382-145.67,3.318-65.7-74.66Z" transform="translate(-692.464 -216.583)" fill="#d1d1ff" opacity="0.6"/>
              <path id="Trazado_182932" data-name="Trazado 182932" d="M768.535,335.943c5.33-3.981,11.1-7.612,17.564-9.183s13.766-.824,19,3.279,7.674,11.949,4.5,17.8a11.882,11.882,0,0,1,10.69,18.794,17.487,17.487,0,0,1,24.613,10.727c6.511-5.46,17.558-4.119,22.574,2.741,10.812-10.29,27.337-15.963,41.049-10.066,7.953,3.421,14.036,10.275,18.154,17.89s6.482,16.033,8.814,24.37l-123.71,11.189L760.025,406.89Z" transform="translate(-743.434 -290.414)" fill="#fff"/>
              <path id="Trazado_182933" data-name="Trazado 182933" d="M1221.118,217.112a16.115,16.115,0,0,0-10.611-.8,10.7,10.7,0,0,0-18.148,11.013,7.862,7.862,0,0,0,2.821,14.213,10.7,10.7,0,0,0,21.015,3.9,7.851,7.851,0,0,0,11.127-9.713,8.576,8.576,0,0,0,2.547-3.366C1232.143,226.9,1228.225,220.073,1221.118,217.112Z" transform="translate(-1066.991 -204.634)" fill="#fff2e0"/>
              <path id="Trazado_182934" data-name="Trazado 182934" d="M1091.77,200.805a8.115,8.115,0,0,0-5.343-.4,5.389,5.389,0,0,0-9.138,5.546,3.959,3.959,0,0,0,1.42,7.157,5.358,5.358,0,0,0,5.339,6.112,5.391,5.391,0,0,0,5.243-4.15,3.953,3.953,0,0,0,5.6-4.891,4.317,4.317,0,0,0,1.282-1.695C1097.321,205.733,1095.348,202.3,1091.77,200.805Z" transform="translate(-981.473 -194.135)" fill="#fff2e0"/>
              <path id="Trazado_182935" data-name="Trazado 182935" d="M992.23,184.561a3.3,3.3,0,0,1-.683,3.066,3.539,3.539,0,0,1-6.16-1.361,5.262,5.262,0,0,1-.142-3.23C986.474,179.357,991.375,181.5,992.23,184.561Z" transform="translate(-913.199 -181.095)" fill="#d1d1ff"/>
              <path id="Trazado_182936" data-name="Trazado 182936" d="M1130.671,354.419a2.1,2.1,0,0,1-.434,1.947,2.247,2.247,0,0,1-3.912-.864,3.339,3.339,0,0,1-.09-2.051C1127.016,351.113,1130.129,352.476,1130.671,354.419Z" transform="translate(-1019.62 -310.195)" fill="#d1d1ff"/>
              <path id="Trazado_182937" data-name="Trazado 182937" d="M1433.858,235.5a2.1,2.1,0,0,1-.433,1.947,2.248,2.248,0,0,1-3.912-.865,3.343,3.343,0,0,1-.09-2.051C1430.2,232.191,1433.315,233.553,1433.858,235.5Z" transform="translate(-1248.352 -220.476)" fill="#d1d1ff"/>
            </g>
          </g>
        </g>
        <path id="Trazado_182939" data-name="Trazado 182939" d="M1041.59,244.036H883.684a10.821,10.821,0,0,1-10.808-10.808V139.379H1052.4v93.849A10.821,10.821,0,0,1,1041.59,244.036ZM873.92,140.422v92.807a9.776,9.776,0,0,0,9.764,9.765H1041.59a9.777,9.777,0,0,0,9.765-9.765V140.422Z" transform="translate(-872.876 -99.214)" fill="#9192ff"/>
        <g id="Grupo_140566" data-name="Grupo 140566">
          <g id="Grupo_140564" data-name="Grupo 140564">
            <path id="Trazado_182940" data-name="Trazado 182940" d="M1043.193-22.053H885.287A10.287,10.287,0,0,0,875-11.766V18.112h178.479V-11.766A10.287,10.287,0,0,0,1043.193-22.053Z" transform="translate(-874.478 22.574)" fill="#fff"/>
            <path id="Trazado_182941" data-name="Trazado 182941" d="M1052.4,17.031H872.876v-30.4a10.82,10.82,0,0,1,10.808-10.808H1041.59A10.821,10.821,0,0,1,1052.4-13.368ZM873.92,15.989h177.435V-13.368a9.777,9.777,0,0,0-9.765-9.765H883.684a9.776,9.776,0,0,0-9.764,9.765Z" transform="translate(-872.876 24.176)" fill="#9192ff"/>
          </g>
          <circle id="Elipse_4789" data-name="Elipse 4789" cx="7.476" cy="7.476" r="7.476" transform="translate(17.268 13.128)" fill="#d1d1ff"/>
          <g id="Grupo_140565" data-name="Grupo 140565" transform="translate(43.866 13.476)">
            <path id="Trazado_182942" data-name="Trazado 182942" d="M1143.336,46.036h-83.1a6.606,6.606,0,0,1-6.606-6.606h0a6.606,6.606,0,0,1,6.606-6.606h83.1a6.606,6.606,0,0,1,6.607,6.606h0A6.606,6.606,0,0,1,1143.336,46.036Z" transform="translate(-1053.108 -32.301)" fill="#fff"/>
            <path id="Trazado_182943" data-name="Trazado 182943" d="M1141.734,44.955h-83.1a7.128,7.128,0,1,1,0-14.256h83.1a7.128,7.128,0,0,1,0,14.256Zm-83.1-13.213a6.085,6.085,0,0,0,0,12.17h83.1a6.085,6.085,0,0,0,0-12.17Z" transform="translate(-1051.505 -30.699)" fill="#9192ff"/>
          </g>
        </g>
      </g>
      <g id="Grupo_140572" data-name="Grupo 140572" transform="translate(86.286 75.108)">
        <g id="Grupo_140568" data-name="Grupo 140568">
          <path id="Trazado_182944" data-name="Trazado 182944" d="M1266.836,296.068s-14.981-14.1-29.962-14.393l10.869,7.344-20.268-3.819,18.8,9.4-22.031,1.469a51.81,51.81,0,0,1,30.843,17.331Z" transform="translate(-1224.243 -281.674)" fill="#ffa121"/>
          <path id="Trazado_182945" data-name="Trazado 182945" d="M1323.132,328.9s-6.3-10.542-14.2-12.15l4.907,5.781-10.293-4.389,8.87,7.862-11.838-1.134c6.009,2.471,10.906,6.965,14.331,14.135Z" transform="translate(-1281.829 -308.139)" fill="#fff" opacity="0.6"/>
        </g>
        <g id="Grupo_140571" data-name="Grupo 140571" transform="translate(26.333 9.108)">
          <g id="Grupo_140569" data-name="Grupo 140569" transform="translate(38.958 0.31)">
            <path id="Trazado_182946" data-name="Trazado 182946" d="M1538.132,358.395c-8.011-14.018-3.022-32.573-10.729-37.332l-15.3,18.947Z" transform="translate(-1506.702 -320.808)" fill="#3335cf"/>
            <path id="Trazado_182947" data-name="Trazado 182947" d="M1510.816,320.28l-1.98-.212a7.421,7.421,0,0,0-5.783,1.887l-12.937,11.76,5.4,5.513Z" transform="translate(-1490.115 -320.026)" fill="#c5c5ff"/>
          </g>
          <g id="Grupo_140570" data-name="Grupo 140570" transform="translate(7.99 40.244)">
            <path id="Trazado_182948" data-name="Trazado 182948" d="M1406.83,520.984c-15.391-4.88-32.479,3.9-38.754-2.629l15.3-18.947Z" transform="translate(-1367.077 -495.29)" fill="#3335cf"/>
            <path id="Trazado_182949" data-name="Trazado 182949" d="M1365.008,505.705l-.625-1.891a7.423,7.423,0,0,1,.628-6.051l8.773-15.123,6.526,4.118Z" transform="translate(-1364.009 -482.64)" fill="#c5c5ff"/>
          </g>
          <path id="Trazado_182950" data-name="Trazado 182950" d="M1632.322,572.084l-5.566-15.621-10.877,13.469Z" transform="translate(-1546.038 -498.091)" fill="#1b1b43"/>
          <path id="Trazado_182951" data-name="Trazado 182951" d="M1371.621,374.558c11.226,24.01,31.9,42.776,59.988,43.059l10.872-13.463c-6.191-27.4-28.889-43.659-54.724-49.578Z" transform="translate(-1361.762 -345.781)" fill="#c5c5ff"/>
          <path id="Trazado_182952" data-name="Trazado 182952" d="M1357.47,327.557l-5.966-8.8-20.029,24.8,9.859,3.975Z" transform="translate(-1331.474 -318.762)" fill="#3335cf"/>
          <path id="Trazado_182953" data-name="Trazado 182953" d="M1346.27,346.937h0a2.264,2.264,0,0,1,3.184-.339l20.405,16.478a2.264,2.264,0,0,1,.339,3.184h0a2.264,2.264,0,0,1-3.184.339l-20.405-16.478A2.265,2.265,0,0,1,1346.27,346.937Z" transform="translate(-1342.257 -339.383)" fill="#1b1b43"/>
          <circle id="Elipse_4790" data-name="Elipse 4790" cx="9.497" cy="9.497" r="9.497" transform="translate(49.658 61.522) rotate(-88.461)" fill="#fff"/>
          <circle id="Elipse_4791" data-name="Elipse 4791" cx="5.802" cy="5.802" r="5.802" transform="matrix(0.994, -0.106, 0.106, 0.994, 53.023, 47.128)" fill="#1b1b43"/>
          <path id="Trazado_182954" data-name="Trazado 182954" d="M1581.858,526.768a1.061,1.061,0,1,1,1.492-.159A1.062,1.062,0,0,1,1581.858,526.768Z" transform="translate(-1520.073 -474.264)" fill="#fff"/>
        </g>
      </g>
    </g>
    <g id="Grupo_140580" data-name="Grupo 140580" transform="translate(-612.016 85.499)">
      <g id="Grupo_140574" data-name="Grupo 140574" transform="translate(0 78.955)">
        <path id="Trazado_182955" data-name="Trazado 182955" d="M118.312,746.152l-36.248-2.2-47.294,12.5a53.267,53.267,0,0,0-36.164,32.5l-29.551,77.388,58.069-51.456L43.119,895.9l108.482-.348-.347-112.481Z" transform="translate(30.945 -743.951)" fill="#3335cf"/>
        <path id="Trazado_182956" data-name="Trazado 182956" d="M407.6,884.264a22.415,22.415,0,0,1-16.761-7.079l.776-.7c4.342,4.838,11.207,7.319,18.352,6.617a23.933,23.933,0,0,0,18.363-11.752l.9.535a24.968,24.968,0,0,1-19.157,12.255C409.237,884.223,408.412,884.264,407.6,884.264Z" transform="translate(-287.258 -840.067)" fill="#c5c5ff"/>
      </g>
      <g id="Grupo_140576" data-name="Grupo 140576" transform="translate(46.769)">
        <path id="Trazado_182957" data-name="Trazado 182957" d="M356.355,657.6c-6.947,3.359-15.479.042-18.974-7.385L336.2,647.7l-11.954-25.4-7.312-15.552,35.329-17.076,15.386,32.691C373.973,635.813,368.934,651.522,356.355,657.6Z" transform="translate(-278.275 -548.607)" fill="#ffbc96"/>
        <path id="Trazado_182958" data-name="Trazado 182958" d="M378.1,695.825c-3.108,15.146-10.879,25.525-19.433,31.961l-11.954-25.4Z" transform="translate(-300.738 -628.688)" fill="#1b1b43"/>
        <path id="Trazado_182959" data-name="Trazado 182959" d="M309.841,527.317c0,18.291-10.313,30.829-23.394,37.292-13.462,6.651-27.518-18.9-34.233-35.988-6.969-17.733,12.216-31.032,28.277-31.032S309.841,509.027,309.841,527.317Z" transform="translate(-228.338 -479.133)" fill="#ffbc96"/>
        <path id="Trazado_182960" data-name="Trazado 182960" d="M241.736,460.189c-1.565-18.776-5.381-36.525-22.774-31.989-6.606-9.214-34.249-9.04-41.028,12.865C173.559,455.2,159.505,462.1,159.505,462.1c16.863,8.866,32.409,5.546,54.067-10.953,6.78,9.909,26.078,10.6,26.078,10.6Z" transform="translate(-159.505 -422.436)" fill="#1b1b43"/>
        <ellipse id="Elipse_4792" data-name="Elipse 4792" cx="10.822" cy="8.46" rx="10.822" ry="8.46" transform="translate(69.469 55.169) rotate(-82.69)" fill="#ffbc96"/>
        <path id="Trazado_182961" data-name="Trazado 182961" d="M479.706,587.812a4.258,4.258,0,0,0-1.48,3.523,7.207,7.207,0,0,0,.307,1.98,4.875,4.875,0,0,0,.94,1.779l-.31.527a3.473,3.473,0,0,1-1.895-1.768,5.44,5.44,0,0,1-.6-2.513,4.826,4.826,0,0,1,.687-2.54,3.336,3.336,0,0,1,2.1-1.543Z" transform="translate(-398.782 -546.781)" fill="#1b1b43"/>
        <g id="Grupo_140575" data-name="Grupo 140575" transform="translate(30.323 42.782)">
          <ellipse id="Elipse_4793" data-name="Elipse 4793" cx="2.637" cy="2.956" rx="2.637" ry="2.956" transform="matrix(0.998, -0.066, 0.066, 0.998, 18.448, 6.796)" fill="#1b1b43"/>
          <ellipse id="Elipse_4794" data-name="Elipse 4794" cx="2.393" cy="2.682" rx="2.393" ry="2.682" transform="translate(4.238 13.226) rotate(-21.148)" fill="#1b1b43"/>
          <path id="Trazado_182962" data-name="Trazado 182962" d="M363.037,598.589c.055.827-4.338.561-6.225.96-1.611.34-4.066,1.91-5.172.343-1-1.414,1.51-3.017,4.617-3.223S362.982,597.762,363.037,598.589Z" transform="translate(-334.612 -596.647)" fill="#1b1b43"/>
          <path id="Trazado_182963" data-name="Trazado 182963" d="M283.1,623.95c.494.677,2.736-1.653,4.024-2.251,1.1-.51,3.441-.46,3.056-2.228-.347-1.594-2.739-1.645-4.575-.307S282.6,623.273,283.1,623.95Z" transform="translate(-282.984 -612.918)" fill="#1b1b43"/>
          <path id="Trazado_182964" data-name="Trazado 182964" d="M355.061,707.864a8.541,8.541,0,0,1,3.9-2.484,11.675,11.675,0,0,1,4.508-.581l.113.6a32.855,32.855,0,0,1-4.138,1.461c-1.362.421-2.642.922-4.011,1.493Z" transform="translate(-337.361 -678.218)" fill="#1b1b43"/>
          <path id="Trazado_182965" data-name="Trazado 182965" d="M325.706,663.835a6.4,6.4,0,0,1-.678,3.452,6.075,6.075,0,0,1-1.1,1.464,5.161,5.161,0,0,0-.913,1.011.864.864,0,0,0-.059.412c-.006.113.025.12.018.138s.047.066.075.114a3.115,3.115,0,0,0,1.113.612,30.416,30.416,0,0,0,3.079.816l-.014.612a9.806,9.806,0,0,1-3.445-.108,3.956,3.956,0,0,1-1.812-.853,2.135,2.135,0,0,1-.394-.556,1.862,1.862,0,0,1-.164-.66,2.206,2.206,0,0,1,.2-1.2,5.052,5.052,0,0,1,1.287-1.424,6.332,6.332,0,0,0,.992-1.074,8.964,8.964,0,0,0,1.211-2.819Z" transform="translate(-311.96 -647.29)" fill="#d28572"/>
          <circle id="Elipse_4795" data-name="Elipse 4795" cx="6.671" cy="6.671" r="6.671" transform="matrix(0.012, -1, 1, 0.012, 28.782, 20.421)" fill="#fe5b52" opacity="0.2"/>
        </g>
      </g>
      <path id="Trazado_182966" data-name="Trazado 182966" d="M637.275,790.7a65.92,65.92,0,0,0-55.534-37.489l-4.892-.3,36.083,82.164,39.495-14.661Z" transform="translate(-427.591 -671.757)" fill="#3335cf"/>
      <g id="Grupo_140577" data-name="Grupo 140577" transform="translate(8.767 35.92)">
        <path id="Trazado_182967" data-name="Trazado 182967" d="M79.613,599.646c-.391-6,.652-20.08-3-18.515s-4.564,21.9-4.564,21.9-.522-33.9-4.433-32.336S63.706,596.776,55.1,622.854L6.77,724.925A20.8,20.8,0,0,0,21.617,754.25h0A20.8,20.8,0,0,0,44.87,741.589c12.518-31.1,35.51-98.228,37.743-111.3,1.825-10.692,1.354-15.315.649-18.064C82.1,607.68,79.919,604.326,79.613,599.646Z" transform="translate(-4.755 -570.169)" fill="#ffbc96"/>
        <path id="Trazado_182968" data-name="Trazado 182968" d="M211,619.133a91.3,91.3,0,0,0,3.346-12.423c.887-4.207,1.633-8.444,2.4-12.679l2.267-12.722c.4-2.119.813-4.237,1.309-6.347.25-1.055.518-2.107.852-3.155a14.385,14.385,0,0,1,.594-1.566,5.41,5.41,0,0,1,.432-.781,1.665,1.665,0,0,1,.9-.716l-.038.01a2.587,2.587,0,0,1,.465-.049,2.063,2.063,0,0,1,.427.132,1.829,1.829,0,0,1,.546.465,4.12,4.12,0,0,1,.6,1.016,13.534,13.534,0,0,1,.695,2.054,42.09,42.09,0,0,1,.845,4.141c.435,2.77.734,5.549.966,8.332.451,5.566.692,11.144.638,16.733l-1.187-.026c.13-3.156.367-6.289.725-9.423a49.82,49.82,0,0,1,1.8-9.333,11.284,11.284,0,0,1,1.018-2.254,3.837,3.837,0,0,1,.9-1.016,1.99,1.99,0,0,1,1.5-.4c.126.029.244.075.366.115a.994.994,0,0,1,.384.191,2.392,2.392,0,0,1,.205.183,1.217,1.217,0,0,1,.114.166,2.362,2.362,0,0,1,.184.324,7.229,7.229,0,0,1,.4,1.207,22.038,22.038,0,0,1,.438,2.368,69.068,69.068,0,0,1,.488,9.458c-.01,1.589-.11,3.132.027,4.659a26.011,26.011,0,0,0,.8,4.547,46.057,46.057,0,0,0,1.455,4.423,27.881,27.881,0,0,1,1.447,4.531,31.357,31.357,0,0,1,.458,9.47,55.05,55.05,0,0,1-1.727,9.285l-.452-.118a54.5,54.5,0,0,0,1.539-9.218,30.638,30.638,0,0,0-.614-9.238,28.761,28.761,0,0,0-1.451-4.406,46.912,46.912,0,0,1-1.511-4.5,26.883,26.883,0,0,1-.857-4.7c-.153-1.6-.059-3.2-.06-4.742a68.226,68.226,0,0,0-.539-9.312,21.158,21.158,0,0,0-.43-2.252,6.348,6.348,0,0,0-.343-1.019,1.3,1.3,0,0,0-.107-.186c-.038-.082-.065-.087-.065-.087.028-.019-.084-.04-.137-.061s-.129-.05-.192-.067c-.463-.074-.965.334-1.338.953a10.307,10.307,0,0,0-.895,2.03,48.884,48.884,0,0,0-1.694,9.121c-.334,3.1-.55,6.224-.659,9.334l-1.187-.026c.052-5.542-.13-11.1-.554-16.63-.215-2.765-.495-5.525-.908-8.257a41.051,41.051,0,0,0-.8-4.04,12.579,12.579,0,0,0-.628-1.9,3.2,3.2,0,0,0-.446-.781.886.886,0,0,0-.229-.217c-.027,0-.046-.016-.067-.027a.04.04,0,0,1-.054,0l-.039.011a.928.928,0,0,0-.308.309,4.439,4.439,0,0,0-.35.63,13.368,13.368,0,0,0-.557,1.449c-.327,1-.6,2.036-.849,3.075-.5,2.079-.927,4.186-1.337,6.3l-2.34,12.7c-.771,4.239-1.614,8.467-2.572,12.674A91.887,91.887,0,0,1,211.44,619.3Z" transform="translate(-160.355 -568.705)" fill="#d28572"/>
      </g>
      <g id="Grupo_140579" data-name="Grupo 140579" transform="translate(71.087 142.53)">
        <path id="Trazado_182969" data-name="Trazado 182969" d="M782.156,1085.122c-.177,12.016-5.414,20.413-11.975,25.253l-13.32-.209-3.3-.052h-.073l-15.657-35.643-.031-.083-14.03-31.94,39.492-14.666L778,1063.958A57.581,57.581,0,0,1,782.156,1085.122Z" transform="translate(-609.523 -1021.656)" fill="#ffbc96"/>
        <path id="Trazado_182970" data-name="Trazado 182970" d="M420.231,1202.7l-103.67,11.6-13.49-4.358a19.112,19.112,0,0,0-17.808,3.246c-11.763,9.4-30.887,26.713-25.931,28.107,8.345,2.347,19.244-2.044,29.028-4.5a22.973,22.973,0,0,1,16.073,1.824l6.783,3.474,103.278-.014Z" transform="translate(-258.53 -1153.619)" fill="#ffbc96"/>
        <g id="Grupo_140578" data-name="Grupo 140578" transform="translate(3.273 63.902)">
          <path id="Trazado_182971" data-name="Trazado 182971" d="M271.856,1313.8c2.8-1.636,5.638-3.189,8.488-4.724,2.842-1.55,5.733-3,8.6-4.51a33.349,33.349,0,0,1,4.5-2.05,22.649,22.649,0,0,1,4.865-1.12,24.751,24.751,0,0,1,4.971-.057,22.353,22.353,0,0,1,4.827,1.034l-.16.59a26.26,26.26,0,0,0-4.735-.533,23.549,23.549,0,0,0-4.711.318,24.336,24.336,0,0,0-4.542,1.2,37.4,37.4,0,0,0-4.312,1.994c-2.9,1.432-5.777,2.917-8.7,4.305-2.916,1.4-5.842,2.79-8.81,4.091Z" transform="translate(-271.856 -1291.865)" fill="#d28572"/>
          <path id="Trazado_182972" data-name="Trazado 182972" d="M278,1279.809c1.883-1.783,3.852-3.458,5.862-5.086s4.068-3.2,6.181-4.7a73.417,73.417,0,0,1,6.565-4.2c2.3-1.205,4.634-2.52,7.378-2.777l.051.609a13.835,13.835,0,0,0-3.444,1.416c-1.127.564-2.209,1.251-3.286,1.927-2.157,1.362-4.26,2.831-6.366,4.293s-4.175,2.99-6.275,4.476c-2.087,1.5-4.167,3.025-6.275,4.508Z" transform="translate(-276.49 -1263.05)" fill="#d28572"/>
        </g>
        <rect id="Rectángulo_35901" data-name="Rectángulo 35901" width="13.913" height="1.564" transform="translate(128.129 51.947) rotate(-1.406)" fill="#d28572"/>
        <rect id="Rectángulo_35902" data-name="Rectángulo 35902" width="1.043" height="22.906" transform="translate(103.689 0.46) rotate(-26.153)" fill="#ebebff"/>
        <path id="Trazado_182973" data-name="Trazado 182973" d="M881.464,1258.743c-.177,12.016-5.414,20.413-11.975,25.253l-13.32-.209a.094.094,0,0,1-.01-.052,20.329,20.329,0,0,1,19.589-25.817A19.929,19.929,0,0,1,881.464,1258.743Z" transform="translate(-708.831 -1195.277)" fill="#fe5b52" opacity="0.2"/>
      </g>
    </g>
    <g id="Grupo_140582" data-name="Grupo 140582" transform="translate(-694.762 221.634)">
      <g id="Grupo_140581" data-name="Grupo 140581" transform="translate(0.519 0.392)">
        <rect id="Rectángulo_35903" data-name="Rectángulo 35903" width="59.457" height="12.517" transform="translate(101.354 81.883)" fill="#1b1b43"/>
        <path id="Trazado_182974" data-name="Trazado 182974" d="M-244.264,1072.787h-94.4l-27.121-94.4h94.4Z" transform="translate(365.785 -978.386)" fill="#ebebff"/>
      </g>
      <path id="Trazado_182975" data-name="Trazado 182975" d="M-340.635,1071.691l-27.264-94.9h29.2v.783H-366.86l26.977,93.9Z" transform="translate(367.899 -976.791)" fill="#1b1b43"/>
      <path id="Trazado_182976" data-name="Trazado 182976" d="M-98.955,1037.071l-17.3-59.5h-43.516v-.783h44.1l17.467,60.062Z" transform="translate(210.884 -976.791)" fill="#1b1b43"/>
    </g>
    <g id="Grupo_140584" data-name="Grupo 140584" transform="translate(-756.964 -17.905)">
      <circle id="Elipse_4796" data-name="Elipse 4796" cx="7.823" cy="7.823" r="7.823" transform="translate(168.254 14.996) rotate(-73.435)" fill="#ebebff"/>
      <circle id="Elipse_4797" data-name="Elipse 4797" cx="10.083" cy="10.083" r="10.083" transform="translate(0 203.94) rotate(-76.717)" fill="#ebebff"/>
      <g id="Grupo_140583" data-name="Grupo 140583" transform="translate(482.834 195.062)">
        <circle id="Elipse_4798" data-name="Elipse 4798" cx="7.823" cy="7.823" r="7.823" transform="translate(15.381 13.377)" fill="#ebebff"/>
        <path id="Trazado_182977" data-name="Trazado 182977" d="M1358.4,822l-.019-1.044a12.083,12.083,0,0,0,3.69-.648l.338.986A13.145,13.145,0,0,1,1358.4,822Zm-4.033-.546a13.1,13.1,0,0,1-3.673-1.757l.591-.859a12.063,12.063,0,0,0,3.381,1.617Zm11.642-2.058-.624-.837a12.21,12.21,0,0,0,2.626-2.676l.848.606A13.213,13.213,0,0,1,1366.011,819.394Zm-18.277-2.492a13.16,13.16,0,0,1-1.973-3.563l.98-.357a12.142,12.142,0,0,0,1.815,3.281Zm22.955-4.051-.994-.319a12.112,12.112,0,0,0,.577-3.7q0-.482-.036-.953l1.04-.083c.027.343.041.689.04,1.037A13.167,13.167,0,0,1,1370.69,812.851Zm-25.708-3.5c-.008-.171-.011-.343-.012-.517a13.191,13.191,0,0,1,.478-3.528l1.005.278a12.138,12.138,0,0,0-.439,3.247c0,.158,0,.319.009.478Zm24.388-5.12a12.115,12.115,0,0,0-1.941-3.2l.8-.671a13.128,13.128,0,0,1,2.109,3.48ZM1348,802.169l-.871-.574a13.183,13.183,0,0,1,2.734-3.015l.656.811A12.139,12.139,0,0,0,1348,802.169Zm16.6-3.611a11.972,11.972,0,0,0-3.442-1.482l.259-1.011a13.063,13.063,0,0,1,3.739,1.611Zm-10.837-1.047-.376-.973a13.1,13.1,0,0,1,3.979-.862l.059,1.042A12.049,12.049,0,0,0,1353.764,797.512Z" transform="translate(-1344.97 -795.677)" fill="#9192ff"/>
      </g>
      <path id="Trazado_182978" data-name="Trazado 182978" d="M667.875,99.174a5.737,5.737,0,1,1,5.737-5.737A5.743,5.743,0,0,1,667.875,99.174Zm0-10.431a4.694,4.694,0,1,0,4.694,4.694A4.7,4.7,0,0,0,667.875,88.744Z" transform="translate(-346.988 -66.498)" fill="#9192ff"/>
    </g>
    <rect id="Rectángulo_35904" data-name="Rectángulo 35904" width="513.899" height="1.566" transform="translate(-750.397 315.617)" fill="#1b1b43"/>
  </g>
</svg>
