<svg xmlns="http://www.w3.org/2000/svg" xmlns:xlink="http://www.w3.org/1999/xlink" width="179" height="179" viewBox="0 0 179 179">
  <defs>
    <linearGradient id="linear-gradient" y1="0.5" x2="1" y2="0.5" gradientUnits="objectBoundingBox">
      <stop offset="0" stop-color="#ff857a"/>
      <stop offset="1" stop-color="#ffa57a"/>
    </linearGradient>
    <linearGradient id="linear-gradient-2" x1="0" y1="0.5" x2="1" y2="0.5" xlink:href="#linear-gradient"/>
    <linearGradient id="linear-gradient-3" x1="0.5" y1="1" x2="0.5" y2="0" xlink:href="#linear-gradient"/>
  </defs>
  <g id="img2" transform="translate(-443 -1005)">
    <circle id="Elipse_498" data-name="Elipse 498" cx="89.5" cy="89.5" r="89.5" transform="translate(443 1005)" fill="#edf1fd"/>
    <g id="Grupo_140360" data-name="Grupo 140360" transform="translate(191.299 969.142)">
      <g id="Grupo_140353" data-name="Grupo 140353" transform="translate(262.701 84.709)">
        <path id="Trazado_182392" data-name="Trazado 182392" d="M312.946,161.775c0-.044,0-.088,0-.132l2.944-1.557a26.556,26.556,0,0,0-1.021-5.818l-3.3-.456a23.631,23.631,0,0,0-4.244-7.337l1.254-3.085a26.759,26.759,0,0,0-4.521-3.8l-2.824,1.773a23.486,23.486,0,0,0-7.963-2.9l-1.023-3.172a26.227,26.227,0,0,0-5.907,0l-1.023,3.172a23.486,23.486,0,0,0-7.963,2.9l-2.824-1.773a26.758,26.758,0,0,0-4.521,3.8l1.254,3.085a23.632,23.632,0,0,0-4.244,7.337l-3.3.456a26.579,26.579,0,0,0-1.02,5.818l2.943,1.557c0,.044,0,.088,0,.132a23.6,23.6,0,0,0,1.469,8.219l-2.232,2.468a26.6,26.6,0,0,0,2.955,5.113l3.257-.7a23.749,23.749,0,0,0,6.493,5.446l-.123,3.334a26.463,26.463,0,0,0,5.549,2.019l2.048-2.633a23.438,23.438,0,0,0,8.473,0l2.048,2.633a26.463,26.463,0,0,0,5.549-2.019L301,182.322a23.756,23.756,0,0,0,6.493-5.446l3.257.7a26.6,26.6,0,0,0,2.955-5.113l-2.233-2.468A23.59,23.59,0,0,0,312.946,161.775Zm-23.652,15.3a15.3,15.3,0,1,1,15.3-15.3A15.3,15.3,0,0,1,289.294,177.076Z" transform="translate(-262.701 -135.124)" fill="#a3a3a3"/>
        <path id="Trazado_182393" data-name="Trazado 182393" d="M298.333,151.21a19.682,19.682,0,1,0,19.681,19.682A19.682,19.682,0,0,0,298.333,151.21Zm0,34.982a15.3,15.3,0,1,1,15.3-15.3A15.3,15.3,0,0,1,298.333,186.192Z" transform="translate(-271.74 -144.24)" opacity="0.2"/>
      </g>
      <g id="Grupo_140354" data-name="Grupo 140354" transform="translate(294.927 46.165)">
        <path id="Trazado_182394" data-name="Trazado 182394" d="M387.323,72.817c0-.044,0-.088,0-.132l2.944-1.557a26.6,26.6,0,0,0-1.021-5.818l-3.3-.456a23.628,23.628,0,0,0-4.244-7.337l1.254-3.085a26.759,26.759,0,0,0-4.521-3.8L375.61,52.4a23.487,23.487,0,0,0-7.963-2.9l-1.023-3.172a26.229,26.229,0,0,0-5.907,0L359.694,49.5a23.487,23.487,0,0,0-7.963,2.9l-2.824-1.773a26.756,26.756,0,0,0-4.521,3.8l1.254,3.085a23.628,23.628,0,0,0-4.244,7.337l-3.3.456a26.592,26.592,0,0,0-1.021,5.818l2.944,1.557c0,.044,0,.088,0,.132a23.586,23.586,0,0,0,1.469,8.218L339.255,83.5a26.6,26.6,0,0,0,2.955,5.113l3.257-.7a23.757,23.757,0,0,0,6.493,5.446l-.124,3.334a26.462,26.462,0,0,0,5.549,2.019l2.048-2.633a23.437,23.437,0,0,0,8.473,0l2.048,2.633A26.462,26.462,0,0,0,375.5,96.7l-.123-3.334a23.756,23.756,0,0,0,6.493-5.446l3.257.7a26.622,26.622,0,0,0,2.955-5.113l-2.233-2.469A23.6,23.6,0,0,0,387.323,72.817Zm-23.652,15.3a15.3,15.3,0,1,1,15.3-15.3A15.3,15.3,0,0,1,363.671,88.117Z" transform="translate(-337.078 -46.165)" fill="#a3a3a3"/>
        <path id="Trazado_182395" data-name="Trazado 182395" d="M372.71,62.251a19.682,19.682,0,1,0,19.682,19.682A19.682,19.682,0,0,0,372.71,62.251Zm0,34.982a15.3,15.3,0,1,1,15.3-15.3A15.3,15.3,0,0,1,372.71,97.233Z" transform="translate(-346.118 -55.281)" opacity="0.2"/>
      </g>
      <g id="Grupo_140357" data-name="Grupo 140357" transform="translate(340.986 58.467)">
        <path id="Trazado_182396" data-name="Trazado 182396" d="M511.584,97.523a8.052,8.052,0,0,1-5.545-7.54,4.385,4.385,0,0,1,1.382-3.432c1.6-1.285,4.241-.757,5.616-2.276.56-.619.838-1.521,1.573-1.916.855-.459,1.9-.019,2.762.42l5.231,2.651c1.253.635,2.74,1.821,2.478,3.2-.159.841-.755,1.6-.7,2.45.061.974.924,1.671,1.453,2.491a4.811,4.811,0,0,1-.555,5.5,7.681,7.681,0,0,1-5.191,2.5A13.932,13.932,0,0,0,516.6,98.1,6.727,6.727,0,0,0,511.584,97.523Z" transform="translate(-478.892 -78.869)" fill="#4b4d7d"/>
        <path id="Trazado_182397" data-name="Trazado 182397" d="M482.639,400.041a1.752,1.752,0,0,1-.932,1.614,4.856,4.856,0,0,1-1.887.518,5.847,5.847,0,0,0-1.909.453,2.833,2.833,0,0,0-1.531,2.421h10.387a11.034,11.034,0,0,0-.208-5.058A29.827,29.827,0,0,0,482.639,400.041Z" transform="translate(-462.083 -258.962)" fill="#003866"/>
        <path id="Trazado_182398" data-name="Trazado 182398" d="M553.272,400.041a1.752,1.752,0,0,1-.932,1.614,4.855,4.855,0,0,1-1.887.518,5.846,5.846,0,0,0-1.909.453,2.835,2.835,0,0,0-1.531,2.421H557.4a11.034,11.034,0,0,0-.208-5.058A29.828,29.828,0,0,0,553.272,400.041Z" transform="translate(-502.113 -258.962)" fill="#003866"/>
        <path id="Trazado_182399" data-name="Trazado 182399" d="M492.216,221.11c-2.494,22.553-4.988,56.335-7.481,78.888l7.545.432c8.839-21.837,15.454-56.137,19.509-79.344C505.364,220.06,498.7,220.566,492.216,221.11Z" transform="translate(-466.818 -157.264)" fill="#004193"/>
        <path id="Trazado_182400" data-name="Trazado 182400" d="M492.216,221.11c-2.494,22.553-4.988,56.335-7.481,78.888l7.545.432c8.839-21.837,15.454-56.137,19.509-79.344C505.364,220.06,498.7,220.566,492.216,221.11Z" transform="translate(-466.818 -157.264)" opacity="0.1"/>
        <path id="Trazado_182401" data-name="Trazado 182401" d="M499.867,221.112c-.544,4.92-1.088,21.068-1.632,25.989a63.977,63.977,0,0,0,13.216,19.882c2.923-10.193,5.366-31.752,7.3-42.121a21.422,21.422,0,0,0-.309-3.918C512.329,220.117,506.016,220.6,499.867,221.112Z" transform="translate(-474.469 -157.266)" opacity="0.1"/>
        <path id="Trazado_182402" data-name="Trazado 182402" d="M529.107,221.11c2.493,22.553,4.987,56.335,7.481,78.888l-7.545.432c-8.84-21.837-15.454-56.137-19.509-79.344C515.959,220.06,522.625,220.566,529.107,221.11Z" transform="translate(-480.873 -157.264)" fill="#004193"/>
        <path id="Trazado_182403" data-name="Trazado 182403" d="M448.731,84.151a2.265,2.265,0,0,1-.016-2.316c.312-.517.836-.91,1.02-1.485a1.451,1.451,0,0,0-.586-1.617c.006-.011-.036-.085-.029-.1a3.135,3.135,0,0,0-.417-3.289,2.506,2.506,0,0,0-3.007-.491,3.852,3.852,0,0,0-1.458,1.751,9.132,9.132,0,0,0,.9,9.243c.614-.186,1.3-.242,1.92-.39A2.528,2.528,0,0,0,448.731,84.151Z" transform="translate(-443.383 -74.559)" fill="#ffa57a"/>
        <path id="Trazado_182404" data-name="Trazado 182404" d="M481.664,115.538a2.491,2.491,0,0,0-2.765-3.4,24.987,24.987,0,0,1-28.816-16.618,6.916,6.916,0,0,0-4.86,2.277,29.165,29.165,0,0,0,9.868,17.678c5.328,4.39,11.609,7.439,17.824,10.447.023-.044.3-.425.322-.469A19.362,19.362,0,0,0,481.664,115.538Z" transform="translate(-444.426 -86.437)" fill="#0093cd"/>
        <path id="Trazado_182405" data-name="Trazado 182405" d="M481.664,115.538a2.491,2.491,0,0,0-2.765-3.4,24.987,24.987,0,0,1-28.816-16.618,6.916,6.916,0,0,0-4.86,2.277,29.165,29.165,0,0,0,9.868,17.678c5.328,4.39,11.609,7.439,17.824,10.447.023-.044.3-.425.322-.469A19.362,19.362,0,0,0,481.664,115.538Z" transform="translate(-444.426 -86.437)" opacity="0.1"/>
        <path id="Trazado_182406" data-name="Trazado 182406" d="M503.246,223.636a35.5,35.5,0,0,0,22.983,4.864l-.8-7.229a3.89,3.89,0,0,1-1.505.091,58.669,58.669,0,0,0-7.532-.532c.007-.095.013-.19.019-.285-.5-.015-1.01-.035-1.514-.041l-.127,0q-.389,0-.776,0t-.777,0l-.127,0c-.318,0-.637.018-.955.026a64.537,64.537,0,0,0-6.414,1.047,3.1,3.1,0,0,1-2.656-.5l-.049,0Z" transform="translate(-477.178 -157.267)" opacity="0.1"/>
        <path id="Trazado_182407" data-name="Trazado 182407" d="M507.923,132.878a14.25,14.25,0,0,0-8.838,7.684c-1.6,3.4-1.92,7.118-2.033,10.769a106.719,106.719,0,0,0,1.585,21.9,77.8,77.8,0,0,0,25.636-.785c-2.3-10.927,2.557-20.452-.037-31.8C522.973,135.122,514.087,131.118,507.923,132.878Z" transform="translate(-473.77 -107.372)" fill="#0093cd"/>
        <path id="Trazado_182408" data-name="Trazado 182408" d="M525.07,151.05c-.322-2.457-.883-5-2.47-6.9a4.241,4.241,0,0,0-4.042-1.594,18.543,18.543,0,0,1,.079,6.809c-.006.083-.008.165-.014.248-.059.736.031,1.926-.491,2.529a.6.6,0,0,1-.637.187,9.619,9.619,0,0,0-.1,1.108.683.683,0,0,1-.662.681,19.587,19.587,0,0,1-5.985,9.76,19.871,19.871,0,0,1-13,4.687q.263,3.387.743,6.759c1.391.095,2.762.138,4.016.207,5.282.289,10.926.108,15.333-2.819A17.092,17.092,0,0,0,524.526,163c.143-.512.266-1.028.372-1.547.226-1.98.43-3.971.511-6A39.328,39.328,0,0,0,525.07,151.05Z" transform="translate(-474.196 -113.062)" opacity="0.1"/>
        <path id="Trazado_182409" data-name="Trazado 182409" d="M502.068,141.45a19.527,19.527,0,0,1-29.657,20.112,3.473,3.473,0,0,0-1.79,4.274c2.069,4.49,8.8,5.156,13.666,6.006,5.212.909,10.838,1.393,15.558-.995a17.093,17.093,0,0,0,7.778-8.858,30,30,0,0,0,1.946-11.8c-.03-2.477-.289-5.069-1.64-7.146S504.357,140.5,502.068,141.45Z" transform="translate(-458.695 -112.201)" fill="#0093cd"/>
        <path id="Trazado_182410" data-name="Trazado 182410" d="M516.884,109.018a.628.628,0,0,0-.8-.2,1.334,1.334,0,0,0-.595.656,3.21,3.21,0,0,0,1.7,4.419A6.345,6.345,0,0,0,516.884,109.018Z" transform="translate(-484.061 -93.937)" fill="#ffa57a"/>
        <path id="Trazado_182411" data-name="Trazado 182411" d="M516.884,109.018a.628.628,0,0,0-.8-.2,1.334,1.334,0,0,0-.595.656,3.21,3.21,0,0,0,1.7,4.419A6.345,6.345,0,0,0,516.884,109.018Z" transform="translate(-484.061 -93.937)" opacity="0.1"/>
        <path id="Trazado_182412" data-name="Trazado 182412" d="M529.874,139.208a6.461,6.461,0,0,0,2.313-1.051q-.563-.549-1.146-1.081c-3.265-3.509-9.583-5.546-14.305-4.2a13.393,13.393,0,0,0-4.1,1.988,5.052,5.052,0,0,0-.078.666,3.944,3.944,0,0,0,1.686,3.5,4.965,4.965,0,0,0,3.383.468c1.149-.179,2.266-.546,3.424-.664C523.99,138.535,526.988,139.861,529.874,139.208Z" transform="translate(-482.582 -107.372)" opacity="0.1"/>
        <path id="Trazado_182413" data-name="Trazado 182413" d="M524.356,120.478q-.061,3.535-.121,7.069a6.463,6.463,0,0,0,7.068-.268,47.773,47.773,0,0,0-.977-7.061A10.724,10.724,0,0,0,524.356,120.478Z" transform="translate(-489.204 -100.257)" fill="#ffa57a"/>
        <path id="Trazado_182414" data-name="Trazado 182414" d="M531.142,124.9c-.192-1.566-.49-3.111-.78-4.685a10.319,10.319,0,0,0-5.158.035,8.138,8.138,0,0,0-.818.6l-.087,5.1a4.8,4.8,0,0,0,1.38.627,5.857,5.857,0,0,0,4.822-1.16C530.723,125.261,530.935,125.085,531.142,124.9Z" transform="translate(-489.24 -100.259)" opacity="0.1"/>
        <path id="Trazado_182415" data-name="Trazado 182415" d="M516.565,106.42a9.767,9.767,0,0,0,.526,4.715c.347-1.327.856-2.683,1.2-4.01a1.1,1.1,0,0,0-.062-.993.735.735,0,0,0-.755-.176A3.412,3.412,0,0,0,516.565,106.42Z" transform="translate(-484.807 -92.333)" fill="#4b4d7d"/>
        <path id="Trazado_182416" data-name="Trazado 182416" d="M517.728,106.15a5.875,5.875,0,0,0,4.168,4.532,5.151,5.151,0,0,0,3.867-.9,8.053,8.053,0,0,0,2.556-3.123,9.088,9.088,0,0,0,.412-7.458,6.542,6.542,0,0,0-6.012-4.042C517.486,95.378,516.765,102.233,517.728,106.15Z" transform="translate(-485.311 -86.23)" fill="#ffa57a"/>
        <path id="Trazado_182417" data-name="Trazado 182417" d="M516.249,99.909a16.743,16.743,0,0,0,7.986-.346,3.832,3.832,0,0,0,1.943,1.875c-.058.749.061,2.321.238,2.3a5.311,5.311,0,0,0,.244-1.078c.07-.359.3-.743.661-.78a.749.749,0,0,1,.726.743,2.059,2.059,0,0,1-.355,1.089q-.6,1.07-1.3,2.078a5.317,5.317,0,0,0,.269,1.634,7.666,7.666,0,0,0-5.171-13.671,6.111,6.111,0,0,0-4.194,1.819A4.323,4.323,0,0,0,516.249,99.909Z" transform="translate(-484.55 -85.432)" fill="#4b4d7d"/>
        <path id="Trazado_182418" data-name="Trazado 182418" d="M530.415,115.141a.462.462,0,1,1-.462-.462A.462.462,0,0,1,530.415,115.141Z" transform="translate(-492.183 -97.296)" fill="#3b3b3b"/>
        <circle id="Elipse_4765" data-name="Elipse 4765" cx="0.462" cy="0.462" r="0.462" transform="translate(33.236 17.383)" fill="#3b3b3b"/>
        <g id="Grupo_140355" data-name="Grupo 140355" transform="translate(36.384 15.537)">
          <path id="Trazado_182419" data-name="Trazado 182419" d="M531.321,111.537a.243.243,0,0,1-.147-.05,2.85,2.85,0,0,0-3.43-.026.241.241,0,1,1-.288-.387,3.454,3.454,0,0,1,2.011-.656,3.351,3.351,0,0,1,2,.686.241.241,0,0,1-.146.433Z" transform="translate(-527.359 -110.418)" fill="#3b3b3b"/>
        </g>
        <g id="Grupo_140356" data-name="Grupo 140356" transform="translate(32.271 15.936)">
          <path id="Trazado_182420" data-name="Trazado 182420" d="M518.108,112.292a.242.242,0,0,1-.162-.421,2.074,2.074,0,0,1,2.682-.08.241.241,0,0,1-.3.377,1.591,1.591,0,0,0-2.058.061A.242.242,0,0,1,518.108,112.292Z" transform="translate(-517.866 -111.339)" fill="#3b3b3b"/>
        </g>
        <path id="Trazado_182421" data-name="Trazado 182421" d="M533.033,119.607c0,.661-.793,1.2-1.771,1.2s-1.771-.536-1.771-1.2.793-1.2,1.771-1.2S533.033,118.946,533.033,119.607Z" transform="translate(-492.183 -99.41)" fill="url(#linear-gradient)"/>
        <path id="Trazado_182422" data-name="Trazado 182422" d="M517.828,118.41c-.017,0-.032,0-.049,0,.052.319.113.627.184.918a7.24,7.24,0,0,0,.5,1.39c.662-.173,1.134-.605,1.134-1.114C519.6,118.946,518.806,118.41,517.828,118.41Z" transform="translate(-485.545 -99.41)" fill="url(#linear-gradient-2)"/>
        <path id="Trazado_182423" data-name="Trazado 182423" d="M529.2,117.643c-.361-1.19.183-2.5-.416-3.588l-.519,2.691a4.433,4.433,0,0,1-.384,1.28,1.5,1.5,0,0,1-1.014.807c-.806.134-1.454-.6-2.123-1.07a3.681,3.681,0,0,0-4.915.62,4.4,4.4,0,0,0,1.656,3.2,4.316,4.316,0,0,0,3.46.876,8.571,8.571,0,0,0,3.717-2.157,2.088,2.088,0,0,0,.925-1.341A3.97,3.97,0,0,0,529.2,117.643Zm-5.313,1.748a.757.757,0,0,1-.716.383,2.417,2.417,0,0,1-1.017-.175c-.42-.171-.852-.595-.7-1.1.136-.448.854-.488,1.228-.422a1.653,1.653,0,0,1,1.075.7A.7.7,0,0,1,523.89,119.391Z" transform="translate(-486.709 -96.942)" fill="#4b4d7d"/>
        <path id="Trazado_182424" data-name="Trazado 182424" d="M523.167,117.458a3.815,3.815,0,0,0-.281.489.58.58,0,0,0,.026.54.537.537,0,0,0,.7.087,1.3,1.3,0,0,0,.459-.615,1.76,1.76,0,0,0,.18-1.082c-.049-.215-.423-.8-.736-.641C523.37,116.311,523.3,117.234,523.167,117.458Z" transform="translate(-488.409 -98.164)" fill="url(#linear-gradient-3)"/>
      </g>
      <g id="Grupo_140359" data-name="Grupo 140359" transform="translate(289.293 80.243)">
        <path id="Rectángulo_35816" data-name="Rectángulo 35816" d="M0,0H29.266a0,0,0,0,1,0,0V14.747A14.519,14.519,0,0,1,14.747,29.266h-.228A14.519,14.519,0,0,1,0,14.747V0A0,0,0,0,1,0,0Z" transform="translate(24.796 95)" fill="#9e9e9e"/>
        <path id="Rectángulo_35817" data-name="Rectángulo 35817" d="M0,0H29.266a0,0,0,0,1,0,0V14.747A14.519,14.519,0,0,1,14.747,29.266h-.228A14.519,14.519,0,0,1,0,14.747V0A0,0,0,0,1,0,0Z" transform="translate(24.796 95)" opacity="0.4"/>
        <path id="Rectángulo_35818" data-name="Rectángulo 35818" d="M0,0H38.147a0,0,0,0,1,0,0V19.222A18.925,18.925,0,0,1,19.222,38.147h-.3A18.925,18.925,0,0,1,0,19.222V0A0,0,0,0,1,0,0Z" transform="translate(20.356 83.243)" fill="#9e9e9e"/>
        <path id="Trazado_182425" data-name="Trazado 182425" d="M402.935,164.246a39.429,39.429,0,1,0-68.475,26.661,38.311,38.311,0,0,1,9.973,25.941h38.147a38.705,38.705,0,0,1,10.086-26.064A39.277,39.277,0,0,0,402.935,164.246Z" transform="translate(-324.076 -124.817)" fill="#ffa018"/>
        <path id="Trazado_182426" data-name="Trazado 182426" d="M409.284,258.43a1.045,1.045,0,0,0-1.394.492l-1.34,2.8a2.617,2.617,0,0,1-2.25.482,8.479,8.479,0,0,0,.41-4,3.186,3.186,0,0,0-.543-1.6,1.523,1.523,0,0,0-1.766-.534c-.684.316-.954,1.163-.742,2.324a17.455,17.455,0,0,0,.5,2.042,3.949,3.949,0,0,0,1.239,2.076c-.076.145-.159.288-.25.428a3.633,3.633,0,0,1-5.956.688,4.521,4.521,0,0,0,.3-.789,10.083,10.083,0,0,0,.167-3.28,8.819,8.819,0,0,0-.779-3.7,2.182,2.182,0,0,0-2.238-1.32,1.84,1.84,0,0,0-1.295,1.393,3.829,3.829,0,0,0,.068,1.762,15.778,15.778,0,0,0,1.641,4.1,11.517,11.517,0,0,0,1.279,1.923,2.486,2.486,0,0,1-1.271,1.02,2.869,2.869,0,0,1-3.022-1.234A6.97,6.97,0,0,1,391,260.05l0-.03a.889.889,0,0,0,0-.149.348.348,0,0,0-.348-.348h0a.348.348,0,0,0-.348.348.886.886,0,0,0,0,.149l0,.03a6.976,6.976,0,0,1-1.04,3.458,2.868,2.868,0,0,1-3.023,1.234,2.486,2.486,0,0,1-1.271-1.02,11.519,11.519,0,0,0,1.279-1.923,15.774,15.774,0,0,0,1.64-4.1,3.828,3.828,0,0,0,.068-1.762,1.84,1.84,0,0,0-1.294-1.393,2.181,2.181,0,0,0-2.238,1.32,8.813,8.813,0,0,0-.779,3.7,10.084,10.084,0,0,0,.167,3.28,4.517,4.517,0,0,0,.3.789,3.633,3.633,0,0,1-5.956-.688c-.092-.14-.175-.283-.25-.428a3.955,3.955,0,0,0,1.239-2.076,17.465,17.465,0,0,0,.5-2.042c.212-1.16-.058-2.007-.742-2.324a1.523,1.523,0,0,0-1.766.534,3.178,3.178,0,0,0-.543,1.6,8.474,8.474,0,0,0,.409,4,2.618,2.618,0,0,1-2.25-.482l-1.34-2.8a1.045,1.045,0,1,0-1.886.9l7.587,15.874v16.021a1.045,1.045,0,1,0,2.09,0V275.46a1.048,1.048,0,0,0-.1-.451l-5.844-12.229a2.965,2.965,0,0,0,2.036.067c.084.161.177.319.279.476a4.832,4.832,0,0,0,3.922,2.241,3.732,3.732,0,0,0,.77-.08,4.589,4.589,0,0,0,2.218-1.239,3.147,3.147,0,0,0,1.545,1.16,3.575,3.575,0,0,0,3.805-1.492,5.71,5.71,0,0,0,.823-1.781,5.71,5.71,0,0,0,.823,1.781,3.575,3.575,0,0,0,3.8,1.492,3.145,3.145,0,0,0,1.545-1.16,4.591,4.591,0,0,0,2.218,1.239,3.74,3.74,0,0,0,.771.08,4.831,4.831,0,0,0,3.922-2.241c.1-.156.194-.315.279-.476a2.966,2.966,0,0,0,2.036-.067L400.2,275.01a1.048,1.048,0,0,0-.1.451v16.258a1.045,1.045,0,1,0,2.091,0V275.7l7.587-15.874A1.046,1.046,0,0,0,409.284,258.43Zm-32.005-.139a2.576,2.576,0,0,1,.4-1.257.945.945,0,0,1,.7-.375.536.536,0,0,1,.226.048c.543.252.405,1.263.35,1.566a16.925,16.925,0,0,1-.482,1.961,3.652,3.652,0,0,1-.864,1.62A7.865,7.865,0,0,1,377.279,258.29Zm7.333,4.758a3.736,3.736,0,0,1-.133-.392,9.416,9.416,0,0,1-.143-3.053,8.29,8.29,0,0,1,.7-3.411,1.7,1.7,0,0,1,1.287-.992.8.8,0,0,1,.18.021,1.17,1.17,0,0,1,.775.881,3.2,3.2,0,0,1-.071,1.441,15.079,15.079,0,0,1-1.572,3.922A11.551,11.551,0,0,1,384.612,263.049Zm12.205-.392a3.743,3.743,0,0,1-.133.392,11.551,11.551,0,0,1-1.021-1.584,15.093,15.093,0,0,1-1.572-3.922,3.2,3.2,0,0,1-.071-1.441,1.17,1.17,0,0,1,.775-.881.8.8,0,0,1,.181-.021,1.7,1.7,0,0,1,1.287.992,8.283,8.283,0,0,1,.7,3.411A9.4,9.4,0,0,1,396.817,262.657Zm6.873-.8a3.649,3.649,0,0,1-.865-1.62,16.911,16.911,0,0,1-.481-1.961c-.055-.3-.194-1.315.35-1.566a.535.535,0,0,1,.225-.048.945.945,0,0,1,.7.375,2.571,2.571,0,0,1,.4,1.257A7.869,7.869,0,0,1,403.69,261.852Z" transform="translate(-350.906 -198.314)" fill="#ffa018" style="mix-blend-mode: screen;isolation: isolate"/>
        <g id="Grupo_140358" data-name="Grupo 140358" transform="translate(5.633 15.753)">
          <path id="Trazado_182427" data-name="Trazado 182427" d="M337.082,184.328a33.863,33.863,0,0,0,1.574,10.735,33.849,33.849,0,0,1,.788-10.82A33.455,33.455,0,0,1,350.162,166.6c-1.14-1.79-2.234-3.613-3.329-5.43A33.57,33.57,0,0,0,337.082,184.328Z" transform="translate(-337.078 -161.175)" fill="#fff" opacity="0.4"/>
        </g>
        <path id="Trazado_182428" data-name="Trazado 182428" d="M402.076,124.821a39.076,39.076,0,0,0-8.949,1.165,39.434,39.434,0,0,1,19.6,64.8,38.7,38.7,0,0,0-10.086,26.064h19.073A38.705,38.705,0,0,1,431.8,190.784a39.427,39.427,0,0,0-29.722-65.963Z" transform="translate(-363.209 -124.817)" opacity="0.1"/>
        <path id="Trazado_182429" data-name="Trazado 182429" d="M405.044,336.312H365.095a2.969,2.969,0,0,1-2.969-2.969h0a2.969,2.969,0,0,1,2.969-2.969h39.949a2.969,2.969,0,0,1,2.969,2.969h0A2.969,2.969,0,0,1,405.044,336.312Z" transform="translate(-345.64 -241.312)" fill="#9e9e9e"/>
        <path id="Trazado_182430" data-name="Trazado 182430" d="M405.044,336.312H365.095a2.969,2.969,0,0,1-2.969-2.969h0a2.969,2.969,0,0,1,2.969-2.969h39.949a2.969,2.969,0,0,1,2.969,2.969h0A2.969,2.969,0,0,1,405.044,336.312Z" transform="translate(-345.64 -241.312)" opacity="0.4"/>
        <rect id="Rectángulo_35819" data-name="Rectángulo 35819" width="45.887" height="5.938" rx="2.969" transform="translate(16.486 99.348)" fill="#9e9e9e"/>
        <rect id="Rectángulo_35820" data-name="Rectángulo 35820" width="45.887" height="5.938" rx="2.969" transform="translate(16.486 99.348)" opacity="0.4"/>
        <path id="Trazado_182431" data-name="Trazado 182431" d="M405.044,383.79H365.095a2.969,2.969,0,0,1-2.969-2.969h0a2.969,2.969,0,0,1,2.969-2.969h39.949a2.969,2.969,0,0,1,2.969,2.969h0A2.969,2.969,0,0,1,405.044,383.79Z" transform="translate(-345.64 -268.219)" fill="#9e9e9e"/>
        <path id="Trazado_182432" data-name="Trazado 182432" d="M405.044,383.79H365.095a2.969,2.969,0,0,1-2.969-2.969h0a2.969,2.969,0,0,1,2.969-2.969h39.949a2.969,2.969,0,0,1,2.969,2.969h0A2.969,2.969,0,0,1,405.044,383.79Z" transform="translate(-345.64 -268.219)" opacity="0.4"/>
      </g>
    </g>
  </g>
</svg>
