<svg xmlns="http://www.w3.org/2000/svg" width="271.174" height="343.31" viewBox="0 0 271.174 343.31">
  <g id="img3" transform="translate(-477.873 -84.78)">
    <path id="Trazado_183176" data-name="Trazado 183176" d="M1349.413,795.73l2.576,4.445,5.614.921,8.8-6.46-9.691-3.657-8.1-.113Z" transform="translate(-697.173 -565.341)" fill="#b2563d"/>
    <path id="Trazado_183177" data-name="Trazado 183177" d="M853.267,89.733c-.983-.281-22.79,4.136-22.79,4.136l16.414,15.879Z" transform="translate(-282.319 -3.955)" fill="#fcca22"/>
    <path id="Trazado_183178" data-name="Trazado 183178" d="M830.477,110.537l19.6,5.865-3.19,10.014Z" transform="translate(-282.32 -20.622)" fill="#ffa800"/>
    <path id="Trazado_183179" data-name="Trazado 183179" d="M1162.024,657.855l6.057,8.5,32.118,20.62,1.583-4.831-26.8-21.119-1.989-8.4Z" transform="translate(-547.779 -454.657)" fill="#b2563d"/>
    <g id="Grupo_140749" data-name="Grupo 140749" transform="translate(477.873 227.964)">
      <path id="Trazado_183180" data-name="Trazado 183180" d="M631.867,1209.693,619.2,1221.3l24.141,47.006,16.669-3.823Z" transform="translate(-591.026 -1128.647)" fill="#3d238c"/>
      <path id="Trazado_183181" data-name="Trazado 183181" d="M550.593,886l-7.6-1.976-51.112-13.314a4.1,4.1,0,0,1-.65-7.676l44.7-22.954a65.356,65.356,0,0,1,35-7.062l5.763.459,42.99,3.439Z" transform="translate(-486.666 -826.891)" fill="#a494ff"/>
      <path id="Trazado_183182" data-name="Trazado 183182" d="M924.536,1379.406,871.9,1406.437a3.351,3.351,0,0,1-4.8-4.089l22.321-58.034.163-.411,80.148-27.547-24.893,41.319-3.884,6.438A41.021,41.021,0,0,1,924.536,1379.406Z" transform="translate(-789.329 -1214.048)" fill="#a494ff"/>
      <path id="Trazado_183183" data-name="Trazado 183183" d="M741.626,936.729a218.836,218.836,0,0,1-44.813,6.647l-31.8-61.911c58.667-74.22,134.915-81.191,179.155-77.634,4.448.364,8.57.822,12.318,1.346a162.006,162.006,0,0,1,23.816,4.844s-4.64,14.013-16.025,32.966C845.331,874.5,807.709,919.655,741.626,936.729Z" transform="translate(-627.714 -803.101)" fill="#00cfff"/>
      <ellipse id="Elipse_4810" data-name="Elipse 4810" cx="31.457" cy="30.15" rx="31.457" ry="30.15" transform="translate(120.065 41.818) rotate(-27.184)" fill="#a494ff"/>
      <ellipse id="Elipse_4811" data-name="Elipse 4811" cx="22.726" cy="21.781" rx="22.726" ry="21.781" transform="translate(131.655 45.273) rotate(-27.184)" fill="#fff"/>
      <path id="Trazado_183184" data-name="Trazado 183184" d="M1185.741,1002.645c-5.5-10.7-.9-24.023,10.265-29.757a23,23,0,0,1,20.618-.329c-6.481-7.538-17.806-9.828-27.4-4.9-11.165,5.734-15.761,19.057-10.265,29.757a21.071,21.071,0,0,0,9.548,9.322A20.977,20.977,0,0,1,1185.741,1002.645Z" transform="translate(-1037.349 -932.77)" fill="#d7d4ff"/>
      <path id="Trazado_183185" data-name="Trazado 183185" d="M924.536,1491.709,871.9,1518.74a3.351,3.351,0,0,1-4.8-4.089l22.321-58.034-1.993,5.182s16.919,25.661,57.412,8.179l-3.884,6.438A41.022,41.022,0,0,1,924.536,1491.709Z" transform="translate(-789.329 -1326.351)" fill="#8f6dff"/>
      <path id="Trazado_183186" data-name="Trazado 183186" d="M889.207,1632.2a3.992,3.992,0,0,1-2.68-1.024,3.808,3.808,0,0,1-1.007-4.289l14.7-38.228,1.116.429-14.7,38.228a2.638,2.638,0,0,0,.69,2.97,2.851,2.851,0,0,0,3.277.373l45.324-23.276.546,1.064-45.324,23.277A4.248,4.248,0,0,1,889.207,1632.2Z" transform="translate(-804.043 -1432.078)" fill="#3d238c"/>
      <path id="Trazado_183187" data-name="Trazado 183187" d="M741.626,936.729a218.836,218.836,0,0,1-44.813,6.647l-31.8-61.911c58.667-74.22,134.915-81.191,179.155-77.634,4.448.364,8.57.822,12.318,1.346a3.864,3.864,0,0,1,.775,3.032c-2.36.378-4.716.68-7.084.936-21.486,2.286-42.182,3.237-63.291,9.108-27.7,7.712-67.4,20.967-80.705,48.739-9.171,19.1-5.1,43.091,11.348,54.507,6.13,4.26,24.092,15.231,24.092,15.231Z" transform="translate(-627.714 -803.101)" fill="#0981f3"/>
      <path id="Trazado_183188" data-name="Trazado 183188" d="M1583.911,845.918,1563.8,806.762c22.037,1.789,36.134,6.19,36.134,6.19S1595.3,826.964,1583.911,845.918Z" transform="translate(-1347.344 -806.032)" fill="#a494ff"/>
      <path id="Trazado_183189" data-name="Trazado 183189" d="M1599.936,812.952,1566.7,812.4l-2.895-5.636C1585.839,808.551,1599.936,812.952,1599.936,812.952Z" transform="translate(-1347.344 -806.032)" fill="#3d238c"/>
      <path id="Trazado_183190" data-name="Trazado 183190" d="M542.994,884.023l-51.112-13.314a4.1,4.1,0,0,1-.65-7.676l44.7-22.954a65.356,65.356,0,0,1,35-7.062l5.763.459C540.929,855.926,542.994,884.023,542.994,884.023Z" transform="translate(-486.666 -826.891)" fill="#8f6dff"/>
      <path id="Trazado_183191" data-name="Trazado 183191" d="M509.455,907.337l-28.107-7.322a4.522,4.522,0,0,1-3.445-3.938,4.846,4.846,0,0,1,2.673-4.849l28.757-14.769.546,1.064-28.757,14.769a3.612,3.612,0,0,0-2.031,3.653,3.35,3.35,0,0,0,2.558,2.912l28.108,7.322Z" transform="translate(-477.873 -861.837)" fill="#3d238c"/>
      <path id="Trazado_183192" data-name="Trazado 183192" d="M1233.2,1264.02c-.488.557-1.012,1.063-1.538,1.57-.54.485-1.08.974-1.641,1.432a43.1,43.1,0,0,1-3.5,2.565,30.817,30.817,0,0,1-3.775,2.113c-1.311.609-2.636,1.184-3.948,1.779s-2.638,1.16-3.969,1.708-2.684,1.042-4.036,1.53c-2.718.942-5.454,1.82-8.234,2.525l-.082-.247c2.642-1.1,5.26-2.226,7.815-3.479q1.925-.922,3.815-1.9t3.758-2c1.242-.685,2.449-1.432,3.651-2.182s2.429-1.449,3.69-2.095,2.533-1.278,3.833-1.876c.647-.3,1.307-.589,1.972-.871s1.335-.559,2.04-.788Z" transform="translate(-1058.045 -1171.972)" fill="#fff"/>
      <path id="Trazado_183193" data-name="Trazado 183193" d="M1459.447,1007.121a40.973,40.973,0,0,1-2.843,6.382,66.96,66.96,0,0,1-3.63,5.911,51.3,51.3,0,0,1-4.292,5.429l-2.358,2.535c-.8.835-1.6,1.666-2.383,2.507s-1.589,1.667-2.4,2.487-1.6,1.655-2.432,2.449l-2.5,2.378-.625.594-.641.577-1.282,1.153c-3.409,3.083-7,5.96-10.651,8.717l-.239-.285c3.269-3.2,6.53-6.383,9.586-9.758l1.161-1.249.58-.624.563-.641,2.25-2.56c.762-.841,1.476-1.725,2.216-2.585s1.471-1.726,2.175-2.616,1.422-1.767,2.1-2.672l2.02-2.736c1.33-1.834,2.73-3.606,4.178-5.345s2.923-3.461,4.437-5.167,3.044-3.408,4.681-5.071Z" transform="translate(-1234.747 -966.302)" fill="#fff"/>
      <path id="Trazado_183194" data-name="Trazado 183194" d="M1110.314,1295.9l-.473-1.523a193.2,193.2,0,0,0,78.84-47.368l1.118,1.137A194.784,194.784,0,0,1,1110.314,1295.9Z" transform="translate(-983.871 -1158.521)" fill="#3d238c"/>
      <path id="Trazado_183195" data-name="Trazado 183195" d="M1514.689,899.324l-1.208-1.041a223.524,223.524,0,0,0,22.1-30.6,191.522,191.522,0,0,0,15.678-32.027,172.522,172.522,0,0,0-22.894-4.583c-3.862-.539-7.991-.99-12.275-1.341-5.141-.413-10.362-.653-15.519-.712l.018-1.594c5.193.06,10.452.3,15.63.717,4.315.353,8.475.808,12.365,1.351a164.594,164.594,0,0,1,23.943,4.873.8.8,0,0,1,.519,1.012c-.047.141-4.8,14.314-16.1,33.125A225.1,225.1,0,0,1,1514.689,899.324Z" transform="translate(-1296.717 -822.577)" fill="#3d238c"/>
      <path id="Trazado_183196" data-name="Trazado 183196" d="M698.943,954.062,676.059,909.5a.8.8,0,0,1,.084-.859c20.6-26.065,45.136-45.992,72.917-59.228a201.73,201.73,0,0,1,71.6-18.785l.122,1.59a200.147,200.147,0,0,0-71.038,18.634c-27.415,13.062-51.648,32.7-72.033,58.375l22.65,44.1Z" transform="translate(-636.484 -825.143)" fill="#3d238c"/>
      <ellipse id="Elipse_4812" data-name="Elipse 4812" cx="51.414" cy="9.077" rx="51.414" ry="9.077" transform="translate(6.528 123.814) rotate(-27.183)" fill="#a494ff"/>
      <path id="Trazado_183197" data-name="Trazado 183197" d="M613.9,1330.857c-2.487,1.758-5.005,3.437-7.514,5.126-1.247.855-2.513,1.679-3.754,2.54-1.252.844-2.506,1.685-3.742,2.551-1.254.841-2.493,1.7-3.731,2.568-1.252.845-2.475,1.731-3.723,2.584-2.479,1.73-4.951,3.476-7.483,5.17a81.35,81.35,0,0,1,6.784-6.1c.584-.487,1.183-.955,1.786-1.418s1.207-.925,1.814-1.383,1.229-.9,1.847-1.338,1.24-.881,1.865-1.313,1.263-.847,1.9-1.264,1.268-.838,1.916-1.237,1.294-.8,1.944-1.192,1.306-.778,1.967-1.154A84.554,84.554,0,0,1,613.9,1330.857Z" transform="translate(-562.806 -1225.659)" fill="#fff"/>
      <path id="Trazado_183198" data-name="Trazado 183198" d="M807.029,1255.719q-2.95,1.273-5.888,2.5l-5.878,2.47-5.888,2.454c-1.969.808-3.937,1.623-5.953,2.355,1.81-1.148,3.681-2.186,5.59-3.147,1.9-.976,3.855-1.848,5.82-2.69.993-.4,1.979-.808,2.981-1.182s2.005-.743,3.023-1.071A50.176,50.176,0,0,1,807.029,1255.719Z" transform="translate(-722.517 -1165.498)" fill="#fff"/>
    </g>
    <path id="Trazado_183199" data-name="Trazado 183199" d="M962.714,760.988s-12.868,11.383,26.231,44.3c0,0-3.807,11.625,20.061,47.823l5.951-.551-11.322-49.928s-4.206-22.164-16.892-38.62a7.792,7.792,0,0,0-6.175-3.02Z" transform="translate(-386.574 -541.419)" fill="#5752e3"/>
    <path id="Trazado_183200" data-name="Trazado 183200" d="M1199.169,1221.043l-.978,3.5,4.909,1.473s2.749-.786,4.026,1.571h11.585s-1.053-5.748-13.958-7.061Z" transform="translate(-576.737 -909.356)" fill="#1f1440"/>
    <path id="Trazado_183201" data-name="Trazado 183201" d="M1045.367,862.3c-4.975-10.27-11.555-25.4-14.651-39.14a52.793,52.793,0,0,1-1.589-11.649h-1.472a.547.547,0,0,1-.547-.547v-3.931c-18.114-18.8-23.58-34.143-23.634-34.3l1.033-.359c.053.151,5.488,15.374,23.541,34.055a.547.547,0,0,1,.153.38v3.6h1.492a.547.547,0,0,1,.545.592c0,.037-.277,3.866,1.566,12.01,3.083,13.619,9.611,28.619,14.546,38.8Z" transform="translate(-420.833 -550.54)" fill="#2c2c75"/>
    <rect id="Rectángulo_35949" data-name="Rectángulo 35949" width="45.156" height="1.196" transform="translate(556.931 127.806) rotate(-72.329)" fill="#2c2c75"/>
    <path id="Trazado_183202" data-name="Trazado 183202" d="M1117.423,545.908s-12.3-19.582-10.568-29.141c.52-2.849,2.286-4.808,6-5.094,9.928-.763,17.361,28.237,17.361,28.237l-4.862,2.279v0Z" transform="translate(-503.473 -341.789)" fill="#ffa800"/>
    <path id="Trazado_183203" data-name="Trazado 183203" d="M1165.552,663.921l10.168-2.252-1.146-5.43-10.968,5.143Z" transform="translate(-549.047 -457.55)" fill="#93402c"/>
    <path id="Trazado_183204" data-name="Trazado 183204" d="M1117.423,553.013s-12.3-19.582-10.568-29.141c3.336-.166,7.248-3.34,7.248-3.34s.415,13.71,11.246,28.762v0Z" transform="translate(-503.473 -348.893)" fill="#d1422f"/>
    <path id="Trazado_183205" data-name="Trazado 183205" d="M878.227,224.024l-3.783-3.475.314-5.681,5.372-.533,5.291,4.726-2.135,4.461Z" transform="translate(-317.523 -103.73)" fill="#b2563d"/>
    <path id="Trazado_183206" data-name="Trazado 183206" d="M1084.3,444.782a10.547,10.547,0,0,0-.635,3.458,4.077,4.077,0,0,0,1.169,3.108,5.007,5.007,0,0,0,3.322,1.031,16.065,16.065,0,0,0,3.668-.5,16.209,16.209,0,0,1-3.657.8,5.449,5.449,0,0,1-3.719-.865,3.974,3.974,0,0,1-1.228-1.6,6.2,6.2,0,0,1-.466-1.936,11.546,11.546,0,0,1,.394-3.892Z" transform="translate(-484.286 -287.93)" fill="#241f3f"/>
    <path id="Trazado_183207" data-name="Trazado 183207" d="M1067.729,392.612a5.06,5.06,0,0,0-3.692,3.2,4.889,4.889,0,0,0,.935,4.732,34.913,34.913,0,0,0,2.82,2.362,6.963,6.963,0,0,1,1.964,3.2,9.029,9.029,0,0,0,.807,2.545,3.032,3.032,0,0,0,4.272.643,4.826,4.826,0,0,0,1.373-3.273,20.676,20.676,0,0,0-1-9.03,8.075,8.075,0,0,0-2.509-3.938,3.882,3.882,0,0,0-4.481-.31Z" transform="translate(-469.121 -246.114)" fill="#241f3f"/>
    <path id="Trazado_183208" data-name="Trazado 183208" d="M1086.474,439.213s-1.366,8.024,4.084,8.315l-.632-4.895Z" transform="translate(-487.167 -283.783)" fill="#241f3f"/>
    <path id="Trazado_183209" data-name="Trazado 183209" d="M1081.934,511.658l-5.055.478-10.8,55.419,5.954,5.693,5.151-3.029S1086.3,534.383,1081.934,511.658Z" transform="translate(-470.955 -341.788)" fill="#fff"/>
    <path id="Trazado_183210" data-name="Trazado 183210" d="M1113.855,518.892s6.77,29.828-4.952,60.147l-3.208-1.61A142.221,142.221,0,0,0,1113.855,518.892Z" transform="translate(-502.678 -347.58)" fill="#d1422f"/>
    <path id="Trazado_183211" data-name="Trazado 183211" d="M1114.907,459.915l-1.711,8.721a1.114,1.114,0,0,1-1.639.756l-6-3.378,3.191-10.3Z" transform="translate(-502.564 -296.997)" fill="#b2563d"/>
    <path id="Trazado_183212" data-name="Trazado 183212" d="M1101.3,379.3l10.717-3.526,1.638,6.816-9.1,4.481Z" transform="translate(-499.155 -232.987)" fill="#241f3f"/>
    <path id="Trazado_183213" data-name="Trazado 183213" d="M1112.867,387.633c0,.1-.019.2-.029.3a19.765,19.765,0,0,1-2.954,8.341,10.947,10.947,0,0,1-1.726,2.19c-1.713,1.577-5.868,2.156-8.117,1.4a8.435,8.435,0,0,1-4.574-4.14,18.286,18.286,0,0,1-1.714-5.944,3.067,3.067,0,0,1-3.228-3.17c.187-1.685,1.344-2.708,3.833-2.135a1.509,1.509,0,0,0,.237-.015c4.818-.331,8.657-3.283,13.2-4.431.8-.2,3.14-1.042,3.775-.431a3.408,3.408,0,0,1,.6,1.089,9.083,9.083,0,0,1,.681,2.389,15.838,15.838,0,0,1,.151,3C1112.972,386.6,1112.929,387.119,1112.867,387.633Z" transform="translate(-490.52 -235.873)" fill="#b2563d"/>
    <path id="Trazado_183214" data-name="Trazado 183214" d="M1159.637,383.9a21.493,21.493,0,0,1-8.228-1.2,13.733,13.733,0,0,0-2.578-.525,36.518,36.518,0,0,1,5.659-2.151c.8-.2,3.14-1.042,3.775-.431a3.411,3.411,0,0,1,.6,1.089,9.092,9.092,0,0,1,.681,2.389C1159.585,383.349,1159.618,383.624,1159.637,383.9Z" transform="translate(-537.215 -235.873)" fill="#b2563d"/>
    <path id="Trazado_183215" data-name="Trazado 183215" d="M1106.69,431.756c.576,3.855,1.929,8.692,6.138,10.1a7.473,7.473,0,0,0,5.274.041,9.769,9.769,0,0,0,4.2-2.662c.187-.239-.175-.552-.363-.312a9.231,9.231,0,0,1-3.865,2.481,7.23,7.23,0,0,1-5.358-.081c-3.782-1.388-5.016-6.1-5.539-9.593-.044-.3-.528-.273-.483.027Z" transform="translate(-503.472 -277.623)" fill="#fff"/>
    <path id="Trazado_183216" data-name="Trazado 183216" d="M1129.271,387.633a67.063,67.063,0,0,1-14.46-.931,5.781,5.781,0,0,1-3.813-2.244c4.818-.331,8.657-3.283,13.2-4.431.8-.2,3.14-1.042,3.775-.431a3.41,3.41,0,0,1,.6,1.089,9.083,9.083,0,0,1,.681,2.389,15.838,15.838,0,0,1,.151,3C1129.376,386.6,1129.333,387.119,1129.271,387.633Z" transform="translate(-506.924 -235.873)" fill="#93402c"/>
    <path id="Trazado_183217" data-name="Trazado 183217" d="M1184.592,366.038a.313.313,0,0,0-.04-.624.313.313,0,0,0,.04.624Z" transform="translate(-565.583 -224.695)" fill="#241f3f"/>
    <path id="Trazado_183218" data-name="Trazado 183218" d="M1141.091,448.143l6.2-.356a.278.278,0,0,1,.3.335c-.237,1-1.161,3.766-4.148,3.6-3.109-.171-2.768-2.647-2.6-3.371A.275.275,0,0,1,1141.091,448.143Z" transform="translate(-530.73 -290.648)" fill="#fff"/>
    <path id="Trazado_183219" data-name="Trazado 183219" d="M1065.69,394.283c.012.068.017.049.024.058s.011,0,.018,0,.02-.018.029-.032a.262.262,0,0,0,.037-.1.448.448,0,0,0-.022-.253,1.116,1.116,0,0,0-.569-.535,3.656,3.656,0,0,0-1.012-.314,8.827,8.827,0,0,0-1.154-.108,9.208,9.208,0,0,1,1.095-.5,4.62,4.62,0,0,1,1.264-.281,2.725,2.725,0,0,1,1.521.316,2.471,2.471,0,0,1,.718.607,2.386,2.386,0,0,1,.276.419,2.1,2.1,0,0,1,.11.242,1.434,1.434,0,0,1,.048.137,1.1,1.1,0,0,1,.043.2Z" transform="translate(-468.526 -246.151)" fill="#241f3f"/>
    <path id="Trazado_183220" data-name="Trazado 183220" d="M1111.859,399.678a9.622,9.622,0,0,0-.265,1.35,9.112,9.112,0,0,0-.081,1.41,4.333,4.333,0,0,0,.83,2.693,3.76,3.76,0,0,1-1.06-1.1,6.46,6.46,0,0,1-.667-1.424,10.169,10.169,0,0,1-.389-1.531,11.164,11.164,0,0,1-.18-1.607Z" transform="translate(-506.163 -251.961)" fill="#241f3f"/>
    <path id="Trazado_183221" data-name="Trazado 183221" d="M1116.228,314.668c-2.207,4.627-4.85,6.6-8.261,6.965a21.518,21.518,0,0,1-8.108-1.179,13.735,13.735,0,0,0-2.541-.513,9.567,9.567,0,0,0-7.426,2.2h-.006a1.439,1.439,0,0,1-.227.015,3.838,3.838,0,0,0-2.535.1l-2.386-1.935c.937-16.027,11.956-9.5,11.956-9.5l2.925-4.319C1108.991,294.576,1119.926,306.911,1116.228,314.668Z" transform="translate(-485.898 -173.555)" fill="#241f3f"/>
    <path id="Trazado_183222" data-name="Trazado 183222" d="M1080.887,382.049a13.445,13.445,0,0,1-.692-1.425,12.016,12.016,0,0,1-.515-1.467,6.878,6.878,0,0,1-.271-1.53,3.351,3.351,0,0,1,.219-1.5,3.12,3.12,0,0,0,.228,1.41,6.224,6.224,0,0,0,.657,1.25,10.922,10.922,0,0,0,.852,1.13,11.786,11.786,0,0,0,.955,1.006Z" transform="translate(-481.626 -233.272)" fill="#241f3f"/>
    <path id="Trazado_183223" data-name="Trazado 183223" d="M1110.694,366.956a11.471,11.471,0,0,1,4.4-1.152,8.093,8.093,0,0,1,4.435,1.008l.5.293.412.26c.281.166.573.321.873.464a12.838,12.838,0,0,0,1.874.716,13.758,13.758,0,0,0,3.986.593,12.768,12.768,0,0,0,2.012-.187,10.858,10.858,0,0,0,1.942-.562,10.067,10.067,0,0,0,3.37-2.249,16.177,16.177,0,0,0,3.8-7.3,16.4,16.4,0,0,1-3.469,7.613,10.633,10.633,0,0,1-3.43,2.564,11.568,11.568,0,0,1-2.047.715,13.593,13.593,0,0,1-2.148.318,14.784,14.784,0,0,1-4.315-.4,14.046,14.046,0,0,1-2.082-.669q-.51-.21-1.007-.467l-.49-.274-.422-.216a6.606,6.606,0,0,0-3.676-.623,9.8,9.8,0,0,0-3.614,1.146l-.033.019a.912.912,0,0,1-.912-1.58Z" transform="translate(-506.279 -219.43)" fill="#241f3f"/>
    <path id="Trazado_183224" data-name="Trazado 183224" d="M1125.971,315.906a7.186,7.186,0,0,1,3.337,3.842,8.618,8.618,0,0,1,.088,5.16,8.111,8.111,0,0,1-1.065,2.406,7.217,7.217,0,0,1-.855,1.018c-.161.152-.315.315-.485.458l-.54.391a10.116,10.116,0,0,1-5,1.589,22.034,22.034,0,0,1-5.238-.276c-.857-.16-1.721-.307-2.563-.529-.861-.2-1.666-.424-2.489-.542l-.617-.083c-.206-.021-.411-.019-.617-.03a8.748,8.748,0,0,0-1.222.037,6.433,6.433,0,0,0-2.266.7,6.328,6.328,0,0,0-2.851,3.662l-1.148-.4a6.965,6.965,0,0,1,6.167-4.946,9.754,9.754,0,0,1,1.363,0c.225.018.452.024.674.054l.663.109c.881.152,1.737.418,2.549.632.82.242,1.656.409,2.489.59a21.383,21.383,0,0,0,5.064.417,9.6,9.6,0,0,0,4.791-1.363l.519-.352c.163-.13.31-.279.466-.417a6.76,6.76,0,0,0,.834-.936,7.771,7.771,0,0,0,1.084-2.273,8.4,8.4,0,0,0,.06-5.026A7.111,7.111,0,0,0,1125.971,315.906Z" transform="translate(-500.072 -185.055)" fill="#514b66"/>
    <path id="Trazado_183225" data-name="Trazado 183225" d="M973.859,506.2c0,8.135-10.323,52.318-10.323,52.318-13.373,4.573-23.613,5.049-30.474,1.108a164.053,164.053,0,0,1,6.879-30.059c3.891-11.428,9.737-22.961,18.271-28.233a19.21,19.21,0,0,1,8.613-2.9S973.859,498.071,973.859,506.2Z" transform="translate(-364.456 -331.201)" fill="#ffa800"/>
    <path id="Trazado_183226" data-name="Trazado 183226" d="M996.71,742.711c-.174,0-.269,0-.278,0l.03-1a46.226,46.226,0,0,0,17.382-3.611l3.381-14.933.972.22-3.437,15.18a.5.5,0,0,1-.288.347A47.74,47.74,0,0,1,996.71,742.711Z" transform="translate(-415.194 -511.138)" fill="#fff"/>
    <path id="Trazado_183227" data-name="Trazado 183227" d="M994.226,518.49s-7.329,20.545-26.654,22.742c3.891-11.428,9.737-22.961,18.271-28.233Z" transform="translate(-392.087 -342.861)" fill="#d1422f"/>
    <path id="Trazado_183228" data-name="Trazado 183228" d="M908.147,305.1l-10.007-8.08-4.717-36.1,5.059-.5,8,31.81,9.144,3.283Z" transform="translate(-332.718 -140.633)" fill="#b2563d"/>
    <path id="Trazado_183229" data-name="Trazado 183229" d="M962.461,440.058l8.619-11.19s23.576,13.964,21.19,23.631S962.461,440.058,962.461,440.058Z" transform="translate(-387.995 -275.5)" fill="#ffa800"/>
    <path id="Trazado_183230" data-name="Trazado 183230" d="M953.458,434.98l4.092-9.563,5.367,1.927-7.253,9.417Z" transform="translate(-380.786 -272.737)" fill="#93402c"/>
    <path id="Trazado_183231" data-name="Trazado 183231" d="M998.323,448.312c-.459-8.294-17.893-19.108-20.689-20.791l-6.353,8.249-.79-.608,6.623-8.6a.5.5,0,0,1,.645-.127,99.585,99.585,0,0,1,10.522,7.245c7.1,5.648,10.815,10.552,11.037,14.575Z" transform="translate(-394.424 -273.499)" fill="#fff"/>
    <g id="Grupo_140753" data-name="Grupo 140753" transform="translate(618.211 96.121)">
      <g id="Grupo_140750" data-name="Grupo 140750" transform="translate(0 10.193)">
        <path id="Trazado_183232" data-name="Trazado 183232" d="M1181.97,194.355a.507.507,0,0,1,.1-.572q.423-.426.861-.837a.507.507,0,0,1,.693.739q-.425.4-.835.811a.507.507,0,0,1-.819-.142Z" transform="translate(-1181.922 -192.808)" fill="#6737c2"/>
      </g>
      <g id="Grupo_140751" data-name="Grupo 140751" transform="translate(2.637)">
        <path id="Trazado_183233" data-name="Trazado 183233" d="M1195.2,151.022a.507.507,0,0,1,.139-.608c.617-.5,1.262-.994,1.919-1.459a.507.507,0,0,1,.586.827c-.638.452-1.265.929-1.865,1.418a.507.507,0,0,1-.713-.073A.514.514,0,0,1,1195.2,151.022Zm3.875-2.749a.507.507,0,0,1,.193-.646c.676-.416,1.379-.818,2.09-1.2a.507.507,0,0,1,.476.895c-.693.369-1.377.761-2.035,1.165a.507.507,0,0,1-.7-.166A.48.48,0,0,1,1199.076,148.273Zm4.194-2.231a.508.508,0,0,1,.249-.677c.724-.33,1.47-.643,2.219-.931a.507.507,0,1,1,.364.946c-.729.281-1.457.587-2.162.908A.507.507,0,0,1,1203.27,146.042Zm4.433-1.708a.512.512,0,0,1-.024-.062.507.507,0,0,1,.329-.637c.76-.243,1.538-.466,2.312-.665a.507.507,0,1,1,.252.982c-.756.194-1.515.412-2.256.649A.507.507,0,0,1,1207.7,144.334Zm4.6-1.181a.509.509,0,0,1,.361-.713c.785-.154,1.584-.287,2.375-.394a.507.507,0,0,1,.137,1c-.771.105-1.551.235-2.316.385A.507.507,0,0,1,1212.3,143.152Zm4.71-.644a.507.507,0,0,1,.42-.721c.8-.062,1.606-.1,2.405-.116a.507.507,0,1,1,.019,1.013c-.778.015-1.568.053-2.346.114A.507.507,0,0,1,1217.015,142.509Zm4.753-.089a.507.507,0,0,1,.48-.721c.8.033,1.612.092,2.4.174a.507.507,0,1,1-.1,1.008c-.771-.08-1.559-.137-2.341-.169A.507.507,0,0,1,1221.768,142.42Zm11.917,24.7q-.092-.2-.175-.4a11.074,11.074,0,0,1-.458-1.332.507.507,0,1,1,.978-.266,10.038,10.038,0,0,0,.416,1.209,8.748,8.748,0,0,0,.423.877.507.507,0,0,1-.887.491Q1233.825,167.422,1233.685,167.125Zm1.681,2.466a.507.507,0,0,1,.828-.563,9.137,9.137,0,0,0,1.729,1.433.507.507,0,0,1-.546.854,10.172,10.172,0,0,1-1.921-1.592A.514.514,0,0,1,1235.366,169.591Zm-2.623-6.457a.507.507,0,0,1-.048-.206,9.912,9.912,0,0,1,.273-2.482.507.507,0,0,1,.986.236,8.913,8.913,0,0,0-.245,2.228.507.507,0,0,1-.966.224Zm6.59,8.984a.507.507,0,0,1,.615-.7,8.252,8.252,0,0,0,2.2.4.507.507,0,1,1-.042,1.013,9.259,9.259,0,0,1-2.467-.446A.506.506,0,0,1,1239.334,172.118Zm-5.513-13.563a.506.506,0,0,1,.005-.443,12.523,12.523,0,0,1,1.327-2.086.507.507,0,0,1,.8.624,11.5,11.5,0,0,0-1.219,1.917.507.507,0,0,1-.912-.012Zm-7.324-15.643a.507.507,0,0,1,.543-.715c.794.134,1.589.295,2.364.479a.507.507,0,1,1-.234.986c-.753-.179-1.526-.335-2.3-.465A.507.507,0,0,1,1226.5,142.911Zm17.526,29.4a.516.516,0,0,1-.034-.1.507.507,0,0,1,.376-.611,8.491,8.491,0,0,0,1.637-.564q.231-.109.448-.229a.507.507,0,0,1,.493.886q-.247.137-.51.261a9.531,9.531,0,0,1-1.833.633A.508.508,0,0,1,1244.023,172.307Zm-12.9-28.3a.507.507,0,0,1,.61-.7c.77.24,1.536.508,2.277.8a.507.507,0,0,1-.369.944c-.719-.281-1.462-.542-2.209-.775A.505.505,0,0,1,1231.121,144.011Zm5.592,10.807a.507.507,0,0,1,.119-.591,15.642,15.642,0,0,1,1.946-1.5.507.507,0,1,1,.553.849,14.656,14.656,0,0,0-1.82,1.4.508.508,0,0,1-.8-.161Zm-1.17-9.073a.507.507,0,0,1,.678-.673c.726.348,1.444.728,2.135,1.127a.507.507,0,0,1-.508.877c-.668-.386-1.363-.753-2.066-1.09A.5.5,0,0,1,1235.544,145.745Zm12.544,24.249a.506.506,0,0,1,.082-.554,6.815,6.815,0,0,0,1.177-1.86.507.507,0,1,1,.931.4,7.812,7.812,0,0,1-1.353,2.136.507.507,0,0,1-.716.039A.5.5,0,0,1,1248.088,169.994Zm-7.408-17.764a.509.509,0,0,1,.25-.678,15.421,15.421,0,0,1,2.311-.831.533.533,0,0,1,.075-.015.508.508,0,0,1,.817-.163c.577.557,1.138,1.146,1.667,1.75a.507.507,0,1,1-.762.668c-.418-.477-.856-.944-1.307-1.392a.506.506,0,0,1-.226.131,14.384,14.384,0,0,0-2.158.777A.507.507,0,0,1,1240.68,152.23Zm-1.029-4.108a.507.507,0,0,1,.746-.633c.662.456,1.311.944,1.93,1.449a.507.507,0,1,1-.641.785c-.6-.488-1.224-.959-1.864-1.4A.506.506,0,0,1,1239.651,148.123Zm10.329,17.587a.507.507,0,0,1-.042-.286,10.824,10.824,0,0,0,.072-2.265.507.507,0,1,1,1.011-.07,11.845,11.845,0,0,1-.079,2.478.507.507,0,0,1-.961.144Zm-3.53-11.019a.507.507,0,0,1,.867-.516c.476.643.932,1.316,1.356,2a.507.507,0,0,1-.861.535c-.41-.66-.851-1.309-1.311-1.931A.528.528,0,0,1,1246.45,154.691Zm3.229,6.3a.485.485,0,0,1-.032-.092,13.869,13.869,0,0,0-.742-2.168.507.507,0,0,1,.261-.668.5.5,0,0,1,.668.261,14.871,14.871,0,0,1,.8,2.327.507.507,0,0,1-.95.339Zm-4.446-10.08a.508.508,0,0,1,.369-.714c.792-.144,1.6-.258,2.389-.34a.507.507,0,0,1,.1,1.008c-.766.079-1.544.19-2.311.329A.507.507,0,0,1,1245.232,150.915Zm4.719-.487a.507.507,0,0,1,.447-.722c.8-.02,1.614-.008,2.414.036a.507.507,0,0,1-.055,1.012c-.773-.042-1.558-.054-2.334-.034A.506.506,0,0,1,1249.951,150.428Zm4.737.256a.507.507,0,0,1,.526-.717c.793.106,1.594.244,2.382.411a.507.507,0,0,1-.211.992c-.762-.162-1.537-.3-2.3-.4A.506.506,0,0,1,1254.688,150.684Zm4.647.984a.507.507,0,0,1,.6-.7c.764.222,1.534.477,2.289.756a.507.507,0,1,1-.352.951c-.733-.271-1.48-.518-2.22-.733A.5.5,0,0,1,1259.335,151.668Zm4.452,1.643a.507.507,0,0,1,.666-.678c.723.324,1.45.679,2.162,1.054a.507.507,0,1,1-.473.9c-.694-.366-1.4-.711-2.1-1.026A.5.5,0,0,1,1263.787,153.311Zm4.2,2.21a.507.507,0,0,1,.721-.649c.676.41,1.355.848,2.017,1.3a.507.507,0,1,1-.574.836c-.647-.444-1.31-.872-1.969-1.272A.5.5,0,0,1,1267.985,155.521Zm3.913,2.682a.507.507,0,0,1,.767-.618c.626.48,1.253.987,1.866,1.508a.507.507,0,0,1-.657.772c-.6-.51-1.214-1.006-1.826-1.476A.507.507,0,0,1,1271.9,158.2Zm21.923,43.113a.5.5,0,0,1-.048-.2c-.018-.782-.054-1.574-.106-2.351a.507.507,0,1,1,1.011-.068c.053.793.09,1.6.109,2.4a.507.507,0,0,1-.966.227Zm-18.3-40.041a.507.507,0,0,1,.805-.585c.577.54,1.154,1.1,1.714,1.677a.507.507,0,0,1-.725.709c-.55-.562-1.115-1.116-1.681-1.645A.5.5,0,0,1,1275.516,161.275Zm3.321,3.4a.507.507,0,0,1,.837-.554c.528.589,1.054,1.2,1.564,1.818a.507.507,0,0,1-.782.645c-.5-.607-1.017-1.208-1.536-1.787A.517.517,0,0,1,1278.837,164.671Zm13.922,27.212a.514.514,0,0,1-.038-.114c-.156-.764-.332-1.537-.523-2.3a.507.507,0,0,1,.983-.247c.194.773.374,1.56.533,2.339a.507.507,0,0,1-.955.317Zm-10.9-23.545a.507.507,0,0,1,.863-.521c.479.631.955,1.283,1.414,1.939a.507.507,0,0,1-.831.581c-.451-.645-.919-1.286-1.39-1.907A.5.5,0,0,1,1281.863,168.338Zm9.737,18.936a.548.548,0,0,1-.027-.071c-.223-.746-.467-1.5-.724-2.24a.507.507,0,0,1,.957-.333c.262.755.511,1.523.738,2.283a.507.507,0,0,1-.944.361Zm-7.008-15.037a.507.507,0,0,1,.885-.489c.431.67.855,1.356,1.26,2.039a.507.507,0,1,1-.872.516c-.4-.673-.815-1.348-1.24-2.007A.516.516,0,0,1,1284.593,172.237Zm5.448,10.547a.308.308,0,0,1-.013-.029q-.239-.6-.493-1.2-.206-.485-.422-.97a.507.507,0,1,1,.926-.412q.22.493.429.986.259.61.5,1.223a.507.507,0,0,1-.93.4Zm-3.026-6.455a.507.507,0,0,1,.9-.456c.38.7.751,1.418,1.1,2.129a.5.5,0,0,1-.23.679.507.507,0,0,1-.679-.23c-.345-.7-.71-1.4-1.084-2.095Z" transform="translate(-1195.153 -141.672)" fill="#6737c2"/>
      </g>
      <g id="Grupo_140752" data-name="Grupo 140752" transform="translate(101.221 61.381)">
        <path id="Trazado_183234" data-name="Trazado 183234" d="M1689.775,451.512a.51.51,0,0,1-.047-.237q.026-.587.038-1.171a.507.507,0,0,1,1.013.022q-.013.6-.038,1.193a.507.507,0,0,1-.966.193Z" transform="translate(-1689.728 -449.608)" fill="#6737c2"/>
      </g>
    </g>
    <path id="Trazado_183235" data-name="Trazado 183235" d="M1682.535,447.044l.3,3.317,30.753,1.929Z" transform="translate(-964.536 -290.054)" fill="#6737c2"/>
    <path id="Trazado_183236" data-name="Trazado 183236" d="M1690.792,390.734l.6,4.922,28.8,11.547Z" transform="translate(-971.148 -244.968)" fill="#6737c2"/>
    <path id="Trazado_183237" data-name="Trazado 183237" d="M1690.792,373.846l6.318-4.2,23.085,20.674Z" transform="translate(-971.148 -228.08)" fill="#00cfff"/>
    <path id="Trazado_183238" data-name="Trazado 183238" d="M1632.645,405.854l-9.28,6.451,42.843,7Z" transform="translate(-917.161 -257.074)" fill="#00cfff"/>
  </g>
</svg>
