<svg xmlns="http://www.w3.org/2000/svg" width="495" height="421.012" viewBox="0 0 495 421.012">
  <g id="img6" transform="translate(-203.801 -48.684)">
    <path id="Trazado_183296" data-name="Trazado 183296" d="M832.083,852.8l-70.624-40.775a3.773,3.773,0,0,1,0-6.535l59.413-34.3a3.773,3.773,0,0,1,3.773,0L893.37,810.87a3.773,3.773,0,0,1,.091,6.48l-57.514,35.4A3.772,3.772,0,0,1,832.083,852.8Z" transform="translate(-295.291 -383.612)" fill="#37356c"/>
    <g id="Grupo_140765" data-name="Grupo 140765" transform="translate(234.627 60.249)">
      <ellipse id="Elipse_4814" data-name="Elipse 4814" cx="22.109" cy="38.295" rx="22.109" ry="38.295" transform="translate(23.483 155.022) rotate(-89.689)" fill="#a8c4e5" opacity="0.4" style="mix-blend-mode: multiply;isolation: isolate"/>
      <g id="Grupo_140764" data-name="Grupo 140764" transform="translate(0)">
        <ellipse id="Elipse_4815" data-name="Elipse 4815" cx="16.127" cy="27.934" rx="16.127" ry="27.934" transform="matrix(0.005, -1, 1, 0.005, 13.374, 147.89)" fill="#b6d1ed"/>
        <path id="Trazado_183297" data-name="Trazado 183297" d="M270.437,271.252l13.145,40.3,55.576.913,12.687-38.837Z" transform="translate(-270.032 -178.503)" fill="#b6d1ed"/>
        <path id="Trazado_183298" data-name="Trazado 183298" d="M374.166,274.661l-12.687,38.686h-.008c-.719,5.732-3.35,7.241-7.909,9.874a35.022,35.022,0,0,1-11.4,4.263c9.385,1.578,19.839-.2,27.186-4.437,4.56-2.633,7.191-3.967,7.91-9.7h.008l12.687-38.686Z" transform="translate(-308.141 -180.314)" fill="#9dbee3"/>
        <ellipse id="Elipse_4816" data-name="Elipse 4816" cx="23.824" cy="41.266" rx="23.824" ry="41.266" transform="translate(0 113.786) rotate(-89.689)" fill="#fff"/>
        <ellipse id="Elipse_4817" data-name="Elipse 4817" cx="20.45" cy="35.422" rx="20.45" ry="35.422" transform="translate(5.577 109.673) rotate(-89.689)" fill="#37356c"/>
        <path id="Trazado_183299" data-name="Trazado 183299" d="M295.547,154.61h0c-2.1-2.757-3.919-5.941-3.516-9.545a6.561,6.561,0,0,1,2.082-4.2c3.222-2.854,7.61-1.011,10.326,1.7,2.324,2.323,3.978,5.282,6.486,7.405l-9.637-30.5c-1.232-3.9-2.481-8.063-.418-11.99a5.718,5.718,0,0,1,5.878-3.118c6.142,1,5.241,11.392,10.7,14.37a78.334,78.334,0,0,1-8.034-24.214c-.965-6.118-1.122-12.776,3.25-17.754a9.409,9.409,0,0,1,9.68-3.048c6.295,1.893,7.49,9.734,7.7,16.118l.8,23.843c1.432-5.85,3.443-12.361,7.5-16.427a3.516,3.516,0,0,1,6,2.209,50.887,50.887,0,0,1-5.28,26.9,12.033,12.033,0,0,1,2.968-3.441,4.784,4.784,0,0,1,7.774,3.825,35.839,35.839,0,0,1-10.365,24.51l3.148-3.5a2.364,2.364,0,0,1,4.123,1.6,22.207,22.207,0,0,1-7.317,16.2C325.4,177.86,305.042,167.076,295.547,154.61Z" transform="translate(-281.475 -73.359)" fill="#27e0c0"/>
      </g>
    </g>
    <path id="Trazado_183300" data-name="Trazado 183300" d="M668.567,555.138,489.617,451.821c-7.324-4.228-6.918-11.291.905-15.776l50.032-28.676c7.824-4.484,20.1-4.692,27.427-.464l178.95,103.317c7.324,4.228,6.918,11.292-.906,15.776l-50.032,28.676C688.17,559.159,675.891,559.366,668.567,555.138Z" transform="translate(-149.076 -188.714)" fill="#a8c4e5" opacity="0.4" style="mix-blend-mode: multiply;isolation: isolate"/>
    <g id="Grupo_140769" data-name="Grupo 140769" transform="translate(203.801 48.684)">
      <path id="Trazado_183301" data-name="Trazado 183301" d="M977.4,364.433v-.022c0-.081,0-.162,0-.244s-.006-.163-.011-.245l0-.034,0-.034c0-.057-.008-.114-.014-.172-.008-.08-.016-.161-.027-.241,0-.038-.011-.076-.016-.114,0-.016,0-.033-.007-.049s-.007-.052-.011-.078c-.013-.08-.027-.161-.042-.241s-.03-.152-.046-.228l0-.009v-.006c-.018-.081-.036-.162-.057-.243s-.041-.16-.063-.24c-.006-.021-.012-.043-.018-.064s-.009-.03-.014-.046c-.013-.043-.024-.086-.038-.129q-.036-.115-.074-.229c-.019-.058-.04-.116-.06-.173l-.008-.024-.009-.026q-.039-.109-.081-.217c-.027-.069-.055-.138-.083-.207l-.038-.087-.016-.038-.035-.081c-.032-.072-.064-.143-.1-.214s-.067-.142-.1-.212l-.01-.02-.016-.031c-.037-.074-.075-.149-.115-.222s-.077-.136-.115-.2c-.026-.045-.051-.091-.077-.136-.012-.021-.023-.043-.036-.064-.065-.11-.135-.217-.2-.324-.023-.035-.044-.071-.067-.106l-.01-.016q-.135-.2-.279-.4l-.042-.055-.038-.05-.1-.133c-.057-.073-.116-.145-.175-.216l-.068-.08-.035-.041-.065-.076c-.058-.066-.117-.131-.176-.2l-.137-.143-.025-.026-.023-.023c-.064-.065-.129-.129-.194-.192s-.137-.129-.206-.192l0,0-.005,0q-.1-.09-.2-.177c-.072-.06-.144-.12-.217-.178l-.027-.021-.031-.023c-.053-.041-.106-.083-.16-.122-.073-.053-.147-.106-.221-.157l-.062-.041-.021-.015-.007,0c-.044-.029-.087-.059-.131-.087q-.111-.071-.224-.137l-1.21-.7-6.633,3.59s1.586.919,1.66.966.148.1.221.146.148.1.221.157.146.11.218.166c.031.024.06.049.09.074.115.093.228.189.339.289h0c.112.1.222.206.33.314l.041.04c.1.1.2.21.3.318l.045.05q.143.16.278.327l.049.06q.134.167.262.341c.044.06.085.121.128.182s.1.146.153.221.112.176.167.264c.036.058.073.114.107.172s.058.1.088.155c.052.091.1.182.153.275l.039.075q.1.192.192.387l.014.032q.1.206.181.415l.017.043q.082.2.155.41l.019.052c.046.135.09.271.13.407l.018.062q.059.2.107.407c.005.021.01.042.014.062.031.136.06.273.084.409,0,.02.007.04.01.06.023.138.044.275.06.412,0,.018,0,.036.006.054.015.138.028.277.036.414,0,.068.007.137.009.206s0,.163,0,.243,0,.17-.006.254-.009.169-.016.253-.017.182-.028.272c-.009.07-.019.14-.03.21,0,0-.023.139-.061.378L947.926,511.171c-.109.673-2.72,4.983-2.13,4.64l6.269-5.313a7.3,7.3,0,0,0,2.486-4.4l22.492-139.01.273-1.685c.011-.07.022-.14.03-.21s.013-.119.019-.179c0,0,0-.007,0-.01s0-.016,0-.024,0-.039.006-.059q.01-.126.015-.253,0-.1,0-.2C977.4,364.453,977.4,364.443,977.4,364.433Z" transform="translate(-597.99 -211.901)" fill="#8db0da"/>
      <g id="Grupo_140766" data-name="Grupo 140766" transform="translate(118.725 20.472)">
        <path id="Trazado_183302" data-name="Trazado 183302" d="M706.924,220.256c2.987,1.725,4.993,5.689,4.48,8.858L688.148,372.848c-.51,3.171-3.347,4.339-6.335,2.613L461.678,248.366c-2.988-1.725-4.993-5.689-4.48-8.858L480.451,95.773c.513-3.169,3.347-4.339,6.335-2.613Z" transform="translate(-457.118 -92.363)" fill="#fff"/>
      </g>
      <path id="Trazado_183303" data-name="Trazado 183303" d="M745.841,175.879,527.656,49.91h0l-.015-.008-.325-.187h0c-.247-.142-.541-.311-.576-.329-.075-.041-.15-.08-.225-.117s-.153-.074-.229-.108-.153-.066-.229-.1-.158-.062-.237-.089-.158-.054-.237-.078-.169-.049-.253-.07l-.015,0h0l-.023,0c-.073-.017-.146-.034-.218-.048l-.11-.018-.091-.015-.07-.012c-.089-.012-.178-.021-.266-.027l-.023,0h0c-.106-.008-.209-.011-.312-.01h-.035c-.047,0-.093,0-.14.007s-.111,0-.165.007l-.046.007c-.075.008-.149.02-.224.032-.04.007-.082.009-.121.017l-.026.007a3.551,3.551,0,0,0-.43.118l-.03.008c-.016.006-.03.015-.045.021a3.373,3.373,0,0,0-.523.241l-6.406,3.723a3.3,3.3,0,0,1,.513-.237c.068-.026.138-.046.208-.067s.168-.05.255-.069q.153-.034.312-.055c.04-.005.079-.013.119-.017a3.829,3.829,0,0,1,.449-.019l.085,0a4.382,4.382,0,0,1,.47.039l.035.006a5,5,0,0,1,.509.1l.041.011q.253.067.509.163l.051.019c.181.069.363.148.547.238.075.037.149.075.224.116.058.031.116.063.174.1l1.208.7h0L740.237,180.066a.807.807,0,0,0,.81,0l4.8-2.787A.808.808,0,0,0,745.841,175.879ZM525.5,50.3h0Z" transform="translate(-369.681 -48.684)" fill="#a8c4e5"/>
      <path id="Trazado_183304" data-name="Trazado 183304" d="M983.076,326v-.022c0-.081,0-.162,0-.244s-.006-.163-.011-.245c0-.012,0-.023,0-.035l0-.034c0-.057-.008-.114-.014-.172-.008-.08-.016-.161-.027-.241,0-.038-.011-.076-.016-.114l-.007-.049c0-.026-.007-.052-.011-.077-.013-.081-.027-.161-.042-.242s-.03-.152-.046-.228l0-.008v-.007c-.017-.081-.037-.162-.057-.243s-.041-.16-.063-.24l-.019-.064c0-.015-.009-.03-.013-.046-.012-.043-.024-.086-.038-.129-.023-.076-.048-.153-.074-.229-.019-.058-.04-.116-.06-.173l-.009-.024-.009-.026c-.026-.073-.053-.145-.081-.217s-.055-.139-.083-.208l-.037-.087-.016-.038c-.011-.027-.023-.054-.035-.081-.031-.072-.064-.142-.1-.214s-.068-.142-.1-.212l-.01-.02-.016-.032c-.038-.075-.076-.149-.115-.222s-.077-.136-.115-.2c-.026-.045-.051-.091-.077-.136-.012-.021-.024-.043-.036-.064-.066-.11-.135-.217-.2-.324-.023-.035-.044-.071-.067-.105l-.01-.016q-.134-.2-.279-.4l-.042-.055-.038-.05c-.033-.044-.067-.089-.1-.133-.057-.073-.115-.145-.174-.216l-.068-.08-.036-.041c-.022-.025-.043-.051-.065-.076q-.087-.1-.176-.195c-.045-.049-.091-.1-.137-.144l-.025-.026-.022-.023c-.064-.065-.129-.129-.2-.192s-.136-.129-.206-.192l0,0-.005,0q-.1-.09-.2-.177t-.217-.178l-.027-.021-.031-.023c-.053-.041-.106-.082-.16-.122q-.109-.081-.221-.157l-.062-.041-.02-.015-.007,0c-.044-.029-.087-.059-.132-.087-.074-.047-.148-.093-.223-.137l-5.33-3.078L966.7,319.01s5.616,2.939,5.69,2.986.148.1.221.146.148.1.221.157.146.11.218.166c.031.024.06.049.09.074.115.093.229.189.339.289h0c.112.1.222.207.329.314l.041.04q.153.155.3.318l.045.05q.143.16.278.328l.048.06q.134.167.262.34c.044.06.085.121.127.182s.1.147.153.221.112.176.167.264c.036.058.073.114.107.173s.059.1.088.155c.052.091.1.182.153.275l.039.075c.066.128.131.257.191.387l.015.033q.095.205.18.414l.017.043q.082.2.155.41l.018.053c.047.135.09.271.13.407l.018.062q.058.2.107.407l.015.062q.047.2.084.41c0,.02.007.039.01.06.024.137.044.275.061.412,0,.018,0,.037.006.054.016.138.028.276.036.414,0,.069.007.138.01.206s0,.163,0,.244,0,.17-.006.254-.009.169-.015.253-.017.182-.028.272q-.013.105-.031.21s-.022.139-.061.378L953.607,472.736c-.109.673-2.719,4.983-2.13,4.64l6.269-5.313a7.3,7.3,0,0,0,2.486-4.4l22.492-139.01c.109-.673.273-1.685.273-1.685.011-.069.021-.139.03-.21s.013-.119.019-.179c0,0,0-.007,0-.01s0-.016,0-.024,0-.039.006-.059q.01-.126.016-.253c0-.067,0-.135,0-.2C983.076,326.017,983.076,326.008,983.076,326Z" transform="translate(-601.008 -190.214)" fill="#8db0da"/>
      <g id="Grupo_140767" data-name="Grupo 140767" transform="translate(121.155 3.723)">
        <path id="Trazado_183305" data-name="Trazado 183305" d="M712.109,184.52c2.988,1.725,4.993,5.689,4.48,8.858L693.333,337.112c-.51,3.171-3.347,4.339-6.335,2.614L466.863,212.63c-2.987-1.725-4.993-5.689-4.48-8.858L485.636,60.037c.513-3.169,3.348-4.339,6.335-2.613Z" transform="translate(-462.303 -56.627)" fill="#37356c"/>
      </g>
      <g id="Grupo_140768" data-name="Grupo 140768" transform="translate(127.232 21.77)">
        <path id="Trazado_183306" data-name="Trazado 183306" d="M711.137,214.228c2.834,1.605,4.754,5.059,4.29,7.717L694.393,342.53c-.461,2.66-3.134,3.511-5.968,1.906l-208.8-118.283c-2.834-1.606-4.754-5.059-4.29-7.718L496.369,97.85c.464-2.658,3.134-3.512,5.968-1.907Z" transform="translate(-475.268 -95.133)" fill="#4aa5ff"/>
      </g>
      <path id="Trazado_183307" data-name="Trazado 183307" d="M760.151,209.606c0,1.384-.978,1.941-2.184,1.245a4.812,4.812,0,0,1-2.183-3.767c0-1.384.978-1.942,2.184-1.245A4.81,4.81,0,0,1,760.151,209.606Z" transform="translate(-497.079 -132.024)" fill="#fff"/>
      <path id="Trazado_183308" data-name="Trazado 183308" d="M549.879,566.394l-.049-6.684-8.6,3.329-1.843-4.249L324.035,434.458c-2.594-1.5-7.818-1.308-10.812.421l-93.365,53.529v-1.49l-14.1,6.885L203.8,493l.287,6.539a3.041,3.041,0,0,0,1.653,2.522L429.846,631.783c2.594,1.5,7.171,1.479,10.167-.25L547.4,569.621c1.635-.944,2.47-2.116,2.474-3.269Z" transform="translate(-203.801 -253.116)" fill="#37356c"/>
      <path id="Trazado_183309" data-name="Trazado 183309" d="M429.825,614,205.73,484.618c-2.594-1.5-2.266-4.138.729-5.867l107.383-62c2.995-1.729,7.567-1.919,10.161-.421L548.1,545.714c2.594,1.5,2.266,4.137-.73,5.866l-107.382,62C436.991,615.308,432.418,615.5,429.825,614Z" transform="translate(-203.896 -243.485)" fill="#d1e7ff"/>
      <path id="Trazado_183310" data-name="Trazado 183310" d="M445.707,651.342,391.472,620.03c-.628-.363-.548-1,.177-1.42l25.988-15a2.743,2.743,0,0,1,2.459-.1l54.235,31.312c.628.362.548,1-.176,1.42l-25.988,15A2.743,2.743,0,0,1,445.707,651.342Z" transform="translate(-303.289 -343.339)" fill="#aed0f5"/>
    </g>
    <g id="Grupo_140771" data-name="Grupo 140771" transform="translate(260.388 231.314)">
      <g id="Grupo_140770" data-name="Grupo 140770" transform="translate(0)">
        <path id="Trazado_183311" data-name="Trazado 183311" d="M449.392,452.54a1.716,1.716,0,0,1-1.48-.172l-13.6-7.851c-.491-.283-.625-.667-.3-.854l9.012-5.207a1.713,1.713,0,0,1,1.481.173l13.6,7.851c.49.283.625.665.3.854Z" transform="translate(-382.607 -438.352)" fill="#37356c"/>
        <path id="Trazado_183312" data-name="Trazado 183312" d="M483.067,502.559a1.706,1.706,0,0,1-1.484-.172l-13.6-7.85c-.49-.283-.621-.664-.292-.853l9.016-5.208a1.709,1.709,0,0,1,1.471.172l13.6,7.85c.5.287.625.668.305.853Z" transform="translate(-400.499 -464.93)" fill="#37356c"/>
        <path id="Trazado_183313" data-name="Trazado 183313" d="M466.044,523.324a1.707,1.707,0,0,1-1.476-.174L450.961,515.3c-.483-.278-.629-.663-.3-.852l9.017-5.209a1.732,1.732,0,0,1,1.474.175l13.607,7.852c.489.282.623.666.3.851Z" transform="translate(-391.455 -475.961)" fill="#37356c"/>
        <path id="Trazado_183314" data-name="Trazado 183314" d="M419.994,527.334a1.713,1.713,0,0,1-1.473-.171l-13.606-7.852c-.485-.28-.619-.665-.3-.851l9.015-5.208a1.72,1.72,0,0,1,1.477.17l13.606,7.852c.487.281.617.665.294.852Z" transform="translate(-366.992 -478.093)" fill="#37356c"/>
        <path id="Trazado_183315" data-name="Trazado 183315" d="M340.1,514.65a1.713,1.713,0,0,1-1.478-.172l-13.6-7.851c-.491-.283-.626-.666-.3-.854l10.585-6.114a1.729,1.729,0,0,1,1.478.173l13.6,7.851c.49.283.619.669.3.853Z" transform="translate(-324.538 -470.872)" fill="#37356c"/>
        <path id="Trazado_183316" data-name="Trazado 183316" d="M384.782,540.433a2.2,2.2,0,0,1-1.757-.334L365.2,529.813c-.638-.368-.9-.824-.575-1.012l10.585-6.115a2.225,2.225,0,0,1,1.752.332L394.788,533.3c.646.373.9.831.58,1.014Z" transform="translate(-345.763 -483.118)" fill="#37356c"/>
        <path id="Trazado_183317" data-name="Trazado 183317" d="M640.059,692.326a1.678,1.678,0,0,1-1.379-.23l-13.595-7.845c-.5-.286-.68-.646-.409-.8l3.913-2.26a1.706,1.706,0,0,1,1.39.236l13.595,7.845c.49.283.667.642.4.8Z" transform="translate(-483.94 -567.337)" fill="#37356c"/>
        <path id="Trazado_183318" data-name="Trazado 183318" d="M678.844,715.289a1.681,1.681,0,0,1-1.379-.23l-13.6-7.845c-.5-.286-.68-.646-.409-.8l3.913-2.261a1.706,1.706,0,0,1,1.39.236l13.595,7.846c.49.283.667.641.4.8Z" transform="translate(-504.547 -579.538)" fill="#37356c"/>
        <path id="Trazado_183319" data-name="Trazado 183319" d="M719.969,738.579a1.681,1.681,0,0,1-1.363-.241l-13.6-7.848c-.488-.281-.684-.638-.423-.789l3.769-2.178a1.71,1.71,0,0,1,1.368.244l13.6,7.848c.49.283.677.638.419.787Z" transform="translate(-526.402 -591.958)" fill="#37356c"/>
        <path id="Trazado_183320" data-name="Trazado 183320" d="M694.681,706.535a1.686,1.686,0,0,1-1.363-.241l-13.6-7.848c-.488-.282-.684-.639-.423-.789l3.77-2.178a1.708,1.708,0,0,1,1.367.244l13.6,7.848c.49.283.677.638.419.787Z" transform="translate(-512.965 -574.932)" fill="#37356c"/>
        <path id="Trazado_183321" data-name="Trazado 183321" d="M504.881,609.724a1.728,1.728,0,0,1-1.486-.177l-88.532-51.091c-.483-.278-.627-.666-.3-.854l10.585-6.114a1.746,1.746,0,0,1,1.48.174l88.532,51.09c.492.284.625.674.307.857Z" transform="translate(-372.276 -498.41)" fill="#37356c"/>
        <path id="Trazado_183322" data-name="Trazado 183322" d="M506.628,611.87a5.148,5.148,0,0,1-.75-.39l-70.461-40.662a4.3,4.3,0,0,1-.673-.43l.658-.38a5.246,5.246,0,0,1,.746.388l70.461,40.662a4.339,4.339,0,0,1,.677.433Z" transform="translate(-383.092 -508.302)" fill="#37356c"/>
        <path id="Trazado_183323" data-name="Trazado 183323" d="M390.575,546.065a.21.21,0,0,1-.142-.04l-10.4-6c-.057-.032-.089-.07-.068-.081l.658-.38a.215.215,0,0,1,.142.039l10.4,6c.058.033.089.07.069.082Z" transform="translate(-353.984 -492.125)" fill="#37356c"/>
        <path id="Trazado_183324" data-name="Trazado 183324" d="M340.6,514.772a.092.092,0,0,1-.082,0l-4.415-2.548c-.024-.014-.028-.035-.007-.047l.658-.38a.092.092,0,0,1,.081,0l4.415,2.548c.024.015.028.036.008.047Z" transform="translate(-330.669 -477.368)" fill="#37356c"/>
        <path id="Trazado_183325" data-name="Trazado 183325" d="M459.779,550.274a1.718,1.718,0,0,1-1.479-.174l-13.6-7.85c-.483-.278-.624-.668-.3-.854l9.015-5.208a1.739,1.739,0,0,1,1.482.172l13.6,7.85c.493.285.623.669.3.856Z" transform="translate(-388.127 -490.28)" fill="#37356c"/>
        <path id="Trazado_183326" data-name="Trazado 183326" d="M499.75,573.341a1.72,1.72,0,0,1-1.474-.171l-13.6-7.85c-.488-.281-.626-.669-.3-.854l9.015-5.208a1.735,1.735,0,0,1,1.483.173l13.6,7.85c.483.279.617.666.294.852Z" transform="translate(-409.367 -502.537)" fill="#37356c"/>
        <path id="Trazado_183327" data-name="Trazado 183327" d="M539.723,596.408a1.716,1.716,0,0,1-1.474-.171l-13.606-7.851c-.486-.281-.618-.665-.3-.851l9.015-5.207a1.714,1.714,0,0,1,1.476.169l13.606,7.851c.486.281.617.666.294.853Z" transform="translate(-430.607 -514.794)" fill="#37356c"/>
        <path id="Trazado_183328" data-name="Trazado 183328" d="M579.687,619.471a1.715,1.715,0,0,1-1.475-.172l-13.606-7.852c-.492-.283-.625-.668-.3-.854l9.015-5.208a1.723,1.723,0,0,1,1.482.173l13.606,7.852c.489.282.618.666.295.853Z" transform="translate(-451.837 -527.046)" fill="#37356c"/>
        <path id="Trazado_183329" data-name="Trazado 183329" d="M619.662,642.54a1.733,1.733,0,0,1-1.485-.177l-13.6-7.849c-.486-.28-.618-.665-.3-.851l9.015-5.208a1.715,1.715,0,0,1,1.476.169l13.6,7.849c.492.284.629.672.305.859Z" transform="translate(-473.077 -539.303)" fill="#37356c"/>
        <path id="Trazado_183330" data-name="Trazado 183330" d="M659.637,665.59a1.722,1.722,0,0,1-1.478-.173l-13.6-7.849c-.49-.283-.625-.668-.3-.854l9.015-5.208a1.726,1.726,0,0,1,1.482.172l13.6,7.849c.488.282.621.668.3.854Z" transform="translate(-494.316 -551.55)" fill="#37356c"/>
        <path id="Trazado_183331" data-name="Trazado 183331" d="M723.067,702.195a1.72,1.72,0,0,1-1.478-.173l-37.065-21.39c-.49-.283-.622-.667-.3-.853l9.015-5.208a1.72,1.72,0,0,1,1.48.172l37.065,21.39c.49.283.621.667.3.854Z" transform="translate(-515.552 -563.805)" fill="#37356c"/>
        <path id="Trazado_183332" data-name="Trazado 183332" d="M505.828,546.263a1.686,1.686,0,0,1-1.47-.17l-13.607-7.852c-.489-.282-.626-.662-.3-.851l9.017-5.209a1.713,1.713,0,0,1,1.471.173l13.607,7.852c.492.284.617.663.3.847Z" transform="translate(-412.597 -488.151)" fill="#37356c"/>
        <path id="Trazado_183333" data-name="Trazado 183333" d="M545.8,569.332a1.706,1.706,0,0,1-1.473-.172l-13.611-7.855c-.484-.279-.622-.659-.295-.848l9.017-5.209a1.712,1.712,0,0,1,1.467.171l13.611,7.855c.485.28.62.665.3.849Z" transform="translate(-433.835 -500.408)" fill="#37356c"/>
        <path id="Trazado_183334" data-name="Trazado 183334" d="M585.77,592.4a1.713,1.713,0,0,1-1.476-.174l-13.6-7.85c-.481-.278-.632-.665-.3-.854l9.017-5.209a1.741,1.741,0,0,1,1.477.177l13.6,7.85c.486.28.623.667.3.851Z" transform="translate(-455.068 -512.661)" fill="#37356c"/>
        <path id="Trazado_183335" data-name="Trazado 183335" d="M625.738,615.461a1.7,1.7,0,0,1-1.474-.172l-13.6-7.849c-.49-.283-.628-.663-.3-.852l9.018-5.209a1.721,1.721,0,0,1,1.474.175l13.6,7.849c.488.281.621.665.3.85Z" transform="translate(-476.306 -524.917)" fill="#37356c"/>
        <path id="Trazado_183336" data-name="Trazado 183336" d="M665.718,638.514a1.707,1.707,0,0,1-1.474-.173l-13.61-7.854c-.49-.283-.625-.661-.3-.85l9.017-5.209a1.708,1.708,0,0,1,1.47.173l13.61,7.854c.486.281.621.666.3.85Z" transform="translate(-497.546 -537.164)" fill="#37356c"/>
        <path id="Trazado_183337" data-name="Trazado 183337" d="M705.681,661.576a1.7,1.7,0,0,1-1.472-.171l-13.6-7.848c-.494-.285-.633-.666-.306-.854l9.017-5.209a1.724,1.724,0,0,1,1.478.178l13.6,7.848c.488.282.619.664.3.849Z" transform="translate(-518.782 -549.419)" fill="#37356c"/>
        <path id="Trazado_183338" data-name="Trazado 183338" d="M745.652,684.643a1.7,1.7,0,0,1-1.472-.172l-13.61-7.854c-.486-.28-.62-.659-.293-.847l9.017-5.209a1.706,1.706,0,0,1,1.466.17l13.61,7.854c.486.281.619.664.3.849Z" transform="translate(-540.019 -561.675)" fill="#37356c"/>
        <path id="Trazado_183339" data-name="Trazado 183339" d="M522.857,525.5a1.711,1.711,0,0,1-1.482-.17l-13.605-7.851c-.484-.279-.617-.661-.288-.852l9.016-5.208a1.711,1.711,0,0,1,1.467.171l13.6,7.851c.491.283.623.666.3.851Z" transform="translate(-421.643 -477.121)" fill="#37356c"/>
        <path id="Trazado_183340" data-name="Trazado 183340" d="M562.817,548.563a1.711,1.711,0,0,1-1.477-.167l-13.6-7.851c-.489-.282-.624-.666-.3-.855l9.016-5.208a1.719,1.719,0,0,1,1.474.175l13.6,7.851c.484.279.618.664.3.848Z" transform="translate(-442.874 -489.373)" fill="#37356c"/>
        <path id="Trazado_183341" data-name="Trazado 183341" d="M602.79,571.63a1.711,1.711,0,0,1-1.484-.172l-13.6-7.85c-.486-.28-.619-.663-.29-.853l9.016-5.208a1.711,1.711,0,0,1,1.469.172l13.6,7.849c.493.285.625.668.305.853Z" transform="translate(-464.112 -501.629)" fill="#37356c"/>
        <path id="Trazado_183342" data-name="Trazado 183342" d="M642.751,594.691a1.7,1.7,0,0,1-1.477-.167l-13.606-7.852c-.49-.283-.624-.665-.3-.855l9.016-5.208a1.717,1.717,0,0,1,1.474.174l13.606,7.852c.491.284.618.664.3.848Z" transform="translate(-485.343 -513.881)" fill="#37356c"/>
        <path id="Trazado_183343" data-name="Trazado 183343" d="M682.735,617.746a1.706,1.706,0,0,1-1.474-.165l-13.606-7.852c-.492-.284-.622-.665-.293-.854l9.016-5.208a1.71,1.71,0,0,1,1.473.173l13.606,7.852c.482.278.615.662.3.846Z" transform="translate(-506.59 -526.133)" fill="#37356c"/>
        <path id="Trazado_183344" data-name="Trazado 183344" d="M722.707,640.814a1.716,1.716,0,0,1-1.487-.172l-13.6-7.851c-.482-.278-.621-.663-.292-.853l9.016-5.208a1.724,1.724,0,0,1,1.471.173l13.6,7.85c.494.285.628.669.307.854Z" transform="translate(-527.824 -538.387)" fill="#37356c"/>
        <path id="Trazado_183345" data-name="Trazado 183345" d="M762.671,663.876a1.709,1.709,0,0,1-1.478-.168l-13.606-7.852c-.49-.283-.622-.665-.294-.854l9.016-5.208a1.715,1.715,0,0,1,1.473.173l13.606,7.852c.486.28.619.664.3.849Z" transform="translate(-549.06 -550.641)" fill="#37356c"/>
        <path id="Trazado_183346" data-name="Trazado 183346" d="M432.368,473.3a1.713,1.713,0,0,1-1.483-.171l-23.068-13.312c-.491-.284-.626-.667-.3-.856l9.016-5.208a1.72,1.72,0,0,1,1.476.175l23.067,13.312c.491.283.625.667.3.852Z" transform="translate(-368.532 -446.482)" fill="#37356c"/>
        <path id="Trazado_183347" data-name="Trazado 183347" d="M818.4,665.45a1.713,1.713,0,0,1-1.479-.172l-23.069-13.312c-.482-.278-.622-.665-.3-.853l9.012-5.206a1.721,1.721,0,0,1,1.477.171l23.069,13.312c.49.283.625.666.3.854Z" transform="translate(-573.641 -548.575)" fill="#37356c"/>
        <path id="Trazado_183348" data-name="Trazado 183348" d="M410.312,491.162a1.7,1.7,0,0,1-1.476-.174l-27.5-15.87c-.491-.283-.629-.664-.3-.853l9.017-5.209a1.723,1.723,0,0,1,1.475.176l27.5,15.87c.5.286.623.666.3.851Z" transform="translate(-354.461 -454.612)" fill="#37356c"/>
        <path id="Trazado_183349" data-name="Trazado 183349" d="M374.663,501.175a1.723,1.723,0,0,1-1.478-.174l-18.336-10.582c-.491-.284-.624-.667-.3-.853l9.015-5.208a1.722,1.722,0,0,1,1.481.172l18.336,10.581c.49.283.622.668.3.855Z" transform="translate(-340.389 -462.741)" fill="#37356c"/>
        <path id="Trazado_183350" data-name="Trazado 183350" d="M489.36,475.6a1.713,1.713,0,0,1-1.483-.174l-13.6-7.846c-.49-.283-.625-.667-.3-.855l9.012-5.206a1.714,1.714,0,0,1,1.481.172l13.6,7.846c.5.286.628.667.3.856Z" transform="translate(-403.846 -450.609)" fill="#37356c"/>
        <path id="Trazado_183351" data-name="Trazado 183351" d="M529.146,498.545a1.719,1.719,0,0,1-1.481-.173l-13.6-7.851c-.486-.281-.624-.666-.3-.854l9.013-5.206a1.715,1.715,0,0,1,1.479.172l13.6,7.851c.49.283.628.666.3.855Z" transform="translate(-424.981 -462.796)" fill="#37356c"/>
        <path id="Trazado_183352" data-name="Trazado 183352" d="M569.108,521.607a1.7,1.7,0,0,1-1.474-.169l-13.6-7.851c-.487-.281-.621-.665-.3-.852l9.012-5.207a1.712,1.712,0,0,1,1.476.17l13.6,7.851c.492.284.62.662.293.851Z" transform="translate(-446.219 -475.052)" fill="#37356c"/>
        <path id="Trazado_183353" data-name="Trazado 183353" d="M609.088,544.679a1.719,1.719,0,0,1-1.481-.173l-13.6-7.846c-.493-.285-.626-.667-.3-.855l9.012-5.207a1.71,1.71,0,0,1,1.482.173l13.6,7.846c.489.282.627.666.3.854Z" transform="translate(-467.459 -487.309)" fill="#37356c"/>
        <path id="Trazado_183354" data-name="Trazado 183354" d="M649.045,567.737a1.7,1.7,0,0,1-1.474-.168l-13.6-7.85c-.493-.285-.626-.667-.3-.855l9.012-5.206a1.711,1.711,0,0,1,1.482.173l13.6,7.849c.493.284.619.662.292.851Z" transform="translate(-488.69 -499.561)" fill="#37356c"/>
        <path id="Trazado_183355" data-name="Trazado 183355" d="M689.033,590.795a1.713,1.713,0,0,1-1.475-.169l-13.61-7.854c-.486-.28-.618-.663-.293-.851l9.012-5.206a1.7,1.7,0,0,1,1.474.168l13.609,7.854c.484.279.621.663.294.852Z" transform="translate(-509.935 -511.811)" fill="#37356c"/>
        <path id="Trazado_183356" data-name="Trazado 183356" d="M729,613.856a1.714,1.714,0,0,1-1.48-.172l-13.6-7.851c-.492-.284-.628-.668-.3-.856l9.012-5.207a1.72,1.72,0,0,1,1.484.174l13.6,7.85c.49.283.625.666.3.854Z" transform="translate(-531.165 -524.062)" fill="#37356c"/>
        <path id="Trazado_183357" data-name="Trazado 183357" d="M768.962,636.92a1.7,1.7,0,0,1-1.471-.167L753.876,628.9c-.484-.279-.616-.661-.29-.849l9.012-5.207a1.7,1.7,0,0,1,1.471.167l13.614,7.856c.486.28.617.66.29.849Z" transform="translate(-552.404 -536.319)" fill="#37356c"/>
        <path id="Trazado_183358" data-name="Trazado 183358" d="M788.705,673.029a2.076,2.076,0,0,0-.8-.261,1.1,1.1,0,0,0-.669.09l-9.016,5.209a.309.309,0,0,0-.164.39,1,1,0,0,0,.451.461l3.552,2.05L770.24,687.8a.306.306,0,0,0-.154.392.979.979,0,0,0,.456.46l9.165,5.289a2.14,2.14,0,0,0,.8.266,1.116,1.116,0,0,0,.679-.09l21.431-12.381a.3.3,0,0,0,.15-.39.964.964,0,0,0-.458-.464Z" transform="translate(-561.253 -562.895)" fill="#37356c"/>
        <path id="Trazado_183359" data-name="Trazado 183359" d="M380.433,503.605a.21.21,0,0,1-.142-.039l-10.4-6c-.057-.033-.088-.07-.068-.082l.658-.38a.213.213,0,0,1,.141.039l10.4,6c.058.033.088.07.068.082Z" transform="translate(-348.595 -469.565)" fill="#37356c"/>
      </g>
    </g>
    <path id="Trazado_183360" data-name="Trazado 183360" d="M485.157,559.437l-14.2-10.122,2.845-3.9L488,555.539Z" transform="translate(-141.943 -263.923)" fill="#a7d1e8"/>
    <path id="Trazado_183361" data-name="Trazado 183361" d="M890.245,363.147l-.2-.422a.487.487,0,0,1,.225-.648h0a.486.486,0,0,1,.648.225l.2.422a.487.487,0,0,1-.225.648h0A.487.487,0,0,1,890.245,363.147Z" transform="translate(-364.586 -166.486)" fill="#514677"/>
    <path id="Trazado_183362" data-name="Trazado 183362" d="M323.062,457.119l116.056,67.2s124.066-63.559,139.262-199.535c4.443-39.762-23.714-6.8-36.709-10.324-19.173-5.2-32.316-9.982-32.316-9.982Z" transform="translate(-63.366 -135.907)" fill="#45446c" opacity="0.29" style="mix-blend-mode: multiply;isolation: isolate"/>
    <path id="Trazado_183363" data-name="Trazado 183363" d="M571.653,237.624,465.5,177.968c-2-1.126-4.027.01-4.519,2.536-18.681,69.647-21.5,120.361-149.287,202.773l113,66.121c48.569-32.64,137.574-105.219,149.7-205.162A6.536,6.536,0,0,0,571.653,237.624Z" transform="translate(-57.325 -68.46)" fill="#fff"/>
    <path id="Trazado_183364" data-name="Trazado 183364" d="M795.678,340.577l-36.823-22.2a3.6,3.6,0,0,1-1.286-3.954h0c.441-1.49,1.731-2.135,2.882-1.441l36.823,22.2a3.6,3.6,0,0,1,1.285,3.954h0C798.12,340.626,796.829,341.271,795.678,340.577Z" transform="translate(-294.148 -140.276)" fill="#ffd22d"/>
    <path id="Trazado_183365" data-name="Trazado 183365" d="M664.254,557.013l-37.041-21.841a3.6,3.6,0,0,1-1.324-3.941h0c.426-1.494,1.711-2.152,2.868-1.469L665.8,551.6a3.6,3.6,0,0,1,1.325,3.942h0C666.7,557.038,665.412,557.7,664.254,557.013Z" transform="translate(-224.189 -255.462)" fill="#ffd22d"/>
    <path id="Trazado_183366" data-name="Trazado 183366" d="M560.343,495.071,523.3,473.231a3.6,3.6,0,0,1-1.325-3.941h0c.426-1.494,1.71-2.152,2.868-1.469l37.041,21.841a3.6,3.6,0,0,1,1.324,3.941h0C562.785,495.1,561.5,495.754,560.343,495.071Z" transform="translate(-168.98 -222.551)" fill="#d84177"/>
    <path id="Trazado_183367" data-name="Trazado 183367" d="M789.218,367.106,748.227,342.39l1.6-5.4,40.991,24.716Z" transform="translate(-289.263 -153.185)" fill="#a7d1e8"/>
    <path id="Trazado_183368" data-name="Trazado 183368" d="M669.7,295.043l-40.991-24.716,1.6-5.4L671.3,289.648Z" transform="translate(-225.762 -114.896)" fill="#a7d1e8"/>
    <path id="Trazado_183369" data-name="Trazado 183369" d="M781.411,393.486,740.42,368.771l1.6-5.4,40.991,24.716Z" transform="translate(-285.115 -167.201)" fill="#a7d1e8"/>
    <path id="Trazado_183370" data-name="Trazado 183370" d="M661.895,321.423,620.9,296.708l1.6-5.4,40.991,24.716Z" transform="translate(-221.614 -128.913)" fill="#a7d1e8"/>
    <path id="Trazado_183371" data-name="Trazado 183371" d="M645.531,367.133l-40.991-24.716,1.6-5.4,40.991,24.716Z" transform="translate(-212.92 -153.199)" fill="#a7d1e8"/>
    <path id="Trazado_183372" data-name="Trazado 183372" d="M630.423,331.84l-16.9-10.19,1.6-5.4,16.9,10.19Z" transform="translate(-217.692 -142.165)" fill="#a7d1e8"/>
    <path id="Trazado_183373" data-name="Trazado 183373" d="M611.916,374.589l-16.9-10.19,1.6-5.4,16.9,10.19Z" transform="translate(-207.859 -164.878)" fill="#a7d1e8"/>
    <path id="Trazado_183374" data-name="Trazado 183374" d="M605.187,429.042l-26.258-15.832,2.33-5,26.258,15.832Z" transform="translate(-199.312 -191.023)" fill="#a7d1e8"/>
    <path id="Trazado_183375" data-name="Trazado 183375" d="M590.586,454.674l-26.258-15.832,2.33-5,26.258,15.832Z" transform="translate(-191.555 -204.642)" fill="#a7d1e8"/>
    <path id="Trazado_183376" data-name="Trazado 183376" d="M680.172,359.568l-16.9-10.19,1.6-5.4,16.9,10.19Z" transform="translate(-244.125 -156.898)" fill="#a7d1e8"/>
    <path id="Trazado_183377" data-name="Trazado 183377" d="M701.384,286.809l-16.9-10.19,1.6-5.4,16.9,10.19Z" transform="translate(-255.395 -118.239)" fill="#a7d1e8"/>
    <path id="Trazado_183378" data-name="Trazado 183378" d="M749.939,403.9l-16.9-10.19,1.6-5.4,16.9,10.19Z" transform="translate(-281.193 -180.453)" fill="#a7d1e8"/>
    <path id="Trazado_183379" data-name="Trazado 183379" d="M538.5,517.794l-40.186-24.9,3.152-4.462,40.186,24.9Z" transform="translate(-156.48 -233.648)" fill="#a7d1e8"/>
    <path id="Trazado_183380" data-name="Trazado 183380" d="M523.086,539.611l-40.186-24.9,3.152-4.462,40.186,24.9Z" transform="translate(-148.29 -245.24)" fill="#a7d1e8"/>
    <g id="Grupo_140772" data-name="Grupo 140772" transform="translate(412.091 126.366)">
      <path id="Trazado_183381" data-name="Trazado 183381" d="M666.524,223.578a17.52,17.52,0,0,0-.866,2.206l-.795,2.494-.17.08-.778-.445-.095-.213a21.119,21.119,0,0,0,.556-2.331,1.322,1.322,0,0,0-.574-1.157q-.233-.186-2.308-1.372l-1.654-.946q-.186.512-1.307,4.161l-2.62,8.531a41.076,41.076,0,0,0-1.269,4.748.883.883,0,0,0,.249.8,15.531,15.531,0,0,0,1.4.976l.077.221-.309,1.006-.17.08q-1.194-.789-3.775-2.264-2.643-1.51-3.831-2.083l-.07-.2.314-1.021.17-.08a13.542,13.542,0,0,0,1.49.675.494.494,0,0,0,.591-.316,38.705,38.705,0,0,0,1.59-4.564l2.62-8.531q1.139-3.71,1.245-4.2l-1.765-1.01a12.9,12.9,0,0,0-2.632-1.31.457.457,0,0,0-.341.07,3.031,3.031,0,0,0-.48.855q-.331.747-.614,1.573l-.17.08-.778-.444-.09-.228.764-2.583a21.7,21.7,0,0,0,.539-2.322l.157-.087q.682.567,5.263,3.185l5,2.858q4.223,2.413,5.356,2.884Z" transform="translate(-648.216 -214.43)" fill="#45446c"/>
    </g>
    <path id="Trazado_183382" data-name="Trazado 183382" d="M716.334,447.883l-49.023-29.546c-1.393-.839-4.12.211-4.878,1.88l-15.794,34.75a2.513,2.513,0,0,0,.869,3.434l5.237,3.156-.028.017,41.011,24.717v-.033l3.069,1.849c1.257.758,3.719-.191,4.4-1.7l15.983-35.168A2.459,2.459,0,0,0,716.334,447.883Z" transform="translate(-235.116 -196.246)" fill="#45446c" opacity="0.45" style="mix-blend-mode: multiply;isolation: isolate"/>
    <g id="Grupo_140773" data-name="Grupo 140773" transform="translate(405.827 222.49)">
      <path id="Trazado_183383" data-name="Trazado 183383" d="M685.335,489.59l-49.289-29.707a2.512,2.512,0,0,1-.868-3.434L650.97,421.7c.758-1.669,3.486-2.72,4.879-1.88l49.022,29.546a2.459,2.459,0,0,1,.85,3.36l-15.983,35.168C689.054,489.4,686.592,490.348,685.335,489.59Z" transform="translate(-634.853 -419.524)" fill="#f0f0fa"/>
      <path id="Trazado_183384" data-name="Trazado 183384" d="M648.512,502.662l12.115-7.511c2.86-1.773,6.252-1.3,6.462.9l1.4,14.611L682.7,500.1c2.978-2.213,6.986-1.766,6.972.778l-.147,26.5Z" transform="translate(-642.11 -459.13)" fill="#27e0c0"/>
      <path id="Trazado_183385" data-name="Trazado 183385" d="M695.058,456.611c-1.114,2.451-3.474,3.56-5.271,2.477s-2.351-3.948-1.237-6.4,3.474-3.561,5.271-2.477S696.172,454.16,695.058,456.611Z" transform="translate(-663.078 -435.608)" fill="#ffd22d"/>
    </g>
    <g id="Grupo_140774" data-name="Grupo 140774" transform="translate(547.113 147.997)">
      <ellipse id="Elipse_4818" data-name="Elipse 4818" cx="50.866" cy="30.295" rx="50.866" ry="30.295" transform="translate(42.212 203.603) rotate(-8.38)" fill="#a8c4e5" opacity="0.4" style="mix-blend-mode: multiply;isolation: isolate"/>
      <path id="Trazado_183386" data-name="Trazado 183386" d="M1163.3,304.841a14.613,14.613,0,0,1,26.856,2.694c1.318,4.359.519,9.139-1.286,13.32s-4.555,7.872-7.279,11.522c-3.833,5.135-10.211,13.361-14.044,18.5" transform="translate(-1056.912 -280.015)" fill="none" stroke="#b6d1ed" stroke-miterlimit="10" stroke-width="3.465"/>
      <ellipse id="Elipse_4819" data-name="Elipse 4819" cx="28.184" cy="47.364" rx="28.184" ry="47.364" transform="translate(31.643 255.632) rotate(-88.34)" fill="#5e8bbf"/>
      <ellipse id="Elipse_4820" data-name="Elipse 4820" cx="28.184" cy="47.364" rx="28.184" ry="47.364" transform="translate(32.074 240.753) rotate(-88.34)" fill="#93b9e6"/>
      <path id="Trazado_183387" data-name="Trazado 183387" d="M1081.4,667.13l-5.774,14.47a2.924,2.924,0,0,0,1.181,3.573l17.74,10.939a2.924,2.924,0,0,0,4.459-2.431l.354-17.813a2.925,2.925,0,0,0-1.389-2.547l-12.319-7.6A2.924,2.924,0,0,0,1081.4,667.13Z" transform="translate(-1010.219 -475.61)" fill="#b6d1ed"/>
      <path id="Trazado_183388" data-name="Trazado 183388" d="M1096.86,654.831l6.353-3.292,14.759,9.261,2.3,19.85a3.218,3.218,0,0,1-1.118,2.827l-2.7,2.284a4.01,4.01,0,0,1-6.6-3.141l.312-15.729-13.444-8.29A2.169,2.169,0,0,1,1096.86,654.831Z" transform="translate(-1020.989 -468.305)" fill="#b6d1ed"/>
      <path id="Trazado_183389" data-name="Trazado 183389" d="M1113.99,360.518l43.286,67.918-44.348,74.655" transform="translate(-1030.149 -313.68)" fill="none" stroke="#45446c" stroke-miterlimit="10" stroke-width="15.754"/>
      <path id="Trazado_183390" data-name="Trazado 183390" d="M1168.5,403.268c-8.954,13.828,2.529,30.29,31.408,41.2,2.2.832,8.742,7.486-5.945,14.139" transform="translate(-1058.096 -336.394)" fill="none" stroke="#b6d1ed" stroke-miterlimit="10" stroke-width="3.465"/>
      <path id="Trazado_183391" data-name="Trazado 183391" d="M1135.517,348.314l44.375,75.016L1132.119,502.3" transform="translate(-1040.345 -307.196)" fill="none" stroke="#45446c" stroke-miterlimit="10" stroke-width="15.754"/>
      <path id="Rectángulo_35955" data-name="Rectángulo 35955" d="M18.537,0H54.356A18.537,18.537,0,0,1,72.893,18.537v0A18.537,18.537,0,0,1,54.356,37.074H18.536A18.536,18.536,0,0,1,0,18.537v0A18.537,18.537,0,0,1,18.537,0Z" transform="translate(41.707 32.554) rotate(-26.525)" fill="#6c99c9"/>
      <path id="Trazado_183392" data-name="Trazado 183392" d="M1117.682,286.679l-19.485,8.926a1.946,1.946,0,0,1-2.573-.956h0a1.946,1.946,0,0,1,.956-2.573l19.486-8.927a1.946,1.946,0,0,1,2.573.956h0A1.947,1.947,0,0,1,1117.682,286.679Z" transform="translate(-1020.862 -272.48)" fill="#b5cfea"/>
      <path id="Trazado_183393" data-name="Trazado 183393" d="M1136.676,303.394l-19.485,8.926a1.946,1.946,0,0,1-2.573-.956h0a1.946,1.946,0,0,1,.956-2.573l19.485-8.926a1.947,1.947,0,0,1,2.573.956h0A1.947,1.947,0,0,1,1136.676,303.394Z" transform="translate(-1030.953 -281.361)" fill="#b5cfea"/>
      <path id="Trazado_183394" data-name="Trazado 183394" d="M1142.714,329.023l-19.486,8.927a1.946,1.946,0,0,1-2.573-.956h0a1.946,1.946,0,0,1,.956-2.573l19.485-8.926a1.946,1.946,0,0,1,2.573.956h0A1.947,1.947,0,0,1,1142.714,329.023Z" transform="translate(-1034.161 -294.978)" fill="#b5cfea"/>
      <ellipse id="Elipse_4821" data-name="Elipse 4821" cx="13.25" cy="45.217" rx="13.25" ry="45.217" transform="matrix(0.877, -0.48, 0.48, 0.877, 0, 28.945)" fill="#9dbee3"/>
      <path id="Trazado_183395" data-name="Trazado 183395" d="M1013.959,375.833l11.975-11.194a42.35,42.35,0,0,0,7.07-53.262h0a42.35,42.35,0,0,0-46.523-18.7l-16.547,4.249Z" transform="translate(-954.173 -276.928)" fill="#9dbee3"/>
      <path id="Trazado_183396" data-name="Trazado 183396" d="M992.57,311.405l11.574-2.972a29.613,29.613,0,0,1,30.067,9.685,29.544,29.544,0,0,0-34.748-17.413l-11.574,2.972Z" transform="translate(-963.714 -281.405)" fill="#b6d1ed"/>
      <path id="Trazado_183397" data-name="Trazado 183397" d="M1072.254,322.894h0a40.254,40.254,0,0,0-2.723-3.823,42.341,42.341,0,0,1-9.124,49.506l-11.616,10.857,4.417,7.916,11.975-11.194A42.351,42.351,0,0,0,1072.254,322.894Z" transform="translate(-996.072 -291.658)" fill="#7b9fc7"/>
      <ellipse id="Elipse_4822" data-name="Elipse 4822" cx="13.25" cy="45.217" rx="13.25" ry="45.217" transform="translate(4.135 26.358) rotate(-28.668)" fill="#37356c"/>
      <path id="Trazado_183398" data-name="Trazado 183398" d="M989.606,354.1c-.651,7.573.966,18.98,14.492,25.277a8.048,8.048,0,0,0,11.424-8.468c-1.359-8.5-6.88-18.536-13.66-22.918A8.01,8.01,0,0,0,989.606,354.1Z" transform="translate(-964.562 -306.352)" fill="#fff"/>
      <path id="Trazado_183399" data-name="Trazado 183399" d="M1000.44,335.994c-11.98-21.911-26.9-36.828-33.318-33.317a5.511,5.511,0,0,0-2.479,3.667c7.479,2.43,19.155,15.617,28.892,33.425s14.537,34.756,12.546,42.363a5.51,5.51,0,0,0,4.426-.108C1016.927,378.514,1012.42,357.905,1000.44,335.994Z" transform="translate(-951.362 -282.676)" fill="#e9f5ff"/>
      <path id="Trazado_183400" data-name="Trazado 183400" d="M1189.256,494.571l16.393,7.9a3.683,3.683,0,0,1,1.557,5.217l-7.451,12.379a2.5,2.5,0,0,1-3.289.937l-16.691-8.559a2.7,2.7,0,0,1-1.08-3.787l8-13.321A1.981,1.981,0,0,1,1189.256,494.571Z" transform="translate(-1064.886 -384.8)" fill="#b6d1ed"/>
      <path id="Trazado_183401" data-name="Trazado 183401" d="M1221.485,510.581l1.917,1.069a2.879,2.879,0,0,1,1.064,4l-7.761,12.894a2.671,2.671,0,0,1-3.507,1l-3.136-1.608Z" transform="translate(-1081.758 -393.411)" fill="#9dbee3"/>
    </g>
    <g id="Grupo_140775" data-name="Grupo 140775" transform="translate(510.742 408.784)">
      <path id="Trazado_183402" data-name="Trazado 183402" d="M905.135,845.075,888.844,854.9c-6.005,3.621-14.716,2.6-19.358-2.269h0c-4.642-4.871-3.526-11.818,2.48-15.44l16.291-9.824c6.005-3.621,14.716-2.6,19.358,2.269h0C912.257,834.505,911.141,841.453,905.135,845.075Z" transform="translate(-862.91 -821.359)" fill="#a8c4e5" opacity="0.4" style="mix-blend-mode: multiply;isolation: isolate"/>
      <path id="Trazado_183403" data-name="Trazado 183403" d="M897.219,836.886l-16.291,9.824c-6.005,3.622-14.716,2.6-19.358-2.269h0c-4.642-4.87-3.526-11.818,2.48-15.44l16.291-9.824c6.005-3.622,14.716-2.6,19.358,2.269h0C904.341,826.316,903.225,833.265,897.219,836.886Z" transform="translate(-858.704 -817.009)" fill="#fff"/>
      <path id="Trazado_183404" data-name="Trazado 183404" d="M930.751,826.69a10.107,10.107,0,0,0-4.482,2.006" transform="translate(-894.602 -822.153)" fill="none" stroke="#a8c4e5" stroke-miterlimit="10" stroke-width="2.178"/>
    </g>
    <g id="Grupo_140784" data-name="Grupo 140784" transform="translate(253.545 172.484)">
      <circle id="Elipse_4823" data-name="Elipse 4823" cx="4.708" cy="4.708" r="4.708" transform="translate(43.556 16.041) rotate(-45)" fill="#37356c"/>
      <circle id="Elipse_4824" data-name="Elipse 4824" cx="4.708" cy="4.708" r="4.708" transform="translate(46.899 10.866) rotate(-45)" fill="#37356c"/>
      <circle id="Elipse_4825" data-name="Elipse 4825" cx="4.708" cy="4.708" r="4.708" transform="translate(40.287 3.626) rotate(-22.646)" fill="#37356c"/>
      <g id="Grupo_140783" data-name="Grupo 140783" transform="translate(0 5.282)">
        <path id="Trazado_183405" data-name="Trazado 183405" d="M344.77,449.358c6.133,12.556,15.268,9.6,44.033,7.961" transform="translate(-328.445 -390.652)" fill="none" stroke="#ffaa82" stroke-miterlimit="10" stroke-width="5.884"/>
        <ellipse id="Elipse_4826" data-name="Elipse 4826" cx="20.013" cy="34.664" rx="20.013" ry="34.664" transform="translate(0 241.385) rotate(-89.689)" fill="#a8c4e5" opacity="0.4" style="mix-blend-mode: multiply;isolation: isolate"/>
        <path id="Trazado_183406" data-name="Trazado 183406" d="M491.571,498.843l-2.387-1.9a4.279,4.279,0,0,1-.681-5.994h0a4.278,4.278,0,0,1,5.994-.681l2.387,1.9a4.278,4.278,0,0,1,.681,5.994h0A4.278,4.278,0,0,1,491.571,498.843Z" transform="translate(-404.322 -411.897)" fill="#ffaa82"/>
        <path id="Trazado_183407" data-name="Trazado 183407" d="M348.058,768.888c-.253.22-4.009,2.106-4.245,2.312-.362.315-1.441,1.184-2.092,1.654-1.371.99-4.271,4.751-9,2.1-6.92-3.875,9.595-14.905,9.595-14.905l7.306-3.809a3.177,3.177,0,0,1,2.89,0h0a3.326,3.326,0,0,1,1.466,4.583C352.383,763.583,352.293,765.192,348.058,768.888Z" transform="translate(-321.143 -553.52)" fill="#37356c"/>
        <path id="Trazado_183408" data-name="Trazado 183408" d="M346.394,764.473c-.252.22-4.008,2.105-4.245,2.312-.362.315-1.441,1.184-2.092,1.654-1.371.99-4.271,4.751-9,2.1-6.92-3.875,9.595-14.905,9.595-14.905l7.305-3.809a3.176,3.176,0,0,1,2.89,0h0a3.325,3.325,0,0,1,1.467,4.582C350.72,759.169,350.63,760.778,346.394,764.473Z" transform="translate(-320.259 -551.174)" fill="#fff"/>
        <path id="Trazado_183409" data-name="Trazado 183409" d="M402.572,803.438c-.292.166-4.349,1.26-4.622,1.414-.418.237-1.649.871-2.381,1.2-1.542.7-5.136,3.8-9.238.257-6-5.183,12.385-12.682,12.385-12.682l7.92-2.268a3.175,3.175,0,0,1,2.831.578h0a3.325,3.325,0,0,1,.519,4.783C407.872,799.107,407.462,800.665,402.572,803.438Z" transform="translate(-349.887 -572.301)" fill="#37356c"/>
        <path id="Trazado_183410" data-name="Trazado 183410" d="M401.826,798.779c-.291.165-4.349,1.26-4.622,1.414-.418.237-1.649.871-2.381,1.2-1.542.7-5.136,3.8-9.239.257-6-5.183,12.385-12.682,12.385-12.682l7.92-2.269a3.178,3.178,0,0,1,2.832.579h0a3.326,3.326,0,0,1,.519,4.783C407.126,794.448,406.716,796.007,401.826,798.779Z" transform="translate(-349.49 -569.826)" fill="#fff"/>
        <g id="Grupo_140777" data-name="Grupo 140777" transform="translate(31.569 125.154)">
          <g id="Grupo_140776" data-name="Grupo 140776">
            <path id="Trazado_183411" data-name="Trazado 183411" d="M377.578,599.271a88.723,88.723,0,0,1,2.658,9.411q.55,2.451.984,4.927.193,1.094.365,2.191.1.629.191,1.26c.057.391.2,1.437.076.508a176.528,176.528,0,0,1,1.34,20.567c.146,12.184-.714,24.333-1.589,36.477-.309,4.292-.711,8.622-.592,12.929.093,3.359,2.89,6.588,6.429,6.429,3.4-.152,6.529-2.828,6.429-6.429-.258-9.3,1.087-18.714,1.616-27.992.766-13.44,1-27-.579-40.388a111.3,111.3,0,0,0-4.93-23.307,6.584,6.584,0,0,0-7.908-4.49c-3.193.877-5.625,4.61-4.49,7.909Z" transform="translate(-377.295 -591.133)" fill="#3f3f9e"/>
          </g>
        </g>
        <g id="Grupo_140778" data-name="Grupo 140778" transform="translate(5.763 110.676)">
          <path id="Trazado_183412" data-name="Trazado 183412" d="M322.459,568.37a158.923,158.923,0,0,1,4.438,24.459c.485,4.239.891,8.486,1.274,12.735a75.173,75.173,0,0,1,.7,8.562c-.1,3.7-.711,7.444-1.123,11.12-.641,5.727-1.294,11.452-1.874,17.186a141.865,141.865,0,0,0-1.116,15.587c.033,3.361,2.933,6.586,6.429,6.429a6.535,6.535,0,0,0,6.429-6.429c-.1-10.3,1.642-20.761,2.789-30.974.461-4.105,1.025-8.221,1.291-12.345a44.07,44.07,0,0,0-.441-6.679c-.384-4.328-.78-8.656-1.248-12.977-1.094-10.1-2.417-20.28-5.144-30.093a6.431,6.431,0,0,0-12.4,3.419Z" transform="translate(-322.235 -560.242)" fill="#3f3f9e"/>
        </g>
        <g id="Grupo_140779" data-name="Grupo 140779" transform="translate(36.096 219.722)">
          <path id="Trazado_183413" data-name="Trazado 183413" d="M397.48,793.874c-2.726,2.38-8.376,2.05-10.5-.966-.034,1.662-.041,3.323,0,4.981.163,6.757,10.681,6.782,10.518,0C397.466,796.552,397.463,795.213,397.48,793.874Z" transform="translate(-386.953 -792.908)" fill="#97caff"/>
        </g>
        <path id="Trazado_183414" data-name="Trazado 183414" d="M332.5,577.183h0c1.188,1.331-3.914-5.142-2.387-4.22,3.18,1.922,21.03,14.049,24.745,14.111,4.487.075,1.871-4.263,5.212-7.26,3.169-2.844,3.915-7.464,4.224-11.71a7.367,7.367,0,0,0-.325-3.479,7.486,7.486,0,0,0-2.568-2.76c-7.929-6-23.528-20.858-34.607-16.107C313.99,551.248,326.816,570.814,332.5,577.183Z" transform="translate(-315.974 -441.381)" fill="#3f3f9e"/>
        <path id="Trazado_183415" data-name="Trazado 183415" d="M323.039,405.837c-2.348,3.027-2.069,4.9-1.957,9.03a9.232,9.232,0,0,0,6.741,8.629l39.749,11.147s2.284-15.292-5.556-19.895c-4.223-2.479-10.775-6.446-15.922-9.579C338.535,400.568,328.462,398.844,323.039,405.837Z" transform="translate(-315.821 -365.036)" fill="#4aa5ff"/>
        <path id="Trazado_183416" data-name="Trazado 183416" d="M363.975,393.063l3.363-14.984,9.139,6.151-2.753,13.642C373.457,400.087,363.315,398.153,363.975,393.063Z" transform="translate(-338.632 -352.78)" fill="#ffaa82"/>
        <path id="Trazado_183417" data-name="Trazado 183417" d="M372.945,329.317s-7.984-7.8-10.628,7.478a27.05,27.05,0,0,0,11.118,26.542c5,3.494,12.2,1.292,13.386-3.956,2.587-7.512,3.813-14.734,2.317-21.376,1.427-6.329-3.348-4.79-10.876-6.472Z" transform="translate(-337.563 -325.813)" fill="#ffaa82"/>
        <path id="Trazado_183418" data-name="Trazado 183418" d="M355.784,356.426s-9.8-5.627-6.353-20.167c3.734-15.734,18.14-11.918,26.406-11.338,3.66.257,6.251.156,9.39,4.062,2.855,3.553-1.408,9.752-6.291,9.382-1.937-.147-3.269,5.164-3.949,6.862-1.209,3.021-3.865,3.632-5.1,6.551-1.164,2.762-4.364,7.13-7.173,6.988C357.714,358.514,355.784,356.426,355.784,356.426Z" transform="translate(-330.53 -324.099)" fill="#37356c"/>
        <path id="Trazado_183419" data-name="Trazado 183419" d="M319,486.811c-2.532-.978-1.926-44.469.348-68.489l44.744,21.288c-.225,20.447-2.808,36.583-.359,61.5Z" transform="translate(-313.879 -374.161)" fill="#4aa5ff"/>
        <path id="Trazado_183420" data-name="Trazado 183420" d="M350.654,576.584c-11.054-4.032-21.584-8.446-27.771-16.034-3.038-1.754-2.654-4.847.854-6.873h0c3.509-2.026,8.866-2.248,11.9-.494l27.771,16.034c3.038,1.754,2.654,4.847-.854,6.873h0C359.049,578.117,353.692,578.339,350.654,576.584Z" transform="translate(-315.726 -445.188)" fill="#4aa5ff"/>
        <path id="Trazado_183421" data-name="Trazado 183421" d="M374.258,459.767l-7.374-3.508c-.3,19.932-2.745,35.942-.339,60.412l-.122-.039c.052,1.384-.933,2.857-2.9,3.994h0c-3.509,2.026-8.866,2.247-11.9.493a127.515,127.515,0,0,1-15.13-6.384c6.1,4.677,14.143,7.939,22.484,10.981,3.039,1.754,8.4,1.532,11.9-.493h0c1.969-1.137,2.954-2.61,2.9-3.994l.122.039C371.45,496.35,374.033,480.214,374.258,459.767Z" transform="translate(-324.044 -394.318)" fill="#3d82d1"/>
        <path id="Trazado_183422" data-name="Trazado 183422" d="M381.126,789.533l.116,4.657a.965.965,0,0,0,.187.551,8.494,8.494,0,0,0,8.5,3.248,19.006,19.006,0,0,0,7.7-2.818.966.966,0,0,0,.4-.882l-.435-4.742a.971.971,0,0,0-1.453-.759c-2.252,1.328-7.246,3.3-13.557-.127A.976.976,0,0,0,381.126,789.533Z" transform="translate(-347.761 -570.864)" fill="#5a5ac4"/>
        <g id="Grupo_140780" data-name="Grupo 140780" transform="translate(9.437 205.934)">
          <path id="Trazado_183423" data-name="Trazado 183423" d="M340.6,764.454c-2.726,2.38-8.376,2.05-10.5-.966-.034,1.662-.041,3.323,0,4.98.163,6.757,10.681,6.782,10.518,0C340.587,767.132,340.584,765.793,340.6,764.454Z" transform="translate(-330.074 -763.488)" fill="#97caff"/>
        </g>
        <path id="Trazado_183424" data-name="Trazado 183424" d="M324.247,760.113l.116,4.657a.963.963,0,0,0,.187.551,8.495,8.495,0,0,0,8.5,3.248,19.012,19.012,0,0,0,7.7-2.818.966.966,0,0,0,.4-.882l-.434-4.742a.971.971,0,0,0-1.453-.759c-2.251,1.328-7.246,3.3-13.557-.126A.976.976,0,0,0,324.247,760.113Z" transform="translate(-317.54 -555.233)" fill="#5a5ac4"/>
        <path id="Trazado_183425" data-name="Trazado 183425" d="M375.185,411.834c-10.265-1.544-17.2,4.91-19.649-9.875h0a3.281,3.281,0,0,1,4.432.97c1.761,2.545,5.508,4.154,9.648,3.646a3.253,3.253,0,0,1,3.132,1.468Z" transform="translate(-334.165 -365.21)" fill="#fff"/>
        <path id="Trazado_183426" data-name="Trazado 183426" d="M393.039,371.435c.09,2.32-1.185,4.254-2.848,4.318a2.219,2.219,0,0,1-.535-.045c-1.421-.3-2.557-1.974-2.637-4.04-.089-2.32,1.185-4.253,2.848-4.318S392.95,369.115,393.039,371.435Z" transform="translate(-350.89 -347.078)" fill="#ffaa82"/>
        <path id="Trazado_183427" data-name="Trazado 183427" d="M559.424,618.781,580.77,629.64l-5.7-21.844Z" transform="translate(-442.494 -474.832)" fill="#e1eaf4"/>
        <path id="Trazado_183428" data-name="Trazado 183428" d="M591.574,642.651l6.278,3.194-1.97-7.55C596.164,642.01,594.64,643.346,591.574,642.651Z" transform="translate(-459.576 -491.037)" fill="#45446c"/>
        <circle id="Elipse_4827" data-name="Elipse 4827" cx="10.087" cy="10.087" r="10.087" transform="translate(111.391 127.401) rotate(-8.819)" fill="#5b5b84"/>
        <path id="Trazado_183429" data-name="Trazado 183429" d="M492.225,512.386,424.087,438.95,411.65,454.8l57.689,61.771Z" transform="translate(-363.979 -385.122)" fill="#5b5b84"/>
        <path id="Trazado_183430" data-name="Trazado 183430" d="M492.046,541.351a10.07,10.07,0,0,1-1.807-1.725l-.03.032L429.9,474.032l-10.225,3.535,63.7,68.2.03-.032a10.044,10.044,0,0,0,14.315,1.287Z" transform="translate(-368.241 -403.761)" fill="#51517a"/>
        <path id="Trazado_183431" data-name="Trazado 183431" d="M465.865,475.318l-1.122,3.676c-.715,2.342.86,5.148,3.5,6.235h0c2.639,1.088,5.384.061,6.1-2.28l1.122-3.676c.715-2.342-.859-5.148-3.5-6.235h0C469.324,471.95,466.58,472.976,465.865,475.318Z" transform="translate(-392.097 -403.002)" fill="#ffaa82"/>
        <path id="Trazado_183432" data-name="Trazado 183432" d="M409.9,452.115c1.166,15.673,3.147,18.222,9.877,32,6.133,12.555,14.54,8.812,21.749-14.334" transform="translate(-363.047 -392.116)" fill="none" stroke="#ffaa82" stroke-miterlimit="10" stroke-width="5.884"/>
        <path id="Trazado_183433" data-name="Trazado 183433" d="M392.013,443.294c2.5,21.156,9.173,34.613,18.415,41.457,4.86,2.69,9.406-4.979,7.548-9.609-9.2-8.182-12.433-20.943-13.309-35.51a6.668,6.668,0,0,0-7.908-3.7h0A6.234,6.234,0,0,0,392.013,443.294Z" transform="translate(-353.461 -383.396)" fill="#4aa5ff"/>
        <path id="Trazado_183434" data-name="Trazado 183434" d="M426.7,441.418v-.008l-4.078-4.289-2.159,2.8a11.944,11.944,0,0,0-6.384,4.2A11.723,11.723,0,0,0,411.3,451.8l-.949,1.229,2.028,2.49.082-.038a5.665,5.665,0,0,0,1.086,1.18c3.211,2.6,8.66,1.21,12.169-3.117C429.046,449.439,429.425,444.169,426.7,441.418Z" transform="translate(-363.287 -384.149)" fill="#e1eaf4"/>
        <path id="Trazado_183435" data-name="Trazado 183435" d="M418.213,433.412c-.076-.062-.16-.111-.239-.168l.008-.009-4.389-4.176-3.33,4.061a13.047,13.047,0,0,0-6.652,8.113l-2.8,3.409,4.093,3.875a5.589,5.589,0,0,0,.595.563c3.211,2.605,8.659,1.21,12.169-3.116S421.424,436.017,418.213,433.412Z" transform="translate(-358.223 -379.866)" fill="#ef487c"/>
        <ellipse id="Elipse_4828" data-name="Elipse 4828" cx="10.087" cy="7.487" rx="10.087" ry="7.487" transform="matrix(0.63, -0.777, 0.777, 0.63, 37.079, 60.32)" fill="#ef5d8b"/>
        <path id="Trazado_183436" data-name="Trazado 183436" d="M419.388,376.5h0a.957.957,0,0,1-.5.667,6.332,6.332,0,0,1-2.235.965,1.382,1.382,0,0,1-1.127-.117,1.338,1.338,0,0,1-.393-1.128c.025-1.1.518-2.979,1.818-3.192.534-.088.291-3.751.363-3.232A22.377,22.377,0,0,0,419.388,376.5Z" transform="translate(-365.83 -348.706)" fill="#ffaa82"/>
        <path id="Trazado_183437" data-name="Trazado 183437" d="M413.766,371.768c-.086.755.186,1.405.607,1.453s.833-.525.919-1.279-.186-1.4-.608-1.453S413.852,371.014,413.766,371.768Z" transform="translate(-365.095 -348.745)" fill="#492817"/>
        <g id="Grupo_140781" data-name="Grupo 140781" transform="translate(47.107 18.962)">
          <path id="Trazado_183438" data-name="Trazado 183438" d="M411.351,366.608a4.313,4.313,0,0,1,2.98-.776.609.609,0,0,0,.324-1.174,5.46,5.46,0,0,0-3.918.9.609.609,0,0,0,.614,1.051Z" transform="translate(-410.447 -364.557)" fill="#45446c"/>
        </g>
        <g id="Grupo_140782" data-name="Grupo 140782" transform="translate(44.368 30.349)">
          <path id="Trazado_183439" data-name="Trazado 183439" d="M408.787,390.784a3.353,3.353,0,0,1-3.041-1.639.609.609,0,0,0-1.051.614A4.58,4.58,0,0,0,408.787,392c.781-.027.785-1.244,0-1.217Z" transform="translate(-404.604 -388.854)" fill="#45446c"/>
        </g>
        <path id="Trazado_183440" data-name="Trazado 183440" d="M437.483,516.57c-.193,3.34-1.307,10.532-7.274,11.468a3.069,3.069,0,0,1-2.469-.729l-1.38-1.192a3.107,3.107,0,0,1-.108-4.609,29.492,29.492,0,0,0,5.361-6.584,3.127,3.127,0,0,1,4.609-1.02l.022.016A3.094,3.094,0,0,1,437.483,516.57Z" transform="translate(-371.222 -424.617)" fill="#fff"/>
        <path id="Trazado_183441" data-name="Trazado 183441" d="M427.373,794.346c.505-.632,1.334-1.856,1.981-2.585a3.272,3.272,0,0,0-3.418-5.141l-3.808,1.091A14.123,14.123,0,0,1,427.373,794.346Z" transform="translate(-369.546 -569.783)" fill="#fff"/>
        <path id="Trazado_183442" data-name="Trazado 183442" d="M368.263,758.87c.368-.72.934-2.083,1.421-2.926a3.268,3.268,0,0,0-4.372-4.346l-3.508,1.829A14.1,14.1,0,0,1,368.263,758.87Z" transform="translate(-337.495 -551.055)" fill="#fff"/>
      </g>
    </g>
  </g>
</svg>
