<svg xmlns="http://www.w3.org/2000/svg" width="592.703" height="411.575" viewBox="0 0 592.703 411.575">
  <g id="img7" transform="translate(-391.486 -183.067)">
    <g id="Grupo_140934" data-name="Grupo 140934" transform="translate(793.756 334.432)">
      <rect id="Rectángulo_35976" data-name="Rectángulo 35976" width="98.448" height="72.268" rx="29.624" transform="translate(0 0)" fill="#64c8ff" opacity="0.33"/>
      <g id="Grupo_140933" data-name="Grupo 140933" transform="translate(15.753 6.935)">
        <g id="Grupo_140912" data-name="Grupo 140912" transform="translate(1.983 32.55)">
          <rect id="Rectángulo_35977" data-name="Rectángulo 35977" width="4.65" height="25.849" fill="#f5f5f5"/>
        </g>
        <g id="Grupo_140913" data-name="Grupo 140913" transform="translate(10.147 25.658)">
          <rect id="Rectángulo_35978" data-name="Rectángulo 35978" width="4.65" height="32.741" fill="#f5f5f5"/>
        </g>
        <g id="Grupo_140914" data-name="Grupo 140914" transform="translate(18.715 29.264)">
          <rect id="Rectángulo_35979" data-name="Rectángulo 35979" width="4.65" height="29.136" fill="#f5f5f5"/>
        </g>
        <g id="Grupo_140916" data-name="Grupo 140916" transform="translate(27.518 37.634)">
          <g id="Grupo_140915" data-name="Grupo 140915">
            <rect id="Rectángulo_35980" data-name="Rectángulo 35980" width="4.65" height="20.765" fill="#f5f5f5"/>
          </g>
        </g>
        <g id="Grupo_140917" data-name="Grupo 140917" transform="translate(1.983 42.005)">
          <rect id="Rectángulo_35981" data-name="Rectángulo 35981" width="4.65" height="16.394" fill="#008edd"/>
        </g>
        <g id="Grupo_140918" data-name="Grupo 140918" transform="translate(10.147 37.634)">
          <rect id="Rectángulo_35982" data-name="Rectángulo 35982" width="4.65" height="20.765" fill="#008edd"/>
        </g>
        <g id="Grupo_140919" data-name="Grupo 140919" transform="translate(18.715 39.921)">
          <rect id="Rectángulo_35983" data-name="Rectángulo 35983" width="4.65" height="18.479" fill="#008edd"/>
        </g>
        <g id="Grupo_140920" data-name="Grupo 140920" transform="translate(27.518 45.475)">
          <rect id="Rectángulo_35984" data-name="Rectángulo 35984" width="4.65" height="12.924" fill="#008edd"/>
        </g>
        <g id="Grupo_140922" data-name="Grupo 140922" transform="translate(36.479 41.057)">
          <g id="Grupo_140921" data-name="Grupo 140921">
            <rect id="Rectángulo_35985" data-name="Rectángulo 35985" width="4.65" height="17.342" fill="#f5f5f5"/>
          </g>
        </g>
        <g id="Grupo_140923" data-name="Grupo 140923" transform="translate(44.643 28.301)">
          <rect id="Rectángulo_35986" data-name="Rectángulo 35986" width="4.65" height="30.098" fill="#f5f5f5"/>
        </g>
        <g id="Grupo_140924" data-name="Grupo 140924" transform="translate(53.211 33.822)">
          <rect id="Rectángulo_35987" data-name="Rectángulo 35987" width="4.65" height="24.577" fill="#f5f5f5"/>
        </g>
        <g id="Grupo_140925" data-name="Grupo 140925" transform="translate(62.014 20.431)">
          <rect id="Rectángulo_35988" data-name="Rectángulo 35988" width="4.65" height="37.969" fill="#f5f5f5"/>
        </g>
        <g id="Grupo_140926" data-name="Grupo 140926" transform="translate(36.479 49.16)">
          <rect id="Rectángulo_35989" data-name="Rectángulo 35989" width="4.65" height="9.239" fill="#008edd"/>
        </g>
        <g id="Grupo_140927" data-name="Grupo 140927" transform="translate(44.643 44.629)">
          <rect id="Rectángulo_35990" data-name="Rectángulo 35990" width="4.65" height="13.77" fill="#008edd"/>
        </g>
        <g id="Grupo_140928" data-name="Grupo 140928" transform="translate(53.211 46.111)">
          <rect id="Rectángulo_35991" data-name="Rectángulo 35991" width="4.65" height="12.289" fill="#008edd"/>
        </g>
        <g id="Grupo_140929" data-name="Grupo 140929" transform="translate(62.014 30.181)">
          <rect id="Rectángulo_35992" data-name="Rectángulo 35992" width="4.65" height="28.219" fill="#008edd"/>
        </g>
        <g id="Grupo_140932" data-name="Grupo 140932">
          <g id="Grupo_140930" data-name="Grupo 140930" transform="translate(0 10.049)">
            <path id="Trazado_183851" data-name="Trazado 183851" d="M2302.5,961.994l-24.22-15.73-11,9.951-1.6-1.764,12.353-11.178,23.792,15.452,10.664-15.851,8.07,8.5,6.168-13.513,2.164.988-7.631,16.717-8.453-8.9Z" transform="translate(-2265.691 -937.859)" fill="#fd5453"/>
          </g>
          <g id="Grupo_140931" data-name="Grupo 140931" transform="translate(57.596)">
            <path id="Trazado_183852" data-name="Trazado 183852" d="M2530.836,907.282l2.432-14.48-9.347,11.323Z" transform="translate(-2523.921 -892.803)" fill="#fd5453"/>
          </g>
        </g>
      </g>
    </g>
    <g id="Grupo_140937" data-name="Grupo 140937" transform="translate(517.788 325.094)">
      <rect id="Rectángulo_35993" data-name="Rectángulo 35993" width="100.369" height="42.019" rx="18.678" transform="translate(0 0)" fill="#64c8ff" opacity="0.33"/>
      <g id="Grupo_140935" data-name="Grupo 140935" transform="translate(16.91 7.193)">
        <path id="Trazado_183853" data-name="Trazado 183853" d="M1059.11,863.592a8.126,8.126,0,0,1-15.591,3.208l7.466-3.208v-8.124A8.124,8.124,0,0,1,1059.11,863.592Z" transform="translate(-1041.302 -854.716)" fill="#4da4bc"/>
        <path id="Trazado_183854" data-name="Trazado 183854" d="M1047.284,852.095v8.124l-7.8-2.271A8.127,8.127,0,0,1,1047.284,852.095Z" transform="translate(-1038.165 -852.095)" fill="#fd5453"/>
        <path id="Trazado_183855" data-name="Trazado 183855" d="M1041.7,882.97l-7.466,3.209a8.159,8.159,0,0,1-.336-5.479Z" transform="translate(-1033.579 -874.319)" fill="#008edd"/>
      </g>
      <g id="Grupo_140936" data-name="Grupo 140936" transform="translate(41.939 6.751)">
        <path id="Trazado_183856" data-name="Trazado 183856" d="M1161.828,864.452a8.016,8.016,0,1,1-8.017-8.016v8.016l7.841-1.677A8.038,8.038,0,0,1,1161.828,864.452Z" transform="translate(-1145.795 -855.026)" fill="#4da4bc"/>
        <path id="Trazado_183857" data-name="Trazado 183857" d="M1188.8,851.43l-4.4,6.7v-8.016A7.978,7.978,0,0,1,1188.8,851.43Z" transform="translate(-1175.787 -850.113)" fill="#008edd"/>
        <path id="Trazado_183858" data-name="Trazado 183858" d="M1192.238,864.41l-7.841,1.677,4.4-6.7A8.021,8.021,0,0,1,1192.238,864.41Z" transform="translate(-1175.787 -857.32)" fill="#fd5453"/>
      </g>
      <path id="Trazado_183859" data-name="Trazado 183859" d="M1259.942,864.451l6.089,5.212a8.016,8.016,0,1,1-6.09-13.229h0a8.021,8.021,0,0,1,7.1,4.3Z" transform="translate(-1186.315 -848.273)" fill="#4da4bc"/>
      <path id="Trazado_183860" data-name="Trazado 183860" d="M1302.087,894.064a7.983,7.983,0,0,1-1.927,5.212l-6.089-5.212Z" transform="translate(-1219.061 -877.51)" fill="#008edd"/>
      <path id="Trazado_183861" data-name="Trazado 183861" d="M1305.4,878.8h-8.016l7.1-3.718a8,8,0,0,1,.736,2.04h0A7.978,7.978,0,0,1,1305.4,878.8Z" transform="translate(-1221.631 -862.766)" fill="#fd5453"/>
      <rect id="Rectángulo_35994" data-name="Rectángulo 35994" width="66.227" height="1.628" transform="translate(16.605 30.472)" fill="#f5f5f5"/>
      <rect id="Rectángulo_35995" data-name="Rectángulo 35995" width="19.042" height="1.628" transform="translate(40.644 27.305)" fill="#f5f5f5"/>
      <rect id="Rectángulo_35996" data-name="Rectángulo 35996" width="66.227" height="1.628" transform="translate(16.605 33.639)" fill="#f5f5f5"/>
    </g>
    <path id="Trazado_183862" data-name="Trazado 183862" d="M2245.841,618.037a20.819,20.819,0,0,0,.13-2.315c0-.413-.014-.823-.038-1.229l-3.825-1.238a16.831,16.831,0,0,0-1.354-4.583l2.536-3.121a20.632,20.632,0,0,0-2.009-2.92l-3.825,1.248a17.006,17.006,0,0,0-3.787-2.911l.218-4.019a20.482,20.482,0,0,0-3.339-1.183l-2.362,3.26a17,17,0,0,0-4.775-.125l-2.187-3.38a20.454,20.454,0,0,0-3.4,1l.005,4.025a16.958,16.958,0,0,0-3.936,2.707l-3.753-1.448a20.7,20.7,0,0,0-2.161,2.81l2.368,3.251a16.82,16.82,0,0,0-1.6,4.5l-3.885,1.034a20.884,20.884,0,0,0-.13,2.315c0,.413.013.823.037,1.23l3.825,1.237a16.823,16.823,0,0,0,1.354,4.583l-2.536,3.121a20.669,20.669,0,0,0,2.009,2.92l3.825-1.248a17,17,0,0,0,3.787,2.911l-.218,4.019a20.48,20.48,0,0,0,3.339,1.183l2.362-3.26a17.014,17.014,0,0,0,4.775.125l2.187,3.38a20.479,20.479,0,0,0,3.4-1l0-4.025a16.97,16.97,0,0,0,3.936-2.707l3.752,1.448a20.7,20.7,0,0,0,2.162-2.81l-2.368-3.251a16.823,16.823,0,0,0,1.6-4.5Zm-20.487,5.772a8.086,8.086,0,1,1,8.086-8.086,8.086,8.086,0,0,1-8.086,8.086Z" transform="translate(-1408.824 -320.459)" fill="#4da4bc" opacity="0.42"/>
    <path id="Trazado_183863" data-name="Trazado 183863" d="M957.774,299.557a43.439,43.439,0,0,0,.272-4.83c0-.862-.028-1.717-.078-2.567l-7.982-2.583a35.079,35.079,0,0,0-2.826-9.564l5.293-6.513a43.127,43.127,0,0,0-4.193-6.094l-7.983,2.6a35.471,35.471,0,0,0-7.9-6.075l.454-8.387a42.683,42.683,0,0,0-6.969-2.47l-4.929,6.8a35.509,35.509,0,0,0-9.966-.261l-4.564-7.054a42.716,42.716,0,0,0-7.09,2.1l.01,8.4a35.408,35.408,0,0,0-8.213,5.65l-7.832-3.022a43.172,43.172,0,0,0-4.51,5.864l4.942,6.785a35.082,35.082,0,0,0-3.332,9.4l-8.107,2.157a43.459,43.459,0,0,0-.271,4.831c0,.862.028,1.717.078,2.566l7.982,2.583a35.084,35.084,0,0,0,2.826,9.564l-5.293,6.513a43.146,43.146,0,0,0,4.193,6.095l7.983-2.6a35.475,35.475,0,0,0,7.9,6.074l-.454,8.387a42.7,42.7,0,0,0,6.969,2.47l4.93-6.8a35.491,35.491,0,0,0,9.965.261l4.564,7.055a42.7,42.7,0,0,0,7.09-2.1l-.01-8.4a35.406,35.406,0,0,0,8.213-5.65l7.832,3.022a43.215,43.215,0,0,0,4.51-5.864l-4.942-6.785a35.092,35.092,0,0,0,3.332-9.4ZM915.021,311.6A16.875,16.875,0,1,1,931.9,294.727,16.875,16.875,0,0,1,915.021,311.6" transform="translate(-373.338 -53.998)" fill="#4da4bc" opacity="0.42"/>
    <g id="Grupo_140941" data-name="Grupo 140941" transform="translate(640.322 183.067)">
      <g id="Grupo_140939" data-name="Grupo 140939" transform="translate(0)">
        <g id="Grupo_140938" data-name="Grupo 140938">
          <path id="Trazado_183864" data-name="Trazado 183864" d="M1646.754,252.085a69.809,69.809,0,1,0-118.671,50.638,79.229,79.229,0,0,1,20.909,34.982l5.864,20.753,45.758-.519,5.108-19.776a79.411,79.411,0,0,1,20.73-36.069A69.591,69.591,0,0,0,1646.754,252.085Z" transform="translate(-1507.141 -183.067)" fill="#ffda00"/>
          <path id="Trazado_183865" data-name="Trazado 183865" d="M1746.4,958.807l-22.31.253c-6.321.072-11.781-4.535-12.209-10.453l-2.142-22.839,50.523-.9-1.894,23.209C1758.075,954.006,1752.72,958.735,1746.4,958.807Z" transform="translate(-1664.552 -759.419)" fill="#4da4bc"/>
        </g>
        <path id="Trazado_183866" data-name="Trazado 183866" d="M1765.659,969.792c-14.107.763-28.28.2-42.386.984a.964.964,0,0,0,.092,1.925c14.13.309,28.281-.727,42.413-.438C1767.363,972.3,1767.263,969.7,1765.659,969.792Z" transform="translate(-1674.378 -794.319)" fill="#4da4bc" style="mix-blend-mode: multiply;isolation: isolate"/>
        <path id="Trazado_183867" data-name="Trazado 183867" d="M1765.971,997.278c-14.108.764-28.281.2-42.386.985a.964.964,0,0,0,.092,1.925c14.13.309,28.281-.727,42.412-.438C1767.675,999.783,1767.575,997.192,1765.971,997.278Z" transform="translate(-1674.621 -815.675)" fill="#4da4bc" style="mix-blend-mode: multiply;isolation: isolate"/>
      </g>
      <g id="Grupo_140940" data-name="Grupo 140940" transform="translate(36.593 70.032)">
        <path id="Trazado_183868" data-name="Trazado 183868" d="M1753.944,532.032a17.965,17.965,0,0,1-5.328-6.146c2.5-3.154,3.564-7.37,3.983-11.282a70.451,70.451,0,0,0,.32-7.19c.011-2.317-.316-4.281-2.294-5.7-1.764-1.266-4.085-.079-5.414,1.184-1.532,1.457-2.255,3.822-2.831,5.792a25.845,25.845,0,0,0-.289,12.258,24.325,24.325,0,0,0,1.214,4.12,10.743,10.743,0,0,1-3.333,1.824c-3.8,1.264-6.72-.9-8.522-4.132-.3-.531-.578-1.094-.844-1.68.291-.807.568-1.614.826-2.411a50.137,50.137,0,0,0,2.2-11.992c.231-3.365.281-7.383-2.976-9.338a2.128,2.128,0,0,0-2.853.783c-4.651,6.61-4.288,15.3-1.636,22.711a49.448,49.448,0,0,1-2.808,5.78c-1.162,2.054-3.388,5.227-6.137,4.859-2.559-.343-4.638-3.526-5.93-5.5a22.673,22.673,0,0,1-2.29-4.594q.473-1.286.875-2.6a47.487,47.487,0,0,0,1.864-10.623c.2-3,.252-7.2-3.039-8.6a2.123,2.123,0,0,0-2.856.784,29.988,29.988,0,0,0-1.384,20.216c.064.229.139.456.209.684a44.374,44.374,0,0,1-8.517,13.815c-1.626,1.806,1.01,4.412,2.7,2.643a46.6,46.6,0,0,0,7.986-11.336,29.5,29.5,0,0,0,2.158,3.381c2.172,2.937,4.884,5.68,8.734,5.844,3.6.154,6.481-2.9,8.4-5.55a28.486,28.486,0,0,0,2.432-4.093c1.792,2.785,4.356,4.98,7.82,5.425a12.774,12.774,0,0,0,8.847-2.389,26.485,26.485,0,0,0,5.881,6.8A2.355,2.355,0,1,0,1753.944,532.032Zm-24.373-28.84a26.24,26.24,0,0,1-.279,4.754,39.961,39.961,0,0,1-.859,5.509A19.183,19.183,0,0,1,1729.571,503.191ZM1746,513.526a19.881,19.881,0,0,1,1.111-5.1,10.479,10.479,0,0,1,.993-2.115,4.5,4.5,0,0,1,.325-.411,3.308,3.308,0,0,1,.086.505,36.138,36.138,0,0,1-1.3,12.861,12.685,12.685,0,0,1-.566,1.465A23.881,23.881,0,0,1,1746,513.526Z" transform="translate(-1690.198 -497.056)" fill="#fff"/>
        <path id="Trazado_183869" data-name="Trazado 183869" d="M1894.128,603.347c-7.166,22.738-14.723,45.367-22.864,67.776-.975,2.683,3.159,4.273,4.128,1.592,8.111-22.442,15.624-45.08,22.333-67.981C1898.417,602.371,1894.879,600.965,1894.128,603.347Z" transform="translate(-1826.529 -578.683)" fill="#fff"/>
        <path id="Trazado_183870" data-name="Trazado 183870" d="M1671.281,596.93c6.184,23.024,11.981,46.167,17.167,69.438.621,2.786,4.961,1.9,4.336-.878-5.229-23.283-11.067-46.409-17.725-69.325C1674.372,593.8,1670.633,594.519,1671.281,596.93Z" transform="translate(-1671.206 -572.933)" fill="#fff"/>
      </g>
    </g>
    <g id="Grupo_140942" data-name="Grupo 140942" transform="translate(757.537 422.575)">
      <path id="Trazado_183871" data-name="Trazado 183871" d="M2056.786,1955.313l-6.761,6.518-4.407-4.571,1.619-1.561-3,.132-11.567-12s3.245-3.5,8.43,1.979c0,0,5.5,3.515,9.767.506Z" transform="translate(-2032.674 -1789.764)" fill="#05336f"/>
      <path id="Trazado_183872" data-name="Trazado 183872" d="M2184.626,1698.318l-31.152,6.548-47.135,51.412,7.682,10.866,50.763-46.206,27.58-9.127Z" transform="translate(-2089.909 -1599.864)" fill="#06497e"/>
      <path id="Trazado_183873" data-name="Trazado 183873" d="M2325.623,1736.587l-21.635,7.16-16.089,14.645-2.4-22.891,7.174-7.825Z" transform="translate(-2229.113 -1622.673)" fill="#06497e" opacity="0.3" style="mix-blend-mode: multiply;isolation: isolate"/>
      <path id="Trazado_183874" data-name="Trazado 183874" d="M2675.6,1461.98s21.661,28.7,15.84,34.392-19.709-7.283-19.709-7.283Z" transform="translate(-2529.196 -1416.238)" fill="#05336f"/>
      <path id="Trazado_183875" data-name="Trazado 183875" d="M2676.6,1470.508a20.146,20.146,0,0,1,4.455,10.334c.794,6.349,0,21.582,0,21.582l-9.325-5.224Z" transform="translate(-2529.196 -1422.864)" fill="#06497e" opacity="0.4" style="mix-blend-mode: multiply;isolation: isolate"/>
      <path id="Trazado_183876" data-name="Trazado 183876" d="M2230.26,1567.247s-11.112-5.644-12.787-5.291-10.935,8.2-11.111,8.995,8.73-3.616,8.73-3.616-.176,3.278.265,3.711,15.256.522,15.256.522Z" transform="translate(-2167.621 -1493.903)" fill="#ae7957"/>
      <path id="Trazado_183877" data-name="Trazado 183877" d="M2564.387,1345.052l1.058,17.858,14.948-12.831-9.127-15.609Z" transform="translate(-2445.793 -1317.168)" fill="#9e6749"/>
      <path id="Trazado_183878" data-name="Trazado 183878" d="M2515.719,1301.4a85.293,85.293,0,0,0,1.808,14.9,13.3,13.3,0,0,0,3.483,6.129s11.376-2.249,12.964-7.143-1.455-16.4-1.455-16.4S2516.91,1299.547,2515.719,1301.4Z" transform="translate(-2407.973 -1289.521)" fill="#ae7957"/>
      <path id="Trazado_183879" data-name="Trazado 183879" d="M2517.541,1267.189s-12.787,4.85-14.374,0,9.524-15.609,20.988-7.143c0,0,15,3.456,3.841,21.7,0,0-3.317-3.24-3.54-5.31s-.675-4.971-.675-4.971l-.243,2.072S2516.482,1272.127,2517.541,1267.189Z" transform="translate(-2398.11 -1256.898)" fill="#022647"/>
      <path id="Trazado_183880" data-name="Trazado 183880" d="M2586.99,1317.139s1.411-7.549,4.057-5.626,1.675,7.6-2.028,8.713S2586.99,1317.139,2586.99,1317.139Z" transform="translate(-2463.062 -1299.088)" fill="#ae7957"/>
      <path id="Trazado_183881" data-name="Trazado 183881" d="M2287.51,1978.748v9.392h-6.349v-2.249l-1.984,2.249H2262.51s-.264-4.762,7.275-4.7c0,0,6.35-1.521,7.143-6.68Z" transform="translate(-2211.246 -1816.205)" fill="#05336f"/>
      <path id="Trazado_183882" data-name="Trazado 183882" d="M2306.965,1736.955l-13.274-1.342s-3.789-37.812-6.9-52.429-.2-16.6,4.564-18.982,40.212-.926,40.212-.926l30.821,23.942s-23.413,4.762-61.377-7.143C2301.012,1680.076,2309.214,1726.505,2306.965,1736.955Z" transform="translate(-2229.113 -1572.296)" fill="#06497e"/>
      <path id="Trazado_183883" data-name="Trazado 183883" d="M2558.58,1421.6l-16.532,25.673,6.041-16.667Z" transform="translate(-2428.437 -1384.867)" fill="#05336f"/>
      <path id="Trazado_183884" data-name="Trazado 183884" d="M2504.361,1404.452s14.374,10.626,14.462,21.3-8.554,31.218-9.7,35.715-4.145,25.838-4.145,25.838-18.431-.792-38.449-25.22c0,0,11.729-6.262,14.286-16.668s2.558-11.464,2.558-11.464l16.138-25.673Z" transform="translate(-2369.762 -1371.541)" fill="#05336f"/>
      <path id="Trazado_183885" data-name="Trazado 183885" d="M2581.979,1393.023l-3.439-2.77-14.153,10.442v7.584Z" transform="translate(-2445.793 -1360.509)" fill="#f5f5f5"/>
      <path id="Trazado_183886" data-name="Trazado 183886" d="M2670.458,1554.823h0a3.175,3.175,0,0,0-3.175,3.175v47.812a3.175,3.175,0,0,0,3.175,3.175h0a3.175,3.175,0,0,0,3.175-3.175V1558A3.175,3.175,0,0,0,2670.458,1554.823Z" transform="translate(-2525.74 -1488.374)" fill="#1a6dc0"/>
      <rect id="Rectángulo_35997" data-name="Rectángulo 35997" width="6.349" height="54.162" rx="3.175" transform="translate(147.893 114.262) rotate(90)" fill="#1a6dc0"/>
      <path id="Trazado_183887" data-name="Trazado 183887" d="M2635.309,1786.405l3.079-.726,14.535,53.917-3.253.078Z" transform="translate(-2500.897 -1667.74)" fill="#1a6dc0"/>
      <path id="Trazado_183888" data-name="Trazado 183888" d="M2444.659,1786.405l-3.078-.726-14.535,53.917,3.253.078Z" transform="translate(-2339.085 -1667.74)" fill="#1a6dc0"/>
      <path id="Trazado_183889" data-name="Trazado 183889" d="M2534.288,1524.436a34.215,34.215,0,0,1-26.51,23.429s4.16-6.23,5.086-9.229S2534.288,1524.436,2534.288,1524.436Z" transform="translate(-2401.81 -1464.764)" fill="#06497e" opacity="0.4" style="mix-blend-mode: multiply;isolation: isolate"/>
      <path id="Trazado_183890" data-name="Trazado 183890" d="M2378.164,1476.543s4.233,13.889-29.63,26.456l-42.726-1.058v-8.2l34.657-3.968s23.81-21.076,28.969-19.136A24.961,24.961,0,0,1,2378.164,1476.543Z" transform="translate(-2244.888 -1422.864)" fill="#05336f"/>
    </g>
    <g id="Grupo_140943" data-name="Grupo 140943" transform="translate(614.98 414.114)">
      <path id="Trazado_183891" data-name="Trazado 183891" d="M1459.95,1315.747s-22.132,14.556-22.726,20.052,15.745,38.438,16.042,39.048,13.5-49.318,12.169-54.283S1459.95,1315.747,1459.95,1315.747Z" transform="translate(-1427.465 -1294.16)" fill="#022647"/>
      <path id="Trazado_183892" data-name="Trazado 183892" d="M1596.039,1384.093c4.166.934,9.425,12.51,12,19.925,2.6,7.48,7,16.759,9.884,19.642s21.828,9.567,21.828,9.567-46.81.09-45.851,0,2.138-49.133,2.138-49.133" transform="translate(-1549.198 -1347.263)" fill="#06497e"/>
      <path id="Trazado_183893" data-name="Trazado 183893" d="M1627.416,1429.509c-2.563-.366-11.807.824-7.871-.824s3.387-3.753,3.387-3.753-5.583,4.668-6.59.586c-.868-3.519-1.2-15.946-4.5-28.4-2.722-6.175-6.284-12.354-9.281-13.025,0,0-.105,4.385-.279,10.534,1.149,13.607,3.1,33.6,3.6,38.637,6.2.009,16.588,0,25.275-.011l5.777-.275s-6.956-3.1-9.519-3.468" transform="translate(-1555.724 -1347.263)" fill="#06497e" opacity="0.4" style="mix-blend-mode: multiply;isolation: isolate"/>
      <path id="Trazado_183894" data-name="Trazado 183894" d="M1476.159,1372.591s-13.251,7.4-16.34,8.979,8.654,47.792,11.266,49.773,25.6.341,28.221-2.154-2.009-10.154.257-25.489-6.909-28.573-8.088-28.544-8.871-2.565-8.871-2.565Z" transform="translate(-1444.633 -1338.326)" fill="#dae4ed"/>
      <path id="Trazado_183895" data-name="Trazado 183895" d="M1483.4,1427.525s1.477-19.311-1.3-25.118-11.842-24.242-10.317-29.816c0,0-17.806,8.27-18.1,9.654s11.09,46.99,11.09,46.99Z" transform="translate(-1440.263 -1338.326)" fill="#06497e"/>
      <rect id="Rectángulo_35998" data-name="Rectángulo 35998" width="6.349" height="54.162" rx="3.175" transform="translate(75.798 118.195) rotate(90)" fill="#1a6dc0"/>
      <path id="Trazado_183896" data-name="Trazado 183896" d="M1489.619,1766.108l-3.078-.726-14.535,53.917,3.253.078Z" transform="translate(-1454.502 -1643.509)" fill="#1a6dc0"/>
      <path id="Trazado_183897" data-name="Trazado 183897" d="M1680.269,1766.108l3.078-.726,14.534,53.917-3.253.078Z" transform="translate(-1616.313 -1643.509)" fill="#1a6dc0"/>
      <path id="Trazado_183898" data-name="Trazado 183898" d="M1547.667,1227.313c3.66,7.319.631,15.748-6.568,18.726-7.246,3-15.17,1.295-18.83-6.024s-.942-16.1,6.072-19.6,15.667-.417,19.327,6.9" transform="translate(-1492.288 -1218.964)" fill="#022647"/>
      <path id="Trazado_183899" data-name="Trazado 183899" d="M1471.229,1464.973c2.612,1.981,19.064,2.025,26.068-.154.791-.246,4.379-1.676,4.463-3.02-.845-.159-4.2.244-5.563-.069-4.737-1.088-7.345-6.956-7.345-6.956s-2.608-.938-8.443-3.409-3.432-9.954-3.57-13.249-5.766-14.072-16.338-22.241l-.97.434c-.754,7.511,9.281,46.832,11.7,48.664" transform="translate(-1444.777 -1371.956)" fill="#06497e" opacity="0.4" style="mix-blend-mode: multiply;isolation: isolate"/>
      <path id="Trazado_183900" data-name="Trazado 183900" d="M1563.237,1584.431c8.329,1.556,10.377,3.468,14.917,4.2,5.147.83,4.535,1.967.712,1.967s-13.429.149-16.726-.584,1.1-5.583,1.1-5.583" transform="translate(-1523.579 -1502.917)" fill="#f09959"/>
      <path id="Trazado_183901" data-name="Trazado 183901" d="M1407.668,1413.939c-6.384,20.41-15.433,43.57-13.992,43.57s38.1,1.482,39.537.247,1.03-5.97.824-6.588-20.839-4.279-20.839-4.279,2.717-5.295,3.747-15.643S1408.878,1410.068,1407.668,1413.939Z" transform="translate(-1393.523 -1369.828)" fill="#06497e"/>
      <path id="Trazado_183902" data-name="Trazado 183902" d="M1538.716,1293.075l-4.508,16.475-.634,2.316s7.1,8.266,9.494,7.061.249-5.727.249-7.061,3.724-15.1,3.724-15.1Z" transform="translate(-1502.337 -1276.545)" fill="#fab686"/>
      <path id="Trazado_183903" data-name="Trazado 183903" d="M1555.48,1312.824a5,5,0,0,1-.179-.958c0-1.334,3.724-15.1,3.724-15.1l-8.325-3.689-1.7,6.218a32.414,32.414,0,0,0,6.481,13.531" transform="translate(-1514.322 -1276.546)" fill="#e8a070"/>
      <path id="Trazado_183904" data-name="Trazado 183904" d="M1578.435,1262.5c.98,5.449-1.214,14.866-6.053,16.706s-9.118-3.861-11.469-10.043-.334-12.686,4.5-14.526,11.848,1.353,13.018,7.863" transform="translate(-1522.815 -1246.278)" fill="#fab686"/>
      <path id="Trazado_183905" data-name="Trazado 183905" d="M1550.771,1296.159c.678,1.9.089,3.854-1.316,4.354s-3.094-.639-3.771-2.543-.089-3.854,1.315-4.354,3.094.639,3.772,2.543" transform="translate(-1511.527 -1276.874)" fill="#fab686"/>
      <path id="Trazado_183906" data-name="Trazado 183906" d="M1566,1245.979c-1.647,12.787-17.182,11.139-17.182,11.139s-3.2-4.212-4.646-2,2-12.963,10.914-13.441c2.929-.157,10.914,4.305,10.914,4.305" transform="translate(-1510.328 -1236.606)" fill="#022647"/>
      <path id="Trazado_183907" data-name="Trazado 183907" d="M1734.794,1624.624c9.976-1.513,13.366-1.036,19.472,10.326s14.232,31.82,18.906,34.463c7.038,3.979,9.37,13.735,12.259,13.3s4.75.839,1.605,3.452-8.222,4.839-9.959,4.375-3.083-7.966-7.618-10.4-3.172-4.437-2.875-6.592-13.238-12.075-23.442-24.414c-6.235-7.539-9.445-12.515-9.921-17.025a11.831,11.831,0,0,1,1.573-7.478" transform="translate(-1657.399 -1533.662)" fill="#fab686"/>
      <path id="Trazado_183908" data-name="Trazado 183908" d="M1759.525,1665.826c-2.317-5.878-4.641-15.579-6.825-24.473-3.107-12.649-6.363-15.651-8.426-17-2.494-.625-5.449-.339-9.48.273a11.83,11.83,0,0,0-1.573,7.478c.476,4.51,3.687,9.486,9.922,17.026a179.031,179.031,0,0,0,16.383,16.7" transform="translate(-1657.399 -1533.663)" fill="#e8a070"/>
      <path id="Trazado_183909" data-name="Trazado 183909" d="M1720.466,1634.625s-2.654,20.027-5.126,22.062c-1.768,1.456-3.021,1.553-4.256-4.42s1.922-28.267,1.922-28.267Z" transform="translate(-1640.033 -1533.661)" fill="#032851"/>
      <path id="Trazado_183910" data-name="Trazado 183910" d="M1659.09,1657.84l-24.565,4.128,13.869-19.886,10.555-2.149,6.329,1.455Z" transform="translate(-1580.772 -1546.039)" fill="#fab686"/>
      <path id="Trazado_183911" data-name="Trazado 183911" d="M1881.3,1846.115c-.8,3.209-.7,5.582.684,6.771s6.612,10.023,6.612,10.023l1.629-.247-3.771-8.083Z" transform="translate(-1772.12 -1706.235)" fill="#05336f"/>
      <path id="Trazado_183912" data-name="Trazado 183912" d="M1892.072,1862.587c1.736.464,6.814-1.761,9.959-4.375s1.284-3.89-1.605-3.452a1.246,1.246,0,0,1-.484-.024c-1.443,3.224-6.19,5.642-7.722,2.236-1.518-3.375-8.022-10.092-10.642-11.53a.608.608,0,0,1,0,.15c-.3,2.155-1.66,4.156,2.875,6.592s5.882,9.938,7.618,10.4" transform="translate(-1772.394 -1705.713)" fill="#05336f"/>
      <path id="Trazado_183913" data-name="Trazado 183913" d="M1501.1,1627.412c-8.716,15.641-2.762,25.582,7.831,26.594s27.316-.921,37.063-9.021,17.749-16.665,16.632-17.943-61.526.37-61.526.37" transform="translate(-1473.847 -1535.647)" fill="#e8a070"/>
      <path id="Trazado_183914" data-name="Trazado 183914" d="M1730.577,1649.484c1.785-5.354,3.842-9.462,7.826-9.537,4.188-.078,6.764,2.1,6.943,8.953.213,8.159.5,35.18.124,47.194-.285,9.095,2.365,12.007,2.141,21.488-.169,7.14,7.444,3.533,4.5,7.237-2.022,2.547-8.042,1.714-11.74,1.244-3.295-.419,1.705-10.292-2.855-12.932-3.912-2.265-3.989-5.943-1.518-8.727s.275-11.021-1.373-16.787-4.2-12-5.881-25.638c-.478-3.887.739-9.223,1.828-12.494" transform="translate(-1653.897 -1546.049)" fill="#fab686"/>
      <path id="Trazado_183915" data-name="Trazado 183915" d="M1769.326,1945.787a17.266,17.266,0,0,1-4.171.854c-2.746.091-3.57-2.929-3.753-7.032-.16-3.583-2.762-9.224-5.43-11.512-.049.065-.1.128-.153.189-2.471,2.784-2.394,6.462,1.518,8.727,4.56,2.64-.44,12.513,2.854,12.932,3.7.47,9.717,1.3,11.739-1.243,1.911-2.406-.461-2.6-2.605-2.915" transform="translate(-1673.713 -1769.932)" fill="#05336f"/>
      <path id="Trazado_183916" data-name="Trazado 183916" d="M1751.659,1924.369s-4,4.182-3.638,5.921a66.556,66.556,0,0,1,1.807,9.519c.206,3.386.389,7.274.389,7.274s1.441,0,1.556-.409.916-13.765.916-13.765Z" transform="translate(-1668.936 -1767.036)" fill="#05336f"/>
      <path id="Trazado_183917" data-name="Trazado 183917" d="M1494.117,1617.312s-7.188,21.939-.657,28.02,33.653.611,40.041.247c4.324-.247,8.512,5.031,8.512,5.031s-3.021-12.24-.961-22.125,5.383-10.55,5.383-10.55l-21.9-2.543Z" transform="translate(-1469.04 -1526.973)" fill="#05336f"/>
      <path id="Trazado_183918" data-name="Trazado 183918" d="M1577.254,1377.323s11.161,15.33,9.874,26.717,1.684,26.382,1.684,26.382l3.472.059s-1.869-14.863-.508-20.2.4-21.8-8.66-31.445Z" transform="translate(-1536.275 -1342.003)" fill="#06497e"/>
      <path id="Trazado_183919" data-name="Trazado 183919" d="M1527.653,1356.047a18.034,18.034,0,0,0,8.361,8.237l-3.186,2.9s-13.288-9-3.875-15.886Z" transform="translate(-1496.127 -1321.782)" fill="#f5f5f5"/>
      <path id="Trazado_183920" data-name="Trazado 183920" d="M1573.448,1365.909s1.8,6.757-1.093,7.181l2.758,2.108s3.358-3.456-1-12.566Z" transform="translate(-1532.468 -1330.589)" fill="#f5f5f5"/>
      <path id="Trazado_183921" data-name="Trazado 183921" d="M1621.811,1608.539H1573.2a1.724,1.724,0,0,0-1.724,1.724h0a1.724,1.724,0,0,0,1.724,1.724h48.611a1.724,1.724,0,0,0,1.724-1.724h0A1.725,1.725,0,0,0,1621.811,1608.539Z" transform="translate(-1531.785 -1521.648)" fill="#4da4bc"/>
      <rect id="Rectángulo_35999" data-name="Rectángulo 35999" width="50.161" height="26.24" transform="translate(40.731 60.651)" fill="#4da4bc"/>
      <rect id="Rectángulo_36000" data-name="Rectángulo 36000" width="0.33" height="0.33" transform="translate(73.926 80.621)" fill="#f09959"/>
    </g>
    <g id="Grupo_140945" data-name="Grupo 140945" transform="translate(532.105 500.271)">
      <g id="Grupo_140944" data-name="Grupo 140944" transform="translate(30.518 0.755)">
        <path id="Trazado_183922" data-name="Trazado 183922" d="M1191.625,1609.08l-2.637-.447-30.213,93.616,3-.678Z" transform="translate(-1158.775 -1608.633)" fill="#1a6dc0"/>
        <path id="Trazado_183923" data-name="Trazado 183923" d="M2128.186,1609.08l2.637-.447,30.213,93.616-3-.678Z" transform="translate(-1911.969 -1608.633)" fill="#1a6dc0"/>
      </g>
      <rect id="Rectángulo_36001" data-name="Rectángulo 36001" width="310.103" height="4.724" transform="translate(0 0)" fill="#1a6dc0"/>
    </g>
    <g id="Grupo_140965" data-name="Grupo 140965" transform="translate(499.486 394.157)">
      <path id="Trazado_183924" data-name="Trazado 183924" d="M1269.7,1979.341v9.392h6.349v-2.249l1.984,2.249H1294.7s.265-4.762-7.275-4.7c0,0-6.349-1.521-7.143-6.68Z" transform="translate(-1181.822 -1788.247)" fill="#05336f"/>
      <path id="Trazado_183925" data-name="Trazado 183925" d="M1092.555,1974.128v9.392h6.349v-2.249l1.984,2.249h16.667s.265-4.762-7.275-4.7c0,0-6.349-1.521-7.143-6.68Z" transform="translate(-1044.188 -1784.197)" fill="#05336f"/>
      <path id="Trazado_183926" data-name="Trazado 183926" d="M1322.724,1412.974s5.388-11.238,6.933-11.977,8.788-4.135,14.291.383c.628.516-7,4.934-7.082,5.546s-11.793,9.692-11.793,9.692Z" transform="translate(-1223.02 -1338.948)" fill="#fab685"/>
      <path id="Trazado_183927" data-name="Trazado 183927" d="M991.255,1628.4l45.409,13.9c1.082.334,4.279.833,5.556,2.579,3.394,4.645,3.194,11.15,3.01,16.9l-1.521,47.617h-15.775l-1.536-27.94c-.351-3.641,1.8-19.114-1.837-19.51-16.2-1.763-61.791,4.973-62.283,2.015-.61-3.661,0-21.969,0-21.969Z" transform="translate(-942.756 -1517.118)" fill="#05336f"/>
      <path id="Trazado_183928" data-name="Trazado 183928" d="M1098.212,1755.583l11.213-64.3-19.223-3.433-3.661,66.746Z" transform="translate(-1039.515 -1563.309)" fill="#05336f"/>
      <g id="Grupo_140946" data-name="Grupo 140946" transform="translate(3.916 45.886)">
        <path id="Trazado_183929" data-name="Trazado 183929" d="M907.742,1347.152s-1.95,27.349,3.394,30.622c3.347,2.05,16.694,8.966,16.3,10.263s-7.536,11.539-7.536,11.539-25.638-16.883-26.464-22.2c-.807-5.2,1.262-40.044,4.786-41.649,2.64-1.2,4.033-.208,7.359,2.261C910.246,1341.451,907.742,1347.152,907.742,1347.152Z" transform="translate(-893.26 -1335.214)" fill="#033c63"/>
      </g>
      <g id="Grupo_140949" data-name="Grupo 140949" transform="translate(22.479 1.504)">
        <g id="Grupo_140948" data-name="Grupo 140948">
          <g id="Grupo_140947" data-name="Grupo 140947">
            <path id="Trazado_183930" data-name="Trazado 183930" d="M981.276,1139.007s9.817-6.557,16.712.467,10.282,23.542,5.331,26.838-13.35,4.162-17.336-.311-8.241-11.294-9.288-16.276S978.787,1141.1,981.276,1139.007Z" transform="translate(-976.488 -1136.226)" fill="#fab685"/>
          </g>
        </g>
      </g>
      <g id="Grupo_140952" data-name="Grupo 140952" transform="translate(28.538 25.711)">
        <g id="Grupo_140951" data-name="Grupo 140951">
          <g id="Grupo_140950" data-name="Grupo 140950">
            <path id="Trazado_183931" data-name="Trazado 183931" d="M1021.088,1251.752s-.128,6.9.632,8.37-14.328,1.509-14.328,1.509a99.421,99.421,0,0,0-3.547-14.76C1001.523,1240.111,1021.088,1251.752,1021.088,1251.752Z" transform="translate(-1003.653 -1244.76)" fill="#fab685"/>
          </g>
        </g>
      </g>
      <g id="Grupo_140955" data-name="Grupo 140955" transform="translate(21.158)">
        <g id="Grupo_140954" data-name="Grupo 140954">
          <g id="Grupo_140953" data-name="Grupo 140953">
            <path id="Trazado_183932" data-name="Trazado 183932" d="M978.191,1157.468s1.73,1.161,5.714-.463,7.735-8.318,9.32-9.33,1.362-2.03,1.362-2.03l1.454,1.325,1.862-.316s-2.834-4.53-.783-7.133-6.376-15.321-18.553-7.556c0,0-9.53,5.211-7.793,10.92S975.23,1155.119,978.191,1157.468Z" transform="translate(-970.565 -1129.485)" fill="#05336f"/>
          </g>
        </g>
      </g>
      <g id="Grupo_140958" data-name="Grupo 140958" transform="translate(40.565 12.525)">
        <g id="Grupo_140957" data-name="Grupo 140957">
          <g id="Grupo_140956" data-name="Grupo 140956">
            <path id="Trazado_183933" data-name="Trazado 183933" d="M1061.422,1187.234c-.461-.917-3.588-3.113-3.834.085s3.074,6.639,4.319,5.984S1062.591,1189.56,1061.422,1187.234Z" transform="translate(-1057.575 -1185.642)" fill="#fab685"/>
          </g>
        </g>
      </g>
      <g id="Grupo_140961" data-name="Grupo 140961" transform="translate(19.249 5.974)">
        <g id="Grupo_140960" data-name="Grupo 140960">
          <g id="Grupo_140959" data-name="Grupo 140959">
            <path id="Trazado_183934" data-name="Trazado 183934" d="M967.186,1156.268s-14.042,3.765,4.108,21.194Z" transform="translate(-962.005 -1156.268)" fill="#05336f"/>
          </g>
        </g>
      </g>
      <g id="Grupo_140964" data-name="Grupo 140964" transform="translate(9.279 40.205)">
        <g id="Grupo_140963" data-name="Grupo 140963">
          <g id="Grupo_140962" data-name="Grupo 140962">
            <path id="Trazado_183935" data-name="Trazado 183935" d="M974.671,1314.33c-9.1-1.6-18.677-3.9-18.677-3.9l-16.947-.69s-15.553,3.424-21.678,6.19c-.581.262,2.9,28.158,2.9,28.158s2.934,21.223,3.542,30.661c.28,4.332-3.306,42.337-3.306,42.337s4.038.289,15.6,1.564,42.468-29.666,42.65-31.032-9.611-13.425-9.867-15.988c-.393-3.934,3.147-30.35,3.147-30.35,2.179,2.927,12.342,20.6,18.492,24.088,4.375,2.481,22.341-15.024,22.71-15.7.295-.4-4.722-13.626-5.513-13.889-.693-.231-7.613,9.4-13.733,9.723C991.512,1345.639,979.691,1316.585,974.671,1314.33Z" transform="translate(-917.304 -1309.744)" fill="#06497e"/>
          </g>
        </g>
      </g>
      <path id="Trazado_183936" data-name="Trazado 183936" d="M948.389,1767.744h0a3.175,3.175,0,0,1-3.175,3.175H897.4a3.175,3.175,0,0,1-3.175-3.175h0a3.175,3.175,0,0,1,3.175-3.174h47.812A3.175,3.175,0,0,1,948.389,1767.744Z" transform="translate(-890.095 -1622.92)" fill="#1a6dc0"/>
      <path id="Trazado_183937" data-name="Trazado 183937" d="M893.316,1781.785l-3.078-.726L875.7,1834.976l3.253.078Z" transform="translate(-875.703 -1635.732)" fill="#1a6dc0"/>
      <path id="Trazado_183938" data-name="Trazado 183938" d="M1083.965,1781.785l3.078-.726,14.534,53.917-3.253.078Z" transform="translate(-1037.514 -1635.732)" fill="#1a6dc0"/>
      <path id="Rectángulo_36002" data-name="Rectángulo 36002" d="M24.046,0h0A24.046,24.046,0,0,1,48.091,24.046v35a0,0,0,0,1,0,0H0a0,0,0,0,1,0,0v-35A24.046,24.046,0,0,1,24.046,0Z" transform="translate(7.166 84.235)" fill="#1a6dc0"/>
    </g>
    <g id="Grupo_140987" data-name="Grupo 140987" transform="translate(688.453 390.358)">
      <path id="Trazado_183939" data-name="Trazado 183939" d="M1766.717,1972.144v11.376h-6.349v-2.249l-1.984,2.249h-16.667s-.265-4.762,7.275-4.7c0,0,6.35-1.521,7.143-6.68Z" transform="translate(-1737.528 -1780.398)" fill="#042b56"/>
      <path id="Trazado_183940" data-name="Trazado 183940" d="M1847.919,1979.341v9.392h-6.349v-2.249l-1.984,2.249h-16.667s-.265-4.762,7.275-4.7c0,0,6.349-1.521,7.143-6.68Z" transform="translate(-1800.618 -1784.448)" fill="#05336f"/>
      <g id="Grupo_140986" data-name="Grupo 140986" transform="translate(0 0)">
        <path id="Trazado_183941" data-name="Trazado 183941" d="M1812.84,1434.782l24.233-6.172-5.79-29.531Z" transform="translate(-1792.788 -1335.149)" fill="#bcd8ed"/>
        <path id="Trazado_183942" data-name="Trazado 183942" d="M1794.572,1752.418l16.672-61.14,19.223-3.433-22.682,64.573Z" transform="translate(-1778.595 -1559.51)" fill="#042b56"/>
        <path id="Trazado_183943" data-name="Trazado 183943" d="M1777,1628.4l-45.408,13.9c-1.082.334-4.28.833-5.556,2.579-3.395,4.645-3.194,11.15-3.01,16.9l33.682,48.273h15.775l-10.15-23.173a78.926,78.926,0,0,0-12.206-19.472c-2.68-3.149-4.421-5.516-2.6-5.714,16.2-1.763,57.962,5.225,58.455,2.267.61-3.661,0-21.969,0-21.969Z" transform="translate(-1722.939 -1513.319)" fill="#05336f"/>
        <g id="Grupo_140966" data-name="Grupo 140966" transform="translate(64.459 49.685)">
          <path id="Trazado_183944" data-name="Trazado 183944" d="M2031.643,1347.152s1.951,27.349-3.394,30.622c-3.347,2.05-16.695,8.966-16.3,10.263h0a1.482,1.482,0,0,0,1.727,1.018c6.15-1.313,31.547-7.007,32.274-11.682.807-5.2-1.262-40.044-4.786-41.649-2.639-1.2-4.032-.208-7.359,2.261C2029.139,1341.451,2031.643,1347.152,2031.643,1347.152Z" transform="translate(-2011.942 -1335.214)" fill="#bcd8ed"/>
        </g>
        <g id="Grupo_140969" data-name="Grupo 140969" transform="translate(50.897 5.302)">
          <g id="Grupo_140968" data-name="Grupo 140968">
            <g id="Grupo_140967" data-name="Grupo 140967">
              <path id="Trazado_183945" data-name="Trazado 183945" d="M1975.53,1139.007s-9.817-6.557-16.712.467-10.282,23.542-5.331,26.838,13.35,4.162,17.336-.311,8.241-11.294,9.288-16.276S1978.02,1141.1,1975.53,1139.007Z" transform="translate(-1951.137 -1136.226)" fill="#fab685"/>
            </g>
          </g>
        </g>
        <g id="Grupo_140972" data-name="Grupo 140972" transform="translate(55.926 29.51)">
          <g id="Grupo_140971" data-name="Grupo 140971">
            <g id="Grupo_140970" data-name="Grupo 140970">
              <path id="Trazado_183946" data-name="Trazado 183946" d="M1974.343,1251.752s.128,6.9-.633,8.37,14.328,1.509,14.328,1.509a99.412,99.412,0,0,1,3.547-14.76C1993.907,1240.111,1974.343,1251.752,1974.343,1251.752Z" transform="translate(-1973.682 -1244.76)" fill="#fab685"/>
            </g>
          </g>
        </g>
        <g id="Grupo_140975" data-name="Grupo 140975" transform="translate(54.06 3.799)">
          <g id="Grupo_140974" data-name="Grupo 140974">
            <g id="Grupo_140973" data-name="Grupo 140973">
              <path id="Trazado_183947" data-name="Trazado 183947" d="M1985.03,1157.468s-1.729,1.161-5.715-.463-7.735-8.318-9.32-9.33-1.362-2.03-1.362-2.03l-1.454,1.325-1.862-.316s2.834-4.53.783-7.133,6.376-15.321,18.553-7.556c0,0,9.53,5.211,7.793,10.92S1987.991,1155.119,1985.03,1157.468Z" transform="translate(-1965.316 -1129.485)" fill="#05336f"/>
            </g>
          </g>
        </g>
        <g id="Grupo_140978" data-name="Grupo 140978" transform="translate(56.958 16.324)">
          <g id="Grupo_140977" data-name="Grupo 140977">
            <g id="Grupo_140976" data-name="Grupo 140976">
              <path id="Trazado_183948" data-name="Trazado 183948" d="M1979.5,1187.234c.461-.917,3.588-3.113,3.834.085s-3.074,6.639-4.319,5.984S1978.329,1189.56,1979.5,1187.234Z" transform="translate(-1978.309 -1185.642)" fill="#fab685"/>
            </g>
          </g>
        </g>
        <g id="Grupo_140981" data-name="Grupo 140981" transform="translate(74.02 9.773)">
          <g id="Grupo_140980" data-name="Grupo 140980">
            <g id="Grupo_140979" data-name="Grupo 140979">
              <path id="Trazado_183949" data-name="Trazado 183949" d="M2058.917,1156.268s14.042,3.765-4.108,21.194Z" transform="translate(-2054.809 -1156.268)" fill="#05336f"/>
            </g>
          </g>
        </g>
        <g id="Grupo_140985" data-name="Grupo 140985" transform="translate(14.478 44.004)">
          <g id="Grupo_140984" data-name="Grupo 140984">
            <g id="Grupo_140983" data-name="Grupo 140983">
              <g id="Grupo_140982" data-name="Grupo 140982">
                <path id="Trazado_183950" data-name="Trazado 183950" d="M1809.285,1314.33c9.1-1.6,18.677-3.9,18.677-3.9l16.946-.69s15.553,3.424,21.678,6.19c.581.262-2.9,28.158-2.9,28.158s-2.934,21.223-3.542,30.661c-.28,4.332,1.655,24.042,1.655,24.042s-2.841-11.24-14.407-9.965-29.573-2.338-29.755-3.7a127.114,127.114,0,0,1,0-12.963c.392-3.934-5.77-27.646-5.77-27.646-2.179,2.927-12.293,17.367-18.443,20.855-4.375,2.481-8.043-14.374-3.463-19.863C1791.553,1343.6,1804.265,1316.585,1809.285,1314.33Z" transform="translate(-1787.85 -1309.744)" fill="#dae4ed"/>
              </g>
            </g>
          </g>
        </g>
        <path id="Trazado_183951" data-name="Trazado 183951" d="M1921.4,1767.744h0a3.175,3.175,0,0,0,3.175,3.175h47.813a3.175,3.175,0,0,0,3.175-3.175h0a3.175,3.175,0,0,0-3.175-3.174h-47.812A3.174,3.174,0,0,0,1921.4,1767.744Z" transform="translate(-1877.136 -1619.121)" fill="#1a6dc0"/>
        <path id="Trazado_183952" data-name="Trazado 183952" d="M2103.792,1781.785l3.078-.726,14.534,53.917-3.253.078Z" transform="translate(-2018.846 -1631.933)" fill="#1a6dc0"/>
        <path id="Trazado_183953" data-name="Trazado 183953" d="M1913.143,1781.785l-3.078-.726-14.535,53.917,3.253.078Z" transform="translate(-1857.035 -1631.933)" fill="#1a6dc0"/>
        <path id="Rectángulo_36003" data-name="Rectángulo 36003" d="M0,0H48.091a0,0,0,0,1,0,0V35A24.046,24.046,0,0,1,24.046,59.043h0A24.046,24.046,0,0,1,0,35V0A0,0,0,0,1,0,0Z" transform="translate(95.392 147.077) rotate(180)" fill="#1a6dc0"/>
        <path id="Trazado_183954" data-name="Trazado 183954" d="M1953.4,1193.477l-3.163,6.882s-2.167,9.74,6.061,10.095l2.518-14.582s-2.633,3.255-2.1-3.4S1953.4,1193.477,1953.4,1193.477Z" transform="translate(-1899.342 -1172.509)" fill="#05336f"/>
        <path id="Trazado_183955" data-name="Trazado 183955" d="M1960.643,1125.157s-4.062-8.928-.477-11.31a7,7,0,0,1,6.561-.992s-2.624,2.656-.518,4.9S1960.643,1125.157,1960.643,1125.157Z" transform="translate(-1906.106 -1112.453)" fill="#05336f"/>
        <path id="Trazado_183956" data-name="Trazado 183956" d="M1968.16,1296.73l18.064-.992v3.483s-9.483,6.328-18.532.331Z" transform="translate(-1913.102 -1254.858)" fill="#f5f5f5"/>
      </g>
    </g>
    <g id="Grupo_141006" data-name="Grupo 141006" transform="translate(391.486 364.819)">
      <rect id="Rectángulo_36004" data-name="Rectángulo 36004" width="90.087" height="66.131" rx="19.535" transform="translate(0 0)" fill="#64c8ff" opacity="0.33"/>
      <g id="Grupo_141005" data-name="Grupo 141005" transform="translate(13.123 5.634)">
        <g id="Grupo_141000" data-name="Grupo 141000" transform="translate(2.893 0.275)">
          <g id="Grupo_140989" data-name="Grupo 140989" transform="translate(0 44.802)">
            <g id="Grupo_140988" data-name="Grupo 140988">
              <path id="Trazado_183957" data-name="Trazado 183957" d="M523.87,1225.863h-60.3a.275.275,0,1,1,0-.55h60.3a.275.275,0,1,1,0,.55Z" transform="translate(-463.291 -1225.313)" fill="#fdffff"/>
            </g>
          </g>
          <g id="Grupo_140991" data-name="Grupo 140991" transform="translate(0 35.842)">
            <g id="Grupo_140990" data-name="Grupo 140990">
              <path id="Trazado_183958" data-name="Trazado 183958" d="M523.87,1185.69h-60.3a.275.275,0,1,1,0-.55h60.3a.275.275,0,1,1,0,.55Z" transform="translate(-463.291 -1185.14)" fill="#fdffff"/>
            </g>
          </g>
          <g id="Grupo_140993" data-name="Grupo 140993" transform="translate(0 26.881)">
            <g id="Grupo_140992" data-name="Grupo 140992">
              <path id="Trazado_183959" data-name="Trazado 183959" d="M523.87,1145.515h-60.3a.275.275,0,1,1,0-.55h60.3a.275.275,0,1,1,0,.55Z" transform="translate(-463.291 -1144.965)" fill="#fdffff"/>
            </g>
          </g>
          <g id="Grupo_140995" data-name="Grupo 140995" transform="translate(0 17.921)">
            <g id="Grupo_140994" data-name="Grupo 140994">
              <path id="Trazado_183960" data-name="Trazado 183960" d="M523.87,1105.342h-60.3a.275.275,0,1,1,0-.55h60.3a.275.275,0,1,1,0,.55Z" transform="translate(-463.291 -1104.792)" fill="#fdffff"/>
            </g>
          </g>
          <g id="Grupo_140997" data-name="Grupo 140997" transform="translate(0 8.96)">
            <g id="Grupo_140996" data-name="Grupo 140996">
              <path id="Trazado_183961" data-name="Trazado 183961" d="M523.87,1065.167h-60.3a.275.275,0,1,1,0-.55h60.3a.275.275,0,1,1,0,.55Z" transform="translate(-463.291 -1064.617)" fill="#fdffff"/>
            </g>
          </g>
          <g id="Grupo_140999" data-name="Grupo 140999">
            <g id="Grupo_140998" data-name="Grupo 140998">
              <path id="Trazado_183962" data-name="Trazado 183962" d="M523.87,1024.994h-60.3a.275.275,0,1,1,0-.55h60.3a.275.275,0,1,1,0,.55Z" transform="translate(-463.291 -1024.444)" fill="#fdffff"/>
            </g>
          </g>
        </g>
        <g id="Grupo_141001" data-name="Grupo 141001">
          <path id="Trazado_183963" data-name="Trazado 183963" d="M513.614,1078.074H450.872a.549.549,0,0,1-.55-.55v-53.762a.55.55,0,1,1,1.1,0v53.213h62.192a.55.55,0,0,1,0,1.1Z" transform="translate(-450.322 -1023.212)" fill="#fdffff"/>
        </g>
        <g id="Grupo_141002" data-name="Grupo 141002" transform="translate(9.634 4.398)">
          <path id="Trazado_183964" data-name="Trazado 183964" d="M501.761,1051.845l-8.246,15.823v17.867l39.583-1.924,10.171.275-3.573-33.261-10.446,5.223-18.417-12.919Z" transform="translate(-493.515 -1042.929)" fill="#4dc9ff"/>
        </g>
        <g id="Grupo_141003" data-name="Grupo 141003" transform="translate(9.634 13.315)">
          <path id="Trazado_183965" data-name="Trazado 183965" d="M545.468,1082.908l-10.445,10.566-19.22-1.616-9.093,8.394-8.246,11.42-4.948,8.974H545.7Z" transform="translate(-493.515 -1082.908)" fill="#4da4bc"/>
        </g>
        <g id="Grupo_141004" data-name="Grupo 141004" transform="translate(3.168 15.163)">
          <path id="Trazado_183966" data-name="Trazado 183966" d="M523.179,1127.083l-16.454-17.945-6.872,7.025-12.095-7.025-10.72,8.972-1.1-18.2-4.4-8.718-7.016,35.889Z" transform="translate(-464.524 -1091.194)" fill="#def8ff"/>
        </g>
      </g>
    </g>
    <g id="Grupo_141007" data-name="Grupo 141007" transform="translate(931.276 427.561)">
      <path id="Trazado_183967" data-name="Trazado 183967" d="M2845.135,1425.288v10.587a24.165,24.165,0,0,1-23.988-21.242h10.727A13.58,13.58,0,0,0,2845.135,1425.288Z" transform="translate(-2819.026 -1384.438)" fill="#4da4bc"/>
      <path id="Trazado_183968" data-name="Trazado 183968" d="M2844.522,1293.2v10.587a13.586,13.586,0,0,0-13.261,16.5h-10.727a24.17,24.17,0,0,1,23.988-27.085Z" transform="translate(-2818.412 -1290.086)" fill="#fd5453"/>
      <path id="Trazado_183969" data-name="Trazado 183969" d="M2952.859,1317.36a24.242,24.242,0,0,1-.176,2.922h-10.726a13.588,13.588,0,0,0-13.261-16.5V1293.2A24.163,24.163,0,0,1,2952.859,1317.36Z" transform="translate(-2902.587 -1290.086)" fill="#008edd"/>
      <path id="Trazado_183970" data-name="Trazado 183970" d="M2952.683,1414.633a24.165,24.165,0,0,1-23.987,21.242v-10.587a13.582,13.582,0,0,0,13.261-10.655Z" transform="translate(-2902.587 -1384.438)" fill="#1a6dc0"/>
      <rect id="Rectángulo_36005" data-name="Rectángulo 36005" width="1.548" height="15.681" transform="translate(25.336 38.57)" fill="#f5f5f5"/>
      <rect id="Rectángulo_36006" data-name="Rectángulo 36006" width="1.548" height="15.681" transform="translate(25.336 0)" fill="#f5f5f5"/>
      <rect id="Rectángulo_36007" data-name="Rectángulo 36007" width="1.548" height="15.681" transform="translate(52.913 29.421) rotate(90)" fill="#f5f5f5"/>
      <rect id="Rectángulo_36008" data-name="Rectángulo 36008" width="1.548" height="15.681" transform="translate(15.681 29.421) rotate(90)" fill="#f5f5f5"/>
    </g>
  </g>
</svg>
