<svg xmlns="http://www.w3.org/2000/svg" width="366.53" height="457.799" viewBox="0 0 366.53 457.799">
  <g id="img8" transform="translate(-69.685 -174.355)">
    <g id="Grupo_140815" data-name="Grupo 140815" transform="translate(79.065 232.242)">
      <path id="Trazado_183499" data-name="Trazado 183499" d="M111.939,381.192l-1.55-6.956a2.248,2.248,0,0,0-2.434-1.934h0a2.18,2.18,0,0,0-1.393,2.736l1.55,6.956a2.248,2.248,0,0,0,2.434,1.935h0A2.18,2.18,0,0,0,111.939,381.192Z" transform="translate(-94.295 -314.136)" fill="#fff"/>
      <path id="Trazado_183500" data-name="Trazado 183500" d="M174.936,292.245l6.791.019a2.183,2.183,0,0,1,2.3,1.969h0a2.108,2.108,0,0,1-2.257,1.956l-6.791-.019a2.183,2.183,0,0,1-2.3-1.969h0A2.108,2.108,0,0,1,174.936,292.245Z" transform="translate(-121.682 -281.024)" fill="#fff"/>
      <path id="Trazado_183501" data-name="Trazado 183501" d="M136.345,407.058l-23.57-19.013a3.263,3.263,0,0,0-4.59.469h0a3.3,3.3,0,0,0,.534,4.6l23.57,19.013a3.263,3.263,0,0,0,4.59-.469h0A3.3,3.3,0,0,0,136.345,407.058Z" transform="translate(-94.704 -320.362)" fill="#002a68"/>
      <path id="Trazado_183502" data-name="Trazado 183502" d="M149.055,299.246l-5.689-16.667L121.148,309.9l-20.986,27.851,16.446,2.067,16.274-20.348Z" transform="translate(-91.675 -277.024)" fill="#002151"/>
      <path id="Trazado_183503" data-name="Trazado 183503" d="M192.768,334l-34.331-27.692a3.915,3.915,0,0,0-5.508.563l-30.824,38.541a3.954,3.954,0,0,0,.641,5.523l34.33,27.692a3.915,3.915,0,0,0,5.508-.563l30.824-38.541A3.955,3.955,0,0,0,192.768,334Z" transform="translate(-100.407 -286.478)" fill="#002a68"/>
      <path id="Trazado_183504" data-name="Trazado 183504" d="M134.694,275.225h0a9.461,9.461,0,0,0-13.311,1.36L87.72,318.676a9.557,9.557,0,0,0,1.549,13.346h0a9.461,9.461,0,0,0,13.311-1.36l33.663-42.091A9.557,9.557,0,0,0,134.694,275.225Z" transform="translate(-85.685 -273.103)" fill="#002a68"/>
      <path id="Trazado_183505" data-name="Trazado 183505" d="M216.407,309.987l-23.827-19.22a3.1,3.1,0,0,0-4.36.446h0a3.131,3.131,0,0,0,.507,4.372l23.827,19.22a3.1,3.1,0,0,0,4.361-.445h0A3.131,3.131,0,0,0,216.407,309.987Z" transform="translate(-127.837 -280.124)" fill="#002a68"/>
      <path id="Trazado_183506" data-name="Trazado 183506" d="M123.852,295.058h0a3.426,3.426,0,0,0-4.82.492l-29,36.259a3.46,3.46,0,0,0,.561,4.832h0a3.425,3.425,0,0,0,4.819-.492l29-36.258A3.46,3.46,0,0,0,123.852,295.058Z" transform="translate(-87.179 -281.869)" fill="#063772"/>
    </g>
    <g id="Grupo_140816" data-name="Grupo 140816" transform="translate(224.006 174.355)">
      <path id="Trazado_183507" data-name="Trazado 183507" d="M341.67,217.528l3.467-4.669a1.958,1.958,0,0,0-.4-2.732h0a1.958,1.958,0,0,0-2.731.4l-3.467,4.669a1.958,1.958,0,0,0,.4,2.731h0A1.958,1.958,0,0,0,341.67,217.528Z" transform="translate(-335.094 -188.999)" fill="#fff"/>
      <path id="Trazado_183508" data-name="Trazado 183508" d="M455.541,207.057l3.84,4.368a1.959,1.959,0,0,1-.177,2.755h0a1.958,1.958,0,0,1-2.755-.177l-3.84-4.368a1.958,1.958,0,0,1,.177-2.755h0A1.959,1.959,0,0,1,455.541,207.057Z" transform="translate(-382.254 -187.613)" fill="#fff"/>
      <rect id="Rectángulo_35956" data-name="Rectángulo 35956" width="36.442" height="6.508" rx="0.922" transform="matrix(0.041, 0.999, -0.999, 0.041, 6.502, 25.669)" fill="#002a68"/>
      <path id="Trazado_183509" data-name="Trazado 183509" d="M402.986,212.257l9.448-15.7-35.91,1.808-35.91,1.808L350.97,214.4l26.089-1.077Z" transform="translate(-336.112 -183.544)" fill="#002151"/>
      <rect id="Rectángulo_35957" data-name="Rectángulo 35957" width="51.41" height="57.267" rx="3.188" transform="translate(68.948 23.743) rotate(87.637)" fill="#002a69"/>
      <path id="Rectángulo_35958" data-name="Rectángulo 35958" d="M9.436,0H63.449a9.436,9.436,0,0,1,9.436,9.436v0a9.436,9.436,0,0,1-9.436,9.436H9.436A9.436,9.436,0,0,1,0,9.436v0A9.436,9.436,0,0,1,9.436,0Z" transform="matrix(0.999, -0.041, 0.041, 0.999, 3.287, 3.005)" fill="#002a68"/>
      <rect id="Rectángulo_35959" data-name="Rectángulo 35959" width="36.442" height="6.182" rx="0.876" transform="translate(80.34 23.598) rotate(87.637)" fill="#002a68"/>
      <rect id="Rectángulo_35960" data-name="Rectángulo 35960" width="6.833" height="43.86" rx="3.416" transform="translate(50.373 4.392) rotate(87.636)" fill="#063772"/>
      <path id="Trazado_183510" data-name="Trazado 183510" d="M373.918,289.67l5.669-27.027c.525-1.726,1.79-3.555-.264-4.18l-8.406-2.555c-2.055-.624-10.786-2.263-11.31-.537l-1.566,29.474c-1.124,1.459-.734,7.644,7.094,8.671C368.131,293.908,373.493,293.024,373.918,289.67Z" transform="translate(-343.13 -207.561)" fill="#303449"/>
      <path id="Trazado_183511" data-name="Trazado 183511" d="M432.86,290.764l5.668-27.027c.525-1.726,1.79-3.556-.264-4.18L429.858,257c-2.055-.624-10.786-2.263-11.31-.537l-1.565,29.473c-1.124,1.46-.735,7.645,7.094,8.671C427.073,295,432.435,294.119,432.86,290.764Z" transform="translate(-367.52 -208.014)" fill="#002151"/>
    </g>
    <g id="Grupo_140817" data-name="Grupo 140817" transform="translate(69.685 405.286)">
      <path id="Trazado_183512" data-name="Trazado 183512" d="M105.606,599.593l-3.058,6.432a2.211,2.211,0,0,1-2.789,1.321h0a2.212,2.212,0,0,1-.737-3l3.057-6.432a2.212,2.212,0,0,1,2.79-1.321h0A2.212,2.212,0,0,1,105.606,599.593Z" transform="translate(-81.711 -579.939)" fill="#fff"/>
      <path id="Trazado_183513" data-name="Trazado 183513" d="M145.835,705.031l7.012,1.98a2.247,2.247,0,0,0,2.884-1.214h0a2.248,2.248,0,0,0-1.823-2.544l-7.012-1.98a2.248,2.248,0,0,0-2.884,1.215h0A2.248,2.248,0,0,0,145.835,705.031Z" transform="translate(-100.416 -623.271)" fill="#fff"/>
      <path id="Trazado_183514" data-name="Trazado 183514" d="M135.11,574.478l-26.992,12.942a3.264,3.264,0,0,1-4.341-1.527h0a3.263,3.263,0,0,1,1.527-4.341L132.3,568.61a3.264,3.264,0,0,1,4.341,1.528h0A3.263,3.263,0,0,1,135.11,574.478Z" transform="translate(-83.66 -568.292)" fill="#002a68"/>
      <path id="Trazado_183515" data-name="Trazado 183515" d="M131.713,657.21l-8.544,13.936-16.136-30.791-14.407-32.2,16.579,2.108,11.289,23.545Z" transform="translate(-79.178 -584.788)" fill="#002151"/>
      <rect id="Rectángulo_35961" data-name="Rectángulo 35961" width="51.41" height="57.267" rx="6.661" transform="translate(24.36 24.948) rotate(-25.616)" fill="#002a69"/>
      <rect id="Rectángulo_35962" data-name="Rectángulo 35962" width="18.872" height="72.885" rx="9.436" transform="translate(0 28.328) rotate(-25.616)" fill="#002a68"/>
      <path id="Trazado_183516" data-name="Trazado 183516" d="M191.292,687.47l-27.286,13.082a3.1,3.1,0,0,1-4.123-1.451h0a3.1,3.1,0,0,1,1.451-4.123l27.286-13.082a3.1,3.1,0,0,1,4.124,1.451h0A3.1,3.1,0,0,1,191.292,687.47Z" transform="translate(-106.882 -615.174)" fill="#002a68"/>
      <path id="Rectángulo_35963" data-name="Rectángulo 35963" d="M3.417,0h0A3.416,3.416,0,0,1,6.833,3.416V40.444A3.416,3.416,0,0,1,3.417,43.86h0A3.417,3.417,0,0,1,0,40.444V3.417A3.417,3.417,0,0,1,3.417,0Z" transform="translate(10.235 27.198) rotate(-25.618)" fill="#063772"/>
      <path id="Trazado_183517" data-name="Trazado 183517" d="M184.608,585.066,163.4,602.751c-1.278,1.273-2.3,3.249-3.816,1.728l-6.2-6.224c-1.515-1.521-7.059-8.463-5.78-9.736l25.294-15.21c.761-1.677,6.407-4.235,10.986,2.2C185.636,577.967,187.371,583.117,184.608,585.066Z" transform="translate(-101.849 -569.563)" fill="#002a68"/>
      <path id="Trazado_183518" data-name="Trazado 183518" d="M213.227,636.6,192.019,654.29c-1.278,1.273-2.3,3.249-3.816,1.728l-6.2-6.224c-1.515-1.521-7.059-8.463-5.78-9.736l25.294-15.21c.762-1.677,6.407-4.235,10.986,2.2C214.255,629.506,215.99,634.656,213.227,636.6Z" transform="translate(-113.691 -590.889)" fill="#002a68"/>
    </g>
    <g id="Grupo_140818" data-name="Grupo 140818" transform="translate(345.056 294.571)">
      <path id="Trazado_183519" data-name="Trazado 183519" d="M633.711,387.946l5.814,3.435a2.133,2.133,0,0,0,2.945-.528h0a2.133,2.133,0,0,0-.958-2.834l-5.814-3.435a2.134,2.134,0,0,0-2.945.528h0A2.134,2.134,0,0,0,633.711,387.946Z" transform="translate(-577.948 -381.414)" fill="#fff"/>
      <path id="Trazado_183520" data-name="Trazado 183520" d="M656.273,499.532l-3.94,4.277a1.958,1.958,0,0,1-2.759.113h0a1.958,1.958,0,0,1-.113-2.759l3.941-4.278a1.958,1.958,0,0,1,2.759-.113h0A1.958,1.958,0,0,1,656.273,499.532Z" transform="translate(-584.747 -427.77)" fill="#fff"/>
      <path id="Trazado_183521" data-name="Trazado 183521" d="M580.29,390.265,609.9,385.9a3.263,3.263,0,0,0,2.745-3.694h0a3.263,3.263,0,0,0-3.693-2.745l-29.615,4.366a3.264,3.264,0,0,0-2.745,3.694h0A3.263,3.263,0,0,0,580.29,390.265Z" transform="translate(-554.795 -379.427)" fill="#002a68"/>
      <path id="Trazado_183522" data-name="Trazado 183522" d="M639.212,448.335l16,7.213-4.968-34.987-5.789-34.967L631.62,396.831l3.808,25.832Z" transform="translate(-577.577 -381.979)" fill="#002151"/>
      <rect id="Rectángulo_35964" data-name="Rectángulo 35964" width="51.41" height="57.267" rx="6.661" transform="translate(7.584 18.741) rotate(-8.386)" fill="#002a69"/>
      <path id="Rectángulo_35965" data-name="Rectángulo 35965" d="M9.436,0h0a9.436,9.436,0,0,1,9.436,9.436V63.449a9.436,9.436,0,0,1-9.436,9.436h0A9.436,9.436,0,0,1,0,63.449V9.436A9.436,9.436,0,0,1,9.436,0Z" transform="translate(91.159 72.529) rotate(171.614)" fill="#002a68"/>
      <path id="Trazado_183523" data-name="Trazado 183523" d="M596.874,515.394l29.937-4.413a3.1,3.1,0,0,0,2.607-3.509h0a3.1,3.1,0,0,0-3.509-2.607l-29.937,4.412a3.1,3.1,0,0,0-2.607,3.509h0A3.1,3.1,0,0,0,596.874,515.394Z" transform="translate(-561.734 -431.318)" fill="#002a68"/>
      <path id="Trazado_183524" data-name="Trazado 183524" d="M659.82,432.532h0a3.427,3.427,0,0,0,2.882-3.878l-5.4-36.632a3.426,3.426,0,0,0-3.878-2.881h0a3.426,3.426,0,0,0-2.882,3.878l5.4,36.632A3.427,3.427,0,0,0,659.82,432.532Z" transform="translate(-585.392 -383.431)" fill="#063772"/>
      <path id="Trazado_183525" data-name="Trazado 183525" d="M544.178,428.373l27.473,2.8c1.771.341,3.724,1.407,4.129-.7l1.658-8.627c.406-2.109,1.119-10.963-.652-11.3l-29.475,1.535c-1.569-.964-7.679.072-7.879,7.965C539.357,423.063,540.8,428.3,544.178,428.373Z" transform="translate(-539.43 -392.302)" fill="#303449"/>
      <path id="Trazado_183526" data-name="Trazado 183526" d="M549.273,487.1l27.473,2.8c1.772.341,3.724,1.408,4.129-.7l1.659-8.627c.405-2.109,1.118-10.963-.653-11.3l-29.475,1.535c-1.569-.965-7.679.071-7.879,7.964C544.452,481.794,545.893,487.034,549.273,487.1Z" transform="translate(-541.538 -416.604)" fill="#002151"/>
    </g>
    <g id="Grupo_140819" data-name="Grupo 140819" transform="translate(303.825 418.722)">
      <path id="Trazado_183527" data-name="Trazado 183527" d="M517.564,710.654l7.444.5c1.374.092,2.447.94,2.384,1.886h0c-.063.946-1.239,1.644-2.614,1.552l-7.444-.5c-1.374-.091-2.448-.94-2.384-1.885h0C515.013,711.261,516.189,710.563,517.564,710.654Z" transform="translate(-488.068 -640.633)" fill="#fff"/>
      <path id="Trazado_183528" data-name="Trazado 183528" d="M590.867,639.66l-.878-6.045a1.913,1.913,0,0,0-2-1.781h0a1.914,1.914,0,0,0-1.41,2.276l.878,6.045a1.913,1.913,0,0,0,2,1.781h0A1.913,1.913,0,0,0,590.867,639.66Z" transform="translate(-517.699 -608.015)" fill="#fff"/>
      <rect id="Rectángulo_35966" data-name="Rectángulo 35966" width="32.155" height="5.742" rx="0.814" transform="translate(26.695 75.87) rotate(-137.219)" fill="#002a68"/>
      <path id="Trazado_183529" data-name="Trazado 183529" d="M554.689,641.295l14.553,2.547L548.88,667.016,527.508,689.7l-4.018-14.687,15.648-16.91Z" transform="translate(-491.603 -611.936)" fill="#002151"/>
      <path id="Rectángulo_35967" data-name="Rectángulo 35967" d="M8.953,0H35.387a9.973,9.973,0,0,1,9.973,9.973V40.555a9.973,9.973,0,0,1-9.973,9.973H9.973A9.973,9.973,0,0,1,0,40.555V8.953A8.953,8.953,0,0,1,8.953,0Z" transform="translate(33.293 67.895) rotate(-137.219)" fill="#002a69"/>
      <rect id="Rectángulo_35968" data-name="Rectángulo 35968" width="16.651" height="64.309" rx="8.326" transform="matrix(-0.734, -0.679, 0.679, -0.734, 43.979, 86.78)" fill="#002a68"/>
      <path id="Trazado_183530" data-name="Trazado 183530" d="M556.046,596.66l19.6,18.134a2.705,2.705,0,0,1-.257,3.479h0a2.735,2.735,0,0,1-3.854.149l-19.6-18.134a2.736,2.736,0,0,1-.15-3.854h0C552.805,595.333,554.54,595.265,556.046,596.66Z" transform="translate(-503.013 -593.032)" fill="#002a68"/>
      <path id="Trazado_183531" data-name="Trazado 183531" d="M562.851,661.768h0a3.023,3.023,0,0,1,.165,4.26L535.132,696.16a3.023,3.023,0,0,1-4.26.165h0a3.023,3.023,0,0,1-.165-4.26l27.884-30.132A3.023,3.023,0,0,1,562.851,661.768Z" transform="translate(-494.259 -620.077)" fill="#063772"/>
    </g>
    <g id="Grupo_140820" data-name="Grupo 140820" transform="translate(130.417 240.489)">
      <path id="Trazado_183532" data-name="Trazado 183532" d="M173.288,401.31c.353,59.6,11.559,68.306,44.1,112.681,16.643,22.692,11.633,53.5,38.959,65.571,8.064,3.562,53.933,2.209,61.418-.241,33.46-10.954,26.767-43.99,43.068-66.488,22.887-31.587,45.961-54.172,45.611-113.148C406.076,337.1,353.58,286.725,289.2,287.173S172.916,338.722,173.288,401.31Z" transform="translate(-173.286 -287.17)" fill="#ffe600"/>
      <path id="Trazado_183533" data-name="Trazado 183533" d="M294.649,828.757l89.253-.618a2.575,2.575,0,0,0,2.677-2.431l-.084-14.22a2.573,2.573,0,0,0-2.71-2.4l-89.253.619a2.574,2.574,0,0,0-2.677,2.431l.084,14.22A2.573,2.573,0,0,0,294.649,828.757Z" transform="translate(-222.348 -503.134)" fill="#002a69"/>
      <path id="Trazado_183534" data-name="Trazado 183534" d="M294.871,866.555l89.252-.618a2.575,2.575,0,0,0,2.677-2.431l-.084-14.22a2.573,2.573,0,0,0-2.711-2.4l-89.252.618a2.575,2.575,0,0,0-2.677,2.431l.084,14.219A2.573,2.573,0,0,0,294.871,866.555Z" transform="translate(-222.44 -518.774)" fill="#fff"/>
      <path id="Trazado_183535" data-name="Trazado 183535" d="M294.871,866.555l89.252-.618a2.575,2.575,0,0,0,2.677-2.431l-.084-14.22a2.573,2.573,0,0,0-2.711-2.4l-89.252.618a2.575,2.575,0,0,0-2.677,2.431l.084,14.219A2.573,2.573,0,0,0,294.871,866.555Z" transform="translate(-222.44 -518.774)" fill="#002a69"/>
      <path id="Trazado_183536" data-name="Trazado 183536" d="M295.094,904.353l89.252-.618a2.574,2.574,0,0,0,2.677-2.431l-.084-14.219a2.572,2.572,0,0,0-2.711-2.4l-89.252.618a2.574,2.574,0,0,0-2.677,2.431l.084,14.219A2.572,2.572,0,0,0,295.094,904.353Z" transform="translate(-222.532 -534.414)" fill="#002a69"/>
      <path id="Trazado_183537" data-name="Trazado 183537" d="M337.584,941.644l38.65-.268a3.768,3.768,0,0,0,3.918-3.558l-.091-15.518-46.535.322.091,15.511A3.765,3.765,0,0,0,337.584,941.644Z" transform="translate(-239.591 -549.979)" fill="#002a69"/>
      <ellipse id="Elipse_4833" data-name="Elipse 4833" cx="56.563" cy="46.044" rx="56.563" ry="46.044" transform="translate(2.516 100.247) rotate(-56.967)" fill="#ffff5f" opacity="0.72"/>
      <ellipse id="Elipse_4834" data-name="Elipse 4834" cx="23.976" cy="19.517" rx="23.976" ry="19.517" transform="matrix(0.545, -0.838, 0.838, 0.545, 37.659, 84.227)" fill="#ffffbd"/>
    </g>
    <g id="Grupo_140825" data-name="Grupo 140825" transform="translate(130.563 240.489)" opacity="0.56">
      <path id="Trazado_183538" data-name="Trazado 183538" d="M173.535,411.422l1.556,3.348,7.668.414,22.506-18.441a8.216,8.216,0,0,0,3-4.2,3.9,3.9,0,0,0,2.256-.876l6.107-5.255a7.731,7.731,0,0,0,.81-10.88l-.089-.1a4.016,4.016,0,0,0-5.642-.42l-8.92,7.676a3.557,3.557,0,0,0-.247.319c-2.858,0-6.273,1.737-8.394,3.223l-9.764,6.883-2.688-9.085,6.5-7.173a18.257,18.257,0,0,0,2.891.464c6.56,1.814,13.34.255,17.3-4.731,4.084-5.138,4-12.408.484-18.55l9.191-10.142,13.778,2.3L222.7,362.523h0l1.775,1.043L223.9,364.7l.474.236-4.714,7.854a4,4,0,0,0,1.317,5.43l.246.152a7.45,7.45,0,0,0,10.314-2.5l3.621-6.033.261.154.314-.667a1.358,1.358,0,0,0,.414-.353l1.418-2.191a1.422,1.422,0,0,0,.046-1.45l12.7-27.008-2.379-4.276-28.4-7.434C192.895,346.315,175.25,376.867,173.535,411.422Z" transform="translate(-173.535 -303.493)" fill="#efab00"/>
      <g id="Grupo_140821" data-name="Grupo 140821" transform="translate(177.904 60.701)">
        <path id="Trazado_183539" data-name="Trazado 183539" d="M527.315,428.7c0,.116-.053.22-.044.338l.855,11.983c.153,2.142,1.378,2.608,3.52,2.455l.779,1.153a6.671,6.671,0,0,0,2.759-.98c2.431,6.4,9.273,10.57,17.095,10.51.189-3.72.286-7.582.261-11.63A110.7,110.7,0,0,0,550.3,421.1a23.2,23.2,0,0,0-2.092,1.057,20.874,20.874,0,0,0-7.717,3.987,7.2,7.2,0,0,0,.516-2.15l1.008-14.914,5.506,1.206a110.493,110.493,0,0,0-7.924-18.96l-3.7-.6-6.495,2.625L526.36,423a7.239,7.239,0,0,0,.754,3.681A4.561,4.561,0,0,0,527.315,428.7Z" transform="translate(-497.427 -390.717)" fill="#efab00"/>
        <path id="Trazado_183540" data-name="Trazado 183540" d="M522.688,496.746l-27.264-14.065-.739,1.063-8.41-7.89c-1.8-1.688-4.474-1.788-5.944-.222l-3.315,3.676s1.339,5.179,3.139,6.867l6,4.554a25.6,25.6,0,0,0,2.9,1.1l-2.22,3.19L518,512.857a4.615,4.615,0,0,0,2.485.383,9.838,9.838,0,0,0,6.187-.295l2.307-.555A153.158,153.158,0,0,0,531.59,493.3Z" transform="translate(-477.015 -425.394)" fill="#efab00"/>
      </g>
      <g id="Grupo_140822" data-name="Grupo 140822" transform="translate(98.378)">
        <path id="Trazado_183541" data-name="Trazado 183541" d="M482.877,362.925l.853-9.476c.011-.126-.007-.275-.007-.41l1.132-.068s-1.675-22.8-2.534-32.066a116.954,116.954,0,0,0-22.629-14.117c3.247,7.785,7.3,17.476,7.42,17.677,0,.2,2.352,29.43,2.352,29.43l1.766-.106L470.141,365.9a4.3,4.3,0,0,0,3.727,4.778l.3.027C478.539,371.094,482.458,367.595,482.877,362.925Z" transform="translate(-390.321 -295.287)" fill="#efab00"/>
        <path id="Trazado_183542" data-name="Trazado 183542" d="M358.74,287.173a121.01,121.01,0,0,0-13.25.842l-.745,22.319a4.336,4.336,0,0,0-.345,2.719c-.48,2.1-3.046.982-3.046.982,1.036,4.411,4.1,4.69,4.1,4.69l26.589-1.621a6.156,6.156,0,0,0,3.858-3.191l1.637,1.816a7.734,7.734,0,0,0,10.891.564,4.015,4.015,0,0,0,.293-5.653l-.577-.64a14.185,14.185,0,0,0,3.453-.9c5.7-2.331,9.087-8.042,9.457-14.506A119.11,119.11,0,0,0,358.74,287.173Zm13.415,15.987a13.192,13.192,0,0,0-5.873.076l-3.634.869,1.416-7.982,2.713-.121a16.421,16.421,0,0,0,5.318,6.527c.126.167.249.336.379.5C372.364,303.064,372.262,303.116,372.155,303.16Z" transform="translate(-341.354 -287.17)" fill="#efab00"/>
      </g>
      <g id="Grupo_140823" data-name="Grupo 140823" transform="translate(5.389 149.955)">
        <path id="Trazado_183543" data-name="Trazado 183543" d="M243.295,638.9c2.651-1.9,3.917-5.106,2.835-7.922l-10.459-22.745a7.515,7.515,0,0,0-1.986-2.808,10.551,10.551,0,0,0-.418-2.064l-2-7.107-10.585-2.7-3.1,2.146a3.309,3.309,0,0,0-1.633,2.469,20.668,20.668,0,0,0-10.279,1.05,21.542,21.542,0,0,0-5.478.941,5.174,5.174,0,0,0-.608.28c5.065,8.527,11.551,17.255,19.708,28.209a20.8,20.8,0,0,0,7.042-6.407l2.634,6.794L220.9,630.8c2.33,3.131,4.777,6.425,7.375,9.967.908,1.238,1.725,2.509,2.514,3.791l6.961-2.418C239.131,641.772,241.834,640.908,243.295,638.9Z" transform="translate(-189.703 -563.9)" fill="#efab00"/>
        <path id="Trazado_183544" data-name="Trazado 183544" d="M235.964,556.842a6.884,6.884,0,0,0-3.151-1.351l.011-.124-35.93-12.394c-.6.075-7.618,7.39-14.165,14.345a94.642,94.642,0,0,0,9.12,20.894l-2.649-5.49,12.594-15.565L231.206,568.3l5.917,5.283a3.916,3.916,0,0,0,5.513-.312l.191-.214a7.544,7.544,0,0,0-.6-10.622Z" transform="translate(-182.728 -542.973)" fill="#efab00"/>
      </g>
      <g id="Grupo_140824" data-name="Grupo 140824" transform="translate(161.295 151.713)">
        <path id="Trazado_183545" data-name="Trazado 183545" d="M492.236,612.894l-5.687,6.807a15.306,15.306,0,0,0-4.044,3.031,15.464,15.464,0,0,0-3.391,5.869l-3.445,4.122a11.183,11.183,0,0,0-1.99,10.7l-7.155-4.366a9.26,9.26,0,0,0-.083-2.965l5.863-7.864c.75-.845,1.764-1.858,2.705-2.911a3.506,3.506,0,0,0,4.095-.6l7.374-7.372a3.542,3.542,0,0,0,0-4.995,6.825,6.825,0,0,0-9.623,0l-5.06,5.058a3.3,3.3,0,0,0-.276.415,9.716,9.716,0,0,0-3.569,2.6l-12.638,11.709a13.141,13.141,0,0,0-2.7,1.694c-4.181,3.463-4.925,8.545-2.711,11.317,1.2,1.505,4.175,4.263,6.82,5.078l11.775,7.185a57.309,57.309,0,0,1,6.3-11.431c9.285-12.815,18.6-24.148,26.37-37.031A11.113,11.113,0,0,0,492.236,612.894Z" transform="translate(-448.683 -572.029)" fill="#efab00"/>
        <path id="Trazado_183546" data-name="Trazado 183546" d="M497.7,549.921a3.445,3.445,0,0,0-1.291-.915l-6.673-2.579a6.824,6.824,0,0,0-8.8,3.894,3.541,3.541,0,0,0,2.021,4.567l9.727,3.759a3.422,3.422,0,0,0,1.774.144c.732,1.509,2.24,1.988,4.043,1.884.284.134.583.263.915.383l12.389,5.55a6.162,6.162,0,0,0,2.817,2.085l1.777.643c.031.091.039.185.073.277l2.155,5.784a124.122,124.122,0,0,0,7.03-15.959l-6.8-2.459a6.174,6.174,0,0,0-3.693-.157l-10.744-3.341c-.276-.1-.563-.186-.849-.273a5.38,5.38,0,0,0-3.7-1.843A2.837,2.837,0,0,0,497.7,549.921Z" transform="translate(-461.933 -545.972)" fill="#efab00"/>
      </g>
    </g>
    <g id="Grupo_140826" data-name="Grupo 140826" transform="translate(106.948 254.713)">
      <path id="Trazado_183547" data-name="Trazado 183547" d="M217.838,403.144l-9,7.8a.667.667,0,0,0-.07.939l6.872,7.969a.667.667,0,0,0,.937.07l11.227-9.161c.535-.46,2.881-3.741,2.42-4.275l-4.179-4.519C225.806,401.695,218.115,402.9,217.838,403.144Z" transform="translate(-164.432 -348.881)" fill="#ffd297"/>
      <path id="Trazado_183548" data-name="Trazado 183548" d="M241.708,388.082l6.21-10.347a3.867,3.867,0,0,1,5.354-1.295l3.942.209c1.835,1.137,1.821,5.439.71,7.289l-4.34,7.231a7.451,7.451,0,0,1-10.315,2.495l-.245-.152A4,4,0,0,1,241.708,388.082Z" transform="translate(-177.897 -338.093)" fill="#ffd297"/>
      <path id="Trazado_183549" data-name="Trazado 183549" d="M186.114,407.813l-1.026-.9c-2.644-3.745-8.939-.8-12.182,1.469l-9.763,6.883L157.674,396.8c-.46-2.116-.334-4.737-2.44-4.306l-8.619,1.76c-2.107.43-10.523,3.339-10.063,5.455l17.3,37.221,7.669.414L184.029,418.9A8.134,8.134,0,0,0,186.114,407.813Z" transform="translate(-134.608 -344.955)" fill="#f9f5e1"/>
      <path id="Trazado_183550" data-name="Trazado 183550" d="M257.481,322.686l-42.3-11.072c-4.5-1.247-2.666,4.3-3.773,8.5l-.21.8c-1.106,4.2,1.675,8.658,6.178,9.906L241.4,334.83l-9.137,16.327h0l12.711,7.474,14.887-31.669Z" transform="translate(-165.403 -311.435)" fill="#f9f5e1"/>
      <path id="Trazado_183551" data-name="Trazado 183551" d="M184.2,320.708h0a12.559,12.559,0,0,0-17.665,1.858l-18.182,22.876a12.689,12.689,0,0,0,2.109,17.713h0a12.56,12.56,0,0,0,17.665-1.859l18.182-22.876A12.689,12.689,0,0,0,184.2,320.708Z" transform="translate(-138.39 -314.116)" fill="#bab59e"/>
      <path id="Trazado_183552" data-name="Trazado 183552" d="M195.071,321.8l-5.007-4.015a9.379,9.379,0,0,0-13.192,1.388L165.9,332.978l20.077,15.473,10.672-13.427A9.476,9.476,0,0,0,195.071,321.8Z" transform="translate(-146.759 -313.199)" fill="#898781"/>
      <path id="Trazado_183553" data-name="Trazado 183553" d="M194.286,316.137,181,311.76l-15.916,1.833-7.052,4.3L138.577,344s-8.776,17.667-3.8,21.984l8.023,6.962c4.976,4.317,11.869,4.735,15.318.929l19.361-21.363,19.58-21.6C200.51,327.1,199.262,320.454,194.286,316.137Z" transform="translate(-133.25 -311.57)" fill="#f9f5e1"/>
      <ellipse id="Elipse_4835" data-name="Elipse 4835" cx="16.319" cy="19.209" rx="16.319" ry="19.209" transform="translate(12.354 38.21) rotate(-50.648)" fill="#ffd297"/>
      <ellipse id="Elipse_4836" data-name="Elipse 4836" cx="17.561" cy="18.235" rx="17.561" ry="18.235" transform="matrix(0.667, -0.745, 0.745, 0.667, 10.518, 37.665)" fill="#7a624f"/>
      <ellipse id="Elipse_4837" data-name="Elipse 4837" cx="9.567" cy="10.589" rx="9.567" ry="10.589" transform="translate(14.09 34.946) rotate(-50.196)" fill="#846d5a"/>
      <path id="Trazado_183554" data-name="Trazado 183554" d="M256.409,384.1l-7.074-3.524,1.7-3.309,8.011,3.5Z" transform="translate(-181.284 -338.675)" fill="#002a68"/>
      <path id="Trazado_183555" data-name="Trazado 183555" d="M263.267,388.3l-3.931-2a1.43,1.43,0,0,1-.889-2.184l1.418-2.191a1.363,1.363,0,0,1,1.4-.609l3.93,2a1.43,1.43,0,0,1,.889,2.184l-1.418,2.191A1.365,1.365,0,0,1,263.267,388.3Z" transform="translate(-184.959 -340.342)" fill="#063772"/>
    </g>
    <g id="Grupo_140827" data-name="Grupo 140827" transform="translate(302.54 296.106)">
      <path id="Trazado_183556" data-name="Trazado 183556" d="M558.638,387.416l-32.851-5.37-6.5,2.625-3.044,29.657a7.361,7.361,0,0,0,6.828,7.817h0a7.362,7.362,0,0,0,7.818-6.827L531.9,400.4l19.888,4.356a7.907,7.907,0,0,0,9.389-6.015l.176-.806C562.283,393.7,562.874,388.344,558.638,387.416Z" transform="translate(-487.315 -382.046)" fill="#e8f6f9"/>
      <path id="Trazado_183557" data-name="Trazado 183557" d="M536.8,496.591l29.923-11.577c1.893-.9,3.825-2.577,4.749-.639l3.783,7.929c.924,1.938,3.707,10.394,1.814,11.3l-33.124,7.967c-2.3.76-8.556,2.4-10.551-5.28C532.633,503.35,533.059,497.747,536.8,496.591Z" transform="translate(-494.287 -424.018)" fill="#cfe1e8"/>
      <path id="Trazado_183558" data-name="Trazado 183558" d="M486.229,476.627l-10.066-9.444c-1.8-1.688-4.473-1.788-5.943-.222l-3.315,3.676s1.34,5.179,3.139,6.867l6,4.554s7.757,3.712,10.588.695l.2-.209C488.3,480.978,488.028,478.315,486.229,476.627Z" transform="translate(-466.904 -416.723)" fill="#f4ae7f"/>
      <ellipse id="Elipse_4838" data-name="Elipse 4838" cx="5.315" cy="6.399" rx="5.315" ry="6.399" transform="matrix(0.192, -0.981, 0.981, 0.192, 28.691, 40.874)" fill="#f49271"/>
      <path id="Trazado_183559" data-name="Trazado 183559" d="M521.837,495.036,492.246,479.77l-8.586,12.339,31.167,17.837c2.987,1.4,7.008-.8,8.936-4.9h0C525.691,500.944,524.824,496.44,521.837,495.036Z" transform="translate(-473.837 -422.483)" fill="#d9edf4"/>
      <path id="Trazado_183560" data-name="Trazado 183560" d="M518.662,456.266l-.855-11.983a3.915,3.915,0,0,1,3.616-4.173l3.735-.267c2.142-.153,4.524,2.167,5.252,3.919l1.631,5.456c.294,4.127-4.954,10.361-9.081,10.655l-.779-1.152C520.039,458.874,518.815,458.408,518.662,456.266Z" transform="translate(-487.963 -405.959)" fill="#f9c795"/>
      <path id="Trazado_183561" data-name="Trazado 183561" d="M597.965,392.562l5.136,4.252c1.58,2.33,8.6,7.375,8.6,7.375,9.735,7.315,10.258,29.405,7.94,35.652l-3.308,8.293s-3.4,7.4-5.062,9.215l-2.8,3.065c-5.2.753-11.322-9.189-12.06-14.281L591.3,410.872C590.561,405.78,592.764,393.316,597.965,392.562Z" transform="translate(-518.32 -386.397)" fill="#badee8"/>
      <path id="Trazado_183562" data-name="Trazado 183562" d="M560.78,399.574l8.538,58.929a8.485,8.485,0,0,0,9.585,7.159l10.3-1.493a8.484,8.484,0,0,0,7.16-9.585l-8.538-58.929a8.485,8.485,0,0,0-9.586-7.159l-4.9.867Z" transform="translate(-505.749 -384.678)" fill="#d9edf4"/>
      <path id="Trazado_183563" data-name="Trazado 183563" d="M560.815,400.4l8.538,58.929a8.5,8.5,0,0,0,9.62,7.154l5.659-.82-11.288-75.627h0C568.72,390.706,560.148,395.795,560.815,400.4Z" transform="translate(-505.748 -385.352)" fill="#e8f6f9"/>
      <ellipse id="Elipse_4839" data-name="Elipse 4839" cx="18.988" cy="16.354" rx="18.988" ry="16.354" transform="matrix(0.984, -0.176, 0.176, 0.984, 34.111, 34.318)" fill="#ffdcb3"/>
      <path id="Trazado_183564" data-name="Trazado 183564" d="M540.239,450.5c2.761,9.3,13.281,17.706,21.806,15.175s15.539-11.89,12.777-21.19-13.478-15.474-22-12.942S537.477,441.2,540.239,450.5Z" transform="translate(-496.991 -402.292)" fill="#ef8d2b"/>
    </g>
    <g id="Grupo_140828" data-name="Grupo 140828" transform="translate(225.429 201.33)">
      <path id="Trazado_183565" data-name="Trazado 183565" d="M467.391,385.253l1.219-13.56a4.3,4.3,0,0,1,4.52-4.036l3.857-1.8c2.268.2,4.212,4.53,3.994,6.954l-.852,9.477c-.42,4.67-4.339,8.169-8.708,7.776l-.3-.027A4.3,4.3,0,0,1,467.391,385.253Z" transform="translate(-389.986 -280.569)" fill="#f79863"/>
      <path id="Trazado_183566" data-name="Trazado 183566" d="M468.5,292.87l-10.347-29.739c-1.659-4.007-6.831-2.483-10.837-.824l-.763.315a7.908,7.908,0,0,0-4.269,10.3s11.244,27,11.448,27.341c0,.2,2.352,29.43,2.352,29.43l15.392-.924S468.913,293.858,468.5,292.87Z" transform="translate(-379.36 -237.012)" fill="#f7c4c4"/>
      <path id="Trazado_183567" data-name="Trazado 183567" d="M352.766,298.522,358,269.034c.5-1.893,1.739-3.944-.338-4.49l-8.5-2.233c-2.077-.546-10.585-2.738-11.082-.845L336.717,294.3c-1.1,1.643-.606,8.287,7.284,8.907C347.021,303.449,352.4,302.164,352.766,298.522Z" transform="translate(-335.742 -237.063)" fill="#f7c4c4"/>
      <path id="Trazado_183568" data-name="Trazado 183568" d="M339.134,310.114l18.742-4.479c3.11-.73,8.753-.838,9.79,3.573l.552,1.214c1.036,4.411-1.467,8.351-4.578,9.081L342.9,326.154s-6.5-2.28-7.539-6.691h0S336.023,310.845,339.134,310.114Z" transform="translate(-335.363 -255.493)" fill="#f4cece"/>
      <path id="Trazado_183569" data-name="Trazado 183569" d="M388.09,310.653c.139,3.142-1.931,5.785-4.624,5.9s-4.989-2.331-5.128-5.473,1.931-5.785,4.624-5.9S387.951,307.511,388.09,310.653Z" transform="translate(-353.143 -255.462)" fill="#ea7f50"/>
      <path id="Trazado_183570" data-name="Trazado 183570" d="M400.483,312.172l-10.175-11.286a2.32,2.32,0,0,0-3.267-.169l-5.264,4.745c-.945.852-.1,3.61.752,4.555l6.448,6.448c1.079,1.2,7.011,2.251,8.207,1.172l3.129-2.2A2.32,2.32,0,0,0,400.483,312.172Z" transform="translate(-354.397 -253.372)" fill="#f7ad6b"/>
      <path id="Trazado_183571" data-name="Trazado 183571" d="M414.765,235.486l-5.133-4.156a10.846,10.846,0,0,1-5.488-5.686c-1.572-3.288-6.631-5.434-10.486-5.264l-29.093,1.288c-4.283.19-9.245,2.657-10.323,6.434-.667,2.334-4.131,4.586-5.6,6.514l-2.49,3.256c.228,5.14,11.136,9.2,16.276,8.969l35.594-1.576C403.158,245.038,414.993,240.626,414.765,235.486Z" transform="translate(-339.826 -220.371)" fill="#f7c4c4"/>
      <path id="Rectángulo_35969" data-name="Rectángulo 35969" d="M13.666,0H62.8A13.666,13.666,0,0,1,76.464,13.666v0A13.666,13.666,0,0,1,62.8,27.332H13.666A13.666,13.666,0,0,1,0,13.666v0A13.666,13.666,0,0,1,13.666,0Z" transform="translate(1.858 16.486) rotate(-2.535)" fill="#ffe9e9"/>
      <ellipse id="Elipse_4840" data-name="Elipse 4840" cx="16.354" cy="18.988" rx="16.354" ry="18.988" transform="matrix(0.926, -0.378, 0.378, 0.926, 18.321, 27.043)" fill="#ffd297"/>
      <path id="Trazado_183572" data-name="Trazado 183572" d="M398.024,285.424c-9.333,2.651-22.307-2.576-25.015-12.11s1.143-21.5,10.476-24.154,20.553,4.03,23.261,13.564S407.357,282.773,398.024,285.424Z" transform="translate(-350.589 -232.041)" fill="#51371b"/>
    </g>
    <g id="Grupo_140829" data-name="Grupo 140829" transform="translate(107.102 385.361)">
      <path id="Trazado_183573" data-name="Trazado 183573" d="M258.165,573.636l-8.961-8a3.916,3.916,0,0,1-.312-5.513l.9-3.848c1.43-1.6,5.611-.807,7.213.623l6.263,5.592a7.544,7.544,0,0,1,.6,10.622l-.191.214A3.917,3.917,0,0,1,258.165,573.636Z" transform="translate(-180.846 -543.028)" fill="#b7765a"/>
      <path id="Trazado_183574" data-name="Trazado 183574" d="M212.833,559.8l1.151-13.107L178.053,534.3c-1.152.142-25.457,25.03-25.457,25.03-2.728,3.371.265,8.416,3.18,10.773l.554.449c2.915,2.358,7.53,1.529,10.258-1.842l16.366-20.225Z" transform="translate(-140.965 -534.303)" fill="#c7cedd"/>
      <path id="Trazado_183575" data-name="Trazado 183575" d="M225.693,642.81l-31.321,6.863c-2.075.31-4.6.078-4.32,1.961l1.151,7.706c.281,1.884,5.15,8.437,7.224,8.127l29.44-10.1c2.334-.62,8.46-2.627,5.95-9.236C232.856,645.6,229.452,641.738,225.693,642.81Z" transform="translate(-156.899 -579.126)" fill="#a5afbf"/>
      <path id="Trazado_183576" data-name="Trazado 183576" d="M237.947,634.716l-8.016-20.676c-1.319-3.432-2.568-9.756,1.359-11.264l1.026-.715c3.927-1.509,8.133.991,9.451,4.424l10.46,22.745c1.318,3.432-.815,7.474-4.742,8.983h0C243.557,639.722,239.266,638.148,237.947,634.716Z" transform="translate(-172.876 -562.155)" fill="#c1c7d3"/>
      <path id="Trazado_183577" data-name="Trazado 183577" d="M217.97,591.2l7.318,9.527a3.916,3.916,0,0,0,5.475.718l2.967-1.837c1.7-1.308,1.545-3.123.925-4.917l-2-7.107-10.586-2.7-3.1,2.146C217.267,588.332,216.661,589.494,217.97,591.2Z" transform="translate(-168.167 -555.23)" fill="#b7765a"/>
      <path id="Trazado_183578" data-name="Trazado 183578" d="M140.454,589.849l-1.172,4.69c.083,2.364-2.964,6.695-4.4,8.426-1.862,2.252-1.706,6.886-.273,9.857l10.82,22.426c1.593,3.3,5.077,6.431,8.195,6.108,1.927-.2,9.542,1.865,11.448,2.425l1.759-.586c3.668-1.77-.42-10.1-2.331-14.057L151.263,601.7C149.352,597.736,144.122,588.079,140.454,589.849Z" transform="translate(-133.513 -557.199)" fill="#7b899e"/>
      <path id="Trazado_183579" data-name="Trazado 183579" d="M165.01,576.843,187.958,624.4a8.594,8.594,0,0,1-3.993,11.44l-5.021,2.4c-4.244,2.048-16.124-3.963-18.173-8.207l-17-34c-2.048-4.244-.141-18.47,4.1-20.518l5.7-2.669A8.594,8.594,0,0,1,165.01,576.843Z" transform="translate(-137.416 -549.903)" fill="#9fa8b7"/>
      <path id="Trazado_183580" data-name="Trazado 183580" d="M168.857,575.984l23.67,49.055c1.85,3.834-.08,8.631-4.288,10.661l-5.149,2.484-30.1-63.137,4.855-2.342C162.052,570.676,167.008,572.151,168.857,575.984Z" transform="translate(-141.572 -549.816)" fill="#bac3d1"/>
      <path id="Trazado_183581" data-name="Trazado 183581" d="M153.154,575.012l4.946-2.386c4.287-2.068,9.307-.624,11.157,3.209l11.9,24.662L168.6,606.638Z" transform="translate(-141.64 -549.77)" fill="#ccd3e2"/>
      <ellipse id="Elipse_4841" data-name="Elipse 4841" cx="18.988" cy="16.354" rx="18.988" ry="16.354" transform="translate(20.058 43.491) rotate(-23.846)" fill="#c49776"/>
      <path id="Trazado_183582" data-name="Trazado 183582" d="M203.036,604.289c2.912,9.255-.869,22.031-9.075,24.613S175,627.555,172.088,618.3s2.256-20.282,10.462-22.864S200.123,595.035,203.036,604.289Z" transform="translate(-149.135 -559.182)" fill="#1c1c1c"/>
      <path id="Trazado_183583" data-name="Trazado 183583" d="M203.035,604.289c-8.5,29.682-29.662-4.785-30.948,14.011-2.912-9.255,2.256-20.282,10.462-22.864S200.123,595.035,203.035,604.289Z" transform="translate(-149.135 -559.182)" fill="#353535"/>
      <path id="Trazado_183584" data-name="Trazado 183584" d="M176.813,624.528c1.483,4.713-.443,11.217-4.621,12.532s-9.654-.685-11.137-5.4,1.148-10.327,5.327-11.642S175.33,619.815,176.813,624.528Z" transform="translate(-144.737 -569.559)" fill="#595959"/>
    </g>
    <g id="Grupo_140830" data-name="Grupo 140830" transform="translate(285.931 387.505)">
      <path id="Trazado_183585" data-name="Trazado 183585" d="M450.332,641.924l12.225-16.4c2.273-2.564,7.047-6.616,4.483-8.888l-.556-.864c-2.564-2.273-6.006-.61-8.279,1.954l-17.2,15.935a6.247,6.247,0,0,0,.53,8.792h0A6.247,6.247,0,0,0,450.332,641.924Z" transform="translate(-438.935 -569.714)" fill="#ffd297"/>
      <path id="Trazado_183586" data-name="Trazado 183586" d="M493.176,605.939l-7.765,8.172c-.228.228-5.634,2.573-5.862,2.345L474.329,611a.588.588,0,0,1,0-.829l11.155-11.151a1.134,1.134,0,0,1,1.6,0l6.094,6.095A.589.589,0,0,1,493.176,605.939Z" transform="translate(-453.297 -563.087)" fill="#ffd297"/>
      <path id="Trazado_183587" data-name="Trazado 183587" d="M471.108,546.19l13.7,5.119a.588.588,0,0,0,.759-.336l3.3-8.546a.589.589,0,0,0-.336-.759l-9.8-3.685c-.58-.224-7.4,1.179-7.621,1.759l-1.759,4.1C469.234,544.146,470.808,546.074,471.108,546.19Z" transform="translate(-451.305 -537.959)" fill="#ffc580"/>
      <path id="Trazado_183588" data-name="Trazado 183588" d="M454.931,639.4c2.263,2.732,2.862,10.67-3.473,11.218.131,12.288-9.277,4.319-11.668,1.324-2.214-2.772-1.471-7.854,2.711-11.318S452.668,636.667,454.931,639.4Z" transform="translate(-438.571 -579.207)" fill="#8dc8e2"/>
      <path id="Trazado_183589" data-name="Trazado 183589" d="M454.353,646.836l25.243,15.4a3.455,3.455,0,0,1,1.147,4.735l-4.037,6.617a3.455,3.455,0,0,1-4.735,1.147l-25.243-15.4c-1.845-.453-6.052-5.264-1.311-10.422C447.23,646.939,451.626,644.584,454.353,646.836Z" transform="translate(-440.503 -582.631)" fill="#9ad1ef"/>
      <path id="Trazado_183590" data-name="Trazado 183590" d="M497.55,546.572a5.372,5.372,0,0,1,6.464,3.99c.643,2.861-1.522,4.313-4.449,4.971s-5.505.273-6.149-2.589A5.372,5.372,0,0,1,497.55,546.572Z" transform="translate(-461.213 -541.467)" fill="#725c54"/>
      <path id="Trazado_183591" data-name="Trazado 183591" d="M525.542,555.886l-20.332-6.323c-2.923-1.057-6.663-1.488-7.828,1.734h0c-1.165,3.222-.1,4.786,2.822,5.843l20.85,9.341c2.922,1.057,6.267-.715,7.432-3.936h0C529.65,559.323,528.464,556.942,525.542,555.886Z" transform="translate(-462.714 -542.439)" fill="#ffc580"/>
      <path id="Trazado_183592" data-name="Trazado 183592" d="M536.634,558.288l-6.837-2.473a6.247,6.247,0,0,0-7.976,3.74h0a6.247,6.247,0,0,0,3.739,7.976L532.4,570a6.247,6.247,0,0,0,7.976-3.739h0A6.247,6.247,0,0,0,536.634,558.288Z" transform="translate(-472.866 -545.195)" fill="#77b5c6"/>
      <path id="Trazado_183593" data-name="Trazado 183593" d="M553.528,588.39l-8.515-22.845a7.343,7.343,0,0,0-9.417-4.3h0a7.342,7.342,0,0,0-4.3,9.417l8.514,22.845a7.342,7.342,0,0,0,9.417,4.3h0A7.343,7.343,0,0,0,553.528,588.39Z" transform="translate(-476.749 -547.403)" fill="#9ad1ef"/>
      <rect id="Rectángulo_35970" data-name="Rectángulo 35970" width="48.232" height="23.829" rx="11.914" transform="translate(19.809 68.9) rotate(-50.123)" fill="#87c2d6"/>
      <path id="Trazado_183594" data-name="Trazado 183594" d="M522.858,602.77l1.1.92a11.229,11.229,0,0,1,1.414,15.771l-8.329,9.97L498.9,613.988l8.191-9.8A11.229,11.229,0,0,1,522.858,602.77Z" transform="translate(-463.533 -563.705)" fill="#63adc1"/>
      <rect id="Rectángulo_35971" data-name="Rectángulo 35971" width="22.106" height="47.945" rx="11.053" transform="matrix(-0.734, -0.679, 0.679, -0.734, 48.774, 94.534)" fill="#4592ad"/>
      <path id="Trazado_183595" data-name="Trazado 183595" d="M532.766,603.712l-2.371-1.86h0l-2.753-2.3a8.279,8.279,0,0,0-11.627,1.036L499.485,620.35,483.138,639.9c-2.913,3.482-3.1,9.56.386,12.472l6.265,3.851a8.277,8.277,0,0,0,11.626-1.035l16.255-19.435,14.155-16.566a12.707,12.707,0,0,0,.941-15.47Z" transform="translate(-456.1 -562.653)" fill="#9ad1ef"/>
      <ellipse id="Elipse_4842" data-name="Elipse 4842" cx="16.583" cy="17.894" rx="16.583" ry="17.894" transform="matrix(0.679, -0.734, 0.734, 0.679, 22.56, 62.488)" fill="#ffd297"/>
      <path id="Trazado_183596" data-name="Trazado 183596" d="M526.347,627.174a10.691,10.691,0,0,0-2.967-1.9,16.055,16.055,0,0,0-2.858-3.65c-6.886-6.37-17.894-5.669-24.587,1.566s-6.537,18.265.348,24.635a16.1,16.1,0,0,0,3.507,2.4,10.74,10.74,0,0,0,2.311,3.143,10.894,10.894,0,0,0,15.35-.595l9.49-10.255A10.894,10.894,0,0,0,526.347,627.174Z" transform="translate(-460.272 -570.778)" fill="#363c49"/>
      <path id="Trazado_183597" data-name="Trazado 183597" d="M499.794,546.188a2.919,2.919,0,1,1-3.477-2.161A2.9,2.9,0,0,1,499.794,546.188Z" transform="translate(-461.519 -540.44)" fill="#54433e"/>
      <path id="Trazado_183598" data-name="Trazado 183598" d="M499.226,545.979a2.53,2.53,0,1,1-3.014-1.872A2.509,2.509,0,0,1,499.226,545.979Z" transform="translate(-461.602 -540.477)" fill="#999"/>
    </g>
  </g>
</svg>
