<svg xmlns="http://www.w3.org/2000/svg" xmlns:xlink="http://www.w3.org/1999/xlink" width="420" height="383.956" viewBox="0 0 420 383.956">
  <defs>
    <linearGradient id="linear-gradient" x1="0.144" y1="1.913" x2="0.676" y2="0.432" gradientUnits="objectBoundingBox">
      <stop offset="0" stop-color="#404040"/>
      <stop offset="1" stop-color="#333"/>
    </linearGradient>
    <linearGradient id="linear-gradient-2" x1="0.367" y1="0.548" x2="0.937" y2="0.284" xlink:href="#linear-gradient"/>
    <linearGradient id="linear-gradient-3" x1="0.047" y1="0.559" x2="0.967" y2="0.427" xlink:href="#linear-gradient"/>
    <linearGradient id="linear-gradient-4" x1="0" y1="0.5" x2="1" y2="0.5" xlink:href="#linear-gradient"/>
    <linearGradient id="linear-gradient-9" y1="0.5" x2="1" y2="0.5" gradientUnits="objectBoundingBox">
      <stop offset="0" stop-color="#b78a71"/>
      <stop offset="0.232" stop-color="#c8977b"/>
      <stop offset="0.726" stop-color="#e7ae8e"/>
      <stop offset="1" stop-color="#f4b896"/>
    </linearGradient>
    <linearGradient id="linear-gradient-10" x1="10.579" y1="14.584" x2="11.293" y2="15.093" gradientUnits="objectBoundingBox">
      <stop offset="0" stop-color="gray"/>
      <stop offset="1" stop-color="#666"/>
    </linearGradient>
    <linearGradient id="linear-gradient-11" x1="10.255" y1="13.452" x2="10.973" y2="13.961" xlink:href="#linear-gradient-10"/>
    <linearGradient id="linear-gradient-12" x1="31.506" y1="25.125" x2="32.63" y2="25.125" gradientUnits="objectBoundingBox">
      <stop offset="0" stop-color="#7a2c29"/>
      <stop offset="1" stop-color="#ad3e3b"/>
    </linearGradient>
    <linearGradient id="linear-gradient-13" x1="44.897" y1="0.5" x2="45.897" y2="0.5" xlink:href="#linear-gradient-9"/>
    <linearGradient id="linear-gradient-14" y1="0.5" x2="1" y2="0.5" gradientUnits="objectBoundingBox">
      <stop offset="0" stop-color="#563482"/>
      <stop offset="0.307" stop-color="#623b94"/>
      <stop offset="0.711" stop-color="#6e42a6"/>
      <stop offset="1" stop-color="#7345ad"/>
    </linearGradient>
    <linearGradient id="linear-gradient-15" x1="-0.463" y1="0.751" x2="1.037" y2="0.163" gradientUnits="objectBoundingBox">
      <stop offset="0" stop-color="#2a1b40"/>
      <stop offset="1" stop-color="#201430"/>
    </linearGradient>
    <linearGradient id="linear-gradient-16" x1="458.348" y1="0.5" x2="459.348" y2="0.5" gradientUnits="objectBoundingBox">
      <stop offset="0.002" stop-color="#fff"/>
      <stop offset="1" stop-color="#d6d6d6"/>
    </linearGradient>
    <linearGradient id="linear-gradient-17" x1="29.888" y1="-47.938" x2="29.99" y2="-47.416" xlink:href="#linear-gradient-16"/>
    <linearGradient id="linear-gradient-19" y1="0.5" x2="1" y2="0.5" gradientUnits="objectBoundingBox">
      <stop offset="0" stop-color="#8f6abd"/>
      <stop offset="1" stop-color="#7345ad"/>
    </linearGradient>
    <linearGradient id="linear-gradient-20" x1="-158.953" y1="1.041" x2="-158.533" y2="0.071" gradientUnits="objectBoundingBox">
      <stop offset="0.002" stop-color="#fff"/>
      <stop offset="1" stop-color="#cfcfcf"/>
    </linearGradient>
    <linearGradient id="linear-gradient-21" x1="-133.721" y1="1.095" x2="-133.829" y2="0.231" xlink:href="#linear-gradient-20"/>
    <linearGradient id="linear-gradient-22" x1="-126.158" y1="1.158" x2="-125.428" y2="0.344" gradientUnits="objectBoundingBox">
      <stop offset="0.002" stop-color="#fff"/>
      <stop offset="1" stop-color="#d4d4d4"/>
    </linearGradient>
    <linearGradient id="linear-gradient-23" x1="-119.079" y1="0.536" x2="-120.072" y2="0.484" gradientUnits="objectBoundingBox">
      <stop offset="0.002" stop-color="#fff"/>
      <stop offset="1" stop-color="#e8e8e8"/>
    </linearGradient>
    <linearGradient id="linear-gradient-25" x1="27.236" y1="0.5" x2="28.236" y2="0.5" gradientUnits="objectBoundingBox">
      <stop offset="0" stop-color="#bf566f"/>
      <stop offset="0.102" stop-color="#c85a74"/>
      <stop offset="0.465" stop-color="#e66785"/>
      <stop offset="0.777" stop-color="#f87090"/>
      <stop offset="1" stop-color="#ff7394"/>
    </linearGradient>
  </defs>
  <g id="img9" transform="translate(-217.775 41.726)">
    <g id="Grupo_140535" data-name="Grupo 140535" transform="translate(217.775)">
      <g id="Grupo_140485" data-name="Grupo 140485" transform="translate(43.511 -41.726)">
        <rect id="Rectángulo_35884" data-name="Rectángulo 35884" width="1.449" height="83.083" transform="translate(0)" fill="#82c6ff"/>
      </g>
      <g id="Grupo_140486" data-name="Grupo 140486" transform="translate(180.601 -41.726)">
        <rect id="Rectángulo_35885" data-name="Rectángulo 35885" width="3.449" height="93.832" transform="translate(-1)" fill="#82c6ff"/>
      </g>
      <g id="Grupo_140487" data-name="Grupo 140487" transform="translate(368.483 -41.726)">
        <rect id="Rectángulo_35886" data-name="Rectángulo 35886" width="3.449" height="77.858" transform="translate(-1)" fill="#82c6ff"/>
      </g>
      <g id="Grupo_140488" data-name="Grupo 140488" transform="translate(267.578 -41.726)">
        <rect id="Rectángulo_35887" data-name="Rectángulo 35887" width="1.449" height="161.953" transform="translate(0)" fill="#82c6ff"/>
      </g>
      <g id="Grupo_140489" data-name="Grupo 140489" transform="translate(121.541 -41.726)">
        <rect id="Rectángulo_35888" data-name="Rectángulo 35888" width="1.449" height="218.345" transform="translate(0)" fill="#82c6ff"/>
      </g>
      <g id="Grupo_140490" data-name="Grupo 140490" transform="translate(307.171 245.781)">
        <path id="Trazado_182726" data-name="Trazado 182726" d="M1768.784,1478.009l27.346-.778,1.042,2.27-28.017.778Z" transform="translate(-1754.984 -1417.308)" fill="#82c6ff"/>
        <path id="Trazado_182727" data-name="Trazado 182727" d="M1882.149,1187.668l-39.323,88.344h3.126l38.541-87.209Z" transform="translate(-1813.703 -1187.668)" fill="#82c6ff"/>
        <path id="Trazado_182728" data-name="Trazado 182728" d="M1906.569,1187.668l36.48,94.094H1940l-36.558-94.094Z" transform="translate(-1861.775 -1187.668)" fill="#b4ddff"/>
        <path id="Trazado_182729" data-name="Trazado 182729" d="M2040.753,1187.668l36.089,92.453h-3.048l-36.167-92.453Z" transform="translate(-1968.19 -1187.668)" fill="#b4ddff"/>
        <path id="Trazado_182730" data-name="Trazado 182730" d="M1894.458,1187.668h-2.344l36.245,94.094h2.657Z" transform="translate(-1852.79 -1187.668)" fill="#82c6ff"/>
        <path id="Trazado_182731" data-name="Trazado 182731" d="M2028.242,1187.668h-2.449l36.037,92.453h2.579Z" transform="translate(-1958.806 -1187.668)" fill="#82c6ff"/>
        <path id="Trazado_182732" data-name="Trazado 182732" d="M1944.2,1254.366h26.526l1.042,2.27h-27.2Z" transform="translate(-1894.099 -1240.564)" fill="#b4ddff"/>
        <path id="Trazado_182733" data-name="Trazado 182733" d="M1918.548,1187.668h26.526l1.042,2.27h-27.2Z" transform="translate(-1873.755 -1187.668)" fill="#b4ddff"/>
        <path id="Trazado_182734" data-name="Trazado 182734" d="M1970.474,1321.25l26.247-.778,1.042,2.27-26.918.778Z" transform="translate(-1914.935 -1292.99)" fill="#b4ddff"/>
        <path id="Trazado_182735" data-name="Trazado 182735" d="M2000.654,1400.177l26.247-.778,1.042,2.27-26.919.778Z" transform="translate(-1938.869 -1355.583)" fill="#b4ddff"/>
        <path id="Trazado_182736" data-name="Trazado 182736" d="M2018.808,1469.687l28.075-.778,1.095,2.27-28.78.777Z" transform="translate(-1953.267 -1410.708)" fill="#b4ddff"/>
        <path id="Trazado_182737" data-name="Trazado 182737" d="M2050.51,1548.614l28.075-.778,1.094,2.27-28.78.778Z" transform="translate(-1978.408 -1473.302)" fill="#b4ddff"/>
        <path id="Trazado_182738" data-name="Trazado 182738" d="M1741.419,1187.668l-39.323,88.344h3.126l38.541-87.209Z" transform="translate(-1702.096 -1187.668)" fill="#82c6ff"/>
      </g>
      <g id="Grupo_140492" data-name="Grupo 140492" transform="translate(0 80.735)">
        <path id="Trazado_182739" data-name="Trazado 182739" d="M306.246,611.64a44.236,44.236,0,1,1-72.976-33.762,29.564,29.564,0,0,0,10.545-22.366v-.574h36.39v.574a29.564,29.564,0,0,0,10.545,22.366A44.385,44.385,0,0,1,306.246,611.64Z" transform="translate(-217.775 -520.833)" fill="#ffd44b"/>
        <g id="Grupo_140491" data-name="Grupo 140491" transform="translate(22.113 31.078)">
          <path id="Trazado_182740" data-name="Trazado 182740" d="M336.25,540.308l2.315.678-11.086,37.793c-.01.027-1.094,2.995.187,5.148.75,1.261,2.224,2.055,4.382,2.359a4.079,4.079,0,0,0,3.409-.82,7.657,7.657,0,0,1-.734-1.037c-1.848-3.136-1.33-7.114-.325-9.567a2.768,2.768,0,0,1,5.264.516c.47,2.336.674,6.587-.946,9.725a8.036,8.036,0,0,0,3.152.979,7.853,7.853,0,0,0,2.7-.1,7.3,7.3,0,0,1-.493-.686c-2.181-3.44-1.525-8.786.334-11.767a2.77,2.77,0,0,1,4.694,0c1.858,2.981,2.515,8.328.333,11.767a7.277,7.277,0,0,1-.493.686,7.855,7.855,0,0,0,2.7.1,8.033,8.033,0,0,0,3.152-.979c-1.62-3.138-1.416-7.389-.945-9.725a2.768,2.768,0,0,1,5.264-.516c1,2.452,1.524,6.43-.324,9.566a7.581,7.581,0,0,1-.734,1.038,4.075,4.075,0,0,0,3.409.82c2.164-.305,3.64-1.1,4.388-2.369,1.264-2.14.192-5.108.181-5.138l-.03-.09-11.055-37.7,2.315-.678L368.3,577.973c.179.5,1.4,4.165-.377,7.171-1.14,1.931-3.2,3.119-6.128,3.532a6.422,6.422,0,0,1-5.581-1.62,10.2,10.2,0,0,1-4.3,1.422,8.917,8.917,0,0,1-5.167-.726,8.935,8.935,0,0,1-5.166.726,10.2,10.2,0,0,1-4.3-1.422,6.422,6.422,0,0,1-5.581,1.62c-2.926-.413-4.988-1.6-6.128-3.532-1.775-3.006-.556-6.673-.377-7.171Zm10.5,44.5a4.557,4.557,0,0,0,.643-.8c1.627-2.565,1.136-6.827-.343-9.2a.358.358,0,0,0-.6,0c-1.479,2.372-1.97,6.634-.344,9.2A4.536,4.536,0,0,0,346.754,584.809Zm-9.883-1.491a14.36,14.36,0,0,0,.427-7.464.329.329,0,0,0-.32-.275.3.3,0,0,0-.347.2c-.859,2.1-1.139,5.206.171,7.428C336.824,583.243,336.847,583.28,336.871,583.318Zm19.766,0c.024-.038.047-.075.069-.114,1.309-2.223,1.029-5.332.17-7.427a.311.311,0,0,0-.347-.2.331.331,0,0,0-.321.276A14.359,14.359,0,0,0,356.637,583.318Z" transform="translate(-324.632 -540.308)" fill="#fcb530"/>
        </g>
        <path id="Trazado_182741" data-name="Trazado 182741" d="M412.8,397.31v-.567a6.613,6.613,0,1,0-13.227,0v.567Z" transform="translate(-361.952 -390.13)" fill="#6295bf"/>
        <path id="Trazado_182742" data-name="Trazado 182742" d="M331.821,442.39a4.865,4.865,0,0,0,1.856,9.363h32.783a4.865,4.865,0,0,0,1.856-9.363,4.858,4.858,0,0,0,2.253-4.1h0a4.864,4.864,0,0,0-3.793-4.743,4.861,4.861,0,0,0-2.962-8.72H336.323a4.861,4.861,0,0,0-2.962,8.72,4.865,4.865,0,0,0-3.793,4.743h0A4.858,4.858,0,0,0,331.821,442.39Z" transform="translate(-305.834 -417.647)" fill="#82c6ff"/>
      </g>
      <g id="Grupo_140494" data-name="Grupo 140494" transform="translate(145.231 42.832)">
        <path id="Trazado_182743" data-name="Trazado 182743" d="M991.752,387.716a36.094,36.094,0,1,1-59.544-27.548,24.122,24.122,0,0,0,8.6-18.249v-.468H970.5v.468a24.123,24.123,0,0,0,8.6,18.249A36.214,36.214,0,0,1,991.752,387.716Z" transform="translate(-919.565 -313.622)" fill="#ffd44b"/>
        <g id="Grupo_140493" data-name="Grupo 140493" transform="translate(18.043 25.358)">
          <path id="Trazado_182744" data-name="Trazado 182744" d="M1016.234,329.513l1.889.554-9.045,30.837c-.008.022-.893,2.443.152,4.2a4.638,4.638,0,0,0,3.575,1.925,3.328,3.328,0,0,0,2.782-.669,6.267,6.267,0,0,1-.6-.846,9.214,9.214,0,0,1-.265-7.806,2.259,2.259,0,0,1,4.3.421c.384,1.906.55,5.375-.772,7.935a6.56,6.56,0,0,0,2.572.8,6.409,6.409,0,0,0,2.2-.081,5.925,5.925,0,0,1-.4-.56c-1.78-2.807-1.245-7.169.272-9.6a2.26,2.26,0,0,1,3.83,0c1.517,2.433,2.052,6.795.272,9.6a5.884,5.884,0,0,1-.4.56,6.411,6.411,0,0,0,2.2.081,6.557,6.557,0,0,0,2.572-.8c-1.322-2.561-1.155-6.029-.771-7.935a2.259,2.259,0,0,1,4.3-.421,9.213,9.213,0,0,1-.265,7.805,6.18,6.18,0,0,1-.6.847,3.326,3.326,0,0,0,2.782.669,4.629,4.629,0,0,0,3.58-1.934c1.031-1.746.157-4.168.148-4.192l-.025-.073-9.02-30.764,1.889-.554,9.011,30.732c.146.406,1.141,3.4-.308,5.851-.93,1.575-2.612,2.545-5,2.882a5.24,5.24,0,0,1-4.554-1.322,8.319,8.319,0,0,1-3.505,1.16,15.291,15.291,0,0,0-8.43,0,8.319,8.319,0,0,1-3.5-1.16,5.24,5.24,0,0,1-4.554,1.322c-2.388-.337-4.07-1.306-5-2.882-1.448-2.452-.454-5.445-.308-5.851Zm8.571,36.31a3.7,3.7,0,0,0,.525-.655c1.328-2.092.927-5.57-.28-7.505a.292.292,0,0,0-.489,0c-1.207,1.936-1.607,5.413-.28,7.506A3.687,3.687,0,0,0,1024.8,365.823Zm-8.064-1.217a11.715,11.715,0,0,0,.349-6.09.268.268,0,0,0-.261-.224.245.245,0,0,0-.283.161,7.263,7.263,0,0,0,.139,6.061Zm16.128,0,.057-.093a7.264,7.264,0,0,0,.139-6.06.254.254,0,0,0-.283-.161.27.27,0,0,0-.262.225A11.717,11.717,0,0,0,1032.869,364.607Z" transform="translate(-1006.754 -329.513)" fill="#fcb530"/>
        </g>
        <path id="Trazado_182745" data-name="Trazado 182745" d="M1078.7,212.835v-.463a5.4,5.4,0,0,0-10.792,0v.463Z" transform="translate(-1037.205 -206.976)" fill="#6295bf"/>
        <path id="Trazado_182746" data-name="Trazado 182746" d="M1012.62,249.618a3.97,3.97,0,0,0,1.514,7.639h26.749a3.97,3.97,0,0,0,1.515-7.639,3.964,3.964,0,0,0,1.839-3.346h0a3.97,3.97,0,0,0-3.1-3.87,3.967,3.967,0,0,0-2.416-7.115h-22.432a3.967,3.967,0,0,0-2.417,7.115,3.969,3.969,0,0,0-3.1,3.87h0A3.963,3.963,0,0,0,1012.62,249.618Z" transform="translate(-991.416 -229.428)" fill="#82c6ff"/>
      </g>
      <g id="Grupo_140496" data-name="Grupo 140496" transform="translate(318.414 25.667)">
        <path id="Trazado_182747" data-name="Trazado 182747" d="M1858.01,378.377a50.793,50.793,0,1,1-83.794-38.766,33.947,33.947,0,0,0,12.108-25.682v-.659h41.785v.659a33.947,33.947,0,0,0,12.109,25.682A50.964,50.964,0,0,1,1858.01,378.377Z" transform="translate(-1756.424 -274.108)" fill="#ffd44b"/>
        <g id="Grupo_140495" data-name="Grupo 140495" transform="translate(25.392 35.686)">
          <path id="Trazado_182748" data-name="Trazado 182748" d="M1892.462,296.47l2.658.779-12.729,43.4c-.011.031-1.257,3.439.214,5.912.861,1.448,2.554,2.359,5.031,2.709a4.683,4.683,0,0,0,3.915-.942,8.75,8.75,0,0,1-.843-1.191c-2.122-3.6-1.527-8.168-.373-10.985a3.178,3.178,0,0,1,6.045.592c.54,2.682.774,7.563-1.085,11.167a9.22,9.22,0,0,0,3.619,1.124,9.011,9.011,0,0,0,3.1-.114,8.434,8.434,0,0,1-.566-.788c-2.5-3.95-1.751-10.089.383-13.511a3.181,3.181,0,0,1,5.39,0c2.134,3.423,2.887,9.562.383,13.511a8.389,8.389,0,0,1-.566.788,9.014,9.014,0,0,0,3.1.114,9.22,9.22,0,0,0,3.619-1.124c-1.86-3.6-1.625-8.485-1.085-11.167a3.178,3.178,0,0,1,6.044-.592c1.154,2.815,1.75,7.383-.372,10.984a8.729,8.729,0,0,1-.843,1.192,4.678,4.678,0,0,0,3.914.942c2.485-.351,4.18-1.266,5.039-2.721,1.451-2.457.22-5.866.208-5.9l-.034-.1-12.694-43.292,2.658-.779,12.681,43.248c.205.572,1.6,4.783-.433,8.234-1.309,2.217-3.676,3.581-7.036,4.055a7.375,7.375,0,0,1-6.408-1.86,11.706,11.706,0,0,1-4.932,1.633,21.514,21.514,0,0,0-11.864,0,11.707,11.707,0,0,1-4.932-1.633,7.374,7.374,0,0,1-6.409,1.86c-3.36-.474-5.727-1.838-7.036-4.055-2.038-3.451-.639-7.663-.433-8.234Zm12.061,51.1a5.214,5.214,0,0,0,.739-.922c1.868-2.944,1.3-7.839-.394-10.562a.411.411,0,0,0-.689,0c-1.7,2.724-2.262,7.617-.394,10.563A5.2,5.2,0,0,0,1904.523,347.568Zm-11.348-1.712a16.492,16.492,0,0,0,.491-8.57.378.378,0,0,0-.367-.316.345.345,0,0,0-.4.226c-.986,2.406-1.308,5.977.2,8.529C1893.122,345.77,1893.148,345.813,1893.175,345.856Zm22.7,0c.027-.043.054-.086.08-.131,1.5-2.552,1.182-6.122.2-8.528a.358.358,0,0,0-.4-.227.38.38,0,0,0-.368.317A16.488,16.488,0,0,0,1915.872,345.856Z" transform="translate(-1879.122 -296.47)" fill="#fcb530"/>
        </g>
        <path id="Trazado_182749" data-name="Trazado 182749" d="M1980.361,132.274v-.651a7.594,7.594,0,0,0-15.188,0v.651Z" transform="translate(-1921.974 -124.029)" fill="#6295bf"/>
        <path id="Trazado_182750" data-name="Trazado 182750" d="M1887.377,184.037a5.586,5.586,0,0,0,2.131,10.751h37.643a5.586,5.586,0,0,0,2.131-10.751,5.578,5.578,0,0,0,2.588-4.708h0a5.586,5.586,0,0,0-4.356-5.446,5.582,5.582,0,0,0-3.4-10.012h-31.568a5.582,5.582,0,0,0-3.4,10.012,5.586,5.586,0,0,0-4.356,5.446h0A5.578,5.578,0,0,0,1887.377,184.037Z" transform="translate(-1857.537 -155.625)" fill="#82c6ff"/>
      </g>
      <g id="Grupo_140498" data-name="Grupo 140498" transform="translate(226.003 116.953)">
        <path id="Trazado_182751" data-name="Trazado 182751" d="M1394.474,776.956a42.3,42.3,0,1,1-69.782-32.284,28.27,28.27,0,0,0,10.084-21.387v-.549h34.8v.549a28.269,28.269,0,0,0,10.084,21.387A42.441,42.441,0,0,1,1394.474,776.956Z" transform="translate(-1309.875 -690.124)" fill="#ffd44b"/>
        <g id="Grupo_140497" data-name="Grupo 140497" transform="translate(21.145 29.718)">
          <path id="Trazado_182752" data-name="Trazado 182752" d="M1423.164,708.747l2.214.649-10.6,36.138c-.01.026-1.046,2.863.178,4.923.718,1.206,2.127,1.965,4.19,2.256a3.9,3.9,0,0,0,3.26-.784,7.307,7.307,0,0,1-.7-.992c-1.767-3-1.272-6.8-.311-9.148a2.647,2.647,0,0,1,5.033.493c.45,2.234.645,6.3-.9,9.3a7.676,7.676,0,0,0,3.014.936,7.5,7.5,0,0,0,2.579-.095,7.009,7.009,0,0,1-.472-.656c-2.086-3.289-1.458-8.4.319-11.252a2.648,2.648,0,0,1,4.488,0c1.777,2.851,2.4,7.963.319,11.252a6.874,6.874,0,0,1-.471.656,7.5,7.5,0,0,0,2.579.095,7.677,7.677,0,0,0,3.014-.936c-1.549-3-1.354-7.066-.9-9.3a2.647,2.647,0,0,1,5.034-.493c.961,2.345,1.457,6.148-.31,9.147a7.261,7.261,0,0,1-.7.992,3.9,3.9,0,0,0,3.26.784c2.069-.292,3.481-1.054,4.2-2.266,1.209-2.046.184-4.885.173-4.913l-.029-.086L1441.04,709.4l2.213-.649,10.561,36.016c.171.476,1.337,3.983-.361,6.857-1.09,1.846-3.061,2.982-5.86,3.377a6.141,6.141,0,0,1-5.337-1.549,9.751,9.751,0,0,1-4.108,1.36,17.917,17.917,0,0,0-9.88,0,9.752,9.752,0,0,1-4.108-1.36,6.14,6.14,0,0,1-5.337,1.549c-2.8-.395-4.769-1.531-5.859-3.377-1.7-2.874-.532-6.381-.361-6.857Zm10.044,42.553a4.331,4.331,0,0,0,.615-.768c1.556-2.452,1.086-6.528-.328-8.8a.342.342,0,0,0-.574,0c-1.414,2.268-1.883,6.344-.328,8.8A4.339,4.339,0,0,0,1433.209,751.3Zm-9.451-1.426a13.731,13.731,0,0,0,.409-7.137.315.315,0,0,0-.306-.263.287.287,0,0,0-.332.189c-.822,2-1.09,4.977.163,7.1C1423.714,749.8,1423.735,749.838,1423.758,749.874Zm18.9,0,.067-.109a8.515,8.515,0,0,0,.163-7.1.3.3,0,0,0-.332-.189.317.317,0,0,0-.307.263A13.734,13.734,0,0,0,1442.659,749.874Z" transform="translate(-1412.055 -708.747)" fill="#fcb530"/>
        </g>
        <path id="Trazado_182753" data-name="Trazado 182753" d="M1496.365,572.008v-.542a6.324,6.324,0,1,0-12.648,0v.542Z" transform="translate(-1447.741 -565.142)" fill="#6295bf"/>
        <path id="Trazado_182754" data-name="Trazado 182754" d="M1418.93,615.115a4.652,4.652,0,0,0,1.775,8.953h31.348a4.652,4.652,0,0,0,1.775-8.953,4.646,4.646,0,0,0,2.155-3.921h0a4.652,4.652,0,0,0-3.627-4.535,4.649,4.649,0,0,0-2.832-8.338h-26.289a4.649,4.649,0,0,0-2.832,8.338,4.652,4.652,0,0,0-3.628,4.535h0A4.646,4.646,0,0,0,1418.93,615.115Z" transform="translate(-1394.079 -591.454)" fill="#82c6ff"/>
      </g>
      <g id="Grupo_140500" data-name="Grupo 140500" transform="translate(74.764 176.619)">
        <path id="Trazado_182755" data-name="Trazado 182755" d="M674.054,1091.324a47.5,47.5,0,1,1-78.363-36.254,31.747,31.747,0,0,0,11.323-24.017v-.616h39.077v.616a31.747,31.747,0,0,0,11.324,24.017A47.66,47.66,0,0,1,674.054,1091.324Z" transform="translate(-579.052 -993.813)" fill="#ffd44b"/>
        <g id="Grupo_140499" data-name="Grupo 140499" transform="translate(23.746 33.372)">
          <path id="Trazado_182756" data-name="Trazado 182756" d="M706.272,1014.726l2.486.728-11.9,40.582c-.01.029-1.175,3.216.2,5.529.806,1.354,2.388,2.207,4.706,2.534a4.379,4.379,0,0,0,3.661-.881,8.224,8.224,0,0,1-.788-1.114c-1.984-3.367-1.428-7.639-.349-10.273a2.973,2.973,0,0,1,5.653.554c.5,2.508.724,7.073-1.015,10.443a8.631,8.631,0,0,0,3.385,1.052,8.432,8.432,0,0,0,2.9-.106,7.841,7.841,0,0,1-.53-.737c-2.342-3.694-1.638-9.435.358-12.635a2.974,2.974,0,0,1,5.04,0c2,3.2,2.7,8.942.358,12.635a7.8,7.8,0,0,1-.529.737,8.434,8.434,0,0,0,2.9.106,8.629,8.629,0,0,0,3.384-1.052c-1.739-3.37-1.52-7.935-1.015-10.443a2.972,2.972,0,0,1,5.653-.554c1.079,2.633,1.636,6.9-.348,10.272a8.135,8.135,0,0,1-.789,1.115,4.376,4.376,0,0,0,3.661.881c2.324-.328,3.909-1.183,4.712-2.544,1.357-2.3.206-5.485.194-5.518l-.032-.1-11.871-40.486,2.485-.728,11.859,40.445c.192.534,1.5,4.473-.405,7.7-1.224,2.073-3.438,3.349-6.58,3.792a6.9,6.9,0,0,1-5.993-1.739,10.949,10.949,0,0,1-4.613,1.527,9.574,9.574,0,0,1-5.548-.78,9.594,9.594,0,0,1-5.547.78,10.949,10.949,0,0,1-4.613-1.527,6.9,6.9,0,0,1-5.993,1.739c-3.142-.444-5.356-1.719-6.58-3.792-1.906-3.227-.6-7.166-.405-7.7Zm11.279,47.786a4.866,4.866,0,0,0,.691-.863c1.747-2.754,1.22-7.331-.369-9.877a.384.384,0,0,0-.644,0c-1.589,2.547-2.116,7.124-.369,9.878A4.848,4.848,0,0,0,717.552,1062.512Zm-10.613-1.6a15.42,15.42,0,0,0,.459-8.015.354.354,0,0,0-.344-.3.323.323,0,0,0-.373.212c-.922,2.25-1.223,5.59.183,7.976C706.889,1060.83,706.914,1060.871,706.939,1060.911Zm21.225,0q.038-.06.075-.122c1.406-2.387,1.1-5.726.183-7.975a.334.334,0,0,0-.372-.213.356.356,0,0,0-.345.3A15.419,15.419,0,0,0,728.164,1060.911Z" transform="translate(-693.797 -1014.726)" fill="#fcb530"/>
        </g>
        <path id="Trazado_182757" data-name="Trazado 182757" d="M788.474,861.173v-.609a7.1,7.1,0,0,0-14.2,0v.609Z" transform="translate(-733.872 -853.463)" fill="#6295bf"/>
        <path id="Trazado_182758" data-name="Trazado 182758" d="M701.516,909.581a5.224,5.224,0,0,0,1.993,10.054h35.2a5.224,5.224,0,0,0,1.993-10.054,5.217,5.217,0,0,0,2.42-4.4h0a5.224,5.224,0,0,0-4.073-5.093,5.22,5.22,0,0,0-3.18-9.363H706.35a5.22,5.22,0,0,0-3.18,9.363,5.224,5.224,0,0,0-4.073,5.093h0A5.217,5.217,0,0,0,701.516,909.581Z" transform="translate(-673.611 -883.011)" fill="#82c6ff"/>
      </g>
      <g id="Grupo_140508" data-name="Grupo 140508" transform="translate(155.919 214.126)">
        <path id="Trazado_182759" data-name="Trazado 182759" d="M1059.439,1309.565c-7.126.319-26.577,2.4-26.577,2.4,7.563-1.452,11.649-3.744,12.967-5.348.683-.832,1.656-4.863,2.241-9.651a18.052,18.052,0,0,0,6.359-.2C1054.852,1302.193,1056.118,1307.265,1059.439,1309.565Z" transform="translate(-1020.104 -1242.537)" fill="url(#linear-gradient)"/>
        <path id="Trazado_182760" data-name="Trazado 182760" d="M1112.708,1292.295a18.056,18.056,0,0,1-6.359.2q.083-.675.154-1.369a18.87,18.87,0,0,0,6.127,0Q1112.662,1291.713,1112.708,1292.295Z" transform="translate(-1078.383 -1238.062)" fill="#2a1b40"/>
        <path id="Trazado_182761" data-name="Trazado 182761" d="M1089.818,1185.315a18.858,18.858,0,0,1-6.127,0,46.6,46.6,0,0,0-.07-11.975,40.973,40.973,0,0,0-6.037-14.49,9.617,9.617,0,0,0,.995-.789l5.042-.356c.625.152,1.21.287,1.76.4,2.3,1.736,4.415,5.454,4.568,12.024C1090.025,1173.415,1089.487,1179.468,1089.818,1185.315Z" transform="translate(-1055.571 -1132.25)" fill="#cf89fa"/>
        <g id="Grupo_140501" data-name="Grupo 140501" transform="translate(24.679 60.375)">
          <path id="Trazado_182762" data-name="Trazado 182762" d="M1103.872,1328.6a5.181,5.181,0,0,0-3.041-1.821,11.448,11.448,0,0,0-3.859-.274c-5.3.427-8.187,6.641-5.457,17.3s4.508,36.53,6.4,43.807c.312.108.605.194.881.261a6.077,6.077,0,0,0,2.527.143c.093-.017.175-.036.247-.055a1.94,1.94,0,0,0,.356-.12s3.208-15.356,3.667-22.8S1106.508,1336.273,1103.872,1328.6Z" transform="translate(-1090.469 -1326.452)" fill="url(#linear-gradient-2)"/>
          <path id="Trazado_182763" data-name="Trazado 182763" d="M1132.483,1623.336c-.007.873,1.655,2.095,5.093,3.127s-2.1.955-5.348.305a21.47,21.47,0,0,1-2.75-.573l.231-2.948a6.078,6.078,0,0,0,2.527.143c.093-.017.175-.036.247-.054Z" transform="translate(-1121.383 -1561.827)" fill="#bf566f"/>
        </g>
        <g id="Grupo_140502" data-name="Grupo 140502" transform="translate(0 58.125)">
          <path id="Trazado_182764" data-name="Trazado 182764" d="M1002.192,1315.69a10.94,10.94,0,0,0-6.8,1.341c-6.785,3.437-21.787,54.435-22.7,59.436a6.6,6.6,0,0,0,.895.576,5.453,5.453,0,0,0,1.391.523,4.273,4.273,0,0,0,.859.1,2.271,2.271,0,0,0,.37-.018c14.362-13.636,27.885-46.87,29.489-60.316A6.5,6.5,0,0,0,1002.192,1315.69Z" transform="translate(-972.383 -1315.578)" fill="url(#linear-gradient-3)"/>
          <path id="Trazado_182765" data-name="Trazado 182765" d="M975.033,1617.665c1.451,2.138,4.393,3.819.535,3.361-4.179-.5-4.355-5.908-4.355-5.908l1.2-2.53h0a5.45,5.45,0,0,0,1.391.523,4.251,4.251,0,0,0,.859.1h0C974.04,1614.075,973.582,1615.526,975.033,1617.665Z" transform="translate(-971.213 -1551.123)" fill="#bf566f"/>
        </g>
        <g id="Grupo_140504" data-name="Grupo 140504" transform="translate(34.988)">
          <path id="Trazado_182766" data-name="Trazado 182766" d="M1178.191,1092.269l.385.728a7.411,7.411,0,0,1-1.775.572C1176.606,1093.325,1177.3,1092.8,1178.191,1092.269Z" transform="translate(-1169.218 -1080.357)" fill="url(#linear-gradient-4)"/>
          <path id="Trazado_182767" data-name="Trazado 182767" d="M1184.431,1080.15l.209.309a8.872,8.872,0,0,1-2.79,1.975l-.385-.728-.569-1.075c2.979-1.172,2.725-1.681,2.725-1.681Z" transform="translate(-1172.491 -1069.794)" fill="#9b67bb"/>
          <path id="Trazado_182768" data-name="Trazado 182768" d="M1176.889,1063.246c-1.009.315-.785,1.583-.785,1.583-.249-1.1-2.138-.166-2.214-.129a3.015,3.015,0,0,0,.648-.716,4.6,4.6,0,0,0,1.889-1.234.964.964,0,0,0,.047-.514C1176.587,1062.54,1176.732,1062.889,1176.889,1063.246Z" transform="translate(-1166.935 -1056.538)" fill="#e6b26a"/>
          <path id="Trazado_182769" data-name="Trazado 182769" d="M1152.431,1086.243c2.12,3.037,8.915,10.7,8.566,14.188-.382,3.82-14.066,9.647-18.192,12.512s-1.948-11.058-1.948-11.058c3.244-.332,8.419-1.4,11.491-2.069,1.218-.265,2.308-.913,1.091-2.71l-5.572-8.316a7.413,7.413,0,0,0,1.775-.572A8.868,8.868,0,0,0,1152.431,1086.243Z" transform="translate(-1140.283 -1075.578)" fill="url(#linear-gradient-4)"/>
          <g id="Grupo_140503" data-name="Grupo 140503" transform="translate(1.94)">
            <path id="Trazado_182770" data-name="Trazado 182770" d="M1168.406,1049.213c-2.294,1.212-12.749,6.972-15.119,8.048.361.457.748.7.969.58l.027.049,15.341-7.927C1169.333,1050.079,1168.857,1049.77,1168.406,1049.213Z" transform="translate(-1152.536 -1046.211)" fill="#00223d"/>
            <path id="Trazado_182771" data-name="Trazado 182771" d="M1165.042,1037.149c-.572-1.019-.72-2.022-.33-2.241l-14.891,8.813c-.293.164-.182.919.248,1.685a3.91,3.91,0,0,0,.34.51c2.37-1.075,12.825-6.836,15.119-8.048A5.146,5.146,0,0,1,1165.042,1037.149Z" transform="translate(-1149.657 -1034.866)" fill="#003661"/>
            <path id="Trazado_182772" data-name="Trazado 182772" d="M1223.387,1036.2c.572,1.02.721,2.023.331,2.241l-.037.018a.474.474,0,0,1-.348-.019,2.446,2.446,0,0,0-1.884-3.361.445.445,0,0,1,.2-.329C1222.037,1034.529,1222.815,1035.178,1223.387,1036.2Z" transform="translate(-1206.592 -1034.706)" fill="#a88983"/>
            <path id="Trazado_182773" data-name="Trazado 182773" d="M1223.139,1037.722a2.228,2.228,0,0,1,.124,2.141l-.044-.019a4.245,4.245,0,0,1-1.848-3.3l.008-.046A2.224,2.224,0,0,1,1223.139,1037.722Z" transform="translate(-1206.522 -1036.13)" fill="#c9a49d"/>
          </g>
          <path id="Trazado_182774" data-name="Trazado 182774" d="M1169.745,1053.711a.968.968,0,0,1,.043.514c-.083.35-3.056,2.2-3.293,1.964a1.954,1.954,0,0,1-.727-1.341c-.053-.443.072-.542.71-.734a28.378,28.378,0,0,1,2.645-1.154C1169.309,1053.023,1169.573,1053.169,1169.745,1053.711Z" transform="translate(-1160.485 -1049.178)" fill="#f2b08a"/>
          <path id="Trazado_182775" data-name="Trazado 182775" d="M1172.089,1070.137s.255.509-2.725,1.681l-.968-1.452s-1.452.2-1.961-.636c-.217-.358.032-.808.43-1.18.536-.5,1.344-.859,1.645-.654.189.129.163.329.052.53a3.022,3.022,0,0,1-.647.716c.075-.038,2.154-.65,2.4.448a2.935,2.935,0,0,1,1.219-.562C1172.06,1070.214,1172.089,1070.137,1172.089,1070.137Z" transform="translate(-1160.96 -1060.981)" fill="#f2b08a"/>
        </g>
        <path id="Trazado_182776" data-name="Trazado 182776" d="M1126.284,1200.782c-.4,0-.908.014-1.5.041-7.112-4.926-4.8-22.577-4.957-29.147s-2.267-10.288-4.568-12.024a16.71,16.71,0,0,0,5.753.45c3.781,4.24,3.9,10.084,3.323,15.814S1123.419,1194.365,1126.284,1200.782Z" transform="translate(-1085.451 -1133.794)" fill="url(#linear-gradient-4)"/>
        <path id="Trazado_182777" data-name="Trazado 182777" d="M1048.154,1177.73c1.388,7.869-1.006,21.391-2.325,23s-5.4,3.9-12.967,5.348c0,0,9.015-15.661,7.869-25.516s-4.813-14.9-4.813-14.9a16.594,16.594,0,0,0,6.2-2.42A40.974,40.974,0,0,1,1048.154,1177.73Z" transform="translate(-1020.104 -1136.64)" fill="url(#linear-gradient-4)"/>
        <g id="Grupo_140505" data-name="Grupo 140505" transform="translate(0.347 29.019)">
          <path id="Trazado_182778" data-name="Trazado 182778" d="M1087.859,1300.571a.013.013,0,0,1,0,0A.013.013,0,0,0,1087.859,1300.571Zm0,0c.012.057.124.569.248,1.006a2.473,2.473,0,0,1,.05.975c-.153.509-.427.43-.6.344a6.268,6.268,0,0,1-.725-1.184s0,.821-.133.888-.668-1.624-.668-1.624a4.953,4.953,0,0,1-.554-1.213c-.936-.019-3.079-1.51-3.079-1.51h0a5.028,5.028,0,0,0,.351-1.485c1.7.43,4.422.71,4.982,1.3s.84,3.846.687,4.125c-.071.13-.2-.209-.312-.612C1088.016,1301.094,1087.877,1300.626,1087.86,1300.573Z" transform="translate(-1059.736 -1271.556)" fill="#f2b08a"/>
          <path id="Trazado_182779" data-name="Trazado 182779" d="M1074.6,1291.961s0,.127-.017.333a5.015,5.015,0,0,1-.351,1.485h0a2.959,2.959,0,0,1-.492.8l-1.638-.5a9.14,9.14,0,0,0,.778-2.961Z" transform="translate(-1051.574 -1267.082)" fill="#9b67bb"/>
          <path id="Trazado_182780" data-name="Trazado 182780" d="M994.2,1198.979a9.134,9.134,0,0,1-.778,2.961,10.334,10.334,0,0,1-.692,1.336s-19.185-1.836-19.806-6.074c-.782-5.332,11.8-21.314,15.432-22.269,5,.42,5.367,6.742,3.879,9.591-.989,1.9-6.034,5.428-9.3,7.583-1.088.717-3.046,1.822.4,2.753A53.639,53.639,0,0,1,994.2,1198.979Z" transform="translate(-972.888 -1174.934)" fill="url(#linear-gradient-4)"/>
        </g>
        <g id="Grupo_140506" data-name="Grupo 140506" transform="translate(22.013 25.454)">
          <path id="Trazado_182781" data-name="Trazado 182781" d="M1110.307,1186.667a9.05,9.05,0,0,1-1.528,3.973l-1.856-3.477s.9-11.815-2.32-17.893a.779.779,0,0,0,.566-.269C1107.455,1171.031,1110.116,1179.524,1110.307,1186.667Z" transform="translate(-1099.012 -1166.664)" fill="#ffd44b"/>
          <path id="Trazado_182782" data-name="Trazado 182782" d="M1099.627,1165.41a1.624,1.624,0,0,1-1.3-.683,7.2,7.2,0,0,1,.771-.593,11.193,11.193,0,0,1,1.392.151,1.443,1.443,0,0,1-.3.856A.779.779,0,0,1,1099.627,1165.41Z" transform="translate(-1094.036 -1162.803)" fill="#ffd44b"/>
          <path id="Trazado_182783" data-name="Trazado 182783" d="M1085.381,1158.107a9.2,9.2,0,0,1,2.37,2.756,6.558,6.558,0,0,0-3.711-1.677,11.224,11.224,0,0,0-1.392-.151,7.225,7.225,0,0,0-.771.593,8.094,8.094,0,0,0-2.145,2.84,36.894,36.894,0,0,0-2.149-3.618,9.617,9.617,0,0,0,.995-.789l5.042-.356C1084.246,1157.856,1084.831,1157.991,1085.381,1158.107Z" transform="translate(-1077.584 -1157.704)" fill="#9b67bb"/>
        </g>
        <g id="Grupo_140507" data-name="Grupo 140507" transform="translate(18.3 13.212)">
          <path id="Trazado_182784" data-name="Trazado 182784" d="M1064.306,1106.951a1.045,1.045,0,0,1-.352.3c-.317.155-.7.057-1.279-.3-.8-.5-3.361-2.087-3-4.226a2.847,2.847,0,0,1,2.235-2.426s.246-2.426,3.7-1.566a1.65,1.65,0,0,1,1.2,2.523c-.382.609-2.9,1.335-2.9,1.335s2.5,2.082,1.7,2.292a1.715,1.715,0,0,1-1.946-.708c-.669-.724-1.509-.19-1.242.574s1.91.841,1.91.841.359.869-.031,1.36Z" transform="translate(-1059.641 -1098.549)" fill="#82c6ff"/>
          <path id="Trazado_182785" data-name="Trazado 182785" d="M1083.869,1139.568a9.777,9.777,0,0,0,2.05,3.419c-.064,1.745-2.725,2.126-5.042.356a12.084,12.084,0,0,0-.4-3.894,1.047,1.047,0,0,0,.352-.3h0A6.833,6.833,0,0,0,1083.869,1139.568Z" transform="translate(-1076.169 -1130.745)" fill="url(#linear-gradient-9)"/>
          <path id="Trazado_182786" data-name="Trazado 182786" d="M1074.147,1114.55a1.715,1.715,0,0,0,1.947.708c.8-.21-1.7-2.292-1.7-2.292s2.521-.726,2.9-1.335a14.756,14.756,0,0,1,2.865,4.735c.161.554-.836,1.234-2.343,1.381a6.839,6.839,0,0,1-3.036-.422c.389-.491.031-1.36.031-1.36s-1.643-.077-1.91-.841S1073.478,1113.826,1074.147,1114.55Z" transform="translate(-1070.12 -1108.924)" fill="#f2b08a"/>
        </g>
      </g>
      <g id="Grupo_140515" data-name="Grupo 140515" transform="translate(28.702 32.505)">
        <g id="Grupo_140509" data-name="Grupo 140509" transform="translate(15.595 14.925)">
          <path id="Trazado_182787" data-name="Trazado 182787" d="M544.594,344.31c1.17.532.728,2.966-.455,2.7s-3.239-.064-3.744-.876a1.538,1.538,0,0,1,.283-1.828C543.471,345.04,544.115,344.092,544.594,344.31Z" transform="translate(-517.785 -320.46)" fill="#fbac8d"/>
          <path id="Trazado_182788" data-name="Trazado 182788" d="M454.723,253.041c-1.92-.5-4.082-1.033-6.062-1.459a36.877,36.877,0,0,0-5.305-.86c1-4.9-1.988-22.992-5.509-21.437h0a11.445,11.445,0,0,0-5.011,4.41h0c-3.746,6.086,4.036,22.322,5.9,23.306.93.49,3.639.2,6.716-.335,3.1-.538,6.58-1.322,8.984-1.8A1.538,1.538,0,0,1,454.723,253.041Z" transform="translate(-431.83 -229.192)" fill="#ffc3cd"/>
        </g>
        <g id="Grupo_140510" data-name="Grupo 140510" transform="translate(13.389 42.293)">
          <path id="Trazado_182789" data-name="Trazado 182789" d="M564.672,576.736c-.146,1.035,6.929,9.368,7.991,8.313.6-.591-1.054-3-2.575-6.074-1.191-2.413-2.3-5.241-2.187-7.936a3.68,3.68,0,0,1-2.656-1C566.014,573.481,564.818,575.7,564.672,576.736Z" transform="translate(-534.973 -526.872)" fill="#6295bf"/>
          <path id="Trazado_182790" data-name="Trazado 182790" d="M451.441,404.607a3.68,3.68,0,0,0,2.656,1c.786.022,1.468-.158,1.6-.611.844-2.827,4.334-30.173,1-33.769s-24.482-9.593-29.934-9.76c-2.471-.273-3.959,1.614-5.1,4.383-3.766,9.177,14.705,11.083,26.136,12.064C447.439,387.555,450.773,403.589,451.441,404.607Z" transform="translate(-421.169 -361.438)" fill="url(#linear-gradient-10)"/>
        </g>
        <g id="Grupo_140511" data-name="Grupo 140511" transform="translate(3.082 41.326)">
          <path id="Trazado_182791" data-name="Trazado 182791" d="M524.014,587.078c-.156,1.106,7.4,10.01,8.539,8.882.637-.632-1.127-3.2-2.751-6.49-1.272-2.579-2.46-5.6-2.337-8.48a3.931,3.931,0,0,1-2.838-1.065C525.448,583.6,524.17,585.971,524.014,587.078Z" transform="translate(-492.422 -533.743)" fill="#6295bf"/>
          <path id="Trazado_182792" data-name="Trazado 182792" d="M403.569,402.947a3.932,3.932,0,0,0,2.838,1.065c.84.024,1.568-.169,1.712-.653.9-3.021,4.631-32.24,1.065-36.082s-27.234-9.287-31.985-10.429c-1.2-.289-4.634-.125-5.642,5.59-2.263,12.828,15.91,10.936,28.124,11.984C399.292,384.726,402.855,401.858,403.569,402.947Z" transform="translate(-371.365 -356.765)" fill="url(#linear-gradient-11)"/>
        </g>
        <path id="Trazado_182793" data-name="Trazado 182793" d="M368.8,248.638c-.205.731,13.2,1.832,14.6.86,1.5-1.04,2.861-5.509,5.015-12.6s-.825-14.6-2.236-15.335c-1.774-.926-10.024-2.552-11.191-2.192a31.432,31.432,0,0,0-8.776,4.912C363.438,226.742,370.5,242.578,368.8,248.638Z" transform="translate(-363.679 -206.439)" fill="#ffb4c1"/>
        <g id="Grupo_140512" data-name="Grupo 140512" transform="translate(8.747)">
          <path id="Trazado_182794" data-name="Trazado 182794" d="M398.913,163.195c.2,1.013.489,1.412,2.6,4.034a.747.747,0,0,0,.384-.3,1.2,1.2,0,0,0,.174-.559,2.745,2.745,0,0,0-.082-.852s-1.381-1.33-.993-2,1.611,1.067,1.859,1.264.645-.339-.376-1.969a3.484,3.484,0,0,0,2.57-.906c1.284-1.4.025-4-1.295-4.658-1.119-.559-1.966.282-2.09,1.426s-1.632,1.259-2.381,1.871S398.712,162.182,398.913,163.195Z" transform="translate(-398.738 -157.07)" fill="url(#linear-gradient-12)"/>
          <path id="Trazado_182795" data-name="Trazado 182795" d="M411.895,202.019a1.2,1.2,0,0,1-.174.559,5.376,5.376,0,0,1-.6,3.073,3.723,3.723,0,0,0,5.638,1.041,9.251,9.251,0,0,1-1.813-3.658A4.668,4.668,0,0,1,411.895,202.019Z" transform="translate(-408.562 -192.717)" fill="url(#linear-gradient-13)"/>
          <path id="Trazado_182796" data-name="Trazado 182796" d="M411.247,183.308c-.248-.2-1.471-1.937-1.859-1.264s.993,2,.993,2a2.746,2.746,0,0,1,.082.852,4.668,4.668,0,0,0,3.055,1.015,1.779,1.779,0,0,0,1.45-.561c.3-.543-.631-3.154-1.526-4.921a3.484,3.484,0,0,1-2.57.906C411.891,182.97,411.495,183.505,411.247,183.308Z" transform="translate(-407.13 -175.599)" fill="#f2b08a"/>
        </g>
        <path id="Trazado_182797" data-name="Trazado 182797" d="M407.532,216.7l2.195,3.063a4.759,4.759,0,0,1,.476-1.33,1.934,1.934,0,0,1,1.159-1.014,1.3,1.3,0,0,1,1.373.763,4.767,4.767,0,0,1,.51,1.169,3.088,3.088,0,0,0,.67-2.2c-.017-.578-.967-1.439-.967-1.439-.243.5-.984,1.352-1.636,1.353a3.349,3.349,0,0,1-2.656-1.859A2.678,2.678,0,0,0,407.532,216.7Z" transform="translate(-396.965 -203.171)" fill="#b4ddff"/>
        <g id="Grupo_140513" data-name="Grupo 140513" transform="translate(0 14.925)">
          <path id="Trazado_182798" data-name="Trazado 182798" d="M470.876,346.06c1.17.532,3.012,3.15,2.707,3.323s-3.619-1.979-4.8-2.242-3.239-.064-3.744-.876a1.538,1.538,0,0,1,.283-1.828C468.114,345.168,470.4,345.842,470.876,346.06Z" transform="translate(-442.427 -320.589)" fill="#fbac8d"/>
          <path id="Trazado_182799" data-name="Trazado 182799" d="M379.365,253.041c-1.92-.5-4.082-1.033-6.062-1.459a36.876,36.876,0,0,0-5.306-.86c1-4.9-1.988-22.992-5.508-21.437h0a11.446,11.446,0,0,0-5.011,4.41h0c-3.746,6.086,4.036,22.322,5.9,23.306.93.49,3.639.2,6.716-.335,3.1-.538,6.58-1.322,8.984-1.8A1.539,1.539,0,0,1,379.365,253.041Z" transform="translate(-356.472 -229.192)" fill="#ffc3cd"/>
        </g>
        <g id="Grupo_140514" data-name="Grupo 140514" transform="translate(10.567 33.154)">
          <path id="Trazado_182800" data-name="Trazado 182800" d="M441.23,333.609l7.456-16.332h21.187l-6.094,13.682Z" transform="translate(-434.256 -317.277)" fill="#7345ad"/>
          <path id="Trazado_182801" data-name="Trazado 182801" d="M407.532,383.243l6.973,1.274.864-1.892-7.292-1.157Z" transform="translate(-407.532 -368.184)" fill="#7345ad"/>
          <path id="Trazado_182802" data-name="Trazado 182802" d="M418.431,376.75l-8.266.976,7.292,1.157Z" transform="translate(-409.62 -364.443)" fill="#563482"/>
        </g>
      </g>
      <g id="Grupo_140519" data-name="Grupo 140519" transform="translate(100.661 133.432)">
        <path id="Trazado_182803" data-name="Trazado 182803" d="M815.264,727.7c-1.984-.067-4.209-.106-6.234-.084a36.859,36.859,0,0,0-5.365.333c-.1-5-7.014-21.986-10.1-19.692h0a11.447,11.447,0,0,0-3.914,5.407h0c-2.31,6.763,8.864,20.88,10.9,21.428,1.015.273,3.593-.609,6.476-1.809,2.908-1.21,6.125-2.742,8.365-3.736A1.538,1.538,0,0,1,815.264,727.7Z" transform="translate(-771.714 -694.949)" fill="url(#linear-gradient-14)"/>
        <g id="Grupo_140518" data-name="Grupo 140518">
          <path id="Trazado_182804" data-name="Trazado 182804" d="M786.582,1071.214c-.632,1.563-1.7,3.426-1.364,3.992s9.414,2.029,10.179,1.2-6.221-1.8-5.921-5.356S786.582,1071.214,786.582,1071.214Z" transform="translate(-768.4 -981.612)" fill="#7345ad"/>
          <path id="Trazado_182805" data-name="Trazado 182805" d="M859.442,835c-.04-.014-.087-.035-.143-.059C859.348,834.961,859.4,834.98,859.442,835Z" transform="translate(-827.201 -795.588)" fill="#b4d6f1"/>
          <path id="Trazado_182806" data-name="Trazado 182806" d="M826.8,1071.354c-.535,1.6-1.483,3.524-1.116,4.068s9.52,1.448,10.233.571-6.319-1.412-6.238-4.983S826.8,1071.354,826.8,1071.354Z" transform="translate(-800.477 -981.612)" fill="#7345ad"/>
          <path id="Trazado_182807" data-name="Trazado 182807" d="M831.234,848.633c4.923,2.994-1.179,25.6-10.759,43.561a4.122,4.122,0,0,1-4.591-.466s7.784-37.456,3.726-41.381c-2.5-2.422-8.965-7.775-4.759-7.485C817.461,843.042,831.234,848.633,831.234,848.633Z" transform="translate(-790.85 -801.86)" fill="url(#linear-gradient-15)"/>
          <path id="Trazado_182808" data-name="Trazado 182808" d="M783.228,875.806c2.129,2.728-5.056,31.343-4.724,34.7.266,1.426,5.921.5,6.919,0s11.083-31.106,11.4-35.364-3.413-8.715-8.4-9.713S778.837,869.685,783.228,875.806Z" transform="translate(-763.117 -819.667)" fill="#2a1b40"/>
          <path id="Trazado_182809" data-name="Trazado 182809" d="M752,731.147c-1.866-.775-12.378-5.264-13.953-8.6-1.73-3.659-.4-19.825-2.528-23.752-1.911-3.523-6.476-4.018-7.389-4.081l-.162-.009-6.541.948-.113.017c-.082.035-.162.07-.242.108-.5.225-.983.462-1.441.713a13.574,13.574,0,0,0-3.811,2.983,9.194,9.194,0,0,0-2.19,7.372q.085.711.218,1.472c.052.3.108.6.169.9.122.613.261,1.244.408,1.892.061.268.122.535.185.808.209.885.432,1.793.648,2.72.042.171.082.347.122.521.059.249.117.5.174.751.042.188.085.375.124.563.024.1.047.2.068.307.035.162.07.326.1.488.038.178.075.357.11.535.19.939.359,1.885.5,2.828.026.181.049.362.073.542.03.242.059.484.084.723.016.153.033.305.045.455,0,.023,0,.047.007.07.014.134.023.265.033.4.007.082.014.164.019.244.007.1.012.19.017.284s.012.2.016.3c0,.047,0,.091,0,.136q.01.211.014.422.017.7-.012,1.4c-.265,6.386-2.194,9.911,5.124,12.04.115.033.228.068.338.108,6.938,2.307,15.345-4.033,18.2-4.244a28.378,28.378,0,0,0-4.1-7,79.06,79.06,0,0,0,7.67,6.145C745.993,731.621,749.449,730.2,752,731.147Z" transform="translate(-711.618 -684.375)" fill="#7345ad"/>
          <g id="Grupo_140516" data-name="Grupo 140516" transform="translate(8.692)">
            <path id="Trazado_182810" data-name="Trazado 182810" d="M747.488,650.511a1.611,1.611,0,0,0-.533.381,3.092,3.092,0,0,0-.758,1.832,5.488,5.488,0,0,0,.447,1.854,4.13,4.13,0,0,0,1.124,2.028,2.614,2.614,0,0,0,.826.393,1.4,1.4,0,0,0,1.28-.108,2.467,2.467,0,0,0,1.232-1.241,3.727,3.727,0,0,0,.318-1.025,5.3,5.3,0,0,0-.205-1.394,3.78,3.78,0,0,0-1.416-2.484A2.583,2.583,0,0,0,747.488,650.511Z" transform="translate(-746.196 -649.185)" fill="#7345ad"/>
            <path id="Trazado_182811" data-name="Trazado 182811" d="M758.38,703.251c-.416.324-.7-.406-.892-.695a6.532,6.532,0,0,0-1.228-1.227c-.566-.5-1.19-.934-1.774-1.425-.481-.4-.843-.925-1.34-1.3a13.227,13.227,0,0,1-1.368-1.056c-.476-.469-1-.873-1.488-1.321-.122-.113-.258-.284-.4-.441.08-.038.16-.073.242-.108l.112-.016,6.541-.948.162.009a.867.867,0,0,1,.162.174,6.057,6.057,0,0,1,.467,1.378,19.633,19.633,0,0,1,.6,3.919c.1.659.258,1.31.335,1.969C758.551,702.5,758.687,703.009,758.38,703.251Z" transform="translate(-749.126 -684.375)" fill="#fff"/>
            <path id="Trazado_182812" data-name="Trazado 182812" d="M757.017,675.069a5.915,5.915,0,0,1-1.608,2.129c-2.73,1.662-6.043-.4-5.046-1.164,1-1.286.96-3.253.688-4.727a0,0,0,0,1,0,0,9.267,9.267,0,0,0-.253-1.059s1.432-1.1,2.164.9a7.132,7.132,0,0,0,2.277,2.692A16.4,16.4,0,0,0,757.017,675.069Z" transform="translate(-749.357 -664.735)" fill="#f2b08a"/>
            <path id="Trazado_182813" data-name="Trazado 182813" d="M757.586,673.834a3.589,3.589,0,0,1-2.046.631,2.733,2.733,0,0,1-1.016-.62c-.706-.606-.408-1.633-.986-2.363-.045-.054-.089-.113-.136-.176a0,0,0,0,1,0,0,9.253,9.253,0,0,0-.254-1.059s1.432-1.1,2.164.9A7.133,7.133,0,0,0,757.586,673.834Z" transform="translate(-751.707 -664.735)" fill="url(#linear-gradient-16)" style="mix-blend-mode: multiply;isolation: isolate"/>
            <path id="Trazado_182814" data-name="Trazado 182814" d="M760.274,655.453c.679,2.445.512,5.515-.081,6.227s-3.556.125-4.329-2.457S757.581,653.869,760.274,655.453Z" transform="translate(-753.75 -652.875)" fill="#f2b08a"/>
            <path id="Trazado_182815" data-name="Trazado 182815" d="M752.852,665.747c-.6-.653-1.348-.221-1.041,1.1s1.362.8,1.362.8Z" transform="translate(-750.592 -661.169)" fill="#f2b08a"/>
            <path id="Trazado_182816" data-name="Trazado 182816" d="M750.237,645.081a2.781,2.781,0,0,0-1.327,1.6,3.546,3.546,0,0,0,.02,1.833c.1.456.255.907.734,1.047a1.043,1.043,0,0,0,1.123-.461c.321-.385.563-.824.889-1.21a1.6,1.6,0,0,1,1.4-.553,9.108,9.108,0,0,1,1.769.492,1.007,1.007,0,0,0,1.2-.695,1.833,1.833,0,0,0-.865-2.041,2.087,2.087,0,0,0-1.615-.243,2.931,2.931,0,0,1-.984.244c-.4-.041-.78-.206-1.186-.246A2.055,2.055,0,0,0,750.237,645.081Z" transform="translate(-748.258 -644.775)" fill="#7345ad"/>
          </g>
          <path id="Trazado_182817" data-name="Trazado 182817" d="M782.16,693.941c1.4,1.08.938,9.257,2.49,13.648,0,0,1.077-5.576,0-7.1-.377-.532.479-1.43.479-1.43S783.774,693.424,782.16,693.941Z" transform="translate(-766.025 -683.74)" fill="#563482"/>
          <path id="Trazado_182818" data-name="Trazado 182818" d="M755.155,718.906a43.536,43.536,0,0,0-2.995-7.757c-1.929-3.328-1.3-4.757-1.34-5.257s-1.652-.4-2.368-.8a42.576,42.576,0,0,1-5.525-4.966c.53-.291,1.091-.563,1.683-.821l.113-.016a16.83,16.83,0,0,1,9.435,11.658A58.7,58.7,0,0,1,755.155,718.906Z" transform="translate(-734.911 -688.009)" fill="#563482"/>
          <g id="Grupo_140517" data-name="Grupo 140517" transform="translate(0 14.645)">
            <path id="Trazado_182819" data-name="Trazado 182819" d="M821.387,826.506c1.572.8,2.065,1.168,2.468,1.79a4.932,4.932,0,0,1,.607,2.279c-.081.255-3.222-2.546-3.747-3.235S821.387,826.506,821.387,826.506Z" transform="translate(-796.495 -803.543)" fill="#fcb9a8"/>
            <path id="Trazado_182820" data-name="Trazado 182820" d="M815.464,826.506c1.383,1.035,1.243,2.839,2.477,4.226.766.861,1.38.769,1.38.769s.218.558-.5.714c0,0-.074.468-.783.375,0,0-.425.545-.885.41,0,0-.048.191-.422.115s-.933-.216-1.675-1.391-1.069-3.627-1.822-4.092S815.464,826.506,815.464,826.506Z" transform="translate(-790.572 -803.543)" fill="#fcb9a8"/>
            <path id="Trazado_182821" data-name="Trazado 182821" d="M724.387,744.1a4.8,4.8,0,0,1-2.239-.4c-3.556-1.109-10.114-3.962-11.4-5.035-1.7-1.425-8.905-8.125-5.785-17.134,1.395-4.028,3-5.2,4.548-5.7.174-.054.345-.1.516-.145,2.7-.665,5.437,1.2,4.8,5.643s-1.162,9.684,1,11.194c1.949,1.359,7.949,3.433,11.289,4.939a11.267,11.267,0,0,1,1.965,1.054,9.214,9.214,0,0,1-3.067,4.42A12.428,12.428,0,0,1,724.387,744.1Z" transform="translate(-704.192 -715.545)" fill="#7345ad"/>
            <path id="Trazado_182822" data-name="Trazado 182822" d="M724.387,745.154a4.8,4.8,0,0,1-2.239-.4c-3.556-1.109-10.114-3.962-11.4-5.035-1.7-1.425-8.905-8.125-5.785-17.134,1.395-4.028,3-5.2,4.548-5.7a10.018,10.018,0,0,0-3.908,5.435,12.411,12.411,0,0,0,1.264,9.031,21.525,21.525,0,0,0,4.354,5.334,24.893,24.893,0,0,0,3.34,2.677c3.457,2.26,7.554,3.254,11.452,4.63A12.422,12.422,0,0,1,724.387,745.154Z" transform="translate(-704.192 -716.604)" fill="url(#linear-gradient-17)" style="mix-blend-mode: multiply;isolation: isolate"/>
          </g>
        </g>
        <path id="Trazado_182823" data-name="Trazado 182823" d="M787.227,789.472l27.165.72-3.508,17.63H776.473v-1.079l7.909-.257Z" transform="translate(-761.515 -759.528)" fill="#6295bf"/>
      </g>
      <g id="Grupo_140525" data-name="Grupo 140525" transform="translate(281.088 225.105)">
        <g id="Grupo_140520" data-name="Grupo 140520" transform="translate(26.387 61.941)">
          <path id="Trazado_182824" data-name="Trazado 182824" d="M1905.043,1606.624c.187,1.414-.427,5.059-1.407,5.943a10.726,10.726,0,0,1-5.187,1.359,5.839,5.839,0,0,0,4.827-4.976c.607-3.078,1.667-2.4,1.76-2.331Z" transform="translate(-1858.118 -1561.099)" fill="#7f768c"/>
          <path id="Trazado_182825" data-name="Trazado 182825" d="M1746.951,1429.948s-2.212.034-4.824.138a70.953,70.953,0,0,0-7.134.541c-7-8.289-15.628-12.91-17.531-15.9s-11.767-14.562-13.9-26.849a18.894,18.894,0,0,0,8.234-.589,3.436,3.436,0,0,0,.5-.216c6.886,4.235,5.028,17.164,9.649,22.872S1746.951,1429.948,1746.951,1429.948Z" transform="translate(-1703.561 -1387.073)" fill="#6295bf"/>
          <path id="Trazado_182826" data-name="Trazado 182826" d="M1889.924,1594.392c2.612-.1,4.824-.138,4.824-.138s1.507,1.009,3.528,2.646c-.094-.067-1.153-.746-1.76,2.331a5.839,5.839,0,0,1-4.827,4.975c-.679-.016-1.177-.163-1.281-.5-.362-1.186,3.829-1.9,4.575-3.759.988-2.469-2.909-4.328-5.059-5.552Z" transform="translate(-1851.357 -1551.379)" fill="#2a1b40"/>
        </g>
        <g id="Grupo_140521" data-name="Grupo 140521" transform="translate(12.565)">
          <path id="Trazado_182827" data-name="Trazado 182827" d="M1663.359,1133.075c-.039.489-.1,1.1-.182,1.8h-.007a4.971,4.971,0,0,1-2.308-.817c.258-.57.48-1.09.647-1.536A6.943,6.943,0,0,0,1663.359,1133.075Z" transform="translate(-1655.877 -1123.255)" fill="#8f6abd"/>
          <path id="Trazado_182828" data-name="Trazado 182828" d="M1674.638,1089.034s-.24,2.39-.327,4.535h0c0-.4-.016-.7-.026-.839-.018-.281-.041-1.554-.141-2.692h0C1674.275,1089.525,1674.436,1089.119,1674.638,1089.034Z" transform="translate(-1666.41 -1088.77)" fill="#f2b08a"/>
          <path id="Trazado_182829" data-name="Trazado 182829" d="M1662.646,1091.72c.01.141.023.438.026.839a19.054,19.054,0,0,1-.2,2.955v0c-.06.537-.15,1.21-.218,2.063a6.942,6.942,0,0,1-1.85-.558,3.445,3.445,0,0,0,.333-1.446c-.007-.038-.016-.079-.026-.121-.544-.678-1.2-1.2-1.056-2.292a7.474,7.474,0,0,0-.186-2.4c.558-.064.666,1.855,1.294,1.884.863.04.861-.906,1.075-1.99s.041-2.767.5-2.9a11.359,11.359,0,0,1,.169,1.267h0C1662.6,1090.166,1662.627,1091.439,1662.646,1091.72Z" transform="translate(-1654.771 -1087.76)" fill="#f2b08a"/>
          <path id="Trazado_182830" data-name="Trazado 182830" d="M1641.931,1152.6c4.683,1.517,16.037,4.036,15.214,9.523-.494,3.294-7.02,5.719-11.611,2.03s-8.747-10.172-8.76-12.687c-.01-1.822,3.285-7.775,4.985-11.53a4.972,4.972,0,0,0,2.307.817h.007C1643.617,1144.639,1642.577,1151.063,1641.931,1152.6Z" transform="translate(-1636.773 -1129.14)" fill="#7345ad"/>
        </g>
        <g id="Grupo_140522" data-name="Grupo 140522" transform="translate(19.564 15.823)">
          <path id="Trazado_182831" data-name="Trazado 182831" d="M1681.94,1170.875c.725-.785.967-1.631.181-2.113s-1.147,1.178-1.8,1.556c.314-1.312-.072-1.737-1.492-2.22a1.7,1.7,0,0,1-.5-.264,2.183,2.183,0,0,1-.013-3.027c.876-1.087,2.144-.483,3.019.363s2.477.544,4.258,1.842-.694,6.976-2.265,6.976a1.455,1.455,0,0,1-.45-.07,1.626,1.626,0,0,1-.851-.678A2.134,2.134,0,0,1,1681.94,1170.875Z" transform="translate(-1676.24 -1164.218)" fill="#bf566f"/>
          <path id="Trazado_182832" data-name="Trazado 182832" d="M1682.483,1207.8a1.629,1.629,0,0,0,.851.678,18.7,18.7,0,0,0,2.715,3.966,8.531,8.531,0,0,1-5.273,2.673c-.109-2.805-1.247-6.651-2.489-7.017A10.323,10.323,0,0,0,1682.483,1207.8Z" transform="translate(-1676.695 -1198.78)" fill="url(#linear-gradient-9)"/>
          <path id="Trazado_182833" data-name="Trazado 182833" d="M1673.182,1181.943c1.42.484,1.806.909,1.492,2.22.653-.378,1.015-2.039,1.8-1.556s.543,1.329-.181,2.113a2.134,2.134,0,0,0,.088,2.363,10.32,10.32,0,0,1-4.2.3h0c-.926-.126-1.588-.379-1.588-.706a15.3,15.3,0,0,1,2.089-5A1.689,1.689,0,0,0,1673.182,1181.943Z" transform="translate(-1670.592 -1178.066)" fill="#f2b08a"/>
        </g>
        <path id="Trazado_182834" data-name="Trazado 182834" d="M1680.737,1236.614c-3.563,10.6,0,22.966-1.359,23.713a3.432,3.432,0,0,1-.5.216,18.891,18.891,0,0,1-8.234.589,6.159,6.159,0,0,1-1.1-.329c-2.77-1.155-8.848-10.8-7.217-19.841s5.126-10.769,7.949-12.5C1676.842,1224.428,1682.5,1231.359,1680.737,1236.614Z" transform="translate(-1644.254 -1198.386)" fill="#7345ad"/>
        <g id="Grupo_140523" data-name="Grupo 140523" transform="translate(0 62.157)">
          <path id="Trazado_182835" data-name="Trazado 182835" d="M1584.726,1591.44a9.827,9.827,0,0,0,3.634.117c.38,2.615.812,5.413,1.091,6.737-1.563.136-13.386,2.379-13.245.748s8.488-2.107,8.829-5.3a8.582,8.582,0,0,0-.344-2.295Z" transform="translate(-1576.173 -1549.364)" fill="#2a1b40"/>
          <path id="Trazado_182836" data-name="Trazado 182836" d="M1588.241,1475.3a9.824,9.824,0,0,1-3.634-.117l-.035.008c-1.735-7.329-9.283-27.737-8.454-30.342,0,0,1.291-.2,6.183,2.242a3.153,3.153,0,0,1,.558.366c4.841,3.885,11.229,26.631,11.229,26.631A38.559,38.559,0,0,1,1588.241,1475.3Z" transform="translate(-1576.054 -1433.102)" fill="#6295bf"/>
          <path id="Trazado_182837" data-name="Trazado 182837" d="M1614.049,1393.95c1.32,8.457-23.86,7.2-30.947,8.519a3.142,3.142,0,0,0-.558-.366c-4.892-2.446-6.183-2.242-6.183-2.242.952-2.99,18.278-11.755,25.224-11.482,2.5,1.044,7.412.422,9.333-.26C1610.917,1388.119,1613.362,1389.556,1614.049,1393.95Z" transform="translate(-1576.297 -1388.119)" fill="#6295bf"/>
        </g>
        <g id="Grupo_140524" data-name="Grupo 140524" transform="translate(0.139 15.665)">
          <path id="Trazado_182838" data-name="Trazado 182838" d="M1579.082,1176.685a5.661,5.661,0,0,1,1.883-.173,14.886,14.886,0,0,0-1.882.49l-2.355-.906c.254-.193,1.075-.058,1.721.088Z" transform="translate(-1576.727 -1173.405)" fill="#f2b08a"/>
          <path id="Trazado_182839" data-name="Trazado 182839" d="M1580.3,1166.237l-1.239-.979s.589-.226,1.782.74a8.889,8.889,0,0,0,2.674-.432,3.063,3.063,0,0,0,1.01-.6c.615-.641,1.178-1.646,1.48-1.494-.734,1.4-.415,2.424-.876,2.932l-.026.009c.256.728.508,1.665.9,2.77a8.856,8.856,0,0,1-2.239.256c.015-1.24-.011-2.559-.519-2.753h0a1.519,1.519,0,0,0-.433-.121,5.652,5.652,0,0,0-1.883.172Z" transform="translate(-1578.576 -1163.458)" fill="#f2b08a"/>
          <path id="Trazado_182840" data-name="Trazado 182840" d="M1603.862,1191.131c.162.454.353,1.041.561,1.715a6,6,0,0,1-2.847.142c.025-.578.042-1.118.047-1.6A8.856,8.856,0,0,0,1603.862,1191.131Z" transform="translate(-1596.433 -1185.404)" fill="#ab8fce"/>
          <path id="Trazado_182841" data-name="Trazado 182841" d="M1623.324,1209.444c1.645,2.9-1.99,8.833-7.88,8.765s-14.112-1.767-15.675-3.738c-1.116-1.407-.3-9.758-.082-14.91a6,6,0,0,0,2.847-.142h0c1.191,3.858,2.941,10.6,2.941,11.927C1610.1,1209.648,1620.584,1204.62,1623.324,1209.444Z" transform="translate(-1594.545 -1191.978)" fill="url(#linear-gradient-19)"/>
        </g>
      </g>
      <g id="Grupo_140529" data-name="Grupo 140529" transform="translate(316.218 140.782)">
        <path id="Trazado_182842" data-name="Trazado 182842" d="M1894,682.5a4.248,4.248,0,0,1,5.322-1.792c1.881.654,3.243,2.2,4.527,3.647a20.518,20.518,0,0,0,1.993,2.05,5.9,5.9,0,0,0,1.709,1.066c1.74.625,3.344-.621,4.993-1.256a13.7,13.7,0,0,1,6.124-1.142,8.266,8.266,0,0,1,5.579,3.764,5.949,5.949,0,0,0-5.308-2.221,7.3,7.3,0,0,1,3.475,1.5,10.7,10.7,0,0,1,3.676,6.087,8.461,8.461,0,0,1-3.438,6.7,1.643,1.643,0,0,0-.806-1.682c-1.353-.86-2.944-.128-4.078.749-1.61,1.152-2.981,2.651-5.139,2.852l-.1,0a9.3,9.3,0,0,1-3.456-1.4c-.195-.133-.383-.277-.568-.427h0a36,36,0,0,1-3.8-4.162,6.228,6.228,0,0,0-2.073-1.533,10.623,10.623,0,0,1-2.563-1.605,6.943,6.943,0,0,1-1.922-2.881c-.185-.606-.3-1.235-.538-1.821a3.155,3.155,0,0,0-1.784-1.684,5.207,5.207,0,0,1-2.123-2.183A2.717,2.717,0,0,1,1894,682.5Z" transform="translate(-1862.912 -680.39)" fill="#0f0f0f"/>
        <path id="Trazado_182843" data-name="Trazado 182843" d="M1893.125,1176.952c-.026.817-2.659,2.014-3.7,2.386s.93.611,2.42.558,3.251-.319,3.221-.638-.535-3.191-.535-3.191Z" transform="translate(-1859.479 -1073.469)" fill="#7345ad"/>
        <path id="Trazado_182844" data-name="Trazado 182844" d="M1963.723,1172.1c.128.922-1.946,2.357-2.85,2.716s.771.579,1.941.469,2.9-1.151,2.925-1.514a24.231,24.231,0,0,0-1.117-3.094Z" transform="translate(-1916.163 -1069.194)" fill="#7345ad"/>
        <path id="Trazado_182845" data-name="Trazado 182845" d="M1906.716,915.547c-.942,11.445-2.685,44.448-2.944,44.93a1.285,1.285,0,0,1-.615.512c-.617.274-1.437.227-1.512-.512-.088-.9-1.357-36.5-1.663-46.941-.056-1.918-.08-3.557-.058-4.762a38.469,38.469,0,0,1,2.762-3.1,18.034,18.034,0,0,1,1.475-1.334c1.576-1.25,3.015-1.737,3.141.507,0,.009,0,.019,0,.028C1907.384,906.449,1907.127,910.562,1906.716,915.547Z" transform="translate(-1868.025 -857.134)" fill="#ffb4c1"/>
        <path id="Trazado_182846" data-name="Trazado 182846" d="M1906.716,921.646a7.122,7.122,0,0,1-2.484.064.236.236,0,0,1-.037-.006,5.828,5.828,0,0,1-3.886-1.625,3.794,3.794,0,0,1-.327-.445c-.056-1.918-.08-3.557-.058-4.762a38.462,38.462,0,0,1,2.762-3.1,11.62,11.62,0,0,1,1.533-.443,15.739,15.739,0,0,1,2.008-.3c.358-.03.717-.051,1.077-.056C1907.384,912.548,1907.127,916.661,1906.716,921.646Z" transform="translate(-1868.025 -863.234)" fill="url(#linear-gradient-20)" style="mix-blend-mode: multiply;isolation: isolate"/>
        <path id="Trazado_182847" data-name="Trazado 182847" d="M1954.83,909.295s0,.782,0,2.124c0,.447,0,.955,0,1.518,0,1.03,0,2.242-.005,3.582,0,.334,0,.677,0,1.028,0,.19,0,.383,0,.578,0,.255,0,.516,0,.777,0,.642,0,1.3,0,1.976q-.006,3.463,0,6.927,0,5.213,0,10.426,0,9.9-.078,19.791c-.02,2.181.058,4.414-.144,6.587,0,.011,0,.021,0,.03a.4.4,0,0,1-.017.094c-.113.212-.585.334-1.116.336a2.227,2.227,0,0,1-1.649-.548c-.413-.514-2.966-31.492-4.544-42.806-.6-4.289-1.055-8.192-1.2-10.824l3.062-.555,1.659-.3Z" transform="translate(-1904.613 -861.904)" fill="#ffb4c1"/>
        <path id="Trazado_182848" data-name="Trazado 182848" d="M1954.826,916.92c0,1.03,0,2.242-.005,3.582,0,.334,0,.677,0,1.028,0,.19,0,.383,0,.578,0,.255,0,.516,0,.777,0,.642,0,1.3,0,1.976l-.02.026a4.335,4.335,0,0,1-3.092,1.389,12.818,12.818,0,0,1-1.675.032,5.851,5.851,0,0,1-2.771-.61c-.6-4.289-1.055-8.192-1.2-10.824l3.062-.555q.9.245,1.764.572a22.6,22.6,0,0,1,2.1.9A9.512,9.512,0,0,1,1954.826,916.92Z" transform="translate(-1904.613 -865.887)" fill="url(#linear-gradient-21)" style="mix-blend-mode: multiply;isolation: isolate"/>
        <path id="Trazado_182849" data-name="Trazado 182849" d="M1866.806,736.446c-2.071.884-3.057,3.245-4.255,6.277a62.155,62.155,0,0,0-2.713,10.35c-.1,1.237,1.1,2.434,2.253,3.01s6.021-12.55,6.364-14.908S1866.806,736.446,1866.806,736.446Z" transform="translate(-1836.236 -724.825)" fill="#ff7394"/>
        <path id="Trazado_182850" data-name="Trazado 182850" d="M1889.233,775.037c-3.531-.432-6.315-1.214-6.345-2.417-.079-3.085,3.27-7.618,2.837-12.509s-4.406-13.138-5.046-14.892-.69-8.033-.583-9.042a5.032,5.032,0,0,1,2.606-3.582l4.82-1.554c-1.244,2.828-2.535,9.048-1.312,15.984a12.77,12.77,0,0,0,1.7,4.522C1889.988,756.92,1892.947,763.838,1889.233,775.037Z" transform="translate(-1852.272 -720.539)" fill="#ff7394"/>
        <path id="Trazado_182851" data-name="Trazado 182851" d="M1925.317,773.191c-1.493.779-8.845.965-14.371.289,3.713-11.2.755-18.117-1.319-23.489a12.774,12.774,0,0,1-1.7-4.522c-1.224-6.937.067-13.157,1.312-15.984l1.225-.4s.1-.006.267-.008c.921-.019,3.965.017,4.91,1.231a21.4,21.4,0,0,1,2.255,5.434c.978,3.021,2.124,6.946,3.6,11.19.7,2.013,1.473,4.1,2.336,6.192A33.6,33.6,0,0,1,1925.317,773.191Z" transform="translate(-1873.985 -718.982)" fill="#ff7394"/>
        <path id="Trazado_182852" data-name="Trazado 182852" d="M1939.55,760.052c-1.475-4.244-2.621-8.169-3.6-11.19a8.863,8.863,0,0,0-1.708-2.306,3.9,3.9,0,0,0-1.563-.939,5.2,5.2,0,0,0-1.328,3.311,12.033,12.033,0,0,0,.643,3.58c.782,2.543,2.757,4.824,2.524,7.615-.238,2.845-2.466,4.686-3.639,7.112a15.38,15.38,0,0,0-.678,2.158,4.274,4.274,0,0,0,.632,1.2,2.008,2.008,0,0,0,1.739.959,2.259,2.259,0,0,0,.861-.347,12.58,12.58,0,0,0,5.477-6.678A12.4,12.4,0,0,0,1939.55,760.052Z" transform="translate(-1892.044 -732.098)" fill="url(#linear-gradient-22)" style="mix-blend-mode: multiply;isolation: isolate"/>
        <path id="Trazado_182853" data-name="Trazado 182853" d="M1899.006,727.619c-1.244,2.828-2.535,9.048-1.311,15.984.017.1.036.2.054.291-.82-2.5-1.933-5.974-2.58-8.348a15.933,15.933,0,0,1-.424-7.107l4.717-1.713A7.354,7.354,0,0,0,1899.006,727.619Z" transform="translate(-1863.756 -717.116)" fill="#ffd44b"/>
        <g id="Grupo_140526" data-name="Grupo 140526" transform="translate(35.024 10.582)">
          <path id="Trazado_182854" data-name="Trazado 182854" d="M1931.777,850.695c-1.212.069-3.126-2.7-2.417-3.689C1930.743,847.042,1932.209,849.241,1931.777,850.695Z" transform="translate(-1926.279 -823.087)" fill="#bf566f"/>
          <path id="Trazado_182855" data-name="Trazado 182855" d="M1918.138,845.225c-1.666,1.826-3.193,2.838-3.075,5.124.046.884.193.9.5.877s1.392.807,1.764.665c-.656-.78-.206-3.016.922-4.379.638-.771,1.9-1.241,1.9-2.287S1918.138,845.225,1918.138,845.225Z" transform="translate(-1915.057 -821.306)" fill="#f2b08a"/>
          <path id="Trazado_182856" data-name="Trazado 182856" d="M1931.655,759.033a2.555,2.555,0,0,0-.126-1.589,3.038,3.038,0,0,0-2.291-2.1c.709-.992,5.531-6.312,4.965-8.652s-9.421-15.56-2.548-15.262c1.756.077,3.561,2.265,5.147,5.036a62.355,62.355,0,0,1,4.421,10.226C1942.57,750.736,1932.865,758.962,1931.655,759.033Z" transform="translate(-1926.157 -731.426)" fill="#ff7394"/>
          <path id="Trazado_182857" data-name="Trazado 182857" d="M1941.145,778.351a2.554,2.554,0,0,0-.126-1.589,19.074,19.074,0,0,1,4.177-4.115c1.857-1.522,3.743-3.306,4.213-5.659a9.886,9.886,0,0,0-.5-4.68,38,38,0,0,0-2.617-6.524,62.351,62.351,0,0,1,4.421,10.226C1952.059,770.054,1942.355,778.28,1941.145,778.351Z" transform="translate(-1935.646 -750.744)" fill="url(#linear-gradient-23)" style="mix-blend-mode: multiply;isolation: isolate"/>
        </g>
        <path id="Trazado_182858" data-name="Trazado 182858" d="M1828.129,778.279c-2-.195-10.412-9.437-10.687-11.325s2.3-2.914,2.727-2.639,7.58,8.421,8.1,9.381S1828.129,778.279,1828.129,778.279Z" transform="translate(-1802.603 -746.892)" fill="#ff7394"/>
        <path id="Trazado_182859" data-name="Trazado 182859" d="M1820.169,764.316s-2.43,3.38-2.727,2.639C1817.168,765.069,1819.746,764.04,1820.169,764.316Z" transform="translate(-1802.603 -746.892)" fill="#bf566f"/>
        <path id="Trazado_182860" data-name="Trazado 182860" d="M1808.344,760.953c-2.125-1.263-4.268-.96-3.388-2.652.408-.785-.077-.921.219-.984a2.7,2.7,0,0,1,.839.025,16.629,16.629,0,0,1,2.667,1.691c.835.553,1,.342.519.947A10.526,10.526,0,0,1,1808.344,760.953Z" transform="translate(-1792.556 -741.355)" fill="#f2b08a"/>
        <g id="Grupo_140527" data-name="Grupo 140527">
          <path id="Trazado_182861" data-name="Trazado 182861" d="M1754.787,684.015h0a14.819,14.819,0,0,1-2.41,9.988c-1.067,1.421-2.392,2.2-3.823,1.749-5.753-1.833-1.177-15.012,2.173-15.427C1753.166,680.023,1754.411,681.681,1754.787,684.015Zm-1.991,3.408c-.474-.332-2.862.391-2.956.835-.109.517,1.556,2.1,2.262,1.958C1753.108,690.011,1753.373,687.826,1752.8,687.423Z" transform="translate(-1745.814 -680.29)" fill="#c7b5de"/>
          <path id="Trazado_182862" data-name="Trazado 182862" d="M1783.21,707.459c.625-.118,1.24-.247,1.808-.386,1.574-.384,2.788-.844,2.854-1.356.222-1.72-5.573-5.112-7.93-7.427a14.814,14.814,0,0,1-2.409,9.988l0,0S1780.469,707.976,1783.21,707.459Z" transform="translate(-1770.969 -694.566)" fill="#7345ad"/>
          <path id="Trazado_182863" data-name="Trazado 182863" d="M1765.252,715.27c-.109.517,1.555,2.1,2.262,1.957,1.006-.205,1.27-2.389.694-2.793C1767.733,714.1,1765.345,714.826,1765.252,715.27Z" transform="translate(-1761.225 -707.302)" fill="#7345ad"/>
          <path id="Trazado_182864" data-name="Trazado 182864" d="M1804.964,741.115l.391,6.326a16.888,16.888,0,0,1,1.807-.054l-.39-6.658C1806.2,740.868,1805.589,741,1804.964,741.115Z" transform="translate(-1792.723 -728.221)" fill="#7345ad"/>
        </g>
        <g id="Grupo_140528" data-name="Grupo 140528" transform="translate(11.71 15.656)">
          <path id="Trazado_182865" data-name="Trazado 182865" d="M1804.557,756a1.644,1.644,0,0,1,1.09.117,3.46,3.46,0,0,1,1.1.379c.352.271-.337.315-.518.328a3.643,3.643,0,0,1-1.274-.215C1804.593,756.507,1804.448,756.356,1804.557,756Z" transform="translate(-1804.082 -755.944)" fill="#f2b08a"/>
          <path id="Trazado_182866" data-name="Trazado 182866" d="M1803.688,758.71a1.832,1.832,0,0,1,1.116.158c.292.1.663.171.763.486a.6.6,0,0,1-.516.076c-.293-.041-.589-.025-.883-.047-.2-.015-.415-.014-.519-.2A.438.438,0,0,1,1803.688,758.71Z" transform="translate(-1803.35 -758.102)" fill="#f2b08a"/>
          <path id="Trazado_182867" data-name="Trazado 182867" d="M1802.88,761.725a3.5,3.5,0,0,1,1.644.267c.335.216-.007.335-.248.337a7.774,7.774,0,0,1-1.175-.057C1802.8,762.229,1802.677,762.046,1802.88,761.725Z" transform="translate(-1802.701 -760.529)" fill="#f2b08a"/>
          <path id="Trazado_182868" data-name="Trazado 182868" d="M1802.593,763.61a.328.328,0,0,0-.177.391c.052.109.233.132.341.158a1.787,1.787,0,0,0,.462.061,1.027,1.027,0,0,0,.548-.144c.224-.17.053-.35-.17-.422a3.428,3.428,0,0,0-.669-.076.743.743,0,0,0-.183-.015C1802.7,763.569,1802.653,763.6,1802.593,763.61Z" transform="translate(-1802.399 -761.985)" fill="#f2b08a"/>
        </g>
        <path id="Trazado_182869" data-name="Trazado 182869" d="M1894.677,717.259a2.093,2.093,0,0,0,2.3.861,7.052,7.052,0,0,0,2.358-.809,2.876,2.876,0,0,0,1.16-1.351c.083-.191.251-.508.116-.708s-.378-.267-.556-.419a1.923,1.923,0,0,1-.413-.545,4.006,4.006,0,0,1-.321-.667,4.191,4.191,0,0,1-.207-.969,4.025,4.025,0,0,1,.3-1.723c.04-.112.09-.225.143-.339a6.6,6.6,0,0,1-1.415,1.023,8.3,8.3,0,0,1-1.656.725,4.965,4.965,0,0,1-1.131,2.36A2.287,2.287,0,0,0,1894.677,717.259Z" transform="translate(-1863.721 -704.319)" fill="url(#linear-gradient-9)"/>
        <path id="Trazado_182870" data-name="Trazado 182870" d="M1897.389,700.263a2.288,2.288,0,0,0,1.618-.414,8.507,8.507,0,0,0,1.427-1.18,6.762,6.762,0,0,0,1.105-1.405c.021-.139.047-.281.068-.422a2.178,2.178,0,0,0-.018-.964c-.242-.763-1.253-.3-1.256.366-.36-.5-.51-1.148-1.01-1.57a1.683,1.683,0,0,0-1.05-.437,5.357,5.357,0,0,0-1.379.085,6.578,6.578,0,0,0-.7,2.922C1896.146,698.279,1896.089,700,1897.389,700.263Z" transform="translate(-1865.06 -691.343)" fill="#f2b08a"/>
        <path id="Trazado_182871" data-name="Trazado 182871" d="M1911,733.9c-.1.3-1.2.559-1.494.8-.78.645.993,1.728.619,3.2-.572,2.257-.5,10.226-.5,10.226a9.513,9.513,0,0,1-.612-1.115.014.014,0,0,0,0-.006,13.435,13.435,0,0,1-1.036-3.111c-.019-.1-.037-.193-.054-.291-1.224-6.937.067-13.157,1.312-15.984a7.373,7.373,0,0,1,.456-.893,1.759,1.759,0,0,1,1.036.49C1912.137,728.589,1911.513,732.372,1911,733.9Z" transform="translate(-1873.985 -717.116)" fill="#bf566f"/>
        <path id="Trazado_182872" data-name="Trazado 182872" d="M1889.706,744.292c.212-1.595-.7-1.064-1-1.968s-1.1-6.1,1.111-7.32a15.931,15.931,0,0,0,.424,7.107c.647,2.374,1.76,5.847,2.58,8.348.574,1.747,1,3.019,1.036,3.111C1891.858,750.112,1889.492,745.887,1889.706,744.292Z" transform="translate(-1858.824 -723.681)" fill="#bf566f"/>
      </g>
      <g id="Grupo_140530" data-name="Grupo 140530" transform="translate(10.967 297.157)">
        <path id="Trazado_182873" data-name="Trazado 182873" d="M463.683,1610.149l-26.479-.519-.7,1.515,26.928.519Z" transform="translate(-402.209 -1573.684)" fill="#82c6ff"/>
        <path id="Trazado_182874" data-name="Trazado 182874" d="M356.18,1435.931l18.038,39.832h-2.086l-17.517-39.074Z" transform="translate(-337.264 -1435.931)" fill="#82c6ff"/>
        <path id="Trazado_182875" data-name="Trazado 182875" d="M410.952,1435.931l-16.43,42.718h2.034l16.482-42.718Z" transform="translate(-368.912 -1435.931)" fill="#b4ddff"/>
        <path id="Trazado_182876" data-name="Trazado 182876" d="M286.938,1435.931l-16.169,41.623H272.8l16.221-41.623Z" transform="translate(-270.769 -1435.931)" fill="#b4ddff"/>
        <path id="Trazado_182877" data-name="Trazado 182877" d="M420.834,1435.931H422.4l-16.273,42.718h-1.773Z" transform="translate(-376.707 -1435.931)" fill="#82c6ff"/>
        <path id="Trazado_182878" data-name="Trazado 182878" d="M296.82,1435.931h1.634l-16.134,41.623H280.6Z" transform="translate(-278.564 -1435.931)" fill="#82c6ff"/>
        <path id="Trazado_182879" data-name="Trazado 182879" d="M360.7,1480.446H336.323l-.7,1.515h24.828Z" transform="translate(-322.206 -1471.234)" fill="#b4ddff"/>
        <path id="Trazado_182880" data-name="Trazado 182880" d="M377.824,1435.931H353.445l-.7,1.515h24.828Z" transform="translate(-335.784 -1435.931)" fill="#b4ddff"/>
        <path id="Trazado_182881" data-name="Trazado 182881" d="M343.882,1525.085l-24.193-.519-.7,1.515,24.641.519Z" transform="translate(-309.013 -1506.223)" fill="#b4ddff"/>
        <path id="Trazado_182882" data-name="Trazado 182882" d="M323.739,1577.762l-24.193-.519-.7,1.515,24.641.519Z" transform="translate(-293.039 -1547.999)" fill="#b4ddff"/>
        <path id="Trazado_182883" data-name="Trazado 182883" d="M485.562,1435.931l18.038,39.832h-2.086L484,1436.688Z" transform="translate(-439.871 -1435.931)" fill="#82c6ff"/>
      </g>
      <g id="Grupo_140534" data-name="Grupo 140534" transform="translate(23.586 186.847)">
        <g id="Grupo_140533" data-name="Grupo 140533">
          <g id="Grupo_140531" data-name="Grupo 140531" transform="translate(4.438 39.672)">
            <path id="Trazado_182884" data-name="Trazado 182884" d="M375.41,1418.258c.516.564-7.491,1.137-8.907.367s-.369-1.266-.066-3.961l2.7.2C369.043,1416.59,374.895,1417.694,375.41,1418.258Z" transform="translate(-363.175 -1348.427)" fill="#7345ad"/>
            <path id="Trazado_182885" data-name="Trazado 182885" d="M364.73,1112.242c.7,13.267-5.569,48.786-5.569,48.786h-2.795c-3.82-18.915-.718-23.141-.541-29.755.342-12.817-5.654-26.7-.588-35.271C364.974,1091.25,364.03,1098.976,364.73,1112.242Z" transform="translate(-353.195 -1094.593)" fill="url(#linear-gradient-25)"/>
          </g>
          <path id="Trazado_182886" data-name="Trazado 182886" d="M372.214,1127.213c-1.165-.378-2.164-.745-3.074-1.078a7.425,7.425,0,0,0,1.653-.553c3.564-1.677,8.106-1.817,13.417.909C384.979,1128.89,376.518,1128.608,372.214,1127.213Z" transform="translate(-361.402 -1078.538)" fill="#9b67bb"/>
          <g id="Grupo_140532" data-name="Grupo 140532" transform="translate(6.789 40.519)">
            <path id="Trazado_182887" data-name="Trazado 182887" d="M451.507,1422c.652.42-5.175,1.677-7.738,1.724s-1.258-1.118-1.445-4.007c.606.792,2.283,0,2.283,0C446.564,1421.349,450.854,1421.582,451.507,1422Z" transform="translate(-426.096 -1353.282)" fill="#7345ad"/>
            <path id="Trazado_182888" data-name="Trazado 182888" d="M375.891,1103.118c6.616,12.155,11.711,17.745,11.647,26.621-.059,8.2-4.473,35.382-4.473,35.382s-1.677.792-2.283,0-2.7-18.749-1.048-27.206c1.187-6.08-1.049-8.735-3.844-11.81s-13.975-15.094-10.762-23.759S375.891,1103.118,375.891,1103.118Z" transform="translate(-364.554 -1098.685)" fill="#ff7394"/>
          </g>
          <path id="Trazado_182889" data-name="Trazado 182889" d="M402.458,971.534a5.9,5.9,0,0,0,.981.324,7.1,7.1,0,0,0,.4,4.842c.423.741-2.872.466-4.513-1.15C399.723,973.638,401.658,972.729,402.458,971.534Z" transform="translate(-385.344 -957.328)" fill="url(#linear-gradient-9)"/>
          <path id="Trazado_182890" data-name="Trazado 182890" d="M357.606,1017.492c-5.311-2.726-9.853-2.586-13.417-.909a7.424,7.424,0,0,1-1.653.553,9.685,9.685,0,0,1-6.942-1.461s5.52-5.8,5.73-12.928-3-13.2,2.865-15.164c3.446-1.152,9.154-.895,12.159,1.719s2.656,9.322.839,14.144S356.838,1015.535,357.606,1017.492Z" transform="translate(-334.798 -969.539)" fill="#cf89fa"/>
          <path id="Trazado_182891" data-name="Trazado 182891" d="M413.374,944.561c-1.258-3,.006-4.9,2.2-4.7a10.75,10.75,0,0,1,.7,1.529c.829,2.242.962,4.72-.142,5.272a3.066,3.066,0,0,1-1.958.065,5.925,5.925,0,0,1-.981-.324,1.828,1.828,0,0,0,.348-1.065A2.049,2.049,0,0,0,413.374,944.561Z" transform="translate(-396.086 -932.2)" fill="#f2b08a"/>
          <path id="Trazado_182892" data-name="Trazado 182892" d="M348.861,939.637c-.8,1.195-2.735,2.1-3.128,4.016a4.309,4.309,0,0,0,.227,2.315c1.677,4.845-2.376,10.378-7.733,11.035s-8.8-4.7-4.612-9.265,3.866-7.029,6.475-8.453a13.61,13.61,0,0,0,5.078-5.563c1.025-1.777,6.631-3.92,7.006-.886.07.563-1.891.991-1.891,4.249C350.284,938.281,349.08,939.312,348.861,939.637Z" transform="translate(-331.748 -925.431)" fill="#2a1b40"/>
          <path id="Trazado_182893" data-name="Trazado 182893" d="M560.426,907.8c-.093.8-1.195,2.725.35,2.74h.053a1.626,1.626,0,0,0,1.181-.571,3.137,3.137,0,0,1,.684-.633,4.556,4.556,0,0,1,1.057-.3,1.717,1.717,0,0,0,1.082-.841,1.575,1.575,0,0,0,.171-.816c-.007-.114-.07-.246-.065-.357.006-.16.1-.344.112-.514,0-.042-.12-.065-.132-.067l-.019,0a1.19,1.19,0,0,0,0-.894c-.056-.238-.177-.426-.2-.641a10.531,10.531,0,0,1,2.542-1.9c-1.049-.408-2.2.384-2.976,1.034-.078.066-.155.133-.23.2-.065.041-.13.082-.193.127-.518.366-.946.841-1.461,1.21C562.207,905.691,560.6,906.321,560.426,907.8Z" transform="translate(-512.732 -902.888)" fill="#f2b08a"/>
          <path id="Trazado_182894" data-name="Trazado 182894" d="M439.54,928.565a1.867,1.867,0,0,1-.107,1.687,36.079,36.079,0,0,1-19.269,16.808c-8.286,3.224-12.989,4.574-14.477-.718-.4-2.7,5.89-4.914,13.121-6.616S436.725,928.608,437.874,928a1.271,1.271,0,0,1,.449-.144A1.2,1.2,0,0,1,439.54,928.565Z" transform="translate(-390.371 -922.681)" fill="#cf89fa"/>
        </g>
      </g>
    </g>
  </g>
</svg>
