<svg xmlns="http://www.w3.org/2000/svg" xmlns:xlink="http://www.w3.org/1999/xlink" width="143" height="143" viewBox="0 0 143 143">
  <defs>
    <filter id="Elipse_4856" x="0" y="0" width="143" height="143" filterUnits="userSpaceOnUse">
      <feOffset dy="3" input="SourceAlpha"/>
      <feGaussianBlur stdDeviation="3" result="blur"/>
      <feFlood flood-opacity="0.161"/>
      <feComposite operator="in" in2="blur"/>
      <feComposite in="SourceGraphic"/>
    </filter>
  </defs>
  <g id="letra5" transform="translate(-466 -7336.866)">
    <g transform="matrix(1, 0, 0, 1, 466, 7336.87)" filter="url(#Elipse_4856)">
      <circle id="Elipse_4856-2" data-name="Elipse 4856" cx="62.5" cy="62.5" r="62.5" transform="translate(9 6)" fill="#fff"/>
    </g>
    <ellipse id="Elipse_4857" data-name="Elipse 4857" cx="57" cy="56.5" rx="57" ry="56.5" transform="translate(480 7348.866)" fill="#ff0092"/>
    <path id="Trazado_184915" data-name="Trazado 184915" d="M-4.214-10.131V0h-7.2V-29.859H.5A13.878,13.878,0,0,1,6.563-28.6a9.505,9.505,0,0,1,4.081,3.589,9.8,9.8,0,0,1,1.446,5.281,8.64,8.64,0,0,1-3.127,6.983Q5.834-10.131.379-10.131Zm0-5.558H.5a4.448,4.448,0,0,0,3.189-1.046,3.886,3.886,0,0,0,1.1-2.953A4.8,4.8,0,0,0,3.661-23.03,3.994,3.994,0,0,0,.584-24.3h-4.8Z" transform="translate(537 7421.866)" fill="#fff"/>
  </g>
</svg>
